<svg xmlns="http://www.w3.org/2000/svg" viewBox="0 0 900 300" width="900" height="300"><path d="M15.06 13.68 C289.33 12.67, 565.91 14.95, 885.30 14.26 M13.45 13.71 C354.66 17.61, 693.61 17.74, 886.02 14.74 M883.91 11.01 C889.83 67.79, 885.39 124.77, 887.97 283.43 M885.90 14.81 C887.95 82.33, 887.55 148.16, 887.00 284.69 M886.19 285.63 C660.11 285.48, 437.16 286.37, 14.02 284.52 M886.80 285.87 C596.18 289.83, 305.58 289.51, 14.05 286.27 M15.66 288.94 C10.30 195.39, 14.66 100.35, 12.55 14.06 M14.52 286.61 C10.02 204.51, 12.03 122.37, 12.63 13.58" fill="none" stroke="#202020" stroke-width="2" stroke-linecap="round" stroke-linejoin="round"/><path d="M28.84 30.97 C346.69 36.44, 665.31 37.21, 872.41 33.27 M28.71 31.46 C196.49 25.87, 365.57 26.30, 872.24 32.15" fill="none" stroke="#202020" stroke-width="2" stroke-linecap="round" stroke-linejoin="round"/><path d="M26.57 110.79 C355.93 110.65, 685.00 111.10, 871.03 110.16 M27.99 110.74 C352.24 103.41, 676.21 103.52, 872.46 111.06" fill="none" stroke="#202020" stroke-width="2" stroke-linecap="round" stroke-linejoin="round"/><path d="M27.91 190.81 C242.19 185.72, 454.33 182.77, 870.87 190.07 M27.40 188.68 C213.94 195.30, 399.65 194.86, 871.33 189.13" fill="none" stroke="#202020" stroke-width="2" stroke-linecap="round" stroke-linejoin="round"/><path d="M27.07 268.09 C353.57 260.97, 680.05 261.83, 872.06 267.34 M28.01 268.20 C241.49 266.37, 457.13 266.58, 871.34 267.98" fill="none" stroke="#202020" stroke-width="2" stroke-linecap="round" stroke-linejoin="round"/></svg>