<svg xmlns="http://www.w3.org/2000/svg" viewBox="0 0 960 420" width="960" height="420"><path d="M15.53 15.47 C335.96 16.90, 657.08 16.01, 947.01 15.22 M14.73 13.84 C227.68 9.69, 440.86 9.09, 946.57 13.37 M947.31 12.14 C949.49 99.13, 949.96 184.58, 944.71 404.04 M945.18 13.95 C949.74 136.28, 947.85 256.84, 944.92 406.63 M944.53 407.15 C748.30 405.56, 553.56 407.19, 15.48 407.51 M945.91 405.62 C591.44 410.94, 235.77 411.68, 13.83 405.54 M13.65 407.67 C17.43 297.59, 16.76 187.74, 13.78 12.01 M14.17 405.45 C11.50 263.03, 12.55 117.74, 13.93 14.86" fill="none" stroke="#202020" stroke-width="2" stroke-linecap="round" stroke-linejoin="round"/><path d="M27.16 32.99 C226.50 29.36, 424.18 28.60, 930.46 32.35 M28.33 32.40 C336.69 38.70, 644.79 38.47, 931.71 31.41" fill="none" stroke="#202020" stroke-width="2" stroke-linecap="round" stroke-linejoin="round"/><path d="M29.35 149.77 C279.56 153.19, 530.71 151.64, 932.70 151.77 M27.34 151.09 C375.72 145.05, 724.07 145.47, 931.34 149.95" fill="none" stroke="#202020" stroke-width="2" stroke-linecap="round" stroke-linejoin="round"/><path d="M29.52 270.46 C262.85 275.11, 500.30 274.80, 932.39 268.50 M27.45 269.83 C319.97 267.44, 611.28 266.98, 931.32 269.75" fill="none" stroke="#202020" stroke-width="2" stroke-linecap="round" stroke-linejoin="round"/><path d="M28.35 387.74 C300.84 386.41, 571.16 388.11, 932.00 389.51 M28.19 387.44 C352.72 385.11, 676.47 385.69, 931.95 387.87" fill="none" stroke="#202020" stroke-width="2" stroke-linecap="round" stroke-linejoin="round"/></svg>