<svg xmlns="http://www.w3.org/2000/svg" viewBox="0 0 900 320" width="900" height="320"><path d="M345.00 65.38 C345.00 65.38, 345.00 65.38, 345.00 65.38 M345.00 65.38 C345.00 65.38, 345.00 65.38, 345.00 65.38 M324.49 92.71 C339.17 78.99, 346.06 68.27, 364.00 55.73 M328.70 92.94 C338.65 76.59, 350.34 64.49, 359.34 51.11 M317.25 112.76 C331.55 90.92, 354.97 66.56, 376.34 40.05 M317.28 110.95 C330.18 90.24, 345.60 75.86, 375.64 42.07 M310.01 116.86 C334.46 98.75, 350.29 70.46, 384.94 38.80 M314.86 120.38 C334.35 92.75, 357.00 71.76, 385.37 35.94 M306.58 127.42 C330.14 107.90, 350.31 89.80, 392.36 37.21 M311.51 131.20 C331.11 106.56, 349.69 85.46, 391.86 34.40 M304.15 136.47 C335.82 100.82, 369.16 68.39, 398.32 30.55 M306.30 138.39 C331.71 109.58, 359.03 74.95, 399.66 30.37 M303.81 152.55 C342.72 106.82, 371.39 66.95, 411.17 32.23 M305.85 150.98 C339.06 110.43, 374.62 68.50, 410.61 30.18 M307.65 157.40 C343.67 115.86, 373.32 68.41, 417.20 25.96 M304.62 157.36 C331.52 124.30, 358.10 95.96, 415.77 26.41 M300.79 164.61 C332.38 132.47, 357.24 95.40, 423.37 23.02 M301.64 163.36 C335.67 126.70, 370.08 88.36, 423.16 24.36 M301.96 167.56 C341.35 125.29, 380.48 78.82, 428.17 20.51 M304.64 169.13 C335.35 133.45, 364.13 101.03, 430.47 23.96 M305.53 172.42 C349.82 121.45, 403.72 63.02, 433.21 23.72 M302.29 176.00 C341.35 129.29, 381.93 85.13, 435.40 22.47 M303.12 182.40 C359.28 116.41, 411.20 57.88, 440.68 20.71 M303.25 181.79 C343.96 134.00, 387.92 87.44, 440.15 21.29 M304.36 186.18 C343.06 137.56, 381.56 91.95, 446.90 21.71 M303.08 189.07 C351.51 131.64, 400.52 74.61, 446.57 22.42 M302.30 194.96 C343.67 140.74, 390.08 86.12, 448.87 25.49 M300.70 192.77 C347.15 143.45, 390.37 91.74, 452.00 21.32 M306.60 201.52 C350.61 148.19, 391.24 96.79, 457.06 18.93 M301.95 200.19 C339.23 157.74, 375.62 112.44, 456.64 21.07 M303.78 202.32 C363.21 130.41, 422.90 63.90, 463.80 22.48 M306.00 201.64 C349.09 146.76, 396.09 95.42, 460.36 22.95 M307.03 207.32 C359.06 151.31, 400.48 96.56, 464.37 24.44 M306.66 206.96 C354.11 154.12, 400.36 100.60, 466.80 22.26 M310.65 213.01 C366.06 143.51, 425.70 68.91, 473.32 21.08 M309.24 212.46 C362.37 149.21, 419.49 85.46, 471.39 24.15 M309.85 214.42 C372.07 140.18, 442.93 62.14, 473.58 23.45 M308.30 217.80 C343.49 177.24, 380.65 136.77, 474.08 23.61 M311.91 218.73 C352.25 167.68, 400.89 118.26, 479.91 26.60 M310.78 220.39 C347.02 183.37, 380.27 144.87, 478.77 25.97 M310.29 225.21 C365.44 157.22, 425.16 93.42, 486.67 28.01 M312.63 224.95 C359.87 168.53, 412.23 109.94, 484.90 28.41 M312.03 232.65 C362.47 169.08, 416.89 110.05, 485.32 31.15 M311.95 230.54 C368.49 166.39, 428.22 101.26, 488.27 29.45 M311.83 236.12 C369.96 166.93, 424.43 108.46, 493.36 28.42 M314.47 236.08 C361.18 176.97, 409.96 123.50, 493.83 27.31 M314.54 238.01 C362.97 177.97, 416.77 122.76, 495.38 32.42 M316.16 238.04 C379.12 160.11, 446.06 85.04, 496.31 28.50 M317.84 241.45 C377.62 171.73, 440.27 104.12, 501.31 28.63 M317.33 242.01 C383.16 168.92, 448.87 92.04, 503.56 31.89 M321.91 247.33 C383.75 169.39, 450.55 94.66, 509.27 30.70 M318.81 247.89 C355.71 198.83, 392.55 155.47, 505.88 31.25 M324.17 251.83 C370.10 191.48, 424.63 136.30, 512.82 31.53 M323.57 250.50 C393.78 167.40, 465.90 86.40, 510.51 33.91 M321.61 254.98 C378.67 191.89, 433.12 131.93, 511.28 34.87 M323.24 253.94 C376.84 191.04, 430.11 128.30, 512.49 35.49 M326.56 259.03 C379.52 195.59, 430.93 135.32, 515.83 35.50 M325.79 256.27 C383.26 190.49, 441.15 126.33, 516.73 38.06 M325.54 261.91 C404.76 177.47, 482.33 88.74, 519.22 41.87 M329.08 262.59 C400.78 175.04, 475.62 89.25, 519.41 40.33 M330.84 266.54 C389.66 194.69, 445.14 125.73, 522.41 40.09 M329.90 266.01 C386.02 198.76, 444.41 131.37, 523.66 41.60 M332.89 267.42 C387.28 208.92, 440.09 148.55, 528.62 44.16 M331.66 269.90 C405.20 180.91, 482.18 95.16, 526.05 44.66 M337.60 274.20 C410.69 183.16, 488.24 93.13, 529.85 48.32 M336.08 273.41 C401.67 197.09, 467.30 122.37, 531.37 47.67 M336.30 276.11 C376.53 234.23, 417.93 182.89, 532.22 46.50 M335.68 275.51 C413.28 191.84, 488.70 104.11, 535.65 47.91 M342.29 277.18 C391.24 219.58, 441.56 157.90, 538.61 49.10 M340.00 278.77 C399.93 208.64, 461.72 138.36, 536.23 49.97 M342.53 280.71 C422.75 195.95, 500.15 110.01, 542.34 51.45 M342.34 281.87 C416.53 190.30, 494.74 99.60, 540.23 54.47 M346.67 285.86 C402.38 215.91, 466.28 147.22, 544.86 57.59 M346.09 283.56 C408.56 216.66, 466.15 147.74, 543.08 55.15 M350.69 289.28 C406.09 226.71, 459.30 159.64, 547.31 58.15 M348.82 286.45 C403.85 225.67, 452.52 166.69, 547.66 56.22 M353.19 291.06 C393.09 244.19, 438.34 194.17, 551.48 63.48 M351.19 289.48 C422.02 205.90, 496.41 121.18, 551.51 60.12 M352.56 291.30 C420.36 219.97, 483.97 144.13, 551.21 63.04 M354.94 292.10 C395.10 246.28, 432.90 202.27, 553.71 64.37 M357.23 294.83 C435.10 204.34, 514.92 109.87, 557.98 66.42 M356.82 296.17 C433.33 208.83, 506.67 122.19, 554.74 66.82 M363.03 297.45 C409.57 231.52, 463.46 171.79, 556.55 72.24 M359.41 296.71 C423.14 221.17, 489.08 144.59, 559.99 68.90 M365.26 302.41 C417.06 236.57, 480.98 167.71, 559.82 73.48 M362.94 299.56 C401.02 254.52, 442.15 207.01, 560.29 73.73 M368.63 304.51 C421.49 240.88, 471.34 181.50, 563.38 76.24 M365.51 301.88 C405.56 255.24, 449.52 209.02, 565.30 75.31 M372.32 307.95 C407.52 255.33, 447.40 210.03, 565.66 76.25 M369.20 306.55 C423.11 244.14, 475.11 181.83, 565.44 77.72 M370.92 306.47 C441.15 228.87, 514.25 142.13, 569.85 83.67 M371.45 309.26 C432.76 239.28, 491.99 174.95, 567.58 82.79 M376.45 308.11 C450.25 224.98, 520.57 148.85, 570.01 82.59 M375.51 308.42 C443.18 233.26, 507.91 156.98, 571.29 85.01 M379.19 309.60 C447.54 234.99, 507.96 163.11, 575.30 89.88 M380.61 312.65 C441.37 245.92, 499.58 176.09, 574.00 87.12 M386.52 311.19 C448.83 237.10, 521.16 158.51, 576.12 89.79 M383.17 314.91 C429.69 257.09, 479.12 198.23, 578.59 92.13 M388.89 312.85 C436.49 258.03, 485.96 200.57, 578.54 97.53 M386.77 315.94 C457.82 234.13, 527.61 155.53, 578.18 94.36 M389.39 319.27 C460.16 232.70, 530.09 151.92, 582.88 101.24 M392.18 318.14 C441.37 258.85, 492.51 198.78, 580.77 98.22 M396.70 318.28 C461.35 238.90, 533.77 159.65, 584.59 103.34 M394.59 317.08 C436.27 272.83, 473.70 228.76, 581.60 104.86 M396.26 321.56 C454.64 258.40, 512.84 192.18, 586.84 107.85 M400.05 321.80 C441.96 274.48, 483.41 224.76, 584.55 106.63 M403.20 324.51 C472.98 240.93, 542.75 156.54, 586.59 114.31 M402.10 323.71 C472.22 238.59, 546.32 157.24, 586.03 111.00 M405.82 321.53 C469.38 245.54, 542.31 170.59, 587.62 115.45 M407.57 325.61 C472.60 248.01, 540.21 170.12, 585.98 116.52 M412.49 326.40 C470.29 257.14, 534.07 187.84, 591.63 122.01 M409.53 324.52 C469.10 253.35, 530.92 179.95, 588.25 118.46 M416.53 325.84 C466.71 261.88, 522.04 198.61, 588.86 122.38 M414.40 328.34 C456.31 281.85, 495.18 236.54, 591.42 124.30 M417.19 328.31 C481.79 256.65, 535.79 192.38, 588.87 129.45 M419.80 327.78 C461.54 273.43, 506.72 223.65, 592.47 129.32 M425.93 329.97 C483.49 255.83, 542.90 188.93, 596.23 133.85 M424.84 328.39 C480.33 256.94, 541.23 188.82, 592.96 133.17 M431.30 329.78 C476.20 278.95, 522.83 225.29, 595.67 137.77 M429.52 328.19 C464.52 283.26, 501.75 239.19, 596.11 136.53 M433.73 326.07 C496.81 258.98, 556.54 185.91, 595.31 139.50 M435.36 328.44 C497.64 252.16, 561.15 177.59, 596.18 141.16 M437.23 331.01 C481.52 276.52, 525.37 229.53, 599.56 148.54 M437.93 330.06 C474.49 282.81, 513.65 236.51, 596.13 147.19 M447.09 326.01 C486.71 271.36, 539.07 216.99, 594.96 152.68 M445.14 329.57 C481.52 289.50, 516.86 250.95, 596.34 153.16 M450.78 326.38 C503.30 275.97, 551.28 220.22, 598.85 157.75 M449.29 328.28 C492.96 278.47, 533.24 232.19, 598.02 156.59 M451.29 327.05 C491.76 287.59, 531.41 236.87, 599.97 166.65 M455.63 329.27 C483.90 288.82, 515.91 254.13, 599.80 162.25 M457.83 331.10 C498.96 284.98, 536.55 242.53, 600.08 170.63 M460.58 328.70 C493.81 285.68, 530.94 245.01, 600.22 167.85 M468.31 331.02 C500.29 282.36, 542.36 237.23, 602.75 173.71 M465.85 327.51 C508.86 277.58, 555.51 224.66, 598.65 173.90 M469.33 323.59 C516.27 273.49, 563.40 220.29, 599.85 181.41 M471.17 325.81 C505.53 288.46, 535.94 250.76, 601.48 179.93 M475.16 323.79 C512.06 280.40, 548.95 244.23, 603.12 189.09 M477.59 324.55 C528.83 270.44, 576.17 217.22, 602.52 184.74 M481.60 322.84 C511.73 300.10, 538.40 263.25, 596.44 189.82 M484.48 325.90 C532.75 274.43, 573.81 223.12, 600.11 192.81 M494.55 327.41 C530.13 276.02, 571.42 230.46, 598.82 205.47 M491.82 325.96 C530.16 281.51, 572.75 233.83, 599.03 201.74 M498.89 321.09 C537.81 280.23, 573.22 236.03, 592.74 205.46 M497.93 325.03 C530.10 284.54, 563.92 244.35, 595.05 209.61 M507.18 322.50 C540.92 287.51, 570.64 247.63, 596.52 214.85 M506.51 320.78 C528.87 294.84, 547.91 270.89, 593.66 216.41 M518.14 309.82 C542.07 283.20, 571.97 247.53, 594.42 223.62 M515.41 312.68 C536.67 290.38, 559.33 262.84, 594.65 226.54 M526.80 304.08 C545.79 287.34, 559.62 270.59, 585.37 240.07 M525.89 305.98 C545.42 283.73, 566.14 262.07, 587.73 236.47 M539.96 299.97 C552.37 291.88, 558.56 271.77, 580.51 253.79 M537.58 300.30 C551.12 286.39, 564.29 271.71, 580.39 251.28 M565.42 276.33 C569.75 273.85, 570.71 271.33, 573.23 264.45 M566.17 275.35 C568.45 271.27, 571.32 269.04, 573.87 265.69" fill="#faf7ef" stroke="none"/><path d="M547.52 57.17 C559.84 64.49, 569.08 78.22, 576.99 91.49 C584.90 104.76, 591.03 121.73, 594.99 136.77 C598.94 151.82, 601.22 166.46, 600.72 181.77 C600.21 197.09, 596.82 214.25, 591.96 228.66 C587.10 243.08, 580.50 256.21, 571.55 268.26 C562.59 280.31, 550.47 291.79, 538.23 300.97 C525.99 310.16, 512.14 318.59, 498.11 323.36 C484.08 328.12, 468.50 329.13, 454.05 329.57 C439.59 330.00, 425.11 329.57, 411.39 325.94 C397.68 322.31, 384.22 316.09, 371.74 307.79 C359.26 299.48, 346.03 287.98, 336.52 276.11 C327.00 264.24, 320.47 250.37, 314.65 236.56 C308.82 222.76, 303.43 207.90, 301.58 193.28 C299.72 178.66, 300.64 163.62, 303.50 148.85 C306.37 134.09, 311.83 118.61, 318.76 104.69 C325.68 90.77, 334.64 76.49, 345.06 65.32 C355.48 54.14, 368.27 44.77, 381.29 37.65 C394.31 30.53, 409.01 25.16, 423.18 22.60 C437.34 20.05, 452.13 20.69, 466.26 22.32 C480.39 23.94, 492.67 24.42, 507.95 32.34 C523.22 40.26, 548.33 61.54, 557.90 69.84 C567.48 78.13, 567.20 80.63, 565.42 82.10 M336.26 71.99 C343.22 59.11, 357.69 49.52, 370.37 42.08 C383.05 34.64, 398.09 31.06, 412.36 27.34 C426.64 23.63, 440.85 18.81, 456.02 19.79 C471.19 20.77, 489.75 28.21, 503.39 33.20 C517.04 38.19, 526.03 41.37, 537.90 49.70 C549.77 58.04, 565.76 70.66, 574.60 83.23 C583.44 95.80, 586.80 110.17, 590.94 125.11 C595.09 140.05, 599.10 157.74, 599.46 172.86 C599.82 187.99, 596.67 200.93, 593.10 215.87 C589.54 230.80, 585.78 249.15, 578.08 262.47 C570.39 275.80, 558.85 286.41, 546.94 295.83 C535.03 305.25, 520.31 313.42, 506.62 318.98 C492.94 324.54, 479.66 327.29, 464.82 329.18 C449.98 331.07, 431.70 333.03, 417.59 330.34 C403.48 327.65, 392.37 320.58, 380.16 313.03 C367.94 305.48, 354.44 295.66, 344.30 285.05 C334.16 274.44, 325.88 263.12, 319.32 249.37 C312.77 235.63, 308.02 217.73, 304.95 202.57 C301.87 187.41, 299.21 173.69, 300.88 158.40 C302.55 143.12, 309.17 124.61, 314.97 110.86 C320.77 97.11, 331.68 81.49, 335.68 75.90 C339.68 70.32, 336.28 75.73, 338.98 77.34" fill="none" stroke="#202020" stroke-width="2" stroke-linecap="round" stroke-linejoin="round"/><path d="M269.07 48.39 C269.07 48.39, 269.07 48.39, 269.07 48.39 M269.07 48.39 C269.07 48.39, 269.07 48.39, 269.07 48.39 M259.14 63.38 C276.48 52.02, 286.28 35.04, 314.32 4.04 M260.93 61.07 C277.18 47.70, 290.81 32.70, 313.40 2.96 M256.04 75.91 C280.22 53.56, 298.39 28.45, 327.09 -8.16 M254.76 73.13 C272.92 59.65, 287.55 40.89, 328.92 -6.22 M252.07 85.48 C269.72 62.48, 291.74 42.12, 336.79 -16.02 M249.45 87.53 C275.08 57.30, 303.24 28.67, 341.84 -15.70 M246.61 103.16 C270.55 66.19, 301.91 38.23, 353.50 -27.62 M244.88 98.48 C278.31 59.03, 314.95 18.88, 355.45 -26.81 M245.50 104.82 C287.74 59.96, 332.39 6.65, 358.35 -29.28 M242.44 110.21 C272.36 72.47, 304.93 35.96, 360.57 -26.58 M242.27 118.88 C277.99 75.30, 316.03 31.50, 373.55 -32.26 M240.07 117.07 C291.25 61.72, 342.95 6.50, 370.86 -32.73 M237.75 121.76 C269.53 84.66, 303.89 53.46, 377.35 -32.12 M240.12 125.61 C284.39 74.77, 324.19 26.10, 379.39 -34.07 M239.26 131.84 C277.07 90.50, 315.68 46.24, 385.08 -36.89 M238.77 132.81 C280.47 83.88, 318.05 40.23, 384.15 -37.34 M233.65 144.63 C274.94 93.17, 318.26 41.36, 391.73 -39.28 M236.02 141.40 C284.57 83.08, 337.45 22.51, 394.31 -41.98 M232.14 150.58 C272.23 109.90, 302.77 65.39, 399.95 -40.58 M234.17 148.53 C279.67 98.07, 324.89 44.75, 401.62 -41.96 M230.88 158.42 C292.93 83.51, 356.57 13.03, 410.78 -43.68 M233.45 157.71 C300.55 82.02, 368.95 1.43, 407.44 -45.65 M229.76 165.93 C302.20 83.35, 363.93 12.98, 414.71 -43.27 M233.80 162.66 C295.49 93.60, 360.59 21.25, 414.41 -45.27 M231.61 167.56 C295.17 95.11, 362.29 17.52, 418.14 -46.07 M231.84 168.10 C298.86 98.85, 361.89 24.76, 420.05 -45.31 M232.80 174.23 C308.57 94.62, 378.34 8.84, 425.72 -48.38 M232.27 174.32 C276.37 123.84, 318.91 71.98, 425.22 -45.21 M232.31 183.86 C284.73 127.55, 330.80 69.35, 429.74 -44.92 M232.85 180.21 C291.71 116.58, 347.62 52.08, 430.12 -44.46 M235.03 187.49 C309.02 101.29, 386.27 16.18, 434.98 -48.63 M231.56 188.76 C290.85 117.82, 352.87 48.45, 436.52 -45.44 M233.49 192.25 C290.32 136.31, 339.51 76.20, 444.48 -44.50 M231.80 193.68 C271.82 144.35, 316.60 92.95, 441.95 -47.35 M230.18 198.61 C291.39 139.28, 345.87 75.94, 449.85 -44.56 M233.00 199.19 C275.64 148.14, 319.61 97.48, 447.62 -46.28 M235.90 204.51 C298.10 129.64, 366.41 53.91, 453.79 -49.77 M233.39 204.89 C306.18 117.20, 382.19 31.63, 453.93 -46.77 M233.15 209.66 C307.51 131.40, 380.00 46.82, 456.30 -45.56 M232.65 210.46 C290.77 140.92, 351.55 72.08, 457.36 -47.12 M237.67 214.68 C304.18 131.55, 370.14 55.58, 463.45 -48.27 M236.49 215.59 C294.60 145.13, 355.41 74.16, 462.26 -46.29 M234.49 220.70 C305.86 138.12, 373.95 57.07, 467.35 -47.29 M235.65 220.87 C321.80 124.06, 406.83 25.00, 467.28 -45.64 M239.59 223.28 C333.13 115.45, 422.47 11.35, 474.85 -45.14 M237.92 224.74 C329.58 123.23, 415.52 22.65, 472.86 -44.80 M240.16 230.43 C285.87 169.64, 337.30 107.80, 479.03 -44.40 M239.36 229.26 C296.44 164.16, 352.31 99.86, 476.43 -43.64 M238.41 235.55 C302.28 161.11, 363.55 91.77, 480.86 -46.41 M240.07 233.06 C326.02 132.27, 413.74 30.69, 481.98 -44.96 M243.77 238.19 C332.72 137.37, 418.71 37.17, 487.84 -42.46 M242.57 238.19 C336.81 131.72, 430.09 24.52, 485.52 -42.68 M242.44 243.23 C324.19 139.13, 414.41 42.35, 489.84 -43.35 M243.55 241.55 C306.26 169.54, 371.07 93.42, 490.96 -43.99 M246.66 245.42 C311.36 170.38, 378.44 91.60, 493.81 -41.52 M244.76 248.07 C315.14 163.98, 387.50 80.45, 494.81 -41.24 M247.60 250.61 C345.85 142.39, 444.77 27.14, 499.49 -42.47 M247.43 252.46 C296.54 192.98, 350.42 131.93, 501.61 -42.32 M248.04 254.69 C316.21 172.14, 392.05 88.97, 503.92 -38.43 M246.60 255.02 C317.64 173.77, 392.02 90.35, 504.80 -39.63 M250.48 258.16 C312.38 188.49, 378.10 115.33, 511.59 -41.80 M249.31 259.19 C328.49 167.19, 410.03 73.91, 510.38 -41.10 M248.78 265.84 C349.41 152.49, 446.92 38.31, 514.30 -39.34 M250.53 265.74 C327.03 175.57, 403.34 88.99, 514.09 -38.76 M251.72 270.30 C357.78 144.88, 461.06 23.39, 517.35 -37.35 M252.22 268.03 C330.20 178.74, 410.52 86.35, 517.49 -36.15 M253.15 273.36 C315.71 198.99, 381.63 126.48, 522.14 -34.16 M254.91 273.29 C342.40 175.88, 428.43 76.69, 521.82 -35.95 M257.31 275.00 C354.76 171.63, 446.30 65.55, 525.02 -34.29 M255.75 276.36 C358.10 163.48, 456.09 50.49, 526.50 -33.05 M256.45 281.84 C352.49 171.35, 445.97 64.31, 531.14 -31.24 M257.50 280.17 C312.11 214.61, 369.02 149.98, 529.69 -33.03 M261.33 283.77 C322.57 220.10, 377.90 152.91, 532.49 -29.76 M261.72 283.56 C354.25 180.64, 445.49 76.30, 534.45 -31.20 M261.22 287.59 C318.93 220.54, 374.16 157.22, 538.12 -30.03 M261.37 287.37 C353.51 182.39, 446.51 76.47, 537.68 -28.16 M262.47 293.60 C372.24 165.57, 476.84 43.03, 538.96 -26.54 M264.71 292.63 C330.77 218.42, 393.36 145.87, 540.42 -27.42 M266.49 293.96 C360.62 188.85, 453.67 82.44, 545.82 -23.96 M267.33 296.15 C334.45 217.19, 403.65 138.57, 544.05 -24.14 M266.26 301.01 C326.59 232.27, 387.43 162.47, 548.29 -23.90 M267.38 299.14 C362.26 190.74, 455.93 84.68, 548.17 -22.81 M268.91 301.36 C340.50 228.88, 404.40 149.12, 551.47 -22.32 M271.04 302.28 C343.43 219.65, 413.17 139.65, 553.11 -22.29 M273.34 307.10 C352.78 215.83, 433.94 125.02, 557.50 -20.16 M271.80 307.41 C375.52 183.46, 483.48 60.45, 556.89 -20.49 M275.00 308.78 C357.18 216.69, 434.87 123.23, 558.25 -17.34 M274.18 310.65 C333.42 242.93, 391.92 175.91, 559.40 -18.09 M278.22 313.26 C341.05 244.11, 401.92 175.29, 564.32 -16.66 M276.84 314.98 C381.03 199.32, 482.92 80.98, 563.84 -15.93 M279.99 315.35 C341.21 251.30, 400.52 183.36, 566.05 -11.79 M279.72 316.41 C387.77 190.24, 495.81 65.64, 566.72 -12.76 M282.90 320.24 C373.52 214.64, 465.42 109.04, 569.52 -10.02 M282.10 319.13 C359.70 230.67, 439.85 138.95, 569.42 -11.88 M283.66 323.45 C358.61 235.61, 434.89 146.22, 570.74 -9.87 M285.24 322.18 C367.54 229.15, 448.65 133.39, 571.96 -7.68 M288.77 324.06 C363.76 239.14, 435.52 153.88, 577.71 -7.55 M287.23 325.46 C348.22 255.12, 406.58 187.57, 575.95 -5.24 M292.67 329.45 C369.15 235.26, 447.33 147.72, 577.94 -4.96 M290.43 328.74 C357.02 245.45, 427.28 165.66, 578.04 -2.27 M295.06 332.12 C391.52 214.68, 491.20 97.45, 582.08 -0.33 M294.54 330.20 C409.43 199.90, 521.95 69.64, 582.03 -1.35 M295.41 335.95 C376.32 244.53, 455.84 150.09, 584.66 3.19 M295.86 335.16 C386.89 230.73, 479.57 124.30, 585.08 1.73 M297.44 335.60 C410.80 205.90, 527.36 75.04, 588.23 4.98 M299.32 337.51 C371.97 247.73, 447.88 161.20, 586.88 3.99 M301.74 339.50 C375.12 255.58, 447.71 173.41, 589.69 7.79 M302.57 340.06 C373.96 257.92, 444.19 176.08, 591.34 7.17 M303.14 344.48 C372.41 262.23, 444.45 181.29, 594.34 11.73 M305.54 343.79 C409.93 222.69, 515.12 102.68, 593.65 9.55 M308.01 344.88 C420.87 213.11, 535.33 81.05, 596.29 13.15 M306.71 346.44 C402.09 235.34, 495.90 128.94, 598.40 11.10 M309.92 347.91 C396.44 250.57, 484.37 149.58, 600.13 13.65 M310.04 348.73 C404.14 237.41, 500.57 127.64, 601.06 14.48 M312.27 352.22 C418.06 229.82, 526.82 104.39, 602.27 15.42 M312.67 351.43 C397.83 260.10, 477.98 167.05, 603.78 16.26 M315.82 352.28 C416.50 235.32, 522.07 115.64, 606.50 20.79 M315.77 354.82 C389.73 267.63, 466.87 177.64, 605.66 20.74 M320.76 356.18 C428.54 235.39, 536.49 113.90, 610.41 24.42 M319.62 356.70 C417.39 244.06, 515.71 130.71, 608.62 23.41 M321.43 356.86 C437.61 226.95, 547.10 100.21, 610.95 24.61 M323.98 357.92 C421.71 239.69, 523.58 124.53, 611.52 26.95 M324.65 359.70 C431.55 239.76, 536.30 120.39, 615.33 29.71 M326.81 361.29 C407.98 266.71, 489.24 172.75, 614.61 30.94 M328.80 362.53 C413.00 268.45, 495.40 170.99, 615.58 30.65 M331.00 361.99 C440.30 238.83, 549.18 113.80, 615.95 33.25 M333.63 365.22 C418.85 265.68, 499.33 170.15, 618.55 37.50 M333.05 364.02 C415.08 272.91, 496.66 180.50, 619.82 36.22 M337.70 365.52 C415.49 276.83, 495.72 187.05, 620.17 38.03 M335.72 367.59 C434.93 252.32, 533.86 136.72, 622.40 38.55 M342.08 370.80 C425.06 268.15, 516.95 168.43, 623.21 41.83 M340.02 368.30 C447.67 243.70, 556.64 117.86, 623.68 42.98 M344.19 371.67 C437.77 264.71, 528.97 160.54, 624.25 47.92 M342.90 372.26 C423.95 282.05, 504.34 192.09, 625.30 45.58 M345.61 373.17 C429.19 281.32, 512.04 185.82, 627.32 46.98 M347.31 373.67 C427.27 281.59, 506.76 191.49, 629.50 48.27 M350.43 376.09 C441.74 276.70, 531.06 174.63, 631.84 51.84 M349.77 374.73 C416.59 300.63, 481.30 224.68, 632.43 51.59 M352.82 378.22 C416.49 306.17, 480.13 233.23, 634.67 53.42 M354.47 377.57 C466.37 250.19, 577.21 122.80, 633.89 56.15 M359.00 381.57 C431.33 292.45, 505.87 207.68, 637.64 60.08 M357.12 379.77 C436.84 286.13, 515.29 195.88, 635.53 59.84 M362.86 382.93 C434.11 297.55, 510.31 207.54, 640.35 62.22 M361.70 382.48 C443.68 284.00, 525.64 188.65, 639.31 62.71 M363.50 384.92 C453.29 287.43, 540.56 184.98, 641.70 66.74 M365.65 382.79 C441.29 293.31, 520.01 202.61, 640.82 65.42 M370.20 386.59 C430.04 314.09, 490.30 247.89, 644.05 69.82 M368.11 384.26 C477.53 260.61, 587.02 134.83, 641.09 71.42 M373.51 383.44 C469.59 276.94, 567.76 163.30, 641.87 76.31 M374.06 386.33 C430.02 321.82, 486.28 253.68, 643.53 75.38 M377.54 388.48 C439.13 318.05, 496.90 251.13, 643.30 77.05 M377.65 387.60 C452.66 304.61, 523.75 223.10, 645.13 79.35 M383.23 385.98 C466.06 289.75, 554.06 194.03, 647.43 84.02 M382.64 388.11 C475.05 283.85, 565.98 177.08, 648.00 82.12 M388.08 389.41 C457.25 302.23, 530.97 216.15, 647.83 85.01 M386.99 388.99 C442.24 324.34, 499.54 261.14, 648.94 87.63 M389.45 392.12 C451.75 316.66, 513.61 248.05, 648.99 89.88 M389.99 389.08 C494.64 270.33, 597.42 152.42, 649.54 90.47 M394.84 392.31 C477.80 300.79, 557.16 207.14, 651.40 94.32 M394.94 391.77 C479.42 289.37, 567.90 187.89, 652.86 94.40 M397.66 395.18 C491.54 280.92, 585.58 169.96, 651.76 100.93 M398.05 393.12 C465.39 317.71, 532.74 240.90, 654.04 98.63 M405.17 395.46 C496.29 283.95, 588.61 176.47, 653.95 103.53 M403.38 394.82 C483.61 298.96, 563.24 206.76, 656.42 103.62 M406.93 393.17 C496.20 293.11, 583.27 192.29, 656.62 107.47 M406.84 396.09 C479.74 311.66, 551.71 228.82, 656.74 107.59 M412.50 398.03 C506.75 294.20, 596.50 187.57, 656.84 113.98 M412.60 395.36 C465.38 336.74, 514.50 277.50, 659.13 111.40 M415.18 398.46 C487.74 320.45, 552.43 243.23, 662.37 115.03 M415.63 397.69 C505.55 297.52, 594.96 195.98, 659.17 116.80 M420.86 396.91 C478.76 334.58, 530.45 272.44, 662.56 121.45 M421.44 397.75 C500.33 304.89, 581.45 209.34, 661.05 121.27 M423.92 397.07 C493.95 320.20, 556.60 245.54, 662.26 125.10 M427.01 398.55 C479.28 338.28, 532.65 277.92, 661.86 127.36 M433.52 397.28 C508.94 312.89, 587.28 221.07, 663.97 131.15 M431.95 397.84 C497.70 323.06, 562.87 245.43, 662.06 132.61 M438.00 400.03 C492.94 335.30, 552.37 265.66, 660.93 138.83 M435.85 397.93 C518.55 299.19, 601.94 204.93, 663.18 136.63 M442.48 398.53 C493.89 344.14, 539.61 291.18, 664.73 141.99 M441.82 397.86 C522.52 302.82, 606.38 205.07, 662.53 144.05 M445.25 400.74 C494.86 345.89, 542.95 293.99, 664.68 149.48 M447.53 398.57 C494.89 342.71, 545.23 285.69, 665.08 149.17 M454.13 401.87 C495.75 346.00, 538.71 292.47, 662.32 153.61 M452.46 398.26 C532.55 303.31, 619.25 203.74, 664.69 155.22 M459.22 400.83 C537.10 303.57, 621.20 209.66, 662.72 160.13 M457.23 399.07 C505.26 338.01, 554.21 280.64, 665.57 160.86 M461.76 396.56 C541.68 307.89, 624.68 212.60, 668.05 166.11 M461.99 400.49 C538.05 311.35, 611.04 228.79, 665.61 166.23 M468.16 398.15 C537.93 324.22, 607.76 242.53, 666.54 172.72 M466.54 400.73 C542.49 309.55, 619.91 221.74, 666.69 169.61 M475.78 396.39 C524.41 339.95, 573.21 284.48, 665.68 176.08 M473.22 398.56 C544.30 321.97, 611.78 240.43, 665.59 178.28 M478.50 396.42 C546.74 317.30, 607.14 245.40, 668.49 186.72 M480.16 394.60 C525.69 341.44, 575.93 286.21, 665.24 182.40 M487.66 392.32 C550.63 327.24, 611.11 257.03, 664.81 188.97 M486.66 394.82 C546.41 327.28, 605.73 258.44, 666.17 188.64 M494.75 392.07 C530.41 354.05, 561.37 310.35, 666.89 199.42 M493.82 392.84 C530.16 351.50, 565.06 310.91, 666.59 197.91 M499.44 392.43 C551.60 332.64, 600.24 270.56, 667.17 202.97 M501.65 391.98 C560.00 325.50, 619.66 254.52, 666.23 202.39 M506.02 387.05 C560.99 325.55, 622.04 263.41, 666.97 211.18 M508.51 389.21 C566.61 325.44, 624.98 259.11, 664.22 209.10 M515.41 387.16 C560.92 337.33, 606.59 278.79, 663.96 215.57 M515.19 387.14 C549.42 349.82, 583.55 312.45, 664.35 217.33 M522.01 384.35 C562.27 347.21, 598.55 302.94, 661.79 222.50 M522.23 385.90 C552.30 356.46, 580.53 321.87, 663.43 223.82 M532.78 382.11 C580.01 323.63, 622.52 271.11, 660.59 231.52 M530.98 383.39 C568.57 338.61, 605.67 296.79, 662.09 227.76 M539.90 373.95 C581.47 327.95, 624.62 284.22, 661.66 237.82 M540.57 376.32 C568.42 341.99, 601.31 306.71, 661.93 239.46 M550.43 374.90 C588.98 323.61, 635.40 273.82, 659.77 245.35 M549.11 374.45 C574.13 341.44, 602.26 309.61, 654.98 250.73 M558.07 366.74 C594.83 332.07, 631.02 285.24, 651.28 255.43 M558.01 368.02 C584.31 333.14, 616.80 299.51, 654.68 257.58 M568.29 366.32 C593.73 330.87, 618.27 304.38, 648.29 270.49 M569.05 363.59 C593.24 332.42, 622.62 304.49, 650.18 270.54 M582.32 350.08 C605.22 324.36, 632.04 292.95, 648.83 281.57 M584.90 349.19 C598.93 331.77, 615.96 315.91, 644.28 280.15" fill="#faf7ef" stroke="none"/><path d="M269.32 48.10 C276.24 31.71, 293.16 18.34, 307.22 6.09 C321.28 -6.15, 337.58 -16.95, 353.70 -25.39 C369.83 -33.83, 386.34 -40.82, 403.97 -44.57 C421.59 -48.32, 441.13 -48.74, 459.45 -47.89 C477.77 -47.04, 496.74 -44.56, 513.90 -39.47 C531.05 -34.38, 546.92 -27.32, 562.39 -17.34 C577.87 -7.36, 593.97 7.07, 606.77 20.40 C619.57 33.72, 630.29 46.63, 639.20 62.62 C648.12 78.62, 655.76 98.44, 660.26 116.37 C664.76 134.31, 665.73 151.59, 666.20 170.22 C666.67 188.86, 666.60 209.81, 663.07 228.20 C659.54 246.60, 653.77 264.47, 645.01 280.61 C636.25 296.75, 622.73 311.62, 610.51 325.04 C598.29 338.45, 586.36 350.98, 571.67 361.10 C556.98 371.21, 539.74 379.39, 522.36 385.72 C504.99 392.05, 485.22 397.18, 467.43 399.09 C449.63 401.00, 433.28 400.01, 415.60 397.19 C397.92 394.37, 377.95 389.41, 361.36 382.16 C344.76 374.92, 330.26 365.11, 316.02 353.73 C301.77 342.34, 286.98 328.89, 275.86 313.84 C264.74 298.79, 256.48 281.05, 249.27 263.41 C242.07 245.76, 235.51 226.26, 232.63 207.98 C229.75 189.71, 229.93 171.93, 232.01 153.76 C234.09 135.59, 236.85 119.13, 245.11 98.95 C253.36 78.77, 272.12 46.01, 281.55 32.68 C290.98 19.35, 298.82 16.74, 301.68 18.99 M307.78 8.13 C318.40 -5.93, 335.55 -14.66, 351.52 -23.19 C367.49 -31.71, 385.93 -39.39, 403.59 -43.03 C421.26 -46.67, 439.17 -45.42, 457.51 -45.03 C475.85 -44.63, 496.11 -45.92, 513.63 -40.65 C531.16 -35.38, 547.08 -23.86, 562.64 -13.40 C578.20 -2.94, 594.43 8.71, 606.99 22.09 C619.54 35.46, 629.58 51.46, 637.98 66.88 C646.38 82.30, 651.99 96.64, 657.39 114.61 C662.78 132.58, 670.02 156.11, 670.38 174.70 C670.73 193.29, 664.00 208.35, 659.53 226.15 C655.06 243.96, 651.74 264.34, 643.54 281.54 C635.34 298.75, 622.80 315.88, 610.31 329.40 C597.82 342.92, 583.17 353.17, 568.58 362.65 C553.99 372.13, 539.30 379.80, 522.78 386.30 C506.26 392.80, 487.92 399.45, 469.47 401.66 C451.01 403.86, 430.64 403.17, 412.02 399.54 C393.40 395.90, 373.87 388.16, 357.74 379.83 C341.61 371.51, 328.68 361.02, 315.26 349.56 C301.85 338.10, 288.50 325.47, 277.25 311.06 C266.00 296.65, 255.16 280.45, 247.76 263.10 C240.35 245.74, 235.31 225.38, 232.83 206.94 C230.36 188.50, 230.29 171.05, 232.91 152.47 C235.52 133.89, 242.30 112.75, 248.52 95.44 C254.73 78.14, 259.98 63.89, 270.19 48.64 C280.39 33.39, 302.44 10.51, 309.73 3.94 C317.03 -2.63, 312.06 6.20, 313.97 9.23" fill="none" stroke="#202020" stroke-width="2" stroke-linecap="round" stroke-linejoin="round"/><path d="M475.56 71.53 C487.55 73.43, 501.71 82.93, 512.26 90.85 C522.81 98.77, 531.86 108.20, 538.87 119.06 C545.88 129.92, 551.86 143.49, 554.33 156.03 C556.81 168.56, 555.80 181.99, 553.72 194.28 C551.64 206.57, 548.42 219.04, 541.85 229.75 C535.28 240.46, 524.74 250.55, 514.28 258.53 C503.83 266.52, 491.19 273.34, 479.11 277.67 C467.04 282.00, 454.51 285.50, 441.84 284.54 C429.17 283.59, 414.51 277.84, 403.09 271.94 C391.67 266.03, 381.71 258.47, 373.31 249.11 C364.92 239.76, 357.38 227.66, 352.73 215.81 C348.09 203.96, 345.74 190.49, 345.44 178.01 C345.15 165.54, 347.16 152.87, 350.97 140.95 C354.78 129.04, 359.88 116.24, 368.32 106.54 C376.76 96.83, 390.15 88.69, 401.59 82.73 C413.02 76.77, 421.09 70.89, 436.93 70.78 C452.76 70.67, 483.40 78.38, 496.60 82.08 C509.79 85.78, 516.51 91.86, 516.12 92.99 M372.10 103.77 C379.49 93.48, 392.34 85.43, 403.42 79.29 C414.49 73.14, 426.61 67.79, 438.56 66.88 C450.51 65.96, 462.98 70.27, 475.10 73.81 C487.23 77.36, 500.46 80.65, 511.33 88.12 C522.19 95.59, 532.99 107.11, 540.30 118.64 C547.61 130.17, 552.75 144.89, 555.18 157.29 C557.61 169.69, 557.68 180.95, 554.89 193.05 C552.10 205.14, 545.10 218.15, 538.43 229.85 C531.76 241.55, 524.63 255.08, 514.87 263.26 C505.12 271.44, 492.30 275.77, 479.91 278.93 C467.52 282.08, 452.77 283.08, 440.53 282.19 C428.30 281.30, 417.60 279.59, 406.51 273.61 C395.43 267.62, 383.30 255.89, 374.02 246.27 C364.75 236.66, 356.02 227.30, 350.89 215.90 C345.77 204.50, 343.46 190.93, 343.27 177.88 C343.09 164.84, 345.21 149.48, 349.79 137.62 C354.37 125.76, 366.80 112.11, 370.75 106.73 C374.70 101.34, 372.06 104.86, 373.49 105.30" fill="#faf7ef" stroke="none"/><path d="M522.79 98.93 C532.73 105.50, 538.92 115.36, 544.26 126.81 C549.60 138.26, 553.74 154.53, 554.82 167.62 C555.90 180.71, 554.05 192.93, 550.75 205.36 C547.46 217.80, 542.34 231.64, 535.05 242.23 C527.75 252.82, 517.73 262.43, 506.99 268.91 C496.25 275.39, 483.65 279.31, 470.60 281.12 C457.55 282.94, 441.33 282.04, 428.69 279.78 C416.05 277.51, 405.72 273.90, 394.75 267.52 C383.78 261.15, 370.43 251.66, 362.85 241.51 C355.26 231.36, 352.60 219.26, 349.24 206.62 C345.89 193.98, 341.45 179.06, 342.73 165.67 C344.00 152.28, 350.98 138.01, 356.87 126.29 C362.76 114.56, 368.98 103.86, 378.08 95.31 C387.18 86.77, 399.61 79.32, 411.49 75.03 C423.37 70.73, 436.70 69.60, 449.35 69.56 C462.00 69.51, 473.73 68.68, 487.41 74.77 C501.08 80.85, 523.03 99.17, 531.41 106.07 C539.79 112.97, 539.25 114.71, 537.69 116.16 M526.76 99.61 C536.73 107.54, 545.37 123.92, 550.48 135.88 C555.59 147.85, 557.68 159.23, 557.43 171.38 C557.17 183.52, 553.42 196.66, 548.95 208.75 C544.49 220.83, 539.01 234.05, 530.64 243.88 C522.27 253.72, 510.21 261.63, 498.73 267.77 C487.25 273.91, 473.74 278.83, 461.75 280.70 C449.77 282.58, 439.06 281.76, 426.81 279.03 C414.57 276.30, 399.00 271.32, 388.27 264.32 C377.54 257.32, 369.76 247.72, 362.43 237.02 C355.09 226.33, 347.07 212.46, 344.27 200.13 C341.47 187.79, 343.88 176.06, 345.65 163.03 C347.42 149.99, 348.80 133.49, 354.87 121.90 C360.95 110.32, 371.82 100.99, 382.10 93.51 C392.38 86.03, 404.47 81.48, 416.56 77.02 C428.64 72.56, 441.53 66.07, 454.62 66.74 C467.72 67.41, 483.46 75.37, 495.11 81.05 C506.77 86.72, 520.19 97.34, 524.56 100.79 C528.92 104.24, 522.90 100.86, 521.31 101.75" fill="none" stroke="#202020" stroke-width="2" stroke-linecap="round" stroke-linejoin="round"/><path d="M654.68 -27.91 C677.88 -50.62, 692.87 -71.65, 736.07 -112.36 M655.29 -31.04 C687.34 -60.97, 719.17 -92.49, 736.88 -111.38" fill="none" stroke="#202020" stroke-width="2" stroke-linecap="round" stroke-linejoin="round"/><path d="M654.94 381.43 C679.42 406.80, 706.89 439.88, 739.30 459.75 M657.54 383.44 C686.91 416.57, 718.31 445.07, 736.30 463.34" fill="none" stroke="#202020" stroke-width="2" stroke-linecap="round" stroke-linejoin="round"/><path d="M244.36 384.41 C217.17 410.03, 184.68 436.09, 166.62 461.18 M244.06 382.38 C228.36 397.47, 211.42 416.51, 164.57 461.64" fill="none" stroke="#202020" stroke-width="2" stroke-linecap="round" stroke-linejoin="round"/><path d="M246.56 -32.95 C226.75 -48.24, 201.67 -70.65, 163.01 -109.88 M242.21 -31.99 C216.91 -54.49, 191.13 -79.71, 163.32 -112.25" fill="none" stroke="#202020" stroke-width="2" stroke-linecap="round" stroke-linejoin="round"/></svg>