<svg xmlns="http://www.w3.org/2000/svg" viewBox="0 0 900 320" width="900" height="320"><path d="M13.75 14.81 C315.96 8.54, 615.82 6.99, 886.86 14.12 M14.79 14.16 C327.71 21.61, 643.33 21.37, 885.57 13.82 M886.74 12.40 C889.97 127.86, 890.39 243.67, 888.64 307.89 M885.14 14.13 C884.96 94.32, 883.41 175.51, 886.55 307.25 M886.57 304.62 C596.12 311.68, 304.00 312.22, 14.74 306.04 M886.05 305.93 C577.23 311.77, 266.68 311.40, 13.24 306.53 M11.65 305.93 C15.15 205.29, 18.43 103.06, 14.73 11.12 M14.25 307.37 C13.95 232.48, 13.20 161.46, 14.32 14.21" fill="none" stroke="#202020" stroke-width="2" stroke-linecap="round" stroke-linejoin="round"/><path d="M28.92 32.56 C325.32 28.06, 622.94 26.62, 872.68 33.49 M28.49 32.79 C211.62 26.94, 393.56 26.66, 872.74 32.42" fill="none" stroke="#202020" stroke-width="2" stroke-linecap="round" stroke-linejoin="round"/><path d="M27.34 118.60 C293.98 117.62, 559.02 117.54, 872.71 117.80 M27.37 116.97 C276.39 117.43, 525.83 117.13, 871.63 117.13" fill="none" stroke="#202020" stroke-width="2" stroke-linecap="round" stroke-linejoin="round"/><path d="M28.67 204.20 C268.28 205.79, 507.34 203.00, 873.16 201.98 M27.23 202.77 C327.95 208.35, 628.16 207.85, 871.48 203.20" fill="none" stroke="#202020" stroke-width="2" stroke-linecap="round" stroke-linejoin="round"/><path d="M28.19 286.43 C198.30 293.78, 365.38 294.30, 871.72 288.34 M27.74 287.80 C209.35 290.18, 391.95 290.00, 871.21 287.24" fill="none" stroke="#202020" stroke-width="2" stroke-linecap="round" stroke-linejoin="round"/></svg>