<svg xmlns="http://www.w3.org/2000/svg" viewBox="0 0 436 310" width="436" height="310"><path d="M40.85 2.23 L150.31 1.66 L144.95 -44.32 L228.14 -47.69 L229.86 -2.19 L371.92 -0.51 L376.87 85.14 L419.11 91.85 L420.93 144.56 L373.24 149.37 L376.43 291.83 L228.54 293.04 L229.20 338.10 L148.11 335.42 L146.39 297.12 L44.74 296.84 L40.41 145.92 L-2.10 145.04 L0.97 87.06 L40.71 85.07" fill="#faf7ef" stroke="none"/><path d="M48.01 -3.47 C71.77 -0.81, 93.96 -0.19, 150.26 -3.35 M43.09 0.66 C72.94 -1.07, 101.09 1.34, 148.61 -0.29 M144.49 -1.38 C148.93 -16.47, 148.24 -24.99, 145.92 -45.29 M145.72 -1.08 C146.67 -17.76, 148.93 -33.67, 145.10 -43.38 M147.17 -46.24 C173.21 -43.14, 200.42 -45.18, 227.43 -44.87 M147.52 -43.63 C172.03 -42.39, 196.91 -42.71, 232.87 -44.31 M234.77 -46.04 C230.73 -35.34, 229.56 -21.04, 228.95 3.49 M229.15 -45.38 C229.21 -27.60, 230.65 -10.59, 231.41 -0.29 M228.37 -3.57 C261.74 -1.15, 301.40 3.72, 378.66 -1.01 M231.20 1.11 C275.90 2.13, 322.22 3.03, 374.65 -0.58 M373.76 -2.07 C374.76 23.63, 377.29 51.90, 374.86 86.36 M376.27 0.13 C376.20 33.17, 374.35 61.55, 377.42 90.19 M374.15 88.18 C393.51 86.86, 401.74 85.32, 421.03 86.08 M375.58 88.57 C390.57 86.69, 405.25 87.82, 418.91 88.58 M421.25 86.44 C417.63 101.08, 418.40 116.39, 422.11 143.66 M421.39 88.19 C419.04 98.55, 421.57 112.61, 421.17 146.93 M421.80 143.21 C406.06 148.94, 399.34 150.08, 372.42 149.22 M419.39 146.30 C411.16 144.83, 400.33 145.73, 376.25 148.74 M377.55 148.00 C375.83 197.30, 378.64 240.58, 375.24 297.71 M374.53 146.45 C376.83 199.89, 377.31 249.74, 374.77 294.06 M373.59 293.08 C338.43 293.49, 301.93 296.48, 231.24 291.15 M377.84 293.20 C331.22 294.76, 286.84 297.19, 229.28 292.47 M228.55 296.38 C234.93 308.63, 234.72 329.07, 233.53 337.07 M232.30 293.06 C231.92 306.96, 232.66 320.77, 231.22 338.04 M229.65 336.25 C200.81 339.27, 168.16 341.45, 145.25 336.73 M229.16 338.29 C203.96 338.99, 175.34 339.32, 147.82 336.73 M147.60 339.18 C145.02 324.00, 147.20 314.49, 149.73 290.98 M145.38 337.00 C145.86 323.77, 147.33 311.57, 145.25 292.33 M144.03 291.47 C119.54 293.46, 89.27 297.12, 44.90 291.25 M145.80 292.51 C117.79 295.30, 84.07 292.35, 43.66 294.94 M47.89 292.97 C41.92 260.76, 40.88 230.38, 44.12 144.52 M43.80 293.77 C42.65 242.19, 40.17 193.07, 43.41 146.07 M44.86 143.41 C36.23 144.95, 23.35 146.61, 1.23 146.43 M43.34 148.11 C28.66 149.01, 13.93 146.46, 0.13 145.66 M-1.62 146.17 C4.72 128.28, 4.78 108.09, -0.72 89.76 M0.30 146.55 C1.07 130.23, 2.07 117.24, -1.13 89.09 M-1.99 86.95 C12.37 90.55, 32.55 86.11, 45.58 91.12 M0.38 89.25 C15.59 87.18, 35.23 89.25, 44.28 86.85 M42.73 89.88 C45.26 63.54, 43.58 37.34, 47.13 -2.25 M43.37 88.16 C45.57 56.95, 46.30 21.82, 42.66 1.28" fill="none" stroke="#202020" stroke-width="3" stroke-linecap="round" stroke-linejoin="round"/></svg>