<svg xmlns="http://www.w3.org/2000/svg" viewBox="0 0 436 310" width="436" height="310"><path d="M46.69 -0.05 L150.56 -0.05 L144.32 -46.39 L234.88 -44.62 L232.62 -1.95 L377.73 -1.61 L373.34 84.81 L423.30 87.91 L421.01 148.62 L378.81 149.09 L374.60 296.38 L229.65 292.26 L233.65 334.83 L143.52 334.42 L149.10 297.68 L43.34 297.37 L43.34 144.67 L-3.73 149.68 L-3.51 89.48 L46.50 84.78" fill="#faf7ef" stroke="none"/><path d="M40.14 2.26 C68.38 -1.87, 92.36 1.26, 143.53 -1.85 M43.31 -1.33 C81.93 1.63, 122.61 3.29, 145.90 0.70 M144.77 0.79 C147.38 -12.42, 150.24 -27.57, 145.99 -47.67 M148.70 1.98 C146.94 -11.76, 147.83 -26.98, 146.92 -43.70 M149.85 -44.64 C166.78 -46.18, 184.26 -43.97, 227.49 -45.70 M147.41 -44.89 C175.29 -43.75, 205.58 -43.73, 232.91 -42.65 M227.66 -46.60 C229.62 -28.78, 230.55 -17.95, 234.18 0.38 M231.42 -44.99 C232.53 -31.43, 229.85 -22.90, 229.66 -0.36 M228.63 -0.82 C274.16 -1.36, 319.94 -3.68, 375.00 3.51 M232.70 -0.57 C277.61 -0.54, 325.24 -2.44, 376.61 -1.85 M372.40 2.12 C376.29 34.23, 375.18 65.07, 374.88 86.22 M374.59 -0.11 C375.29 22.85, 375.27 45.46, 375.62 87.30 M372.61 87.40 C387.86 87.75, 403.11 85.06, 421.54 86.74 M374.45 87.16 C392.85 89.07, 406.35 89.08, 418.61 86.77 M416.65 92.04 C422.78 100.87, 421.69 121.68, 420.04 149.18 M419.30 89.98 C418.02 102.44, 417.91 117.94, 419.20 145.57 M418.09 144.20 C405.75 146.68, 389.14 144.32, 374.21 144.33 M418.47 147.20 C407.55 147.88, 394.98 145.48, 374.86 146.08 M373.33 148.04 C371.19 180.12, 373.46 209.69, 376.80 290.74 M376.73 147.88 C373.51 199.50, 374.95 252.52, 374.99 295.66 M377.86 293.34 C319.86 297.14, 270.67 298.34, 228.47 294.01 M377.13 293.34 C341.14 295.21, 308.76 294.82, 232.64 294.39 M228.87 292.20 C230.91 303.54, 231.01 318.17, 228.36 336.69 M229.35 295.48 C230.97 309.25, 231.64 320.77, 232.07 338.16 M232.69 340.81 C209.28 336.01, 189.57 341.31, 143.25 339.01 M232.48 339.48 C212.07 337.87, 188.23 335.87, 146.35 339.91 M143.49 338.76 C146.87 322.49, 144.84 311.45, 147.99 295.43 M146.31 339.69 C144.49 329.34, 144.57 317.59, 147.66 295.98 M146.83 296.52 C113.24 292.80, 70.36 292.98, 43.39 292.78 M145.65 292.51 C109.06 293.37, 71.61 291.94, 42.81 292.14 M47.74 296.48 C44.30 256.61, 42.96 220.52, 42.61 143.75 M42.78 294.03 C45.16 239.63, 46.61 186.07, 45.54 148.50 M45.00 150.94 C33.66 148.54, 17.82 144.61, 1.27 144.17 M43.99 148.85 C35.64 147.72, 24.52 147.43, 0.87 147.94 M0.67 143.71 C0.08 130.40, -1.79 108.95, -1.31 90.10 M1.58 145.90 C2.09 127.64, 1.63 111.36, 1.23 89.03 M-2.56 84.36 C19.38 84.96, 36.68 92.34, 47.31 91.11 M-1.51 87.69 C11.67 88.33, 21.56 88.32, 44.89 87.84 M42.92 85.15 C39.57 59.73, 39.85 22.92, 47.43 -0.06 M45.41 88.73 C47.08 66.92, 44.84 46.34, 42.15 1.67" fill="none" stroke="#202020" stroke-width="3" stroke-linecap="round" stroke-linejoin="round"/></svg>