<svg xmlns="http://www.w3.org/2000/svg" viewBox="0 0 436 310" width="436" height="310"><path d="M13.77 5.29 L406.80 8.10 L406.69 283.93 L12.41 283.30" fill="#faf7ef" stroke="none"/><path d="M9.13 5.79 C90.19 6.51, 170.34 6.76, 408.45 5.91 M8.87 3.92 C96.57 3.74, 181.06 3.48, 409.98 5.60 M412.26 4.25 C412.34 77.26, 414.92 145.38, 410.18 286.57 M408.91 5.56 C412.06 78.43, 412.21 150.77, 411.51 283.71 M410.53 282.91 C306.46 281.75, 198.01 281.27, 7.87 285.30 M409.41 282.98 C291.85 283.18, 173.72 282.19, 9.97 283.03 M12.68 284.47 C3.02 203.93, 6.46 124.78, 11.29 2.70 M9.16 284.98 C8.36 215.99, 7.53 148.10, 10.35 3.63" fill="none" stroke="#202020" stroke-width="3" stroke-linecap="round" stroke-linejoin="round"/><path d="M18.12 21.56 C121.86 16.70, 228.07 16.95, 400.50 21.28 M17.71 20.93 C128.58 21.76, 240.22 22.15, 401.27 19.27" fill="none" stroke="#202020" stroke-width="3" stroke-linecap="round" stroke-linejoin="round"/><path d="M17.53 35.69 C149.17 37.14, 283.53 38.63, 400.79 37.53 M17.38 39.08 C159.21 41.73, 300.57 40.37, 400.91 38.79" fill="none" stroke="#202020" stroke-width="3" stroke-linecap="round" stroke-linejoin="round"/><path d="M16.68 55.60 C98.02 55.98, 176.85 57.38, 403.58 56.60 M17.23 55.50 C148.96 55.73, 281.88 54.89, 401.84 57.02" fill="none" stroke="#202020" stroke-width="3" stroke-linecap="round" stroke-linejoin="round"/><path d="M18.20 71.72 C125.05 72.66, 232.98 71.09, 402.28 72.93 M17.01 73.03 C123.84 78.55, 228.97 79.10, 402.03 74.77" fill="none" stroke="#202020" stroke-width="3" stroke-linecap="round" stroke-linejoin="round"/><path d="M19.01 7.74 C19.59 7.52, 20.53 7.80, 21.37 8.42 C22.20 9.04, 23.96 10.95, 24.03 11.45 C24.10 11.96, 21.89 11.19, 21.77 11.45 C21.65 11.71, 23.89 12.68, 23.30 13.00 C22.70 13.32, 18.90 13.28, 18.20 13.35 C17.50 13.43, 19.31 13.42, 19.07 13.46 C18.83 13.49, 17.20 14.27, 16.75 13.57 C16.30 12.88, 15.27 10.08, 16.36 9.28 C17.44 8.49, 22.25 8.64, 23.26 8.81 C24.26 8.99, 22.40 10.49, 22.40 10.33 M22.87 7.69 C23.53 7.89, 24.13 11.95, 24.52 12.87 C24.92 13.80, 26.10 13.05, 25.25 13.24 C24.40 13.44, 20.37 14.12, 19.42 14.03 C18.47 13.94, 19.92 12.93, 19.55 12.71 C19.18 12.49, 17.17 13.04, 17.21 12.73 C17.24 12.42, 19.41 11.72, 19.78 10.86 C20.16 9.99, 19.55 7.72, 19.46 7.54 C19.36 7.35, 18.53 9.95, 19.20 9.75 C19.87 9.55, 22.92 6.23, 23.49 6.33 C24.06 6.43, 22.58 10.31, 22.61 10.36" fill="#faf7ef" stroke="none"/><path d="M23.81 11.44 C24.25 12.09, 21.78 12.07, 21.53 12.28 C21.28 12.50, 22.49 12.00, 22.31 12.74 C22.13 13.48, 21.32 16.36, 20.45 16.72 C19.58 17.09, 17.67 15.63, 17.10 14.94 C16.52 14.26, 16.70 13.40, 17.02 12.61 C17.34 11.82, 18.83 10.47, 19.02 10.22 C19.21 9.97, 17.66 11.49, 18.16 11.11 C18.66 10.74, 21.03 7.82, 22.04 7.95 C23.05 8.08, 24.03 11.40, 24.21 11.88 C24.40 12.36, 23.63 11.24, 23.16 10.83 M20.71 9.13 C21.92 8.52, 23.04 7.57, 23.77 8.01 C24.49 8.46, 25.33 10.31, 25.06 11.80 C24.78 13.30, 23.32 16.80, 22.09 17.01 C20.86 17.23, 18.73 13.10, 17.69 13.08 C16.65 13.05, 16.06 16.62, 15.84 16.89 C15.62 17.16, 16.32 15.36, 16.37 14.70 C16.42 14.04, 16.06 13.56, 16.12 12.93 C16.18 12.29, 16.05 11.59, 16.71 10.88 C17.38 10.16, 19.82 9.04, 20.12 8.62 C20.42 8.20, 18.64 7.86, 18.53 8.36" fill="none" stroke="#202020" stroke-width="3" stroke-linecap="round" stroke-linejoin="round"/></svg>