<svg xmlns="http://www.w3.org/2000/svg" viewBox="0 0 436 310" width="436" height="310"><path d="M9.77 5.76 L408.93 3.49 L408.05 287.21 L8.18 285.51" fill="#faf7ef" stroke="none"/><path d="M9.57 4.46 C126.67 5.56, 242.79 5.14, 407.82 3.13 M9.35 3.97 C106.58 6.70, 204.87 6.66, 409.61 5.43 M410.67 3.87 C412.59 77.46, 408.72 143.66, 410.23 283.36 M409.36 6.17 C409.20 64.78, 407.70 120.42, 411.46 283.94 M410.69 283.21 C312.55 284.92, 213.93 282.24, 8.67 282.60 M409.44 284.56 C280.26 287.51, 150.35 286.11, 9.41 283.13 M9.43 281.40 C4.88 216.22, 3.69 145.60, 7.67 4.94 M9.91 283.33 C10.82 217.87, 11.10 150.60, 8.94 4.62" fill="none" stroke="#202020" stroke-width="3" stroke-linecap="round" stroke-linejoin="round"/><path d="M16.37 22.25 C161.83 21.20, 306.31 23.72, 404.11 22.24 M18.17 20.94 C113.15 22.41, 206.97 23.47, 401.82 19.80" fill="none" stroke="#202020" stroke-width="3" stroke-linecap="round" stroke-linejoin="round"/><path d="M16.16 38.12 C137.80 33.21, 252.14 34.01, 399.87 39.96 M18.64 37.74 C161.20 33.32, 305.38 34.82, 401.46 38.70" fill="none" stroke="#202020" stroke-width="3" stroke-linecap="round" stroke-linejoin="round"/><path d="M17.40 55.74 C171.99 53.43, 326.47 53.32, 403.59 54.14 M17.69 56.11 C98.34 55.30, 177.98 54.50, 401.46 55.79" fill="none" stroke="#202020" stroke-width="3" stroke-linecap="round" stroke-linejoin="round"/><path d="M20.14 73.19 C130.12 78.15, 239.11 79.22, 400.82 72.93 M17.80 74.02 C126.90 75.46, 234.83 73.91, 402.04 74.22" fill="none" stroke="#202020" stroke-width="3" stroke-linecap="round" stroke-linejoin="round"/><path d="M22.06 9.83 C22.66 10.67, 24.74 12.32, 24.80 13.05 C24.86 13.79, 23.15 13.91, 22.44 14.25 C21.72 14.59, 21.40 14.87, 20.52 15.09 C19.65 15.32, 17.87 15.71, 17.19 15.60 C16.51 15.49, 16.43 15.23, 16.42 14.44 C16.42 13.65, 16.88 12.04, 17.18 10.86 C17.49 9.67, 17.72 7.66, 18.26 7.33 C18.80 6.99, 19.68 8.07, 20.43 8.84 C21.17 9.61, 22.23 10.74, 22.72 11.95 C23.22 13.17, 23.29 15.84, 23.39 16.12 M18.86 6.17 C19.69 6.93, 21.39 10.79, 22.44 11.96 C23.49 13.13, 25.25 12.67, 25.16 13.20 C25.08 13.73, 22.50 15.05, 21.92 15.15 C21.34 15.26, 22.72 13.94, 21.71 13.81 C20.70 13.69, 16.47 14.99, 15.86 14.41 C15.25 13.83, 17.94 10.73, 18.04 10.32 C18.15 9.90, 16.63 12.09, 16.50 11.92 C16.36 11.76, 16.89 9.69, 17.25 9.32 C17.61 8.95, 17.61 9.36, 18.68 9.71 C19.75 10.07, 22.84 11.43, 23.67 11.45" fill="#faf7ef" stroke="none"/><path d="M17.29 10.14 C17.69 9.54, 17.65 8.02, 18.73 8.22 C19.81 8.42, 23.04 11.01, 23.77 11.35 C24.50 11.68, 23.40 9.83, 23.13 10.24 C22.85 10.65, 22.71 13.18, 22.12 13.80 C21.53 14.43, 19.95 14.01, 19.58 13.99 C19.21 13.96, 20.18 14.09, 19.88 13.65 C19.58 13.21, 18.25 11.73, 17.79 11.33 C17.33 10.94, 17.29 11.55, 17.11 11.28 C16.93 11.01, 16.41 10.19, 16.73 9.72 C17.05 9.25, 18.58 8.33, 19.04 8.46 M20.15 7.14 C20.19 8.17, 19.93 11.56, 20.04 12.76 C20.14 13.97, 20.48 13.93, 20.78 14.37 C21.07 14.80, 21.49 15.72, 21.81 15.38 C22.13 15.04, 23.59 12.90, 22.71 12.32 C21.84 11.75, 17.43 11.44, 16.55 11.93 C15.67 12.42, 17.05 15.61, 17.42 15.24 C17.79 14.87, 18.60 10.34, 18.76 9.73 C18.92 9.12, 17.66 11.43, 18.39 11.56 C19.13 11.68, 22.32 10.74, 23.17 10.50 C24.01 10.26, 24.19 10.11, 23.47 10.11" fill="none" stroke="#202020" stroke-width="3" stroke-linecap="round" stroke-linejoin="round"/></svg>