<svg xmlns="http://www.w3.org/2000/svg" viewBox="0 0 96 96" width="96" height="96"><path d="M14.60 7.39 C14.60 7.39, 14.60 7.39, 14.60 7.39 M14.60 7.39 C14.60 7.39, 14.60 7.39, 14.60 7.39 M1.83 32.87 C5.84 27.73, 17.92 18.44, 29.66 5.07 M-1.88 38.60 C7.21 27.94, 15.96 17.15, 30.49 2.11 M1.94 51.26 C9.33 32.26, 18.39 22.89, 43.49 -2.76 M-0.35 49.62 C9.50 36.74, 18.00 25.75, 41.12 -1.38 M1.35 59.08 C26.22 30.29, 40.51 13.79, 51.28 -0.06 M2.66 54.73 C15.13 41.86, 27.59 31.07, 53.70 -0.98 M12.96 62.32 C20.83 40.53, 39.78 27.44, 59.48 6.92 M8.24 62.62 C25.83 40.69, 43.91 21.27, 60.75 2.77 M14.30 70.51 C29.78 49.37, 50.67 22.49, 63.99 8.99 M15.12 68.31 C28.01 55.20, 39.66 39.43, 64.79 10.97 M22.01 77.51 C41.62 53.89, 58.47 35.31, 74.22 14.22 M21.96 75.21 C39.81 50.52, 61.32 28.47, 70.78 16.44 M23.60 80.04 C40.86 67.14, 48.62 50.24, 77.34 19.76 M28.31 78.05 C46.31 56.64, 66.94 34.16, 75.22 20.61 M33.97 85.32 C52.30 61.97, 58.71 50.14, 80.82 28.06 M33.93 80.16 C48.87 66.72, 62.52 50.31, 77.49 30.61 M47.14 81.60 C57.84 65.33, 68.86 52.32, 79.97 35.77 M45.46 82.24 C59.44 68.04, 71.95 54.35, 83.72 41.29 M56.30 74.39 C66.93 68.16, 74.20 58.60, 74.55 55.10 M60.90 78.86 C64.56 68.84, 70.83 63.15, 78.72 55.77" fill="#ffda6a" stroke="none"/><path d="M14.35 7.67 C19.49 2.72, 28.27 0.70, 35.40 -0.52 C42.54 -1.75, 50.45 -2.90, 57.17 0.30 C63.89 3.50, 71.65 12.11, 75.72 18.67 C79.80 25.23, 81.51 32.16, 81.61 39.65 C81.71 47.14, 80.77 56.68, 76.32 63.60 C71.88 70.52, 62.46 78.15, 54.94 81.16 C47.42 84.17, 38.06 83.53, 31.20 81.67 C24.35 79.81, 18.99 75.41, 13.82 70.00 C8.66 64.58, 2.77 56.42, 0.24 49.15 C-2.29 41.88, -6.39 34.62, -1.37 26.40 C3.65 18.18, 21.23 4.32, 30.34 -0.16 C39.45 -4.64, 52.58 -0.76, 53.27 -0.47 M19.61 4.83 C24.67 0.23, 30.28 -5.39, 36.97 -5.58 C43.66 -5.76, 53.36 -1.01, 59.77 3.72 C66.18 8.44, 71.91 15.31, 75.44 22.79 C78.97 30.26, 81.87 41.21, 80.95 48.56 C80.04 55.90, 74.94 61.38, 69.95 66.86 C64.96 72.34, 57.78 79.14, 51.00 81.44 C44.22 83.74, 35.85 82.82, 29.26 80.66 C22.66 78.50, 16.46 73.75, 11.43 68.46 C6.39 63.18, 0.76 56.82, -0.94 48.94 C-2.65 41.07, -2.07 28.47, 1.20 21.20 C4.47 13.93, 15.96 8.37, 18.69 5.34 C21.41 2.30, 16.91 2.20, 17.54 2.97" fill="none" stroke="#202020" stroke-width="2" stroke-linecap="round" stroke-linejoin="round"/></svg>