<svg xmlns="http://www.w3.org/2000/svg" viewBox="0 0 320 240" width="320" height="240"><path transform="translate(0,0)" d="M0.00 0.00 C0.00 0.00, 0.00 0.00, 0.00 0.00 M0.00 0.00 C0.00 0.00, 0.00 0.00, 0.00 0.00 M1.57 14.25 C2.51 10.52, 5.69 2.60, 12.09 -1.07 M1.55 13.01 C4.86 6.69, 8.05 2.70, 9.34 -0.67 M-0.67 25.08 C6.86 15.33, 20.60 7.06, 22.59 2.96 M0.65 23.77 C2.81 19.30, 9.75 13.63, 19.48 -0.28 M0.10 40.55 C7.36 31.06, 15.61 21.86, 29.74 -0.08 M0.85 35.27 C11.40 23.31, 22.85 11.85, 33.49 -0.07 M1.22 49.31 C15.78 27.26, 31.87 8.56, 39.82 1.29 M-0.42 47.10 C15.91 30.76, 31.85 13.57, 43.78 -0.12 M8.40 48.58 C22.00 34.03, 36.25 19.79, 52.83 2.76 M9.71 48.69 C21.03 40.78, 30.42 25.29, 53.94 1.06 M19.84 53.60 C32.17 43.52, 39.66 30.82, 65.87 0.92 M21.26 50.46 C36.89 30.41, 53.10 10.39, 63.80 0.81 M34.33 46.69 C41.14 36.29, 50.55 24.46, 70.05 8.76 M32.10 50.88 C41.25 34.57, 53.94 21.08, 69.07 5.73 M38.05 46.88 C50.33 44.50, 55.80 29.93, 72.25 20.28 M42.18 50.60 C48.27 40.81, 56.35 28.57, 68.87 17.21 M50.45 52.73 C53.39 49.74, 58.41 44.82, 72.57 26.91 M53.07 50.58 C58.66 41.02, 63.60 34.08, 70.24 27.94 M63.21 52.24 C66.31 48.28, 65.86 43.43, 69.75 41.03 M63.49 50.73 C64.59 48.06, 65.38 46.31, 69.50 40.92" fill="#faf7ef" stroke="none"/><path transform="translate(0,0)" d="M2.06 -2.93 C28.42 -3.10, 53.04 -3.45, 70.13 3.66 M-1.95 1.84 C16.55 -0.84, 29.11 1.22, 71.54 0.30 M67.37 2.93 C65.86 16.08, 70.41 34.29, 69.78 51.86 M69.32 -0.66 C69.72 11.26, 68.71 19.18, 70.29 48.32 M69.38 47.74 C49.25 49.08, 27.88 45.39, 0.92 48.38 M69.02 51.18 C44.28 50.71, 19.15 49.67, 1.76 48.08 M-2.91 53.78 C0.93 35.67, 2.57 17.42, -2.95 -2.42 M0.08 51.93 C1.59 37.05, 2.33 23.52, -0.89 0.83" fill="none" stroke="#202020" stroke-width="2" stroke-linecap="round" stroke-linejoin="round"/><path transform="translate(0,0)" d="M149.73 0.31 C149.73 0.31, 149.73 0.31, 149.73 0.31 M149.73 0.31 C149.73 0.31, 149.73 0.31, 149.73 0.31 M148.74 11.48 C151.22 11.71, 153.44 7.60, 157.19 -1.36 M148.58 13.24 C155.45 8.63, 157.79 1.43, 161.11 -1.22 M153.47 25.46 C155.78 12.21, 163.01 4.92, 170.58 3.29 M148.75 23.41 C155.54 14.22, 162.89 7.29, 171.33 0.01 M151.26 37.61 C157.35 24.70, 172.31 17.57, 183.31 0.27 M148.43 36.69 C163.90 22.90, 172.60 9.47, 179.90 -1.03 M151.32 52.19 C163.67 36.68, 172.50 27.08, 188.99 1.26 M152.23 47.32 C163.71 34.05, 176.88 17.45, 194.01 1.76 M159.87 52.56 C169.51 31.30, 185.78 22.38, 202.99 3.89 M158.74 49.77 C174.92 31.95, 189.49 16.49, 201.73 -1.62 M167.21 46.18 C182.57 41.50, 190.61 24.08, 214.43 -1.50 M168.80 50.07 C184.59 36.50, 196.24 19.21, 214.50 1.56 M180.20 53.06 C189.62 39.99, 200.95 21.98, 223.84 6.18 M181.01 48.24 C191.46 40.01, 199.12 33.35, 220.12 3.86 M189.29 46.63 C202.48 40.48, 214.84 24.41, 221.67 15.18 M192.24 48.01 C202.35 36.23, 214.43 22.99, 219.04 15.91 M201.66 50.80 C207.81 44.82, 213.82 40.22, 217.61 29.20 M201.09 48.77 C207.85 45.08, 209.64 40.58, 217.82 29.68 M211.53 50.94 C215.93 49.12, 215.76 45.49, 219.00 41.43 M212.91 49.13 C213.16 47.51, 216.41 46.34, 221.04 41.89" fill="#faf7ef" stroke="none"/><path transform="translate(0,0)" d="M147.46 -0.99 C169.61 0.25, 190.32 -2.22, 222.56 2.01 M148.65 -1.00 C175.24 0.80, 197.77 0.05, 220.40 0.22 M223.47 -1.19 C221.89 12.39, 219.73 25.43, 221.26 49.91 M218.32 1.62 C221.27 17.34, 220.72 31.18, 219.71 50.21 M216.16 51.04 C196.74 52.52, 174.93 53.22, 151.79 48.52 M219.98 51.32 C201.20 50.66, 184.08 49.55, 148.89 48.32 M150.26 48.02 C150.34 34.28, 149.20 18.14, 146.97 -1.59 M148.22 49.49 C150.13 35.52, 147.93 21.65, 148.95 0.28" fill="none" stroke="#202020" stroke-width="2" stroke-linecap="round" stroke-linejoin="round"/><path transform="translate(0,0)" d="M0.01 109.99 C0.01 109.99, 0.01 109.99, 0.01 109.99 M0.01 109.99 C0.01 109.99, 0.01 109.99, 0.01 109.99 M-1.84 119.22 C5.58 116.10, 9.88 113.64, 9.45 110.52 M1.55 122.61 C2.34 118.95, 6.16 115.21, 10.22 109.60 M2.32 130.68 C5.78 126.13, 5.74 123.93, 19.07 106.55 M2.25 132.93 C7.46 127.10, 10.90 119.32, 22.46 111.15 M-4.20 150.49 C8.94 132.55, 16.38 127.73, 30.00 110.41 M0.89 146.19 C9.38 135.32, 21.22 124.30, 32.50 108.21 M-3.25 155.03 C16.05 143.66, 29.05 122.95, 45.94 113.10 M0.06 158.44 C12.45 144.69, 21.41 132.89, 43.67 108.03 M12.70 158.14 C27.10 144.90, 38.69 126.51, 54.98 106.65 M9.80 159.23 C17.94 149.19, 29.64 136.07, 54.67 111.70 M19.55 159.47 C35.48 139.87, 54.79 125.83, 65.47 110.19 M20.71 160.49 C34.12 141.72, 50.06 123.91, 61.84 110.97 M26.48 160.75 C43.16 145.90, 52.01 133.20, 73.07 117.49 M30.08 158.68 C40.92 150.24, 49.08 140.07, 71.06 115.10 M43.05 161.55 C47.22 150.02, 57.43 141.44, 72.95 128.83 M41.64 159.02 C48.51 153.48, 53.27 147.17, 69.46 126.71 M54.80 163.60 C57.17 156.41, 64.86 150.24, 66.28 138.05 M50.31 161.09 C54.35 155.75, 61.16 152.08, 68.80 139.90 M62.90 161.18 C65.80 158.97, 63.54 157.11, 70.66 149.70 M62.01 159.53 C63.04 159.33, 66.56 156.23, 70.17 151.16" fill="#faf7ef" stroke="none"/><path transform="translate(0,0)" d="M1.90 107.32 C23.84 107.49, 56.09 110.64, 70.05 108.59 M-0.67 110.01 C13.92 109.91, 27.97 111.50, 68.62 110.44 M71.23 113.76 C72.55 125.99, 68.29 150.10, 71.71 162.12 M71.75 111.49 C72.10 125.65, 69.25 142.94, 69.06 161.78 M69.36 163.73 C46.29 156.77, 19.97 161.59, -3.55 161.11 M69.53 159.04 C45.85 161.53, 18.71 161.22, 0.02 159.64 M-2.07 163.99 C-0.66 143.41, -1.40 126.35, -0.97 109.93 M-1.96 158.30 C-2.32 146.44, -1.65 133.66, -0.50 110.22" fill="none" stroke="#202020" stroke-width="2" stroke-linecap="round" stroke-linejoin="round"/><path transform="translate(0,0)" d="M149.74 110.29 C149.74 110.29, 149.74 110.29, 149.74 110.29 M149.74 110.29 C149.74 110.29, 149.74 110.29, 149.74 110.29 M149.58 123.83 C153.99 117.87, 152.24 117.31, 159.90 111.92 M151.42 121.59 C152.69 118.40, 154.37 117.59, 160.35 108.81 M151.14 136.10 C159.40 124.32, 168.23 113.21, 170.55 113.35 M150.70 134.24 C158.37 127.34, 164.57 120.85, 172.78 109.29 M151.17 147.48 C158.40 136.23, 172.72 119.03, 179.39 113.24 M149.12 147.34 C159.69 132.55, 171.14 124.33, 182.16 111.88 M148.77 160.91 C166.90 138.88, 184.54 121.23, 190.10 110.78 M150.63 159.16 C167.85 140.44, 183.18 120.59, 192.30 109.52 M163.31 158.21 C165.89 151.02, 179.79 137.31, 204.66 111.42 M159.26 161.53 C169.29 149.99, 178.39 138.00, 204.70 110.26 M173.76 159.66 C185.58 139.33, 204.20 124.28, 215.11 106.47 M170.85 160.76 C185.56 142.22, 199.52 127.04, 215.22 108.15 M178.89 158.32 C190.59 146.86, 209.62 132.57, 217.10 111.04 M182.78 160.43 C194.66 146.16, 207.13 133.34, 219.73 115.57 M193.33 158.09 C202.70 147.32, 208.88 140.93, 222.42 123.95 M191.77 158.88 C201.82 148.08, 211.93 139.25, 221.97 125.35 M203.39 156.32 C204.90 156.18, 212.62 146.30, 218.97 137.39 M201.19 158.27 C206.53 154.72, 212.11 147.21, 219.51 138.82 M213.51 160.59 C214.07 156.64, 216.04 157.29, 219.93 150.33 M211.82 160.01 C215.27 158.54, 216.14 156.23, 220.98 151.91" fill="#faf7ef" stroke="none"/><path transform="translate(0,0)" d="M149.94 112.50 C166.64 111.36, 190.80 112.24, 223.28 107.52 M148.05 108.06 C163.68 112.54, 177.67 112.36, 220.56 111.26 M219.95 113.67 C216.57 122.18, 215.59 130.36, 217.76 160.12 M220.35 109.57 C219.43 123.38, 218.65 137.35, 219.22 160.71 M219.03 162.35 C196.34 159.73, 173.35 159.23, 149.56 161.66 M220.82 158.22 C207.85 160.83, 193.27 159.73, 148.74 160.32 M148.62 160.24 C147.04 141.47, 148.17 127.99, 151.12 107.19 M150.69 159.80 C149.95 144.63, 151.83 124.36, 148.64 109.52" fill="none" stroke="#202020" stroke-width="2" stroke-linecap="round" stroke-linejoin="round"/><path transform="translate(0,0)" d="M77.74 23.62 C89.87 26.44, 113.68 25.31, 142.36 22.52 M74.77 26.59 C102.38 23.72, 126.38 23.97, 144.17 24.20" fill="none" stroke="#202020" stroke-width="2" stroke-linecap="round" stroke-linejoin="round"/><path transform="translate(0,0)" d="M138.29 17.79 C145.19 21.67, 144.43 21.63, 149.94 25.43 M140.80 17.28 C142.33 20.39, 145.36 22.15, 148.98 24.53 M148.56 22.63 C147.62 27.26, 145.65 27.12, 142.00 32.97 M149.35 24.62 C147.30 27.88, 142.47 29.52, 141.12 32.07" fill="none" stroke="#202020" stroke-width="2" stroke-linecap="round" stroke-linejoin="round"/><path transform="translate(0,0)" d="M35.74 57.91 C33.28 62.30, 36.50 78.99, 34.30 108.70 M34.52 54.87 C37.15 74.32, 33.53 89.14, 36.69 103.07" fill="none" stroke="#202020" stroke-width="2" stroke-linecap="round" stroke-linejoin="round"/><path transform="translate(0,0)" d="M27.74 100.40 C27.69 102.67, 30.47 103.69, 37.25 110.62 M27.21 100.18 C31.18 103.92, 31.87 107.31, 35.54 111.22 M33.45 109.72 C35.13 108.13, 38.07 103.43, 43.23 99.86 M34.70 108.79 C38.32 105.46, 40.47 103.44, 42.06 99.44" fill="none" stroke="#202020" stroke-width="2" stroke-linecap="round" stroke-linejoin="round"/><path transform="translate(0,0)" d="M74.64 131.30 C91.16 136.81, 100.31 135.01, 142.13 137.11 M76.44 134.79 C94.62 137.38, 117.16 134.86, 146.69 135.03" fill="none" stroke="#202020" stroke-width="2" stroke-linecap="round" stroke-linejoin="round"/><path transform="translate(0,0)" d="M139.08 126.71 C140.69 127.58, 144.63 128.73, 147.88 136.96 M139.53 127.53 C142.43 129.39, 145.81 131.67, 149.41 134.01 M149.18 134.65 C146.88 135.54, 146.24 137.77, 140.18 142.03 M151.04 134.86 C146.29 138.19, 143.29 140.49, 139.30 142.11" fill="none" stroke="#202020" stroke-width="2" stroke-linecap="round" stroke-linejoin="round"/><path transform="translate(0,0)" d="M188.60 52.06 C186.50 71.78, 186.11 91.57, 188.34 105.09 M183.66 55.49 C185.39 66.27, 182.75 76.92, 183.81 105.80" fill="none" stroke="#202020" stroke-width="2" stroke-linecap="round" stroke-linejoin="round"/><path transform="translate(0,0)" d="M178.49 99.06 C178.03 103.91, 180.30 106.02, 183.75 109.02 M177.05 100.13 C178.79 102.37, 182.58 103.79, 184.42 110.42 M182.83 110.11 C187.40 108.51, 190.29 102.10, 190.49 100.57 M185.65 109.37 C187.31 107.74, 188.49 104.33, 191.41 100.48" fill="none" stroke="#202020" stroke-width="2" stroke-linecap="round" stroke-linejoin="round"/><path transform="translate(0,0)" d="M120.08 179.91 C120.08 179.91, 120.08 179.91, 120.08 179.91 M120.08 179.91 C120.08 179.91, 120.08 179.91, 120.08 179.91 M119.83 194.46 C123.87 188.09, 126.46 186.15, 128.35 176.89 M118.67 192.27 C124.13 190.05, 125.48 184.31, 131.44 179.94 M118.44 206.30 C126.66 194.79, 134.59 188.57, 143.54 177.55 M118.07 205.01 C126.59 195.52, 132.70 189.18, 142.05 177.92 M120.53 217.61 C129.61 198.76, 141.46 190.15, 148.49 183.29 M121.10 217.53 C130.95 205.31, 137.33 193.11, 151.75 179.69 M125.85 222.32 C139.25 203.36, 149.85 196.69, 165.71 182.42 M126.19 222.44 C136.26 207.41, 150.88 193.96, 163.15 179.53 M135.51 220.76 C153.31 202.97, 162.97 189.11, 173.20 183.33 M136.60 218.65 C148.94 207.72, 156.77 197.20, 171.55 179.30 M151.63 223.48 C162.95 204.22, 174.78 191.89, 185.88 182.89 M147.23 220.14 C161.68 203.41, 177.41 187.77, 184.65 179.95 M159.93 223.69 C170.26 202.30, 186.78 188.36, 194.28 179.05 M158.06 222.18 C169.82 208.50, 180.76 193.89, 193.44 179.26 M168.53 224.33 C176.65 206.55, 191.32 194.56, 200.01 183.90 M168.66 222.14 C182.83 206.42, 193.20 194.43, 198.75 186.59 M177.53 220.42 C188.67 218.20, 188.46 208.73, 200.57 194.93 M178.74 218.71 C183.45 215.53, 187.96 210.28, 198.88 196.86 M192.99 220.16 C194.10 220.01, 197.15 212.74, 199.21 210.09 M191.58 219.86 C194.25 215.99, 196.26 211.76, 201.62 209.42" fill="#faf7ef" stroke="none"/><path transform="translate(0,0)" d="M120.65 181.92 C141.45 180.58, 169.63 183.18, 202.59 181.89 M118.43 180.93 C138.72 180.43, 157.38 179.77, 199.93 179.87 M200.95 182.58 C202.80 193.86, 200.01 208.01, 204.00 219.51 M201.00 179.33 C201.29 196.01, 200.89 210.54, 200.71 218.08 M200.59 218.30 C176.17 216.86, 143.52 220.70, 117.33 222.15 M201.92 221.92 C180.90 220.94, 164.97 219.78, 121.47 220.94 M122.25 217.47 C122.51 211.25, 120.66 198.37, 121.58 183.95 M120.26 221.82 C117.74 205.09, 118.52 189.19, 118.05 179.59" fill="none" stroke="#202020" stroke-width="2" stroke-linecap="round" stroke-linejoin="round"/><circle cx="145" cy="200" r="6" fill="none" stroke="#202020" stroke-width="2"/><circle cx="175" cy="200" r="6" fill="none" stroke="#202020" stroke-width="2"/></svg>