<svg xmlns="http://www.w3.org/2000/svg" viewBox="0 0 136 136" width="136" height="136"><path d="M19.12 23.49 L103.75 17.00 L101.03 98.90 L19.86 96.99" fill="#faf7ef" stroke="none"/><path d="M19.90 21.99 C44.87 18.38, 68.59 21.41, 99.68 16.06 M20.10 20.40 C40.28 21.95, 63.94 21.79, 100.87 18.63 M101.89 16.54 C97.95 47.66, 99.38 78.67, 99.91 102.16 M99.04 20.51 C98.45 36.39, 99.84 51.75, 98.49 100.78 M101.77 97.55 C76.85 102.77, 55.29 98.91, 17.51 97.76 M99.00 100.58 C68.66 98.18, 37.38 97.84, 19.71 100.99 M18.36 100.67 C16.39 82.00, 20.25 62.53, 18.98 17.23 M20.87 101.84 C20.24 84.97, 20.49 68.45, 19.53 20.13" fill="none" stroke="#202020" stroke-width="2" stroke-linecap="round" stroke-linejoin="round"/><path d="M34.30 56.53 C39.08 56.46, 41.63 58.50, 54.64 57.02 M35.82 58.67 C42.95 59.20, 48.22 58.26, 53.42 59.77" fill="none" stroke="#202020" stroke-width="2" stroke-linecap="round" stroke-linejoin="round"/><path d="M44.81 51.68 C48.54 58.09, 45.98 56.02, 44.30 71.36 M46.18 51.42 C46.01 55.64, 47.22 62.38, 43.95 69.45" fill="none" stroke="#202020" stroke-width="2" stroke-linecap="round" stroke-linejoin="round"/><path d="M69.34 47.03 C69.34 47.03, 69.34 47.03, 69.34 47.03 M69.34 47.03 C69.34 47.03, 69.34 47.03, 69.34 47.03 M72.52 55.28 C75.92 52.04, 77.80 51.06, 79.00 50.02 M73.16 55.83 C74.31 52.43, 77.65 49.66, 79.53 49.10" fill="#faf7ef" stroke="none"/><path d="M69.35 47.01 C70.09 46.37, 74.83 48.93, 76.17 49.00 C77.50 49.08, 76.73 47.49, 77.34 47.48 C77.94 47.47, 79.46 48.04, 79.79 48.94 C80.11 49.84, 79.90 51.41, 79.29 52.87 C78.68 54.34, 77.04 56.96, 76.14 57.73 C75.24 58.51, 74.65 58.01, 73.91 57.51 C73.18 57.02, 72.50 55.70, 71.72 54.78 C70.94 53.86, 69.14 53.36, 69.23 51.99 C69.33 50.63, 71.33 47.36, 72.27 46.60 C73.21 45.84, 75.01 47.08, 74.90 47.45 M72.51 48.65 C73.10 48.05, 74.21 46.36, 75.35 46.20 C76.49 46.04, 78.67 46.52, 79.37 47.69 C80.07 48.86, 79.49 52.09, 79.56 53.21 C79.62 54.32, 80.99 53.88, 79.74 54.39 C78.48 54.89, 73.55 55.97, 72.01 56.22 C70.46 56.48, 71.27 56.14, 70.48 55.94 C69.68 55.73, 66.94 56.24, 67.26 54.98 C67.58 53.72, 70.98 50.02, 72.41 48.35 C73.84 46.68, 76.12 44.84, 75.84 44.97 C75.57 45.10, 71.33 48.88, 70.76 49.14" fill="none" stroke="#202020" stroke-width="2" stroke-linecap="round" stroke-linejoin="round"/><path d="M79.61 66.55 C79.61 66.55, 79.61 66.55, 79.61 66.55 M79.61 66.55 C79.61 66.55, 79.61 66.55, 79.61 66.55 M83.77 72.13 C86.30 72.42, 87.86 70.52, 89.58 67.73 M84.63 72.84 C86.35 70.92, 87.00 70.16, 90.32 67.27" fill="#faf7ef" stroke="none"/><path d="M81.04 65.96 C82.09 64.78, 84.17 61.30, 85.19 61.02 C86.22 60.74, 86.71 63.36, 87.18 64.30 C87.66 65.23, 87.37 65.95, 88.05 66.63 C88.74 67.32, 91.61 67.51, 91.28 68.41 C90.95 69.30, 87.04 71.20, 86.08 72.00 C85.12 72.79, 86.51 73.00, 85.52 73.18 C84.53 73.36, 81.11 74.20, 80.14 73.07 C79.17 71.95, 79.53 68.11, 79.70 66.44 C79.88 64.78, 80.99 63.69, 81.20 63.09 C81.40 62.48, 80.55 62.34, 80.93 62.81 M87.59 62.96 C88.78 62.38, 91.41 61.86, 91.69 62.29 C91.97 62.73, 89.46 63.72, 89.27 65.56 C89.08 67.40, 90.90 72.44, 90.56 73.31 C90.23 74.18, 88.38 71.17, 87.26 70.78 C86.13 70.39, 84.51 71.09, 83.82 70.98 C83.12 70.86, 83.57 71.18, 83.09 70.09 C82.61 69.00, 81.43 65.10, 80.95 64.43 C80.46 63.77, 79.34 66.04, 80.19 66.12 C81.05 66.20, 84.85 65.44, 86.10 64.92 C87.35 64.39, 87.43 63.61, 87.69 62.96" fill="none" stroke="#202020" stroke-width="2" stroke-linecap="round" stroke-linejoin="round"/></svg>