<svg xmlns="http://www.w3.org/2000/svg" viewBox="0 0 136 136" width="136" height="136"><path d="M63.07 8.51 L89.69 42.39 L26.80 45.32" fill="#faf7ef" stroke="none"/><path d="M56.55 6.45 C70.20 18.61, 78.81 28.82, 88.90 43.50 M59.65 10.59 C72.23 20.64, 81.26 32.09, 91.88 40.29 M93.84 44.15 C79.65 44.31, 62.62 38.99, 28.24 42.60 M88.99 41.18 C72.45 41.51, 53.59 42.18, 28.80 41.98 M33.71 39.80 C43.07 26.17, 55.99 16.17, 56.97 7.64 M30.24 40.14 C39.75 33.01, 46.37 24.25, 59.77 10.46" fill="none" stroke="#202020" stroke-width="2" stroke-linecap="round" stroke-linejoin="round"/><path d="M93.74 45.10 L107.03 86.86 L56.53 109.53 L11.42 91.15 L28.49 44.63" fill="#faf7ef" stroke="none"/><path d="M86.26 42.76 C96.94 53.41, 104.29 72.59, 109.70 87.62 M91.94 43.68 C96.41 55.50, 102.44 70.27, 108.52 90.29 M109.77 92.25 C94.71 98.31, 86.02 98.38, 59.21 113.11 M109.29 89.54 C93.94 96.52, 77.18 100.22, 61.66 108.11 M60.25 110.83 C44.25 103.87, 22.23 96.62, 6.99 88.54 M61.72 110.32 C45.17 104.48, 33.92 98.58, 9.56 89.71 M7.42 86.31 C21.61 71.63, 24.99 56.06, 31.13 38.26 M11.66 90.13 C14.80 78.05, 18.03 68.83, 29.63 43.53 M28.23 42.77 C40.90 44.52, 55.96 40.80, 91.85 42.55 M29.06 41.85 C51.00 41.37, 71.45 41.53, 89.12 42.53" fill="none" stroke="#202020" stroke-width="2" stroke-linecap="round" stroke-linejoin="round"/><path d="M61.70 7.28 C62.20 35.81, 56.57 62.14, 57.53 109.53 M58.25 10.12 C60.36 35.65, 59.48 62.12, 58.49 109.36" fill="none" stroke="#202020" stroke-width="2" stroke-linecap="round" stroke-linejoin="round"/><path d="M90.42 45.95 C65.95 57.45, 33.48 78.67, 11.57 90.17 M88.74 43.56 C67.58 56.57, 42.05 69.86, 11.13 90.41" fill="none" stroke="#202020" stroke-width="2" stroke-linecap="round" stroke-linejoin="round"/><path d="M33.12 39.50 C54.82 57.73, 77.17 69.58, 109.34 87.64 M30.14 41.69 C51.45 55.08, 73.48 66.62, 110.01 89.28" fill="none" stroke="#202020" stroke-width="2" stroke-linecap="round" stroke-linejoin="round"/></svg>