<svg xmlns="http://www.w3.org/2000/svg" viewBox="0 0 136 136" width="136" height="136"><path d="M37.16 14.83 C41.42 9.90, 49.62 7.39, 55.90 6.44 C62.19 5.49, 69.07 5.83, 74.89 9.15 C80.71 12.46, 87.60 19.65, 90.83 26.32 C94.05 33.00, 95.21 42.66, 94.25 49.18 C93.30 55.70, 89.83 61.10, 85.10 65.46 C80.36 69.82, 72.71 74.40, 65.83 75.34 C58.94 76.28, 49.99 73.99, 43.78 71.09 C37.57 68.19, 31.13 64.09, 28.54 57.95 C25.96 51.80, 25.66 42.26, 28.29 34.21 C30.92 26.15, 39.81 14.19, 44.33 9.60 C48.84 5.02, 54.86 6.17, 55.39 6.72 M71.81 9.15 C78.20 10.95, 87.18 15.99, 90.87 22.17 C94.56 28.35, 94.75 39.36, 93.96 46.23 C93.17 53.10, 90.04 58.04, 86.14 63.39 C82.24 68.74, 76.99 76.27, 70.57 78.34 C64.15 80.42, 54.63 78.52, 47.61 75.83 C40.59 73.15, 31.71 68.76, 28.45 62.24 C25.19 55.72, 27.10 44.20, 28.06 36.73 C29.02 29.26, 30.08 21.93, 34.22 17.43 C38.36 12.92, 46.87 10.53, 52.90 9.69 C58.94 8.85, 67.11 12.39, 70.42 12.39 C73.72 12.39, 72.67 9.92, 72.71 9.69" fill="#faf7ef" stroke="none"/><path d="M31.03 20.71 C34.06 15.35, 39.65 12.27, 46.37 10.07 C53.09 7.86, 64.44 5.48, 71.34 7.46 C78.24 9.45, 83.95 16.52, 87.76 21.96 C91.57 27.40, 94.41 33.24, 94.21 40.11 C94.01 46.98, 90.06 57.59, 86.55 63.18 C83.04 68.76, 79.30 71.42, 73.16 73.62 C67.01 75.81, 56.41 77.71, 49.69 76.37 C42.96 75.02, 36.92 71.04, 32.82 65.55 C28.71 60.06, 25.02 51.11, 25.06 43.43 C25.10 35.74, 30.66 23.95, 33.05 19.46 C35.44 14.96, 39.00 16.38, 39.39 16.44 M58.71 7.17 C65.71 6.71, 78.00 9.06, 83.39 13.21 C88.77 17.35, 89.76 24.94, 91.01 32.05 C92.26 39.17, 92.71 49.66, 90.89 55.88 C89.08 62.09, 85.69 65.96, 80.11 69.36 C74.54 72.75, 64.55 76.14, 57.43 76.25 C50.32 76.37, 42.94 73.87, 37.41 70.02 C31.87 66.17, 25.51 59.61, 24.22 53.14 C22.93 46.67, 26.50 37.69, 29.66 31.22 C32.82 24.74, 37.91 18.56, 43.17 14.29 C48.43 10.02, 58.12 6.67, 61.22 5.60 C64.33 4.53, 61.51 7.29, 61.79 7.87" fill="none" stroke="#202020" stroke-width="2" stroke-linecap="round" stroke-linejoin="round"/><path d="M42.76 67.06 L77.04 66.67 L78.14 93.69 L43.42 89.64" fill="#faf7ef" stroke="none"/><path d="M41.54 68.12 C52.97 69.49, 71.19 66.63, 77.87 63.90 M43.70 67.83 C56.70 64.14, 67.23 65.20, 76.78 66.95 M75.91 67.21 C77.60 71.01, 82.38 78.47, 79.51 86.81 M77.54 65.42 C77.59 73.50, 77.43 80.61, 78.50 90.80 M74.63 88.82 C67.41 87.54, 50.60 86.80, 43.42 86.70 M79.45 91.62 C66.89 90.40, 53.13 91.49, 41.72 90.97 M44.83 86.24 C39.24 84.54, 44.31 77.77, 44.17 63.08 M41.96 91.20 C40.92 85.21, 42.32 76.80, 41.80 66.44" fill="none" stroke="#202020" stroke-width="2" stroke-linecap="round" stroke-linejoin="round"/><path d="M40.45 75.59 C52.65 69.12, 63.93 74.05, 80.73 68.49 M40.08 70.41 C50.64 74.08, 54.60 73.69, 79.97 71.59" fill="none" stroke="#202020" stroke-width="2" stroke-linecap="round" stroke-linejoin="round"/><path d="M42.99 81.64 C49.67 84.03, 64.93 81.32, 74.57 79.14 M40.54 80.15 C54.35 79.96, 62.05 80.20, 78.12 82.19" fill="none" stroke="#202020" stroke-width="2" stroke-linecap="round" stroke-linejoin="round"/><path d="M60.46 4.36 C62.03 7.18, 61.66 8.89, 58.89 13.08 M59.43 5.81 C59.31 8.05, 60.05 9.30, 60.75 15.13" fill="none" stroke="#202020" stroke-width="2" stroke-linecap="round" stroke-linejoin="round"/><path d="M14.52 25.58 C16.48 27.24, 19.35 26.55, 22.99 30.49 M13.36 24.62 C16.29 26.81, 19.45 29.79, 21.10 29.30" fill="none" stroke="#202020" stroke-width="2" stroke-linecap="round" stroke-linejoin="round"/><path d="M106.86 24.64 C103.06 26.97, 100.32 25.93, 99.78 28.46 M105.04 23.12 C103.98 25.82, 103.10 27.46, 98.36 29.28" fill="none" stroke="#202020" stroke-width="2" stroke-linecap="round" stroke-linejoin="round"/><path d="M20.14 55.19 C22.82 51.92, 24.74 50.00, 27.26 49.71 M19.45 54.21 C20.99 52.49, 23.97 51.76, 27.13 50.52" fill="none" stroke="#202020" stroke-width="2" stroke-linecap="round" stroke-linejoin="round"/><path d="M99.60 54.24 C97.39 53.58, 93.97 50.11, 94.42 51.25 M100.61 54.71 C98.86 53.01, 95.84 51.98, 93.76 49.77" fill="none" stroke="#202020" stroke-width="2" stroke-linecap="round" stroke-linejoin="round"/></svg>