<svg xmlns="http://www.w3.org/2000/svg" viewBox="0 0 96 96" width="96" height="96"><path d="M11.32 13.82 C11.32 13.82, 11.32 13.82, 11.32 13.82 M11.32 13.82 C11.32 13.82, 11.32 13.82, 11.32 13.82 M6.15 34.73 C9.67 28.66, 19.49 18.20, 30.15 3.70 M3.14 34.09 C12.98 24.71, 18.08 15.09, 33.60 2.90 M3.72 43.44 C14.53 29.82, 24.43 18.29, 43.07 5.83 M4.27 44.90 C19.62 32.90, 29.52 16.97, 41.59 3.13 M4.26 56.46 C19.20 45.47, 30.62 27.53, 48.47 3.70 M6.40 56.19 C23.33 39.51, 37.41 18.53, 50.23 4.39 M8.31 63.13 C29.65 49.31, 39.78 30.19, 55.06 5.44 M10.26 61.06 C30.31 42.05, 46.78 22.82, 59.12 7.76 M12.03 71.55 C24.55 51.88, 41.59 42.59, 68.05 15.26 M17.00 68.27 C32.45 51.84, 45.92 34.12, 67.41 13.89 M24.93 77.14 C36.22 60.12, 46.57 43.27, 75.48 19.88 M24.34 71.54 C37.81 55.77, 54.01 41.77, 72.78 17.05 M35.00 74.02 C43.92 61.87, 49.11 55.44, 74.20 26.50 M32.77 75.60 C48.39 57.13, 63.86 39.76, 76.82 24.53 M44.63 78.98 C56.52 63.47, 68.86 49.56, 78.79 33.40 M41.22 75.92 C54.00 62.14, 66.13 45.61, 76.75 33.17 M50.33 78.01 C60.16 70.32, 63.56 60.11, 78.67 47.10 M54.07 76.36 C59.67 64.25, 69.15 57.07, 73.79 50.32" fill="#7dcfff" stroke="none"/><path d="M72.06 15.44 C76.72 20.06, 78.67 28.39, 78.72 35.66 C78.78 42.93, 75.46 52.63, 72.37 59.07 C69.29 65.50, 65.77 71.34, 60.21 74.27 C54.64 77.20, 46.13 77.15, 38.98 76.67 C31.84 76.19, 23.09 75.23, 17.33 71.41 C11.57 67.58, 6.62 60.32, 4.42 53.74 C2.22 47.16, 3.00 38.55, 4.13 31.91 C5.27 25.28, 6.66 18.88, 11.22 13.93 C15.78 8.98, 24.53 3.74, 31.49 2.22 C38.45 0.70, 45.50 1.24, 52.97 4.82 C60.44 8.39, 72.39 18.82, 76.32 23.66 C80.24 28.50, 77.11 33.47, 76.53 33.84 M43.39 4.44 C49.21 3.46, 53.93 2.28, 59.36 5.19 C64.78 8.10, 73.17 14.99, 75.92 21.89 C78.68 28.80, 77.52 39.48, 75.90 46.63 C74.28 53.79, 70.86 59.51, 66.20 64.81 C61.53 70.12, 54.52 76.51, 47.93 78.45 C41.33 80.38, 33.02 78.51, 26.63 76.43 C20.23 74.36, 13.93 70.92, 9.57 66.02 C5.21 61.11, 1.31 54.22, 0.44 47.01 C-0.43 39.81, 0.85 29.33, 4.32 22.78 C7.80 16.24, 14.96 10.94, 21.30 7.72 C27.65 4.50, 39.36 4.52, 42.40 3.47 C45.43 2.41, 40.34 1.52, 39.51 1.38" fill="none" stroke="#202020" stroke-width="2" stroke-linecap="round" stroke-linejoin="round"/></svg>