<svg xmlns="http://www.w3.org/2000/svg" viewBox="0 0 136 136" width="136" height="136"><path d="M11.87 6.21 L106.12 6.59 L108.33 113.57 L13.45 109.57" fill="#faf7ef" stroke="none"/><path d="M6.08 8.17 C41.18 4.64, 76.37 5.83, 113.12 1.16 M9.71 5.82 C36.42 4.49, 60.64 3.68, 110.45 3.90 M107.02 5.85 C112.69 35.16, 106.15 72.54, 110.89 111.49 M110.97 5.19 C106.21 30.43, 109.36 56.48, 110.55 111.49 M107.38 109.00 C71.76 108.18, 36.20 113.00, 6.41 113.41 M110.29 111.51 C88.15 108.14, 62.57 110.96, 8.45 108.69 M8.32 107.30 C13.15 72.90, 15.18 43.07, 7.12 8.99 M10.69 108.34 C12.05 83.56, 12.14 58.20, 8.00 6.16" fill="none" stroke="#202020" stroke-width="2" stroke-linecap="round" stroke-linejoin="round"/><path d="M15.54 20.10 C33.71 15.40, 56.34 18.15, 105.96 22.02 M16.37 18.08 C39.20 17.45, 62.92 18.75, 101.55 19.86" fill="none" stroke="#202020" stroke-width="2" stroke-linecap="round" stroke-linejoin="round"/><path d="M18.09 37.01 C41.38 32.77, 65.10 38.92, 105.13 36.08 M16.46 36.41 C50.44 38.06, 80.25 37.76, 102.08 37.31" fill="none" stroke="#202020" stroke-width="2" stroke-linecap="round" stroke-linejoin="round"/><path d="M14.82 52.15 C40.15 56.99, 56.21 58.27, 99.69 59.32 M17.42 54.11 C40.49 54.96, 61.34 54.83, 100.66 56.58" fill="none" stroke="#202020" stroke-width="2" stroke-linecap="round" stroke-linejoin="round"/><path d="M21.77 70.51 C46.12 78.71, 75.58 77.46, 100.15 76.83 M18.71 73.63 C45.29 71.28, 71.97 70.81, 103.27 72.17" fill="none" stroke="#202020" stroke-width="2" stroke-linecap="round" stroke-linejoin="round"/><path d="M21.52 10.37 C21.96 10.47, 20.43 8.22, 20.60 8.50 C20.78 8.78, 22.59 11.25, 22.57 12.06 C22.55 12.87, 20.58 12.68, 20.50 13.36 C20.41 14.04, 22.41 15.71, 22.05 16.14 C21.69 16.58, 19.20 16.35, 18.35 15.96 C17.51 15.58, 17.36 14.58, 16.98 13.83 C16.61 13.09, 15.93 12.01, 16.11 11.47 C16.28 10.93, 17.07 11.10, 18.03 10.58 C18.98 10.07, 21.09 7.67, 21.83 8.37 C22.57 9.08, 22.50 14.13, 22.46 14.81 M20.30 7.60 C20.51 6.89, 18.37 7.86, 18.80 8.53 C19.23 9.20, 21.84 10.82, 22.90 11.61 C23.96 12.41, 25.60 13.15, 25.16 13.32 C24.73 13.49, 21.75 12.05, 20.29 12.65 C18.84 13.25, 17.14 16.26, 16.43 16.92 C15.73 17.59, 16.06 16.99, 16.07 16.65 C16.08 16.31, 16.62 16.46, 16.49 14.89 C16.37 13.32, 14.65 8.67, 15.30 7.23 C15.95 5.80, 19.28 6.37, 20.39 6.26 C21.50 6.15, 22.15 6.53, 21.96 6.58" fill="#faf7ef" stroke="none"/><path d="M21.89 7.15 C22.78 7.03, 22.12 7.71, 22.26 8.35 C22.40 8.99, 22.74 10.26, 22.72 10.99 C22.70 11.72, 22.75 11.86, 22.15 12.72 C21.55 13.57, 19.62 15.50, 19.14 16.10 C18.67 16.70, 19.87 16.83, 19.30 16.34 C18.73 15.85, 15.89 13.90, 15.72 13.14 C15.56 12.39, 17.73 12.47, 18.33 11.81 C18.93 11.14, 18.91 9.61, 19.31 9.15 C19.72 8.69, 19.95 8.73, 20.76 9.03 C21.58 9.34, 23.90 11.08, 24.21 11.01 M20.87 6.13 C21.01 5.61, 19.06 9.20, 19.00 9.55 C18.94 9.90, 20.11 7.44, 20.51 8.23 C20.92 9.03, 20.96 13.71, 21.41 14.32 C21.85 14.92, 23.35 11.31, 23.17 11.87 C22.99 12.42, 21.10 17.37, 20.33 17.65 C19.57 17.93, 19.58 14.46, 18.57 13.54 C17.56 12.63, 14.86 12.76, 14.29 12.15 C13.71 11.53, 14.59 10.17, 15.13 9.87 C15.67 9.57, 16.64 10.48, 17.52 10.35 C18.41 10.22, 20.15 9.16, 20.45 9.08" fill="none" stroke="#202020" stroke-width="2" stroke-linecap="round" stroke-linejoin="round"/></svg>