<svg xmlns="http://www.w3.org/2000/svg" viewBox="0 0 136 136" width="136" height="136"><path d="M47.68 37.71 C47.80 36.61, 47.13 35.49, 47.74 33.76 C48.34 32.03, 49.45 28.27, 51.32 27.33 C53.20 26.38, 57.12 28.10, 58.98 28.10 C60.84 28.10, 60.94 27.14, 62.46 27.32 C63.98 27.50, 66.60 28.17, 68.12 29.16 C69.64 30.15, 70.44 32.20, 71.59 33.26 C72.73 34.32, 74.58 34.84, 74.99 35.51 C75.40 36.18, 74.22 37.00, 74.06 37.29 M44.53 39.52 C45.46 37.80, 48.53 36.09, 49.54 34.82 C50.55 33.55, 49.07 32.94, 50.61 31.89 C52.15 30.84, 56.50 28.99, 58.79 28.51 C61.08 28.03, 62.58 28.84, 64.35 28.99 C66.12 29.14, 68.29 29.23, 69.40 29.40 C70.51 29.58, 70.29 28.56, 70.99 30.04 C71.69 31.51, 73.08 37.04, 73.59 38.25 C74.11 39.46, 73.99 37.45, 74.06 37.29" fill="none" stroke="#202020" stroke-width="2" stroke-linecap="round" stroke-linejoin="round"/><path d="M59.49 54.90 C62.68 58.62, 58.67 66.67, 56.78 81.06 M61.02 52.40 C59.64 59.03, 61.39 63.28, 60.14 79.68" fill="none" stroke="#202020" stroke-width="2" stroke-linecap="round" stroke-linejoin="round"/><path d="M63.00 92.32 C63.61 93.00, 63.47 95.01, 63.61 96.13 C63.75 97.25, 64.55 98.68, 63.86 99.03 C63.17 99.37, 60.12 98.02, 59.48 98.20 C58.83 98.38, 60.08 100.02, 59.98 100.11 C59.89 100.19, 59.67 99.57, 58.90 98.69 C58.12 97.81, 55.18 95.46, 55.34 94.83 C55.50 94.19, 58.85 94.85, 59.88 94.88 C60.90 94.92, 60.83 95.23, 61.49 95.05 C62.16 94.86, 63.88 93.37, 63.84 93.78 C63.80 94.20, 61.40 97.61, 61.25 97.54 M62.29 95.10 C62.75 94.52, 59.95 92.82, 59.71 92.80 C59.48 92.78, 60.52 94.56, 60.89 94.99 C61.27 95.42, 62.38 95.09, 61.95 95.37 C61.51 95.64, 59.13 96.56, 58.30 96.64 C57.47 96.72, 56.78 95.29, 56.97 95.84 C57.16 96.38, 58.98 99.66, 59.44 99.91 C59.91 100.17, 59.54 98.30, 59.76 97.36 C59.98 96.43, 60.38 94.61, 60.77 94.29 C61.15 93.97, 62.40 95.55, 62.10 95.43 C61.80 95.30, 58.82 93.99, 58.98 93.52" fill="#faf7ef" stroke="none"/><path d="M59.32 92.69 C60.06 92.16, 61.45 91.28, 61.62 91.25 C61.79 91.23, 60.34 91.61, 60.34 92.54 C60.33 93.47, 61.41 96.13, 61.59 96.83 C61.77 97.52, 61.85 96.68, 61.40 96.69 C60.95 96.71, 59.14 96.80, 58.89 96.92 C58.64 97.04, 60.08 97.24, 59.92 97.39 C59.76 97.55, 58.55 97.97, 57.93 97.85 C57.31 97.72, 55.71 97.37, 56.21 96.64 C56.70 95.90, 59.99 93.99, 60.90 93.42 C61.80 92.84, 61.70 93.27, 61.65 93.19 M56.97 94.32 C58.31 93.97, 61.76 93.95, 62.97 94.32 C64.18 94.70, 64.38 96.79, 64.21 96.57 C64.04 96.34, 62.18 93.24, 61.93 92.97 C61.68 92.70, 62.89 94.31, 62.71 94.94 C62.54 95.57, 61.27 95.69, 60.89 96.75 C60.50 97.80, 61.38 100.82, 60.40 101.26 C59.41 101.71, 55.88 100.46, 54.97 99.41 C54.07 98.36, 54.33 95.79, 54.98 94.97 C55.63 94.14, 58.65 94.73, 58.86 94.48 C59.08 94.22, 56.40 93.93, 56.28 93.46" fill="none" stroke="#202020" stroke-width="2" stroke-linecap="round" stroke-linejoin="round"/></svg>