<svg xmlns="http://www.w3.org/2000/svg" viewBox="0 0 136 136" width="136" height="136"><path d="M58.29 5.60 L68.01 52.38 L113.32 62.50 L71.94 67.93 L61.86 115.87 L46.58 71.73 L8.96 60.84 L50.73 51.65" fill="#faf7ef" stroke="none"/><path d="M58.42 2.35 C61.97 12.10, 61.65 29.57, 70.09 47.64 M59.79 4.12 C65.82 19.24, 66.41 37.06, 68.26 50.57 M68.82 46.87 C84.24 51.47, 98.47 59.76, 114.44 62.04 M69.23 49.35 C81.65 51.97, 93.14 55.53, 114.60 59.23 M116.55 62.41 C106.05 61.89, 94.63 65.56, 66.13 73.27 M113.17 58.63 C100.80 63.87, 83.76 65.14, 68.30 71.30 M66.79 66.90 C65.92 83.64, 61.31 106.94, 56.45 112.41 M69.09 70.60 C67.21 84.22, 62.53 101.48, 59.77 113.88 M62.75 111.17 C56.79 100.28, 57.56 93.27, 50.83 70.33 M60.58 114.21 C56.25 102.65, 55.29 91.06, 49.32 71.69 M54.03 72.97 C39.02 65.74, 24.37 64.96, 4.26 59.39 M50.55 69.49 C37.95 67.95, 22.10 64.53, 5.95 58.27 M4.72 56.60 C11.56 61.01, 25.83 52.82, 51.08 48.99 M6.25 60.64 C22.18 57.78, 39.17 51.98, 51.86 50.22 M46.29 50.72 C55.42 40.03, 55.70 34.23, 62.09 7.46 M48.99 50.58 C53.53 38.54, 57.07 23.44, 59.27 3.76" fill="none" stroke="#202020" stroke-width="2" stroke-linecap="round" stroke-linejoin="round"/><path d="M27.25 29.55 C27.55 29.33, 29.13 29.34, 29.23 29.50 C29.33 29.65, 27.59 30.03, 27.83 30.47 C28.08 30.92, 30.99 31.73, 30.70 32.18 C30.41 32.63, 27.05 33.07, 26.09 33.17 C25.12 33.28, 25.25 32.41, 24.91 32.82 C24.58 33.23, 23.84 35.87, 24.08 35.63 C24.31 35.39, 25.87 32.44, 26.34 31.41 C26.82 30.37, 26.54 29.69, 26.93 29.41 C27.31 29.14, 28.65 29.66, 28.65 29.74 C28.65 29.82, 26.96 29.44, 26.91 29.88 M28.59 30.44 C29.07 30.32, 28.50 30.08, 28.45 30.00 C28.40 29.92, 27.93 29.75, 28.27 29.96 C28.62 30.17, 30.66 30.50, 30.50 31.27 C30.35 32.05, 28.19 34.20, 27.35 34.62 C26.51 35.03, 25.86 33.61, 25.46 33.76 C25.05 33.91, 24.73 35.33, 24.91 35.52 C25.10 35.71, 26.24 35.46, 26.57 34.89 C26.90 34.33, 26.63 32.72, 26.89 32.14 C27.14 31.56, 28.01 31.44, 28.10 31.41 C28.19 31.38, 27.78 31.68, 27.44 31.97" fill="#faf7ef" stroke="none"/><path d="M28.57 29.93 C28.58 30.24, 28.40 30.56, 28.37 30.81 C28.34 31.07, 28.57 31.12, 28.39 31.47 C28.21 31.82, 27.34 32.17, 27.29 32.90 C27.24 33.64, 28.22 35.94, 28.09 35.89 C27.95 35.85, 26.85 33.42, 26.48 32.65 C26.12 31.88, 26.01 31.41, 25.91 31.28 C25.81 31.15, 25.74 31.86, 25.89 31.87 C26.04 31.87, 26.17 31.25, 26.80 31.30 C27.43 31.36, 29.62 32.03, 29.68 32.19 C29.73 32.35, 27.44 32.15, 27.13 32.26 M26.85 33.12 C27.10 33.32, 28.93 32.35, 29.37 31.82 C29.81 31.29, 29.46 30.11, 29.51 29.94 C29.55 29.77, 29.89 29.89, 29.63 30.82 C29.38 31.75, 28.73 34.94, 27.97 35.53 C27.21 36.12, 25.31 34.81, 25.08 34.37 C24.85 33.92, 26.96 32.67, 26.60 32.85 C26.24 33.04, 23.55 35.55, 22.90 35.49 C22.24 35.42, 22.03 33.26, 22.70 32.47 C23.37 31.69, 26.31 31.25, 26.92 30.77 C27.52 30.28, 26.08 29.67, 26.32 29.57" fill="none" stroke="#202020" stroke-width="2" stroke-linecap="round" stroke-linejoin="round"/><path d="M89.15 93.25 C89.45 93.36, 89.36 91.79, 89.48 92.00 C89.60 92.22, 89.89 94.43, 89.88 94.52 C89.87 94.61, 89.72 92.87, 89.40 92.54 C89.09 92.20, 88.76 92.53, 87.99 92.50 C87.22 92.47, 84.84 92.36, 84.79 92.36 C84.75 92.36, 87.30 92.67, 87.71 92.51 C88.12 92.35, 87.36 91.25, 87.25 91.37 C87.13 91.49, 86.78 93.15, 87.02 93.22 C87.27 93.30, 88.67 91.88, 88.72 91.82 C88.76 91.76, 87.54 93.14, 87.32 92.86 M89.04 89.85 C89.06 89.28, 89.10 89.28, 88.81 90.18 C88.51 91.09, 87.04 94.39, 87.28 95.29 C87.52 96.19, 90.75 95.52, 90.26 95.59 C89.77 95.65, 85.48 95.72, 84.32 95.67 C83.17 95.63, 82.87 95.48, 83.33 95.32 C83.79 95.15, 86.79 95.05, 87.10 94.67 C87.40 94.29, 85.51 93.59, 85.18 93.02 C84.84 92.45, 84.69 91.55, 85.09 91.26 C85.49 90.97, 86.52 90.88, 87.58 91.26 C88.63 91.65, 91.49 93.91, 91.41 93.58" fill="#faf7ef" stroke="none"/><path d="M87.51 90.63 C87.53 90.43, 85.23 89.33, 85.63 89.80 C86.03 90.27, 89.38 92.93, 89.91 93.45 C90.43 93.98, 88.79 93.18, 88.79 92.94 C88.79 92.69, 89.74 92.07, 89.92 91.99 C90.09 91.91, 89.98 92.30, 89.85 92.44 C89.72 92.59, 89.85 92.35, 89.13 92.88 C88.42 93.41, 85.91 95.34, 85.57 95.63 C85.24 95.92, 87.15 95.52, 87.12 94.61 C87.10 93.70, 85.48 90.48, 85.41 90.16 C85.34 89.84, 86.12 92.17, 86.71 92.71 M89.29 93.91 C88.96 94.41, 87.94 95.35, 87.92 94.99 C87.91 94.62, 89.00 91.57, 89.21 91.73 C89.42 91.88, 89.87 95.89, 89.21 95.92 C88.54 95.95, 85.68 91.75, 85.23 91.91 C84.77 92.06, 86.82 96.70, 86.48 96.85 C86.14 96.99, 82.74 93.14, 83.18 92.79 C83.61 92.44, 88.72 95.43, 89.10 94.74 C89.48 94.06, 85.26 89.37, 85.46 88.67 C85.66 87.98, 89.36 90.43, 90.29 90.58 C91.23 90.74, 91.38 89.20, 91.07 89.60" fill="none" stroke="#202020" stroke-width="2" stroke-linecap="round" stroke-linejoin="round"/></svg>