<svg xmlns="http://www.w3.org/2000/svg" viewBox="0 0 136 136" width="136" height="136"><path d="M7.96 42.70 C7.96 42.70, 7.96 42.70, 7.96 42.70 M7.96 42.70 C7.96 42.70, 7.96 42.70, 7.96 42.70 M15.16 46.67 C13.80 45.94, 17.56 45.70, 18.81 44.02 M14.25 47.76 C15.81 45.85, 17.03 45.50, 18.39 42.67 M18.71 53.87 C21.28 52.06, 25.91 45.98, 28.92 42.88 M20.93 53.49 C22.00 48.63, 26.69 46.71, 28.39 41.44 M61.37 5.65 C61.37 5.65, 61.37 5.65, 61.37 5.65 M61.37 5.65 C61.37 5.65, 61.37 5.65, 61.37 5.65 M25.69 59.25 C33.17 54.81, 33.57 46.58, 43.38 42.30 M27.31 56.66 C31.21 54.37, 34.71 51.42, 38.12 42.12 M53.27 24.30 C57.99 24.54, 61.70 21.34, 63.91 13.50 M55.37 25.21 C58.91 21.14, 62.67 16.87, 63.85 14.16 M34.73 62.56 C43.74 48.03, 60.69 37.31, 70.10 25.79 M33.12 61.91 C44.64 52.25, 56.62 38.96, 65.90 24.73 M42.67 69.67 C52.84 60.75, 61.09 49.66, 69.49 34.02 M38.39 67.94 C48.74 55.77, 59.86 46.17, 71.86 30.78 M34.65 83.42 C45.96 73.22, 53.11 63.95, 70.56 39.30 M32.92 86.98 C45.30 73.56, 59.04 57.29, 74.83 42.26 M27.12 102.19 C48.08 83.11, 67.64 56.55, 79.29 44.74 M28.29 106.85 C44.25 86.60, 61.07 66.33, 80.06 48.40 M57.49 84.55 C65.91 76.50, 69.60 71.96, 90.47 49.76 M55.23 86.05 C63.21 74.31, 75.19 65.04, 90.24 47.53 M67.12 84.42 C65.40 78.39, 74.40 74.24, 84.17 65.88 M63.29 88.69 C69.51 83.00, 73.14 74.05, 80.18 65.30 M84.54 67.11 C89.70 60.74, 88.25 58.82, 98.04 49.17 M80.15 65.47 C87.59 60.44, 90.48 55.49, 100.41 47.82 M74.64 88.69 C73.12 89.87, 74.31 87.54, 87.86 77.20 M70.02 91.60 C73.70 86.73, 79.81 83.65, 86.03 75.07 M77.43 95.76 C78.41 93.59, 82.45 91.50, 89.39 86.47 M79.40 94.80 C80.61 93.64, 84.33 89.01, 87.12 84.74 M84.45 99.13 C88.07 98.50, 90.70 94.57, 91.15 93.27 M84.40 99.93 C86.29 99.35, 88.21 97.19, 90.98 94.59 M91.89 104.54 C92.41 104.73, 92.77 104.13, 92.82 103.69 M91.81 104.73 C92.14 104.39, 92.75 103.86, 93.03 103.37" fill="#faf7ef" stroke="none"/><path d="M56.46 5.63 C59.57 13.35, 62.55 26.09, 76.25 45.75 M61.54 6.99 C65.86 18.11, 67.64 29.48, 70.95 40.98 M73.52 39.52 C90.35 38.89, 104.68 45.35, 108.55 41.68 M73.40 43.29 C87.47 42.89, 100.54 43.57, 113.49 44.35 M116.18 46.86 C102.48 47.41, 87.32 60.72, 84.88 65.75 M114.25 41.29 C103.35 47.63, 97.71 53.18, 81.22 66.77 M84.60 64.04 C85.04 79.06, 85.39 86.79, 92.52 107.02 M80.12 66.14 C87.23 79.40, 90.03 90.73, 90.51 104.31 M91.07 102.11 C82.60 96.21, 68.81 93.58, 59.58 80.73 M92.07 106.08 C85.57 98.67, 76.91 93.73, 59.52 81.35 M62.75 82.29 C52.83 90.60, 45.67 94.89, 31.39 105.23 M60.79 81.48 C47.34 91.72, 34.24 97.30, 25.94 105.22 M30.32 106.93 C35.62 88.79, 36.36 77.70, 41.01 63.93 M27.98 103.56 C29.05 94.76, 30.50 87.01, 37.73 64.98 M40.75 64.57 C28.52 60.63, 21.52 48.58, 6.19 39.05 M40.28 67.05 C28.20 61.84, 20.28 54.79, 8.43 43.37 M4.77 39.10 C17.03 40.19, 31.38 44.63, 49.68 41.11 M6.99 41.46 C23.55 42.40, 38.50 40.88, 46.80 42.23 M50.64 40.75 C47.68 31.22, 49.18 25.06, 62.25 6.91 M49.07 41.72 C53.83 25.37, 59.47 10.76, 58.87 5.48" fill="none" stroke="#202020" stroke-width="2" stroke-linecap="round" stroke-linejoin="round"/></svg>