<svg xmlns="http://www.w3.org/2000/svg" viewBox="0 0 136 136" width="136" height="136"><path d="M78.86 35.15 C83.42 38.97, 85.15 45.61, 86.48 52.40 C87.81 59.18, 89.56 69.75, 86.85 75.84 C84.13 81.93, 76.41 86.41, 70.19 88.94 C63.97 91.47, 55.31 92.75, 49.51 91.03 C43.72 89.31, 38.25 84.51, 35.43 78.62 C32.60 72.74, 31.93 63.05, 32.56 55.74 C33.19 48.44, 34.80 39.25, 39.20 34.79 C43.60 30.33, 50.89 26.44, 58.95 28.96 C67.01 31.49, 82.94 43.48, 87.54 49.95 C92.14 56.41, 86.71 67.83, 86.52 67.73 M69.76 32.35 C75.40 34.16, 82.56 36.87, 85.98 42.87 C89.40 48.86, 91.69 60.94, 90.30 68.32 C88.91 75.70, 83.01 83.38, 77.63 87.16 C72.25 90.94, 64.46 91.54, 58.02 91.02 C51.59 90.49, 43.43 88.42, 39.03 84.00 C34.63 79.58, 31.79 71.12, 31.62 64.52 C31.46 57.93, 35.36 50.01, 38.07 44.44 C40.78 38.87, 42.81 33.96, 47.90 31.10 C52.99 28.24, 65.24 27.01, 68.62 27.28 C72.00 27.55, 68.25 31.77, 68.17 32.73" fill="#faf7ef" stroke="none"/><path d="M72.37 31.37 C77.73 33.58, 82.90 40.04, 85.48 46.29 C88.05 52.54, 89.53 61.86, 87.81 68.85 C86.09 75.83, 79.89 84.00, 75.16 88.20 C70.43 92.39, 65.16 94.90, 59.43 94.00 C53.71 93.11, 45.22 88.22, 40.80 82.82 C36.37 77.43, 33.84 68.26, 32.88 61.63 C31.92 55.00, 31.98 48.66, 35.04 43.06 C38.10 37.46, 44.62 30.08, 51.25 28.01 C57.87 25.94, 70.78 29.44, 74.78 30.65 C78.78 31.87, 75.32 34.86, 75.25 35.28 M68.53 31.03 C73.74 32.60, 79.74 35.90, 82.75 41.98 C85.76 48.07, 86.69 60.84, 86.57 67.56 C86.45 74.27, 85.93 77.80, 82.03 82.26 C78.13 86.72, 70.11 93.76, 63.17 94.32 C56.23 94.87, 45.49 90.41, 40.39 85.57 C35.29 80.74, 33.38 71.71, 32.57 65.30 C31.76 58.90, 33.06 53.10, 35.54 47.15 C38.03 41.21, 42.01 32.96, 47.49 29.64 C52.96 26.33, 65.22 27.63, 68.38 27.26 C71.54 26.89, 66.89 26.33, 66.45 27.42" fill="none" stroke="#202020" stroke-width="2" stroke-linecap="round" stroke-linejoin="round"/><path d="M56.83 25.47 C58.65 20.59, 58.16 15.04, 62.77 10.86 M60.23 23.99 C58.86 17.86, 58.59 14.29, 58.52 7.44" fill="none" stroke="#202020" stroke-width="2" stroke-linecap="round" stroke-linejoin="round"/><path d="M81.47 38.16 C88.75 31.88, 90.32 28.76, 97.49 20.97 M83.99 36.59 C89.75 30.31, 91.73 28.23, 96.62 24.54" fill="none" stroke="#202020" stroke-width="2" stroke-linecap="round" stroke-linejoin="round"/><path d="M93.86 63.30 C101.96 58.45, 111.06 62.53, 110.01 61.42 M95.26 60.59 C100.12 61.64, 105.48 61.97, 111.23 60.76" fill="none" stroke="#202020" stroke-width="2" stroke-linecap="round" stroke-linejoin="round"/><path d="M85.09 85.26 C89.97 89.95, 87.97 91.38, 94.91 96.88 M85.55 83.05 C88.50 88.61, 93.15 94.56, 95.66 96.19" fill="none" stroke="#202020" stroke-width="2" stroke-linecap="round" stroke-linejoin="round"/><path d="M62.51 92.47 C57.50 102.95, 57.65 104.79, 63.24 110.87 M59.48 96.34 C60.83 100.51, 60.56 104.22, 59.94 113.68" fill="none" stroke="#202020" stroke-width="2" stroke-linecap="round" stroke-linejoin="round"/><path d="M32.36 86.22 C29.66 91.86, 26.68 95.06, 20.75 96.81 M34.88 83.81 C30.19 90.42, 25.61 93.32, 24.80 97.30" fill="none" stroke="#202020" stroke-width="2" stroke-linecap="round" stroke-linejoin="round"/><path d="M26.30 62.97 C20.35 61.35, 16.20 59.20, 9.83 59.44 M23.72 60.59 C20.62 61.15, 15.72 59.29, 7.25 60.93" fill="none" stroke="#202020" stroke-width="2" stroke-linecap="round" stroke-linejoin="round"/><path d="M32.90 36.42 C29.93 32.99, 29.87 28.91, 23.79 21.39 M36.60 34.00 C31.04 32.25, 28.50 27.74, 23.59 24.70" fill="none" stroke="#202020" stroke-width="2" stroke-linecap="round" stroke-linejoin="round"/></svg>