<svg xmlns="http://www.w3.org/2000/svg" viewBox="0 0 436 310" width="436" height="310"><path d="M208.35 -29.98 C222.87 -32.50, 243.01 -27.81, 257.92 -22.51 C272.83 -17.20, 286.53 -8.40, 297.80 1.84 C309.08 12.09, 317.89 26.21, 325.55 38.96 C333.22 51.71, 341.19 63.98, 343.79 78.37 C346.40 92.75, 343.93 109.89, 341.17 125.27 C338.40 140.65, 334.60 157.60, 327.21 170.65 C319.81 183.69, 308.46 194.49, 296.82 203.55 C285.17 212.61, 271.61 219.97, 257.32 225.00 C243.03 230.03, 226.50 233.79, 211.08 233.73 C195.66 233.68, 179.18 229.78, 164.78 224.69 C150.38 219.61, 136.28 212.77, 124.68 203.23 C113.09 193.70, 102.93 180.40, 95.21 167.48 C87.49 154.57, 81.38 140.09, 78.36 125.72 C75.34 111.35, 74.31 96.39, 77.10 81.27 C79.88 66.15, 86.97 48.32, 95.07 34.99 C103.17 21.67, 113.97 10.73, 125.68 1.31 C137.39 -8.11, 148.63 -16.42, 165.31 -21.51 C181.99 -26.60, 212.83 -29.13, 225.74 -29.21 C238.64 -29.30, 243.06 -24.18, 242.72 -22.02 M316.53 23.13 C327.46 33.41, 336.35 49.41, 340.61 63.66 C344.87 77.90, 343.62 93.41, 342.08 108.60 C340.54 123.80, 337.61 140.57, 331.40 154.83 C325.18 169.08, 314.95 183.08, 304.77 194.10 C294.59 205.13, 283.23 213.93, 270.31 220.97 C257.40 228.01, 242.52 235.07, 227.28 236.33 C212.04 237.60, 193.58 232.61, 178.87 228.54 C164.16 224.47, 151.76 219.67, 139.04 211.91 C126.33 204.15, 111.71 193.92, 102.57 181.98 C93.43 170.04, 88.20 154.31, 84.20 140.26 C80.19 126.20, 78.27 112.45, 78.53 97.66 C78.79 82.87, 79.74 65.17, 85.76 51.53 C91.79 37.90, 104.16 26.47, 114.67 15.85 C125.18 5.23, 135.22 -4.79, 148.82 -12.21 C162.42 -19.64, 180.65 -26.39, 196.25 -28.71 C211.85 -31.03, 227.66 -30.01, 242.40 -26.13 C257.15 -22.26, 272.17 -14.14, 284.72 -5.44 C297.28 3.26, 312.77 21.34, 317.75 26.05 C322.73 30.77, 316.56 21.87, 314.59 22.85" fill="#faf7ef" stroke="none"/><path d="M242.09 -22.71 C256.98 -21.22, 273.43 -14.04, 286.18 -5.61 C298.94 2.81, 310.14 15.80, 318.60 27.84 C327.07 39.87, 332.95 52.56, 336.96 66.57 C340.97 80.59, 343.43 97.00, 342.64 111.92 C341.86 126.84, 338.73 141.95, 332.25 156.07 C325.77 170.18, 314.59 185.79, 303.75 196.61 C292.92 207.42, 280.63 214.82, 267.25 220.94 C253.88 227.07, 238.41 232.09, 223.51 233.36 C208.61 234.64, 192.88 232.52, 177.84 228.61 C162.80 224.69, 145.92 218.28, 133.27 209.88 C120.61 201.49, 110.53 190.51, 101.92 178.25 C93.31 165.99, 85.96 150.41, 81.59 136.31 C77.22 122.21, 74.84 108.38, 75.69 93.64 C76.55 78.90, 80.40 61.51, 86.72 47.86 C93.04 34.20, 102.66 22.41, 113.61 11.70 C124.57 0.98, 138.28 -9.53, 152.45 -16.43 C166.62 -23.34, 180.24 -29.74, 198.65 -29.74 C217.06 -29.73, 249.68 -20.51, 262.89 -16.43 C276.11 -12.36, 279.10 -6.73, 277.92 -5.29 M290.56 -0.50 C303.36 6.47, 314.33 20.27, 322.69 32.03 C331.05 43.79, 337.06 55.89, 340.73 70.06 C344.39 84.24, 346.89 101.29, 344.69 117.09 C342.50 132.89, 334.59 151.23, 327.54 164.86 C320.50 178.49, 313.05 188.72, 302.40 198.89 C291.75 209.05, 278.14 219.69, 263.64 225.86 C249.14 232.02, 230.38 235.48, 215.42 235.89 C200.45 236.29, 187.84 233.00, 173.87 228.31 C159.90 223.62, 144.65 216.36, 131.60 207.72 C118.55 199.08, 104.41 188.89, 95.55 176.47 C86.68 164.05, 81.89 148.30, 78.41 133.21 C74.93 118.12, 72.19 100.68, 74.68 85.93 C77.16 71.18, 85.98 58.13, 93.31 44.70 C100.65 31.26, 108.16 15.66, 118.69 5.33 C129.23 -5.00, 143.06 -11.70, 156.50 -17.28 C169.94 -22.86, 183.77 -27.51, 199.33 -28.16 C214.88 -28.82, 235.11 -24.98, 249.80 -21.19 C264.50 -17.40, 281.28 -8.91, 287.52 -5.42 C293.76 -1.93, 288.14 -2.41, 287.22 -0.25" fill="none" stroke="#202020" stroke-width="3" stroke-linecap="round" stroke-linejoin="round"/><path d="M146.93 161.94 L271.90 158.08 L275.40 220.78 L149.05 218.01" fill="#faf7ef" stroke="none"/><path d="M148.91 158.26 C176.40 157.84, 200.37 162.76, 269.92 159.92 M147.79 162.39 C184.11 158.45, 218.70 161.50, 273.55 162.86 M276.42 159.10 C274.13 185.33, 276.32 204.42, 273.31 221.33 M274.65 163.44 C271.88 175.59, 274.17 187.61, 271.50 218.70 M270.46 217.01 C228.86 219.59, 184.64 223.83, 149.14 217.31 M271.27 222.26 C221.19 223.61, 173.91 222.67, 147.93 218.63 M145.77 217.26 C145.72 206.73, 143.86 188.10, 148.49 160.68 M145.03 219.71 C146.58 206.59, 148.40 191.35, 147.12 161.47" fill="none" stroke="#202020" stroke-width="3" stroke-linecap="round" stroke-linejoin="round"/><path d="M148.43 177.34 C193.39 180.28, 243.87 180.11, 273.78 177.88 M147.46 175.10 C191.61 177.41, 237.55 176.80, 274.20 174.56" fill="none" stroke="#202020" stroke-width="3" stroke-linecap="round" stroke-linejoin="round"/><path d="M145.52 198.52 C174.35 204.42, 206.84 203.94, 270.16 203.89 M146.25 200.36 C179.76 202.66, 212.37 202.84, 271.75 200.55" fill="none" stroke="#202020" stroke-width="3" stroke-linecap="round" stroke-linejoin="round"/><path d="M208.43 4.42 C209.56 10.26, 210.72 9.86, 210.20 13.11 M210.46 4.20 C209.52 7.75, 210.15 10.19, 210.01 14.37" fill="none" stroke="#202020" stroke-width="3" stroke-linecap="round" stroke-linejoin="round"/><path d="M77.19 56.62 C72.93 58.88, 79.81 68.09, 85.28 74.56 M75.21 60.01 C78.60 64.92, 80.95 68.40, 81.45 73.20" fill="none" stroke="#202020" stroke-width="3" stroke-linecap="round" stroke-linejoin="round"/><path d="M347.30 61.43 C341.41 65.35, 340.43 69.07, 334.98 74.40 M346.57 59.34 C344.93 61.20, 342.27 67.60, 337.53 71.90" fill="none" stroke="#202020" stroke-width="3" stroke-linecap="round" stroke-linejoin="round"/><path d="M81.09 131.47 C82.26 128.81, 81.66 126.60, 84.83 124.39 M80.06 133.05 C82.07 129.51, 83.71 126.99, 86.36 124.50" fill="none" stroke="#202020" stroke-width="3" stroke-linecap="round" stroke-linejoin="round"/><path d="M341.06 130.88 C338.04 128.23, 337.82 126.27, 331.73 124.18 M340.52 133.14 C338.00 128.96, 337.39 126.75, 332.49 124.09" fill="none" stroke="#202020" stroke-width="3" stroke-linecap="round" stroke-linejoin="round"/></svg>