<svg xmlns="http://www.w3.org/2000/svg" viewBox="0 0 436 310" width="436" height="310"><path d="M123.65 14.89 C130.54 3.52, 142.72 -4.30, 154.57 -10.95 C166.43 -17.61, 181.39 -22.44, 194.77 -25.02 C208.16 -27.61, 222.01 -29.63, 234.89 -26.47 C247.76 -23.31, 260.86 -14.12, 272.02 -6.09 C283.17 1.95, 294.03 10.03, 301.81 21.74 C309.59 33.44, 314.76 49.74, 318.70 64.14 C322.63 78.54, 325.80 93.40, 325.41 108.12 C325.02 122.84, 321.55 138.94, 316.35 152.49 C311.15 166.03, 302.79 178.14, 294.22 189.39 C285.64 200.64, 276.22 212.53, 264.89 219.98 C253.55 227.43, 239.14 232.07, 226.21 234.10 C213.27 236.13, 200.20 235.90, 187.27 232.18 C174.34 228.46, 160.16 219.81, 148.64 211.78 C137.11 203.75, 125.93 195.18, 118.14 183.97 C110.34 172.76, 106.09 158.63, 101.86 144.52 C97.64 130.41, 92.91 114.52, 92.80 99.29 C92.70 84.06, 93.30 69.84, 101.22 53.13 C109.13 36.41, 129.87 10.44, 140.30 -1.00 C150.72 -12.44, 162.41 -17.32, 163.77 -15.52 M170.98 -20.42 C182.97 -27.31, 199.65 -29.57, 212.33 -29.82 C225.00 -30.06, 235.28 -27.02, 247.02 -21.87 C258.76 -16.73, 272.04 -8.36, 282.77 1.03 C293.51 10.43, 304.25 21.50, 311.44 34.50 C318.64 47.50, 323.54 63.48, 325.95 79.06 C328.36 94.64, 328.29 112.71, 325.91 127.97 C323.53 143.23, 318.24 158.30, 311.68 170.60 C305.13 182.91, 296.57 192.49, 286.59 201.79 C276.60 211.09, 264.28 221.59, 251.75 226.40 C239.22 231.21, 225.30 230.75, 211.41 230.64 C197.52 230.54, 180.62 230.28, 168.41 225.76 C156.19 221.24, 148.06 213.06, 138.12 203.51 C128.18 193.95, 115.72 181.31, 108.77 168.43 C101.82 155.54, 98.53 140.45, 96.41 126.18 C94.29 111.90, 94.17 97.49, 96.07 82.79 C97.97 68.09, 101.16 50.88, 107.79 37.98 C114.41 25.08, 125.35 14.84, 135.82 5.39 C146.28 -4.06, 164.82 -15.31, 170.58 -18.70 C176.33 -22.09, 169.30 -16.47, 170.35 -14.96" fill="#faf7ef" stroke="none"/><path d="M282.19 1.40 C292.89 8.90, 301.90 23.85, 308.59 36.92 C315.28 49.99, 319.82 65.73, 322.33 79.82 C324.85 93.91, 325.34 106.88, 323.68 121.48 C322.03 136.08, 318.44 153.88, 312.40 167.42 C306.36 180.96, 297.58 193.17, 287.44 202.70 C277.30 212.22, 264.07 219.18, 251.57 224.59 C239.07 230.00, 225.86 234.81, 212.44 235.17 C199.02 235.52, 183.45 231.63, 171.05 226.70 C158.66 221.77, 148.14 214.73, 138.07 205.58 C127.99 196.43, 117.77 184.67, 110.61 171.78 C103.45 158.90, 97.41 143.22, 95.11 128.28 C92.80 113.34, 94.61 97.17, 96.80 82.16 C98.99 67.14, 101.76 51.42, 108.25 38.19 C114.73 24.95, 125.98 12.38, 135.72 2.76 C145.46 -6.86, 154.91 -14.44, 166.68 -19.54 C178.45 -24.64, 193.00 -27.95, 206.32 -27.84 C219.64 -27.73, 231.58 -26.19, 246.60 -18.88 C261.63 -11.57, 286.16 6.94, 296.49 16.03 C306.81 25.11, 309.71 33.86, 308.57 35.61 M201.76 -28.60 C213.86 -31.24, 228.31 -25.87, 240.62 -22.14 C252.93 -18.40, 264.88 -14.42, 275.61 -6.19 C286.33 2.05, 297.28 14.59, 304.98 27.28 C312.67 39.97, 318.93 55.24, 321.78 69.95 C324.62 84.66, 323.76 100.50, 322.05 115.53 C320.33 130.57, 316.54 146.81, 311.48 160.14 C306.41 173.48, 300.86 185.30, 291.65 195.55 C282.44 205.80, 267.99 215.12, 256.21 221.65 C244.43 228.18, 234.25 233.55, 220.99 234.73 C207.73 235.90, 189.42 232.68, 176.67 228.71 C163.92 224.75, 155.22 219.88, 144.48 210.94 C133.75 201.99, 120.07 187.96, 112.26 175.04 C104.44 162.12, 100.48 147.96, 97.60 133.43 C94.72 118.90, 93.54 102.34, 94.99 87.86 C96.43 73.38, 100.90 59.55, 106.26 46.56 C111.63 33.56, 117.88 20.19, 127.17 9.91 C136.46 -0.37, 149.88 -8.64, 162.02 -15.14 C174.16 -21.63, 193.91 -27.13, 200.01 -29.05 C206.11 -30.97, 198.53 -29.38, 198.61 -26.68" fill="none" stroke="#202020" stroke-width="3" stroke-linecap="round" stroke-linejoin="round"/><path d="M144.57 159.60 L271.09 165.43 L276.86 221.48 L146.70 219.93" fill="#faf7ef" stroke="none"/><path d="M145.34 161.74 C182.51 163.54, 227.71 160.33, 276.00 159.34 M147.33 163.24 C192.51 160.82, 237.28 161.52, 271.25 161.41 M272.46 157.81 C272.26 183.21, 273.65 199.64, 269.04 218.58 M273.39 160.37 C274.13 174.58, 271.64 192.78, 271.67 222.17 M271.58 223.23 C244.14 215.94, 221.22 215.91, 144.98 219.04 M273.56 218.64 C247.80 221.82, 219.94 223.11, 148.58 220.36 M143.15 220.54 C143.91 208.10, 145.60 189.77, 150.66 163.44 M145.84 219.19 C145.65 201.16, 147.10 178.52, 146.06 163.01" fill="none" stroke="#202020" stroke-width="3" stroke-linecap="round" stroke-linejoin="round"/><path d="M147.57 175.96 C186.94 177.99, 236.37 174.25, 272.30 179.27 M145.64 177.80 C185.45 174.04, 223.28 176.17, 273.52 175.48" fill="none" stroke="#202020" stroke-width="3" stroke-linecap="round" stroke-linejoin="round"/><path d="M143.42 198.21 C174.83 202.87, 211.34 200.38, 275.11 200.21 M147.36 201.24 C176.47 199.35, 204.22 202.83, 272.27 198.00" fill="none" stroke="#202020" stroke-width="3" stroke-linecap="round" stroke-linejoin="round"/><path d="M209.38 4.05 C208.95 6.54, 208.13 12.25, 208.15 16.53 M209.18 5.93 C210.56 7.64, 209.06 12.65, 210.86 14.33" fill="none" stroke="#202020" stroke-width="3" stroke-linecap="round" stroke-linejoin="round"/><path d="M75.51 58.51 C79.05 66.02, 78.48 70.25, 82.08 76.61 M73.92 58.03 C76.76 62.80, 77.89 66.66, 83.66 75.17" fill="none" stroke="#202020" stroke-width="3" stroke-linecap="round" stroke-linejoin="round"/><path d="M343.84 59.83 C339.41 61.91, 340.44 67.37, 337.96 76.36 M345.87 58.79 C345.19 62.26, 341.40 63.91, 339.06 73.31" fill="none" stroke="#202020" stroke-width="3" stroke-linecap="round" stroke-linejoin="round"/><path d="M77.25 131.54 C78.58 129.14, 83.52 126.90, 87.58 121.27 M79.96 132.32 C81.41 128.01, 85.52 124.69, 87.56 124.15" fill="none" stroke="#202020" stroke-width="3" stroke-linecap="round" stroke-linejoin="round"/><path d="M339.64 133.31 C337.72 131.25, 338.01 129.78, 333.85 121.58 M340.69 133.41 C338.22 129.44, 336.12 125.50, 334.07 123.95" fill="none" stroke="#202020" stroke-width="3" stroke-linecap="round" stroke-linejoin="round"/></svg>