<svg xmlns="http://www.w3.org/2000/svg" viewBox="0 0 900 300" width="900" height="300"><path d="M221.07 78.68 L678.75 82.13 L674.76 292.41 L224.26 289.11" fill="#faf7ef" stroke="none"/><path d="M224.53 80.10 C355.94 79.79, 484.67 82.11, 674.29 78.35 M224.66 80.69 C360.44 79.58, 496.18 79.20, 675.58 79.20 M678.53 81.15 C674.52 149.75, 674.67 214.84, 678.06 287.26 M675.43 78.25 C674.89 122.85, 676.30 164.08, 675.69 289.92 M673.19 290.54 C508.96 293.62, 341.89 293.42, 226.67 291.69 M675.27 289.73 C566.62 291.39, 458.69 291.75, 225.12 290.12 M225.09 287.39 C221.10 211.74, 223.04 137.31, 225.21 83.19 M226.32 290.56 C222.93 243.17, 220.96 194.23, 225.12 80.14" fill="none" stroke="#202020" stroke-width="2" stroke-linecap="round" stroke-linejoin="round"/><path d="M216.33 79.00 L449.50 44.46 L683.92 80.06" fill="#faf7ef" stroke="none"/><path d="M217.47 76.73 C277.21 74.21, 339.44 61.45, 446.82 46.46 M213.99 79.27 C309.04 68.94, 401.09 54.88, 449.40 43.61 M448.23 43.15 C524.00 61.00, 603.40 69.07, 685.45 81.96 M450.42 43.91 C498.39 53.01, 549.07 59.08, 686.32 80.11 M683.64 78.88 C506.27 79.00, 326.45 80.27, 213.77 78.85 M685.82 80.88 C515.95 80.62, 346.28 79.28, 215.53 80.05" fill="none" stroke="#202020" stroke-width="2" stroke-linecap="round" stroke-linejoin="round"/><path d="M363.19 133.21 L539.31 129.43 L540.80 265.24 L357.48 265.25" fill="#faf7ef" stroke="none"/><path d="M358.66 136.05 C415.44 135.06, 475.34 131.93, 536.82 135.17 M358.53 132.98 C408.44 133.53, 453.47 134.03, 538.42 133.22 M539.88 132.58 C536.72 184.61, 537.42 241.43, 543.30 263.60 M539.01 131.68 C538.29 180.10, 537.75 231.23, 539.98 266.86 M543.22 269.84 C474.97 267.55, 401.10 266.64, 361.38 263.83 M540.25 267.32 C498.75 264.64, 453.16 266.98, 360.86 267.63 M362.61 266.46 C359.62 223.49, 354.62 180.61, 359.70 133.81 M360.09 268.80 C357.79 226.32, 361.42 184.56, 358.80 132.54" fill="none" stroke="#202020" stroke-width="2" stroke-linecap="round" stroke-linejoin="round"/><path d="M333.84 217.98 L563.78 217.42 L562.01 287.00 L338.97 286.83" fill="#faf7ef" stroke="none"/><path d="M339.02 216.38 C390.47 219.01, 438.35 217.89, 560.52 213.97 M336.31 214.84 C409.85 215.35, 484.57 213.85, 562.19 217.72 M559.70 216.37 C559.51 243.16, 559.93 269.49, 559.52 292.12 M561.43 216.99 C560.21 241.24, 563.15 266.23, 561.07 288.11 M562.60 289.33 C501.98 294.19, 447.35 289.81, 336.76 291.13 M562.49 290.52 C501.03 288.37, 437.67 287.10, 336.60 288.46 M338.79 287.73 C337.36 266.67, 336.72 250.23, 336.65 215.16 M338.61 291.25 C335.99 274.56, 338.41 255.25, 338.57 215.97" fill="none" stroke="#202020" stroke-width="2" stroke-linecap="round" stroke-linejoin="round"/></svg>