<svg xmlns="http://www.w3.org/2000/svg" viewBox="0 0 960 420" width="960" height="420"><path d="M240.30 118.88 L720.69 117.17 L720.24 409.12 L241.87 410.08" fill="#faf7ef" stroke="none"/><path d="M239.30 114.35 C377.82 118.69, 513.13 120.26, 719.90 117.54 M239.50 116.66 C374.26 119.19, 509.80 119.14, 720.31 115.56 M719.91 113.31 C723.87 208.45, 723.53 300.21, 718.31 408.83 M719.73 114.73 C719.13 201.79, 718.44 287.50, 719.10 409.09 M720.69 410.49 C533.84 408.14, 345.83 408.80, 241.00 411.50 M720.61 409.95 C615.51 411.03, 509.32 411.07, 239.41 409.16 M241.39 410.19 C240.67 305.88, 242.16 205.06, 239.37 116.60 M238.91 408.73 C242.62 342.04, 243.19 271.90, 240.69 117.14" fill="none" stroke="#202020" stroke-width="2" stroke-linecap="round" stroke-linejoin="round"/><path d="M229.14 117.56 L479.79 79.40 L733.15 114.13" fill="#faf7ef" stroke="none"/><path d="M228.80 117.64 C287.40 110.78, 348.37 101.93, 477.83 78.38 M231.46 116.02 C280.06 110.40, 334.56 104.09, 480.47 81.86 M481.25 81.77 C576.10 99.93, 671.17 108.44, 730.65 118.00 M479.11 82.20 C572.60 94.74, 665.23 106.43, 730.21 117.49 M729.60 114.44 C625.72 116.09, 523.01 115.18, 229.65 117.31 M730.43 115.74 C535.12 115.74, 338.71 115.05, 229.92 116.35" fill="none" stroke="#202020" stroke-width="2" stroke-linecap="round" stroke-linejoin="round"/><path d="M387.56 189.40 L576.75 191.50 L573.58 333.93 L382.03 335.27" fill="#faf7ef" stroke="none"/><path d="M385.64 188.96 C435.43 194.04, 487.71 189.42, 573.68 191.55 M382.87 190.08 C456.83 188.27, 532.33 185.32, 574.80 189.47 M579.08 188.47 C578.08 225.16, 578.86 259.12, 578.28 337.40 M577.77 189.17 C572.74 221.14, 572.86 252.27, 576.33 331.69 M574.36 332.03 C537.78 330.63, 491.10 335.11, 386.45 332.37 M574.88 331.71 C533.37 330.76, 485.15 331.76, 385.78 333.92 M384.51 335.51 C381.74 284.40, 381.52 229.05, 381.11 190.82 M382.02 333.64 C384.42 299.70, 382.00 264.84, 384.56 188.80" fill="none" stroke="#202020" stroke-width="2" stroke-linecap="round" stroke-linejoin="round"/><path d="M361.78 309.50 L599.81 310.14 L601.45 410.18 L363.76 411.98" fill="#faf7ef" stroke="none"/><path d="M357.49 309.31 C420.92 308.91, 480.94 311.43, 602.70 309.71 M360.50 308.07 C447.61 307.57, 535.49 308.67, 601.37 307.21 M603.67 305.21 C602.02 345.36, 594.64 385.09, 597.20 411.92 M601.11 305.83 C598.49 342.14, 599.44 375.93, 600.99 410.39 M602.91 407.34 C532.96 414.60, 467.53 414.33, 360.41 410.39 M598.83 410.91 C541.94 410.22, 483.12 410.86, 360.38 408.84 M362.82 409.03 C360.80 379.39, 356.26 347.96, 356.17 310.39 M361.39 410.32 C358.82 376.10, 361.66 339.42, 359.66 307.15" fill="none" stroke="#202020" stroke-width="2" stroke-linecap="round" stroke-linejoin="round"/></svg>