<svg xmlns="http://www.w3.org/2000/svg" viewBox="0 0 900 320" width="900" height="320"><path d="M222.74 89.25 L675.06 83.49 L671.38 312.49 L223.57 311.10" fill="#faf7ef" stroke="none"/><path d="M223.31 85.74 C323.16 86.30, 417.92 83.70, 674.93 85.07 M225.81 85.95 C327.22 87.00, 428.78 88.15, 675.72 86.54 M671.81 87.01 C669.56 142.61, 673.91 203.38, 671.88 307.71 M676.69 84.32 C677.28 159.69, 677.84 236.53, 675.16 310.93 M674.96 310.28 C525.63 311.88, 377.24 313.83, 226.45 308.17 M674.74 310.37 C520.21 308.09, 366.67 307.05, 224.04 309.38 M227.12 306.84 C223.26 222.90, 223.93 134.84, 224.92 83.44 M226.34 310.18 C220.74 248.35, 222.88 189.48, 226.10 87.36" fill="none" stroke="#202020" stroke-width="2" stroke-linecap="round" stroke-linejoin="round"/><path d="M217.88 83.92 L447.83 50.73 L684.12 82.23" fill="#faf7ef" stroke="none"/><path d="M213.04 87.30 C296.83 69.26, 381.34 58.62, 449.29 51.09 M214.98 85.81 C288.41 76.88, 365.26 66.47, 448.99 51.59 M448.77 50.51 C503.71 55.32, 558.36 63.58, 685.04 82.74 M448.79 51.67 C532.31 62.21, 615.14 77.49, 683.98 87.60 M685.72 87.30 C567.74 86.24, 450.12 84.31, 214.71 85.70 M685.66 86.82 C555.88 83.93, 426.43 84.04, 214.29 86.11" fill="none" stroke="#202020" stroke-width="2" stroke-linecap="round" stroke-linejoin="round"/><path d="M361.22 140.73 L537.98 139.41 L537.76 277.97 L357.74 277.80" fill="#faf7ef" stroke="none"/><path d="M359.33 145.76 C422.01 140.51, 475.04 139.70, 542.73 142.01 M361.83 141.94 C427.59 143.22, 496.25 141.54, 538.83 140.32 M539.23 143.91 C538.07 176.68, 536.42 220.68, 543.37 274.85 M540.96 143.52 C543.83 190.63, 543.46 233.56, 539.45 276.23 M538.43 276.75 C475.43 274.52, 415.13 279.14, 362.80 277.98 M540.63 278.41 C478.63 273.20, 418.83 273.54, 360.41 278.14 M357.96 275.99 C356.20 245.81, 354.98 205.52, 357.02 141.26 M359.79 278.09 C358.77 243.39, 361.65 213.00, 358.20 141.99" fill="none" stroke="#202020" stroke-width="2" stroke-linecap="round" stroke-linejoin="round"/><path d="M341.43 231.94 L565.65 232.91 L559.08 310.77 L340.00 312.05" fill="#faf7ef" stroke="none"/><path d="M334.07 234.63 C400.86 230.25, 467.28 231.17, 561.04 233.31 M336.16 233.27 C426.75 231.32, 516.29 231.61, 562.97 231.82 M561.37 229.18 C566.12 246.92, 563.17 263.09, 561.53 313.74 M563.62 231.67 C560.30 260.54, 560.26 286.94, 564.44 308.88 M561.90 312.89 C502.49 309.64, 440.79 311.05, 335.74 312.00 M562.67 308.88 C486.16 311.91, 411.90 309.88, 335.96 308.94 M334.59 312.96 C339.14 280.08, 339.51 248.06, 337.56 233.76 M339.31 308.36 C338.31 293.44, 337.49 276.73, 337.84 230.91" fill="none" stroke="#202020" stroke-width="2" stroke-linecap="round" stroke-linejoin="round"/></svg>