<svg xmlns="http://www.w3.org/2000/svg" viewBox="0 0 900 320" width="900" height="320"><path d="M12.75 13.23 C259.17 13.65, 504.31 11.78, 885.44 12.88 M13.73 14.02 C189.88 17.67, 366.81 17.50, 885.94 13.97 M886.99 13.97 C892.98 120.24, 888.25 231.34, 888.22 306.67 M885.17 15.12 C881.66 82.71, 881.22 154.02, 885.32 305.40 M886.66 307.20 C619.51 308.84, 351.72 311.49, 14.89 307.37 M886.41 305.43 C546.92 307.14, 208.98 308.10, 13.52 306.39 M12.74 303.47 C12.47 194.00, 15.58 78.06, 14.29 11.45 M13.24 307.45 C8.70 200.16, 11.25 95.70, 12.93 15.41" fill="none" stroke="#202020" stroke-width="2" stroke-linecap="round" stroke-linejoin="round"/><path d="M29.37 31.23 C290.38 25.31, 550.53 26.22, 873.32 30.96 M27.66 32.33 C281.24 26.00, 533.66 24.76, 871.37 32.78" fill="none" stroke="#202020" stroke-width="2" stroke-linecap="round" stroke-linejoin="round"/><path d="M26.52 117.73 C303.52 111.81, 579.03 111.84, 872.03 117.24 M27.23 117.75 C293.35 114.43, 558.67 114.27, 872.61 116.71" fill="none" stroke="#202020" stroke-width="2" stroke-linecap="round" stroke-linejoin="round"/><path d="M28.51 202.06 C337.51 195.60, 645.88 197.47, 871.15 203.27 M27.32 202.71 C290.96 195.46, 552.76 196.55, 872.06 203.14" fill="none" stroke="#202020" stroke-width="2" stroke-linecap="round" stroke-linejoin="round"/><path d="M28.76 288.09 C213.74 290.76, 402.75 293.41, 870.83 288.31 M27.33 287.45 C364.12 284.18, 701.54 284.48, 871.77 287.86" fill="none" stroke="#202020" stroke-width="2" stroke-linecap="round" stroke-linejoin="round"/></svg>