<svg xmlns="http://www.w3.org/2000/svg" viewBox="0 0 900 300" width="900" height="300"><path d="M1.51 2.55 L896.38 2.37 L895.91 294.27 L8.01 291.79" fill="#faf7ef" stroke="none"/><path d="M4.77 5.53 C265.12 8.66, 524.38 9.04, 895.98 5.02 M5.42 4.30 C324.53 5.44, 644.16 6.02, 894.42 5.41 M893.48 2.00 C895.49 70.30, 893.77 136.30, 892.47 297.98 M894.17 5.57 C898.88 65.70, 897.26 125.20, 895.73 295.36 M894.21 294.89 C606.29 296.05, 314.48 295.87, 4.86 296.23 M894.29 294.96 C690.14 290.60, 486.71 291.29, 4.62 294.98 M5.11 293.19 C4.35 207.45, 5.86 117.03, 6.93 7.05 M4.62 294.16 C2.41 210.31, 2.42 126.54, 4.53 5.16" fill="none" stroke="#202020" stroke-width="2" stroke-linecap="round" stroke-linejoin="round"/><path d="M448.46 133.01 L459.58 153.58 L452.37 161.18 L438.34 150.36" fill="#faf7ef" stroke="none"/><path d="M447.00 136.92 C452.24 142.99, 454.40 143.67, 459.55 152.10 M448.45 135.74 C455.09 140.47, 458.17 142.41, 462.93 149.10 M465.47 153.64 C455.78 155.27, 459.73 156.98, 452.22 168.25 M460.08 150.52 C457.27 155.66, 454.25 159.91, 450.12 166.38 M449.01 164.02 C444.10 158.53, 442.92 160.06, 441.19 146.75 M448.50 163.89 C446.54 159.05, 439.81 155.43, 437.57 150.84 M435.29 148.10 C443.89 140.73, 446.77 135.47, 453.68 136.59 M439.47 151.39 C443.15 147.29, 444.11 141.31, 450.56 134.17" fill="none" stroke="#202020" stroke-width="2" stroke-linecap="round" stroke-linejoin="round"/></svg>