<svg xmlns="http://www.w3.org/2000/svg" viewBox="0 0 960 420" width="960" height="420"><path d="M2.78 7.22 L952.04 6.24 L956.92 418.63 L5.14 413.00" fill="#faf7ef" stroke="none"/><path d="M3.68 4.81 C196.25 4.64, 392.05 6.56, 953.44 6.18 M5.19 5.03 C194.36 -0.61, 384.87 -0.60, 955.19 5.47 M955.76 5.61 C954.70 93.39, 953.16 186.72, 954.91 413.86 M956.03 4.68 C956.47 148.06, 956.93 290.24, 954.90 416.03 M956.52 414.85 C672.59 421.85, 390.99 421.09, 5.67 413.71 M955.63 415.58 C603.05 417.03, 251.65 417.05, 4.48 414.94 M4.67 416.85 C2.72 305.41, 4.71 190.40, 5.85 2.99 M5.85 414.70 C2.79 259.30, 4.24 104.68, 5.91 4.40" fill="none" stroke="#202020" stroke-width="2" stroke-linecap="round" stroke-linejoin="round"/><path d="M480.05 193.48 L490.11 208.48 L482.10 221.82 L468.47 209.46" fill="#faf7ef" stroke="none"/><path d="M483.36 196.39 C485.40 197.74, 488.08 205.91, 494.22 206.22 M479.93 196.07 C483.27 199.70, 486.78 201.73, 493.06 209.16 M493.41 210.82 C486.30 213.54, 485.72 216.75, 476.61 226.93 M490.95 209.82 C488.97 214.78, 485.33 220.03, 479.32 224.01 M476.96 222.04 C476.30 224.35, 472.62 216.52, 468.53 208.18 M481.45 226.35 C476.14 221.24, 470.60 215.89, 466.14 210.26 M465.54 209.28 C469.96 208.07, 474.48 201.74, 478.06 193.67 M467.98 208.16 C470.67 205.50, 474.69 202.24, 480.15 194.42" fill="none" stroke="#202020" stroke-width="2" stroke-linecap="round" stroke-linejoin="round"/></svg>