<svg xmlns="http://www.w3.org/2000/svg" viewBox="0 0 900 320" width="900" height="320"><path d="M323.61 85.20 C323.61 85.20, 323.61 85.20, 323.61 85.20 M323.61 85.20 C323.61 85.20, 323.61 85.20, 323.61 85.20 M316.80 98.36 C325.71 90.63, 333.07 80.83, 363.24 46.48 M315.35 99.61 C326.81 86.47, 343.34 70.85, 360.86 50.30 M304.59 113.17 C322.87 101.44, 333.54 88.11, 369.89 43.78 M305.92 117.90 C329.60 92.25, 350.98 65.18, 369.79 44.12 M300.95 126.49 C325.91 100.59, 348.58 73.07, 384.10 39.84 M304.46 126.45 C323.88 101.77, 343.00 79.68, 381.71 37.53 M303.04 135.70 C322.02 113.23, 348.60 82.47, 386.46 31.76 M301.01 134.01 C334.52 97.55, 367.93 59.02, 388.78 32.83 M298.27 138.90 C334.28 104.15, 363.47 70.01, 399.10 29.68 M299.55 141.58 C333.74 107.61, 362.98 69.85, 397.27 28.19 M302.61 151.26 C337.00 105.39, 375.89 62.29, 408.12 31.48 M299.85 148.16 C337.54 108.47, 372.14 69.51, 406.81 29.45 M302.57 158.03 C341.97 107.93, 382.57 65.79, 413.52 25.45 M300.55 156.30 C327.97 121.96, 353.90 92.61, 410.50 24.32 M295.82 168.14 C340.25 121.58, 379.26 70.37, 419.90 23.02 M297.92 163.64 C337.97 122.91, 374.70 76.09, 417.74 25.65 M294.80 169.99 C338.58 126.67, 376.11 74.22, 424.31 19.43 M295.62 170.87 C342.98 120.68, 388.16 68.23, 427.54 24.25 M292.52 180.62 C333.32 128.22, 368.58 84.39, 430.56 19.80 M295.55 176.97 C336.81 132.94, 377.46 81.82, 431.91 19.32 M293.24 184.43 C349.79 118.26, 396.51 56.62, 438.47 20.18 M295.89 182.61 C334.80 141.24, 369.35 102.24, 439.42 21.30 M299.77 191.72 C348.14 136.21, 397.18 83.29, 444.89 20.92 M296.60 189.51 C343.06 132.85, 387.20 79.71, 444.78 19.57 M301.10 193.63 C341.73 143.13, 390.28 82.30, 447.00 22.95 M299.27 193.32 C333.37 145.64, 373.48 101.89, 448.27 20.67 M297.74 201.28 C335.11 156.22, 373.11 111.50, 457.21 17.67 M299.80 200.69 C330.94 159.15, 363.03 124.33, 453.26 20.18 M298.18 203.07 C359.45 136.98, 414.83 70.38, 459.43 21.20 M297.59 206.68 C332.12 167.50, 364.54 127.38, 459.55 20.69 M299.07 208.67 C341.31 162.41, 391.28 106.75, 467.52 20.06 M297.56 209.73 C339.89 169.14, 379.34 124.70, 465.84 19.90 M300.97 216.06 C338.69 167.84, 380.62 114.40, 471.87 18.78 M299.07 217.95 C355.31 158.65, 407.77 96.14, 469.16 21.28 M300.12 222.61 C345.85 173.10, 390.56 116.64, 472.58 19.37 M301.09 221.46 C345.51 173.18, 388.60 123.57, 475.01 22.83 M303.60 223.38 C358.65 162.91, 415.09 101.38, 482.40 23.08 M303.78 226.61 C373.22 143.70, 441.12 64.44, 478.21 22.75 M301.84 229.96 C344.78 179.52, 391.22 133.83, 482.54 25.21 M304.29 228.82 C343.14 182.36, 381.70 138.03, 483.56 22.98 M307.90 235.70 C354.76 184.95, 397.79 134.70, 490.68 23.74 M307.11 233.12 C347.44 189.25, 387.43 141.36, 490.19 22.80 M305.79 240.96 C363.18 172.84, 417.32 105.49, 493.10 22.87 M306.57 237.65 C342.96 193.27, 384.20 147.18, 492.11 26.13 M308.70 243.84 C360.20 179.55, 418.19 112.12, 494.26 25.84 M310.94 240.20 C353.96 192.03, 399.53 138.69, 496.10 26.42 M308.48 243.26 C358.88 189.99, 407.32 130.40, 500.69 26.36 M310.92 244.83 C370.88 180.11, 429.45 113.07, 500.78 27.79 M313.48 250.84 C365.58 193.51, 411.67 133.21, 503.26 27.89 M313.78 248.96 C385.89 164.24, 460.93 75.99, 505.45 30.14 M315.49 256.52 C376.56 178.89, 437.70 111.04, 507.26 29.21 M313.46 253.07 C373.91 184.04, 432.09 116.59, 506.75 32.31 M318.84 257.70 C387.85 177.74, 453.76 100.50, 511.23 31.87 M317.54 258.62 C381.81 185.28, 444.63 112.14, 512.45 33.83 M320.30 258.45 C383.08 180.86, 451.20 106.47, 514.84 36.12 M319.95 261.78 C383.69 191.12, 446.10 119.34, 514.00 36.67 M320.10 263.81 C365.89 213.33, 412.71 161.54, 516.58 37.56 M322.58 265.27 C367.85 208.84, 416.57 153.96, 518.79 38.60 M325.14 268.74 C375.97 209.34, 421.08 151.74, 524.28 38.51 M324.41 266.87 C389.15 192.58, 459.25 112.68, 523.32 39.96 M328.15 268.71 C404.48 180.19, 479.78 93.75, 524.05 42.38 M324.59 271.70 C406.11 181.45, 486.56 89.40, 526.40 40.48 M327.67 271.93 C373.73 224.08, 411.15 179.28, 529.11 41.56 M328.24 273.09 C404.14 190.74, 478.20 106.71, 530.32 43.76 M330.07 279.38 C380.70 219.42, 430.15 163.29, 532.98 47.38 M331.87 276.73 C410.95 189.51, 486.99 99.41, 532.32 45.07 M331.81 282.68 C403.77 197.51, 478.39 114.47, 538.42 46.67 M333.51 279.43 C394.88 210.31, 459.39 139.09, 537.26 47.40 M333.27 287.02 C396.31 213.65, 461.92 134.97, 541.96 51.01 M335.65 282.90 C412.90 199.58, 486.58 112.27, 540.10 48.88 M336.66 285.97 C397.55 222.66, 454.70 156.58, 544.92 51.21 M338.41 286.45 C385.32 229.60, 432.20 174.67, 542.10 52.00 M344.12 289.16 C380.04 242.74, 425.71 189.97, 544.61 56.25 M341.84 290.38 C416.96 202.50, 492.35 118.19, 547.55 54.25 M344.03 294.46 C388.86 243.05, 432.95 189.50, 548.30 60.00 M342.96 293.02 C409.83 215.17, 476.54 137.76, 549.43 56.36 M347.17 294.27 C387.28 250.45, 432.30 199.63, 550.91 59.42 M346.39 296.95 C421.61 207.79, 496.35 122.36, 552.95 60.52 M347.96 300.72 C425.51 212.82, 501.04 126.79, 556.00 61.52 M348.87 300.15 C412.61 222.56, 477.05 147.48, 554.00 61.36 M353.50 303.86 C420.23 230.68, 483.36 155.61, 560.06 65.50 M352.48 303.30 C409.05 236.71, 464.49 173.09, 557.56 64.92 M355.29 306.50 C430.43 210.38, 508.87 121.28, 562.63 67.70 M357.13 303.36 C408.28 243.86, 458.29 185.29, 560.60 66.71 M358.89 308.21 C421.94 243.88, 475.01 178.38, 566.94 70.39 M360.45 304.78 C429.14 230.24, 492.06 155.76, 564.71 70.28 M365.93 308.72 C412.77 249.37, 462.48 192.60, 564.82 71.17 M364.15 308.65 C418.50 244.15, 471.99 179.89, 566.71 73.45 M366.91 307.88 C405.76 261.45, 449.21 214.29, 570.83 73.69 M367.52 310.09 C417.35 253.97, 463.96 198.15, 568.52 76.70 M370.06 310.70 C438.03 237.92, 497.94 167.59, 569.70 81.57 M369.90 313.27 C449.81 221.11, 531.31 128.53, 571.33 80.48 M374.04 313.13 C429.54 256.45, 482.14 192.46, 571.69 84.18 M374.47 314.13 C448.54 230.72, 522.47 146.92, 573.86 82.14 M374.52 313.90 C444.34 245.89, 503.47 173.67, 575.06 86.62 M377.96 314.87 C419.93 266.83, 465.75 216.38, 576.87 85.24 M382.95 316.49 C459.03 230.92, 535.37 147.94, 581.15 92.43 M381.22 319.10 C448.08 239.33, 518.73 157.45, 577.78 90.29 M385.25 320.86 C456.08 231.74, 535.77 141.62, 578.71 96.15 M383.64 321.62 C450.86 240.81, 521.14 160.37, 580.10 94.73 M385.08 321.91 C442.03 259.97, 493.73 195.23, 582.19 99.07 M387.42 323.35 C425.87 277.25, 464.78 234.25, 584.77 97.87 M389.15 322.27 C446.67 264.49, 503.58 201.07, 586.63 98.92 M392.36 323.40 C429.13 278.45, 472.13 229.62, 584.99 100.65 M393.64 328.01 C473.97 239.93, 546.33 151.72, 587.08 102.71 M396.80 323.94 C452.36 256.59, 511.80 189.62, 588.06 102.99 M397.24 325.26 C456.17 269.62, 507.95 206.41, 591.13 109.61 M400.40 326.72 C449.07 269.75, 500.01 211.96, 591.58 106.85 M405.84 327.41 C476.81 244.63, 548.14 163.38, 595.38 112.82 M404.37 328.79 C455.92 272.58, 503.48 213.60, 594.02 109.64 M406.13 330.09 C457.75 275.01, 502.72 220.95, 591.74 114.03 M408.80 327.72 C479.77 249.14, 546.63 169.38, 593.54 114.21 M414.90 332.17 C464.55 274.60, 512.71 224.48, 593.81 118.73 M414.24 330.26 C463.70 269.43, 515.21 209.59, 595.48 120.00 M416.73 328.57 C455.11 285.52, 496.28 238.33, 594.95 122.50 M416.46 331.03 C471.09 266.78, 524.32 204.97, 596.38 124.94 M424.72 332.01 C462.25 291.74, 497.99 243.74, 600.23 131.08 M420.84 332.33 C477.44 264.85, 531.17 200.40, 597.49 128.99 M425.76 335.10 C474.27 273.23, 519.86 218.63, 600.97 133.18 M427.14 331.21 C473.32 278.71, 520.88 225.08, 599.08 133.63 M432.74 331.60 C483.10 266.52, 542.36 203.00, 601.38 135.69 M430.83 335.03 C476.45 278.13, 525.32 222.87, 599.72 139.19 M435.26 337.83 C480.25 283.33, 528.57 228.18, 600.01 145.33 M434.03 334.23 C492.16 273.28, 547.14 206.85, 600.42 142.65 M438.34 334.84 C497.70 274.25, 545.84 213.43, 602.15 147.00 M439.97 335.27 C483.54 284.81, 530.54 234.84, 603.53 147.44 M448.13 331.94 C503.64 270.33, 557.00 211.53, 603.61 149.79 M446.67 333.18 C489.24 286.62, 529.23 240.81, 605.28 152.10 M456.02 332.08 C493.30 286.17, 531.95 246.15, 604.50 155.83 M451.35 334.17 C486.11 292.53, 520.63 251.70, 606.84 155.78 M462.21 330.98 C499.37 291.78, 535.09 246.55, 607.91 159.19 M460.23 331.78 C490.77 293.99, 525.22 256.54, 607.23 163.83 M467.08 328.60 C498.39 290.67, 538.88 248.62, 603.52 165.77 M465.94 332.63 C502.07 290.00, 535.63 251.01, 605.52 167.70 M470.28 326.50 C521.03 274.93, 565.14 220.71, 604.90 175.30 M471.60 331.43 C514.00 282.20, 554.83 232.48, 606.53 175.76 M473.48 330.81 C524.13 278.98, 571.69 220.68, 601.95 185.84 M477.88 331.64 C526.04 275.47, 576.06 218.88, 603.56 183.00 M482.91 324.82 C511.00 299.30, 533.86 274.07, 600.53 185.94 M482.45 326.88 C525.43 278.83, 567.94 230.83, 604.26 190.10 M487.37 326.81 C524.16 290.30, 553.05 254.18, 607.86 197.37 M490.36 327.25 C534.91 276.16, 579.74 224.80, 606.00 194.79 M500.36 321.33 C540.36 275.96, 576.72 233.24, 605.93 201.01 M497.07 323.99 C523.45 294.91, 543.83 268.44, 603.95 203.73 M507.60 316.68 C535.03 291.23, 563.81 250.79, 600.46 209.26 M507.16 319.35 C531.90 295.79, 556.99 268.35, 598.49 212.45 M512.05 315.05 C530.36 299.09, 552.53 276.54, 597.22 225.03 M513.38 319.73 C540.26 285.60, 563.21 255.21, 598.09 223.25 M518.46 313.93 C549.13 285.90, 580.25 253.28, 591.04 228.30 M521.01 313.46 C549.17 282.63, 575.52 253.48, 593.85 232.30 M526.78 311.31 C550.97 283.30, 575.81 262.58, 593.94 241.83 M531.50 309.14 C554.76 283.82, 575.46 258.06, 593.34 239.35 M544.99 305.41 C553.05 287.89, 566.35 279.59, 587.90 253.50 M544.90 300.41 C561.85 283.68, 578.57 262.81, 587.33 250.84 M558.83 293.57 C558.24 284.91, 569.78 274.47, 574.60 273.90 M554.19 294.84 C561.00 285.88, 567.92 281.47, 574.57 271.97" fill="#faf7ef" stroke="none"/><path d="M439.98 18.65 C454.40 14.91, 470.75 17.57, 485.61 21.49 C500.48 25.41, 515.92 34.15, 529.18 42.17 C542.45 50.19, 554.56 58.28, 565.19 69.61 C575.82 80.93, 586.23 95.79, 592.97 110.13 C599.72 124.48, 603.97 140.51, 605.64 155.65 C607.32 170.80, 605.66 186.01, 603.04 200.98 C600.42 215.96, 596.41 231.18, 589.92 245.52 C583.43 259.87, 574.65 275.95, 564.09 287.06 C553.52 298.18, 540.52 305.23, 526.55 312.22 C512.59 319.21, 495.31 325.31, 480.29 328.99 C465.28 332.68, 451.58 335.25, 436.45 334.33 C421.32 333.41, 404.19 329.34, 389.52 323.49 C374.84 317.63, 360.17 309.46, 348.40 299.22 C336.64 288.98, 327.12 275.15, 318.94 262.05 C310.76 248.95, 303.31 235.24, 299.35 220.63 C295.39 206.01, 294.72 190.30, 295.19 174.39 C295.67 158.48, 297.47 140.00, 302.19 125.15 C306.92 110.30, 315.04 97.53, 323.53 85.29 C332.01 73.05, 340.98 61.05, 353.11 51.71 C365.24 42.37, 372.54 33.79, 396.30 29.23 C420.06 24.68, 470.81 20.10, 495.65 24.36 C520.49 28.62, 545.93 51.88, 545.35 54.82 M453.24 16.21 C467.83 13.73, 487.02 18.74, 501.51 23.58 C516.01 28.43, 527.62 35.36, 540.21 45.29 C552.80 55.21, 568.00 70.30, 577.05 83.10 C586.10 95.91, 589.16 107.80, 594.51 122.13 C599.87 136.47, 608.40 153.83, 609.20 169.12 C610.00 184.40, 603.43 199.49, 599.31 213.84 C595.20 228.18, 591.86 241.36, 584.51 255.20 C577.17 269.04, 566.89 286.18, 555.24 296.87 C543.60 307.56, 529.17 313.52, 514.63 319.34 C500.10 325.16, 483.21 330.28, 468.04 331.79 C452.87 333.31, 438.31 331.42, 423.61 328.42 C408.92 325.42, 393.23 320.49, 379.86 313.81 C366.49 307.14, 354.61 298.29, 343.39 288.35 C332.16 278.42, 320.39 267.82, 312.51 254.20 C304.63 240.59, 299.39 222.33, 296.11 206.66 C292.82 190.99, 291.58 175.46, 292.79 160.19 C294.00 144.92, 296.98 129.60, 303.36 115.05 C309.74 100.49, 320.48 85.07, 331.05 72.85 C341.63 60.63, 353.81 49.98, 366.84 41.73 C379.86 33.49, 395.15 27.21, 409.22 23.40 C423.28 19.60, 443.59 19.37, 451.22 18.91 C458.85 18.46, 454.27 18.53, 455.02 20.66" fill="none" stroke="#202020" stroke-width="2" stroke-linecap="round" stroke-linejoin="round"/><path d="M260.10 48.55 C260.10 48.55, 260.10 48.55, 260.10 48.55 M260.10 48.55 C260.10 48.55, 260.10 48.55, 260.10 48.55 M254.53 66.09 C261.06 53.81, 273.37 35.98, 288.61 23.19 M252.18 64.87 C257.36 53.93, 269.32 45.08, 284.24 28.01 M239.67 81.10 C259.48 56.07, 288.57 27.81, 300.97 11.59 M241.59 82.30 C263.62 60.14, 283.72 34.50, 305.59 10.80 M229.81 97.00 C257.91 68.35, 278.01 43.30, 315.31 7.05 M234.36 98.11 C264.54 63.09, 292.27 27.84, 312.11 7.59 M225.73 107.55 C255.78 79.55, 277.30 49.13, 323.05 0.34 M226.93 108.58 C254.60 77.57, 284.36 45.86, 322.72 -0.26 M222.98 118.50 C248.68 92.52, 272.92 57.17, 333.15 0.36 M223.53 120.33 C260.22 76.12, 300.06 31.93, 333.00 -4.44 M223.19 133.49 C258.77 78.90, 303.40 31.71, 344.93 -4.31 M221.05 133.08 C256.04 90.21, 290.37 51.43, 342.49 -6.63 M217.28 140.05 C270.34 78.45, 322.86 16.90, 347.17 -11.01 M216.65 140.67 C260.37 86.00, 309.50 33.05, 351.26 -13.74 M217.52 147.60 C240.29 117.17, 276.68 78.09, 361.68 -16.39 M213.98 151.10 C245.20 113.10, 275.31 74.69, 357.39 -16.13 M216.09 154.91 C243.96 123.00, 276.35 87.25, 367.41 -20.45 M215.43 155.39 C274.20 89.04, 328.00 24.98, 364.33 -18.44 M212.37 159.17 C260.01 116.40, 302.41 66.73, 375.02 -20.43 M213.80 161.00 C272.37 90.15, 334.27 20.75, 372.44 -19.04 M215.97 170.16 C252.36 115.24, 297.92 71.70, 377.29 -24.35 M216.16 167.20 C264.97 106.66, 320.29 44.44, 378.47 -22.45 M214.67 171.28 C283.13 92.88, 348.40 15.43, 385.51 -24.96 M213.45 173.57 C257.59 126.37, 296.72 75.84, 386.05 -22.67 M214.73 179.07 C271.71 112.21, 326.83 44.51, 395.01 -22.40 M216.09 180.47 C279.46 107.81, 344.22 31.46, 393.83 -26.56 M215.98 184.78 C263.27 130.93, 314.47 75.58, 398.84 -26.69 M215.30 186.93 C275.29 115.27, 336.26 43.10, 399.49 -26.36 M214.28 193.42 C276.66 120.54, 332.72 48.54, 407.49 -26.16 M215.82 193.23 C280.38 120.47, 343.45 47.63, 408.12 -29.74 M216.48 197.31 C271.50 135.33, 323.43 74.21, 414.45 -28.64 M216.05 195.58 C292.41 112.37, 367.55 24.29, 411.45 -28.50 M215.09 202.92 C271.76 135.87, 332.30 72.51, 418.11 -29.55 M216.35 202.05 C291.79 116.87, 366.88 30.34, 419.76 -30.44 M217.79 205.46 C289.20 129.47, 359.18 47.91, 422.48 -27.72 M217.56 205.63 C271.80 145.61, 327.79 84.84, 422.93 -28.95 M218.07 213.19 C268.19 147.56, 323.02 89.47, 428.97 -31.27 M220.32 212.21 C280.28 141.39, 339.09 69.87, 429.61 -30.74 M221.25 219.03 C264.92 159.90, 315.21 103.26, 433.04 -32.60 M219.79 216.26 C262.14 168.49, 307.27 116.59, 435.23 -31.04 M218.92 222.03 C302.29 126.61, 382.22 32.30, 436.96 -28.69 M222.12 221.92 C289.42 149.32, 354.24 73.15, 440.57 -30.60 M220.01 223.76 C296.76 138.05, 370.22 52.61, 443.89 -29.48 M222.41 225.47 C299.01 134.39, 379.37 42.05, 445.40 -31.06 M221.56 230.23 C272.83 173.69, 316.55 120.95, 453.30 -29.16 M223.63 231.85 C305.58 133.15, 390.72 33.34, 452.01 -29.54 M226.00 236.91 C300.20 152.10, 370.32 67.35, 453.91 -32.65 M223.34 235.29 C299.58 145.20, 377.46 57.62, 456.35 -30.95 M224.25 240.25 C302.48 145.00, 383.57 55.59, 459.14 -30.77 M226.40 240.52 C313.72 138.85, 401.88 37.02, 462.16 -30.01 M224.86 246.88 C278.49 184.01, 331.05 122.35, 468.46 -28.85 M226.17 245.72 C294.12 163.12, 364.00 83.85, 465.86 -29.99 M228.51 250.15 C293.91 168.07, 362.97 91.18, 471.32 -30.12 M228.14 250.90 C293.77 175.23, 357.72 100.58, 471.50 -28.87 M228.15 255.69 C319.79 145.33, 414.47 40.14, 475.28 -31.50 M230.97 255.26 C315.18 155.57, 397.70 62.04, 476.68 -28.46 M231.33 256.77 C316.06 156.05, 400.94 56.68, 481.56 -30.35 M233.38 257.95 C287.99 194.93, 343.00 132.21, 479.70 -27.84 M236.18 261.90 C284.07 201.02, 334.63 142.40, 483.08 -28.54 M233.26 261.53 C297.27 190.29, 361.64 118.06, 485.88 -26.48 M233.96 262.73 C290.10 200.15, 341.81 137.43, 491.08 -25.86 M237.22 264.50 C322.11 172.17, 402.86 77.56, 489.02 -26.18 M237.07 269.36 C343.97 151.77, 443.68 36.80, 496.04 -24.80 M237.89 267.34 C295.79 203.11, 351.01 140.31, 494.48 -26.91 M240.04 274.00 C340.77 158.34, 442.49 40.02, 497.33 -25.92 M241.83 271.33 C308.39 196.64, 375.16 120.23, 500.49 -24.65 M241.84 274.85 C322.73 187.09, 397.15 100.29, 505.69 -24.66 M243.95 275.18 C302.67 213.01, 357.49 149.65, 504.42 -25.16 M246.36 276.54 C324.18 191.29, 396.20 105.74, 509.08 -24.90 M244.93 278.05 C304.58 209.22, 362.65 141.49, 508.54 -24.98 M245.64 283.26 C354.59 156.87, 460.42 36.87, 512.41 -21.08 M247.11 281.52 C347.06 166.76, 446.77 52.18, 514.01 -22.01 M250.16 286.90 C307.71 223.47, 365.18 153.21, 517.71 -23.23 M250.72 285.76 C342.63 182.22, 436.19 76.07, 518.67 -21.99 M250.04 288.33 C351.51 171.33, 449.34 56.21, 521.07 -22.14 M251.06 289.13 C325.74 203.52, 398.50 120.98, 521.56 -22.27 M256.38 291.45 C351.70 181.00, 449.04 65.89, 526.55 -21.50 M254.73 293.42 C362.56 174.00, 467.73 51.85, 526.42 -21.33 M256.68 296.18 C341.82 199.50, 424.91 101.95, 532.69 -18.04 M257.00 297.04 C315.64 229.91, 374.45 161.85, 531.94 -19.20 M259.89 299.57 C368.30 172.31, 477.00 47.67, 535.63 -17.16 M259.16 299.86 C331.81 221.16, 402.03 140.89, 534.68 -19.03 M261.69 301.37 C369.60 177.06, 478.74 54.28, 539.13 -15.75 M262.82 302.75 C346.03 200.42, 432.58 101.39, 539.42 -16.24 M264.41 305.38 C363.76 196.83, 457.96 85.28, 541.52 -16.50 M265.34 304.33 C353.80 200.51, 444.28 97.46, 542.91 -14.37 M268.85 305.76 C331.39 240.32, 388.36 170.31, 546.99 -12.51 M267.53 306.43 C350.35 214.76, 431.89 120.31, 546.72 -13.14 M272.26 312.36 C362.70 202.11, 454.69 91.72, 550.63 -13.21 M269.78 310.75 C330.27 243.52, 390.32 176.71, 550.26 -11.47 M274.18 313.87 C331.98 242.95, 392.70 172.88, 554.61 -10.71 M273.25 313.24 C333.78 240.93, 395.22 170.92, 555.00 -10.47 M274.98 316.76 C341.27 241.09, 406.65 164.54, 559.81 -7.03 M277.61 316.10 C352.56 232.13, 428.39 146.89, 558.62 -8.07 M278.52 320.29 C387.13 192.74, 499.02 63.26, 560.85 -7.02 M279.10 318.18 C351.39 235.26, 423.16 153.51, 561.68 -6.86 M283.70 321.83 C381.52 214.48, 473.45 108.20, 566.32 -3.39 M282.85 322.03 C357.39 233.83, 431.10 147.26, 565.24 -4.11 M286.28 326.12 C376.58 218.13, 468.43 113.33, 571.24 -3.71 M285.68 324.43 C391.30 200.62, 498.05 79.68, 569.71 -3.97 M289.23 326.97 C379.03 222.88, 469.34 116.44, 573.19 -2.50 M287.19 327.39 C353.72 257.05, 415.52 182.95, 574.86 -0.89 M292.73 330.79 C361.24 247.55, 437.31 159.96, 577.98 -0.70 M291.70 330.00 C362.80 248.67, 430.76 169.02, 576.87 -0.21 M294.19 332.41 C381.41 226.42, 473.72 120.31, 581.64 -0.71 M294.90 333.49 C395.28 210.78, 500.22 91.97, 583.00 0.70 M297.69 335.51 C355.83 269.50, 414.46 200.82, 583.31 4.76 M297.82 334.75 C375.77 247.12, 451.22 159.75, 585.74 3.41 M301.50 338.69 C357.30 266.83, 421.55 194.71, 586.42 4.92 M300.09 336.97 C384.91 242.27, 470.65 145.16, 588.90 5.78 M302.84 338.14 C413.98 210.96, 530.04 80.28, 592.34 10.77 M303.53 338.99 C376.88 257.27, 448.63 173.51, 592.05 9.82 M308.98 343.06 C377.19 256.80, 450.61 175.10, 594.14 10.37 M308.51 341.50 C400.44 232.14, 495.79 122.77, 595.52 10.60 M311.03 344.48 C389.48 248.75, 467.13 157.91, 595.98 12.17 M310.31 343.75 C410.50 231.55, 508.46 118.51, 598.49 14.02 M313.03 346.40 C419.92 226.63, 524.57 105.82, 600.95 16.10 M313.58 345.82 C395.67 256.86, 476.05 164.20, 599.97 16.11 M316.24 348.67 C422.10 235.57, 523.62 119.14, 603.48 17.58 M317.12 346.97 C398.92 258.89, 474.97 168.43, 603.11 19.49 M321.25 347.90 C417.86 231.21, 517.04 115.32, 606.25 22.02 M321.45 349.32 C416.79 234.47, 516.06 121.55, 606.15 21.88 M326.64 350.69 C420.56 245.12, 514.03 137.89, 610.33 22.54 M325.49 352.18 C408.57 254.97, 490.02 161.84, 609.91 24.19 M329.38 351.86 C394.00 276.12, 459.23 199.51, 615.25 25.08 M329.90 353.40 C396.17 278.17, 460.78 202.88, 612.64 26.67 M331.20 357.29 C401.93 275.04, 471.77 197.65, 615.82 28.70 M333.30 356.11 C407.56 266.69, 483.55 178.46, 616.11 28.20 M333.88 359.56 C416.85 257.18, 501.16 161.98, 621.13 29.73 M334.69 357.21 C434.69 245.69, 529.87 136.81, 618.76 30.23 M337.55 359.84 C429.84 259.10, 522.26 151.63, 622.14 31.19 M340.05 360.13 C435.46 250.62, 531.45 139.11, 623.16 32.97 M343.31 362.69 C447.03 239.05, 551.52 119.90, 626.07 36.39 M343.76 362.36 C426.29 266.40, 508.89 171.91, 625.52 36.37 M347.89 361.59 C449.29 245.01, 556.15 127.53, 630.61 37.22 M347.14 362.48 C436.15 259.59, 522.22 160.32, 628.20 39.81 M350.91 363.14 C448.96 249.64, 550.38 135.80, 630.24 44.03 M350.45 365.13 C463.63 236.81, 574.75 110.31, 632.10 41.53 M356.58 367.46 C421.64 287.77, 486.33 213.43, 631.74 45.71 M356.01 365.72 C423.02 288.73, 487.85 212.58, 633.40 44.80 M359.48 368.34 C439.84 271.65, 519.36 180.10, 635.50 48.99 M358.79 367.38 C437.35 272.54, 515.27 181.75, 636.53 49.40 M365.39 367.22 C441.41 284.57, 513.05 203.40, 637.81 49.86 M364.90 367.93 C450.78 270.79, 534.89 176.10, 637.98 51.05 M368.60 370.06 C475.22 249.73, 575.56 131.44, 642.25 54.90 M368.05 369.39 C444.08 283.52, 519.66 199.11, 642.25 54.15 M373.78 368.35 C466.62 263.96, 562.33 156.59, 645.40 58.65 M371.71 371.21 C446.18 286.37, 521.26 199.49, 642.72 59.19 M374.85 371.23 C466.63 268.14, 556.91 160.65, 644.04 63.89 M376.17 370.97 C456.04 277.63, 537.91 183.64, 645.46 61.50 M382.96 371.00 C463.94 286.00, 542.68 193.55, 648.86 65.43 M380.70 373.24 C486.53 252.59, 591.91 133.50, 647.25 64.66 M385.99 373.11 C490.80 249.73, 594.91 127.72, 650.74 69.02 M384.92 375.11 C451.63 298.58, 516.17 224.13, 650.87 67.75 M388.20 375.46 C480.70 271.21, 569.23 166.77, 654.44 70.82 M389.86 376.54 C452.92 296.70, 520.76 219.28, 653.69 70.68 M391.83 375.58 C479.92 273.75, 570.79 171.00, 654.97 75.26 M394.35 376.77 C453.93 312.82, 509.44 248.98, 656.60 74.33 M395.89 376.49 C471.85 296.94, 540.00 213.88, 656.38 76.67 M398.38 377.14 C486.55 270.64, 577.00 167.47, 657.34 78.32 M402.28 380.20 C467.15 306.88, 524.43 240.69, 663.45 81.07 M402.97 378.28 C471.26 302.86, 540.15 221.64, 660.44 81.61 M405.73 377.16 C461.68 312.85, 521.91 243.45, 664.91 83.41 M407.03 378.42 C462.23 319.57, 517.82 254.91, 662.22 85.56 M413.19 378.02 C505.33 277.49, 591.57 171.53, 663.65 89.78 M413.38 378.59 C472.38 314.38, 530.00 248.13, 663.10 89.24 M419.04 378.96 C483.32 302.68, 555.50 223.32, 666.04 91.56 M416.95 379.63 C511.89 269.45, 609.80 157.81, 666.66 93.90 M421.05 381.10 C481.29 314.04, 538.98 246.37, 665.66 97.39 M421.03 379.77 C489.06 298.40, 558.81 218.15, 668.74 98.44 M429.51 380.87 C476.31 323.60, 524.06 269.19, 671.28 102.80 M427.76 380.86 C522.19 269.70, 618.29 159.10, 669.41 101.14 M433.27 379.92 C511.05 289.22, 589.05 199.31, 671.26 103.96 M431.82 380.30 C523.39 277.63, 613.78 173.54, 670.81 106.86 M438.17 381.61 C515.70 295.40, 586.75 209.13, 674.31 108.69 M437.65 382.17 C520.82 288.80, 599.82 196.13, 672.34 109.68 M442.12 380.28 C518.09 294.54, 601.10 198.13, 676.71 116.64 M442.45 383.55 C536.81 276.61, 629.17 171.26, 674.45 114.89 M444.95 382.21 C494.62 327.16, 542.45 268.63, 674.79 117.54 M446.97 383.72 C507.08 306.99, 571.99 232.57, 675.96 118.34 M453.69 383.24 C521.44 307.37, 589.84 226.74, 675.29 120.69 M450.28 382.29 C525.71 297.17, 599.51 211.51, 678.14 121.94 M457.56 382.27 C504.10 327.63, 553.67 271.54, 681.52 124.76 M456.24 383.71 C502.56 328.00, 553.29 273.38, 679.44 127.58 M461.44 381.75 C534.72 299.65, 608.07 216.11, 683.24 128.78 M461.90 382.15 C513.00 324.51, 565.63 266.39, 682.02 131.51 M465.46 384.93 C550.64 290.89, 633.34 190.82, 684.83 136.47 M467.70 382.85 C519.41 325.12, 571.75 264.89, 681.99 136.41 M476.23 380.91 C520.14 328.10, 566.84 275.69, 685.25 143.19 M474.25 381.89 C547.73 295.53, 622.57 211.20, 683.63 140.85 M478.42 382.43 C542.67 311.02, 599.58 243.79, 685.08 148.69 M481.49 381.12 C542.79 307.69, 604.94 237.69, 683.62 147.73 M486.10 378.18 C556.76 300.96, 627.14 216.11, 685.49 151.99 M486.13 379.13 C537.22 320.07, 586.87 265.16, 685.88 151.47 M494.20 378.12 C532.28 327.30, 573.85 282.76, 685.30 158.89 M491.94 378.62 C557.34 305.54, 623.68 231.68, 684.29 156.45 M497.37 376.98 C549.06 320.29, 597.02 267.41, 683.38 163.48 M498.63 378.74 C563.86 299.10, 632.83 220.72, 686.11 162.64 M504.49 379.35 C546.29 324.75, 588.89 276.63, 688.90 168.66 M506.37 375.26 C559.17 313.83, 613.81 247.95, 686.49 165.47 M508.68 374.97 C577.99 299.15, 646.37 222.89, 688.24 175.13 M510.05 376.58 C552.79 326.27, 601.36 272.69, 688.26 172.12 M519.92 377.40 C580.91 306.33, 637.43 231.07, 690.76 179.60 M517.30 374.69 C584.39 298.82, 648.62 226.46, 689.62 177.43 M521.06 372.59 C584.49 311.46, 637.34 244.66, 684.65 184.15 M524.88 371.70 C589.63 297.65, 653.58 224.78, 688.12 182.91 M533.32 370.53 C570.99 324.91, 609.78 281.11, 688.93 193.47 M530.03 370.64 C570.68 327.71, 613.14 279.22, 687.26 193.31 M539.27 369.62 C577.49 322.50, 615.77 280.63, 682.24 199.83 M538.26 369.00 C591.11 311.89, 640.98 251.14, 683.70 201.60 M547.23 367.28 C575.55 331.88, 608.05 293.73, 682.91 207.19 M546.61 365.28 C598.35 304.21, 649.60 244.85, 684.49 207.65 M550.04 362.73 C589.33 321.88, 622.48 285.19, 681.14 212.14 M553.79 364.67 C585.62 318.68, 625.31 277.75, 680.52 214.03 M562.83 363.70 C595.43 316.73, 632.21 282.19, 679.65 223.46 M560.39 361.77 C604.94 305.43, 654.07 252.05, 681.05 222.83 M571.59 359.43 C598.42 323.79, 625.39 297.12, 678.07 229.50 M566.48 358.71 C594.76 335.50, 618.81 306.28, 680.83 232.43 M573.61 353.09 C606.01 319.43, 638.79 278.08, 674.09 248.71 M576.53 355.78 C599.07 330.25, 623.90 303.52, 672.65 245.06 M594.76 339.63 C614.73 310.20, 639.20 286.48, 668.57 256.48 M591.98 343.51 C614.85 317.29, 636.53 291.81, 663.29 258.21 M610.78 326.97 C622.05 313.74, 635.23 297.83, 659.46 273.51 M612.65 326.34 C625.06 308.97, 642.18 290.90, 657.28 274.39" fill="#faf7ef" stroke="none"/><path d="M468.78 -30.99 C487.89 -33.16, 510.20 -26.15, 529.12 -20.73 C548.03 -15.32, 566.32 -7.75, 582.28 1.51 C598.23 10.76, 611.74 21.55, 624.85 34.79 C637.96 48.04, 651.61 65.24, 660.93 80.97 C670.25 96.69, 676.23 112.95, 680.79 129.14 C685.35 145.33, 688.67 161.20, 688.29 178.10 C687.91 195.01, 684.16 213.79, 678.54 230.56 C672.91 247.34, 664.47 263.76, 654.56 278.76 C644.65 293.75, 632.36 307.68, 619.09 320.54 C605.83 333.40, 591.60 346.98, 574.96 355.93 C558.33 364.89, 538.20 369.75, 519.28 374.27 C500.35 378.80, 481.04 382.39, 461.40 383.09 C441.76 383.79, 421.12 382.01, 401.45 378.47 C381.77 374.92, 360.70 368.91, 343.37 361.83 C326.04 354.75, 311.87 346.78, 297.46 335.99 C283.05 325.21, 268.67 311.39, 256.90 297.10 C245.12 282.80, 233.76 266.96, 226.81 250.24 C219.86 233.51, 217.33 213.91, 215.19 196.72 C213.05 179.54, 210.96 163.89, 213.95 147.14 C216.95 130.39, 225.41 112.73, 233.14 96.25 C240.88 79.76, 248.94 62.43, 260.36 48.25 C271.77 34.06, 285.95 21.65, 301.64 11.13 C317.34 0.60, 336.49 -8.01, 354.53 -14.88 C372.57 -21.75, 388.80 -27.16, 409.87 -30.09 C430.94 -33.02, 467.71 -33.03, 480.94 -32.46 C494.18 -31.90, 490.05 -30.22, 489.29 -26.70 M515.83 -24.88 C535.25 -22.73, 556.01 -10.44, 573.06 -1.64 C590.10 7.15, 604.15 15.43, 618.10 27.88 C632.05 40.33, 647.21 57.51, 656.77 73.05 C666.33 88.59, 670.24 104.40, 675.48 121.12 C680.73 137.85, 687.12 156.69, 688.26 173.39 C689.39 190.10, 686.60 204.90, 682.30 221.36 C678.00 237.83, 672.01 256.79, 662.46 272.19 C652.90 287.59, 638.91 300.33, 624.97 313.77 C611.02 327.20, 594.51 343.08, 578.78 352.79 C563.05 362.49, 548.57 366.65, 530.60 371.99 C512.62 377.32, 490.95 382.95, 470.91 384.80 C450.88 386.64, 429.52 386.31, 410.39 383.06 C391.27 379.82, 374.16 372.21, 356.16 365.32 C338.17 358.43, 318.15 351.92, 302.43 341.73 C286.71 331.54, 274.02 318.06, 261.84 304.20 C249.67 290.35, 237.03 274.62, 229.37 258.59 C221.71 242.55, 218.50 225.43, 215.88 207.99 C213.26 190.55, 211.92 171.06, 213.65 153.96 C215.38 136.85, 218.84 121.64, 226.26 105.36 C233.68 89.09, 246.19 71.14, 258.19 56.29 C270.19 41.44, 284.00 27.26, 298.26 16.26 C312.52 5.26, 326.47 -2.56, 343.76 -9.72 C361.06 -16.88, 382.37 -22.73, 402.05 -26.68 C421.72 -30.64, 442.54 -34.14, 461.81 -33.44 C481.07 -32.75, 508.45 -25.06, 517.62 -22.51 C526.79 -19.95, 518.21 -21.72, 516.83 -18.11" fill="none" stroke="#202020" stroke-width="2" stroke-linecap="round" stroke-linejoin="round"/><path d="M389.57 75.93 C399.82 67.61, 417.03 65.30, 430.71 62.98 C444.39 60.67, 458.41 59.65, 471.64 62.03 C484.87 64.41, 498.52 69.61, 510.08 77.28 C521.64 84.96, 532.97 96.91, 540.99 108.09 C549.01 119.27, 554.28 130.92, 558.18 144.35 C562.09 157.78, 565.58 174.86, 564.43 188.66 C563.29 202.45, 557.92 214.66, 551.33 227.12 C544.74 239.59, 534.97 253.78, 524.91 263.46 C514.85 273.14, 503.53 280.65, 490.96 285.20 C478.40 289.75, 463.14 290.89, 449.53 290.77 C435.92 290.66, 422.15 289.81, 409.28 284.52 C396.41 279.24, 382.85 268.42, 372.32 259.08 C361.79 249.73, 352.42 240.34, 346.11 228.46 C339.80 216.58, 335.56 201.62, 334.46 187.78 C333.35 173.94, 335.64 159.16, 339.48 145.42 C343.33 131.68, 340.33 119.34, 357.52 105.37 C374.72 91.39, 419.23 66.73, 442.67 61.59 C466.10 56.45, 498.21 72.54, 498.14 74.53 M412.87 67.56 C424.80 62.02, 437.49 62.39, 450.64 62.31 C463.79 62.23, 478.71 62.30, 491.77 67.06 C504.83 71.82, 519.05 80.86, 529.01 90.86 C538.97 100.87, 545.63 114.46, 551.52 127.08 C557.41 139.70, 562.56 152.88, 564.33 166.59 C566.11 180.30, 566.24 196.33, 562.18 209.33 C558.11 222.34, 549.34 233.97, 539.94 244.63 C530.53 255.29, 517.25 265.66, 505.75 273.30 C494.24 280.93, 484.13 288.25, 470.90 290.44 C457.66 292.62, 440.15 289.74, 426.33 286.40 C412.50 283.05, 398.99 277.50, 387.97 270.38 C376.94 263.26, 367.76 254.51, 360.18 243.67 C352.60 232.82, 346.09 219.09, 342.49 205.32 C338.89 191.55, 337.38 174.48, 338.60 161.04 C339.82 147.60, 343.78 137.04, 349.81 124.70 C355.84 112.35, 364.32 96.52, 374.78 86.97 C385.24 77.42, 406.08 69.87, 412.56 67.39 C419.05 64.91, 413.60 69.84, 413.69 72.09" fill="#faf7ef" stroke="none"/><path d="M531.56 94.32 C541.99 102.57, 547.42 116.86, 552.69 129.69 C557.97 142.52, 562.51 157.54, 563.22 171.30 C563.94 185.06, 561.20 199.40, 556.99 212.27 C552.77 225.15, 546.77 237.91, 537.95 248.56 C529.14 259.20, 516.22 269.46, 504.10 276.17 C491.98 282.87, 478.83 286.61, 465.24 288.79 C451.65 290.97, 436.07 292.47, 422.54 289.25 C409.01 286.03, 395.23 277.85, 384.03 269.49 C372.84 261.12, 362.83 250.30, 355.35 239.04 C347.87 227.78, 341.88 215.23, 339.16 201.91 C336.45 188.59, 336.89 172.56, 339.05 159.12 C341.20 145.68, 345.53 133.39, 352.11 121.25 C358.69 109.10, 367.95 95.26, 378.55 86.27 C389.15 77.28, 402.53 71.87, 415.70 67.31 C428.87 62.75, 444.16 58.47, 457.57 58.90 C470.98 59.33, 480.20 58.75, 496.16 69.88 C512.12 81.01, 542.44 109.90, 553.34 125.70 C564.23 141.50, 563.01 163.64, 561.51 164.70 M381.48 81.31 C391.25 72.31, 409.58 69.66, 422.83 66.47 C436.09 63.27, 447.74 60.52, 461.01 62.13 C474.28 63.75, 489.89 69.51, 502.44 76.17 C515.00 82.84, 526.69 91.99, 536.33 102.13 C545.97 112.27, 555.69 123.69, 560.28 137.01 C564.88 150.33, 564.91 167.79, 563.88 182.07 C562.85 196.34, 558.97 210.35, 554.11 222.64 C549.24 234.94, 544.23 246.21, 534.71 255.82 C525.18 265.43, 510.22 274.13, 496.95 280.30 C483.68 286.46, 468.90 291.57, 455.11 292.80 C441.32 294.04, 427.32 292.17, 414.23 287.70 C401.13 283.23, 386.63 275.04, 376.54 265.99 C366.44 256.94, 360.52 245.19, 353.66 233.39 C346.80 221.58, 338.12 208.51, 335.35 195.15 C332.59 181.79, 333.39 167.40, 337.07 153.22 C340.76 139.04, 349.41 121.85, 357.48 110.07 C365.55 98.28, 380.96 86.76, 385.48 82.53 C390.00 78.30, 383.48 83.67, 384.60 84.68" fill="none" stroke="#202020" stroke-width="2" stroke-linecap="round" stroke-linejoin="round"/><path d="M654.49 -27.50 C674.80 -48.33, 695.38 -69.90, 736.77 -107.44 M654.80 -29.26 C673.55 -47.75, 691.70 -66.39, 736.90 -110.09" fill="none" stroke="#202020" stroke-width="2" stroke-linecap="round" stroke-linejoin="round"/><path d="M652.98 380.17 C677.87 402.96, 702.61 428.31, 734.22 463.93 M655.90 382.76 C684.34 408.69, 712.27 439.53, 736.05 463.39" fill="none" stroke="#202020" stroke-width="2" stroke-linecap="round" stroke-linejoin="round"/><path d="M246.73 380.20 C215.04 408.67, 182.25 438.63, 164.05 458.59 M243.58 383.56 C216.84 408.42, 186.69 437.67, 162.99 462.03" fill="none" stroke="#202020" stroke-width="2" stroke-linecap="round" stroke-linejoin="round"/><path d="M247.74 -32.39 C223.37 -50.99, 213.30 -66.98, 165.79 -110.55 M245.44 -29.81 C227.62 -47.85, 212.16 -65.70, 162.48 -109.88" fill="none" stroke="#202020" stroke-width="2" stroke-linecap="round" stroke-linejoin="round"/></svg>