<svg xmlns="http://www.w3.org/2000/svg" viewBox="0 0 900 320" width="900" height="320"><path d="M449.02 15.63 C574.00 61.61, 698.48 100.39, 884.22 161.02 M449.65 16.65 C551.03 45.63, 649.39 77.60, 883.21 159.24 M884.17 158.42 C763.41 196.07, 639.66 235.99, 449.41 305.30 M884.20 159.58 C725.37 210.80, 568.98 262.76, 450.05 304.84 M451.39 303.91 C362.37 277.73, 277.00 248.61, 15.73 159.15 M450.36 304.06 C335.29 263.89, 221.10 227.29, 15.42 160.79 M14.75 160.42 C135.86 115.73, 260.49 74.62, 448.63 16.74 M16.41 160.55 C141.62 119.06, 268.03 77.38, 449.50 16.62" fill="none" stroke="#202020" stroke-width="2" stroke-linecap="round" stroke-linejoin="round"/><path d="M25.55 156.45 C36.45 163.39, 42.60 163.05, 54.42 161.07 M27.56 161.31 C34.57 160.40, 42.07 160.53, 51.39 159.25" fill="none" stroke="#202020" stroke-width="2" stroke-linecap="round" stroke-linejoin="round"/><path d="M845.90 158.92 C855.37 162.92, 863.57 161.73, 876.00 162.31 M850.08 158.01 C858.20 158.70, 862.58 159.54, 875.43 160.60" fill="none" stroke="#202020" stroke-width="2" stroke-linecap="round" stroke-linejoin="round"/><path d="M44.47 153.81 C45.86 157.52, 46.67 155.48, 49.69 160.36 M44.00 154.50 C46.62 156.15, 47.39 157.39, 50.18 160.20 M51.55 159.40 C47.41 162.75, 47.25 163.17, 43.39 166.50 M51.22 160.53 C49.40 162.29, 47.09 162.79, 44.25 164.56" fill="none" stroke="#202020" stroke-width="2" stroke-linecap="round" stroke-linejoin="round"/><path d="M854.85 156.16 C853.10 156.63, 850.75 159.39, 849.63 160.24 M856.18 155.31 C852.84 156.59, 851.62 158.30, 848.25 159.68 M849.61 159.07 C851.91 161.56, 851.94 163.55, 857.39 163.91 M849.13 159.37 C851.48 161.31, 852.48 162.99, 856.32 165.53" fill="none" stroke="#202020" stroke-width="2" stroke-linecap="round" stroke-linejoin="round"/></svg>