<svg xmlns="http://www.w3.org/2000/svg" viewBox="0 0 900 300" width="900" height="300"><path d="M443.26 9.33 C445.84 7.50, 449.49 6.65, 452.28 6.93 C455.07 7.20, 457.62 8.93, 460.01 10.97 C462.41 13.02, 466.27 16.64, 466.66 19.19 C467.06 21.74, 464.23 24.05, 462.39 26.30 C460.55 28.54, 458.85 31.53, 455.65 32.64 C452.44 33.76, 446.11 34.00, 443.16 32.98 C440.21 31.96, 439.50 29.13, 437.97 26.50 C436.44 23.88, 431.14 20.58, 433.97 17.24 C436.81 13.90, 449.80 6.38, 454.96 6.46 C460.13 6.54, 465.16 16.93, 464.98 17.72 M449.26 6.37 C452.20 5.79, 454.64 8.16, 456.84 9.48 C459.03 10.81, 460.66 11.95, 462.43 14.34 C464.21 16.73, 468.13 21.27, 467.48 23.83 C466.82 26.40, 462.21 27.92, 458.51 29.73 C454.81 31.54, 448.96 34.41, 445.28 34.67 C441.60 34.93, 438.01 34.10, 436.45 31.29 C434.89 28.49, 435.57 20.55, 435.92 17.82 C436.27 15.10, 436.33 17.14, 438.55 14.96 C440.77 12.78, 447.57 5.68, 449.23 4.76 C450.88 3.83, 448.78 8.33, 448.47 9.39" fill="#faf7ef" stroke="none"/><path d="M455.61 7.26 C458.41 8.17, 463.45 12.79, 465.24 15.39 C467.04 17.99, 467.36 20.37, 466.37 22.89 C465.38 25.41, 462.06 29.05, 459.30 30.50 C456.53 31.96, 453.11 31.76, 449.78 31.61 C446.45 31.45, 442.00 31.68, 439.32 29.56 C436.63 27.44, 433.56 21.83, 433.66 18.89 C433.76 15.94, 437.48 13.69, 439.90 11.90 C442.33 10.11, 444.61 8.49, 448.20 8.13 C451.80 7.77, 459.23 9.41, 461.49 9.76 C463.75 10.10, 462.27 10.09, 461.76 10.19 M452.11 9.32 C454.76 9.39, 456.18 9.47, 457.93 11.06 C459.68 12.64, 461.86 15.67, 462.59 18.83 C463.31 21.99, 463.40 27.81, 462.28 30.00 C461.16 32.19, 458.94 31.46, 455.87 31.97 C452.79 32.48, 447.16 33.97, 443.82 33.06 C440.48 32.14, 437.64 29.59, 435.83 26.48 C434.03 23.36, 432.15 16.85, 432.99 14.39 C433.84 11.93, 437.56 12.68, 440.92 11.72 C444.27 10.76, 451.95 8.88, 453.14 8.64 C454.34 8.40, 448.31 10.57, 448.09 10.29" fill="none" stroke="#202020" stroke-width="2" stroke-linecap="round" stroke-linejoin="round"/><path d="M448.76 37.57 C452.91 38.81, 452.48 53.32, 459.36 71.08 M451.86 34.82 C453.62 43.54, 458.00 56.62, 459.15 69.51" fill="none" stroke="#202020" stroke-width="2" stroke-linecap="round" stroke-linejoin="round"/><path d="M453.28 46.85 C457.09 39.56, 458.82 35.77, 468.35 32.40 M449.81 47.37 C454.43 40.79, 460.65 36.61, 470.58 27.53" fill="none" stroke="#202020" stroke-width="2" stroke-linecap="round" stroke-linejoin="round"/><path d="M457.50 66.34 C450.86 76.95, 446.95 85.50, 436.09 97.62 M454.58 70.42 C450.01 79.63, 445.58 87.82, 440.48 92.63" fill="none" stroke="#202020" stroke-width="2" stroke-linecap="round" stroke-linejoin="round"/><path d="M454.70 70.30 C457.61 70.84, 460.91 79.80, 467.03 92.66 M454.03 70.92 C459.92 76.41, 462.75 81.74, 468.94 90.37" fill="none" stroke="#202020" stroke-width="2" stroke-linecap="round" stroke-linejoin="round"/><path d="M7.55 77.33 C11.15 81.57, 17.23 79.47, 23.61 82.08 M6.01 80.18 C13.31 77.75, 17.29 79.51, 25.74 80.00" fill="none" stroke="#202020" stroke-width="2" stroke-linecap="round" stroke-linejoin="round"/><path d="M8.54 87.86 C13.31 87.99, 16.66 84.64, 22.40 87.73 M11.12 86.61 C14.38 86.49, 18.59 87.29, 22.29 85.85" fill="none" stroke="#202020" stroke-width="2" stroke-linecap="round" stroke-linejoin="round"/></svg>