<svg xmlns="http://www.w3.org/2000/svg" viewBox="0 0 960 420" width="960" height="420"><path d="M23.10 18.94 L943.33 19.09 L940.76 396.76 L20.01 403.71" fill="#faf7ef" stroke="none"/><path d="M20.08 20.16 C207.31 25.17, 398.15 25.09, 941.41 19.92 M20.75 20.71 C371.22 15.23, 721.94 14.38, 939.98 20.72 M937.80 20.05 C943.40 155.36, 942.50 291.98, 939.34 399.77 M938.93 19.12 C936.49 130.30, 936.40 240.12, 940.57 400.40 M940.77 400.81 C663.98 402.14, 387.92 404.23, 19.35 398.84 M940.32 399.38 C744.25 398.34, 550.07 398.59, 19.84 400.24 M18.56 400.77 C17.82 292.94, 15.66 184.77, 21.31 19.56 M18.80 400.89 C21.43 286.96, 21.86 173.11, 19.85 20.92" fill="none" stroke="#202020" stroke-width="2" stroke-linecap="round" stroke-linejoin="round"/><path d="M36.68 213.86 C38.94 211.32, 46.64 207.11, 54.95 211.40 M34.20 208.18 C39.48 211.82, 46.98 208.31, 53.20 211.15" fill="none" stroke="#202020" stroke-width="2" stroke-linecap="round" stroke-linejoin="round"/><path d="M48.51 201.29 C44.43 210.98, 45.51 216.15, 47.63 219.62 M43.50 198.10 C45.82 203.45, 45.37 209.77, 44.54 218.98" fill="none" stroke="#202020" stroke-width="2" stroke-linecap="round" stroke-linejoin="round"/><path d="M911.63 197.54 C911.63 197.54, 911.63 197.54, 911.63 197.54 M911.63 197.54 C911.63 197.54, 911.63 197.54, 911.63 197.54 M914.87 208.07 C914.77 204.96, 918.14 201.21, 919.75 198.36 M914.23 206.40 C916.79 204.83, 918.77 203.15, 921.33 199.99" fill="#faf7ef" stroke="none"/><path d="M918.13 197.06 C919.29 197.66, 921.89 197.80, 921.96 199.07 C922.03 200.34, 919.45 203.23, 918.54 204.67 C917.63 206.10, 917.28 207.35, 916.49 207.66 C915.70 207.98, 914.92 207.15, 913.79 206.55 C912.66 205.94, 910.34 204.72, 909.71 204.04 C909.08 203.36, 909.70 203.53, 910.03 202.44 C910.36 201.35, 910.79 198.42, 911.69 197.48 C912.58 196.54, 913.76 196.25, 915.40 196.81 C917.04 197.38, 920.85 200.08, 921.52 200.86 C922.20 201.65, 919.81 202.05, 919.46 201.53 M913.14 197.26 C914.97 196.60, 918.01 198.31, 919.39 198.38 C920.78 198.44, 921.25 196.79, 921.42 197.64 C921.60 198.50, 921.04 201.98, 920.42 203.51 C919.81 205.04, 918.41 206.57, 917.75 206.83 C917.09 207.08, 917.76 204.81, 916.45 205.03 C915.14 205.25, 911.51 208.43, 909.90 208.17 C908.30 207.91, 906.81 204.80, 906.82 203.46 C906.82 202.12, 908.84 201.23, 909.93 200.11 C911.01 198.98, 912.87 197.66, 913.34 196.70 C913.81 195.74, 912.57 194.50, 912.74 194.34" fill="none" stroke="#202020" stroke-width="2" stroke-linecap="round" stroke-linejoin="round"/><path d="M919.05 217.24 C919.05 217.24, 919.05 217.24, 919.05 217.24 M919.05 217.24 C919.05 217.24, 919.05 217.24, 919.05 217.24 M924.22 221.97 C925.17 221.50, 927.64 218.89, 928.89 216.38 M925.30 222.79 C927.43 220.74, 927.98 218.16, 929.01 217.35" fill="#faf7ef" stroke="none"/><path d="M925.23 214.59 C925.97 214.46, 926.33 213.97, 927.04 214.04 C927.74 214.11, 929.17 213.92, 929.44 214.99 C929.72 216.07, 928.57 219.06, 928.67 220.51 C928.77 221.96, 930.72 223.39, 930.06 223.68 C929.39 223.96, 926.22 222.64, 924.66 222.21 C923.10 221.78, 921.28 221.76, 920.70 221.09 C920.13 220.43, 921.45 218.90, 921.20 218.22 C920.96 217.55, 918.38 218.23, 919.22 217.05 C920.06 215.87, 925.49 211.56, 926.24 211.12 C927.00 210.68, 923.79 214.18, 923.75 214.39 M926.71 212.67 C927.29 213.89, 926.55 217.02, 927.32 218.54 C928.09 220.05, 931.35 221.04, 931.33 221.77 C931.31 222.49, 928.70 222.98, 927.21 222.88 C925.73 222.79, 922.83 220.99, 922.39 221.22 C921.96 221.45, 925.32 224.48, 924.63 224.25 C923.93 224.02, 918.82 221.24, 918.23 219.82 C917.65 218.41, 920.42 217.15, 921.12 215.73 C921.82 214.32, 921.91 211.68, 922.42 211.34 C922.92 211.00, 923.11 213.35, 924.17 213.68 C925.23 214.02, 928.64 213.04, 928.77 213.37" fill="none" stroke="#202020" stroke-width="2" stroke-linecap="round" stroke-linejoin="round"/></svg>