<svg xmlns="http://www.w3.org/2000/svg" viewBox="0 0 900 320" width="900" height="320"><path d="M328.42 68.19 C328.42 68.19, 328.42 68.19, 328.42 68.19 M328.42 68.19 C328.42 68.19, 328.42 68.19, 328.42 68.19 M318.92 82.96 C332.57 73.87, 340.36 53.39, 363.18 34.60 M319.34 84.60 C332.63 67.12, 349.40 49.40, 361.83 37.54 M307.72 100.48 C333.14 72.28, 358.65 48.04, 372.52 32.57 M309.72 102.14 C327.26 78.93, 346.60 59.15, 372.20 30.48 M301.28 115.81 C319.08 93.75, 338.56 71.30, 383.66 23.85 M305.84 113.74 C326.70 86.26, 347.67 61.15, 381.84 23.66 M304.60 120.97 C331.78 89.17, 358.47 62.99, 388.71 21.63 M302.91 121.22 C321.14 96.51, 338.80 74.19, 389.94 20.97 M302.72 127.43 C321.78 109.58, 342.66 81.58, 399.94 17.33 M300.48 128.90 C333.23 96.84, 363.29 60.99, 403.38 12.64 M301.36 134.62 C334.82 97.89, 367.49 54.51, 410.35 14.32 M301.11 140.12 C322.26 107.89, 343.80 81.06, 409.73 11.00 M301.24 142.34 C341.60 102.05, 381.98 52.87, 415.18 12.26 M298.76 144.62 C326.67 115.92, 352.22 83.91, 416.96 12.00 M293.13 152.54 C344.82 102.67, 386.24 50.10, 417.61 10.64 M297.06 155.72 C318.29 123.88, 347.76 93.67, 423.42 10.10 M292.55 162.79 C332.47 113.03, 383.80 58.25, 428.83 9.76 M294.49 163.59 C334.04 112.97, 375.72 65.31, 427.68 10.10 M296.59 169.05 C329.93 127.61, 365.81 91.57, 431.38 6.91 M294.57 169.26 C335.23 125.88, 370.86 81.53, 434.09 9.21 M296.93 175.96 C324.71 135.38, 358.22 100.72, 438.60 10.52 M294.65 175.60 C330.17 133.08, 362.79 92.46, 439.05 8.72 M296.39 177.30 C336.15 131.71, 374.91 85.63, 442.48 7.70 M294.39 181.95 C333.81 131.92, 374.92 85.93, 443.52 8.00 M296.89 184.02 C354.75 115.16, 423.22 39.71, 448.57 8.72 M292.81 187.35 C328.22 148.12, 360.33 112.23, 450.35 7.68 M293.19 191.23 C345.98 130.74, 396.50 73.56, 455.66 4.62 M295.93 191.49 C342.60 138.65, 390.49 84.87, 456.57 8.25 M291.80 196.92 C358.23 127.30, 416.83 51.48, 457.12 5.84 M295.65 199.38 C339.59 149.47, 381.70 102.49, 459.99 8.75 M296.33 205.51 C337.24 159.02, 377.53 105.75, 461.84 11.36 M296.13 204.88 C333.28 160.86, 370.76 119.64, 465.54 8.01 M296.64 211.71 C333.19 167.63, 372.18 122.64, 471.34 10.70 M295.21 210.44 C356.90 141.85, 413.41 73.60, 469.59 8.37 M298.12 215.99 C354.01 145.21, 410.64 77.59, 471.57 11.82 M294.94 216.09 C340.30 164.84, 384.16 115.50, 474.59 9.97 M294.80 221.52 C360.96 150.38, 421.03 78.93, 476.68 10.65 M298.46 219.09 C341.67 162.64, 389.01 109.96, 479.56 11.20 M298.56 225.85 C360.04 152.50, 422.16 79.83, 483.71 14.67 M299.21 222.57 C365.03 147.98, 431.56 72.27, 483.13 12.99 M300.05 225.97 C345.41 172.10, 397.31 113.20, 485.25 9.42 M299.54 228.93 C356.14 168.01, 408.12 105.82, 488.67 11.05 M305.17 232.68 C365.39 160.20, 432.55 86.76, 489.79 15.76 M302.91 231.00 C346.03 183.04, 387.48 135.86, 492.58 13.48 M305.94 235.80 C357.65 169.25, 418.75 106.29, 499.55 15.45 M305.44 236.24 C361.40 169.98, 419.35 104.45, 495.60 13.49 M304.69 240.15 C375.80 163.78, 445.06 78.50, 501.62 15.11 M305.23 241.18 C353.69 186.95, 398.36 136.92, 501.70 15.50 M311.02 242.49 C363.56 180.09, 419.51 114.21, 507.30 18.34 M308.20 245.05 C366.39 177.07, 421.94 110.74, 505.40 16.61 M312.36 249.84 C363.80 186.09, 412.65 130.43, 510.80 19.94 M311.26 248.26 C383.58 159.07, 459.05 72.05, 508.03 18.69 M309.07 251.05 C381.11 168.74, 448.02 90.66, 515.11 21.92 M312.73 252.54 C378.47 176.79, 447.87 100.68, 511.35 20.16 M313.79 254.37 C365.10 196.76, 414.69 144.86, 513.37 23.38 M311.85 257.78 C375.69 186.20, 436.56 116.41, 516.20 23.88 M316.49 262.50 C368.75 197.16, 428.33 126.56, 522.14 23.29 M315.13 260.89 C396.56 167.68, 478.12 74.87, 520.30 23.81 M314.41 264.47 C388.51 176.99, 465.16 94.03, 521.14 27.75 M315.88 263.31 C381.46 195.57, 439.73 124.07, 524.56 25.16 M320.19 268.98 C391.60 185.15, 459.61 108.56, 525.83 26.49 M317.90 267.55 C378.88 203.89, 437.85 135.76, 528.02 28.54 M319.62 272.99 C386.94 198.13, 455.15 117.39, 529.75 31.56 M320.21 270.83 C403.31 178.53, 486.04 83.60, 532.39 29.95 M325.06 274.93 C375.15 208.93, 429.19 148.31, 532.51 31.08 M324.28 275.10 C401.61 185.83, 479.19 96.35, 535.76 31.08 M327.58 280.55 C407.43 183.48, 488.82 83.89, 538.33 31.84 M325.90 278.63 C408.59 185.12, 486.12 92.93, 539.32 34.04 M330.18 283.19 C393.38 203.59, 454.60 129.15, 541.01 33.93 M328.84 280.28 C400.70 191.92, 478.25 103.14, 541.44 35.60 M332.24 282.39 C387.17 223.46, 443.62 162.35, 543.11 40.47 M330.54 285.80 C389.21 215.13, 448.27 145.08, 544.69 38.99 M333.73 288.10 C383.13 234.17, 426.30 176.05, 544.79 44.90 M333.44 287.65 C398.14 218.74, 461.14 146.05, 546.15 41.70 M338.26 291.25 C384.24 233.37, 436.93 175.81, 548.66 45.12 M336.85 292.74 C417.95 196.53, 499.93 101.33, 550.52 44.10 M335.30 293.10 C407.76 213.11, 481.14 131.20, 554.93 49.83 M337.35 296.08 C412.20 213.04, 483.02 131.20, 551.22 48.26 M340.62 296.80 C411.06 214.15, 486.58 125.60, 555.80 49.85 M339.66 297.70 C388.11 239.05, 438.60 180.29, 556.17 50.81 M344.64 301.61 C393.81 244.35, 440.36 188.15, 558.16 56.11 M342.09 300.79 C421.53 217.49, 494.91 129.58, 558.61 54.40 M343.47 306.03 C429.36 209.99, 509.71 111.46, 558.99 56.44 M346.94 304.47 C416.22 224.65, 488.96 143.61, 560.10 57.16 M348.35 307.64 C430.30 216.07, 512.73 120.45, 562.08 60.21 M349.53 307.61 C424.83 220.37, 502.56 130.87, 564.22 59.88 M354.38 310.09 C403.96 247.14, 462.11 182.10, 563.26 65.61 M351.48 309.05 C405.49 247.46, 461.89 183.14, 565.58 63.21 M354.68 312.52 C406.87 258.03, 457.10 201.76, 569.05 64.99 M354.09 310.68 C422.30 236.40, 488.04 161.92, 567.27 66.92 M357.98 316.33 C416.01 251.68, 474.60 183.39, 570.75 70.49 M358.51 313.43 C421.30 240.09, 484.79 167.44, 571.89 68.34 M362.73 317.27 C442.11 226.89, 519.07 136.92, 572.56 75.49 M363.22 314.74 C445.20 220.03, 529.58 124.33, 571.99 73.82 M362.80 316.13 C430.07 241.01, 495.65 168.70, 575.45 74.83 M365.86 320.03 C437.25 235.71, 509.39 152.35, 576.02 75.27 M366.46 320.42 C431.10 240.81, 498.43 163.26, 574.97 82.67 M367.79 319.64 C430.98 252.19, 490.82 183.64, 576.18 80.93 M374.03 325.48 C445.96 237.44, 513.54 154.40, 580.71 86.93 M370.94 324.08 C422.39 266.47, 472.25 207.79, 578.48 84.91 M376.67 324.56 C426.72 267.11, 479.30 208.39, 580.86 85.81 M374.96 324.09 C434.08 255.83, 498.02 185.07, 582.46 88.07 M377.50 326.70 C434.06 261.58, 492.77 199.64, 583.37 93.38 M377.13 328.81 C427.42 274.13, 471.34 221.42, 582.22 92.43 M380.88 329.33 C426.74 281.46, 465.77 228.81, 583.72 96.37 M382.31 328.73 C430.53 269.17, 481.29 215.08, 585.80 94.56 M384.52 330.04 C448.44 263.37, 507.82 189.77, 588.98 99.72 M387.07 330.30 C437.35 266.92, 493.77 202.91, 587.10 98.85 M387.37 333.74 C462.02 248.12, 535.89 167.19, 586.74 104.94 M390.04 333.95 C458.80 257.59, 527.42 175.96, 589.86 103.19 M396.18 331.15 C438.22 284.78, 483.50 236.50, 589.77 107.50 M394.49 333.69 C464.98 251.87, 533.54 172.83, 591.30 107.52 M400.42 336.07 C459.84 266.15, 523.58 193.21, 593.52 109.00 M397.04 336.51 C453.52 272.11, 506.21 207.59, 593.21 111.45 M403.52 337.78 C468.49 263.40, 527.11 191.49, 594.41 113.49 M402.23 337.02 C445.05 288.83, 484.42 239.55, 594.25 115.34 M408.98 341.32 C470.37 264.74, 531.08 192.95, 595.92 117.52 M405.38 338.08 C457.73 281.29, 505.32 224.26, 596.53 121.49 M408.24 341.74 C484.29 263.80, 553.59 180.15, 597.90 123.78 M409.80 339.24 C455.62 288.31, 500.54 236.78, 598.04 123.30 M414.15 344.23 C476.58 270.30, 542.32 197.45, 598.37 131.39 M414.08 342.39 C484.39 265.71, 552.30 187.86, 597.74 130.80 M421.29 343.22 C463.62 291.94, 512.04 238.28, 598.32 134.59 M418.55 341.93 C470.62 282.64, 520.02 225.52, 599.91 133.41 M425.21 343.15 C478.03 283.21, 527.61 222.05, 598.75 138.34 M420.70 343.03 C467.86 294.46, 511.18 244.27, 602.66 137.43 M424.70 347.73 C476.99 289.10, 531.84 227.85, 602.21 143.30 M426.55 345.96 C491.77 273.55, 555.63 200.22, 602.80 143.17 M431.84 347.67 C481.88 286.97, 532.23 227.22, 604.12 147.86 M430.83 344.34 C475.44 294.92, 517.86 243.75, 604.79 148.84 M438.80 346.17 C502.19 279.02, 560.50 210.73, 604.29 154.07 M437.44 344.85 C494.79 274.97, 554.32 204.99, 605.71 153.09 M441.82 347.61 C497.10 285.85, 550.92 222.94, 603.90 159.96 M444.14 346.73 C495.36 281.63, 550.39 216.50, 605.63 156.85 M450.45 341.59 C509.34 274.12, 565.43 209.59, 607.61 162.19 M447.10 344.03 C501.05 287.85, 552.92 225.78, 605.83 163.60 M455.24 341.89 C506.98 279.92, 557.60 217.80, 607.51 165.57 M452.72 344.22 C502.85 286.40, 551.26 235.33, 609.03 168.91 M457.02 343.14 C509.41 290.18, 554.07 232.19, 608.18 172.62 M460.09 343.52 C502.30 291.62, 549.85 239.90, 606.72 174.56 M463.79 342.69 C492.81 303.92, 522.87 270.39, 607.74 184.26 M465.14 344.06 C494.62 312.67, 525.86 279.54, 604.69 180.13 M468.74 344.01 C506.17 302.51, 542.82 255.64, 603.93 185.91 M470.21 343.98 C501.60 311.48, 528.30 281.23, 606.81 188.91 M478.06 343.89 C521.38 294.47, 562.14 242.47, 605.98 198.48 M474.57 342.39 C513.79 298.08, 554.02 252.36, 606.22 193.35 M479.40 341.91 C502.93 316.56, 533.65 288.24, 607.09 198.74 M484.81 340.63 C516.68 304.71, 548.64 264.61, 605.27 203.65 M487.81 343.37 C508.54 310.05, 537.70 285.45, 604.13 209.03 M487.90 338.54 C532.48 287.27, 574.79 238.44, 603.67 209.14 M498.62 334.85 C531.94 302.93, 569.39 261.93, 603.16 214.69 M496.13 336.27 C534.15 292.71, 571.02 251.73, 601.11 216.43 M507.30 337.82 C531.97 297.99, 562.41 262.62, 598.45 228.20 M504.74 336.34 C537.22 302.96, 569.70 263.47, 598.67 226.59 M512.39 331.27 C541.65 299.03, 569.79 266.86, 593.27 235.91 M509.10 332.61 C539.29 301.32, 569.44 268.52, 595.16 237.51 M514.46 331.78 C540.73 308.52, 568.53 277.70, 592.63 252.94 M516.34 330.37 C538.56 309.42, 559.86 287.01, 588.91 250.39 M534.06 320.68 C545.84 312.22, 558.23 297.53, 589.18 257.93 M531.31 323.60 C550.59 301.62, 567.44 278.51, 583.78 261.63 M546.60 309.40 C551.84 302.56, 555.92 301.79, 572.82 279.90 M546.73 312.77 C553.43 304.18, 557.39 294.08, 570.03 282.04" fill="#faf7ef" stroke="none"/><path d="M572.07 70.70 C583.16 81.76, 588.52 98.86, 594.43 114.14 C600.33 129.42, 606.04 145.86, 607.49 162.38 C608.95 178.91, 606.88 197.08, 603.14 213.30 C599.40 229.52, 592.50 244.98, 585.08 259.71 C577.67 274.45, 569.65 289.84, 558.65 301.69 C547.64 313.55, 533.50 323.80, 519.06 330.83 C504.62 337.86, 487.45 341.42, 472.01 343.88 C456.58 346.35, 441.63 348.07, 426.46 345.61 C411.28 343.15, 394.78 336.13, 380.98 329.13 C367.18 322.14, 354.62 314.73, 343.65 303.63 C332.68 292.54, 323.16 277.15, 315.15 262.56 C307.14 247.96, 299.23 232.63, 295.59 216.08 C291.95 199.53, 292.00 180.27, 293.31 163.26 C294.61 146.25, 297.60 129.86, 303.42 114.05 C309.24 98.24, 318.32 81.57, 328.23 68.42 C338.13 55.26, 350.09 44.60, 362.84 35.11 C375.58 25.63, 390.07 16.34, 404.70 11.51 C419.32 6.69, 435.52 5.85, 450.59 6.19 C465.65 6.53, 480.27 9.02, 495.09 13.54 C509.91 18.06, 522.93 17.47, 539.49 33.31 C556.06 49.14, 584.15 88.39, 594.45 108.55 C604.75 128.72, 604.07 153.51, 601.30 154.32 M437.71 6.83 C451.64 3.69, 468.19 7.58, 483.14 10.69 C498.08 13.81, 513.43 17.61, 527.39 25.52 C541.36 33.43, 555.80 45.27, 566.91 58.14 C578.02 71.02, 587.24 87.02, 594.05 102.76 C600.86 118.50, 605.88 136.27, 607.76 152.58 C609.64 168.89, 607.79 184.54, 605.32 200.64 C602.84 216.75, 600.05 233.83, 592.90 249.21 C585.76 264.59, 573.80 279.91, 562.44 292.94 C551.08 305.96, 537.88 319.24, 524.75 327.37 C511.61 335.49, 498.40 338.81, 483.63 341.68 C468.86 344.56, 451.65 346.15, 436.12 344.60 C420.58 343.04, 404.69 338.38, 390.40 332.37 C376.12 326.36, 362.51 319.04, 350.40 308.54 C338.29 298.04, 325.73 283.72, 317.77 269.37 C309.81 255.03, 306.84 238.29, 302.64 222.46 C298.44 206.62, 292.53 190.70, 292.57 174.39 C292.61 158.07, 298.51 140.90, 302.86 124.57 C307.21 108.23, 310.66 89.96, 318.67 76.36 C326.68 62.76, 338.45 53.31, 350.93 42.99 C363.42 32.66, 379.23 20.70, 393.59 14.40 C407.94 8.10, 429.35 6.40, 437.07 5.17 C444.80 3.94, 439.30 3.76, 439.94 7.05" fill="none" stroke="#202020" stroke-width="2" stroke-linecap="round" stroke-linejoin="round"/><path d="M289.06 33.98 C289.06 33.98, 289.06 33.98, 289.06 33.98 M289.06 33.98 C289.06 33.98, 289.06 33.98, 289.06 33.98 M272.80 59.75 C282.45 47.32, 287.84 35.42, 307.38 17.55 M276.39 56.38 C283.28 45.51, 295.30 32.64, 308.20 15.09 M260.38 77.26 C288.13 52.24, 309.55 24.89, 326.83 -1.06 M259.84 79.19 C279.06 60.22, 292.93 40.61, 327.92 3.33 M252.49 94.11 C278.03 62.06, 309.18 34.33, 336.83 -2.98 M254.78 92.14 C271.98 72.25, 290.67 52.27, 339.76 -3.37 M255.36 100.31 C280.75 71.70, 308.31 36.55, 351.28 -10.48 M252.70 102.56 C271.18 78.43, 292.02 55.32, 348.03 -10.49 M247.84 111.05 C285.06 64.78, 327.46 24.61, 362.62 -14.00 M247.21 111.66 C288.02 65.09, 329.93 17.42, 360.98 -18.09 M247.46 122.37 C280.43 78.61, 318.78 37.85, 372.97 -23.71 M246.16 120.77 C277.78 85.50, 310.42 47.72, 370.69 -25.87 M239.02 135.38 C271.92 100.84, 300.64 65.44, 376.61 -29.10 M241.85 132.00 C281.42 83.27, 327.94 32.99, 380.55 -25.88 M240.90 140.81 C272.52 95.07, 308.14 56.61, 388.76 -31.42 M241.32 139.91 C289.85 85.93, 336.64 31.04, 384.34 -28.79 M237.91 147.78 C274.18 103.99, 312.15 65.20, 392.93 -32.71 M241.16 145.26 C282.87 96.13, 328.03 49.88, 394.01 -28.68 M241.70 152.01 C295.90 95.57, 344.01 31.38, 399.28 -34.86 M240.01 151.34 C276.98 111.13, 311.64 68.97, 399.38 -30.88 M240.26 157.88 C304.53 89.67, 366.71 13.13, 409.46 -30.72 M240.05 157.85 C301.87 87.99, 363.18 17.06, 406.57 -32.81 M236.25 163.47 C278.98 117.09, 318.47 69.48, 414.92 -35.77 M240.93 165.51 C298.72 91.85, 361.06 22.37, 414.45 -34.74 M237.24 173.79 C292.12 102.96, 349.15 38.74, 418.10 -36.84 M237.68 169.33 C276.40 123.34, 317.03 75.66, 421.13 -38.90 M238.00 180.03 C301.03 104.06, 364.79 31.59, 424.10 -39.58 M239.97 177.82 C296.90 111.58, 351.30 48.79, 425.59 -39.69 M238.11 182.84 C301.65 112.00, 365.19 36.11, 433.76 -36.44 M237.45 183.69 C302.06 111.33, 365.22 38.80, 432.28 -38.95 M238.39 192.04 C298.30 121.14, 364.75 47.55, 436.16 -40.38 M237.92 189.80 C301.75 112.33, 366.33 38.59, 438.99 -39.44 M238.06 196.82 C309.03 118.85, 372.79 43.53, 441.67 -36.52 M238.60 195.01 C310.70 108.65, 385.36 25.03, 442.70 -40.22 M240.03 198.86 C301.24 125.45, 365.25 59.19, 446.78 -36.99 M239.98 198.79 C320.18 109.97, 398.75 17.76, 447.79 -39.97 M244.06 206.12 C313.93 123.20, 384.28 40.25, 454.38 -40.51 M240.84 202.81 C299.09 134.63, 357.10 68.48, 452.28 -38.73 M240.54 208.81 C300.76 144.12, 356.43 81.17, 460.62 -38.76 M243.55 210.85 C291.88 155.43, 339.21 99.01, 458.64 -37.54 M244.82 213.43 C304.17 148.36, 366.98 74.40, 465.83 -38.21 M243.99 214.34 C299.68 151.72, 352.48 92.48, 464.38 -38.96 M246.74 217.28 C296.96 156.83, 346.07 99.05, 467.75 -36.37 M245.12 220.08 C290.92 166.68, 335.91 115.36, 469.59 -38.11 M244.53 222.42 C314.89 143.00, 379.02 65.69, 471.38 -37.05 M245.33 222.98 C303.94 156.80, 363.29 90.21, 474.48 -38.97 M246.39 228.75 C329.44 138.91, 404.90 47.94, 480.15 -40.89 M246.78 228.07 C326.88 132.58, 408.28 37.95, 480.46 -38.79 M246.78 234.63 C317.63 155.58, 384.99 75.69, 483.32 -39.29 M248.17 234.55 C331.51 138.24, 415.82 40.56, 482.70 -38.48 M247.92 237.67 C325.76 156.70, 399.96 70.98, 486.17 -38.03 M249.37 240.24 C331.86 139.47, 417.06 39.80, 487.33 -37.72 M248.20 243.00 C336.46 139.68, 423.30 37.27, 494.26 -37.67 M248.97 244.66 C341.12 141.04, 429.97 38.41, 493.04 -36.57 M253.80 246.37 C334.67 148.02, 424.07 50.13, 499.00 -32.82 M250.93 248.32 C346.14 141.69, 439.10 32.82, 496.40 -34.73 M255.33 249.84 C321.51 170.22, 389.82 93.56, 501.32 -34.63 M252.79 252.11 C351.85 143.36, 448.08 31.76, 502.02 -33.30 M253.69 254.00 C333.26 164.66, 410.08 75.49, 505.36 -31.74 M254.74 254.53 C342.39 159.68, 428.33 58.65, 506.45 -31.92 M257.28 257.49 C330.26 177.93, 402.43 95.72, 511.10 -30.31 M257.02 260.56 C323.74 184.72, 386.50 110.53, 509.95 -30.49 M260.17 265.78 C315.62 194.09, 377.82 121.89, 513.89 -29.01 M259.75 264.52 C353.54 157.36, 446.91 49.38, 513.51 -30.13 M258.56 268.55 C328.42 187.74, 396.98 108.25, 517.16 -27.92 M259.84 268.85 C315.60 204.19, 371.42 140.36, 518.63 -28.00 M262.53 270.29 C340.06 184.65, 420.16 96.14, 523.67 -24.93 M261.98 272.91 C351.65 172.07, 438.14 72.87, 521.75 -25.85 M264.18 274.97 C331.20 205.04, 393.69 133.64, 526.38 -23.65 M264.08 276.98 C361.06 168.86, 452.19 61.94, 527.23 -25.92 M266.32 278.01 C333.38 202.37, 399.68 125.26, 531.99 -23.30 M265.63 280.43 C322.17 212.43, 381.10 144.83, 531.78 -24.53 M265.75 285.01 C355.14 188.17, 436.53 90.18, 535.89 -20.67 M267.00 283.58 C338.81 205.30, 407.30 125.07, 535.01 -22.79 M268.95 287.22 C357.38 184.71, 452.27 78.27, 539.98 -21.13 M268.50 287.34 C339.93 208.85, 411.90 127.76, 538.77 -20.24 M271.67 292.65 C330.89 228.31, 386.89 162.83, 543.01 -17.62 M272.91 289.96 C367.99 180.18, 460.77 72.95, 540.69 -18.05 M276.72 293.80 C377.08 178.25, 477.47 62.12, 546.03 -16.83 M275.40 294.63 C359.73 197.54, 442.04 100.27, 544.89 -17.43 M276.22 296.33 C349.35 215.03, 422.27 132.45, 550.75 -16.11 M277.45 298.83 C381.18 177.71, 485.23 59.14, 547.73 -13.60 M278.42 301.21 C361.05 207.20, 438.35 118.15, 552.42 -10.33 M280.14 300.64 C369.65 201.53, 457.21 98.90, 552.74 -12.66 M282.91 306.10 C378.12 192.97, 474.45 84.62, 556.80 -9.31 M282.46 304.32 C356.47 226.74, 426.26 144.56, 554.54 -10.96 M284.86 308.42 C369.60 205.52, 457.51 105.98, 558.25 -8.31 M284.70 308.61 C373.11 203.67, 461.29 102.00, 560.04 -8.19 M286.12 310.27 C363.97 218.89, 445.07 128.45, 561.94 -7.58 M287.13 311.60 C395.61 186.82, 500.79 65.42, 562.04 -6.04 M288.23 313.95 C368.85 224.89, 450.16 129.93, 565.10 -2.46 M289.40 315.22 C396.21 190.96, 506.04 64.23, 565.04 -4.52 M290.27 316.09 C367.61 227.21, 444.94 142.72, 569.84 -3.40 M292.13 319.03 C354.68 242.85, 419.91 166.95, 570.33 -2.10 M294.86 320.85 C386.38 211.79, 482.56 100.60, 573.95 1.77 M293.22 320.55 C397.19 200.43, 503.55 78.03, 572.45 0.65 M294.68 324.08 C354.01 261.15, 414.52 197.71, 578.10 2.94 M295.89 324.36 C377.30 229.12, 456.72 137.24, 575.13 1.79 M299.00 329.05 C359.98 254.85, 427.63 181.52, 577.58 5.61 M298.13 327.94 C401.87 206.25, 510.33 83.43, 579.96 5.08 M299.77 331.27 C391.23 230.17, 477.07 129.00, 583.25 6.92 M301.55 330.56 C394.64 220.87, 489.84 111.82, 583.13 7.49 M302.47 334.01 C388.48 244.61, 469.67 148.31, 585.86 12.30 M304.08 333.43 C375.79 252.09, 447.27 169.00, 584.75 11.33 M307.17 335.81 C384.75 250.16, 462.69 162.62, 588.06 14.88 M306.56 335.20 C395.85 235.81, 484.46 133.62, 588.19 13.15 M309.67 336.77 C406.76 236.45, 496.18 130.24, 589.20 17.61 M310.71 338.82 C413.50 225.12, 514.55 108.37, 590.75 15.80 M314.16 339.32 C396.98 242.96, 475.30 150.22, 596.26 18.57 M314.92 339.75 C417.11 223.99, 518.46 107.28, 593.35 17.66 M315.88 343.64 C394.77 253.05, 475.82 160.01, 598.82 21.03 M316.42 344.03 C424.85 217.78, 535.63 92.03, 597.63 19.94 M320.27 346.12 C421.84 230.18, 524.31 110.70, 601.19 23.24 M321.41 344.95 C392.72 258.55, 464.97 175.55, 599.89 25.03 M324.35 349.12 C408.10 249.30, 492.42 152.40, 600.80 25.00 M324.65 348.13 C392.33 268.46, 461.57 187.43, 601.90 26.14 M328.04 351.14 C386.71 282.64, 447.18 213.95, 606.48 29.38 M327.22 349.30 C431.44 231.96, 534.88 110.84, 604.63 28.73 M329.25 350.13 C429.79 234.98, 536.87 114.48, 608.48 30.94 M331.48 351.62 C403.08 263.31, 480.35 175.22, 607.83 32.16 M332.50 355.30 C410.22 264.91, 488.31 174.99, 611.25 35.44 M333.59 354.00 C437.06 237.58, 542.21 117.71, 612.55 34.47 M338.73 355.97 C438.74 236.84, 541.37 118.92, 613.98 38.62 M336.10 356.43 C407.62 277.96, 476.95 198.51, 614.28 36.98 M340.37 357.40 C407.81 281.84, 476.18 202.39, 617.92 41.35 M339.73 358.37 C424.37 261.66, 507.56 165.06, 616.55 41.07 M342.88 360.25 C441.89 252.19, 537.37 142.57, 619.55 42.83 M342.85 360.33 C404.12 292.09, 463.71 225.07, 620.02 43.14 M347.73 365.60 C410.02 294.93, 467.85 225.69, 621.16 48.64 M346.96 363.52 C428.83 272.64, 507.68 179.82, 620.90 48.27 M349.69 363.19 C434.64 269.74, 520.32 176.86, 624.57 50.37 M352.04 364.09 C408.12 296.58, 464.25 230.15, 625.04 50.73 M353.57 368.02 C424.47 284.97, 491.72 208.32, 624.39 54.08 M355.77 367.70 C456.67 249.62, 559.01 129.71, 627.29 55.04 M359.73 370.13 C455.57 256.54, 555.91 139.35, 626.84 59.09 M358.00 368.49 C457.06 258.84, 552.80 149.16, 629.19 57.61 M362.81 371.13 C450.81 265.38, 544.79 159.50, 629.35 60.60 M362.04 370.29 C465.27 252.12, 566.85 134.56, 629.94 62.82 M365.95 372.61 C456.82 264.51, 550.77 155.17, 633.19 67.41 M365.73 372.53 C451.59 273.91, 538.49 172.27, 633.10 65.58 M367.76 375.08 C452.90 281.20, 534.20 185.79, 634.69 70.22 M370.16 373.54 C458.11 274.42, 544.86 174.79, 635.01 68.33 M373.01 377.26 C456.59 284.90, 537.83 188.93, 637.88 74.43 M373.26 376.38 C450.07 284.59, 526.51 197.53, 636.43 73.13 M379.14 377.05 C477.47 259.62, 576.73 143.05, 639.48 77.96 M377.89 377.40 C467.75 274.16, 559.21 167.53, 640.47 76.58 M379.48 378.25 C443.50 303.98, 510.28 225.13, 642.86 81.23 M380.30 380.98 C479.50 263.92, 580.19 146.81, 642.34 80.50 M385.76 379.67 C483.75 268.59, 586.21 153.21, 643.01 84.81 M383.43 381.97 C462.08 288.93, 545.65 196.43, 643.92 82.55 M390.06 383.27 C439.58 326.86, 491.85 264.62, 647.46 87.19 M387.03 384.04 C483.48 272.87, 578.36 162.34, 646.71 86.40 M393.15 386.45 C458.25 310.75, 526.49 234.94, 645.65 92.57 M392.68 384.68 C489.86 274.31, 586.48 163.24, 646.43 91.52 M398.30 384.97 C489.17 279.77, 584.54 171.33, 646.72 95.86 M396.39 387.02 C453.99 323.75, 509.76 261.18, 648.02 97.95 M399.89 385.06 C479.13 295.28, 556.97 205.61, 649.38 100.60 M400.09 385.96 C474.55 304.24, 545.96 223.20, 649.03 102.42 M407.56 388.54 C480.88 299.29, 559.75 207.62, 649.07 105.41 M405.94 388.42 C480.89 306.10, 552.82 224.72, 651.45 107.00 M409.70 387.92 C492.45 288.31, 579.77 194.77, 650.18 110.71 M411.01 389.05 C462.42 328.41, 512.56 269.98, 651.45 111.03 M417.41 387.21 C501.45 291.69, 590.18 193.08, 654.49 113.95 M416.05 389.48 C512.19 278.99, 606.83 170.25, 651.76 116.47 M419.37 389.12 C470.98 329.62, 523.23 270.21, 656.16 118.13 M420.08 388.95 C505.77 288.46, 591.43 188.94, 654.30 121.02 M424.39 390.68 C489.74 312.75, 555.32 237.09, 653.00 123.89 M425.38 391.44 C507.82 299.70, 588.79 203.23, 654.86 124.15 M431.52 389.38 C484.52 326.42, 542.57 258.86, 656.09 131.70 M430.45 390.37 C518.97 287.48, 608.81 185.23, 655.97 129.63 M434.78 391.79 C487.33 327.88, 543.33 267.35, 658.28 135.30 M435.25 391.36 C516.24 292.18, 601.89 193.67, 656.40 134.00 M439.68 390.99 C499.73 320.17, 560.97 248.11, 656.02 140.31 M438.17 392.95 C516.49 307.00, 592.08 219.02, 658.05 140.39 M446.01 393.13 C512.44 311.95, 583.39 234.66, 658.81 143.87 M442.53 393.35 C516.59 305.60, 590.54 218.54, 658.34 145.68 M449.23 392.91 C528.00 300.40, 605.74 211.10, 659.58 151.20 M449.77 391.98 C505.80 326.63, 562.57 262.99, 658.66 150.34 M452.34 391.61 C499.83 336.50, 549.65 279.65, 658.61 157.01 M454.37 392.50 C538.29 298.31, 620.22 204.84, 661.65 156.31 M461.73 391.85 C511.84 339.60, 559.74 282.57, 659.63 160.68 M460.67 392.45 C501.67 346.56, 542.68 299.34, 661.38 160.41 M466.94 389.89 C508.64 342.28, 551.06 290.98, 663.55 165.11 M465.97 389.09 C528.41 318.78, 590.12 247.02, 662.53 167.04 M472.59 391.15 C536.54 316.01, 605.51 235.11, 664.26 172.41 M473.36 388.73 C542.51 308.85, 616.65 223.16, 660.88 172.26 M476.01 391.23 C534.42 324.28, 588.24 256.90, 660.06 179.88 M478.96 389.63 C546.01 308.49, 615.74 227.25, 661.42 175.82 M483.87 385.41 C552.66 307.69, 622.11 230.09, 662.25 185.19 M485.23 389.70 C538.93 326.30, 590.87 266.00, 664.30 183.52 M493.70 389.32 C525.86 343.62, 560.58 303.27, 661.92 186.59 M489.89 385.83 C549.63 324.59, 606.24 260.64, 662.09 189.80 M499.21 386.05 C549.56 330.35, 599.49 273.17, 662.28 194.02 M494.99 385.79 C551.81 322.29, 608.05 256.84, 664.83 193.31 M505.43 386.18 C562.09 312.70, 629.17 241.12, 662.20 199.88 M502.55 384.19 C543.78 341.55, 580.55 296.27, 662.21 199.97 M509.60 381.26 C553.55 328.91, 598.74 283.45, 661.10 206.63 M512.08 382.90 C549.93 333.51, 590.92 286.85, 660.93 209.84 M516.96 379.79 C565.58 326.40, 610.34 271.19, 662.61 215.45 M519.32 379.45 C570.61 321.32, 620.94 261.91, 659.35 215.62 M526.77 373.34 C577.56 321.87, 626.32 261.93, 658.68 226.80 M528.32 377.47 C553.43 344.32, 582.39 314.13, 656.42 225.85 M536.67 377.24 C553.27 348.81, 580.20 322.09, 656.82 233.09 M535.47 371.44 C566.60 337.46, 597.23 302.29, 655.68 234.26 M541.09 369.49 C587.99 320.64, 625.13 269.92, 656.17 239.18 M543.38 369.62 C580.56 327.13, 617.97 285.57, 653.24 242.32 M550.08 369.27 C583.04 331.44, 619.53 292.81, 654.94 251.40 M552.66 366.56 C574.65 339.61, 596.23 314.27, 652.86 251.91 M564.26 357.92 C591.69 328.30, 616.66 298.76, 638.85 264.57 M564.11 356.72 C585.36 334.36, 598.98 317.75, 642.39 265.54 M575.97 351.43 C595.61 328.04, 615.50 310.65, 634.58 286.05 M578.45 348.79 C589.56 334.98, 604.10 323.32, 635.16 283.19 M594.92 339.75 C602.77 332.37, 610.33 317.55, 612.93 313.41 M592.02 340.78 C600.55 328.14, 608.77 317.31, 616.26 310.82" fill="#faf7ef" stroke="none"/><path d="M617.82 41.00 C631.01 51.90, 638.65 69.26, 645.37 85.62 C652.08 101.98, 655.05 121.23, 658.10 139.14 C661.16 157.05, 664.49 175.06, 663.70 193.08 C662.91 211.09, 659.23 230.48, 653.36 247.23 C647.50 263.98, 638.26 278.83, 628.52 293.60 C618.77 308.37, 608.24 323.52, 594.90 335.84 C581.56 348.15, 564.49 359.16, 548.46 367.50 C532.44 375.85, 515.62 381.74, 498.74 385.92 C481.85 390.10, 464.74 392.60, 447.13 392.58 C429.52 392.55, 410.13 390.84, 393.08 385.77 C376.03 380.70, 360.27 371.19, 344.84 362.17 C329.41 353.15, 313.02 343.96, 300.50 331.67 C287.98 319.37, 278.42 303.79, 269.72 288.41 C261.01 273.03, 253.54 256.40, 248.26 239.37 C242.98 222.35, 239.44 204.13, 238.05 186.27 C236.67 168.42, 236.47 149.66, 239.96 132.24 C243.46 114.81, 250.87 98.07, 259.04 81.71 C267.21 65.35, 277.62 47.43, 289.00 34.05 C300.38 20.67, 313.25 11.42, 327.32 1.43 C341.38 -8.56, 356.61 -19.00, 373.39 -25.90 C390.17 -32.80, 410.03 -37.77, 428.00 -39.95 C445.98 -42.14, 464.01 -41.51, 481.23 -39.02 C498.45 -36.53, 515.38 -31.93, 531.33 -25.01 C547.27 -18.09, 558.54 -15.15, 576.88 2.50 C595.23 20.15, 629.14 60.62, 641.42 80.89 C653.70 101.15, 654.09 122.46, 650.56 124.08 M417.81 -39.86 C433.84 -46.62, 454.08 -43.41, 472.07 -40.76 C490.07 -38.11, 508.81 -30.56, 525.77 -23.98 C542.73 -17.40, 559.84 -10.68, 573.83 -1.29 C587.82 8.10, 599.06 18.69, 609.70 32.36 C620.34 46.03, 630.01 63.95, 637.65 80.73 C645.28 97.50, 651.12 115.88, 655.52 132.99 C659.91 150.10, 663.88 165.57, 664.01 183.38 C664.14 201.19, 661.72 222.70, 656.32 239.84 C650.91 256.98, 641.17 271.33, 631.59 286.21 C622.01 301.10, 610.94 316.26, 598.85 329.15 C586.76 342.05, 574.69 354.57, 559.06 363.59 C543.44 372.60, 522.25 378.29, 505.12 383.26 C487.99 388.23, 473.02 392.76, 456.29 393.42 C439.56 394.09, 422.29 391.37, 404.72 387.25 C387.15 383.12, 367.32 377.40, 350.89 368.67 C334.46 359.93, 319.42 346.63, 306.12 334.82 C292.81 323.01, 280.12 312.45, 271.04 297.80 C261.97 283.16, 257.42 264.67, 251.65 246.96 C245.89 229.25, 238.52 209.02, 236.44 191.55 C234.36 174.08, 236.13 159.73, 239.16 142.13 C242.20 124.53, 247.64 102.53, 254.64 85.94 C261.65 69.36, 270.46 56.54, 281.20 42.61 C291.95 28.68, 304.88 13.61, 319.11 2.38 C333.35 -8.84, 350.43 -17.76, 366.60 -24.76 C382.78 -31.76, 407.67 -38.31, 416.15 -39.61 C424.63 -40.92, 416.49 -36.82, 417.46 -32.59" fill="none" stroke="#202020" stroke-width="2" stroke-linecap="round" stroke-linejoin="round"/><path d="M499.04 73.30 C511.37 77.19, 523.86 89.03, 533.00 99.24 C542.13 109.45, 548.91 121.86, 553.88 134.56 C558.84 147.26, 562.68 161.62, 562.79 175.44 C562.91 189.25, 559.86 204.83, 554.58 217.43 C549.29 230.02, 539.96 241.20, 531.08 251.00 C522.21 260.80, 513.51 269.76, 501.33 276.21 C489.15 282.67, 472.06 288.49, 458.01 289.72 C443.95 290.95, 429.83 287.56, 417.01 283.60 C404.19 279.65, 391.73 273.88, 381.09 266.00 C370.44 258.11, 360.19 247.78, 353.15 236.30 C346.11 224.82, 341.03 210.48, 338.85 197.10 C336.67 183.72, 337.22 169.30, 340.06 156.03 C342.90 142.77, 348.52 129.43, 355.89 117.49 C363.26 105.55, 373.45 92.69, 384.26 84.40 C395.07 76.11, 408.01 71.43, 420.74 67.74 C433.46 64.06, 444.15 59.33, 460.60 62.27 C477.05 65.20, 507.49 78.85, 519.45 85.35 C531.41 91.85, 533.95 99.42, 532.34 101.29 M388.07 83.19 C397.71 74.88, 413.18 70.20, 426.79 67.62 C440.41 65.05, 456.40 65.71, 469.77 67.76 C483.13 69.81, 495.59 73.45, 506.97 79.93 C518.36 86.40, 529.10 95.98, 538.07 106.63 C547.03 117.27, 556.99 130.87, 560.76 143.80 C564.53 156.73, 562.52 170.63, 560.69 184.19 C558.86 197.75, 555.91 212.93, 549.78 225.17 C543.66 237.40, 533.19 248.52, 523.95 257.62 C514.70 266.71, 506.40 274.26, 494.29 279.74 C482.19 285.23, 464.92 290.28, 451.32 290.52 C437.71 290.76, 425.33 285.76, 412.65 281.18 C399.97 276.60, 385.55 272.10, 375.26 263.04 C364.96 253.98, 357.63 239.82, 350.89 226.81 C344.15 213.80, 336.34 198.03, 334.80 184.98 C333.26 171.94, 337.23 161.67, 341.65 148.54 C346.06 135.40, 353.29 116.99, 361.30 106.17 C369.31 95.36, 384.41 87.69, 389.69 83.62 C394.96 79.55, 391.69 80.68, 392.96 81.75" fill="#faf7ef" stroke="none"/><path d="M448.21 63.30 C461.33 61.32, 476.05 63.86, 488.82 68.45 C501.59 73.05, 514.46 81.83, 524.85 90.87 C535.23 99.91, 544.65 110.41, 551.14 122.69 C557.63 134.97, 562.25 151.06, 563.78 164.55 C565.30 178.05, 563.90 190.49, 560.31 203.66 C556.72 216.84, 550.46 232.49, 542.24 243.59 C534.02 254.68, 522.85 263.06, 510.97 270.21 C499.10 277.35, 483.97 283.82, 470.98 286.46 C458.00 289.11, 446.00 288.07, 433.04 286.08 C420.07 284.08, 404.90 281.50, 393.21 274.49 C381.53 267.48, 371.21 255.16, 362.92 244.04 C354.63 232.92, 347.40 220.40, 343.46 207.77 C339.52 195.14, 338.66 181.61, 339.26 168.26 C339.86 154.91, 341.66 140.08, 347.07 127.66 C352.47 115.23, 361.45 102.79, 371.69 93.70 C381.93 84.61, 392.16 78.12, 408.51 73.12 C424.86 68.12, 455.95 63.75, 469.78 63.69 C483.61 63.63, 491.88 70.79, 491.50 72.75 M486.17 70.25 C498.74 73.48, 515.58 84.68, 526.44 93.92 C537.31 103.17, 545.66 114.12, 551.36 125.72 C557.07 137.31, 559.40 150.16, 560.69 163.50 C561.98 176.84, 562.87 192.84, 559.12 205.76 C555.37 218.68, 546.64 230.54, 538.19 241.01 C529.74 251.48, 519.37 261.03, 508.40 268.57 C497.43 276.11, 485.56 283.00, 472.36 286.26 C459.16 289.51, 442.24 290.78, 429.18 288.12 C416.12 285.45, 404.98 277.40, 394.02 270.25 C383.05 263.10, 371.81 255.97, 363.38 245.22 C354.94 234.47, 347.88 218.99, 343.42 205.76 C338.96 192.52, 335.82 178.51, 336.61 165.81 C337.39 153.11, 342.36 141.11, 348.13 129.57 C353.89 118.02, 360.91 106.53, 371.19 96.53 C381.46 86.53, 396.87 75.52, 409.77 69.57 C422.67 63.61, 435.67 60.74, 448.61 60.78 C461.55 60.82, 481.13 68.13, 487.41 69.81 C493.70 71.49, 486.53 69.16, 486.31 70.84" fill="none" stroke="#202020" stroke-width="2" stroke-linecap="round" stroke-linejoin="round"/><path d="M658.85 -30.49 C684.09 -59.92, 716.71 -89.68, 738.75 -111.41 M656.95 -30.25 C674.72 -49.68, 693.73 -71.38, 736.93 -109.68" fill="none" stroke="#202020" stroke-width="2" stroke-linecap="round" stroke-linejoin="round"/><path d="M654.35 383.17 C683.19 408.08, 700.73 430.36, 737.34 463.00 M654.42 383.74 C676.96 402.22, 698.87 424.60, 737.82 463.10" fill="none" stroke="#202020" stroke-width="2" stroke-linecap="round" stroke-linejoin="round"/><path d="M244.01 384.23 C220.52 404.68, 201.42 427.89, 160.42 463.32 M245.07 382.02 C213.06 410.82, 187.59 435.63, 162.44 463.19" fill="none" stroke="#202020" stroke-width="2" stroke-linecap="round" stroke-linejoin="round"/><path d="M241.93 -28.91 C215.20 -57.62, 190.54 -87.48, 159.83 -106.64 M242.11 -28.81 C224.15 -51.95, 202.98 -73.49, 162.31 -109.56" fill="none" stroke="#202020" stroke-width="2" stroke-linecap="round" stroke-linejoin="round"/></svg>