<svg xmlns="http://www.w3.org/2000/svg" viewBox="0 0 900 320" width="900" height="320"><path d="M12.45 12.46 C356.42 20.37, 697.38 20.43, 887.52 12.47 M13.33 13.78 C361.95 11.58, 711.09 11.38, 885.66 13.87 M884.39 11.64 C889.60 98.34, 889.62 181.57, 884.86 303.35 M884.52 13.03 C887.27 78.50, 885.79 142.95, 885.31 305.67 M884.47 306.80 C654.63 303.75, 421.31 302.58, 14.99 305.72 M886.01 306.72 C642.18 301.43, 397.05 301.55, 14.42 306.62 M12.60 308.24 C15.88 216.97, 14.32 125.64, 12.73 16.49 M14.21 306.86 C14.99 236.72, 13.57 170.92, 14.68 12.74" fill="none" stroke="#202020" stroke-width="2" stroke-linecap="round" stroke-linejoin="round"/><path d="M29.17 32.12 C256.44 37.56, 485.89 37.77, 873.35 32.96 M28.30 31.33 C319.08 31.38, 612.22 30.92, 872.25 32.78" fill="none" stroke="#202020" stroke-width="2" stroke-linecap="round" stroke-linejoin="round"/><path d="M28.61 118.79 C307.38 112.54, 587.36 110.93, 871.12 116.38 M27.54 117.33 C346.15 118.86, 665.01 118.84, 871.40 117.87" fill="none" stroke="#202020" stroke-width="2" stroke-linecap="round" stroke-linejoin="round"/><path d="M29.34 202.08 C235.35 208.55, 442.11 207.32, 871.47 203.69 M28.17 202.31 C219.38 207.46, 411.68 207.18, 872.16 202.20" fill="none" stroke="#202020" stroke-width="2" stroke-linecap="round" stroke-linejoin="round"/><path d="M28.33 286.48 C248.90 293.82, 468.58 294.30, 873.56 289.29 M28.14 288.25 C226.44 288.78, 426.70 288.85, 872.25 287.75" fill="none" stroke="#202020" stroke-width="2" stroke-linecap="round" stroke-linejoin="round"/></svg>