<svg xmlns="http://www.w3.org/2000/svg" viewBox="0 0 436 310" width="436" height="310"><path d="M20.21 254.63 L53.91 250.84 L56.90 283.04 L22.68 287.90" fill="#faf7ef" stroke="none"/><path d="M20.35 254.35 C30.38 255.85, 39.12 250.54, 54.04 252.94 M20.37 252.20 C32.29 252.25, 44.53 252.81, 55.33 252.75 M51.57 252.80 C52.31 262.24, 57.90 274.33, 52.83 282.27 M53.09 252.00 C53.74 262.19, 54.27 273.48, 56.05 283.44 M57.40 286.33 C44.46 281.01, 33.79 281.61, 21.47 285.79 M53.47 284.21 C46.12 283.14, 38.51 281.65, 21.65 285.54 M20.08 284.63 C19.89 272.03, 23.07 267.40, 19.28 254.52 M20.12 282.47 C20.50 278.98, 18.08 270.06, 20.51 252.66" fill="none" stroke="#202020" stroke-width="3" stroke-linecap="round" stroke-linejoin="round"/><path d="M63.40 256.86 L98.39 253.14 L98.75 287.94 L62.19 287.22" fill="#faf7ef" stroke="none"/><path d="M59.21 251.83 C72.15 250.95, 85.54 256.61, 93.35 250.97 M59.97 254.18 C73.51 253.01, 81.62 254.17, 94.88 254.10 M98.64 253.34 C96.62 264.02, 97.82 269.61, 92.88 285.98 M96.33 254.34 C95.13 262.56, 93.09 273.50, 94.36 285.01 M93.68 284.81 C84.69 282.05, 73.62 286.31, 59.90 282.31 M96.05 285.88 C84.57 285.45, 75.19 285.12, 58.11 284.12 M62.92 285.93 C62.45 274.37, 63.56 264.41, 63.78 250.37 M61.85 284.50 C58.91 277.46, 59.46 270.01, 60.76 252.96" fill="none" stroke="#202020" stroke-width="3" stroke-linecap="round" stroke-linejoin="round"/><path d="M101.20 252.46 L131.23 256.24 L133.66 285.99 L103.72 282.97" fill="#faf7ef" stroke="none"/><path d="M103.85 257.87 C107.24 257.63, 120.19 252.42, 136.72 255.74 M99.79 255.81 C112.42 255.42, 123.72 255.77, 134.97 252.95 M134.64 253.73 C134.18 260.60, 132.76 266.34, 136.00 282.30 M135.46 253.88 C135.05 265.55, 136.17 276.01, 135.40 283.35 M132.65 281.21 C120.81 286.08, 106.62 280.41, 96.25 287.94 M134.12 284.68 C127.77 282.79, 117.75 285.03, 98.87 282.69 M97.16 283.03 C100.58 272.08, 97.46 263.62, 97.81 253.92 M100.93 285.71 C99.34 276.39, 98.86 263.11, 100.49 253.22" fill="none" stroke="#202020" stroke-width="3" stroke-linecap="round" stroke-linejoin="round"/><path d="M41.73 216.68 L74.63 215.09 L77.01 249.73 L37.81 251.39" fill="#faf7ef" stroke="none"/><path d="M41.66 216.07 C53.02 217.07, 63.98 219.45, 73.64 218.30 M40.91 220.34 C51.90 217.73, 61.52 219.19, 73.73 218.42 M72.21 215.60 C75.00 231.26, 74.51 233.10, 72.97 247.95 M73.77 217.50 C76.66 231.12, 72.93 242.51, 74.95 247.55 M72.78 245.05 C62.98 245.26, 46.49 247.00, 42.94 251.15 M76.58 247.71 C63.39 248.72, 50.13 250.42, 39.95 249.52 M43.03 248.53 C36.37 238.59, 41.80 223.78, 40.12 215.30 M39.95 248.35 C40.25 242.24, 38.58 234.34, 39.72 218.89" fill="none" stroke="#202020" stroke-width="3" stroke-linecap="round" stroke-linejoin="round"/><path d="M78.41 217.72 L113.09 219.84 L115.71 245.94 L78.18 250.69" fill="#faf7ef" stroke="none"/><path d="M81.42 220.53 C93.21 222.24, 106.66 218.46, 114.20 215.92 M78.47 220.76 C90.75 218.33, 96.33 218.61, 113.71 220.16 M113.30 219.78 C118.64 225.61, 112.39 236.41, 113.41 245.99 M115.50 220.14 C115.98 227.52, 115.11 238.53, 116.73 250.53 M113.38 248.49 C110.64 253.16, 95.94 252.88, 83.53 247.09 M114.78 247.27 C104.38 247.79, 95.30 250.13, 81.35 248.53 M77.35 252.58 C82.34 241.15, 77.53 227.57, 79.35 215.10 M80.12 247.59 C79.12 237.57, 81.76 227.83, 80.30 219.36" fill="none" stroke="#202020" stroke-width="3" stroke-linecap="round" stroke-linejoin="round"/><path d="M60.38 184.85 L95.43 185.17 L97.32 216.33 L59.96 212.60" fill="#faf7ef" stroke="none"/><path d="M57.63 183.35 C67.35 184.41, 77.23 184.56, 97.81 187.09 M61.11 183.50 C66.49 186.46, 78.26 184.85, 96.90 183.68 M94.44 185.19 C98.66 189.96, 98.13 198.89, 92.10 210.98 M94.58 183.91 C94.59 193.05, 94.51 199.19, 94.50 213.78 M92.93 214.33 C79.88 212.52, 70.60 210.91, 56.47 210.08 M95.92 214.71 C88.34 212.65, 79.43 215.75, 59.60 215.85 M60.62 216.73 C62.65 208.24, 61.31 200.65, 56.05 182.59 M60.81 212.29 C58.99 209.40, 58.39 199.80, 59.80 184.34" fill="none" stroke="#202020" stroke-width="3" stroke-linecap="round" stroke-linejoin="round"/><path d="M368.90 20.44 L403.37 20.91 L402.39 53.37 L366.76 49.85" fill="#faf7ef" stroke="none"/><path d="M366.96 22.69 C380.68 16.19, 384.01 15.90, 403.39 22.28 M370.44 18.96 C379.87 20.64, 391.66 20.53, 405.50 21.03 M405.10 20.76 C403.47 33.42, 402.72 45.20, 403.87 47.70 M404.10 19.99 C405.47 26.84, 407.09 31.30, 403.52 50.50 M404.03 53.88 C395.04 47.08, 386.68 49.05, 370.24 48.22 M405.23 48.76 C392.36 47.73, 383.33 50.39, 370.59 51.00 M370.91 46.67 C368.81 44.59, 369.24 32.82, 372.97 20.22 M369.72 48.64 C370.44 37.13, 370.67 27.03, 370.59 19.31" fill="none" stroke="#202020" stroke-width="3" stroke-linecap="round" stroke-linejoin="round"/><path d="M389.07 57.31 C391.24 98.26, 390.91 146.86, 389.22 174.40 M389.65 56.98 C391.30 97.64, 389.74 140.01, 387.60 172.56" fill="none" stroke="#202020" stroke-width="3" stroke-linecap="round" stroke-linejoin="round"/></svg>