<svg xmlns="http://www.w3.org/2000/svg" viewBox="0 0 436 310" width="436" height="310"><path d="M20.44 257.34 L53.34 257.06 L54.76 285.64 L18.71 286.04" fill="#faf7ef" stroke="none"/><path d="M17.26 256.58 C29.35 251.01, 36.52 255.97, 52.72 257.81 M20.17 255.42 C26.54 251.76, 37.57 253.94, 56.54 252.57 M57.17 251.25 C51.86 259.79, 51.77 263.23, 57.46 285.03 M55.36 252.24 C54.08 260.18, 53.59 265.04, 54.37 284.07 M53.66 286.81 C43.56 287.36, 35.45 281.27, 23.09 281.36 M56.31 284.65 C43.56 283.23, 35.07 284.34, 20.74 285.89 M16.98 283.68 C23.26 275.10, 18.13 259.43, 21.81 257.59 M18.71 284.47 C19.58 274.57, 21.56 268.72, 21.98 253.40" fill="none" stroke="#202020" stroke-width="3" stroke-linecap="round" stroke-linejoin="round"/><path d="M59.23 255.99 L91.66 255.60 L93.79 285.03 L61.29 284.69" fill="#faf7ef" stroke="none"/><path d="M57.63 255.66 C71.73 254.48, 86.72 256.90, 95.75 257.80 M60.53 253.44 C73.92 253.42, 89.31 255.22, 95.72 254.25 M98.92 252.22 C95.12 263.88, 93.47 264.93, 92.71 282.98 M96.53 252.05 C93.27 264.70, 96.54 274.10, 95.28 285.02 M93.13 284.35 C87.88 284.32, 72.14 283.16, 60.89 283.70 M95.43 284.32 C82.47 286.50, 69.46 285.48, 58.47 284.86 M63.79 284.46 C59.59 271.81, 59.25 265.35, 63.96 252.58 M58.66 284.98 C61.29 272.06, 59.96 261.15, 59.53 255.42" fill="none" stroke="#202020" stroke-width="3" stroke-linecap="round" stroke-linejoin="round"/><path d="M102.02 252.69 L136.34 253.19 L136.52 282.52 L96.39 285.23" fill="#faf7ef" stroke="none"/><path d="M102.42 253.63 C114.02 250.33, 120.25 257.33, 137.85 252.23 M101.67 255.28 C109.55 253.66, 116.19 253.97, 135.01 253.81 M136.60 255.70 C133.90 258.93, 132.43 271.25, 131.51 287.60 M133.99 254.90 C135.40 263.32, 135.92 267.80, 133.74 282.59 M133.07 284.26 C121.50 286.16, 111.55 284.42, 99.42 286.47 M134.53 284.93 C128.91 285.36, 118.96 285.10, 99.60 283.55 M97.47 283.17 C98.58 272.48, 95.49 267.99, 96.41 255.97 M101.21 283.13 C99.87 275.20, 100.86 265.19, 100.14 254.61" fill="none" stroke="#202020" stroke-width="3" stroke-linecap="round" stroke-linejoin="round"/><path d="M42.60 216.59 L75.64 221.25 L77.92 248.93 L37.03 247.59" fill="#faf7ef" stroke="none"/><path d="M37.53 222.36 C51.17 221.31, 69.16 217.13, 71.64 215.84 M40.24 217.03 C52.23 219.63, 66.95 217.17, 76.71 218.85 M71.33 216.29 C72.43 225.20, 76.79 235.52, 77.94 250.67 M74.13 217.12 C74.53 225.00, 76.35 231.85, 74.12 248.05 M78.23 248.47 C67.26 249.87, 56.73 249.30, 43.08 245.65 M75.09 247.56 C63.62 248.54, 55.39 248.96, 40.31 249.86 M39.10 249.23 C38.65 239.35, 40.66 232.07, 39.40 215.71 M41.96 248.42 C38.82 238.58, 39.67 228.01, 38.18 219.14" fill="none" stroke="#202020" stroke-width="3" stroke-linecap="round" stroke-linejoin="round"/><path d="M82.78 221.05 L115.19 221.50 L113.09 251.56 L80.62 246.79" fill="#faf7ef" stroke="none"/><path d="M80.53 215.42 C94.30 221.05, 104.12 219.57, 115.06 218.26 M78.59 220.72 C91.28 217.89, 105.00 218.37, 116.91 218.75 M111.22 220.57 C114.87 224.87, 113.08 235.14, 111.90 251.85 M115.18 217.57 C114.68 229.14, 116.83 236.49, 116.91 247.75 M116.10 245.91 C104.77 247.88, 93.71 253.04, 77.63 246.95 M113.06 249.97 C104.96 248.42, 95.69 251.51, 78.47 249.61 M77.16 251.56 C83.50 240.28, 84.05 228.86, 82.03 222.35 M78.39 248.75 C80.00 242.60, 80.19 234.69, 78.50 218.73" fill="none" stroke="#202020" stroke-width="3" stroke-linecap="round" stroke-linejoin="round"/><path d="M57.71 187.19 L96.07 187.92 L97.09 214.39 L60.15 212.59" fill="#faf7ef" stroke="none"/><path d="M62.42 187.27 C69.46 185.65, 76.31 187.58, 98.72 187.83 M61.18 184.67 C68.32 182.91, 78.50 184.78, 96.67 184.05 M98.28 185.73 C95.74 191.12, 93.60 197.83, 95.90 215.65 M93.73 182.46 C95.05 193.41, 95.93 201.76, 94.50 215.18 M97.91 213.31 C91.52 210.57, 81.66 214.06, 62.02 215.89 M95.46 214.65 C85.61 213.46, 74.57 215.10, 59.43 213.60 M60.15 214.31 C57.66 204.17, 59.69 189.50, 57.01 186.38 M58.74 212.09 C61.28 206.32, 60.43 198.06, 59.96 185.39" fill="none" stroke="#202020" stroke-width="3" stroke-linecap="round" stroke-linejoin="round"/><path d="M373.67 16.67 L407.89 19.06 L407.64 50.34 L373.45 51.91" fill="#faf7ef" stroke="none"/><path d="M369.00 19.22 C375.64 22.57, 388.04 17.99, 406.96 19.67 M371.21 20.64 C379.86 20.08, 386.74 18.43, 405.14 19.81 M407.13 23.94 C407.34 32.03, 405.78 34.27, 406.63 48.28 M405.77 18.73 C406.90 28.73, 405.17 38.04, 405.93 49.51 M407.36 46.75 C394.08 53.11, 375.40 48.49, 367.46 53.98 M405.60 49.65 C392.55 51.36, 379.81 52.42, 368.80 49.15 M368.45 48.92 C372.55 40.41, 373.96 37.50, 370.84 22.83 M369.25 48.47 C368.86 36.25, 370.19 25.04, 371.62 19.08" fill="none" stroke="#202020" stroke-width="3" stroke-linecap="round" stroke-linejoin="round"/><path d="M391.95 51.12 C388.34 84.65, 386.34 125.01, 385.18 171.57 M386.38 56.88 C386.04 86.66, 387.09 120.30, 386.99 175.23" fill="none" stroke="#202020" stroke-width="3" stroke-linecap="round" stroke-linejoin="round"/></svg>