<svg xmlns="http://www.w3.org/2000/svg" viewBox="0 0 436 310" width="436" height="310"><path d="M5.76 6.72 L416.12 5.26 L411.70 289.66 L1.11 288.04" fill="#faf7ef" stroke="none"/><path d="M2.90 3.82 C98.15 2.93, 196.46 3.52, 413.32 3.45 M5.24 4.83 C155.01 9.55, 304.84 8.96, 415.39 4.78 M415.93 3.45 C416.57 115.67, 418.34 231.45, 414.36 286.04 M414.79 5.18 C412.56 64.72, 414.04 126.16, 415.35 287.76 M416.64 288.76 C268.85 291.07, 127.35 293.54, 4.29 290.94 M415.07 288.36 C274.13 283.78, 134.63 284.70, 6.06 288.53 M5.71 289.54 C8.30 207.75, 7.23 125.21, 5.09 2.73 M4.25 287.88 C6.09 204.59, 6.73 121.71, 6.19 3.85" fill="none" stroke="#202020" stroke-width="3" stroke-linecap="round" stroke-linejoin="round"/><path d="M209.48 130.11 L225.29 146.82 L208.12 165.80 L195.63 145.49" fill="#faf7ef" stroke="none"/><path d="M210.00 128.72 C212.58 132.94, 218.91 138.11, 222.10 145.12 M211.02 130.82 C212.37 134.25, 216.94 139.38, 223.65 147.46 M225.40 148.01 C218.40 146.54, 218.76 151.40, 212.49 163.79 M222.24 147.38 C219.95 150.51, 217.66 153.69, 210.21 160.38 M213.43 164.28 C205.20 160.62, 206.19 156.02, 197.74 144.34 M209.84 163.44 C205.12 156.39, 202.86 155.30, 197.24 145.75 M197.90 146.04 C199.00 138.48, 203.40 140.00, 209.88 128.36 M197.50 148.78 C201.97 144.87, 202.11 140.82, 211.20 133.12" fill="none" stroke="#202020" stroke-width="3" stroke-linecap="round" stroke-linejoin="round"/></svg>