<svg xmlns="http://www.w3.org/2000/svg" viewBox="0 0 436 310" width="436" height="310"><path d="M8.60 7.45 L416.16 1.25 L412.63 285.35 L7.75 291.09" fill="#faf7ef" stroke="none"/><path d="M4.24 6.93 C134.85 7.54, 269.28 7.46, 415.83 5.95 M5.38 5.34 C92.82 2.01, 182.16 2.64, 414.88 4.31 M412.93 7.78 C416.42 94.11, 415.23 181.87, 416.57 290.60 M415.31 6.42 C419.14 72.46, 420.35 141.21, 416.30 287.92 M416.78 289.21 C258.11 288.44, 101.31 288.56, 4.44 290.97 M414.00 288.90 C258.93 290.00, 101.49 289.23, 5.91 288.99 M8.03 289.84 C4.59 194.30, 2.72 96.01, 5.99 4.40 M6.51 289.14 C7.22 208.18, 10.05 125.93, 3.81 4.47" fill="none" stroke="#202020" stroke-width="3" stroke-linecap="round" stroke-linejoin="round"/><path d="M207.94 136.00 L222.83 145.79 L206.70 158.42 L194.64 146.47" fill="#faf7ef" stroke="none"/><path d="M207.90 133.75 C212.56 140.80, 222.29 141.43, 222.62 144.48 M208.31 132.22 C214.54 139.33, 219.90 143.54, 222.17 148.38 M224.29 150.18 C213.34 150.89, 209.12 160.35, 210.29 161.74 M221.81 147.35 C220.19 150.28, 216.47 155.14, 211.10 160.88 M209.84 161.36 C206.59 155.56, 200.09 154.96, 200.05 144.02 M210.25 161.72 C207.40 155.40, 200.42 153.20, 196.49 146.28 M194.42 145.53 C204.49 140.65, 206.11 138.65, 207.00 128.82 M197.28 145.54 C202.10 144.22, 205.00 139.09, 208.63 133.29" fill="none" stroke="#202020" stroke-width="3" stroke-linecap="round" stroke-linejoin="round"/></svg>