<svg xmlns="http://www.w3.org/2000/svg" viewBox="0 0 256 196" width="256" height="196"><path d="M117.20 7.94 C120.23 6.64, 124.92 5.38, 127.54 6.30 C130.16 7.22, 132.06 10.67, 132.91 13.46 C133.77 16.25, 133.21 20.05, 132.66 23.06 C132.10 26.06, 132.10 30.17, 129.59 31.49 C127.08 32.82, 121.12 31.51, 117.62 31.01 C114.11 30.51, 110.64 29.79, 108.54 28.47 C106.45 27.16, 105.30 25.52, 105.03 23.13 C104.77 20.75, 103.98 16.56, 106.95 14.16 C109.93 11.75, 118.97 9.45, 122.90 8.69 C126.83 7.94, 130.30 9.77, 130.51 9.61 M112.00 11.79 C113.85 9.81, 117.26 8.14, 119.47 7.49 C121.67 6.85, 122.41 6.07, 125.22 7.93 C128.03 9.79, 135.24 15.88, 136.33 18.68 C137.42 21.47, 133.65 22.70, 131.77 24.71 C129.88 26.72, 127.06 29.76, 125.04 30.73 C123.02 31.70, 122.18 30.87, 119.66 30.51 C117.14 30.15, 112.10 29.99, 109.93 28.56 C107.76 27.13, 106.46 24.66, 106.64 21.93 C106.81 19.21, 110.64 13.56, 110.99 12.20 C111.33 10.85, 108.63 13.31, 108.68 13.79" fill="#faf7ef" stroke="none"/><path d="M107.58 12.92 C109.62 10.88, 114.94 7.82, 118.31 7.16 C121.67 6.49, 125.24 7.87, 127.78 8.93 C130.32 9.99, 132.49 10.90, 133.54 13.53 C134.59 16.16, 135.26 22.02, 134.07 24.71 C132.88 27.41, 128.98 28.15, 126.37 29.70 C123.77 31.26, 121.40 34.51, 118.45 34.03 C115.49 33.56, 110.49 29.36, 108.63 26.87 C106.78 24.37, 107.39 21.73, 107.31 19.08 C107.22 16.44, 107.52 12.48, 108.14 10.99 C108.76 9.51, 110.79 10.29, 111.02 10.17 M114.21 10.37 C116.55 7.83, 119.75 4.53, 121.94 4.37 C124.13 4.21, 125.58 7.47, 127.36 9.40 C129.15 11.34, 131.50 13.38, 132.66 15.99 C133.82 18.59, 136.21 22.76, 134.34 25.01 C132.46 27.27, 124.62 28.56, 121.40 29.51 C118.18 30.46, 117.40 31.71, 114.99 30.72 C112.58 29.73, 107.99 25.86, 106.96 23.55 C105.92 21.25, 108.22 19.21, 108.77 16.88 C109.32 14.56, 109.42 10.97, 110.25 9.58 C111.09 8.20, 113.20 8.00, 113.77 8.56" fill="none" stroke="#202020" stroke-width="2" stroke-linecap="round" stroke-linejoin="round"/><path d="M122.82 37.27 C124.58 46.25, 124.59 52.53, 129.27 71.74 M121.44 34.87 C125.29 44.47, 127.44 56.86, 129.15 68.63" fill="none" stroke="#202020" stroke-width="2" stroke-linecap="round" stroke-linejoin="round"/><path d="M116.05 47.99 C124.74 42.12, 129.60 38.01, 139.23 32.43 M119.45 46.53 C128.35 42.24, 135.55 33.42, 140.91 28.10" fill="none" stroke="#202020" stroke-width="2" stroke-linecap="round" stroke-linejoin="round"/><path d="M126.95 70.60 C122.84 72.73, 115.27 85.65, 106.55 95.18 M125.93 70.84 C121.91 77.90, 116.99 83.55, 110.34 94.14" fill="none" stroke="#202020" stroke-width="2" stroke-linecap="round" stroke-linejoin="round"/><path d="M122.74 72.39 C129.74 75.29, 131.75 85.48, 139.49 87.36 M123.13 69.67 C128.31 74.82, 134.30 83.34, 141.91 90.86" fill="none" stroke="#202020" stroke-width="2" stroke-linecap="round" stroke-linejoin="round"/><path d="M6.39 75.88 C11.12 82.10, 20.10 82.48, 26.48 75.67 M3.21 78.10 C10.53 78.56, 16.45 80.24, 24.16 80.59" fill="none" stroke="#202020" stroke-width="2" stroke-linecap="round" stroke-linejoin="round"/><path d="M12.13 87.70 C16.66 83.83, 18.75 88.39, 23.84 83.92 M8.88 87.03 C15.74 85.89, 20.39 87.08, 21.30 86.83" fill="none" stroke="#202020" stroke-width="2" stroke-linecap="round" stroke-linejoin="round"/></svg>