<svg xmlns="http://www.w3.org/2000/svg" viewBox="0 0 256 196" width="256" height="196"><path d="M6.25 22.13 L55.52 22.28 L53.95 79.36 L10.38 79.98" fill="#faf7ef" stroke="none"/><path d="M6.46 23.91 C31.56 20.19, 44.35 18.07, 57.69 17.89 M9.15 20.46 C23.80 19.18, 41.68 20.78, 56.75 21.46 M56.37 20.75 C54.68 40.45, 55.16 61.46, 53.49 79.06 M55.46 19.79 C56.11 33.93, 56.09 48.96, 56.10 79.90 M57.04 82.35 C43.50 77.21, 30.01 80.22, 12.86 81.32 M56.98 78.59 C42.83 78.76, 31.69 81.97, 10.28 78.71 M11.88 83.55 C10.26 52.81, 9.15 35.95, 6.69 21.54 M9.39 80.46 C11.69 58.73, 11.00 37.52, 10.42 21.04" fill="none" stroke="#202020" stroke-width="2" stroke-linecap="round" stroke-linejoin="round"/><path d="M24.88 45.48 C24.88 45.48, 24.88 45.48, 24.88 45.48 M24.88 45.48 C24.88 45.48, 24.88 45.48, 24.88 45.48 M23.77 53.45 C27.63 50.09, 30.03 43.56, 33.58 42.08 M26.36 52.21 C28.03 47.97, 29.47 45.69, 33.34 43.13 M26.18 58.54 C29.51 51.50, 31.31 50.42, 38.74 41.83 M26.47 55.16 C28.02 53.36, 30.88 50.84, 37.65 46.15 M28.27 58.61 C34.33 55.05, 36.90 48.44, 39.45 45.33 M28.75 56.97 C32.85 54.35, 36.03 49.10, 38.44 46.58" fill="#faf7ef" stroke="none"/><path d="M33.33 42.22 C35.03 42.83, 38.23 45.05, 39.04 46.33 C39.85 47.62, 38.77 48.58, 38.18 49.93 C37.60 51.28, 36.43 53.02, 35.54 54.43 C34.66 55.84, 34.46 58.20, 32.86 58.38 C31.26 58.56, 27.19 56.75, 25.96 55.49 C24.74 54.23, 25.68 52.50, 25.51 50.82 C25.34 49.14, 23.97 47.01, 24.94 45.40 C25.92 43.80, 29.27 41.52, 31.36 41.20 C33.45 40.88, 36.10 42.90, 37.49 43.49 C38.88 44.08, 39.67 44.33, 39.69 44.73 M33.03 39.89 C33.96 40.73, 34.49 43.64, 36.06 45.86 C37.63 48.08, 41.96 51.24, 42.44 53.23 C42.93 55.22, 40.60 56.70, 38.98 57.81 C37.35 58.93, 34.40 60.40, 32.69 59.92 C30.98 59.43, 29.93 56.05, 28.71 54.92 C27.49 53.80, 25.45 54.65, 25.38 53.16 C25.31 51.68, 27.89 47.77, 28.29 46.01 C28.69 44.26, 27.20 43.66, 27.79 42.63 C28.39 41.60, 30.32 39.88, 31.85 39.84 C33.37 39.80, 36.25 41.53, 36.92 42.39" fill="none" stroke="#202020" stroke-width="2" stroke-linecap="round" stroke-linejoin="round"/><path d="M73.97 16.37 L114.51 16.80 L116.14 81.11 L69.16 78.87" fill="#faf7ef" stroke="none"/><path d="M69.03 21.74 C83.22 22.34, 96.56 23.32, 113.57 17.43 M71.55 18.97 C80.74 21.02, 92.53 21.67, 113.72 18.15 M115.65 16.91 C112.25 35.02, 118.01 61.29, 111.50 76.22 M114.39 20.65 C114.76 39.48, 114.09 61.68, 113.03 80.75 M116.02 76.73 C105.77 80.98, 94.98 83.80, 73.43 80.90 M115.85 80.43 C101.81 79.41, 86.37 80.54, 71.89 79.09 M68.82 77.18 C67.40 63.72, 66.22 43.13, 66.38 23.01 M70.03 78.80 C70.83 67.40, 70.01 53.57, 70.34 20.69" fill="none" stroke="#202020" stroke-width="2" stroke-linecap="round" stroke-linejoin="round"/><path d="M90.51 35.82 L94.45 53.97 L114.41 50.73 L100.13 63.63 L102.91 73.88 L92.08 62.81 L76.39 72.97 L86.11 62.99 L68.70 47.39 L85.39 48.01" fill="#faf7ef" stroke="none"/><path d="M95.32 36.61 C93.23 38.76, 97.20 45.92, 100.35 49.68 M92.10 33.48 C94.08 38.90, 94.12 41.95, 99.01 51.09 M95.92 52.02 C103.00 50.84, 105.09 53.08, 112.46 46.97 M96.01 48.47 C103.45 49.27, 109.67 48.27, 115.87 49.83 M116.04 50.66 C106.48 55.21, 103.36 60.38, 102.66 61.79 M115.97 51.46 C110.39 53.70, 106.94 56.59, 101.83 58.75 M101.48 58.20 C101.08 68.19, 102.51 73.38, 103.61 76.39 M101.93 59.77 C101.92 65.91, 105.14 69.43, 106.51 76.04 M106.68 75.35 C103.93 70.14, 93.83 65.74, 95.15 68.40 M105.91 74.54 C101.69 71.32, 96.62 65.54, 93.78 65.76 M90.41 65.54 C88.94 69.97, 80.95 68.80, 77.83 72.55 M92.11 64.62 C88.72 67.12, 86.34 69.95, 77.36 74.16 M80.74 75.18 C81.87 72.93, 79.42 64.93, 84.68 61.61 M79.31 75.73 C80.51 71.40, 80.48 63.99, 82.79 60.23 M81.64 61.70 C79.55 56.18, 73.48 49.98, 67.27 48.18 M84.66 58.89 C80.46 56.09, 75.83 54.07, 71.58 50.26 M72.97 52.56 C76.16 50.89, 82.02 51.55, 84.11 51.54 M71.41 51.04 C75.77 49.65, 84.31 48.29, 87.76 50.93 M85.98 52.11 C90.43 45.53, 88.01 38.92, 93.67 37.31 M88.54 51.26 C89.33 44.00, 91.28 41.44, 93.54 35.14" fill="none" stroke="#202020" stroke-width="2" stroke-linecap="round" stroke-linejoin="round"/></svg>