<svg xmlns="http://www.w3.org/2000/svg" viewBox="0 0 256 196" width="256" height="196"><path d="M17.60 136.60 L51.81 137.86 L54.48 170.43 L23.92 167.66" fill="#faf7ef" stroke="none"/><path d="M23.60 141.39 C36.18 139.49, 48.97 138.93, 58.99 143.34 M21.84 139.84 C26.57 138.65, 35.48 141.06, 54.36 141.49 M54.41 138.56 C53.20 151.19, 55.75 151.56, 57.11 169.63 M53.23 138.28 C53.53 150.40, 55.80 164.99, 56.85 171.01 M55.00 171.68 C46.60 169.58, 31.58 172.15, 16.87 167.66 M55.83 171.23 C46.25 170.14, 41.25 168.21, 22.00 169.67 M18.07 166.97 C22.63 161.99, 18.65 153.76, 16.62 136.56 M21.82 171.01 C18.53 156.77, 19.90 145.76, 19.35 138.73" fill="none" stroke="#202020" stroke-width="2" stroke-linecap="round" stroke-linejoin="round"/><path d="M61.95 136.54 L93.65 137.26 L96.68 172.19 L60.59 172.48" fill="#faf7ef" stroke="none"/><path d="M61.37 136.18 C69.37 142.19, 84.49 139.77, 97.25 136.92 M60.89 139.23 C73.59 139.82, 88.24 139.13, 93.10 140.29 M93.48 138.09 C96.09 154.70, 93.06 163.79, 98.26 171.92 M96.45 139.10 C95.17 148.51, 92.76 151.81, 95.93 171.81 M96.48 167.17 C85.14 167.20, 75.24 170.65, 56.45 167.24 M95.71 168.76 C84.17 169.49, 71.23 168.11, 61.14 168.50 M63.90 166.68 C57.35 162.42, 63.18 148.79, 62.32 143.41 M60.69 169.86 C58.86 161.04, 61.03 152.15, 60.07 139.48" fill="none" stroke="#202020" stroke-width="2" stroke-linecap="round" stroke-linejoin="round"/><path d="M96.91 142.34 L136.34 141.55 L135.11 168.54 L102.83 166.44" fill="#faf7ef" stroke="none"/><path d="M101.38 140.83 C112.63 140.06, 124.83 139.24, 135.71 142.29 M100.72 140.93 C105.85 140.66, 115.88 137.98, 135.23 139.66 M136.64 140.76 C131.85 152.31, 135.76 156.74, 136.20 169.76 M133.83 141.86 C133.58 151.33, 133.50 159.51, 134.28 170.97 M138.62 169.62 C124.40 172.94, 117.51 166.61, 97.09 168.93 M135.74 169.80 C124.33 172.22, 115.59 172.12, 100.64 170.91 M101.79 170.82 C96.01 157.57, 101.29 148.54, 99.30 137.45 M101.57 170.56 C101.33 163.16, 99.11 157.82, 100.10 141.44" fill="none" stroke="#202020" stroke-width="2" stroke-linecap="round" stroke-linejoin="round"/><path d="M38.40 107.67 L74.44 108.52 L73.86 131.48 L38.84 131.70" fill="#faf7ef" stroke="none"/><path d="M43.48 108.03 C45.62 101.14, 55.80 107.01, 74.40 105.20 M38.59 106.38 C52.89 103.53, 62.07 104.09, 74.24 103.08 M71.65 102.51 C72.65 113.74, 73.10 126.55, 76.22 134.24 M76.94 104.95 C76.18 117.79, 75.47 128.85, 75.91 133.83 M76.40 134.97 C64.73 132.23, 46.56 136.14, 40.13 133.55 M74.60 135.51 C63.36 133.95, 51.01 134.29, 41.26 135.53 M43.76 131.86 C37.30 125.15, 37.64 122.24, 42.56 104.43 M41.00 136.61 C40.95 127.19, 38.30 121.74, 40.63 103.41" fill="none" stroke="#202020" stroke-width="2" stroke-linecap="round" stroke-linejoin="round"/><path d="M80.66 103.46 L114.45 103.79 L113.46 137.79 L83.25 134.38" fill="#faf7ef" stroke="none"/><path d="M82.32 103.72 C93.63 105.16, 106.39 103.89, 113.09 106.90 M78.59 106.15 C92.98 103.85, 103.84 104.10, 116.91 105.93 M117.82 101.53 C116.45 111.11, 119.13 115.76, 114.75 136.59 M114.39 106.35 C117.49 112.89, 116.59 122.20, 113.19 134.20 M115.23 133.98 C108.74 133.36, 98.32 130.66, 83.67 135.48 M115.67 135.25 C101.53 134.15, 88.43 136.88, 80.79 135.09 M83.61 135.00 C81.12 123.97, 83.05 116.16, 81.79 106.28 M78.24 133.29 C80.70 129.03, 80.28 121.12, 79.98 103.27" fill="none" stroke="#202020" stroke-width="2" stroke-linecap="round" stroke-linejoin="round"/><path d="M63.05 72.45 L98.98 73.19 L96.89 103.71 L61.01 103.32" fill="#faf7ef" stroke="none"/><path d="M63.66 66.42 C73.30 72.25, 88.58 68.82, 96.99 66.38 M60.72 69.66 C71.11 68.50, 79.82 70.32, 94.90 71.54 M97.88 67.35 C95.48 74.01, 96.97 80.73, 91.76 102.43 M95.98 71.62 C96.86 79.53, 97.28 88.61, 96.74 101.72 M98.21 102.84 C88.13 96.85, 75.28 99.34, 58.84 103.00 M94.65 98.93 C82.81 99.68, 68.42 98.36, 58.78 98.47 M58.07 101.90 C57.18 93.48, 63.75 86.68, 57.94 67.07 M58.89 99.01 C58.25 88.45, 58.27 78.49, 60.99 70.32" fill="none" stroke="#202020" stroke-width="2" stroke-linecap="round" stroke-linejoin="round"/><path d="M190.41 18.24 L222.42 19.97 L226.21 51.64 L192.33 50.27" fill="#faf7ef" stroke="none"/><path d="M193.80 23.71 C201.62 18.97, 212.57 21.47, 226.83 23.02 M191.65 19.45 C202.09 21.90, 216.86 21.10, 226.65 20.70 M221.73 20.59 C223.66 29.86, 228.54 40.88, 221.14 49.27 M223.93 19.10 C226.56 27.88, 224.83 38.89, 223.69 48.42 M222.97 46.28 C208.27 53.46, 201.78 50.50, 192.71 48.81 M223.29 50.49 C214.30 49.90, 207.78 50.55, 190.51 51.94 M190.49 48.34 C193.27 42.19, 190.57 29.31, 189.15 16.89 M191.42 50.01 C191.39 38.70, 188.77 31.59, 189.55 21.12" fill="none" stroke="#202020" stroke-width="2" stroke-linecap="round" stroke-linejoin="round"/><path d="M207.17 54.24 C208.15 55.95, 207.31 57.62, 208.30 59.06 M208.17 54.79 C207.94 56.65, 208.54 58.77, 207.71 60.13" fill="none" stroke="#202020" stroke-width="2" stroke-linecap="round" stroke-linejoin="round"/></svg>