<svg xmlns="http://www.w3.org/2000/svg" viewBox="0 0 256 196" width="256" height="196"><path d="M61.02 28.51 C69.81 23.24, 85.23 23.14, 98.33 22.00 C111.44 20.85, 126.42 19.92, 139.66 21.64 C152.90 23.35, 166.82 27.81, 177.78 32.28 C188.75 36.76, 198.87 41.76, 205.43 48.48 C212.00 55.20, 215.80 64.18, 217.18 72.61 C218.57 81.04, 217.89 91.29, 213.74 99.05 C209.58 106.81, 201.39 112.96, 192.24 119.18 C183.09 125.40, 171.08 132.49, 158.82 136.38 C146.56 140.27, 131.94 142.75, 118.70 142.52 C105.46 142.29, 90.97 138.41, 79.38 135.02 C67.78 131.63, 57.77 127.91, 49.11 122.19 C40.46 116.47, 31.87 109.01, 27.48 100.67 C23.08 92.33, 21.18 80.93, 22.76 72.16 C24.34 63.39, 28.94 55.53, 36.95 48.06 C44.97 40.58, 63.44 31.27, 70.83 27.30 C78.23 23.33, 80.17 23.50, 81.33 24.25 M129.98 21.76 C143.00 22.71, 161.01 26.41, 173.22 30.34 C185.43 34.27, 196.37 39.22, 203.22 45.36 C210.08 51.49, 212.10 59.31, 214.34 67.16 C216.58 75.01, 219.18 84.41, 216.67 92.47 C214.15 100.53, 207.57 108.17, 199.23 115.51 C190.89 122.85, 178.46 131.91, 166.62 136.48 C154.78 141.06, 141.83 142.49, 128.20 142.95 C114.57 143.42, 97.49 142.66, 84.83 139.26 C72.16 135.87, 60.97 128.20, 52.20 122.59 C43.43 116.98, 36.96 112.82, 32.21 105.58 C27.46 98.35, 24.05 87.63, 23.67 79.17 C23.30 70.71, 24.09 61.98, 29.95 54.83 C35.81 47.67, 48.43 42.01, 58.82 36.25 C69.21 30.49, 80.08 23.46, 92.29 20.27 C104.50 17.07, 125.17 17.02, 132.07 17.08 C138.98 17.14, 133.33 19.43, 133.72 20.60" fill="#faf7ef" stroke="none"/><path d="M125.77 17.00 C138.31 16.59, 150.70 22.84, 162.14 26.76 C173.57 30.68, 185.44 34.23, 194.37 40.52 C203.31 46.80, 212.13 56.13, 215.75 64.46 C219.38 72.78, 218.73 82.16, 216.12 90.46 C213.52 98.76, 207.33 107.39, 200.13 114.25 C192.93 121.11, 183.39 127.40, 172.92 131.63 C162.46 135.86, 149.92 138.21, 137.34 139.61 C124.76 141.02, 110.39 142.11, 97.44 140.06 C84.48 138.01, 70.18 132.50, 59.62 127.31 C49.06 122.11, 40.21 116.00, 34.09 108.87 C27.96 101.75, 23.59 92.84, 22.88 84.57 C22.17 76.30, 24.94 66.93, 29.83 59.25 C34.73 51.57, 43.17 44.46, 52.27 38.49 C61.36 32.51, 67.03 26.35, 84.42 23.41 C101.81 20.47, 140.75 19.11, 156.61 20.84 C172.47 22.56, 180.34 32.74, 179.60 33.77 M191.80 40.87 C201.59 46.57, 210.87 58.00, 215.36 65.55 C219.84 73.10, 221.00 78.29, 218.71 86.17 C216.42 94.05, 209.11 105.69, 201.60 112.83 C194.09 119.96, 183.80 124.01, 173.63 128.98 C163.45 133.95, 153.02 140.73, 140.55 142.65 C128.08 144.56, 112.32 142.61, 98.83 140.46 C85.35 138.31, 70.18 134.73, 59.64 129.73 C49.11 124.74, 41.57 117.96, 35.59 110.50 C29.61 103.05, 24.88 93.28, 23.77 84.99 C22.66 76.70, 24.28 68.66, 28.94 60.76 C33.60 52.85, 42.92 44.01, 51.74 37.57 C60.56 31.13, 70.27 24.80, 81.89 22.09 C93.50 19.39, 107.73 20.79, 121.45 21.35 C135.16 21.90, 152.04 22.72, 164.16 25.44 C176.29 28.15, 189.26 34.85, 194.20 37.63 C199.13 40.41, 195.13 41.25, 193.77 42.12" fill="none" stroke="#202020" stroke-width="2" stroke-linecap="round" stroke-linejoin="round"/><path d="M83.26 72.95 C83.80 73.80, 84.87 75.05, 85.46 75.90 C86.05 76.76, 87.38 77.68, 86.80 78.06 C86.22 78.45, 83.10 78.18, 81.96 78.21 C80.82 78.24, 80.98 78.74, 79.97 78.26 C78.96 77.77, 76.09 76.25, 75.91 75.29 C75.73 74.34, 78.49 73.41, 78.91 72.53 C79.33 71.65, 77.94 70.43, 78.43 70.02 C78.93 69.61, 80.49 69.83, 81.86 70.05 C83.23 70.27, 86.09 70.37, 86.63 71.34 C87.17 72.31, 85.62 75.57, 85.09 75.87 M85.75 69.47 C86.58 70.27, 85.93 71.84, 85.81 73.21 C85.70 74.59, 84.88 77.01, 85.05 77.73 C85.21 78.45, 87.01 77.48, 86.78 77.54 C86.55 77.60, 85.52 78.29, 83.67 78.09 C81.83 77.89, 76.89 76.64, 75.71 76.35 C74.53 76.07, 76.28 77.40, 76.60 76.39 C76.93 75.37, 77.35 71.79, 77.63 70.27 C77.92 68.76, 77.06 67.24, 78.30 67.32 C79.54 67.40, 84.60 70.07, 85.09 70.77 C85.59 71.47, 81.05 71.94, 81.29 71.53" fill="#faf7ef" stroke="none"/><path d="M80.13 70.94 C80.64 70.22, 79.82 69.55, 80.35 69.31 C80.88 69.08, 82.28 68.68, 83.31 69.53 C84.34 70.39, 86.33 73.24, 86.52 74.43 C86.71 75.62, 84.68 75.62, 84.45 76.69 C84.21 77.76, 85.96 80.32, 85.10 80.84 C84.24 81.35, 80.20 80.49, 79.29 79.76 C78.38 79.03, 80.25 77.28, 79.63 76.45 C79.01 75.63, 75.76 75.90, 75.58 74.82 C75.40 73.74, 77.10 70.39, 78.53 69.97 C79.96 69.55, 84.09 72.29, 84.16 72.31 M80.93 73.34 C81.48 72.33, 82.47 70.70, 83.32 70.48 C84.17 70.26, 85.78 71.84, 86.05 72.02 C86.31 72.20, 85.43 70.42, 84.93 71.57 C84.42 72.73, 83.48 77.48, 83.02 78.96 C82.55 80.44, 82.98 79.95, 82.14 80.47 C81.29 81.00, 78.83 82.70, 77.93 82.13 C77.04 81.57, 77.08 78.85, 76.77 77.08 C76.45 75.31, 75.90 72.80, 76.03 71.53 C76.17 70.27, 76.89 69.05, 77.57 69.51 C78.25 69.96, 80.04 73.99, 80.13 74.25" fill="none" stroke="#202020" stroke-width="2" stroke-linecap="round" stroke-linejoin="round"/><path d="M160.78 71.57 C161.74 71.68, 162.01 72.18, 162.11 73.24 C162.21 74.30, 161.84 77.12, 161.40 77.93 C160.96 78.74, 159.94 77.86, 159.47 78.10 C159.00 78.34, 159.11 79.56, 158.56 79.36 C158.01 79.16, 157.14 77.79, 156.18 76.91 C155.21 76.03, 153.27 74.84, 152.77 74.08 C152.27 73.32, 152.11 72.69, 153.17 72.35 C154.23 72.01, 157.52 71.97, 159.14 72.03 C160.76 72.09, 162.69 72.47, 162.90 72.70 C163.11 72.94, 160.74 73.75, 160.38 73.44 M155.74 69.91 C155.64 68.86, 155.41 68.94, 155.81 69.12 C156.21 69.30, 157.05 70.73, 158.14 70.98 C159.22 71.24, 161.62 69.69, 162.32 70.64 C163.01 71.60, 162.16 75.11, 162.31 76.68 C162.46 78.26, 164.08 79.42, 163.21 80.11 C162.33 80.80, 158.07 81.57, 157.07 80.83 C156.07 80.09, 158.18 77.04, 157.20 75.69 C156.22 74.33, 152.02 73.31, 151.20 72.68 C150.37 72.06, 151.44 72.05, 152.27 71.96 C153.09 71.86, 155.60 71.61, 156.15 72.10" fill="#faf7ef" stroke="none"/><path d="M156.91 72.42 C158.12 71.98, 158.80 69.12, 159.94 69.15 C161.09 69.18, 163.22 71.24, 163.77 72.59 C164.32 73.94, 163.47 76.30, 163.23 77.24 C162.99 78.17, 163.04 77.60, 162.33 78.20 C161.61 78.80, 160.27 80.96, 158.95 80.85 C157.62 80.73, 155.50 78.60, 154.38 77.53 C153.26 76.45, 152.60 75.18, 152.21 74.39 C151.82 73.60, 150.72 73.67, 152.04 72.78 C153.37 71.89, 158.53 69.45, 160.16 69.07 C161.79 68.69, 162.25 70.14, 161.84 70.49 M159.47 69.56 C160.44 68.96, 162.61 68.67, 163.30 69.19 C163.98 69.71, 163.21 71.30, 163.58 72.69 C163.94 74.08, 166.19 76.06, 165.48 77.52 C164.78 78.97, 160.67 80.72, 159.37 81.42 C158.07 82.11, 158.55 82.71, 157.70 81.68 C156.84 80.64, 154.92 76.48, 154.26 75.22 C153.59 73.95, 154.00 74.66, 153.70 74.09 C153.40 73.52, 151.89 72.56, 152.44 71.81 C152.99 71.05, 155.99 69.67, 157.01 69.56 C158.04 69.45, 157.91 70.55, 158.60 71.14" fill="none" stroke="#202020" stroke-width="2" stroke-linecap="round" stroke-linejoin="round"/><path d="M117.27 94.46 L119.51 89.90 L123.35 100.28 L119.79 96.87" fill="#faf7ef" stroke="none"/><path d="M115.81 91.45 C119.55 91.99, 121.39 92.58, 123.04 91.95 M117.50 92.34 C118.49 92.12, 120.81 91.78, 122.53 91.93 M123.92 92.88 C123.02 93.65, 122.14 95.32, 122.26 98.14 M123.48 91.86 C123.37 94.43, 122.65 96.46, 122.92 98.46 M122.32 97.07 C120.74 98.97, 121.08 97.85, 117.46 98.33 M123.31 97.67 C121.13 98.08, 118.67 98.07, 116.70 98.55 M118.07 98.44 C118.00 96.02, 118.10 94.87, 118.19 93.19 M116.76 98.56 C116.82 96.70, 117.30 94.48, 117.59 92.47" fill="none" stroke="#202020" stroke-width="2" stroke-linecap="round" stroke-linejoin="round"/><path d="M109.05 104.07 C106.49 108.02, 109.74 111.19, 109.40 114.66 M108.14 104.27 C108.98 108.71, 107.33 110.02, 108.75 114.81" fill="none" stroke="#202020" stroke-width="2" stroke-linecap="round" stroke-linejoin="round"/><path d="M116.68 106.26 C115.05 109.26, 117.99 112.06, 115.96 116.45 M116.69 104.00 C116.53 108.04, 115.03 113.74, 115.59 115.77" fill="none" stroke="#202020" stroke-width="2" stroke-linecap="round" stroke-linejoin="round"/><path d="M124.73 106.92 C124.14 108.90, 123.28 112.58, 124.97 113.46 M124.56 104.48 C123.21 108.40, 123.35 113.01, 123.59 115.38" fill="none" stroke="#202020" stroke-width="2" stroke-linecap="round" stroke-linejoin="round"/><path d="M131.34 105.71 C131.09 107.75, 133.33 113.18, 131.62 114.91 M132.02 104.25 C131.74 108.72, 131.64 111.51, 132.21 115.30" fill="none" stroke="#202020" stroke-width="2" stroke-linecap="round" stroke-linejoin="round"/><path d="M97.10 156.00 C110.94 161.53, 123.30 165.81, 142.11 179.36 M95.04 152.60 C108.56 158.78, 122.62 165.80, 143.74 179.98" fill="none" stroke="#202020" stroke-width="2" stroke-linecap="round" stroke-linejoin="round"/><path d="M143.15 154.50 C126.48 158.08, 113.60 169.21, 98.29 178.93 M143.72 152.64 C130.11 160.13, 118.15 164.70, 95.95 179.91" fill="none" stroke="#202020" stroke-width="2" stroke-linecap="round" stroke-linejoin="round"/></svg>