<svg xmlns="http://www.w3.org/2000/svg" viewBox="0 0 256 196" width="256" height="196"><path d="M59.11 41.71 L180.67 43.23 L183.42 170.88 L61.59 172.76" fill="#faf7ef" stroke="none"/><path d="M61.59 46.73 C95.41 43.29, 128.74 48.42, 183.05 47.04 M61.76 42.86 C96.55 44.55, 136.22 44.10, 179.16 43.46 M176.25 42.01 C182.84 74.51, 182.08 99.36, 183.46 170.14 M178.85 43.24 C180.20 85.76, 177.71 128.88, 179.70 168.81 M177.86 169.57 C140.72 170.46, 94.66 172.28, 61.52 172.80 M181.14 169.01 C135.96 168.61, 95.73 168.95, 58.80 168.18 M62.21 169.42 C64.82 127.85, 58.81 86.63, 58.92 47.97 M60.03 169.77 C62.87 128.53, 60.09 85.44, 60.27 45.67" fill="none" stroke="#202020" stroke-width="2" stroke-linecap="round" stroke-linejoin="round"/><path d="M46.32 47.38 L117.88 12.54 L188.92 46.40" fill="#faf7ef" stroke="none"/><path d="M49.04 40.05 C68.08 31.07, 91.21 19.73, 119.02 9.05 M49.24 45.06 C63.55 36.98, 79.85 30.45, 120.61 8.03 M122.48 8.32 C145.70 21.75, 168.24 31.20, 186.97 41.06 M118.21 7.33 C138.13 17.32, 154.08 28.01, 191.90 45.06 M190.46 47.17 C141.35 43.73, 98.37 44.54, 53.52 46.45 M190.67 43.56 C136.82 45.30, 82.67 43.23, 50.81 44.79" fill="none" stroke="#202020" stroke-width="2" stroke-linecap="round" stroke-linejoin="round"/><path d="M99.43 78.04 L141.06 77.36 L142.56 109.01 L93.45 114.57" fill="#faf7ef" stroke="none"/><path d="M94.61 79.04 C111.54 75.91, 128.60 79.28, 143.94 77.59 M97.11 77.21 C106.86 76.57, 117.27 72.74, 142.17 76.30 M140.96 74.04 C147.28 90.03, 146.18 100.21, 140.80 115.42 M142.84 76.89 C142.64 86.22, 144.34 100.01, 143.39 112.08 M145.80 110.35 C134.75 109.25, 120.81 110.72, 95.52 109.52 M144.08 113.09 C128.77 112.17, 112.37 111.47, 96.04 111.89 M95.09 115.16 C98.39 101.42, 98.79 94.12, 96.59 79.46 M94.89 112.35 C97.71 101.94, 96.26 97.21, 95.20 77.41" fill="none" stroke="#202020" stroke-width="2" stroke-linecap="round" stroke-linejoin="round"/><path d="M89.07 128.52 L152.87 126.96 L147.80 171.97 L88.94 173.12" fill="#faf7ef" stroke="none"/><path d="M86.19 125.30 C102.91 126.87, 112.88 127.09, 150.91 129.79 M89.30 124.59 C113.10 123.37, 136.14 125.23, 149.44 124.76 M153.31 129.60 C153.66 142.35, 147.99 160.47, 153.26 171.92 M149.68 126.66 C151.90 136.33, 151.90 145.97, 148.08 171.71 M146.74 167.18 C132.61 171.78, 106.98 171.77, 88.63 167.06 M151.35 170.02 C133.32 170.38, 119.02 169.31, 89.90 169.53 M89.54 173.56 C91.12 153.85, 87.09 142.30, 93.76 125.07 M89.31 169.00 C88.85 155.55, 89.63 139.04, 88.49 125.60" fill="none" stroke="#202020" stroke-width="2" stroke-linecap="round" stroke-linejoin="round"/></svg>