<svg xmlns="http://www.w3.org/2000/svg" viewBox="0 0 436 310" width="436" height="310"><path d="M223.60 39.15 C241.27 38.68, 263.46 42.88, 280.67 47.07 C297.88 51.26, 313.59 56.73, 326.86 64.28 C340.13 71.83, 352.20 83.03, 360.28 92.38 C368.36 101.74, 373.03 110.20, 375.33 120.41 C377.64 130.62, 377.30 142.91, 374.11 153.64 C370.93 164.36, 364.94 175.43, 356.20 184.76 C347.46 194.09, 334.84 202.21, 321.69 209.61 C308.54 217.01, 294.08 224.79, 277.31 229.15 C260.53 233.51, 239.31 235.00, 221.05 235.77 C202.79 236.55, 184.93 236.70, 167.74 233.80 C150.54 230.89, 133.38 224.37, 117.87 218.33 C102.36 212.30, 86.18 205.73, 74.67 197.57 C63.16 189.41, 54.17 179.64, 48.81 169.38 C43.45 159.13, 41.79 146.80, 42.54 136.04 C43.28 125.27, 47.17 114.83, 53.27 104.81 C59.38 94.79, 67.87 84.40, 79.17 75.91 C90.48 67.42, 105.72 60.07, 121.11 53.89 C136.49 47.70, 150.92 41.35, 171.48 38.78 C192.04 36.21, 229.72 37.48, 244.45 38.47 C259.18 39.45, 260.19 42.93, 259.85 44.69 M339.00 72.16 C352.76 79.23, 362.13 91.04, 368.83 100.74 C375.53 110.44, 378.51 119.48, 379.19 130.37 C379.87 141.26, 378.42 155.70, 372.92 166.07 C367.41 176.44, 357.41 184.03, 346.16 192.59 C334.90 201.15, 320.06 210.78, 305.38 217.42 C290.70 224.05, 275.02 229.46, 258.07 232.41 C241.13 235.36, 222.18 235.83, 203.70 235.13 C185.22 234.43, 163.84 232.17, 147.21 228.20 C130.58 224.24, 118.01 217.93, 103.91 211.33 C89.81 204.73, 72.27 197.34, 62.61 188.59 C52.96 179.85, 49.49 169.10, 45.99 158.87 C42.49 148.64, 39.49 137.83, 41.61 127.22 C43.72 116.61, 50.77 105.73, 58.68 95.24 C66.59 84.74, 76.41 72.19, 89.05 64.24 C101.70 56.29, 117.69 52.27, 134.56 47.55 C151.43 42.84, 172.26 36.91, 190.25 35.95 C208.25 34.98, 225.09 39.23, 242.54 41.76 C259.99 44.28, 279.44 46.22, 294.96 51.10 C310.49 55.98, 328.38 67.20, 335.68 71.04 C342.99 74.88, 340.09 72.69, 338.80 74.12" fill="#faf7ef" stroke="none"/><path d="M236.59 38.36 C253.97 38.64, 272.80 46.33, 288.96 51.48 C305.13 56.64, 320.87 61.32, 333.59 69.27 C346.31 77.22, 358.06 89.49, 365.28 99.18 C372.51 108.88, 375.72 116.69, 376.93 127.43 C378.15 138.17, 377.25 152.82, 372.57 163.65 C367.89 174.48, 358.85 183.88, 348.85 192.40 C338.86 200.91, 326.53 208.41, 312.61 214.74 C298.69 221.07, 282.34 227.01, 265.33 230.37 C248.32 233.74, 229.23 234.52, 210.57 234.92 C191.91 235.33, 170.88 236.09, 153.37 232.83 C135.85 229.56, 119.67 222.05, 105.48 215.33 C91.29 208.61, 77.79 201.31, 68.22 192.50 C58.66 183.70, 52.23 173.13, 48.09 162.52 C43.95 151.91, 41.97 139.80, 43.38 128.85 C44.79 117.90, 49.37 106.71, 56.54 96.84 C63.71 86.97, 74.05 77.61, 86.41 69.63 C98.77 61.65, 114.77 54.11, 130.67 48.95 C146.58 43.79, 153.14 38.09, 181.84 38.67 C210.54 39.25, 275.25 45.12, 302.88 52.42 C330.51 59.71, 349.50 80.58, 347.63 82.44 M102.11 59.16 C113.85 51.09, 135.59 48.39, 152.61 44.74 C169.63 41.09, 186.43 37.37, 204.24 37.25 C222.04 37.13, 241.80 40.68, 259.43 44.03 C277.05 47.38, 295.13 51.05, 310.00 57.35 C324.87 63.64, 338.64 72.84, 348.66 81.79 C358.67 90.74, 365.15 100.90, 370.07 111.04 C374.98 121.18, 378.48 131.68, 378.16 142.63 C377.84 153.57, 374.60 166.54, 368.16 176.70 C361.71 186.87, 352.22 195.88, 339.50 203.60 C326.77 211.32, 307.72 218.32, 291.83 223.02 C275.94 227.73, 261.65 229.61, 244.16 231.83 C226.66 234.05, 205.21 237.60, 186.85 236.33 C168.49 235.05, 150.06 229.52, 134.01 224.18 C117.95 218.85, 103.52 212.03, 90.55 204.29 C77.57 196.55, 64.26 186.85, 56.14 177.76 C48.02 168.67, 43.75 160.17, 41.82 149.76 C39.89 139.34, 40.71 126.30, 44.57 115.27 C48.43 104.23, 55.11 92.26, 64.99 83.52 C74.87 74.78, 97.05 65.97, 103.85 62.82 C110.64 59.67, 104.20 63.94, 105.77 64.61" fill="none" stroke="#202020" stroke-width="3" stroke-linecap="round" stroke-linejoin="round"/><path d="M137.05 128.28 C137.75 127.40, 140.37 128.72, 142.06 128.51 C143.75 128.31, 146.27 126.80, 147.18 127.05 C148.08 127.31, 147.39 128.76, 147.51 130.05 C147.63 131.34, 148.04 133.91, 147.88 134.80 C147.72 135.70, 147.76 135.36, 146.55 135.42 C145.35 135.49, 141.93 135.04, 140.63 135.18 C139.33 135.33, 139.35 136.68, 138.74 136.28 C138.14 135.87, 136.73 134.39, 137.01 132.77 C137.28 131.15, 139.07 127.38, 140.39 126.55 C141.72 125.72, 144.64 127.77, 144.96 127.80 M136.94 126.99 C138.11 126.32, 142.25 124.46, 144.10 124.58 C145.94 124.69, 147.76 126.35, 148.03 127.69 C148.30 129.03, 145.79 131.33, 145.73 132.63 C145.67 133.93, 147.58 135.31, 147.65 135.47 C147.73 135.64, 147.63 133.13, 146.20 133.61 C144.77 134.08, 140.94 138.57, 139.08 138.31 C137.21 138.05, 135.49 133.67, 135.01 132.06 C134.53 130.45, 134.98 129.10, 136.20 128.64 C137.42 128.18, 141.54 129.41, 142.33 129.31 C143.12 129.21, 141.16 127.87, 140.93 128.02" fill="#faf7ef" stroke="none"/><path d="M141.55 128.25 C142.36 127.99, 143.11 125.98, 144.33 126.40 C145.54 126.83, 148.41 129.55, 148.85 130.81 C149.29 132.07, 147.21 132.84, 146.96 133.97 C146.70 135.11, 147.88 137.04, 147.32 137.60 C146.76 138.17, 144.93 137.96, 143.61 137.36 C142.28 136.75, 140.40 134.55, 139.35 133.98 C138.31 133.40, 137.76 134.49, 137.34 133.91 C136.92 133.33, 136.21 131.75, 136.84 130.51 C137.47 129.27, 139.89 126.93, 141.12 126.45 C142.36 125.98, 143.72 127.63, 144.24 127.66 M143.09 128.00 C143.56 127.72, 142.22 126.42, 143.21 126.88 C144.19 127.33, 147.89 129.49, 149.03 130.73 C150.17 131.97, 150.22 133.44, 150.05 134.31 C149.87 135.18, 149.05 135.80, 147.98 135.96 C146.91 136.12, 145.56 135.54, 143.64 135.26 C141.71 134.99, 137.85 134.45, 136.44 134.34 C135.02 134.22, 135.16 135.50, 135.16 134.56 C135.16 133.61, 135.32 130.09, 136.44 128.68 C137.57 127.27, 141.19 126.61, 141.91 126.11 C142.63 125.61, 141.09 124.90, 140.77 125.66" fill="none" stroke="#202020" stroke-width="3" stroke-linecap="round" stroke-linejoin="round"/><path d="M278.12 127.29 C279.40 127.94, 281.78 130.38, 282.53 131.23 C283.29 132.08, 282.72 131.99, 282.67 132.39 C282.62 132.78, 282.85 132.85, 282.23 133.63 C281.62 134.41, 280.22 136.74, 278.98 137.06 C277.73 137.38, 275.83 136.08, 274.76 135.52 C273.69 134.96, 273.26 134.94, 272.57 133.70 C271.88 132.45, 270.29 129.03, 270.62 128.07 C270.94 127.10, 273.01 127.77, 274.54 127.92 C276.07 128.07, 278.53 128.59, 279.80 128.99 C281.07 129.40, 281.78 130.26, 282.15 130.36 M280.48 126.16 C281.12 126.99, 281.23 132.92, 281.38 134.31 C281.53 135.70, 282.05 134.25, 281.40 134.50 C280.75 134.75, 278.76 135.80, 277.48 135.81 C276.21 135.83, 274.84 135.42, 273.75 134.58 C272.66 133.74, 271.17 131.41, 270.95 130.76 C270.73 130.12, 272.10 131.18, 272.45 130.73 C272.79 130.27, 272.44 128.72, 273.02 128.02 C273.61 127.31, 274.10 125.87, 275.95 126.49 C277.80 127.11, 283.65 131.37, 284.14 131.72 C284.64 132.08, 279.04 128.55, 278.90 128.63" fill="#faf7ef" stroke="none"/><path d="M279.44 129.22 C280.22 129.56, 281.05 128.54, 281.86 129.45 C282.66 130.36, 284.33 133.44, 284.25 134.67 C284.17 135.91, 282.41 136.30, 281.38 136.87 C280.34 137.45, 279.20 138.12, 278.04 138.12 C276.87 138.13, 275.18 138.19, 274.38 136.92 C273.57 135.65, 273.51 131.73, 273.21 130.49 C272.91 129.25, 272.07 130.11, 272.58 129.45 C273.09 128.80, 274.90 126.47, 276.28 126.56 C277.66 126.64, 279.81 129.74, 280.89 129.95 C281.97 130.17, 282.95 127.94, 282.77 127.82 M283.68 126.52 C284.16 127.32, 284.20 128.74, 283.94 129.76 C283.67 130.78, 282.97 131.48, 282.11 132.64 C281.26 133.80, 280.60 136.32, 278.80 136.70 C277.01 137.09, 272.69 135.26, 271.33 134.94 C269.98 134.62, 270.70 135.30, 270.67 134.78 C270.64 134.26, 270.04 132.76, 271.16 131.82 C272.29 130.88, 275.68 129.48, 277.40 129.15 C279.11 128.81, 281.07 130.30, 281.47 129.82 C281.87 129.35, 279.73 126.44, 279.79 126.31 C279.84 126.18, 281.67 128.75, 281.80 129.05" fill="none" stroke="#202020" stroke-width="3" stroke-linecap="round" stroke-linejoin="round"/><path d="M209.23 148.43 L211.29 146.99 L215.36 155.15 L209.47 155.13" fill="#faf7ef" stroke="none"/><path d="M207.80 148.79 C209.58 149.63, 211.80 149.30, 212.86 148.94 M206.99 149.10 C208.35 148.87, 209.55 149.18, 212.60 149.16 M212.94 149.54 C211.86 150.28, 211.92 151.46, 213.54 155.06 M213.25 149.09 C213.36 151.28, 213.16 153.41, 213.04 155.40 M213.65 153.84 C211.44 154.70, 211.35 154.20, 206.64 153.93 M212.61 154.57 C210.60 154.77, 208.80 154.89, 207.23 154.86 M206.16 156.19 C205.75 152.48, 207.23 149.37, 206.64 148.04 M207.12 155.15 C206.68 153.22, 206.45 152.02, 207.30 149.29" fill="none" stroke="#202020" stroke-width="3" stroke-linecap="round" stroke-linejoin="round"/><path d="M199.80 163.03 C197.25 166.35, 196.57 169.20, 196.02 173.61 M197.95 161.31 C198.12 164.99, 197.10 167.66, 197.96 171.03" fill="none" stroke="#202020" stroke-width="3" stroke-linecap="round" stroke-linejoin="round"/><path d="M205.95 160.73 C205.07 165.66, 207.80 168.88, 205.55 172.04 M205.44 162.06 C206.75 164.61, 205.83 169.51, 206.51 172.43" fill="none" stroke="#202020" stroke-width="3" stroke-linecap="round" stroke-linejoin="round"/><path d="M213.86 163.59 C215.01 163.50, 212.63 170.35, 212.28 170.88 M213.78 161.55 C213.36 164.67, 213.56 166.62, 214.73 172.09" fill="none" stroke="#202020" stroke-width="3" stroke-linecap="round" stroke-linejoin="round"/><path d="M223.01 160.21 C222.36 165.14, 222.28 170.64, 222.03 172.60 M221.58 161.92 C221.96 165.79, 221.87 169.35, 221.33 172.95" fill="none" stroke="#202020" stroke-width="3" stroke-linecap="round" stroke-linejoin="round"/><path d="M181.38 252.30 C192.54 258.81, 209.42 264.28, 234.16 271.41 M184.08 251.13 C200.31 256.79, 210.34 262.24, 235.07 276.26" fill="none" stroke="#202020" stroke-width="3" stroke-linecap="round" stroke-linejoin="round"/><path d="M232.66 249.21 C213.65 261.95, 199.14 266.62, 184.20 274.28 M233.58 249.07 C223.18 257.95, 207.11 262.71, 185.01 276.41" fill="none" stroke="#202020" stroke-width="3" stroke-linecap="round" stroke-linejoin="round"/></svg>