<svg xmlns="http://www.w3.org/2000/svg" viewBox="0 0 436 310" width="436" height="310"><path d="M273.56 46.27 C291.05 48.79, 308.18 55.16, 322.16 61.95 C336.14 68.74, 348.02 77.85, 357.44 87.00 C366.86 96.15, 374.58 106.31, 378.68 116.85 C382.79 127.39, 384.00 139.91, 382.07 150.24 C380.14 160.56, 375.58 169.08, 367.11 178.77 C358.64 188.46, 344.97 200.35, 331.26 208.39 C317.56 216.44, 301.83 222.61, 284.90 227.03 C267.97 231.45, 247.80 233.96, 229.68 234.91 C211.55 235.86, 193.89 234.68, 176.14 232.73 C158.39 230.78, 139.71 228.31, 123.18 223.19 C106.65 218.08, 89.52 210.22, 76.99 202.03 C64.46 193.84, 54.50 184.30, 48.01 174.04 C41.52 163.78, 38.81 151.26, 38.05 140.48 C37.28 129.69, 37.99 119.51, 43.41 109.32 C48.83 99.14, 59.44 88.23, 70.56 79.38 C81.68 70.53, 94.96 62.12, 110.14 56.20 C125.31 50.28, 143.42 46.70, 161.59 43.84 C179.76 40.97, 198.58 37.91, 219.13 39.00 C239.68 40.10, 271.81 47.82, 284.88 50.42 C297.95 53.01, 298.33 53.45, 297.56 54.56 M197.95 35.78 C215.51 33.55, 236.30 40.29, 254.47 43.28 C272.63 46.27, 291.45 47.98, 306.93 53.71 C322.42 59.43, 336.57 69.28, 347.38 77.64 C358.18 86.00, 365.36 94.08, 371.75 103.88 C378.14 113.68, 385.69 125.35, 385.74 136.45 C385.80 147.56, 378.63 159.69, 372.08 170.52 C365.53 181.35, 358.09 193.04, 346.44 201.42 C334.78 209.80, 318.50 215.86, 302.15 220.82 C285.81 225.77, 266.53 228.62, 248.35 231.15 C230.17 233.68, 211.48 236.93, 193.07 235.99 C174.67 235.04, 154.84 229.69, 137.91 225.47 C120.99 221.25, 104.67 217.53, 91.54 210.64 C78.41 203.75, 67.66 193.59, 59.14 184.12 C50.62 174.66, 43.72 164.27, 40.41 153.84 C37.10 143.42, 36.08 132.84, 39.28 121.59 C42.48 110.35, 50.64 95.94, 59.60 86.35 C68.55 76.76, 78.71 70.77, 92.99 64.06 C107.27 57.36, 128.15 50.85, 145.27 46.13 C162.39 41.41, 187.28 36.26, 195.71 35.74 C204.15 35.22, 195.11 40.39, 195.87 43.00" fill="#faf7ef" stroke="none"/><path d="M109.40 57.78 C122.26 50.64, 142.44 45.72, 160.01 42.23 C177.58 38.74, 196.01 36.32, 214.81 36.83 C233.62 37.34, 255.27 40.91, 272.82 45.28 C290.38 49.64, 306.16 56.36, 320.13 63.02 C334.11 69.68, 346.59 76.53, 356.69 85.25 C366.78 93.97, 376.44 104.88, 380.70 115.33 C384.97 125.78, 384.82 137.51, 382.30 147.95 C379.78 158.40, 373.73 168.26, 365.56 177.98 C357.40 187.71, 346.37 198.16, 333.30 206.30 C320.23 214.44, 303.74 222.24, 287.15 226.82 C270.56 231.39, 252.19 232.54, 233.74 233.77 C215.29 234.99, 194.70 236.13, 176.44 234.16 C158.19 232.20, 140.03 227.48, 124.18 221.96 C108.33 216.45, 93.79 208.76, 81.36 201.07 C68.94 193.37, 56.86 185.51, 49.65 175.77 C42.43 166.03, 39.29 153.41, 38.10 142.62 C36.90 131.83, 37.46 121.31, 42.48 111.03 C47.50 100.74, 54.28 91.12, 68.20 80.90 C82.12 70.68, 112.95 55.43, 126.00 49.72 C139.04 44.01, 145.26 45.20, 146.47 46.62 M206.39 39.14 C223.54 38.00, 244.14 41.65, 261.84 44.58 C279.54 47.51, 297.52 50.29, 312.59 56.72 C327.66 63.15, 341.25 74.12, 352.25 83.16 C363.25 92.20, 373.13 100.52, 378.59 110.96 C384.05 121.40, 387.03 134.64, 385.00 145.79 C382.96 156.94, 373.76 168.35, 366.37 177.86 C358.98 187.37, 352.27 195.70, 340.64 202.85 C329.00 210.00, 313.34 215.99, 296.54 220.75 C279.74 225.52, 258.31 228.97, 239.81 231.45 C221.31 233.92, 203.39 236.95, 185.53 235.62 C167.66 234.28, 149.42 228.39, 132.63 223.45 C115.83 218.51, 97.99 213.51, 84.79 205.97 C71.58 198.43, 61.45 187.99, 53.38 178.22 C45.32 168.44, 37.90 157.54, 36.39 147.31 C34.87 137.09, 39.93 127.00, 44.27 116.85 C48.61 106.70, 53.22 96.11, 62.41 86.40 C71.60 76.70, 84.68 66.02, 99.41 58.63 C114.15 51.24, 132.48 44.95, 150.80 42.07 C169.12 39.19, 200.09 42.07, 209.34 41.35 C218.58 40.64, 206.53 36.14, 206.28 37.77" fill="none" stroke="#202020" stroke-width="3" stroke-linecap="round" stroke-linejoin="round"/><path d="M145.97 126.68 C146.99 127.42, 147.79 130.03, 148.19 131.01 C148.59 131.98, 148.81 131.67, 148.38 132.54 C147.96 133.41, 146.81 135.66, 145.65 136.22 C144.49 136.79, 142.69 135.87, 141.42 135.92 C140.15 135.96, 138.81 136.78, 138.01 136.47 C137.21 136.17, 136.59 134.98, 136.62 134.09 C136.65 133.19, 137.46 132.51, 138.19 131.10 C138.91 129.69, 139.70 126.18, 140.96 125.62 C142.22 125.05, 144.55 126.51, 145.74 127.69 C146.92 128.87, 148.04 132.27, 148.07 132.70 M142.52 125.03 C143.45 123.83, 142.82 123.92, 143.93 124.76 C145.04 125.59, 148.50 129.13, 149.19 130.05 C149.87 130.96, 148.41 129.12, 148.02 130.24 C147.64 131.35, 147.75 135.40, 146.86 136.71 C145.96 138.02, 144.30 138.58, 142.68 138.10 C141.06 137.61, 137.66 134.83, 137.13 133.78 C136.61 132.73, 139.74 132.17, 139.54 131.79 C139.35 131.41, 135.46 131.83, 135.96 131.51 C136.46 131.19, 141.61 130.92, 142.53 129.86 C143.46 128.80, 142.16 124.99, 141.53 125.15" fill="#faf7ef" stroke="none"/><path d="M145.86 128.37 C146.54 128.95, 148.10 131.07, 147.96 132.09 C147.83 133.10, 145.57 133.80, 145.05 134.45 C144.54 135.11, 145.30 135.32, 144.88 136.01 C144.46 136.70, 143.41 139.10, 142.54 138.58 C141.66 138.05, 140.55 134.20, 139.62 132.85 C138.68 131.49, 137.17 131.31, 136.91 130.44 C136.65 129.58, 136.91 128.36, 138.08 127.65 C139.25 126.95, 142.28 125.64, 143.92 126.20 C145.57 126.77, 147.46 129.56, 147.93 131.03 C148.39 132.49, 146.88 135.14, 146.74 135.00 M146.10 127.04 C147.50 127.67, 148.19 131.29, 148.10 132.75 C148.01 134.21, 145.86 135.22, 145.56 135.79 C145.27 136.36, 146.75 136.27, 146.34 136.16 C145.92 136.05, 144.38 135.42, 143.09 135.13 C141.80 134.84, 139.66 134.88, 138.60 134.41 C137.54 133.95, 136.84 133.25, 136.74 132.34 C136.64 131.43, 137.08 130.00, 138.01 128.97 C138.95 127.95, 141.21 125.99, 142.36 126.21 C143.51 126.43, 144.33 130.09, 144.90 130.29 C145.47 130.49, 145.80 127.64, 145.77 127.40" fill="none" stroke="#202020" stroke-width="3" stroke-linecap="round" stroke-linejoin="round"/><path d="M273.19 126.82 C273.98 125.88, 274.73 127.39, 275.81 127.43 C276.89 127.46, 278.54 126.60, 279.67 127.04 C280.80 127.48, 282.27 128.71, 282.57 130.06 C282.86 131.41, 282.01 134.18, 281.42 135.17 C280.83 136.15, 279.99 135.92, 279.02 135.96 C278.04 136.00, 276.30 135.44, 275.56 135.41 C274.83 135.38, 274.94 136.66, 274.62 135.79 C274.31 134.91, 273.61 131.81, 273.66 130.14 C273.71 128.46, 274.05 126.25, 274.94 125.75 C275.82 125.25, 278.45 126.83, 278.97 127.14 M273.48 126.90 C274.35 126.05, 278.24 128.38, 279.56 128.42 C280.89 128.47, 281.12 126.57, 281.44 127.17 C281.75 127.77, 281.69 131.20, 281.47 132.02 C281.25 132.83, 280.41 131.01, 280.11 132.04 C279.82 133.06, 280.68 137.45, 279.69 138.15 C278.70 138.85, 275.50 136.70, 274.18 136.22 C272.85 135.74, 271.87 135.59, 271.75 135.27 C271.62 134.94, 273.44 135.16, 273.44 134.26 C273.43 133.36, 271.94 131.10, 271.70 129.89 C271.46 128.68, 272.06 127.54, 272.00 127.00" fill="#faf7ef" stroke="none"/><path d="M279.80 127.66 C280.73 127.33, 279.93 126.34, 280.59 127.18 C281.26 128.01, 283.83 130.89, 283.82 132.68 C283.80 134.46, 281.37 137.39, 280.49 137.89 C279.61 138.39, 279.83 136.09, 278.53 135.69 C277.23 135.30, 273.93 135.83, 272.70 135.53 C271.47 135.23, 271.36 134.79, 271.16 133.90 C270.96 133.02, 271.06 131.41, 271.48 130.20 C271.91 128.99, 272.06 126.87, 273.71 126.63 C275.36 126.38, 280.50 128.86, 281.37 128.74 C282.24 128.63, 279.42 126.29, 278.94 125.94 M275.44 129.63 C276.76 128.75, 276.45 124.73, 277.52 124.11 C278.59 123.49, 281.08 124.84, 281.86 125.88 C282.63 126.92, 281.84 128.63, 282.18 130.36 C282.51 132.10, 284.02 135.55, 283.86 136.31 C283.69 137.06, 282.04 134.65, 281.20 134.90 C280.37 135.16, 279.96 137.28, 278.86 137.82 C277.75 138.35, 275.77 139.35, 274.57 138.11 C273.37 136.88, 271.43 132.33, 271.66 130.41 C271.89 128.50, 275.64 127.42, 275.97 126.62 C276.30 125.81, 273.83 124.93, 273.63 125.61" fill="none" stroke="#202020" stroke-width="3" stroke-linecap="round" stroke-linejoin="round"/><path d="M204.25 147.60 L215.98 145.75 L210.20 156.05 L205.86 154.94" fill="#faf7ef" stroke="none"/><path d="M207.54 147.93 C208.85 147.89, 209.44 150.15, 213.84 149.05 M207.19 149.25 C208.46 149.00, 209.36 149.14, 213.20 149.02 M211.91 149.37 C211.86 150.30, 212.74 153.41, 212.92 153.82 M212.92 148.65 C213.46 149.91, 212.76 152.07, 212.52 154.79 M213.99 155.91 C211.96 156.16, 209.54 155.12, 206.21 154.17 M212.72 154.76 C211.04 154.43, 209.57 154.79, 207.51 154.81 M206.16 154.66 C207.20 151.92, 207.60 151.69, 207.98 148.70 M206.87 154.61 C207.06 153.16, 207.24 151.05, 206.46 148.87" fill="none" stroke="#202020" stroke-width="3" stroke-linecap="round" stroke-linejoin="round"/><path d="M199.84 161.64 C198.57 165.04, 199.25 167.73, 196.55 172.35 M198.51 161.93 C197.26 164.53, 197.74 165.32, 198.90 171.51" fill="none" stroke="#202020" stroke-width="3" stroke-linecap="round" stroke-linejoin="round"/><path d="M204.72 160.94 C204.28 163.82, 205.84 170.33, 207.11 171.15 M205.51 161.10 C206.98 163.19, 205.55 166.51, 205.17 171.26" fill="none" stroke="#202020" stroke-width="3" stroke-linecap="round" stroke-linejoin="round"/><path d="M213.29 163.23 C214.82 163.82, 213.49 168.72, 213.72 170.56 M214.52 162.49 C213.52 165.38, 213.77 168.51, 214.23 171.92" fill="none" stroke="#202020" stroke-width="3" stroke-linecap="round" stroke-linejoin="round"/><path d="M223.99 161.23 C222.85 164.98, 224.18 171.61, 221.89 171.95 M222.73 161.56 C221.49 163.27, 222.83 165.60, 221.55 171.66" fill="none" stroke="#202020" stroke-width="3" stroke-linecap="round" stroke-linejoin="round"/><path d="M186.25 248.06 C199.88 254.60, 215.94 265.80, 235.64 272.51 M185.75 249.28 C200.41 257.66, 219.03 264.84, 234.58 275.32" fill="none" stroke="#202020" stroke-width="3" stroke-linecap="round" stroke-linejoin="round"/><path d="M234.43 248.31 C223.78 255.17, 207.61 260.90, 181.82 276.96 M236.19 248.18 C214.28 261.34, 195.22 269.63, 185.19 273.38" fill="none" stroke="#202020" stroke-width="3" stroke-linecap="round" stroke-linejoin="round"/></svg>