<svg xmlns="http://www.w3.org/2000/svg" viewBox="0 0 900 300" width="900" height="300"><path d="M518.40 79.62 C527.26 85.81, 532.59 96.13, 537.46 106.69 C542.32 117.25, 546.16 131.02, 547.58 142.98 C549.00 154.94, 549.22 167.51, 545.99 178.46 C542.75 189.42, 535.67 199.63, 528.19 208.69 C520.71 217.76, 510.99 226.87, 501.09 232.85 C491.20 238.83, 480.62 242.87, 468.82 244.60 C457.02 246.32, 442.14 245.50, 430.29 243.20 C418.44 240.90, 407.74 236.78, 397.70 230.82 C387.66 224.86, 377.26 216.36, 370.04 207.45 C362.81 198.54, 357.64 188.53, 354.36 177.36 C351.07 166.20, 349.42 152.24, 350.31 140.44 C351.21 128.64, 353.86 117.09, 359.72 106.58 C365.59 96.08, 376.31 84.96, 385.49 77.42 C394.68 69.88, 403.62 65.32, 414.84 61.36 C426.06 57.39, 440.86 53.76, 452.80 53.65 C464.75 53.53, 472.18 50.85, 486.52 60.68 C500.86 70.51, 528.68 98.02, 538.84 112.63 C548.99 127.24, 548.40 147.92, 547.46 148.36 M372.83 91.69 C377.99 82.05, 388.24 75.36, 397.76 68.87 C407.28 62.38, 418.43 55.30, 429.94 52.76 C441.45 50.22, 455.18 50.67, 466.81 53.62 C478.43 56.56, 489.68 63.67, 499.70 70.45 C509.73 77.23, 518.93 85.40, 526.94 94.29 C534.96 103.18, 544.60 113.12, 547.80 123.81 C551.00 134.49, 547.66 147.05, 546.15 158.39 C544.63 169.73, 543.24 181.34, 538.71 191.86 C534.18 202.37, 528.18 213.12, 518.96 221.50 C509.74 229.89, 494.82 238.09, 483.42 242.14 C472.01 246.20, 461.54 246.45, 450.53 245.83 C439.53 245.20, 428.94 242.91, 417.38 238.39 C405.82 233.87, 390.67 226.57, 381.18 218.70 C371.68 210.83, 365.49 200.87, 360.42 191.16 C355.34 181.45, 352.12 172.04, 350.74 160.44 C349.36 148.83, 348.98 132.84, 352.13 121.52 C355.29 110.19, 365.95 97.34, 369.67 92.47 C373.38 87.61, 373.25 91.19, 374.40 92.34" fill="#faf7ef" stroke="none"/><path d="M410.44 60.45 C420.35 54.64, 436.74 52.47, 449.13 52.60 C461.52 52.73, 473.94 57.01, 484.79 61.23 C495.65 65.44, 505.70 70.33, 514.26 77.89 C522.82 85.46, 530.16 96.70, 536.16 106.63 C542.16 116.55, 548.53 125.98, 550.25 137.44 C551.98 148.89, 549.61 163.62, 546.51 175.37 C543.41 187.11, 538.54 198.95, 531.65 207.90 C524.75 216.86, 515.63 223.07, 505.14 229.12 C494.66 235.18, 480.52 241.30, 468.74 244.23 C456.97 247.16, 446.20 248.84, 434.51 246.70 C422.82 244.55, 408.89 237.42, 398.61 231.38 C388.33 225.33, 379.98 219.17, 372.83 210.42 C365.69 201.67, 359.11 190.30, 355.72 178.89 C352.34 167.47, 351.52 153.35, 352.52 141.92 C353.52 130.49, 356.89 120.42, 361.73 110.31 C366.58 100.21, 367.03 90.50, 381.59 81.26 C396.16 72.03, 431.69 57.87, 449.12 54.89 C466.55 51.91, 486.01 61.74, 486.18 63.40 M496.67 68.79 C506.71 72.89, 516.07 77.46, 524.44 86.40 C532.81 95.33, 542.32 111.07, 546.88 122.38 C551.44 133.68, 553.12 143.16, 551.81 154.22 C550.50 165.27, 543.94 177.87, 539.04 188.72 C534.14 199.57, 530.57 210.88, 522.42 219.32 C514.27 227.75, 501.59 234.56, 490.15 239.32 C478.71 244.08, 466.08 247.69, 453.80 247.87 C441.52 248.05, 427.55 244.46, 416.47 240.38 C405.40 236.31, 396.52 230.47, 387.34 223.43 C378.16 216.39, 367.54 207.73, 361.38 198.14 C355.22 188.55, 351.55 177.82, 350.38 165.88 C349.21 153.94, 351.86 137.83, 354.35 126.50 C356.83 115.17, 358.44 107.09, 365.30 97.91 C372.15 88.73, 385.05 77.91, 395.48 71.42 C405.91 64.93, 416.26 62.23, 427.87 58.95 C439.47 55.66, 453.14 50.44, 465.11 51.72 C477.09 53.00, 494.31 63.58, 499.72 66.63 C505.13 69.69, 498.82 68.73, 497.55 70.03" fill="none" stroke="#202020" stroke-width="2" stroke-linecap="round" stroke-linejoin="round"/><path d="M450.44 50.45 C449.82 50.44, 450.06 48.88, 449.38 46.41 M450.01 51.11 C449.77 49.89, 450.36 48.43, 449.86 46.60" fill="none" stroke="#202020" stroke-width="2" stroke-linecap="round" stroke-linejoin="round"/><path d="M499.92 63.78 C499.31 62.56, 500.49 61.82, 500.97 61.14 M499.27 64.27 C499.84 63.20, 500.39 62.79, 501.42 60.50" fill="none" stroke="#202020" stroke-width="2" stroke-linecap="round" stroke-linejoin="round"/><path d="M535.82 101.12 C537.07 100.03, 538.15 100.32, 539.45 97.75 M536.12 100.69 C536.59 99.80, 537.93 99.52, 539.51 98.53" fill="none" stroke="#202020" stroke-width="2" stroke-linecap="round" stroke-linejoin="round"/><path d="M549.03 150.51 C550.60 150.42, 551.49 150.38, 553.25 150.57 M548.73 149.99 C550.11 149.81, 551.41 149.81, 552.80 150.20" fill="none" stroke="#202020" stroke-width="2" stroke-linecap="round" stroke-linejoin="round"/><path d="M536.48 199.90 C536.80 199.74, 536.73 199.86, 539.20 201.57 M535.92 199.78 C536.93 200.23, 537.97 200.41, 538.97 201.79" fill="none" stroke="#202020" stroke-width="2" stroke-linecap="round" stroke-linejoin="round"/><path d="M498.75 236.29 C499.38 236.66, 500.51 237.29, 500.81 239.92 M499.38 235.90 C500.17 236.55, 500.32 238.14, 501.32 239.41" fill="none" stroke="#202020" stroke-width="2" stroke-linecap="round" stroke-linejoin="round"/><path d="M450.01 248.37 C450.50 250.66, 450.62 252.39, 450.23 252.41 M449.83 248.84 C449.57 250.09, 450.27 251.02, 450.00 252.94" fill="none" stroke="#202020" stroke-width="2" stroke-linecap="round" stroke-linejoin="round"/><path d="M400.97 236.06 C399.79 237.76, 398.74 237.89, 398.00 238.99 M400.51 235.53 C399.94 236.72, 398.74 238.40, 398.10 238.84" fill="none" stroke="#202020" stroke-width="2" stroke-linecap="round" stroke-linejoin="round"/><path d="M364.15 199.66 C363.78 200.45, 362.45 200.79, 361.11 200.70 M364.25 199.61 C363.18 200.02, 362.20 200.61, 361.11 201.42" fill="none" stroke="#202020" stroke-width="2" stroke-linecap="round" stroke-linejoin="round"/><path d="M351.06 149.43 C348.91 150.42, 348.36 150.24, 347.63 149.39 M351.28 150.27 C349.68 150.30, 348.13 149.66, 347.37 150.09" fill="none" stroke="#202020" stroke-width="2" stroke-linecap="round" stroke-linejoin="round"/><path d="M363.62 100.05 C362.54 99.78, 361.87 99.35, 361.08 98.31 M363.91 100.40 C363.60 99.61, 362.56 99.70, 360.91 98.48" fill="none" stroke="#202020" stroke-width="2" stroke-linecap="round" stroke-linejoin="round"/><path d="M399.80 64.04 C399.19 62.72, 399.77 61.61, 397.91 60.23 M400.26 64.50 C399.94 62.94, 398.94 61.72, 398.45 60.71" fill="none" stroke="#202020" stroke-width="2" stroke-linecap="round" stroke-linejoin="round"/><path d="M450.41 151.50 C455.05 161.30, 467.37 171.34, 483.61 197.99 M451.87 150.42 C460.20 164.59, 472.72 181.07, 488.60 201.80" fill="none" stroke="#202020" stroke-width="2" stroke-linecap="round" stroke-linejoin="round"/></svg>