<svg xmlns="http://www.w3.org/2000/svg" viewBox="0 0 960 420" width="960" height="420"><path d="M493.34 62.86 C507.58 61.74, 524.15 67.47, 537.97 73.73 C551.79 79.99, 565.37 90.20, 576.26 100.41 C587.15 110.62, 596.21 121.71, 603.29 135.01 C610.38 148.32, 615.79 165.01, 618.75 180.22 C621.71 195.42, 622.56 211.63, 621.07 226.24 C619.58 240.86, 615.60 254.48, 609.81 267.93 C604.01 281.39, 595.84 295.38, 586.30 306.99 C576.77 318.61, 564.90 329.45, 552.59 337.62 C540.27 345.78, 527.17 352.61, 512.40 355.97 C497.62 359.33, 479.08 359.26, 463.93 357.79 C448.78 356.32, 434.77 353.58, 421.51 347.14 C408.25 340.71, 395.44 329.68, 384.36 319.18 C373.27 308.68, 362.71 296.85, 355.00 284.14 C347.30 271.43, 340.75 257.52, 338.15 242.93 C335.54 228.33, 337.84 211.70, 339.40 196.55 C340.95 181.39, 341.99 166.40, 347.47 151.99 C352.96 137.57, 362.16 121.41, 372.30 110.06 C382.44 98.71, 395.70 91.30, 408.29 83.87 C420.89 76.44, 432.51 68.81, 447.88 65.46 C463.24 62.12, 490.39 63.30, 500.49 63.79 C510.60 64.29, 508.70 65.93, 508.50 68.42 M577.22 101.50 C589.25 110.13, 596.98 124.64, 604.36 137.52 C611.73 150.40, 618.23 164.01, 621.47 178.80 C624.72 193.60, 625.32 210.69, 623.84 226.29 C622.36 241.89, 618.62 258.65, 612.61 272.38 C606.59 286.12, 597.64 297.50, 587.77 308.72 C577.91 319.93, 566.03 332.14, 553.40 339.67 C540.78 347.21, 526.40 350.92, 512.04 353.94 C497.69 356.95, 482.09 359.14, 467.29 357.76 C452.49 356.39, 437.58 351.83, 423.24 345.66 C408.89 339.50, 392.72 331.52, 381.22 320.77 C369.71 310.01, 361.14 294.44, 354.19 281.12 C347.23 267.79, 342.35 255.48, 339.47 240.83 C336.59 226.19, 334.80 208.65, 336.92 193.23 C339.04 177.82, 345.90 162.07, 352.18 148.33 C358.46 134.59, 365.18 122.17, 374.61 110.80 C384.03 99.43, 396.30 87.40, 408.75 80.09 C421.20 72.78, 435.33 69.46, 449.31 66.92 C463.30 64.38, 477.53 63.16, 492.68 64.86 C507.84 66.56, 526.76 71.40, 540.25 77.12 C553.74 82.83, 567.62 95.33, 573.61 99.16 C579.61 102.98, 577.41 98.30, 576.21 100.09" fill="#faf7ef" stroke="none"/><path d="M467.09 61.19 C481.12 57.01, 496.23 60.72, 510.67 63.96 C525.10 67.20, 540.90 72.76, 553.68 80.63 C566.45 88.50, 577.81 99.39, 587.32 111.18 C596.83 122.96, 604.62 137.35, 610.75 151.32 C616.88 165.30, 622.78 180.02, 624.10 195.03 C625.42 210.04, 621.80 226.83, 618.66 241.38 C615.51 255.93, 612.69 269.05, 605.23 282.33 C597.77 295.62, 585.16 310.83, 573.90 321.08 C562.64 331.34, 550.96 338.09, 537.68 343.87 C524.41 349.66, 509.12 354.29, 494.24 355.78 C479.37 357.26, 462.67 355.87, 448.44 352.78 C434.21 349.69, 421.60 344.50, 408.89 337.23 C396.18 329.95, 382.20 320.10, 372.19 309.11 C362.18 298.12, 354.41 285.56, 348.83 271.30 C343.24 257.04, 340.34 239.03, 338.67 223.55 C336.99 208.07, 336.02 193.21, 338.80 178.44 C341.58 163.67, 347.98 147.73, 355.33 134.92 C362.68 122.11, 371.84 111.33, 382.89 101.59 C393.94 91.86, 403.28 82.87, 421.61 76.52 C439.94 70.16, 476.11 64.42, 492.88 63.48 C509.65 62.55, 522.30 68.46, 522.22 70.91 M372.05 108.28 C379.98 96.15, 398.06 89.81, 411.30 82.32 C424.55 74.83, 436.86 66.22, 451.52 63.35 C466.17 60.48, 484.65 63.30, 499.25 65.09 C513.86 66.88, 526.04 68.39, 539.14 74.09 C552.25 79.79, 566.97 88.93, 577.87 99.28 C588.77 109.63, 597.87 123.01, 604.53 136.21 C611.19 149.42, 614.73 163.68, 617.83 178.49 C620.92 193.31, 624.45 209.06, 623.10 225.12 C621.76 241.17, 616.14 260.90, 609.74 274.81 C603.34 288.72, 594.64 297.53, 584.71 308.60 C574.78 319.67, 563.02 333.58, 550.17 341.23 C537.32 348.88, 521.66 351.92, 507.61 354.49 C493.57 357.05, 480.26 358.57, 465.90 356.61 C451.53 354.66, 435.03 349.59, 421.41 342.76 C407.80 335.93, 395.26 326.00, 384.19 315.64 C373.13 305.28, 362.61 293.86, 355.02 280.60 C347.43 267.34, 341.46 250.44, 338.65 236.08 C335.84 221.72, 336.11 209.38, 338.16 194.45 C340.21 179.52, 344.94 160.95, 350.96 146.51 C356.98 132.08, 369.70 113.42, 374.25 107.87 C378.81 102.32, 376.56 111.58, 378.26 113.20" fill="none" stroke="#202020" stroke-width="2" stroke-linecap="round" stroke-linejoin="round"/><path d="M479.63 68.29 C479.78 67.64, 480.37 65.57, 479.21 65.27 M480.02 68.93 C480.34 67.76, 480.05 66.15, 479.90 65.07" fill="none" stroke="#202020" stroke-width="2" stroke-linecap="round" stroke-linejoin="round"/><path d="M550.40 88.60 C551.26 86.35, 552.53 86.55, 552.34 83.83 M550.32 87.69 C550.94 86.39, 552.46 85.13, 552.14 84.49" fill="none" stroke="#202020" stroke-width="2" stroke-linecap="round" stroke-linejoin="round"/><path d="M602.19 139.31 C602.58 139.38, 602.79 139.01, 605.50 137.57 M602.42 139.26 C603.11 138.78, 604.73 137.75, 605.17 137.29" fill="none" stroke="#202020" stroke-width="2" stroke-linecap="round" stroke-linejoin="round"/><path d="M620.27 209.85 C622.71 210.03, 623.19 209.46, 624.38 209.40 M620.70 209.94 C622.00 209.67, 622.58 209.95, 624.65 209.67" fill="none" stroke="#202020" stroke-width="2" stroke-linecap="round" stroke-linejoin="round"/><path d="M602.77 280.65 C602.82 281.14, 603.26 280.69, 605.85 282.86 M602.12 280.15 C603.32 281.22, 604.55 281.91, 605.64 282.16" fill="none" stroke="#202020" stroke-width="2" stroke-linecap="round" stroke-linejoin="round"/><path d="M550.79 331.61 C550.81 332.49, 551.34 334.31, 552.47 335.74 M550.77 331.96 C551.08 333.15, 551.51 333.90, 552.79 335.38" fill="none" stroke="#202020" stroke-width="2" stroke-linecap="round" stroke-linejoin="round"/><path d="M480.25 351.70 C479.68 352.64, 480.17 352.80, 480.17 354.95 M479.81 350.92 C479.96 351.73, 480.36 353.41, 479.78 355.21" fill="none" stroke="#202020" stroke-width="2" stroke-linecap="round" stroke-linejoin="round"/><path d="M410.06 332.03 C408.13 333.60, 407.97 334.75, 406.92 335.52 M409.22 332.02 C408.89 332.62, 408.59 334.05, 407.75 335.61" fill="none" stroke="#202020" stroke-width="2" stroke-linecap="round" stroke-linejoin="round"/><path d="M357.84 279.99 C356.06 281.08, 356.34 281.70, 354.45 281.80 M358.27 280.86 C357.41 280.57, 355.97 281.41, 354.51 282.63" fill="none" stroke="#202020" stroke-width="2" stroke-linecap="round" stroke-linejoin="round"/><path d="M338.90 209.44 C337.88 210.40, 338.17 210.69, 335.72 210.24 M338.94 209.83 C337.77 210.21, 337.39 209.66, 334.80 210.35" fill="none" stroke="#202020" stroke-width="2" stroke-linecap="round" stroke-linejoin="round"/><path d="M357.14 140.02 C355.95 139.42, 355.93 138.25, 353.98 137.24 M358.10 139.80 C356.88 138.66, 355.09 138.23, 354.09 137.54" fill="none" stroke="#202020" stroke-width="2" stroke-linecap="round" stroke-linejoin="round"/><path d="M408.74 88.64 C409.45 87.08, 408.88 86.15, 407.54 83.88 M409.71 87.57 C408.55 86.77, 408.58 85.93, 407.89 84.12" fill="none" stroke="#202020" stroke-width="2" stroke-linecap="round" stroke-linejoin="round"/><path d="M478.95 206.33 C498.40 231.73, 509.94 255.61, 530.92 282.76 M479.80 208.29 C497.97 232.52, 513.67 259.13, 529.92 282.45" fill="none" stroke="#202020" stroke-width="2" stroke-linecap="round" stroke-linejoin="round"/></svg>