<svg xmlns="http://www.w3.org/2000/svg" viewBox="0 0 900 320" width="900" height="320"><path d="M422.90 49.48 C434.25 44.39, 449.40 46.37, 461.22 47.95 C473.05 49.52, 483.09 53.06, 493.85 58.93 C504.61 64.80, 517.37 73.06, 525.79 83.17 C534.21 93.27, 539.89 106.60, 544.36 119.56 C548.82 132.52, 552.05 147.29, 552.57 160.93 C553.09 174.57, 552.19 188.50, 547.46 201.40 C542.73 214.29, 533.16 228.60, 524.21 238.30 C515.27 248.00, 504.74 254.05, 493.79 259.58 C482.84 265.11, 470.39 269.63, 458.51 271.49 C446.63 273.35, 434.31 273.95, 422.51 270.72 C410.70 267.50, 397.60 260.78, 387.66 252.13 C377.72 243.48, 369.01 230.95, 362.88 218.82 C356.76 206.68, 352.87 192.38, 350.92 179.32 C348.96 166.25, 349.50 153.68, 351.17 140.41 C352.84 127.14, 354.79 111.65, 360.95 99.70 C367.11 87.75, 373.28 77.31, 388.14 68.70 C402.99 60.09, 435.42 50.84, 450.08 48.05 C464.73 45.26, 475.90 50.27, 476.07 51.94 M513.59 68.98 C524.69 75.45, 534.09 87.45, 539.93 98.98 C545.77 110.52, 546.82 124.85, 548.64 138.19 C550.46 151.54, 552.36 165.21, 550.83 179.05 C549.29 192.89, 545.89 209.51, 539.43 221.24 C532.98 232.98, 522.47 241.40, 512.08 249.47 C501.68 257.54, 489.08 265.50, 477.06 269.66 C465.05 273.81, 451.65 275.84, 439.99 274.38 C428.33 272.92, 418.00 267.25, 407.09 260.91 C396.19 254.57, 383.52 246.38, 374.54 236.35 C365.55 226.33, 357.54 213.36, 353.17 200.75 C348.81 188.15, 347.96 174.28, 348.36 160.73 C348.77 147.18, 351.11 132.08, 355.59 119.44 C360.07 106.79, 366.98 94.76, 375.25 84.86 C383.52 74.95, 393.92 65.94, 405.20 59.99 C416.47 54.04, 430.57 50.82, 442.90 49.13 C455.24 47.45, 467.82 46.77, 479.19 49.87 C490.57 52.98, 506.05 64.32, 511.13 67.75 C516.21 71.18, 510.13 68.57, 509.68 70.46" fill="#faf7ef" stroke="none"/><path d="M504.26 64.71 C515.56 70.25, 525.43 80.96, 532.59 91.90 C539.75 102.85, 543.66 117.45, 547.20 130.38 C550.74 143.31, 554.55 156.39, 553.81 169.46 C553.06 182.53, 548.74 196.24, 542.73 208.80 C536.72 221.35, 527.09 235.69, 517.73 244.80 C508.37 253.91, 497.68 258.53, 486.60 263.45 C475.51 268.36, 463.41 274.08, 451.22 274.29 C439.03 274.50, 424.97 269.50, 413.46 264.71 C401.95 259.92, 391.49 254.66, 382.18 245.55 C372.88 236.44, 363.38 222.71, 357.63 210.06 C351.87 197.40, 348.91 183.11, 347.67 169.60 C346.42 156.09, 346.96 141.99, 350.17 129.00 C353.38 116.01, 359.05 102.53, 366.93 91.67 C374.82 80.80, 386.60 70.82, 397.49 63.82 C408.38 56.82, 420.25 52.40, 432.25 49.67 C444.26 46.93, 454.34 42.53, 469.52 47.41 C484.69 52.30, 512.22 70.09, 523.28 78.98 C534.35 87.87, 537.60 99.27, 535.91 100.78 M374.79 81.10 C382.35 71.29, 395.63 65.38, 407.32 59.63 C419.00 53.89, 432.87 47.80, 444.91 46.66 C456.96 45.52, 468.05 48.40, 479.57 52.79 C491.09 57.17, 504.67 64.55, 514.03 72.96 C523.39 81.36, 529.88 92.08, 535.71 103.22 C541.54 114.35, 546.18 126.35, 549.01 139.76 C551.83 153.17, 554.51 170.12, 552.66 183.68 C550.81 197.24, 545.13 209.39, 537.92 221.13 C530.72 232.86, 519.89 246.35, 509.45 254.08 C499.00 261.82, 486.64 263.97, 475.27 267.55 C463.90 271.13, 452.98 276.74, 441.22 275.55 C429.47 274.37, 415.62 267.70, 404.73 260.44 C393.84 253.19, 384.51 241.99, 375.88 232.02 C367.25 222.05, 358.11 213.20, 352.94 200.63 C347.77 188.06, 344.38 170.42, 344.83 156.60 C345.28 142.79, 350.20 129.78, 355.65 117.74 C361.09 105.71, 373.79 90.34, 377.49 84.39 C381.19 78.44, 377.25 81.59, 377.84 82.03" fill="none" stroke="#202020" stroke-width="2" stroke-linecap="round" stroke-linejoin="round"/><path d="M450.72 53.93 C450.44 52.10, 450.61 51.14, 450.21 49.49 M450.02 54.19 C450.22 52.53, 449.61 51.16, 450.10 49.91" fill="none" stroke="#202020" stroke-width="2" stroke-linecap="round" stroke-linejoin="round"/><path d="M502.37 68.25 C504.20 67.08, 504.16 66.24, 505.58 64.41 M502.68 67.86 C503.40 67.09, 504.19 65.57, 505.10 64.48" fill="none" stroke="#202020" stroke-width="2" stroke-linecap="round" stroke-linejoin="round"/><path d="M542.53 107.48 C541.86 107.18, 544.20 106.73, 544.55 105.00 M541.56 107.04 C542.59 106.64, 543.84 105.77, 545.46 104.80" fill="none" stroke="#202020" stroke-width="2" stroke-linecap="round" stroke-linejoin="round"/><path d="M556.11 159.30 C557.35 159.68, 558.37 159.24, 559.43 159.83 M556.28 160.18 C557.47 159.89, 558.06 160.39, 560.34 159.77" fill="none" stroke="#202020" stroke-width="2" stroke-linecap="round" stroke-linejoin="round"/><path d="M542.38 212.64 C542.62 213.34, 544.10 213.87, 545.96 215.30 M541.67 212.97 C542.81 214.20, 544.55 214.31, 545.55 215.02" fill="none" stroke="#202020" stroke-width="2" stroke-linecap="round" stroke-linejoin="round"/><path d="M502.98 252.14 C504.30 253.05, 505.31 254.93, 504.72 255.32 M502.80 252.15 C503.83 252.91, 504.48 254.21, 505.36 255.63" fill="none" stroke="#202020" stroke-width="2" stroke-linecap="round" stroke-linejoin="round"/><path d="M449.39 266.05 C450.67 267.89, 449.42 268.60, 450.48 269.44 M449.69 266.03 C449.86 267.07, 449.93 268.68, 450.11 269.90" fill="none" stroke="#202020" stroke-width="2" stroke-linecap="round" stroke-linejoin="round"/><path d="M397.49 251.15 C397.17 252.97, 395.81 253.79, 395.09 255.18 M397.18 251.62 C396.79 252.68, 396.20 253.52, 395.16 255.07" fill="none" stroke="#202020" stroke-width="2" stroke-linecap="round" stroke-linejoin="round"/><path d="M357.42 213.45 C357.67 212.92, 356.69 213.94, 354.30 214.80 M358.17 212.93 C356.71 213.83, 355.60 214.58, 354.78 214.70" fill="none" stroke="#202020" stroke-width="2" stroke-linecap="round" stroke-linejoin="round"/><path d="M344.51 160.39 C343.50 159.36, 341.24 160.24, 339.97 160.16 M343.89 159.99 C342.73 160.23, 340.99 160.30, 340.16 159.82" fill="none" stroke="#202020" stroke-width="2" stroke-linecap="round" stroke-linejoin="round"/><path d="M358.13 106.46 C357.14 106.93, 356.57 105.56, 354.64 104.73 M358.52 106.77 C357.39 106.15, 356.46 105.74, 354.60 104.66" fill="none" stroke="#202020" stroke-width="2" stroke-linecap="round" stroke-linejoin="round"/><path d="M397.62 67.52 C396.31 67.71, 396.35 65.29, 394.40 65.11 M396.87 68.47 C396.23 67.12, 395.46 65.93, 394.69 64.73" fill="none" stroke="#202020" stroke-width="2" stroke-linecap="round" stroke-linejoin="round"/><path d="M446.75 163.43 C463.15 176.18, 480.87 199.60, 490.24 215.53 M451.45 160.26 C461.47 173.29, 469.94 186.74, 490.38 213.33" fill="none" stroke="#202020" stroke-width="2" stroke-linecap="round" stroke-linejoin="round"/></svg>