<svg xmlns="http://www.w3.org/2000/svg" viewBox="0 0 900 320" width="900" height="320"><path d="M14.34 12.81 C199.22 10.46, 382.53 11.90, 885.17 13.34 M14.23 13.45 C308.41 20.10, 603.01 20.77, 886.44 14.48 M884.51 13.18 C883.08 87.41, 884.28 159.51, 888.71 305.89 M886.84 13.19 C881.27 90.53, 880.41 168.59, 887.34 306.76 M884.54 304.67 C603.79 298.62, 321.67 299.53, 14.11 306.39 M886.24 305.74 C570.18 302.63, 255.18 302.58, 13.68 305.67 M11.55 306.97 C12.20 233.18, 10.90 166.07, 13.02 13.03 M14.76 306.09 C13.67 227.29, 13.73 148.61, 13.07 14.15" fill="none" stroke="#202020" stroke-width="2" stroke-linecap="round" stroke-linejoin="round"/><path d="M27.99 31.13 C322.66 35.59, 619.75 35.79, 872.67 32.72 M28.56 31.75 C330.12 34.59, 633.59 34.42, 872.40 32.04" fill="none" stroke="#202020" stroke-width="2" stroke-linecap="round" stroke-linejoin="round"/><path d="M27.46 117.26 C310.64 112.38, 596.35 114.80, 872.45 118.53 M27.81 117.61 C358.46 122.45, 689.89 122.69, 871.98 117.93" fill="none" stroke="#202020" stroke-width="2" stroke-linecap="round" stroke-linejoin="round"/><path d="M28.95 202.46 C337.92 202.08, 647.81 204.77, 873.39 202.81 M28.06 202.86 C330.31 196.34, 632.15 196.40, 872.53 202.55" fill="none" stroke="#202020" stroke-width="2" stroke-linecap="round" stroke-linejoin="round"/><path d="M29.47 288.24 C318.83 284.30, 612.24 284.85, 870.42 287.66 M28.38 288.40 C207.38 290.01, 384.88 290.34, 872.65 288.52" fill="none" stroke="#202020" stroke-width="2" stroke-linecap="round" stroke-linejoin="round"/></svg>