<svg xmlns="http://www.w3.org/2000/svg" viewBox="0 0 436 310" width="436" height="310"><path d="M213.27 19.09 C272.20 58.08, 338.56 100.38, 401.47 148.70 M209.56 15.45 C282.52 63.04, 353.55 111.65, 403.50 147.74 M402.07 144.77 C358.29 178.67, 305.86 214.58, 207.71 281.05 M404.14 147.97 C339.81 187.36, 279.94 226.45, 210.10 278.38 M209.85 275.92 C147.71 235.98, 85.17 199.04, 17.23 149.57 M210.15 277.74 C154.69 241.01, 96.01 202.25, 17.12 146.47 M13.19 149.03 C81.66 107.62, 147.18 58.78, 212.28 18.40 M16.58 146.74 C88.83 96.80, 161.09 47.59, 208.54 15.29" fill="none" stroke="#202020" stroke-width="3" stroke-linecap="round" stroke-linejoin="round"/><path d="M22.41 146.89 C34.19 147.46, 36.93 149.95, 54.27 148.63 M26.53 147.26 C30.62 146.26, 37.38 146.04, 52.61 145.59" fill="none" stroke="#202020" stroke-width="3" stroke-linecap="round" stroke-linejoin="round"/><path d="M370.22 150.73 C371.81 149.46, 381.49 144.23, 392.79 150.82 M370.59 145.70 C375.08 148.36, 382.17 145.37, 395.03 145.02" fill="none" stroke="#202020" stroke-width="3" stroke-linecap="round" stroke-linejoin="round"/><path d="M45.06 141.90 C45.78 142.86, 47.56 144.70, 52.47 146.05 M43.83 141.89 C45.92 143.65, 46.00 144.45, 51.33 147.25 M52.72 146.18 C48.58 149.62, 46.65 150.57, 42.85 150.54 M50.81 147.67 C48.36 148.78, 46.00 150.24, 44.36 151.82" fill="none" stroke="#202020" stroke-width="3" stroke-linecap="round" stroke-linejoin="round"/><path d="M374.77 140.54 C375.56 144.79, 372.61 145.19, 367.41 146.51 M376.51 141.56 C373.76 143.27, 373.04 143.87, 369.51 146.17 M370.56 145.75 C371.38 149.16, 373.12 150.45, 376.90 151.21 M368.45 146.30 C371.16 148.39, 373.82 150.70, 375.32 152.37" fill="none" stroke="#202020" stroke-width="3" stroke-linecap="round" stroke-linejoin="round"/></svg>