<svg xmlns="http://www.w3.org/2000/svg" viewBox="0 0 436 310" width="436" height="310"><path d="M206.86 15.11 C261.52 52.15, 311.11 86.65, 404.87 147.58 M209.58 17.13 C279.64 64.44, 348.49 110.98, 403.88 145.37 M404.88 148.15 C361.66 176.62, 311.23 204.25, 207.31 277.92 M402.66 147.81 C337.38 196.26, 267.39 241.73, 211.28 278.85 M211.81 279.26 C165.85 243.14, 120.05 211.88, 14.14 145.51 M209.51 276.66 C135.32 225.79, 60.49 173.71, 16.85 147.43 M17.12 145.92 C62.33 114.03, 116.47 83.25, 209.37 15.51 M15.47 147.82 C58.50 113.65, 101.81 84.92, 208.81 14.45" fill="none" stroke="#202020" stroke-width="3" stroke-linecap="round" stroke-linejoin="round"/><path d="M25.14 144.94 C34.70 148.98, 38.34 149.40, 53.92 148.30 M26.63 146.38 C33.91 146.44, 43.10 148.54, 51.21 148.51" fill="none" stroke="#202020" stroke-width="3" stroke-linecap="round" stroke-linejoin="round"/><path d="M372.23 146.91 C380.45 148.07, 392.14 147.55, 393.19 145.58 M367.26 146.59 C374.99 145.80, 378.63 146.15, 395.41 145.91" fill="none" stroke="#202020" stroke-width="3" stroke-linecap="round" stroke-linejoin="round"/><path d="M42.73 142.77 C45.96 143.55, 48.86 145.90, 52.49 146.21 M44.36 142.13 C45.86 144.07, 48.61 144.84, 50.32 146.64 M51.32 146.53 C48.97 150.03, 46.22 149.66, 44.81 152.11 M51.19 147.01 C48.83 149.05, 46.23 149.96, 43.70 151.88" fill="none" stroke="#202020" stroke-width="3" stroke-linecap="round" stroke-linejoin="round"/><path d="M375.40 142.37 C376.02 143.87, 371.01 144.03, 367.64 148.28 M375.95 141.32 C373.58 143.11, 372.41 145.15, 368.18 146.85 M368.32 146.58 C372.03 148.74, 374.81 150.28, 375.57 152.71 M368.58 146.17 C371.39 148.90, 373.11 149.47, 376.15 151.92" fill="none" stroke="#202020" stroke-width="3" stroke-linecap="round" stroke-linejoin="round"/></svg>