<svg xmlns="http://www.w3.org/2000/svg" viewBox="0 0 900 300" width="900" height="300"><path d="M20.53 20.26 L879.52 23.91 L883.04 278.76 L23.74 277.83" fill="#faf7ef" stroke="none"/><path d="M20.43 21.55 C292.09 21.70, 563.89 19.30, 880.23 18.47 M19.81 20.17 C346.89 26.10, 674.81 25.76, 880.25 20.18 M877.37 21.82 C878.57 119.69, 878.93 218.26, 881.30 278.92 M878.73 18.63 C882.55 104.10, 880.18 187.05, 878.51 280.77 M879.59 280.85 C600.70 276.32, 321.28 274.70, 18.91 279.04 M880.73 279.74 C567.87 273.92, 255.71 273.98, 19.42 279.53 M21.43 280.75 C19.41 187.67, 17.53 99.88, 16.84 19.25 M19.53 280.37 C23.08 179.93, 21.65 81.13, 21.59 20.51" fill="none" stroke="#202020" stroke-width="2" stroke-linecap="round" stroke-linejoin="round"/><path d="M34.50 153.72 C37.22 150.57, 42.09 153.40, 52.91 151.49 M35.86 150.77 C40.86 148.31, 49.32 148.78, 55.71 148.39" fill="none" stroke="#202020" stroke-width="2" stroke-linecap="round" stroke-linejoin="round"/><path d="M41.22 137.80 C41.15 149.69, 46.59 155.01, 43.72 162.07 M46.71 141.15 C45.87 147.74, 44.16 152.56, 45.53 161.19" fill="none" stroke="#202020" stroke-width="2" stroke-linecap="round" stroke-linejoin="round"/><path d="M848.01 139.58 C848.01 139.58, 848.01 139.58, 848.01 139.58 M848.01 139.58 C848.01 139.58, 848.01 139.58, 848.01 139.58 M853.57 145.62 C853.07 144.95, 857.99 142.31, 860.55 138.57 M852.38 146.13 C854.06 145.55, 855.37 142.46, 859.25 139.53" fill="#faf7ef" stroke="none"/><path d="M856.60 139.28 C857.32 139.55, 857.82 138.79, 858.27 139.58 C858.72 140.37, 859.56 142.69, 859.29 144.03 C859.02 145.38, 857.51 146.96, 856.66 147.66 C855.81 148.36, 855.42 148.70, 854.20 148.24 C852.98 147.77, 850.37 146.29, 849.34 144.86 C848.30 143.42, 847.68 140.95, 847.99 139.60 C848.30 138.26, 849.98 137.28, 851.22 136.78 C852.46 136.29, 854.28 135.90, 855.42 136.64 C856.57 137.39, 857.58 140.85, 858.09 141.25 C858.61 141.64, 858.42 139.63, 858.53 139.03 M848.43 140.54 C849.06 139.20, 854.46 134.98, 855.98 134.31 C857.51 133.63, 856.90 135.47, 857.59 136.47 C858.27 137.47, 859.81 139.16, 860.09 140.31 C860.37 141.45, 859.60 142.30, 859.28 143.33 C858.95 144.37, 859.22 146.28, 858.13 146.53 C857.05 146.79, 853.64 144.88, 852.76 144.85 C851.88 144.82, 853.04 147.16, 852.85 146.36 C852.66 145.56, 852.23 141.50, 851.62 140.03 C851.01 138.57, 849.64 137.26, 849.20 137.58 C848.75 137.91, 848.82 141.48, 848.93 141.98" fill="none" stroke="#202020" stroke-width="2" stroke-linecap="round" stroke-linejoin="round"/><path d="M860.75 153.31 C860.75 153.31, 860.75 153.31, 860.75 153.31 M860.75 153.31 C860.75 153.31, 860.75 153.31, 860.75 153.31 M863.36 164.26 C864.24 159.68, 865.03 158.28, 868.84 156.82 M863.22 163.90 C864.00 161.75, 864.88 159.54, 869.56 155.47" fill="#faf7ef" stroke="none"/><path d="M867.93 152.58 C868.43 153.26, 869.92 156.61, 869.77 158.18 C869.61 159.74, 867.32 161.29, 867.00 161.99 C866.67 162.68, 868.78 162.10, 867.79 162.36 C866.81 162.61, 862.34 164.13, 861.08 163.51 C859.81 162.89, 860.43 159.85, 860.22 158.64 C860.00 157.43, 859.66 157.17, 859.77 156.27 C859.87 155.36, 859.58 153.97, 860.85 153.21 C862.11 152.44, 865.94 151.71, 867.36 151.66 C868.77 151.61, 868.92 152.02, 869.32 152.93 C869.72 153.84, 869.77 156.61, 869.75 157.12 M867.59 151.48 C868.12 151.88, 868.24 154.73, 868.64 155.70 C869.04 156.66, 870.25 156.26, 869.97 157.29 C869.69 158.32, 868.28 161.30, 866.96 161.86 C865.65 162.43, 862.90 160.45, 862.08 160.67 C861.25 160.88, 862.27 163.42, 862.04 163.15 C861.81 162.87, 860.45 160.14, 860.67 159.01 C860.90 157.87, 863.08 156.82, 863.41 156.35 C863.74 155.87, 862.40 156.33, 862.65 156.16 C862.90 155.98, 863.86 156.05, 864.93 155.30 C865.99 154.56, 869.02 151.77, 869.04 151.67" fill="none" stroke="#202020" stroke-width="2" stroke-linecap="round" stroke-linejoin="round"/></svg>