<svg xmlns="http://www.w3.org/2000/svg" viewBox="0 0 960 420" width="960" height="420"><path d="M18.83 22.24 L940.63 20.18 L937.49 396.12 L19.36 399.15" fill="#faf7ef" stroke="none"/><path d="M18.45 19.33 C326.03 14.19, 630.98 11.51, 939.32 19.57 M19.21 19.78 C222.67 27.15, 424.56 26.72, 940.30 20.35 M942.22 17.89 C937.92 161.57, 940.52 300.14, 940.54 400.44 M939.73 19.37 C939.25 98.25, 937.97 177.60, 938.85 400.92 M938.70 399.32 C712.63 395.59, 487.26 396.90, 20.96 399.66 M939.70 399.85 C624.22 393.38, 307.45 393.43, 19.50 399.53 M18.57 401.64 C19.72 264.03, 18.76 128.64, 18.61 21.46 M21.11 399.66 C15.73 253.73, 16.33 107.81, 19.95 20.13" fill="none" stroke="#202020" stroke-width="2" stroke-linecap="round" stroke-linejoin="round"/><path d="M38.03 209.21 C42.16 206.87, 47.78 211.71, 55.95 206.85 M33.21 210.70 C39.19 210.20, 44.65 209.58, 55.92 211.03" fill="none" stroke="#202020" stroke-width="2" stroke-linecap="round" stroke-linejoin="round"/><path d="M43.96 200.51 C47.95 204.05, 44.92 216.11, 41.76 217.03 M46.55 200.41 C46.79 205.74, 46.51 206.50, 43.75 221.10" fill="none" stroke="#202020" stroke-width="2" stroke-linecap="round" stroke-linejoin="round"/><path d="M913.76 198.07 C913.76 198.07, 913.76 198.07, 913.76 198.07 M913.76 198.07 C913.76 198.07, 913.76 198.07, 913.76 198.07 M912.77 210.65 C916.21 208.48, 918.58 208.27, 922.03 203.66 M913.29 209.70 C916.00 208.82, 915.82 205.99, 919.61 202.66" fill="#faf7ef" stroke="none"/><path d="M916.99 197.26 C917.61 197.60, 917.43 199.77, 918.18 200.53 C918.94 201.28, 921.22 200.92, 921.52 201.81 C921.82 202.69, 920.69 204.70, 919.98 205.85 C919.27 207.00, 918.80 208.47, 917.28 208.70 C915.75 208.94, 911.71 207.84, 910.83 207.27 C909.95 206.69, 911.92 206.31, 912.01 205.25 C912.09 204.19, 911.07 202.09, 911.36 200.90 C911.66 199.70, 912.54 198.04, 913.77 198.06 C914.99 198.08, 918.47 199.41, 918.69 201.03 C918.91 202.65, 915.30 207.54, 915.08 207.79 M912.81 199.34 C913.50 198.68, 917.91 196.05, 918.78 196.87 C919.65 197.69, 918.01 202.40, 918.02 204.24 C918.03 206.09, 919.14 207.70, 918.85 207.92 C918.57 208.14, 917.59 205.43, 916.32 205.57 C915.04 205.71, 912.26 209.32, 911.19 208.76 C910.13 208.19, 910.45 203.89, 909.93 202.17 C909.42 200.45, 908.07 199.41, 908.11 198.44 C908.15 197.47, 909.40 196.98, 910.17 196.34 C910.94 195.70, 912.24 194.97, 912.71 194.61 C913.18 194.26, 912.50 194.02, 912.98 194.21" fill="none" stroke="#202020" stroke-width="2" stroke-linecap="round" stroke-linejoin="round"/><path d="M923.82 212.11 C923.82 212.11, 923.82 212.11, 923.82 212.11 M923.82 212.11 C923.82 212.11, 923.82 212.11, 923.82 212.11 M926.34 222.29 C926.11 221.57, 927.39 218.43, 930.83 217.39 M925.82 221.83 C926.83 220.74, 927.37 219.77, 930.10 216.94" fill="#faf7ef" stroke="none"/><path d="M921.14 216.03 C921.98 214.71, 922.53 213.22, 923.56 212.40 C924.59 211.58, 926.44 210.67, 927.33 211.10 C928.22 211.53, 928.23 213.77, 928.88 214.97 C929.53 216.17, 931.25 217.22, 931.24 218.28 C931.23 219.34, 930.24 220.70, 928.81 221.34 C927.38 221.98, 923.78 221.91, 922.66 222.12 C921.55 222.34, 922.34 223.28, 922.11 222.65 C921.88 222.02, 921.01 219.70, 921.29 218.36 C921.58 217.01, 923.54 215.76, 923.83 214.57 C924.11 213.37, 923.46 211.41, 923.01 211.21 M926.23 212.87 C927.50 212.25, 929.06 211.73, 929.24 212.75 C929.42 213.76, 927.03 217.93, 927.30 218.95 C927.56 219.97, 931.02 218.19, 930.83 218.87 C930.64 219.56, 927.93 222.10, 926.15 223.06 C924.36 224.02, 921.03 225.31, 920.12 224.63 C919.20 223.96, 920.72 220.58, 920.66 218.99 C920.61 217.41, 919.46 216.33, 919.80 215.13 C920.14 213.94, 921.97 212.34, 922.70 211.81 C923.43 211.28, 923.31 211.76, 924.18 211.95 C925.04 212.14, 927.58 213.25, 927.86 212.97" fill="none" stroke="#202020" stroke-width="2" stroke-linecap="round" stroke-linejoin="round"/></svg>