<svg xmlns="http://www.w3.org/2000/svg" viewBox="0 0 900 320" width="900" height="320"><path d="M22.90 17.87 L876.63 23.77 L882.97 303.17 L22.20 296.85" fill="#faf7ef" stroke="none"/><path d="M18.61 20.68 C299.06 23.53, 577.72 25.81, 881.11 20.27 M20.53 19.94 C347.53 14.77, 673.30 16.19, 879.62 20.62 M881.49 22.44 C884.61 75.39, 879.94 133.43, 878.48 300.38 M878.94 20.15 C883.52 133.14, 882.49 242.48, 880.37 301.32 M879.43 300.82 C639.10 296.18, 400.11 295.04, 19.16 299.81 M879.71 299.53 C540.14 306.08, 199.83 305.54, 20.11 300.04 M18.33 298.93 C22.44 209.30, 17.97 122.42, 20.20 22.09 M19.68 300.78 C19.66 203.25, 20.24 103.77, 19.22 18.70" fill="none" stroke="#202020" stroke-width="2" stroke-linecap="round" stroke-linejoin="round"/><path d="M34.21 163.39 C42.93 155.85, 45.02 156.03, 51.85 163.79 M34.47 161.49 C42.76 162.21, 47.38 159.95, 56.61 159.68" fill="none" stroke="#202020" stroke-width="2" stroke-linecap="round" stroke-linejoin="round"/><path d="M46.20 152.52 C47.45 157.85, 44.11 162.09, 46.50 168.52 M46.01 151.89 C45.36 157.20, 43.35 160.59, 43.87 171.15" fill="none" stroke="#202020" stroke-width="2" stroke-linecap="round" stroke-linejoin="round"/><path d="M849.89 147.84 C849.89 147.84, 849.89 147.84, 849.89 147.84 M849.89 147.84 C849.89 147.84, 849.89 147.84, 849.89 147.84 M854.55 155.44 C855.00 153.30, 858.96 151.47, 859.21 148.93 M853.57 154.85 C855.38 153.55, 857.03 151.32, 858.31 149.79" fill="#faf7ef" stroke="none"/><path d="M855.90 147.50 C856.97 148.54, 860.98 151.09, 861.91 152.24 C862.84 153.40, 862.26 153.69, 861.49 154.45 C860.73 155.22, 858.24 156.64, 857.32 156.83 C856.40 157.02, 857.02 155.96, 855.96 155.60 C854.90 155.24, 851.97 154.97, 850.97 154.66 C849.96 154.35, 850.15 154.85, 849.93 153.75 C849.72 152.65, 849.24 149.16, 849.70 148.07 C850.16 146.98, 851.17 147.31, 852.70 147.20 C854.24 147.10, 857.50 146.85, 858.89 147.43 C860.29 148.01, 861.06 150.46, 861.08 150.69 M852.83 149.36 C853.46 147.83, 854.74 144.94, 855.32 144.63 C855.91 144.33, 855.32 145.97, 856.32 147.51 C857.32 149.05, 860.76 152.70, 861.31 153.87 C861.86 155.03, 860.69 154.05, 859.62 154.50 C858.54 154.94, 855.67 156.56, 854.87 156.54 C854.07 156.52, 856.04 155.08, 854.81 154.37 C853.59 153.67, 848.78 152.67, 847.53 152.30 C846.28 151.93, 846.62 153.16, 847.32 152.16 C848.02 151.16, 850.97 147.20, 851.71 146.30 C852.46 145.41, 851.67 146.14, 851.80 146.81" fill="none" stroke="#202020" stroke-width="2" stroke-linecap="round" stroke-linejoin="round"/><path d="M859.71 164.33 C859.71 164.33, 859.71 164.33, 859.71 164.33 M859.71 164.33 C859.71 164.33, 859.71 164.33, 859.71 164.33 M861.46 172.13 C865.69 169.55, 869.63 165.07, 869.54 163.59 M862.17 173.11 C865.19 170.24, 867.69 166.02, 869.90 163.53" fill="#faf7ef" stroke="none"/><path d="M863.10 161.82 C863.83 161.11, 862.98 162.35, 864.32 162.56 C865.65 162.76, 869.88 161.96, 871.14 163.07 C872.40 164.17, 872.47 167.81, 871.88 169.19 C871.29 170.57, 868.61 170.82, 867.59 171.34 C866.57 171.85, 866.84 172.30, 865.77 172.28 C864.71 172.26, 861.92 171.52, 861.18 171.23 C860.44 170.94, 861.61 171.64, 861.33 170.53 C861.04 169.43, 859.32 165.76, 859.48 164.59 C859.64 163.42, 861.88 164.02, 862.30 163.51 C862.72 163.00, 861.61 161.48, 862.01 161.54 M857.99 165.59 C859.36 164.51, 865.05 161.76, 866.47 161.85 C867.89 161.93, 865.96 165.34, 866.52 166.09 C867.08 166.85, 869.07 165.37, 869.85 166.38 C870.63 167.38, 871.54 170.82, 871.20 172.12 C870.87 173.42, 869.23 174.29, 867.85 174.17 C866.47 174.05, 863.76 172.22, 862.90 171.43 C862.05 170.63, 863.24 170.00, 862.71 169.39 C862.19 168.77, 860.35 168.61, 859.75 167.72 C859.15 166.84, 858.46 164.62, 859.12 164.05 C859.78 163.48, 863.35 164.43, 863.72 164.30" fill="none" stroke="#202020" stroke-width="2" stroke-linecap="round" stroke-linejoin="round"/></svg>