<svg xmlns="http://www.w3.org/2000/svg" viewBox="0 0 900 320" width="900" height="320"><path d="M12.97 12.41 C261.22 17.25, 505.20 19.05, 887.51 15.05 M14.14 13.50 C351.93 13.04, 688.89 13.78, 885.91 13.88 M883.14 14.89 C880.04 81.86, 879.53 146.33, 886.46 304.34 M885.14 13.71 C885.52 113.40, 886.58 210.27, 885.77 306.64 M885.11 307.15 C661.90 311.12, 439.61 308.50, 12.77 304.64 M886.76 306.50 C680.50 310.29, 473.79 310.74, 14.21 306.70 M14.36 304.60 C13.10 217.12, 10.85 131.89, 15.86 13.17 M12.67 306.81 C17.13 204.13, 16.79 99.37, 14.63 14.76" fill="none" stroke="#202020" stroke-width="2" stroke-linecap="round" stroke-linejoin="round"/><path d="M28.56 31.28 C308.55 38.05, 587.67 37.21, 871.13 33.49 M28.16 31.25 C256.08 28.67, 486.02 27.84, 872.49 32.07" fill="none" stroke="#202020" stroke-width="2" stroke-linecap="round" stroke-linejoin="round"/><path d="M28.61 116.62 C304.31 124.54, 578.27 123.41, 870.85 118.86 M27.63 116.98 C263.14 110.44, 499.15 110.70, 872.25 117.11" fill="none" stroke="#202020" stroke-width="2" stroke-linecap="round" stroke-linejoin="round"/><path d="M27.07 202.07 C328.06 205.26, 625.58 207.24, 873.11 203.28 M28.11 202.72 C338.22 200.33, 647.32 201.35, 872.42 202.01" fill="none" stroke="#202020" stroke-width="2" stroke-linecap="round" stroke-linejoin="round"/><path d="M29.04 288.43 C269.38 293.06, 512.04 294.81, 873.37 286.52 M28.54 288.43 C304.01 291.79, 579.29 291.69, 872.28 287.23" fill="none" stroke="#202020" stroke-width="2" stroke-linecap="round" stroke-linejoin="round"/></svg>