<svg xmlns="http://www.w3.org/2000/svg" viewBox="0 0 900 300" width="900" height="300"><path d="M453.61 5.52 C455.79 7.05, 458.40 11.09, 459.72 14.32 C461.04 17.56, 461.66 21.70, 461.50 24.92 C461.34 28.14, 460.65 31.63, 458.76 33.65 C456.86 35.67, 452.81 37.21, 450.13 37.04 C447.45 36.88, 444.79 35.45, 442.69 32.67 C440.60 29.88, 437.99 23.84, 437.55 20.35 C437.10 16.86, 438.60 14.55, 440.02 11.74 C441.44 8.92, 442.02 1.75, 446.08 3.47 C450.14 5.19, 463.33 16.95, 464.38 22.07 C465.42 27.19, 453.07 34.39, 452.36 34.18 M436.77 9.57 C437.85 6.65, 441.51 3.27, 445.05 2.72 C448.59 2.17, 454.76 4.36, 457.99 6.27 C461.22 8.18, 463.68 11.46, 464.45 14.17 C465.22 16.89, 463.93 19.57, 462.59 22.55 C461.26 25.53, 458.47 29.83, 456.44 32.05 C454.41 34.27, 452.95 36.03, 450.40 35.87 C447.84 35.71, 443.61 33.71, 441.12 31.09 C438.64 28.48, 435.47 23.14, 435.47 20.19 C435.47 17.24, 440.82 14.47, 441.13 13.41 C441.44 12.35, 437.25 14.43, 437.33 13.84" fill="#faf7ef" stroke="none"/><path d="M458.79 8.82 C461.24 10.68, 463.78 15.99, 464.15 19.02 C464.52 22.05, 462.34 24.33, 461.01 27.00 C459.68 29.67, 458.70 33.63, 456.18 35.06 C453.65 36.48, 448.71 36.59, 445.87 35.56 C443.02 34.52, 440.66 31.94, 439.11 28.86 C437.55 25.77, 435.98 20.17, 436.54 17.02 C437.10 13.88, 440.36 12.31, 442.45 9.98 C444.54 7.66, 445.65 1.44, 449.07 3.07 C452.49 4.70, 461.73 14.91, 462.98 19.76 C464.23 24.61, 457.04 32.11, 456.58 32.17 M442.97 6.28 C445.49 4.55, 449.49 3.28, 452.11 3.54 C454.73 3.79, 457.32 5.51, 458.70 7.83 C460.08 10.15, 460.22 13.59, 460.39 17.44 C460.57 21.30, 461.29 27.89, 459.74 30.95 C458.20 34.02, 453.73 35.48, 451.12 35.85 C448.51 36.22, 446.20 34.78, 444.09 33.17 C441.99 31.57, 439.56 28.60, 438.48 26.21 C437.40 23.82, 437.36 21.96, 437.63 18.83 C437.89 15.70, 438.95 9.24, 440.08 7.40 C441.21 5.57, 443.78 7.35, 444.41 7.84" fill="none" stroke="#202020" stroke-width="2" stroke-linecap="round" stroke-linejoin="round"/><path d="M451.86 33.44 C452.62 44.53, 456.08 52.36, 463.06 67.26 M449.35 33.96 C454.86 42.55, 456.59 55.06, 458.58 69.14" fill="none" stroke="#202020" stroke-width="2" stroke-linecap="round" stroke-linejoin="round"/><path d="M449.51 45.94 C459.79 40.97, 469.77 30.89, 472.92 32.74 M450.29 45.76 C458.51 38.56, 468.28 32.29, 471.00 28.73" fill="none" stroke="#202020" stroke-width="2" stroke-linecap="round" stroke-linejoin="round"/><path d="M459.00 65.55 C449.99 72.18, 447.80 77.54, 442.34 93.21 M455.23 67.10 C449.35 76.74, 445.68 82.36, 440.10 92.65" fill="none" stroke="#202020" stroke-width="2" stroke-linecap="round" stroke-linejoin="round"/><path d="M456.29 66.28 C459.09 79.36, 465.26 87.22, 467.34 90.68 M455.62 70.14 C459.42 74.79, 459.64 76.81, 470.39 89.31" fill="none" stroke="#202020" stroke-width="2" stroke-linecap="round" stroke-linejoin="round"/><path d="M7.20 75.38 C9.06 82.80, 18.19 81.22, 25.48 77.50 M6.69 78.41 C10.72 78.37, 14.16 79.13, 24.36 79.11" fill="none" stroke="#202020" stroke-width="2" stroke-linecap="round" stroke-linejoin="round"/><path d="M8.99 84.07 C12.36 88.25, 16.78 88.37, 22.94 88.17 M9.70 85.15 C14.46 85.84, 18.82 85.52, 23.11 84.81" fill="none" stroke="#202020" stroke-width="2" stroke-linecap="round" stroke-linejoin="round"/></svg>