<svg xmlns="http://www.w3.org/2000/svg" viewBox="0 0 960 420" width="960" height="420"><path d="M475.57 9.09 C477.94 8.40, 482.56 8.54, 484.89 9.49 C487.22 10.43, 488.57 12.70, 489.55 14.75 C490.52 16.80, 490.56 19.40, 490.75 21.81 C490.95 24.21, 492.30 27.24, 490.73 29.16 C489.15 31.08, 484.50 33.28, 481.28 33.32 C478.07 33.37, 473.88 31.17, 471.43 29.45 C468.99 27.72, 467.04 25.26, 466.62 22.96 C466.21 20.65, 466.47 18.30, 468.95 15.62 C471.43 12.93, 478.75 8.01, 481.51 6.85 C484.28 5.68, 485.63 8.05, 485.55 8.60 M470.47 7.72 C472.70 5.22, 479.10 5.79, 481.56 6.13 C484.01 6.46, 482.96 7.48, 485.22 9.72 C487.47 11.97, 494.18 17.27, 495.09 19.61 C496.01 21.94, 492.80 21.63, 490.70 23.74 C488.60 25.86, 485.35 31.11, 482.49 32.29 C479.62 33.48, 475.86 32.23, 473.50 30.86 C471.13 29.50, 469.36 25.93, 468.30 24.08 C467.24 22.22, 466.53 21.81, 467.13 19.72 C467.73 17.63, 471.22 12.71, 471.90 11.52 C472.58 10.33, 471.54 12.25, 471.22 12.55" fill="#faf7ef" stroke="none"/><path d="M484.15 9.72 C486.44 10.27, 489.17 11.05, 490.62 13.23 C492.07 15.41, 493.04 19.85, 492.83 22.80 C492.63 25.74, 491.28 29.43, 489.40 30.88 C487.53 32.34, 484.30 31.89, 481.58 31.52 C478.86 31.15, 475.16 30.06, 473.08 28.66 C471.00 27.27, 470.03 25.50, 469.09 23.15 C468.16 20.81, 466.28 16.74, 467.49 14.59 C468.69 12.44, 472.22 9.62, 476.32 10.24 C480.41 10.86, 490.49 15.11, 492.05 18.32 C493.61 21.52, 485.83 29.57, 485.66 29.47 M492.45 11.79 C493.84 13.56, 494.28 18.47, 493.52 21.38 C492.76 24.29, 489.74 26.97, 487.90 29.25 C486.06 31.53, 485.11 34.93, 482.48 35.06 C479.84 35.19, 474.94 32.35, 472.10 30.01 C469.26 27.68, 466.12 23.20, 465.42 21.02 C464.72 18.85, 466.03 18.70, 467.90 16.98 C469.77 15.26, 474.50 11.84, 476.64 10.71 C478.79 9.57, 478.62 9.86, 480.77 10.16 C482.91 10.47, 488.40 11.65, 489.51 12.54 C490.62 13.42, 487.27 15.17, 487.43 15.46" fill="none" stroke="#202020" stroke-width="2" stroke-linecap="round" stroke-linejoin="round"/><path d="M483.13 35.80 C484.50 49.71, 485.13 60.83, 490.35 65.99 M480.07 34.15 C483.23 48.52, 489.12 61.36, 491.28 69.83" fill="none" stroke="#202020" stroke-width="2" stroke-linecap="round" stroke-linejoin="round"/><path d="M479.59 42.74 C485.17 45.63, 486.25 36.29, 505.28 31.72 M481.15 47.31 C486.83 43.00, 489.67 37.90, 501.05 29.09" fill="none" stroke="#202020" stroke-width="2" stroke-linecap="round" stroke-linejoin="round"/><path d="M483.65 66.41 C479.54 77.82, 471.19 86.65, 467.18 90.10 M484.19 70.50 C479.38 78.39, 473.67 83.83, 468.33 92.28" fill="none" stroke="#202020" stroke-width="2" stroke-linecap="round" stroke-linejoin="round"/><path d="M483.79 67.80 C488.11 72.95, 489.95 81.76, 500.12 88.48 M486.35 67.47 C487.73 72.54, 492.39 79.24, 498.40 90.69" fill="none" stroke="#202020" stroke-width="2" stroke-linecap="round" stroke-linejoin="round"/><path d="M4.36 75.89 C12.05 82.68, 11.65 80.15, 22.23 81.69 M5.17 77.35 C10.63 78.40, 16.02 79.20, 25.18 77.43" fill="none" stroke="#202020" stroke-width="2" stroke-linecap="round" stroke-linejoin="round"/><path d="M8.15 85.03 C14.98 85.46, 19.33 87.90, 20.30 85.80 M10.68 85.46 C13.34 86.34, 17.44 86.38, 21.58 86.80" fill="none" stroke="#202020" stroke-width="2" stroke-linecap="round" stroke-linejoin="round"/></svg>