<svg xmlns="http://www.w3.org/2000/svg" viewBox="0 0 900 320" width="900" height="320"><path d="M441.33 8.30 C443.73 6.59, 447.14 5.88, 450.40 5.83 C453.66 5.77, 458.70 6.13, 460.89 7.99 C463.08 9.86, 463.11 13.50, 463.56 17.02 C464.01 20.53, 465.52 25.96, 463.58 29.06 C461.64 32.16, 455.41 34.66, 451.90 35.60 C448.38 36.54, 445.24 35.98, 442.48 34.69 C439.73 33.40, 436.39 30.86, 435.37 27.87 C434.35 24.87, 433.52 20.22, 436.35 16.73 C439.18 13.23, 448.33 7.97, 452.34 6.89 C456.35 5.80, 460.62 9.88, 460.42 10.23 M440.63 8.54 C442.85 6.15, 446.70 3.01, 450.49 3.53 C454.28 4.05, 460.84 8.80, 463.39 11.66 C465.95 14.51, 465.97 17.59, 465.83 20.65 C465.68 23.72, 464.14 27.93, 462.50 30.06 C460.86 32.19, 458.71 33.27, 455.98 33.44 C453.25 33.60, 449.12 32.72, 446.13 31.07 C443.13 29.41, 439.47 25.80, 438.00 23.52 C436.52 21.24, 436.57 19.66, 437.27 17.39 C437.97 15.12, 441.54 11.87, 442.19 9.89 C442.84 7.92, 440.68 5.23, 441.15 5.56" fill="#faf7ef" stroke="none"/><path d="M447.13 7.78 C450.15 6.97, 452.28 7.02, 455.21 8.14 C458.13 9.27, 463.40 12.03, 464.69 14.51 C465.99 17.00, 463.99 19.93, 462.99 23.06 C461.98 26.19, 460.79 31.33, 458.68 33.30 C456.57 35.26, 453.50 35.50, 450.32 34.86 C447.13 34.22, 442.15 31.83, 439.55 29.47 C436.96 27.12, 434.87 23.47, 434.73 20.75 C434.59 18.04, 434.65 15.30, 438.73 13.18 C442.82 11.05, 454.96 6.42, 459.24 8.01 C463.53 9.59, 464.40 22.07, 464.45 22.67 M444.96 8.95 C448.20 7.68, 453.90 5.68, 457.15 6.25 C460.40 6.81, 462.91 9.71, 464.44 12.36 C465.97 15.01, 467.12 18.75, 466.35 22.13 C465.57 25.51, 462.26 30.45, 459.78 32.64 C457.31 34.83, 454.58 35.91, 451.49 35.26 C448.40 34.61, 443.94 31.02, 441.24 28.74 C438.54 26.45, 435.62 24.16, 435.28 21.58 C434.95 19.00, 437.30 15.52, 439.24 13.26 C441.18 10.99, 445.93 8.63, 446.91 8.00 C447.90 7.36, 445.65 9.87, 445.14 9.46" fill="none" stroke="#202020" stroke-width="2" stroke-linecap="round" stroke-linejoin="round"/><path d="M448.71 36.58 C452.38 42.02, 456.58 56.88, 456.04 65.95 M450.57 33.69 C453.74 45.13, 455.99 59.27, 461.44 69.28" fill="none" stroke="#202020" stroke-width="2" stroke-linecap="round" stroke-linejoin="round"/><path d="M453.62 47.64 C455.65 40.64, 462.27 39.25, 473.06 26.91 M448.29 47.45 C457.61 39.92, 461.60 35.31, 470.99 29.40" fill="none" stroke="#202020" stroke-width="2" stroke-linecap="round" stroke-linejoin="round"/><path d="M453.86 68.81 C450.55 76.03, 447.22 80.35, 436.11 96.50 M453.12 70.48 C451.57 75.87, 446.20 81.75, 441.21 92.08" fill="none" stroke="#202020" stroke-width="2" stroke-linecap="round" stroke-linejoin="round"/><path d="M457.17 70.07 C457.63 70.41, 460.04 78.49, 467.98 90.26 M453.33 68.57 C457.69 74.50, 463.60 77.93, 469.33 88.39" fill="none" stroke="#202020" stroke-width="2" stroke-linecap="round" stroke-linejoin="round"/><path d="M4.78 75.35 C12.51 77.09, 15.70 76.96, 28.58 79.88 M4.37 80.80 C10.97 80.64, 22.00 78.70, 24.67 78.14" fill="none" stroke="#202020" stroke-width="2" stroke-linecap="round" stroke-linejoin="round"/><path d="M9.42 87.07 C13.77 84.93, 16.87 84.83, 23.10 88.36 M10.21 85.77 C14.21 85.91, 17.71 85.47, 22.73 85.94" fill="none" stroke="#202020" stroke-width="2" stroke-linecap="round" stroke-linejoin="round"/></svg>