<svg xmlns="http://www.w3.org/2000/svg" viewBox="0 0 900 320" width="900" height="320"><path d="M15.08 12.51 C253.76 15.03, 495.44 15.14, 886.01 14.20 M13.34 13.95 C329.16 8.46, 644.99 8.25, 886.46 13.81 M884.42 15.49 C884.45 74.08, 886.63 137.15, 886.32 304.89 M885.31 13.03 C886.26 117.84, 886.73 221.34, 886.17 306.38 M885.37 304.80 C590.88 298.79, 296.17 298.60, 14.71 305.32 M885.88 305.98 C656.17 304.16, 427.41 302.93, 13.51 305.91 M13.34 307.58 C16.88 206.74, 17.67 103.07, 15.00 16.02 M13.71 307.02 C15.16 194.66, 15.31 86.51, 15.40 15.07" fill="none" stroke="#202020" stroke-width="2" stroke-linecap="round" stroke-linejoin="round"/><path d="M28.79 31.83 C303.64 37.28, 578.93 36.38, 870.74 33.17 M28.58 31.86 C264.13 35.54, 500.04 35.27, 872.74 32.47" fill="none" stroke="#202020" stroke-width="2" stroke-linecap="round" stroke-linejoin="round"/><path d="M29.46 116.80 C268.78 110.53, 508.53 111.49, 872.34 117.82 M27.71 117.75 C290.61 120.18, 553.76 119.68, 872.76 117.69" fill="none" stroke="#202020" stroke-width="2" stroke-linecap="round" stroke-linejoin="round"/><path d="M27.32 201.71 C211.82 209.78, 396.29 210.30, 873.27 202.42 M27.70 201.92 C348.47 202.69, 667.78 202.55, 872.77 203.13" fill="none" stroke="#202020" stroke-width="2" stroke-linecap="round" stroke-linejoin="round"/><path d="M26.41 289.01 C213.92 289.90, 397.32 288.56, 872.23 287.66 M28.50 288.64 C338.29 294.73, 649.90 294.83, 872.65 287.94" fill="none" stroke="#202020" stroke-width="2" stroke-linecap="round" stroke-linejoin="round"/></svg>