<svg xmlns="http://www.w3.org/2000/svg" viewBox="0 0 900 300" width="900" height="300"><path d="M460.41 11.63 C462.99 13.36, 464.34 15.81, 464.36 18.10 C464.38 20.40, 462.46 23.08, 460.54 25.43 C458.61 27.77, 455.34 31.21, 452.80 32.16 C450.25 33.11, 447.56 32.14, 445.25 31.14 C442.94 30.14, 440.51 28.36, 438.92 26.15 C437.34 23.93, 435.18 20.63, 435.74 17.86 C436.29 15.09, 439.71 11.46, 442.26 9.50 C444.82 7.54, 447.69 4.61, 451.05 6.10 C454.41 7.60, 460.89 15.02, 462.43 18.48 C463.97 21.94, 460.41 26.96, 460.31 26.87 M458.19 5.60 C460.46 6.60, 458.34 12.77, 459.66 15.42 C460.97 18.08, 466.46 18.58, 466.10 21.53 C465.73 24.48, 460.25 31.46, 457.47 33.13 C454.69 34.80, 451.87 31.75, 449.42 31.53 C446.97 31.32, 444.73 34.01, 442.77 31.83 C440.81 29.65, 438.15 21.53, 437.67 18.45 C437.18 15.36, 438.07 14.69, 439.86 13.31 C441.66 11.94, 446.26 11.41, 448.42 10.18 C450.58 8.94, 451.43 6.47, 452.82 5.91 C454.20 5.36, 456.53 6.61, 456.72 6.84" fill="#faf7ef" stroke="none"/><path d="M458.83 8.25 C461.21 10.00, 461.43 14.36, 461.91 17.12 C462.38 19.88, 462.90 22.52, 461.67 24.82 C460.43 27.12, 457.09 29.67, 454.49 30.92 C451.88 32.17, 448.68 32.90, 446.03 32.30 C443.39 31.70, 440.13 29.39, 438.60 27.31 C437.07 25.24, 436.66 22.54, 436.87 19.86 C437.08 17.19, 438.03 13.62, 439.86 11.29 C441.69 8.95, 444.13 5.70, 447.84 5.86 C451.56 6.02, 459.72 10.61, 462.15 12.27 C464.58 13.93, 462.87 16.12, 462.43 15.82 M440.77 9.79 C442.50 8.33, 447.21 8.53, 450.77 8.53 C454.34 8.54, 460.29 8.27, 462.18 9.83 C464.08 11.39, 462.63 14.63, 462.15 17.88 C461.67 21.14, 460.99 26.73, 459.29 29.36 C457.59 32.00, 454.95 33.36, 451.94 33.70 C448.93 34.04, 443.37 33.11, 441.25 31.41 C439.14 29.72, 439.81 26.19, 439.26 23.51 C438.72 20.84, 436.93 18.30, 437.99 15.36 C439.05 12.42, 444.36 6.55, 445.63 5.87 C446.89 5.19, 446.44 10.54, 445.59 11.26" fill="none" stroke="#202020" stroke-width="2" stroke-linecap="round" stroke-linejoin="round"/><path d="M451.52 30.85 C455.36 44.24, 456.61 50.98, 458.90 69.29 M451.20 32.32 C452.75 45.96, 457.96 62.01, 459.64 68.45" fill="none" stroke="#202020" stroke-width="2" stroke-linecap="round" stroke-linejoin="round"/><path d="M446.29 48.20 C455.79 41.72, 460.56 39.73, 475.23 25.86 M450.40 46.38 C459.54 40.35, 467.22 33.07, 473.76 29.21" fill="none" stroke="#202020" stroke-width="2" stroke-linecap="round" stroke-linejoin="round"/><path d="M457.60 67.06 C451.95 75.14, 448.57 82.42, 442.46 90.58 M455.33 69.67 C452.87 77.44, 447.80 82.22, 439.96 93.15" fill="none" stroke="#202020" stroke-width="2" stroke-linecap="round" stroke-linejoin="round"/><path d="M451.30 66.13 C459.33 77.80, 467.53 80.73, 473.28 86.67 M456.93 68.25 C457.36 73.66, 463.41 77.87, 471.24 89.09" fill="none" stroke="#202020" stroke-width="2" stroke-linecap="round" stroke-linejoin="round"/><path d="M6.64 82.73 C12.18 80.98, 16.42 78.69, 21.10 80.27 M6.37 80.73 C11.53 77.55, 14.23 80.71, 24.56 77.59" fill="none" stroke="#202020" stroke-width="2" stroke-linecap="round" stroke-linejoin="round"/><path d="M11.45 87.27 C15.13 85.25, 14.77 84.96, 22.68 86.61 M10.62 85.02 C13.24 85.35, 17.44 85.55, 22.02 85.35" fill="none" stroke="#202020" stroke-width="2" stroke-linecap="round" stroke-linejoin="round"/></svg>