<svg xmlns="http://www.w3.org/2000/svg" viewBox="0 0 960 420" width="960" height="420"><path d="M473.92 8.94 C476.81 7.80, 482.43 6.83, 485.13 7.87 C487.83 8.90, 488.58 12.62, 490.12 15.14 C491.67 17.67, 494.43 20.62, 494.39 22.99 C494.36 25.36, 492.45 27.46, 489.92 29.38 C487.39 31.30, 482.20 34.31, 479.23 34.53 C476.27 34.76, 473.92 32.56, 472.14 30.74 C470.36 28.92, 469.07 26.30, 468.58 23.62 C468.09 20.93, 465.64 17.09, 469.19 14.61 C472.73 12.13, 486.36 6.94, 489.86 8.71 C493.35 10.48, 490.19 24.79, 490.15 25.25 M470.83 8.19 C472.12 7.05, 476.73 9.39, 479.00 9.37 C481.28 9.34, 482.27 6.83, 484.48 8.05 C486.68 9.28, 491.39 14.23, 492.24 16.73 C493.08 19.22, 490.56 20.46, 489.54 23.04 C488.52 25.62, 488.46 30.64, 486.12 32.19 C483.78 33.73, 478.69 33.05, 475.49 32.29 C472.29 31.53, 468.67 29.63, 466.91 27.64 C465.14 25.66, 464.41 22.74, 464.90 20.39 C465.39 18.04, 469.08 15.43, 469.86 13.54 C470.63 11.65, 469.14 8.96, 469.55 9.06" fill="#faf7ef" stroke="none"/><path d="M490.62 9.84 C492.39 11.66, 494.03 17.39, 493.63 20.71 C493.24 24.04, 489.81 27.79, 488.25 29.78 C486.69 31.76, 486.67 32.27, 484.25 32.61 C481.83 32.94, 476.24 33.29, 473.72 31.77 C471.20 30.25, 470.34 25.94, 469.15 23.47 C467.96 21.00, 465.99 19.24, 466.56 16.95 C467.13 14.66, 470.14 11.43, 472.57 9.74 C475.01 8.04, 477.96 4.52, 481.17 6.77 C484.39 9.03, 490.99 19.04, 491.85 23.28 C492.72 27.52, 486.39 32.08, 486.36 32.21 M471.85 11.71 C473.45 10.18, 476.65 8.75, 479.36 8.37 C482.07 7.99, 485.46 7.45, 488.11 9.43 C490.76 11.40, 494.25 17.39, 495.25 20.23 C496.25 23.06, 495.68 24.41, 494.11 26.44 C492.55 28.46, 489.34 31.17, 485.86 32.37 C482.39 33.56, 476.27 34.77, 473.25 33.62 C470.24 32.47, 468.30 28.05, 467.76 25.46 C467.21 22.87, 468.92 20.39, 469.98 18.09 C471.04 15.78, 474.27 12.83, 474.12 11.62 C473.96 10.40, 469.48 10.50, 469.06 10.82" fill="none" stroke="#202020" stroke-width="2" stroke-linecap="round" stroke-linejoin="round"/><path d="M482.66 33.90 C484.08 49.74, 485.44 62.36, 493.90 70.56 M480.44 32.56 C484.93 47.10, 486.81 58.63, 490.46 68.63" fill="none" stroke="#202020" stroke-width="2" stroke-linecap="round" stroke-linejoin="round"/><path d="M477.42 42.68 C486.96 39.03, 497.44 36.33, 499.66 25.06 M479.90 45.67 C485.18 40.46, 494.05 37.44, 501.77 28.03" fill="none" stroke="#202020" stroke-width="2" stroke-linecap="round" stroke-linejoin="round"/><path d="M481.73 66.95 C477.80 77.45, 473.57 87.02, 469.68 90.14 M484.81 68.64 C481.69 76.24, 477.80 78.74, 471.86 95.73" fill="none" stroke="#202020" stroke-width="2" stroke-linecap="round" stroke-linejoin="round"/><path d="M481.96 69.40 C486.60 80.19, 496.68 81.78, 501.93 87.24 M483.63 70.45 C491.15 76.13, 495.62 85.53, 499.31 87.23" fill="none" stroke="#202020" stroke-width="2" stroke-linecap="round" stroke-linejoin="round"/><path d="M3.43 77.67 C10.54 83.31, 18.38 78.09, 28.41 78.88 M6.90 80.02 C11.09 78.47, 16.57 79.15, 26.82 80.66" fill="none" stroke="#202020" stroke-width="2" stroke-linecap="round" stroke-linejoin="round"/><path d="M11.38 87.02 C12.49 86.04, 19.23 85.25, 23.50 83.90 M10.03 86.11 C12.45 85.82, 14.53 86.62, 22.45 85.94" fill="none" stroke="#202020" stroke-width="2" stroke-linecap="round" stroke-linejoin="round"/></svg>