<svg xmlns="http://www.w3.org/2000/svg" viewBox="0 0 900 320" width="900" height="320"><path d="M444.31 4.50 C446.91 3.00, 452.34 6.10, 455.37 6.94 C458.39 7.79, 461.17 7.20, 462.48 9.58 C463.79 11.96, 463.75 17.79, 463.25 21.24 C462.74 24.68, 461.16 28.00, 459.45 30.23 C457.74 32.45, 455.70 34.47, 452.98 34.58 C450.27 34.70, 446.00 32.81, 443.14 30.92 C440.27 29.03, 436.61 26.07, 435.79 23.23 C434.98 20.40, 435.86 17.25, 438.23 13.89 C440.60 10.52, 447.25 4.22, 450.01 3.03 C452.77 1.84, 454.43 5.97, 454.79 6.75 M438.31 13.63 C440.52 11.32, 446.75 8.53, 449.69 7.36 C452.64 6.19, 453.89 5.59, 455.98 6.63 C458.07 7.67, 461.12 10.59, 462.24 13.61 C463.35 16.62, 463.06 21.43, 462.67 24.74 C462.28 28.05, 462.41 32.15, 459.89 33.48 C457.38 34.80, 450.97 33.47, 447.58 32.70 C444.20 31.94, 441.64 30.93, 439.58 28.88 C437.52 26.84, 435.56 23.49, 435.23 20.43 C434.90 17.38, 436.97 12.31, 437.60 10.53 C438.23 8.74, 438.82 9.92, 439.01 9.71" fill="#faf7ef" stroke="none"/><path d="M448.42 3.28 C450.92 3.24, 455.88 8.05, 458.18 10.29 C460.48 12.54, 461.86 14.10, 462.21 16.72 C462.56 19.34, 461.50 23.30, 460.27 26.00 C459.04 28.70, 457.17 31.53, 454.83 32.94 C452.49 34.36, 448.74 35.08, 446.21 34.46 C443.69 33.85, 441.10 32.41, 439.70 29.23 C438.29 26.05, 437.37 18.67, 437.79 15.41 C438.21 12.15, 438.14 10.15, 442.21 9.65 C446.28 9.16, 458.66 10.09, 462.24 12.44 C465.81 14.79, 464.05 23.48, 463.67 23.75 M436.85 12.36 C438.68 9.48, 445.80 5.20, 448.95 4.34 C452.10 3.49, 452.98 5.28, 455.74 7.20 C458.50 9.12, 464.21 12.42, 465.50 15.86 C466.79 19.30, 465.19 24.93, 463.49 27.85 C461.79 30.78, 457.93 32.43, 455.31 33.39 C452.69 34.35, 450.57 34.22, 447.78 33.61 C444.99 33.00, 440.44 31.90, 438.56 29.74 C436.68 27.58, 435.85 24.18, 436.49 20.65 C437.13 17.11, 441.60 10.24, 442.42 8.50 C443.24 6.77, 441.61 10.01, 441.40 10.24" fill="none" stroke="#202020" stroke-width="2" stroke-linecap="round" stroke-linejoin="round"/><path d="M453.89 37.31 C450.54 43.61, 456.39 59.04, 460.73 67.10 M451.67 32.09 C453.37 44.66, 457.68 55.91, 461.98 67.31" fill="none" stroke="#202020" stroke-width="2" stroke-linecap="round" stroke-linejoin="round"/><path d="M449.50 48.19 C451.35 40.21, 458.21 42.40, 472.57 29.13 M448.60 45.35 C455.06 42.24, 460.37 38.14, 474.00 29.49" fill="none" stroke="#202020" stroke-width="2" stroke-linecap="round" stroke-linejoin="round"/><path d="M455.12 72.08 C448.13 72.42, 451.09 78.74, 437.20 91.65 M454.96 70.24 C451.02 79.08, 442.83 86.69, 440.18 94.06" fill="none" stroke="#202020" stroke-width="2" stroke-linecap="round" stroke-linejoin="round"/><path d="M456.39 69.41 C458.14 73.87, 460.20 77.42, 467.67 87.59 M453.41 67.39 C457.01 71.39, 459.85 76.48, 468.98 88.56" fill="none" stroke="#202020" stroke-width="2" stroke-linecap="round" stroke-linejoin="round"/><path d="M2.80 75.36 C11.58 77.85, 15.39 80.27, 28.22 82.67 M6.38 78.64 C10.30 78.56, 12.72 80.19, 24.57 77.74" fill="none" stroke="#202020" stroke-width="2" stroke-linecap="round" stroke-linejoin="round"/><path d="M10.95 87.07 C11.80 83.55, 15.65 87.60, 21.15 83.71 M8.91 86.37 C13.47 85.72, 16.11 85.78, 21.16 86.73" fill="none" stroke="#202020" stroke-width="2" stroke-linecap="round" stroke-linejoin="round"/></svg>