<svg xmlns="http://www.w3.org/2000/svg" viewBox="0 0 900 320" width="900" height="320"><path d="M13.88 13.59 C360.53 21.76, 711.38 21.26, 886.83 14.86 M14.48 13.97 C337.31 15.90, 659.04 16.25, 886.80 13.20 M884.95 15.29 C889.75 75.21, 886.82 132.77, 887.33 305.47 M886.86 15.40 C884.34 78.12, 885.68 141.94, 884.90 307.01 M886.13 307.44 C581.72 300.15, 277.68 302.01, 14.58 305.40 M885.27 305.56 C620.13 310.90, 353.62 311.63, 14.09 305.98 M14.71 305.67 C13.02 237.74, 9.79 167.25, 13.99 13.18 M14.69 305.10 C15.18 206.51, 15.68 106.25, 14.35 14.28" fill="none" stroke="#202020" stroke-width="2" stroke-linecap="round" stroke-linejoin="round"/><path d="M28.63 33.29 C329.18 36.30, 629.04 37.98, 872.93 32.08 M28.53 32.14 C206.33 31.82, 385.00 31.95, 872.44 31.94" fill="none" stroke="#202020" stroke-width="2" stroke-linecap="round" stroke-linejoin="round"/><path d="M27.98 117.81 C319.02 116.09, 611.67 116.10, 870.88 116.69 M28.40 117.84 C261.83 122.10, 495.27 121.63, 872.63 117.31" fill="none" stroke="#202020" stroke-width="2" stroke-linecap="round" stroke-linejoin="round"/><path d="M29.53 202.33 C273.14 202.20, 514.81 201.77, 870.70 203.10 M28.71 202.61 C289.24 197.12, 549.33 197.25, 872.13 203.25" fill="none" stroke="#202020" stroke-width="2" stroke-linecap="round" stroke-linejoin="round"/><path d="M27.33 289.41 C207.81 283.47, 389.94 282.01, 871.58 288.20 M27.67 288.76 C258.88 289.07, 490.45 288.77, 871.89 288.61" fill="none" stroke="#202020" stroke-width="2" stroke-linecap="round" stroke-linejoin="round"/></svg>