<svg xmlns="http://www.w3.org/2000/svg" viewBox="0 0 436 310" width="436" height="310"><path d="M2.80 2.25 L413.95 4.21 L412.79 286.92 L2.69 288.73" fill="#faf7ef" stroke="none"/><path d="M5.76 5.43 C142.58 -0.44, 285.23 0.88, 414.92 4.98 M4.16 5.64 C113.06 1.52, 223.69 0.63, 415.48 4.16 M417.23 4.40 C418.28 91.67, 416.52 179.08, 416.78 286.34 M413.82 5.32 C415.85 79.81, 415.17 157.52, 413.72 287.81 M415.47 290.41 C292.87 294.72, 171.65 294.75, 3.61 288.08 M414.98 288.12 C286.40 290.83, 157.27 289.90, 5.90 289.32 M3.34 290.37 C6.97 205.01, 9.84 118.55, 7.22 3.32 M4.13 288.67 C3.25 202.58, 1.87 115.99, 5.04 4.88" fill="none" stroke="#202020" stroke-width="3" stroke-linecap="round" stroke-linejoin="round"/><path d="M208.57 134.88 L225.52 144.39 L213.77 164.05 L200.23 143.30" fill="#faf7ef" stroke="none"/><path d="M208.13 130.56 C211.82 137.52, 215.30 141.50, 223.08 147.90 M208.21 131.24 C212.43 136.36, 214.15 139.54, 222.80 148.21 M219.63 149.99 C223.48 148.77, 214.78 150.84, 206.81 165.37 M223.43 147.14 C217.57 152.70, 212.26 157.58, 211.19 161.27 M208.73 159.12 C205.53 154.23, 204.81 149.37, 201.13 150.34 M209.62 162.36 C204.06 156.43, 200.19 151.56, 196.08 147.58 M200.47 150.27 C202.31 143.18, 203.98 138.40, 209.40 133.41 M196.32 145.50 C199.80 144.61, 204.54 138.44, 208.54 132.48" fill="none" stroke="#202020" stroke-width="3" stroke-linecap="round" stroke-linejoin="round"/></svg>