<svg xmlns="http://www.w3.org/2000/svg" viewBox="0 0 436 310" width="436" height="310"><path d="M1.26 8.66 L411.44 4.19 L417.20 288.09 L8.78 291.58" fill="#faf7ef" stroke="none"/><path d="M4.23 5.16 C89.91 2.90, 169.05 4.04, 415.86 7.01 M5.78 5.79 C140.82 6.06, 275.17 5.87, 415.93 4.29 M414.85 7.25 C413.05 64.77, 412.46 120.92, 416.18 286.86 M413.60 5.99 C411.75 84.51, 411.92 163.90, 416.44 287.49 M414.30 289.40 C284.84 291.93, 153.54 289.87, 6.84 290.63 M415.53 289.20 C291.94 294.24, 170.87 293.31, 5.19 289.36 M5.93 290.59 C5.03 221.93, 9.48 154.52, 2.99 2.86 M4.61 287.60 C5.70 199.16, 5.45 110.34, 5.84 5.21" fill="none" stroke="#202020" stroke-width="3" stroke-linecap="round" stroke-linejoin="round"/><path d="M208.66 135.47 L220.68 147.50 L206.29 165.22 L196.69 150.04" fill="#faf7ef" stroke="none"/><path d="M210.91 129.00 C212.84 139.50, 217.63 141.22, 220.79 145.94 M210.47 133.79 C214.37 137.03, 215.96 138.82, 223.38 146.40 M219.59 143.77 C218.12 154.05, 214.34 159.81, 213.48 162.85 M221.62 147.44 C215.75 153.99, 212.26 157.58, 211.85 160.73 M207.41 158.25 C208.08 159.21, 201.05 155.68, 196.71 144.39 M211.46 160.68 C204.52 158.90, 204.79 153.26, 199.05 146.42 M200.70 144.29 C198.53 140.28, 200.80 141.61, 212.45 129.65 M199.69 148.54 C203.22 141.81, 204.58 137.39, 209.37 130.51" fill="none" stroke="#202020" stroke-width="3" stroke-linecap="round" stroke-linejoin="round"/></svg>