<svg xmlns="http://www.w3.org/2000/svg" viewBox="0 0 436 310" width="436" height="310"><path d="M163.66 102.52 C163.66 102.52, 163.66 102.52, 163.66 102.52 M163.66 102.52 C163.66 102.52, 163.66 102.52, 163.66 102.52 M155.37 119.78 C163.97 111.17, 165.84 102.62, 173.08 95.64 M155.23 119.51 C159.19 113.11, 164.42 104.44, 177.09 96.25 M146.69 131.76 C159.99 122.62, 168.14 114.17, 188.55 89.88 M149.89 130.86 C164.17 114.76, 174.22 102.33, 188.31 89.42 M144.53 138.14 C165.46 119.46, 175.00 103.09, 195.12 87.73 M148.79 140.58 C163.98 117.29, 183.77 95.80, 193.65 88.13 M150.55 149.42 C166.87 125.84, 181.86 102.71, 200.72 84.66 M144.99 145.10 C166.57 125.24, 185.29 103.12, 201.28 84.37 M142.46 157.51 C171.15 128.92, 190.78 105.09, 206.21 82.40 M144.93 153.62 C166.23 132.13, 188.79 108.26, 206.17 86.18 M140.16 158.84 C163.79 137.28, 190.47 106.96, 210.53 89.30 M145.14 162.23 C159.53 144.10, 174.88 125.83, 209.93 84.94 M142.28 168.34 C159.86 144.97, 180.20 129.54, 213.95 86.01 M141.82 167.81 C159.82 150.08, 176.13 131.49, 215.15 84.67 M144.68 176.38 C171.09 145.00, 196.17 113.12, 219.37 85.93 M144.43 175.25 C174.26 140.51, 202.04 108.02, 220.51 84.98 M143.62 177.62 C172.05 153.96, 189.77 121.84, 224.55 83.55 M145.87 178.28 C169.86 150.55, 192.39 125.34, 226.23 87.42 M144.98 183.72 C171.93 153.71, 198.93 119.78, 228.84 86.25 M146.13 181.77 C174.32 147.50, 199.36 118.24, 227.70 87.36 M146.91 187.85 C178.94 153.58, 211.96 122.13, 232.54 94.52 M149.15 185.28 C179.39 154.27, 207.64 119.17, 234.22 92.16 M151.70 191.71 C177.28 164.16, 202.33 133.91, 232.49 91.91 M149.05 191.56 C170.23 167.85, 188.36 143.56, 235.87 90.91 M154.90 192.83 C173.52 173.63, 196.91 146.60, 236.96 98.29 M152.98 197.23 C170.96 175.61, 189.64 152.18, 240.84 94.01 M150.99 196.63 C180.03 170.64, 210.25 135.12, 246.05 97.27 M155.32 199.97 C179.81 171.53, 202.95 142.32, 242.74 94.38 M151.68 207.31 C180.35 177.68, 202.07 146.97, 248.14 98.98 M153.50 204.51 C182.49 172.12, 210.34 138.99, 247.88 97.37 M158.11 209.73 C193.44 170.60, 222.32 133.18, 253.84 98.65 M157.66 208.74 C194.05 169.49, 228.69 129.02, 249.74 99.38 M158.75 209.26 C186.81 187.26, 212.07 157.84, 256.25 104.68 M159.81 211.86 C177.73 188.99, 199.66 165.21, 253.00 101.60 M166.22 217.89 C182.10 186.84, 211.90 157.36, 258.20 105.93 M161.34 212.54 C194.37 175.60, 226.92 137.27, 256.05 106.57 M162.25 219.50 C187.71 188.57, 208.50 160.13, 254.97 108.98 M164.06 219.92 C194.58 178.39, 228.76 142.25, 256.67 108.25 M164.09 217.61 C201.07 179.57, 232.45 143.47, 260.37 109.95 M166.54 223.22 C201.45 178.70, 238.45 134.40, 261.38 112.74 M170.65 223.11 C198.79 188.94, 233.81 157.65, 262.63 114.27 M169.51 223.51 C189.17 200.50, 206.56 178.57, 264.42 114.47 M174.76 224.31 C195.31 198.97, 230.73 166.15, 265.47 118.10 M169.12 226.68 C205.99 187.16, 244.92 144.77, 265.99 121.36 M176.55 226.12 C198.53 207.67, 221.80 182.97, 268.36 122.63 M175.64 232.04 C206.34 187.37, 240.70 148.21, 268.37 122.57 M179.59 232.65 C213.39 189.76, 244.56 150.44, 267.70 122.34 M176.75 232.88 C196.82 206.79, 219.25 183.19, 271.96 124.26 M182.61 236.25 C208.08 204.96, 233.54 176.06, 268.61 129.36 M181.73 233.67 C200.85 211.63, 220.22 190.55, 270.38 129.75 M183.96 231.73 C216.83 200.53, 243.40 164.83, 276.17 139.22 M185.14 235.02 C218.55 201.97, 248.16 166.95, 273.50 134.50 M186.97 236.01 C207.91 216.44, 229.28 190.25, 272.41 136.39 M191.61 235.53 C220.95 204.15, 250.71 168.75, 275.17 139.70 M196.90 240.00 C219.60 205.31, 253.80 164.79, 274.53 148.29 M193.89 236.65 C215.92 208.08, 244.23 178.93, 275.92 145.92 M194.64 243.46 C228.59 210.12, 258.70 175.61, 278.97 151.85 M197.63 240.96 C220.79 212.26, 245.55 187.05, 277.15 148.12 M202.82 239.28 C224.60 217.53, 247.71 195.14, 275.17 154.18 M201.74 242.84 C222.01 215.66, 246.12 188.79, 278.15 154.02 M204.65 238.86 C231.17 210.38, 260.10 185.66, 276.98 159.75 M206.47 239.60 C234.43 211.61, 263.45 177.61, 277.70 159.07 M209.56 239.19 C238.82 212.39, 260.48 181.58, 277.56 164.04 M213.41 241.23 C229.50 219.67, 248.80 197.35, 277.83 167.92 M215.16 242.92 C233.62 225.26, 248.17 207.85, 278.59 176.50 M220.66 241.51 C241.09 212.78, 265.17 185.63, 276.92 172.41 M227.37 238.29 C235.61 224.89, 253.58 203.80, 273.80 179.00 M224.57 238.41 C238.75 224.03, 250.08 208.82, 277.86 180.69 M228.63 242.08 C247.54 225.26, 255.75 203.37, 278.01 184.20 M229.84 237.43 C241.24 224.30, 252.61 213.08, 275.08 185.55 M242.27 235.38 C250.61 222.08, 263.71 208.93, 277.84 194.44 M241.75 233.57 C251.28 224.04, 257.82 215.07, 276.43 191.16" fill="#faf7ef" stroke="none"/><path d="M220.15 83.59 C229.75 84.55, 241.47 91.62, 249.72 98.52 C257.96 105.41, 265.01 115.07, 269.63 124.97 C274.24 134.88, 276.66 147.04, 277.41 157.94 C278.17 168.85, 277.76 179.90, 274.16 190.37 C270.57 200.85, 263.56 213.04, 255.86 220.78 C248.16 228.52, 237.44 233.61, 227.96 236.81 C218.48 240.01, 208.95 241.76, 198.98 239.97 C189.01 238.18, 176.11 233.02, 168.15 226.06 C160.19 219.11, 155.74 208.11, 151.22 198.22 C146.71 188.33, 141.59 178.13, 141.04 166.71 C140.50 155.30, 144.18 140.49, 147.97 129.76 C151.76 119.03, 156.45 109.84, 163.80 102.36 C171.15 94.88, 175.16 83.04, 192.07 84.86 C208.97 86.68, 251.01 99.57, 265.23 113.29 C279.46 127.00, 278.52 166.15, 277.42 167.15 M210.08 84.36 C219.16 83.26, 228.25 88.33, 237.33 93.43 C246.42 98.53, 258.31 106.71, 264.59 114.96 C270.88 123.21, 273.06 132.55, 275.04 142.92 C277.01 153.29, 277.94 166.20, 276.44 177.16 C274.94 188.12, 271.61 200.03, 266.01 208.69 C260.42 217.34, 252.26 223.81, 242.88 229.09 C233.49 234.38, 219.83 239.57, 209.70 240.38 C199.58 241.19, 190.79 238.77, 182.12 233.97 C173.44 229.17, 164.14 220.23, 157.64 211.58 C151.15 202.94, 145.51 192.79, 143.12 182.10 C140.74 171.42, 141.26 158.81, 143.32 147.47 C145.39 136.13, 149.61 123.56, 155.52 114.08 C161.43 104.60, 169.51 95.94, 178.78 90.58 C188.06 85.23, 206.39 82.82, 211.17 81.94 C215.95 81.07, 207.83 84.05, 207.48 85.32" fill="none" stroke="#202020" stroke-width="3" stroke-linecap="round" stroke-linejoin="round"/><path d="M132.68 88.84 C132.68 88.84, 132.68 88.84, 132.68 88.84 M132.68 88.84 C132.68 88.84, 132.68 88.84, 132.68 88.84 M128.37 105.65 C128.17 98.04, 133.61 94.28, 142.72 82.37 M123.67 104.35 C129.17 98.60, 134.19 90.88, 146.46 81.14 M114.44 115.03 C131.02 108.01, 137.29 91.65, 160.40 68.86 M117.41 118.72 C133.01 101.47, 149.68 82.56, 159.21 69.72 M116.61 123.36 C132.55 109.91, 150.66 85.46, 164.37 72.04 M117.97 126.77 C128.55 112.71, 137.30 100.30, 165.78 71.42 M118.22 132.80 C127.51 117.96, 146.08 100.49, 176.74 65.21 M115.39 131.85 C136.31 106.32, 160.30 84.10, 171.70 67.87 M110.70 143.32 C136.96 117.69, 156.84 94.89, 182.86 64.67 M113.51 141.34 C137.37 109.98, 164.63 80.86, 181.26 64.31 M114.82 151.57 C139.08 120.77, 158.38 92.79, 186.60 64.44 M112.50 149.29 C129.54 128.05, 149.46 104.51, 188.78 60.09 M112.02 158.58 C132.85 129.78, 160.57 102.44, 199.78 58.19 M109.30 157.35 C144.19 118.38, 179.77 78.10, 194.57 57.65 M113.19 167.18 C146.38 121.48, 180.86 80.94, 202.68 52.34 M111.76 161.66 C136.20 132.44, 158.83 106.84, 205.17 55.75 M108.27 165.55 C129.42 139.12, 155.77 114.45, 210.35 54.73 M110.28 166.38 C142.75 132.26, 176.04 92.43, 210.01 57.30 M112.19 170.10 C132.90 147.60, 163.86 116.69, 209.85 54.46 M110.17 172.53 C143.87 139.72, 173.21 106.54, 214.47 56.34 M109.03 182.47 C144.85 144.65, 169.35 114.22, 220.58 60.75 M113.90 178.42 C138.03 150.72, 164.63 123.30, 219.44 57.90 M117.31 187.52 C137.42 156.95, 165.92 128.54, 221.86 58.28 M115.38 182.88 C150.76 139.59, 187.26 93.81, 221.66 56.78 M111.63 191.03 C152.61 144.31, 192.90 101.18, 228.76 62.13 M112.27 190.58 C156.10 138.84, 198.10 91.21, 226.17 61.46 M118.42 192.40 C147.76 156.59, 179.72 126.84, 230.38 57.13 M114.14 192.85 C151.83 149.70, 188.35 108.81, 231.80 61.52 M111.26 199.51 C156.83 158.16, 190.52 114.89, 239.63 59.80 M113.29 202.41 C153.84 151.10, 198.37 101.46, 234.51 60.11 M114.73 205.50 C165.34 151.41, 205.21 103.75, 236.69 66.14 M116.83 205.76 C147.75 166.49, 180.35 128.95, 242.02 60.58 M116.01 210.12 C165.62 149.77, 215.73 96.39, 243.19 66.17 M120.77 205.97 C145.21 173.69, 174.97 138.61, 244.72 62.30 M121.80 211.35 C144.40 181.19, 175.44 154.66, 249.54 69.21 M122.27 211.82 C162.96 162.52, 205.08 112.96, 246.58 65.65 M124.29 213.40 C165.74 166.80, 208.27 116.67, 249.04 70.09 M124.49 215.18 C159.95 174.28, 192.89 135.10, 251.27 65.76 M129.99 219.59 C168.05 165.53, 214.37 111.81, 254.17 69.23 M126.60 218.68 C172.92 166.93, 217.22 113.19, 256.34 70.05 M125.97 219.56 C167.62 183.14, 206.94 132.30, 263.08 73.51 M129.20 223.15 C160.28 182.11, 194.54 146.73, 258.99 72.17 M132.70 227.46 C166.99 184.76, 195.58 148.11, 264.79 75.69 M131.76 226.25 C179.17 163.34, 233.07 104.94, 263.43 70.87 M133.44 230.39 C170.41 188.18, 197.49 151.56, 266.07 77.72 M134.08 229.00 C174.17 184.85, 215.45 137.65, 267.43 75.72 M133.13 232.03 C180.72 171.41, 232.22 117.49, 268.78 78.88 M133.52 232.79 C167.38 197.29, 199.92 156.72, 271.88 76.23 M134.34 239.16 C187.34 183.91, 237.71 127.58, 271.69 81.36 M136.45 235.46 C190.38 175.32, 246.38 109.36, 276.11 77.74 M140.79 239.72 C183.51 190.66, 222.63 148.26, 274.72 83.23 M140.08 237.55 C169.15 204.45, 197.20 171.04, 278.05 82.31 M141.83 239.26 C195.19 181.20, 241.67 128.03, 280.22 82.03 M141.61 240.58 C189.06 190.52, 230.99 141.10, 280.84 84.36 M144.02 246.93 C177.97 208.62, 210.27 171.45, 283.42 84.86 M146.48 245.35 C185.63 201.58, 227.50 154.46, 282.15 86.77 M150.68 248.08 C184.76 200.94, 223.05 163.62, 282.95 88.34 M150.47 245.52 C193.00 195.73, 236.86 143.72, 286.33 90.36 M152.99 249.22 C191.48 210.41, 229.45 159.91, 291.26 93.88 M152.78 248.24 C194.06 204.27, 235.07 154.02, 288.62 92.33 M155.34 253.77 C195.91 204.47, 233.94 158.22, 288.83 95.18 M154.66 250.92 C200.59 201.81, 243.78 148.13, 291.93 93.15 M155.61 258.30 C205.89 196.48, 259.54 138.39, 294.41 100.00 M158.47 254.30 C197.28 207.15, 240.40 160.57, 292.56 97.47 M161.29 257.36 C214.35 201.78, 258.46 147.40, 297.84 103.76 M159.91 258.85 C190.72 224.95, 218.81 189.40, 296.46 101.44 M161.16 260.81 C211.54 204.80, 258.21 149.40, 302.88 105.30 M162.17 258.68 C212.67 204.66, 261.08 149.93, 300.82 102.23 M171.66 261.76 C209.48 222.82, 245.23 176.57, 299.88 107.22 M167.69 262.35 C214.62 209.14, 264.77 153.91, 304.56 105.97 M169.56 261.11 C215.27 211.98, 257.79 168.61, 302.05 108.18 M172.88 261.63 C219.47 211.00, 265.38 155.91, 302.58 111.70 M173.13 267.23 C212.87 225.06, 241.98 186.08, 305.95 116.17 M178.04 263.66 C210.29 227.07, 244.79 185.62, 306.61 114.31 M178.48 266.72 C224.33 217.61, 264.80 163.75, 308.04 120.48 M181.41 265.28 C209.33 237.21, 233.64 205.68, 307.80 121.44 M188.96 263.77 C208.59 238.19, 233.17 208.24, 312.77 127.06 M187.29 264.02 C216.58 235.04, 247.42 199.36, 310.47 125.54 M193.88 267.08 C231.93 212.85, 278.65 167.93, 305.99 127.91 M191.95 267.33 C211.48 241.49, 236.60 213.04, 310.79 129.80 M194.84 264.20 C224.28 231.07, 258.78 196.72, 315.10 136.23 M195.47 265.69 C236.23 213.73, 280.97 166.14, 310.18 132.09 M196.96 270.04 C245.14 213.90, 292.53 163.07, 311.29 138.78 M198.68 270.21 C235.41 225.32, 270.20 183.23, 313.20 136.55 M202.15 270.86 C239.84 224.03, 283.59 176.68, 315.50 142.86 M203.05 270.60 C228.99 240.26, 253.68 210.80, 314.85 140.96 M207.78 268.64 C248.64 219.07, 296.98 175.26, 318.24 148.91 M208.16 271.76 C248.10 227.18, 283.00 183.71, 314.15 146.08 M210.43 268.85 C239.46 242.19, 258.62 217.32, 317.30 153.59 M215.99 269.86 C240.31 233.57, 273.36 199.62, 315.82 150.88 M220.85 272.10 C255.43 225.99, 290.58 181.80, 314.95 157.95 M220.44 270.86 C252.53 229.08, 287.27 188.31, 315.29 157.58 M221.96 272.60 C245.79 247.60, 268.93 222.60, 318.10 167.84 M226.16 268.42 C247.32 242.86, 271.23 218.02, 315.49 165.62 M228.75 271.12 C258.23 237.16, 288.26 202.43, 317.20 169.70 M229.05 267.37 C251.75 246.15, 271.62 221.25, 316.36 168.46 M240.97 268.13 C255.37 243.13, 277.70 217.03, 315.33 176.49 M236.66 265.27 C270.71 232.45, 301.91 197.40, 314.35 176.63 M247.66 264.49 C269.27 235.17, 290.79 209.85, 313.78 185.32 M250.18 259.58 C263.15 241.68, 277.74 228.81, 317.57 181.09 M258.89 256.70 C271.76 236.82, 289.48 216.78, 314.37 194.93 M256.84 253.30 C274.96 237.60, 290.81 221.26, 313.36 193.00 M267.62 246.50 C278.82 242.46, 282.70 231.05, 306.61 205.40 M269.14 250.41 C279.28 238.60, 287.28 229.89, 307.60 202.72" fill="#faf7ef" stroke="none"/><path d="M163.38 67.35 C173.25 60.35, 189.99 54.52, 202.38 53.30 C214.77 52.09, 226.11 56.35, 237.72 60.06 C249.33 63.77, 261.56 68.17, 272.05 75.54 C282.54 82.92, 293.81 92.82, 300.69 104.33 C307.57 115.83, 311.12 131.88, 313.33 144.56 C315.54 157.24, 316.18 168.21, 313.94 180.39 C311.69 192.56, 306.69 206.66, 299.84 217.61 C292.99 228.55, 283.33 237.94, 272.86 246.08 C262.38 254.22, 249.01 262.84, 236.96 266.47 C224.92 270.10, 213.13 269.14, 200.61 267.87 C188.10 266.59, 172.91 264.58, 161.86 258.82 C150.80 253.06, 142.37 243.24, 134.29 233.30 C126.21 223.35, 117.90 211.23, 113.40 199.17 C108.89 187.11, 107.01 173.49, 107.24 160.94 C107.47 148.38, 110.48 135.91, 114.77 123.84 C119.06 111.77, 121.54 99.69, 132.96 88.51 C144.39 77.33, 171.49 61.97, 183.34 56.78 C195.18 51.59, 203.78 55.16, 204.02 57.37 M295.39 97.10 C304.35 106.57, 309.12 123.92, 312.26 137.19 C315.39 150.45, 316.37 164.62, 314.21 176.69 C312.05 188.77, 305.00 199.06, 299.32 209.63 C293.63 220.20, 288.93 231.80, 280.12 240.11 C271.30 248.42, 258.51 254.46, 246.41 259.49 C234.30 264.52, 219.95 270.60, 207.49 270.28 C195.03 269.97, 183.66 262.57, 171.65 257.59 C159.64 252.61, 144.38 248.49, 135.43 240.40 C126.48 232.30, 122.70 220.53, 117.95 209.04 C113.21 197.55, 108.27 184.42, 106.97 171.46 C105.67 158.50, 106.78 144.00, 110.18 131.29 C113.58 118.59, 119.12 105.48, 127.36 95.24 C135.60 85.00, 148.66 76.27, 159.60 69.86 C170.54 63.44, 181.23 58.66, 193.00 56.75 C204.77 54.84, 217.45 56.08, 230.20 58.37 C242.96 60.67, 258.72 63.34, 269.51 70.52 C280.31 77.70, 290.77 96.56, 294.97 101.43 C299.16 106.30, 296.17 98.56, 294.69 99.75" fill="none" stroke="#202020" stroke-width="3" stroke-linecap="round" stroke-linejoin="round"/><path d="M184.60 126.84 C190.18 122.21, 197.19 117.56, 204.26 116.30 C211.33 115.03, 219.84 116.22, 227.04 119.23 C234.24 122.23, 242.57 127.93, 247.46 134.30 C252.36 140.68, 255.59 150.25, 256.40 157.46 C257.22 164.68, 255.53 170.90, 252.36 177.59 C249.19 184.28, 243.59 192.59, 237.36 197.60 C231.14 202.61, 222.36 206.56, 215.00 207.65 C207.65 208.74, 199.78 207.43, 193.24 204.14 C186.70 200.84, 180.08 193.67, 175.75 187.89 C171.41 182.12, 168.62 176.70, 167.22 169.48 C165.82 162.26, 162.67 153.01, 167.34 144.57 C172.01 136.13, 188.04 123.80, 195.23 118.84 C202.43 113.87, 210.32 113.84, 210.53 114.76 M232.92 122.10 C239.17 126.25, 247.84 135.79, 251.42 142.84 C255.00 149.90, 255.42 157.01, 254.39 164.43 C253.36 171.84, 249.64 181.13, 245.24 187.34 C240.84 193.56, 234.50 198.65, 228.00 201.72 C221.50 204.79, 213.25 206.27, 206.24 205.76 C199.22 205.26, 192.13 202.30, 185.91 198.70 C179.69 195.10, 172.76 190.40, 168.90 184.16 C165.03 177.91, 162.22 169.27, 162.75 161.23 C163.27 153.18, 167.47 142.97, 172.06 135.86 C176.64 128.76, 183.40 121.78, 190.25 118.59 C197.09 115.40, 205.25 115.91, 213.13 116.73 C221.01 117.56, 233.84 121.84, 237.53 123.53 C241.22 125.21, 236.52 126.68, 235.29 126.86" fill="#faf7ef" stroke="none"/><path d="M239.30 126.58 C245.44 131.03, 252.50 139.97, 254.73 147.43 C256.95 154.88, 254.50 163.62, 252.66 171.31 C250.81 179.00, 248.20 188.14, 243.65 193.57 C239.10 199.00, 232.39 201.74, 225.37 203.88 C218.35 206.01, 209.39 207.67, 201.52 206.38 C193.66 205.09, 184.20 200.91, 178.19 196.12 C172.18 191.33, 167.59 185.23, 165.48 177.63 C163.37 170.03, 163.50 158.39, 165.54 150.53 C167.58 142.67, 172.93 136.12, 177.74 130.46 C182.54 124.79, 187.42 118.98, 194.35 116.51 C201.27 114.05, 210.42 111.89, 219.31 115.68 C228.20 119.47, 242.22 133.20, 247.69 139.23 C253.16 145.27, 252.42 151.66, 252.11 151.88 M196.94 119.10 C203.42 117.04, 214.70 117.52, 222.67 119.66 C230.64 121.79, 239.37 127.23, 244.75 131.91 C250.13 136.59, 253.84 140.29, 254.98 147.73 C256.11 155.17, 253.73 168.93, 251.55 176.55 C249.36 184.16, 246.81 188.40, 241.86 193.41 C236.91 198.41, 229.09 204.31, 221.84 206.57 C214.60 208.83, 205.29 208.75, 198.39 206.95 C191.50 205.15, 185.70 201.51, 180.46 195.79 C175.22 190.08, 169.19 180.54, 166.96 172.64 C164.74 164.74, 165.07 155.72, 167.10 148.37 C169.13 141.02, 174.09 134.07, 179.16 128.52 C184.23 122.98, 193.74 117.24, 197.53 115.09 C201.31 112.94, 201.58 114.92, 201.84 115.62" fill="none" stroke="#202020" stroke-width="3" stroke-linecap="round" stroke-linejoin="round"/><path d="M304.42 63.29 C317.25 57.13, 326.70 42.10, 344.25 27.95 M304.67 67.30 C317.44 58.39, 323.38 46.82, 344.05 29.16" fill="none" stroke="#202020" stroke-width="3" stroke-linecap="round" stroke-linejoin="round"/><path d="M304.72 255.10 C322.53 273.90, 334.18 282.49, 342.34 292.49 M305.10 256.42 C320.89 269.19, 335.19 286.32, 343.58 296.68" fill="none" stroke="#202020" stroke-width="3" stroke-linecap="round" stroke-linejoin="round"/><path d="M116.02 258.81 C99.11 271.07, 88.11 282.02, 78.54 295.14 M112.73 258.89 C97.88 271.36, 84.89 289.05, 76.79 296.46" fill="none" stroke="#202020" stroke-width="3" stroke-linecap="round" stroke-linejoin="round"/><path d="M117.04 69.29 C106.77 52.98, 89.59 43.74, 79.49 24.13 M113.25 65.35 C99.26 53.06, 87.46 37.19, 78.32 28.19" fill="none" stroke="#202020" stroke-width="3" stroke-linecap="round" stroke-linejoin="round"/></svg>