<svg xmlns="http://www.w3.org/2000/svg" viewBox="0 0 436 310" width="436" height="310"><path d="M139.98 128.31 C139.98 128.31, 139.98 128.31, 139.98 128.31 M139.98 128.31 C139.98 128.31, 139.98 128.31, 139.98 128.31 M140.30 138.49 C148.29 123.61, 158.80 116.90, 168.43 97.36 M138.91 136.61 C146.30 126.94, 156.19 119.24, 169.88 99.58 M136.92 146.62 C144.71 128.05, 161.49 116.51, 181.28 96.70 M137.03 141.64 C147.59 130.31, 156.30 120.53, 178.67 97.92 M137.43 148.13 C156.48 130.05, 171.79 107.61, 185.93 95.42 M137.24 151.02 C148.26 136.07, 162.95 116.42, 188.64 93.64 M137.01 159.89 C155.76 139.30, 172.79 114.25, 198.84 91.07 M134.88 160.34 C158.71 130.23, 183.45 103.00, 197.96 86.34 M138.98 164.26 C155.31 148.58, 173.36 124.19, 198.46 87.67 M135.22 162.91 C150.10 148.24, 163.70 131.57, 202.10 86.87 M139.74 166.82 C159.45 138.53, 181.47 115.26, 205.57 87.80 M134.57 167.41 C152.15 150.69, 163.52 132.06, 207.11 87.28 M135.48 171.69 C155.29 148.20, 172.97 130.67, 213.29 89.88 M138.12 173.08 C164.24 144.47, 193.62 110.95, 213.44 87.24 M142.25 179.75 C171.79 142.87, 201.18 107.17, 218.22 90.76 M139.15 179.53 C163.65 147.71, 189.49 119.47, 217.08 87.39 M142.11 185.07 C155.31 159.13, 177.47 134.95, 223.60 84.83 M140.65 181.88 C162.76 158.58, 184.87 133.05, 220.57 87.72 M139.89 186.29 C166.59 159.72, 186.76 131.06, 227.44 85.66 M139.33 186.78 C165.91 160.69, 186.04 137.66, 227.98 91.35 M145.89 189.57 C165.15 165.56, 184.44 144.75, 233.26 89.69 M143.70 193.81 C162.98 166.39, 187.37 141.95, 228.98 91.73 M142.82 193.62 C166.20 171.23, 184.18 151.06, 234.46 96.92 M143.88 196.52 C166.92 169.49, 191.03 139.91, 235.86 93.79 M142.98 196.62 C182.82 161.06, 209.87 124.90, 236.02 91.42 M147.18 200.92 C174.71 162.06, 207.79 127.06, 237.46 96.16 M151.86 201.24 C170.15 176.61, 193.45 151.38, 238.56 97.38 M150.23 204.10 C166.65 178.65, 187.71 157.28, 242.12 95.46 M152.71 205.78 C176.92 176.82, 203.31 142.83, 246.54 97.33 M150.42 206.27 C183.17 175.71, 210.90 140.96, 246.55 99.15 M156.92 206.58 C190.43 171.15, 225.85 128.93, 247.64 97.75 M153.40 209.42 C185.58 173.19, 216.58 138.97, 247.06 98.93 M153.85 217.62 C178.01 188.86, 208.33 162.44, 249.93 102.41 M156.85 214.30 C180.04 184.58, 203.66 156.17, 252.72 102.10 M157.63 219.42 C186.31 185.65, 215.70 161.14, 257.22 107.44 M159.76 216.64 C177.49 193.32, 203.55 167.35, 254.36 102.98 M162.44 219.52 C187.65 194.84, 206.89 169.90, 255.74 110.24 M162.05 218.28 C202.96 173.92, 238.82 133.30, 261.01 106.53 M168.25 218.71 C192.97 191.55, 223.30 155.97, 266.05 110.78 M166.66 222.60 C188.70 191.52, 214.33 163.35, 264.06 109.75 M172.22 223.18 C199.73 193.00, 225.88 164.12, 268.89 108.90 M166.72 224.49 C203.75 184.06, 237.25 143.77, 265.65 112.75 M169.18 229.18 C198.97 194.74, 217.78 171.24, 264.49 114.95 M171.59 223.87 C203.97 191.60, 234.33 155.85, 266.97 115.65 M178.23 230.84 C206.08 189.51, 241.03 145.67, 270.44 117.47 M174.43 226.45 C203.63 195.67, 230.23 168.15, 271.44 117.18 M183.54 230.16 C201.80 197.41, 225.65 170.19, 275.47 119.65 M177.89 229.02 C201.20 201.76, 222.18 179.44, 272.92 121.56 M180.69 230.75 C215.36 188.75, 247.43 149.05, 277.52 119.42 M185.29 230.84 C219.74 188.89, 254.73 147.11, 276.29 124.23 M190.60 234.40 C210.29 201.51, 240.07 170.86, 278.15 123.52 M187.11 233.12 C221.54 192.39, 259.23 151.04, 280.11 126.83 M189.88 231.93 C227.34 198.94, 254.31 165.55, 285.13 131.29 M192.82 235.42 C214.06 211.26, 233.45 182.94, 281.55 130.40 M199.40 234.85 C217.80 210.21, 235.30 192.38, 281.14 137.41 M197.64 235.24 C216.06 214.36, 233.66 194.85, 283.14 133.26 M204.09 239.09 C229.96 206.38, 262.09 167.45, 283.92 142.66 M199.94 235.84 C224.86 206.84, 252.09 174.66, 282.89 138.27 M204.84 238.79 C239.16 199.04, 266.00 161.62, 282.91 141.01 M204.71 236.32 C224.48 211.30, 245.76 191.37, 286.70 145.19 M210.56 232.52 C231.33 205.21, 256.89 180.81, 283.80 146.59 M210.98 236.54 C231.12 213.10, 247.90 192.93, 287.64 148.18 M215.69 235.38 C238.18 209.07, 263.52 183.40, 289.27 156.14 M216.77 235.49 C231.96 213.41, 247.94 196.18, 288.16 152.60 M220.76 237.18 C237.23 212.18, 254.12 198.30, 288.10 161.10 M222.54 238.38 C247.81 208.61, 274.03 179.22, 286.21 159.48 M222.82 238.36 C242.41 210.70, 269.62 186.87, 290.93 166.18 M224.69 237.41 C245.10 214.71, 263.54 188.84, 287.42 163.66 M231.56 231.81 C251.63 210.43, 265.62 190.48, 284.81 174.01 M235.16 234.21 C245.18 221.24, 255.57 210.94, 286.15 176.54 M245.04 225.15 C259.46 213.51, 270.50 197.80, 282.61 182.56 M245.73 229.24 C258.04 213.91, 271.72 200.19, 282.54 183.07 M254.71 222.98 C257.63 217.36, 267.56 208.59, 274.03 191.99 M254.53 221.41 C262.00 213.77, 267.42 209.64, 277.54 193.89" fill="#faf7ef" stroke="none"/><path d="M226.00 88.81 C236.68 90.33, 249.24 98.69, 258.49 105.19 C267.75 111.68, 276.59 118.08, 281.54 127.76 C286.49 137.43, 288.85 151.86, 288.19 163.23 C287.54 174.59, 282.76 186.50, 277.58 195.97 C272.40 205.43, 265.33 213.21, 257.12 220.00 C248.91 226.80, 239.33 234.37, 228.33 236.73 C217.33 239.10, 202.49 237.07, 191.12 234.21 C179.74 231.34, 168.23 226.34, 160.05 219.52 C151.87 212.71, 146.39 203.02, 142.04 193.33 C137.69 183.63, 134.26 172.23, 133.95 161.36 C133.63 150.49, 135.57 137.70, 140.14 128.12 C144.72 118.53, 152.49 110.55, 161.38 103.87 C170.28 97.19, 180.97 90.28, 193.51 88.04 C206.05 85.81, 227.62 89.12, 236.61 90.45 C245.60 91.79, 247.63 95.02, 247.44 96.07 M275.28 121.68 C281.98 129.65, 284.41 139.54, 285.78 149.58 C287.14 159.63, 286.62 171.28, 283.49 181.94 C280.36 192.60, 275.03 205.67, 267.00 213.53 C258.96 221.39, 246.24 225.28, 235.25 229.09 C224.26 232.89, 211.64 237.24, 201.07 236.37 C190.50 235.49, 180.60 229.14, 171.85 223.84 C163.10 218.54, 154.89 213.34, 148.59 204.55 C142.28 195.76, 135.91 181.70, 134.04 171.09 C132.17 160.48, 134.08 151.02, 137.38 140.88 C140.69 130.74, 146.45 118.55, 153.87 110.27 C161.29 101.98, 171.20 95.18, 181.92 91.17 C192.63 87.17, 207.31 85.41, 218.16 86.25 C229.02 87.09, 238.19 90.67, 247.04 96.22 C255.89 101.77, 267.13 115.09, 271.25 119.56 C275.38 124.03, 272.53 122.69, 271.80 123.05" fill="none" stroke="#202020" stroke-width="3" stroke-linecap="round" stroke-linejoin="round"/><path d="M143.24 80.79 C143.24 80.79, 143.24 80.79, 143.24 80.79 M143.24 80.79 C143.24 80.79, 143.24 80.79, 143.24 80.79 M122.18 110.15 C132.81 99.69, 142.52 93.16, 156.14 74.57 M122.77 111.97 C134.25 95.38, 150.09 81.76, 154.60 74.59 M117.07 124.13 C128.16 102.17, 141.44 91.18, 167.89 60.23 M120.45 120.62 C138.62 100.05, 158.78 77.17, 170.00 65.40 M115.36 132.51 C128.74 118.34, 141.07 102.52, 177.51 61.52 M118.65 128.27 C137.54 104.64, 159.78 81.04, 176.33 59.09 M113.74 142.24 C135.58 120.18, 150.10 102.24, 183.09 55.18 M115.60 139.17 C131.23 119.67, 150.01 101.35, 183.30 59.04 M110.38 152.11 C134.35 121.83, 154.97 99.51, 194.39 58.93 M109.43 147.19 C135.30 119.62, 157.75 92.93, 191.11 58.01 M108.59 155.53 C140.39 115.68, 170.26 88.52, 198.43 55.29 M112.79 155.01 C142.75 117.99, 173.83 82.44, 195.21 54.64 M109.81 155.71 C136.73 131.92, 154.99 106.29, 201.61 54.94 M111.45 160.77 C135.82 129.89, 159.64 101.99, 203.44 55.65 M111.23 163.81 C141.41 132.00, 174.62 103.16, 213.17 54.69 M112.07 164.26 C133.01 143.03, 153.08 117.34, 210.95 52.46 M116.77 173.09 C136.41 142.43, 160.87 121.33, 213.85 53.46 M113.78 170.92 C147.88 130.79, 182.43 94.60, 213.27 53.10 M114.50 174.06 C148.58 135.23, 177.56 96.16, 218.55 56.22 M115.59 174.24 C150.85 134.50, 182.75 97.29, 221.12 53.80 M115.47 180.03 C145.86 141.70, 178.12 107.01, 225.90 57.92 M113.40 181.28 C161.26 129.91, 204.06 78.08, 224.68 55.41 M113.58 187.08 C160.87 136.98, 197.53 87.29, 224.53 56.84 M113.99 186.11 C145.10 150.43, 175.64 114.85, 229.69 55.77 M117.44 196.15 C140.90 159.94, 168.32 125.29, 236.02 56.32 M114.03 191.48 C149.17 157.88, 179.39 117.79, 231.51 57.43 M116.68 194.02 C145.74 164.35, 179.04 119.60, 239.97 62.59 M117.10 195.76 C156.90 148.70, 203.96 97.86, 234.16 60.75 M115.22 198.12 C161.92 149.44, 199.68 100.21, 238.03 56.55 M116.53 201.68 C148.61 162.48, 178.43 126.80, 239.49 60.80 M122.13 207.48 C155.01 162.59, 185.25 128.96, 247.24 60.34 M121.57 203.23 C160.31 155.70, 200.44 109.46, 243.54 60.11 M118.82 205.60 C156.89 160.29, 194.01 121.50, 247.22 61.72 M123.06 210.12 C160.36 164.83, 198.91 121.45, 249.67 62.68 M125.67 207.97 C166.44 154.58, 214.41 106.73, 255.20 65.15 M125.96 212.46 C155.39 176.48, 180.84 148.27, 254.14 66.02 M129.40 218.83 C171.78 162.02, 220.23 107.85, 255.00 68.30 M124.81 217.70 C163.17 173.47, 200.46 128.79, 257.19 67.72 M131.96 217.08 C178.46 166.93, 230.91 104.50, 263.02 64.80 M128.06 220.57 C159.88 183.69, 192.69 146.76, 260.83 66.94 M127.52 222.91 C178.51 163.80, 224.78 111.89, 263.48 70.83 M129.12 224.19 C170.88 176.75, 209.69 129.35, 263.90 70.08 M135.76 229.33 C178.83 173.32, 225.57 123.10, 265.81 72.44 M131.75 225.39 C168.93 181.80, 208.64 137.03, 267.25 74.28 M135.41 229.41 C186.85 172.69, 239.14 118.29, 272.83 71.52 M133.58 231.92 C177.29 180.09, 218.95 131.69, 271.62 73.43 M141.14 237.01 C166.24 197.71, 193.57 163.49, 272.71 79.55 M139.04 234.62 C171.37 197.04, 201.78 162.05, 272.51 77.19 M141.48 235.72 C194.01 175.87, 244.55 114.95, 280.27 80.48 M139.79 238.62 C187.68 184.46, 235.66 127.67, 276.86 80.60 M143.07 237.55 C183.12 193.19, 225.27 149.31, 279.86 80.81 M142.77 239.21 C193.10 178.06, 246.68 117.83, 281.87 79.47 M146.50 242.57 C188.56 194.61, 232.10 141.54, 283.97 81.38 M145.03 242.31 C185.68 198.67, 225.35 152.56, 281.50 85.55 M148.46 247.83 C185.01 203.63, 223.80 155.86, 286.45 86.67 M146.79 247.96 C179.45 207.65, 210.43 171.69, 284.65 87.57 M148.97 251.69 C203.31 191.75, 253.83 131.75, 288.58 92.92 M150.56 247.96 C198.26 194.00, 246.73 137.57, 287.37 92.62 M152.54 253.30 C207.92 191.57, 264.58 127.45, 288.21 97.43 M151.85 251.32 C202.47 193.61, 254.09 134.65, 288.97 96.96 M153.67 258.02 C198.21 204.43, 240.85 156.16, 294.47 99.48 M156.42 257.29 C192.35 215.45, 225.38 174.59, 292.28 100.22 M159.35 258.68 C209.09 207.63, 256.27 152.57, 292.82 102.33 M160.16 257.48 C208.60 201.54, 255.12 146.60, 292.77 103.67 M164.47 262.64 C194.87 214.76, 238.50 175.80, 296.38 106.78 M161.83 259.33 C202.97 211.59, 247.16 165.07, 296.89 106.09 M168.75 262.58 C193.58 226.70, 227.76 186.68, 295.28 111.09 M167.59 260.37 C199.04 222.14, 230.30 185.75, 296.99 110.25 M171.39 264.32 C209.18 213.03, 247.91 171.11, 303.10 115.88 M170.54 260.80 C213.35 213.08, 257.90 162.83, 301.77 114.91 M177.88 268.31 C207.82 227.29, 238.63 189.04, 302.28 115.66 M176.16 265.88 C206.91 229.71, 237.11 192.24, 301.64 117.96 M178.88 267.30 C206.02 230.50, 240.69 201.83, 302.09 121.12 M177.64 265.80 C207.40 231.20, 235.85 200.33, 303.87 119.79 M181.04 263.76 C229.94 213.07, 278.25 158.55, 305.55 122.85 M183.95 267.84 C221.10 226.37, 254.81 187.20, 307.02 124.28 M188.94 269.41 C225.34 223.98, 270.18 180.47, 307.17 129.69 M186.33 269.60 C213.38 238.19, 237.72 208.99, 305.44 129.46 M195.79 271.12 C223.03 237.37, 250.42 201.52, 306.49 135.00 M191.63 268.34 C228.96 228.02, 264.06 184.98, 307.84 136.61 M193.43 271.62 C233.12 227.91, 273.87 188.09, 307.08 138.68 M198.77 270.53 C237.53 220.31, 279.37 173.70, 309.13 139.77 M204.25 266.38 C238.70 223.73, 281.98 173.52, 312.18 145.43 M201.51 270.58 C244.61 218.37, 285.06 172.01, 312.21 144.79 M211.18 268.72 C236.92 238.65, 261.14 212.61, 311.93 152.89 M205.49 268.85 C225.73 243.95, 249.40 219.20, 313.04 147.71 M215.13 266.37 C249.97 220.36, 286.76 183.11, 312.37 154.30 M211.29 267.62 C248.29 225.23, 284.61 182.73, 314.50 152.88 M215.43 272.47 C251.09 228.32, 290.95 184.46, 308.52 157.25 M219.96 269.39 C253.27 225.97, 290.26 186.37, 313.47 159.70 M219.12 268.26 C246.67 244.89, 273.76 211.11, 314.48 169.24 M223.63 270.32 C252.00 235.04, 281.05 200.61, 311.05 166.54 M227.98 268.81 C254.50 242.16, 277.21 219.23, 311.11 171.19 M227.67 269.77 C258.54 231.51, 291.74 194.14, 311.12 173.59 M228.79 273.93 C258.10 244.61, 281.28 218.07, 307.99 178.99 M234.19 270.16 C260.25 240.50, 283.50 211.16, 310.24 180.29 M239.02 264.45 C264.31 235.54, 292.56 212.23, 305.55 186.66 M238.71 268.38 C259.44 247.23, 279.61 227.32, 307.27 189.30 M250.54 261.73 C270.38 241.72, 290.01 216.98, 305.94 195.89 M249.50 263.98 C264.41 243.63, 282.25 222.26, 310.55 193.30 M257.14 261.16 C274.46 245.87, 290.70 226.68, 301.97 209.24 M257.52 261.52 C271.11 244.97, 289.51 222.44, 306.21 207.07 M266.02 259.98 C271.77 249.34, 282.88 237.38, 298.36 215.29 M265.09 255.81 C278.10 245.72, 288.20 231.94, 299.16 217.75" fill="#faf7ef" stroke="none"/><path d="M278.30 79.28 C287.97 86.91, 295.33 102.21, 300.78 114.49 C306.22 126.77, 309.93 140.04, 310.96 152.94 C312.00 165.83, 310.46 178.99, 306.99 191.87 C303.51 204.76, 297.45 219.64, 290.12 230.26 C282.78 240.89, 273.06 249.27, 262.95 255.65 C252.84 262.02, 241.48 266.43, 229.47 268.51 C217.46 270.59, 203.21 270.15, 190.89 268.13 C178.57 266.10, 165.35 263.29, 155.56 256.36 C145.76 249.43, 139.22 237.18, 132.14 226.55 C125.05 215.92, 116.76 205.09, 113.06 192.56 C109.37 180.02, 108.48 164.96, 109.96 151.36 C111.44 137.76, 116.46 122.66, 121.96 110.96 C127.45 99.26, 133.99 89.74, 142.91 81.17 C151.84 72.59, 163.97 64.59, 175.52 59.50 C187.06 54.41, 200.62 50.55, 212.18 50.61 C223.74 50.67, 232.63 53.17, 244.87 59.86 C257.11 66.55, 278.17 84.05, 285.60 90.74 C293.02 97.43, 291.08 99.22, 289.43 100.01 M273.68 82.97 C283.69 89.85, 293.07 101.64, 299.36 113.08 C305.66 124.51, 310.11 138.80, 311.45 151.56 C312.79 164.33, 311.45 177.38, 307.39 189.64 C303.34 201.91, 294.26 213.95, 287.11 225.13 C279.96 236.32, 274.14 249.22, 264.48 256.77 C254.83 264.32, 241.67 268.11, 229.17 270.41 C216.67 272.71, 201.12 272.66, 189.47 270.58 C177.82 268.51, 168.59 264.99, 159.25 257.95 C149.92 250.92, 141.28 238.96, 133.44 228.37 C125.59 217.78, 116.18 207.55, 112.20 194.39 C108.23 181.24, 108.16 163.21, 109.58 149.44 C110.99 135.66, 114.93 123.03, 120.70 111.75 C126.46 100.47, 135.57 90.84, 144.18 81.78 C152.79 72.73, 161.43 62.82, 172.35 57.45 C183.27 52.07, 197.09 49.73, 209.70 49.54 C222.30 49.35, 237.29 51.19, 247.98 56.30 C258.67 61.42, 269.69 75.88, 273.82 80.23 C277.96 84.58, 273.25 81.02, 272.78 82.42" fill="none" stroke="#202020" stroke-width="3" stroke-linecap="round" stroke-linejoin="round"/><path d="M188.61 115.47 C195.70 111.80, 206.22 111.16, 214.56 111.53 C222.91 111.89, 232.03 113.10, 238.70 117.64 C245.37 122.18, 251.05 130.69, 254.59 138.77 C258.13 146.84, 260.58 156.95, 259.96 166.09 C259.34 175.23, 255.55 186.53, 250.87 193.60 C246.18 200.68, 239.79 205.08, 231.83 208.53 C223.87 211.99, 211.60 215.12, 203.09 214.34 C194.57 213.55, 187.46 208.83, 180.74 203.81 C174.02 198.80, 166.06 191.85, 162.78 184.25 C159.51 176.65, 160.07 167.06, 161.07 158.22 C162.07 149.39, 163.55 138.60, 168.79 131.23 C174.03 123.85, 187.48 117.09, 192.52 113.96 C197.56 110.84, 198.32 111.79, 199.03 112.45 M222.59 111.60 C230.54 113.22, 241.93 122.39, 247.50 128.39 C253.07 134.40, 254.18 139.79, 256.00 147.63 C257.83 155.47, 260.93 166.33, 258.46 175.44 C255.98 184.55, 247.32 196.44, 241.18 202.27 C235.03 208.11, 229.61 208.64, 221.58 210.42 C213.56 212.21, 201.16 215.11, 193.00 212.99 C184.85 210.87, 177.76 204.71, 172.65 197.72 C167.55 190.73, 164.41 179.58, 162.37 171.04 C160.34 162.50, 157.91 154.34, 160.45 146.46 C162.99 138.58, 170.97 129.46, 177.63 123.78 C184.29 118.09, 192.24 114.03, 200.41 112.33 C208.58 110.63, 222.55 113.87, 226.66 113.55 C230.76 113.23, 225.37 109.98, 225.03 110.41" fill="#faf7ef" stroke="none"/><path d="M197.06 112.30 C204.22 109.47, 214.41 107.76, 222.51 110.35 C230.60 112.94, 239.39 121.03, 245.60 127.83 C251.81 134.64, 257.70 143.02, 259.76 151.17 C261.83 159.32, 260.63 168.32, 257.99 176.73 C255.35 185.15, 250.17 195.89, 243.92 201.68 C237.66 207.47, 228.26 209.72, 220.47 211.45 C212.68 213.19, 204.81 214.72, 197.16 212.09 C189.50 209.47, 180.77 202.43, 174.54 195.71 C168.31 188.99, 161.51 180.03, 159.77 171.77 C158.04 163.50, 161.22 153.97, 164.12 146.12 C167.01 138.26, 169.86 130.54, 177.13 124.64 C184.39 118.74, 200.82 113.31, 207.70 110.73 C214.58 108.16, 218.66 108.76, 218.41 109.21 M243.62 122.37 C250.48 127.68, 259.19 141.69, 261.24 150.90 C263.30 160.11, 258.26 169.58, 255.95 177.64 C253.64 185.71, 252.60 193.96, 247.38 199.30 C242.16 204.64, 232.88 207.17, 224.64 209.69 C216.40 212.22, 206.67 216.60, 197.93 214.45 C189.19 212.30, 178.39 203.17, 172.22 196.77 C166.04 190.37, 162.39 184.16, 160.90 176.04 C159.41 167.92, 160.87 156.51, 163.29 148.04 C165.71 139.56, 169.79 131.45, 175.43 125.20 C181.07 118.94, 188.80 113.04, 197.12 110.50 C205.45 107.97, 217.45 107.32, 225.36 109.97 C233.28 112.63, 241.00 123.49, 244.62 126.43 C248.24 129.36, 248.04 127.51, 247.10 127.57" fill="none" stroke="#202020" stroke-width="3" stroke-linecap="round" stroke-linejoin="round"/><path d="M307.18 67.58 C317.97 55.35, 336.16 40.63, 344.31 26.23 M307.55 65.88 C315.13 53.33, 326.97 44.66, 344.69 26.74" fill="none" stroke="#202020" stroke-width="3" stroke-linecap="round" stroke-linejoin="round"/><path d="M306.55 258.60 C315.10 262.58, 325.77 276.24, 340.95 292.14 M306.62 257.06 C317.57 267.17, 328.09 280.80, 342.22 295.58" fill="none" stroke="#202020" stroke-width="3" stroke-linecap="round" stroke-linejoin="round"/><path d="M109.97 254.22 C99.99 272.38, 86.24 289.37, 78.96 293.27 M114.20 258.72 C100.21 269.59, 90.71 282.36, 75.95 296.37" fill="none" stroke="#202020" stroke-width="3" stroke-linecap="round" stroke-linejoin="round"/><path d="M113.00 64.78 C101.75 54.48, 92.93 44.54, 77.34 25.69 M112.30 65.04 C102.25 56.59, 94.85 43.36, 76.11 28.48" fill="none" stroke="#202020" stroke-width="3" stroke-linecap="round" stroke-linejoin="round"/></svg>