<svg xmlns="http://www.w3.org/2000/svg" viewBox="0 0 436 310" width="436" height="310"><path d="M46.33 -2.50 L144.48 1.37 L144.10 -43.99 L228.33 -41.26 L228.88 -2.97 L373.07 1.03 L377.71 87.28 L417.80 86.90 L422.45 145.36 L377.14 145.50 L375.68 297.35 L231.85 297.06 L233.87 339.18 L146.63 335.49 L147.31 295.23 L45.53 296.75 L44.86 150.33 L-3.72 144.92 L-3.20 89.95 L41.26 88.06" fill="#faf7ef" stroke="none"/><path d="M42.30 -0.05 C77.13 -1.76, 114.89 -4.32, 145.60 2.65 M43.59 -0.41 C77.94 -2.02, 112.14 0.55, 148.59 -0.27 M145.51 -1.72 C147.35 -13.79, 150.46 -26.88, 149.94 -43.69 M145.83 1.35 C145.79 -14.70, 147.03 -29.68, 145.51 -45.97 M147.51 -46.52 C179.70 -40.97, 212.08 -43.97, 234.41 -46.70 M145.11 -45.55 C170.23 -41.97, 190.30 -41.96, 232.83 -44.23 M233.46 -46.73 C231.99 -30.10, 229.95 -14.95, 234.83 2.63 M232.88 -45.16 C232.22 -35.20, 232.67 -23.94, 229.40 1.79 M232.73 -3.69 C271.03 1.73, 304.77 3.33, 378.20 -1.44 M231.91 -0.83 C268.39 -2.45, 305.16 -2.51, 376.45 0.19 M378.15 -0.49 C380.56 17.21, 377.09 39.28, 375.79 89.25 M375.81 -0.06 C374.31 22.11, 375.47 43.13, 375.46 89.98 M375.02 84.59 C384.25 84.16, 401.98 87.23, 421.39 84.69 M373.92 86.93 C393.11 89.87, 409.79 86.46, 419.78 87.27 M416.82 87.39 C418.40 100.54, 422.79 119.91, 419.69 146.20 M419.78 88.51 C420.16 108.83, 419.52 129.47, 418.73 148.47 M422.38 150.19 C412.52 143.75, 394.78 145.59, 378.92 143.31 M419.75 147.49 C404.06 146.69, 385.26 147.33, 375.31 146.23 M373.96 148.25 C377.40 194.35, 377.79 242.81, 378.12 295.15 M376.49 145.15 C375.64 192.58, 377.82 240.17, 374.38 292.41 M379.28 292.50 C342.58 295.25, 315.86 295.11, 233.21 290.86 M375.74 295.05 C334.77 294.33, 290.19 295.72, 230.25 293.63 M234.17 297.35 C227.55 305.71, 228.93 323.14, 234.20 338.39 M231.22 294.04 C229.56 309.17, 231.07 321.23, 231.38 336.69 M227.24 337.40 C211.42 336.44, 195.64 342.69, 149.77 339.16 M232.86 339.69 C202.23 336.81, 172.64 336.42, 146.15 338.89 M146.41 335.68 C150.26 323.02, 144.31 308.37, 144.43 291.47 M146.48 338.23 C146.45 323.73, 148.00 310.25, 145.19 294.40 M143.44 291.31 C106.85 289.77, 69.89 289.71, 47.09 290.95 M148.47 295.64 C115.09 295.04, 81.83 292.81, 46.03 294.63 M47.26 296.73 C45.61 231.73, 47.44 175.21, 40.97 150.53 M43.96 295.87 C47.67 262.62, 47.41 233.44, 44.72 146.96 M41.62 150.96 C28.06 144.76, 16.85 148.27, -1.66 147.75 M44.21 145.64 C27.50 144.63, 15.38 147.44, -1.05 146.77 M-3.54 149.72 C2.63 130.52, -5.04 112.15, -3.14 88.19 M-0.01 147.79 C0.54 128.92, -0.01 109.77, -1.06 86.38 M-3.38 88.33 C10.39 89.06, 21.00 89.51, 43.23 85.91 M0.94 87.02 C9.58 89.50, 20.07 89.75, 44.20 87.00 M44.10 84.26 C44.23 59.78, 42.41 35.24, 44.99 1.03 M45.36 88.66 C44.18 57.05, 42.31 29.42, 42.46 -0.38" fill="none" stroke="#202020" stroke-width="3" stroke-linecap="round" stroke-linejoin="round"/></svg>