<svg xmlns="http://www.w3.org/2000/svg" viewBox="0 0 436 310" width="436" height="310"><path d="M40.36 3.33 L149.45 -1.43 L146.58 -46.89 L230.81 -45.37 L234.14 -3.01 L378.16 -2.73 L377.71 85.95 L422.70 89.11 L416.13 150.37 L374.40 149.34 L376.40 295.29 L233.13 290.32 L227.36 338.18 L149.66 341.11 L145.74 292.22 L42.59 290.34 L48.04 143.82 L-1.32 144.28 L-3.13 91.06 L41.99 90.93" fill="#faf7ef" stroke="none"/><path d="M40.84 -2.64 C65.40 1.55, 88.60 2.68, 149.42 0.18 M44.65 -1.55 C85.61 2.30, 123.78 0.55, 147.63 -0.20 M148.31 -0.11 C149.04 -7.62, 146.33 -18.74, 147.17 -45.10 M147.31 -1.85 C148.23 -11.56, 144.96 -22.25, 147.16 -43.93 M145.63 -41.93 C177.41 -44.42, 208.38 -41.81, 232.49 -40.41 M147.24 -43.49 C177.03 -45.78, 204.91 -42.27, 230.18 -43.94 M229.77 -45.45 C231.30 -30.12, 234.86 -19.66, 233.83 -0.86 M232.62 -42.71 C228.89 -30.19, 230.55 -14.69, 231.58 -1.11 M231.01 1.06 C283.58 1.21, 332.41 2.58, 379.04 -0.68 M229.04 1.20 C274.58 -2.37, 320.54 -0.65, 377.45 -1.04 M373.05 -3.23 C375.97 27.80, 373.53 54.15, 377.60 88.68 M374.02 -0.57 C375.67 26.41, 379.04 53.81, 375.54 87.76 M378.46 85.59 C392.73 89.02, 413.87 90.41, 421.23 86.46 M375.81 89.40 C389.68 88.72, 398.35 89.09, 421.91 88.02 M418.55 89.50 C421.31 106.41, 416.68 124.17, 416.79 147.17 M419.51 86.23 C419.70 105.71, 418.72 127.07, 418.47 146.26 M418.41 145.82 C411.75 144.08, 395.16 144.02, 374.64 147.40 M418.47 145.20 C409.03 148.40, 401.72 147.67, 377.73 148.46 M371.95 143.41 C375.28 199.53, 377.41 258.76, 376.21 291.47 M373.97 147.54 C375.05 185.52, 375.87 223.57, 375.91 294.97 M379.70 297.28 C319.24 289.20, 272.98 295.27, 231.62 296.59 M375.49 292.57 C340.50 291.51, 308.01 292.68, 232.20 295.31 M234.74 296.22 C234.51 309.73, 232.20 325.97, 229.03 334.67 M231.83 293.79 C232.72 304.56, 233.11 313.04, 231.82 339.67 M233.18 336.02 C205.33 340.19, 174.47 337.47, 146.76 339.07 M232.05 336.47 C213.12 337.04, 192.17 336.28, 147.48 338.68 M144.93 336.11 C146.84 327.99, 145.98 313.52, 148.57 295.04 M147.08 338.58 C147.16 328.77, 144.89 319.26, 147.23 294.29 M149.46 296.22 C117.99 297.07, 93.34 294.87, 46.35 294.08 M146.49 292.67 C113.15 293.34, 77.51 292.96, 42.85 295.29 M47.13 295.59 C45.01 236.74, 46.13 184.43, 47.77 147.96 M42.64 293.52 C42.96 245.46, 43.41 199.71, 44.15 147.43 M44.57 145.01 C33.57 146.35, 18.59 150.07, -0.60 150.30 M45.40 145.99 C32.42 145.64, 25.50 145.77, 1.00 148.70 M2.96 146.22 C1.59 131.06, 1.82 110.51, -1.44 89.66 M-0.53 148.58 C1.87 132.99, 1.63 116.57, 1.69 87.12 M2.15 91.73 C13.44 88.22, 19.39 90.05, 46.32 92.18 M-0.55 87.01 C9.36 86.23, 21.50 86.78, 43.20 86.50 M44.40 84.31 C45.22 61.66, 42.84 33.11, 44.78 1.99 M43.17 87.65 C44.59 57.39, 44.57 28.13, 45.94 1.06" fill="none" stroke="#202020" stroke-width="3" stroke-linecap="round" stroke-linejoin="round"/></svg>