<svg xmlns="http://www.w3.org/2000/svg" viewBox="0 0 436 310" width="436" height="310"><path d="M18.61 257.82 L58.25 251.87 L57.96 285.50 L22.88 283.40" fill="#faf7ef" stroke="none"/><path d="M17.59 255.27 C32.99 253.91, 43.41 254.36, 58.25 250.54 M19.49 254.00 C33.27 253.83, 45.56 252.86, 54.08 253.94 M53.61 257.09 C58.28 260.53, 54.09 268.62, 57.20 284.71 M55.61 254.05 C55.54 264.15, 57.18 276.95, 54.41 284.54 M53.21 284.67 C43.59 285.91, 29.27 285.05, 19.64 282.38 M56.12 283.60 C46.95 285.15, 35.69 286.31, 19.08 282.46 M21.61 282.28 C20.61 276.39, 17.01 267.95, 18.02 256.54 M19.94 284.92 C20.09 272.77, 20.82 262.03, 18.32 253.99" fill="none" stroke="#202020" stroke-width="3" stroke-linecap="round" stroke-linejoin="round"/><path d="M61.84 257.61 L96.83 253.56 L92.62 280.26 L58.79 284.55" fill="#faf7ef" stroke="none"/><path d="M60.70 254.28 C67.79 251.91, 76.06 258.11, 94.46 256.80 M58.69 254.26 C74.05 253.57, 87.08 255.72, 96.60 254.27 M93.14 252.56 C93.55 262.57, 92.16 269.99, 97.18 285.90 M96.84 255.82 C93.50 262.92, 93.46 272.55, 94.81 283.45 M94.98 283.70 C81.33 282.42, 66.91 283.43, 62.25 281.90 M94.30 283.86 C81.91 284.46, 69.49 281.97, 59.97 283.84 M57.96 284.47 C63.58 273.37, 56.11 260.74, 58.64 257.17 M61.41 284.14 C59.78 277.62, 57.99 271.31, 61.32 255.97" fill="none" stroke="#202020" stroke-width="3" stroke-linecap="round" stroke-linejoin="round"/><path d="M103.50 253.09 L132.68 255.72 L137.71 282.91 L102.34 282.01" fill="#faf7ef" stroke="none"/><path d="M103.58 251.61 C111.93 255.41, 112.81 252.93, 138.90 250.35 M98.69 252.94 C109.37 254.65, 119.21 251.72, 136.39 254.27 M132.38 255.85 C135.42 264.47, 131.23 271.16, 132.26 280.44 M136.72 254.99 C135.61 261.18, 135.86 268.39, 133.93 284.48 M134.99 281.40 C130.84 283.95, 120.93 284.27, 96.67 285.07 M135.34 283.38 C126.17 284.63, 112.78 282.99, 100.34 283.96 M97.71 287.95 C102.00 276.78, 98.34 261.81, 96.61 257.80 M100.58 284.35 C97.93 274.81, 100.74 265.80, 101.47 254.68" fill="none" stroke="#202020" stroke-width="3" stroke-linecap="round" stroke-linejoin="round"/><path d="M37.00 216.80 L78.36 222.94 L77.44 247.85 L36.76 247.81" fill="#faf7ef" stroke="none"/><path d="M37.88 222.81 C50.39 221.30, 63.14 217.67, 74.96 215.84 M38.32 217.97 C52.38 217.49, 65.81 218.47, 76.82 217.64 M76.59 215.56 C76.04 234.16, 73.52 238.00, 75.70 247.43 M73.24 220.59 C75.11 230.10, 73.85 237.58, 73.70 249.66 M76.44 246.80 C70.11 249.77, 59.90 245.60, 42.34 251.83 M73.32 249.44 C62.36 250.58, 46.11 248.92, 39.53 248.21 M40.37 247.92 C42.56 234.56, 38.47 224.78, 40.33 220.53 M39.87 248.10 C39.40 238.77, 40.23 229.27, 38.98 218.91" fill="none" stroke="#202020" stroke-width="3" stroke-linecap="round" stroke-linejoin="round"/><path d="M80.56 220.14 L111.71 218.04 L114.98 248.13 L82.18 247.80" fill="#faf7ef" stroke="none"/><path d="M82.61 215.51 C91.64 219.76, 108.39 218.23, 116.64 222.02 M80.43 219.27 C89.00 217.50, 99.54 220.01, 115.12 217.46 M112.03 215.59 C116.67 228.05, 117.31 230.12, 115.63 251.63 M115.21 217.95 C116.23 227.39, 113.15 234.88, 115.57 248.51 M112.29 247.17 C99.61 245.39, 88.08 247.58, 78.35 252.26 M113.87 249.61 C103.60 250.21, 91.18 250.99, 79.92 248.26 M80.03 249.38 C78.13 242.42, 77.34 235.17, 77.40 216.52 M81.82 247.44 C81.05 238.06, 80.53 229.07, 80.75 219.65" fill="none" stroke="#202020" stroke-width="3" stroke-linecap="round" stroke-linejoin="round"/><path d="M58.87 184.05 L91.28 180.95 L91.45 210.70 L59.11 216.37" fill="#faf7ef" stroke="none"/><path d="M57.86 182.35 C75.61 186.08, 90.89 186.43, 93.96 180.01 M60.83 183.20 C71.06 184.63, 80.56 185.79, 95.70 185.80 M98.72 187.24 C91.18 192.25, 92.13 203.78, 94.31 210.71 M96.81 182.48 C92.78 191.91, 93.44 201.55, 95.67 212.94 M94.02 214.79 C81.84 215.37, 72.36 211.93, 57.06 212.46 M95.18 213.02 C84.41 213.01, 76.78 212.19, 59.07 215.56 M59.65 211.65 C57.23 210.23, 60.32 201.28, 57.73 187.82 M60.87 212.91 C59.73 206.70, 60.93 203.54, 58.21 182.04" fill="none" stroke="#202020" stroke-width="3" stroke-linecap="round" stroke-linejoin="round"/><path d="M366.02 16.23 L407.88 19.14 L406.66 52.84 L367.45 48.62" fill="#faf7ef" stroke="none"/><path d="M371.51 16.05 C385.45 19.82, 394.05 16.28, 405.37 19.62 M368.40 20.13 C376.63 19.91, 384.81 20.50, 406.77 21.28 M406.29 21.18 C402.83 27.77, 406.64 33.10, 407.76 53.25 M404.72 21.42 C406.57 32.65, 406.11 41.29, 404.22 50.24 M407.56 47.29 C401.16 49.83, 386.70 48.75, 373.78 51.51 M404.26 48.56 C391.94 49.06, 378.55 52.39, 372.00 51.68 M370.52 46.77 C373.16 39.20, 368.18 27.43, 368.68 16.39 M371.47 49.83 C368.59 43.10, 368.21 33.53, 369.04 18.82" fill="none" stroke="#202020" stroke-width="3" stroke-linecap="round" stroke-linejoin="round"/><path d="M391.40 53.11 C384.50 106.43, 384.10 147.58, 389.95 172.86 M388.46 54.59 C387.55 99.34, 391.13 142.36, 387.69 173.99" fill="none" stroke="#202020" stroke-width="3" stroke-linecap="round" stroke-linejoin="round"/></svg>