<svg xmlns="http://www.w3.org/2000/svg" viewBox="0 0 436 310" width="436" height="310"><path d="M21.19 251.34 L56.63 251.26 L52.47 284.31 L20.32 282.91" fill="#faf7ef" stroke="none"/><path d="M23.87 257.86 C29.78 254.75, 39.71 256.60, 56.34 255.44 M19.12 255.29 C26.64 253.54, 35.51 253.81, 53.89 252.37 M54.56 252.74 C58.62 265.29, 52.68 276.94, 53.23 284.42 M56.50 255.13 C54.65 265.97, 56.88 275.40, 54.22 284.30 M51.38 281.52 C43.25 285.67, 37.92 286.28, 23.25 283.94 M55.18 285.19 C40.08 283.97, 26.52 285.10, 18.81 283.75 M20.26 283.14 C17.51 278.81, 18.90 268.23, 22.14 251.53 M18.17 283.09 C19.40 273.45, 18.57 263.23, 18.70 253.93" fill="none" stroke="#202020" stroke-width="3" stroke-linecap="round" stroke-linejoin="round"/><path d="M59.83 256.79 L98.12 251.60 L96.46 285.70 L56.85 285.22" fill="#faf7ef" stroke="none"/><path d="M61.69 252.65 C73.64 253.13, 87.17 253.67, 92.64 252.03 M61.37 255.99 C72.74 255.50, 86.27 252.81, 94.00 255.37 M92.19 257.22 C97.43 264.75, 91.13 275.52, 96.10 283.92 M93.80 254.71 C96.84 265.19, 94.84 274.75, 95.68 282.23 M92.52 284.44 C79.18 285.31, 71.98 282.24, 62.11 281.20 M96.41 285.31 C85.38 283.00, 74.77 285.42, 59.81 283.19 M57.50 286.50 C61.52 277.01, 63.04 269.84, 63.94 253.71 M58.85 284.91 C61.22 274.47, 58.11 268.40, 61.42 252.74" fill="none" stroke="#202020" stroke-width="3" stroke-linecap="round" stroke-linejoin="round"/><path d="M103.63 252.84 L134.63 255.29 L138.57 281.34 L98.04 281.31" fill="#faf7ef" stroke="none"/><path d="M98.19 251.45 C111.66 257.11, 128.61 250.18, 137.06 257.84 M101.25 254.83 C114.27 253.66, 128.81 252.48, 134.03 253.81 M134.08 253.47 C135.43 261.19, 134.54 275.75, 137.13 287.05 M134.34 255.00 C133.57 262.17, 134.78 275.94, 136.04 284.81 M136.77 286.62 C127.28 283.07, 107.73 284.31, 99.27 286.41 M136.04 285.57 C122.47 284.80, 111.99 284.72, 99.74 285.68 M101.64 286.15 C99.86 275.49, 97.21 269.79, 96.57 252.75 M100.53 285.32 C99.27 276.57, 97.99 267.33, 98.32 253.60" fill="none" stroke="#202020" stroke-width="3" stroke-linecap="round" stroke-linejoin="round"/><path d="M39.18 218.31 L73.19 222.79 L74.30 251.79 L43.72 252.86" fill="#faf7ef" stroke="none"/><path d="M39.85 218.01 C46.85 220.93, 61.47 217.03, 73.15 220.69 M41.14 219.84 C52.48 219.29, 65.63 218.65, 76.35 219.63 M73.03 216.03 C77.69 232.77, 77.09 241.70, 73.22 251.09 M73.26 217.90 C75.51 224.94, 74.71 229.58, 76.31 249.10 M74.85 248.87 C65.59 251.94, 57.68 244.77, 42.59 248.08 M74.60 247.47 C61.51 248.73, 49.37 246.83, 38.25 247.39 M42.24 249.52 C36.36 235.31, 43.05 230.19, 38.50 217.73 M38.69 247.29 C39.73 240.95, 38.67 234.55, 38.33 217.20" fill="none" stroke="#202020" stroke-width="3" stroke-linecap="round" stroke-linejoin="round"/><path d="M77.41 222.24 L116.90 218.94 L118.00 250.06 L77.92 252.26" fill="#faf7ef" stroke="none"/><path d="M76.31 222.17 C85.03 214.72, 97.00 215.01, 112.57 216.94 M80.33 217.22 C88.36 217.06, 92.48 219.68, 114.15 220.59 M115.03 220.87 C111.87 225.15, 111.60 234.84, 113.87 251.14 M114.07 219.59 C114.59 229.45, 113.69 238.09, 114.01 247.49 M112.90 247.51 C101.01 251.80, 88.97 251.08, 76.62 251.54 M115.37 248.50 C106.27 249.05, 96.30 249.44, 80.40 250.63 M80.27 247.74 C76.68 243.58, 81.58 238.97, 82.30 218.92 M78.24 250.45 C78.08 240.95, 78.10 232.48, 78.84 220.62" fill="none" stroke="#202020" stroke-width="3" stroke-linecap="round" stroke-linejoin="round"/><path d="M62.49 180.38 L97.95 184.56 L97.05 210.27 L62.45 213.45" fill="#faf7ef" stroke="none"/><path d="M57.71 185.02 C71.58 187.94, 74.29 180.34, 97.54 180.74 M59.51 185.22 C72.01 182.92, 83.57 185.31, 94.94 184.01 M97.80 183.07 C96.51 188.54, 98.96 199.72, 92.91 216.94 M94.64 184.53 C96.23 193.16, 93.03 202.45, 94.76 215.55 M98.27 210.76 C91.10 214.96, 83.12 213.08, 58.99 217.19 M95.76 214.07 C88.07 212.25, 79.45 214.19, 58.11 214.29 M61.30 214.35 C60.16 200.84, 57.73 195.94, 59.29 186.03 M59.30 213.88 C59.73 207.24, 58.25 196.15, 60.42 184.74" fill="none" stroke="#202020" stroke-width="3" stroke-linecap="round" stroke-linejoin="round"/><path d="M371.01 16.40 L401.38 21.69 L404.61 50.53 L367.98 51.76" fill="#faf7ef" stroke="none"/><path d="M371.24 21.16 C381.42 17.30, 387.24 21.90, 408.14 17.24 M370.14 19.90 C381.69 20.02, 395.87 20.66, 404.34 19.79 M405.74 20.39 C401.82 31.85, 406.64 34.20, 403.66 48.41 M405.93 18.76 C403.08 26.52, 403.56 36.16, 403.40 49.16 M405.07 50.13 C396.07 47.56, 376.19 51.05, 373.74 53.74 M405.75 48.80 C390.68 50.32, 380.34 48.72, 370.85 49.79 M368.73 48.16 C369.21 43.18, 366.47 31.94, 367.53 17.49 M370.35 48.69 C369.90 45.82, 369.02 39.06, 369.30 21.36" fill="none" stroke="#202020" stroke-width="3" stroke-linecap="round" stroke-linejoin="round"/><path d="M387.47 58.70 C390.78 100.59, 388.90 148.24, 390.96 177.79 M386.01 56.21 C384.76 97.22, 385.05 138.86, 389.58 174.96" fill="none" stroke="#202020" stroke-width="3" stroke-linecap="round" stroke-linejoin="round"/></svg>