<svg xmlns="http://www.w3.org/2000/svg" viewBox="0 0 900 300" width="900" height="300"><path d="M18.94 257.68 L57.72 258.79 L54.93 291.95 L23.72 293.10" fill="#faf7ef" stroke="none"/><path d="M21.68 257.42 C34.91 255.76, 46.18 260.90, 52.53 263.81 M21.62 259.43 C33.58 257.60, 45.62 258.87, 56.13 261.54 M53.89 256.65 C56.84 269.02, 55.21 268.75, 56.69 292.57 M56.40 261.91 C54.36 269.03, 55.42 281.26, 54.76 288.53 M54.61 287.44 C45.11 289.92, 35.74 293.29, 22.10 288.91 M54.46 288.70 C46.76 288.56, 34.85 290.69, 18.66 289.67 M22.86 292.53 C20.56 280.93, 19.36 273.93, 22.75 261.52 M21.72 288.38 C19.61 281.56, 19.83 271.48, 21.89 259.40" fill="none" stroke="#202020" stroke-width="2" stroke-linecap="round" stroke-linejoin="round"/><path d="M61.43 263.01 L91.34 260.86 L92.72 290.31 L61.49 290.43" fill="#faf7ef" stroke="none"/><path d="M61.12 257.41 C74.19 260.04, 84.23 262.73, 93.71 258.55 M61.32 258.34 C67.60 259.28, 78.66 260.91, 93.10 259.50 M98.55 263.49 C93.15 274.64, 92.98 280.63, 95.66 286.75 M96.14 261.32 C93.76 269.22, 92.64 280.80, 96.19 289.42 M93.85 291.08 C84.58 290.14, 75.93 292.33, 62.45 290.34 M94.31 291.57 C83.11 289.11, 72.11 290.47, 58.63 291.22 M63.63 288.48 C62.09 283.48, 59.93 276.89, 62.09 262.12 M59.17 290.65 C60.18 280.90, 59.43 270.14, 61.94 260.52" fill="none" stroke="#202020" stroke-width="2" stroke-linecap="round" stroke-linejoin="round"/><path d="M103.32 258.14 L132.87 259.44 L138.59 293.38 L97.92 287.16" fill="#faf7ef" stroke="none"/><path d="M98.56 261.74 C107.27 258.71, 121.26 263.64, 138.01 260.95 M100.48 261.30 C107.32 258.78, 116.49 261.97, 135.48 258.75 M131.61 257.51 C139.20 272.35, 137.04 279.89, 132.12 288.34 M133.35 261.65 C135.73 267.83, 134.65 274.22, 133.26 289.08 M138.05 290.63 C130.94 293.22, 121.46 287.39, 99.45 293.96 M134.16 289.43 C124.25 290.27, 108.52 291.65, 100.52 291.74 M99.13 289.69 C101.32 278.56, 97.44 272.78, 102.18 259.77 M101.26 288.19 C99.48 281.44, 100.98 275.20, 101.91 258.88" fill="none" stroke="#202020" stroke-width="2" stroke-linecap="round" stroke-linejoin="round"/><path d="M40.57 228.65 L72.07 228.42 L75.35 257.94 L43.58 257.48" fill="#faf7ef" stroke="none"/><path d="M43.12 222.02 C50.97 225.57, 66.32 222.45, 72.43 225.13 M38.85 224.98 C52.91 226.46, 64.11 224.36, 76.29 223.38 M74.48 221.27 C75.12 232.61, 72.60 239.39, 78.77 252.58 M76.61 225.58 C76.32 230.08, 75.38 239.54, 76.99 256.75 M74.14 258.94 C60.00 254.82, 52.00 257.15, 43.93 258.14 M73.92 256.29 C65.06 253.80, 50.38 256.88, 40.55 255.35 M40.06 256.69 C43.41 245.71, 39.47 241.00, 43.22 222.55 M41.62 253.38 C41.61 244.44, 40.57 237.34, 41.07 225.86" fill="none" stroke="#202020" stroke-width="2" stroke-linecap="round" stroke-linejoin="round"/><path d="M81.89 225.89 L115.21 228.16 L118.35 251.29 L78.50 258.72" fill="#faf7ef" stroke="none"/><path d="M78.32 223.28 C92.45 224.62, 101.23 223.55, 113.56 226.41 M78.43 226.65 C88.13 226.11, 96.50 224.54, 114.07 224.81 M113.98 221.99 C118.68 237.21, 111.36 243.51, 118.35 254.80 M113.90 224.40 C115.85 235.72, 115.04 246.17, 113.53 253.19 M116.41 256.29 C100.57 257.31, 91.02 258.12, 77.08 253.45 M113.27 253.41 C106.67 254.68, 101.11 256.04, 79.13 254.70 M80.31 256.58 C82.42 241.27, 81.42 234.09, 81.81 222.91 M80.17 253.84 C82.33 244.05, 81.17 234.91, 81.43 223.65" fill="none" stroke="#202020" stroke-width="2" stroke-linecap="round" stroke-linejoin="round"/><path d="M62.56 186.07 L98.74 191.16 L96.11 222.64 L62.77 219.95" fill="#faf7ef" stroke="none"/><path d="M57.12 193.52 C69.63 193.26, 87.31 194.13, 98.19 190.77 M60.13 192.00 C70.19 191.72, 81.70 191.79, 96.53 188.43 M93.07 187.61 C92.15 194.53, 95.28 200.97, 95.96 217.15 M93.61 190.15 C93.42 201.09, 94.37 208.91, 96.70 218.75 M97.50 223.04 C83.20 216.22, 78.00 220.96, 63.01 219.14 M94.71 221.92 C86.74 220.97, 77.94 221.65, 60.89 219.51 M61.46 217.94 C57.78 213.86, 62.11 196.77, 63.56 191.83 M60.42 219.80 C58.33 208.59, 59.94 201.60, 60.83 191.10" fill="none" stroke="#202020" stroke-width="2" stroke-linecap="round" stroke-linejoin="round"/><path d="M848.97 19.85 L881.48 16.72 L882.57 50.91 L852.58 47.73" fill="#faf7ef" stroke="none"/><path d="M851.01 22.66 C862.44 17.06, 870.75 21.36, 881.08 20.77 M850.84 19.00 C862.54 20.83, 871.50 22.51, 884.93 18.64 M885.32 23.08 C884.17 29.79, 884.49 45.98, 886.02 48.20 M884.31 20.18 C882.94 28.92, 884.17 43.27, 885.87 49.79 M881.17 52.03 C877.51 51.34, 863.17 52.79, 846.43 49.29 M884.37 49.63 C876.84 50.54, 869.34 49.11, 851.52 49.02 M849.91 49.33 C848.13 38.83, 848.76 37.74, 849.21 23.62 M851.49 48.65 C850.50 40.59, 850.98 35.92, 851.57 21.85" fill="none" stroke="#202020" stroke-width="2" stroke-linecap="round" stroke-linejoin="round"/><path d="M864.14 56.12 C867.79 80.53, 872.67 107.62, 871.89 182.61 M867.83 54.55 C864.39 99.75, 865.90 145.12, 869.30 179.05" fill="none" stroke="#202020" stroke-width="2" stroke-linecap="round" stroke-linejoin="round"/></svg>