<svg xmlns="http://www.w3.org/2000/svg" viewBox="0 0 960 420" width="960" height="420"><path d="M22.89 380.25 L52.31 381.91 L57.59 409.68 L22.69 407.21" fill="#faf7ef" stroke="none"/><path d="M22.54 379.38 C32.66 379.35, 41.30 379.13, 52.20 379.15 M18.31 381.71 C27.84 379.82, 36.51 381.01, 54.51 381.28 M51.67 378.66 C55.36 386.52, 55.33 394.58, 58.69 409.20 M54.57 379.28 C54.84 389.50, 55.22 400.97, 56.90 409.44 M58.51 410.17 C42.67 412.34, 31.59 410.38, 17.80 408.19 M54.62 411.48 C41.38 410.94, 30.07 409.59, 19.60 409.09 M17.04 412.04 C23.46 396.01, 19.33 390.28, 17.35 382.18 M20.22 411.35 C19.70 401.61, 20.88 390.18, 19.29 378.84" fill="none" stroke="#202020" stroke-width="2" stroke-linecap="round" stroke-linejoin="round"/><path d="M61.82 379.84 L96.73 377.24 L97.00 407.17 L57.66 410.66" fill="#faf7ef" stroke="none"/><path d="M62.44 383.49 C70.78 379.78, 84.71 378.86, 93.27 376.21 M59.39 379.92 C71.47 381.76, 83.41 381.71, 94.72 379.66 M98.60 381.62 C94.29 390.04, 94.38 400.20, 95.88 410.91 M95.34 380.88 C94.91 393.51, 95.30 402.17, 93.56 410.69 M96.19 412.50 C85.73 407.09, 71.16 412.41, 60.78 411.54 M95.77 409.07 C82.79 411.74, 74.74 409.04, 58.21 411.80 M56.86 412.32 C59.72 401.94, 57.15 388.84, 61.13 377.55 M61.32 409.39 C61.15 400.04, 58.33 392.61, 60.16 379.85" fill="none" stroke="#202020" stroke-width="2" stroke-linecap="round" stroke-linejoin="round"/><path d="M101.36 383.65 L136.33 377.09 L131.63 411.33 L97.96 408.36" fill="#faf7ef" stroke="none"/><path d="M101.72 382.94 C109.69 379.49, 117.20 383.45, 136.32 376.78 M102.00 379.81 C109.72 380.05, 114.04 380.93, 134.86 381.99 M136.61 382.19 C134.81 385.76, 132.49 392.59, 131.33 407.87 M135.72 380.01 C136.39 388.90, 135.61 401.89, 135.65 409.72 M135.57 411.49 C125.25 408.45, 109.20 407.67, 97.59 413.66 M136.16 408.05 C126.63 409.84, 114.77 411.09, 98.70 408.28 M100.19 412.57 C99.32 406.00, 97.98 395.84, 103.12 378.76 M98.04 408.33 C101.19 401.65, 98.75 395.20, 99.67 379.20" fill="none" stroke="#202020" stroke-width="2" stroke-linecap="round" stroke-linejoin="round"/><path d="M38.55 345.77 L75.30 344.62 L73.20 374.50 L38.33 379.00" fill="#faf7ef" stroke="none"/><path d="M36.80 348.31 C52.71 341.77, 62.08 348.10, 76.72 343.54 M40.35 346.18 C46.79 345.71, 55.03 345.39, 74.45 346.90 M77.62 343.18 C73.00 357.88, 74.74 365.96, 71.01 378.52 M74.80 346.43 C74.73 358.25, 74.65 369.33, 74.16 373.45 M77.19 377.80 C67.43 371.19, 53.75 372.12, 38.30 373.22 M75.66 374.89 C64.29 373.55, 49.28 375.12, 41.84 373.70 M36.62 375.68 C36.29 368.18, 39.89 358.61, 42.18 348.37 M39.66 376.13 C39.07 363.66, 39.00 353.05, 40.88 345.07" fill="none" stroke="#202020" stroke-width="2" stroke-linecap="round" stroke-linejoin="round"/><path d="M82.77 341.92 L115.39 343.21 L111.56 378.93 L82.80 376.38" fill="#faf7ef" stroke="none"/><path d="M79.95 348.48 C87.39 347.42, 95.24 347.48, 116.92 343.40 M78.87 345.85 C91.94 343.72, 103.54 343.80, 113.45 344.68 M113.59 345.83 C116.63 356.26, 118.40 360.44, 117.88 377.32 M113.45 343.39 C114.81 353.17, 113.21 361.22, 115.91 374.96 M114.47 373.67 C102.68 374.05, 85.66 373.93, 79.70 376.65 M115.94 374.59 C103.66 374.61, 91.17 374.46, 80.07 375.11 M78.42 377.98 C81.58 363.83, 75.56 351.88, 83.02 344.98 M78.45 376.89 C78.73 366.84, 80.94 355.69, 79.70 343.64" fill="none" stroke="#202020" stroke-width="2" stroke-linecap="round" stroke-linejoin="round"/><path d="M58.42 306.68 L91.92 313.57 L95.40 337.51 L62.53 342.19" fill="#faf7ef" stroke="none"/><path d="M59.61 309.51 C68.78 312.59, 77.00 310.18, 93.48 306.23 M59.40 310.62 C68.32 311.10, 78.08 309.43, 94.46 311.67 M91.58 311.65 C97.90 318.01, 93.40 320.31, 95.50 341.94 M96.06 311.39 C95.62 316.51, 95.21 324.30, 95.53 339.78 M92.96 340.97 C82.52 342.02, 67.78 342.41, 62.74 342.83 M94.71 339.30 C86.31 339.90, 79.97 338.70, 61.86 341.56 M56.57 339.02 C61.21 327.78, 60.52 324.72, 59.93 313.14 M58.20 339.97 C58.60 334.59, 58.43 329.14, 60.93 309.19" fill="none" stroke="#202020" stroke-width="2" stroke-linecap="round" stroke-linejoin="round"/><path d="M913.00 18.06 L943.07 21.61 L948.73 51.90 L907.99 46.55" fill="#faf7ef" stroke="none"/><path d="M906.26 19.95 C920.39 17.11, 924.61 18.30, 943.53 18.12 M911.78 21.55 C918.36 21.46, 923.16 20.69, 943.39 19.03 M944.27 19.62 C946.99 25.69, 943.20 35.51, 943.33 52.38 M945.44 21.52 C945.42 25.47, 942.83 33.58, 944.74 49.90 M941.83 47.57 C936.05 53.74, 931.11 52.77, 907.19 51.56 M944.60 49.45 C935.37 51.19, 923.64 52.32, 908.61 48.65 M907.10 50.78 C908.96 36.52, 907.20 29.60, 912.83 18.24 M911.98 50.76 C910.40 41.21, 911.12 31.57, 908.17 20.84" fill="none" stroke="#202020" stroke-width="2" stroke-linecap="round" stroke-linejoin="round"/><path d="M928.86 57.33 C927.89 150.71, 925.18 244.28, 929.63 302.43 M926.52 53.45 C927.75 127.15, 927.69 197.71, 928.56 301.59" fill="none" stroke="#202020" stroke-width="2" stroke-linecap="round" stroke-linejoin="round"/></svg>