<svg xmlns="http://www.w3.org/2000/svg" viewBox="0 0 900 320" width="900" height="320"><path d="M312.52 90.15 C312.52 90.15, 312.52 90.15, 312.52 90.15 M312.52 90.15 C312.52 90.15, 312.52 90.15, 312.52 90.15 M306.80 109.72 C318.66 92.40, 333.95 72.99, 342.98 59.80 M304.08 107.57 C314.40 93.41, 325.25 82.97, 343.68 61.04 M294.37 121.63 C318.67 97.01, 340.67 77.47, 353.60 58.22 M291.17 122.87 C309.23 108.64, 322.74 89.81, 351.70 55.71 M287.65 133.99 C304.65 120.03, 322.89 97.25, 363.19 49.35 M290.71 135.03 C319.21 106.08, 345.11 72.88, 360.97 52.02 M290.31 141.42 C310.21 119.47, 333.96 97.05, 371.09 48.54 M286.04 142.83 C317.90 110.71, 345.92 78.51, 370.90 48.18 M286.13 151.40 C320.82 109.73, 355.59 69.12, 378.58 39.10 M286.50 150.55 C314.92 111.69, 347.86 76.01, 379.69 43.48 M285.07 158.36 C323.33 110.27, 368.51 65.22, 388.56 35.96 M281.11 163.17 C324.91 111.39, 368.77 62.77, 387.68 36.55 M278.83 168.36 C317.97 130.67, 355.37 87.63, 393.26 34.84 M281.62 171.54 C318.19 132.17, 354.67 89.26, 395.48 36.43 M283.38 176.03 C322.70 130.25, 366.46 89.24, 403.16 31.03 M279.68 174.91 C326.23 123.63, 370.84 74.06, 401.29 33.16 M283.46 177.32 C316.43 134.96, 358.63 94.72, 407.86 31.53 M281.29 179.48 C307.55 150.57, 331.23 122.49, 410.35 34.67 M285.25 185.32 C324.24 132.36, 373.23 84.72, 414.08 35.24 M280.76 188.22 C326.88 135.10, 367.92 85.84, 417.39 32.24 M284.18 188.53 C308.33 162.37, 335.43 127.66, 419.92 31.38 M282.07 190.06 C328.02 136.08, 374.98 84.88, 422.36 32.23 M282.06 195.64 C323.91 154.62, 356.05 113.58, 426.73 31.19 M285.26 195.63 C340.45 130.53, 393.43 68.21, 430.92 27.16 M287.22 199.55 C326.62 154.83, 365.71 114.38, 436.47 28.03 M282.80 202.11 C343.17 132.35, 402.72 63.38, 434.32 26.34 M285.24 203.79 C326.18 162.69, 369.68 110.33, 444.34 25.28 M284.17 206.79 C318.25 166.97, 351.69 128.18, 442.32 25.60 M286.95 214.60 C328.02 163.49, 365.49 118.58, 446.10 25.97 M286.03 213.40 C332.45 156.85, 385.75 99.09, 447.75 26.59 M289.50 213.53 C334.54 156.54, 384.85 102.07, 454.38 29.17 M288.50 215.17 C348.89 142.85, 415.87 69.53, 452.26 27.04 M291.87 217.97 C335.29 168.80, 384.81 113.28, 455.58 26.49 M289.09 221.14 C326.87 175.43, 363.31 132.48, 454.95 28.49 M291.76 228.12 C346.34 163.03, 403.67 99.97, 458.37 26.85 M289.40 223.36 C339.67 165.11, 394.73 102.18, 462.30 28.61 M292.03 229.79 C338.20 180.57, 376.72 134.45, 465.47 27.92 M293.04 229.68 C362.54 149.94, 428.94 69.02, 466.18 29.78 M296.48 235.25 C351.03 166.00, 405.10 105.33, 472.83 31.91 M293.30 232.58 C350.51 166.16, 412.25 94.24, 469.17 30.25 M295.18 237.15 C337.70 191.68, 375.17 149.92, 478.49 29.26 M296.80 236.36 C368.96 157.95, 435.24 79.01, 476.37 29.19 M297.81 242.89 C360.39 168.36, 424.73 93.07, 482.99 31.25 M299.56 240.33 C372.23 156.38, 442.55 71.97, 482.10 32.13 M298.08 242.57 C370.44 167.65, 439.30 86.20, 488.55 29.97 M300.72 245.18 C370.30 165.29, 441.92 81.74, 486.61 31.01 M299.98 248.64 C353.08 189.29, 411.60 126.90, 487.99 33.49 M302.22 247.72 C375.83 163.52, 450.35 78.01, 490.78 32.94 M301.65 255.13 C376.21 170.82, 454.03 80.18, 497.71 34.65 M304.28 252.60 C342.73 209.69, 381.87 163.83, 495.52 32.19 M302.71 256.61 C361.40 190.61, 414.86 126.35, 496.81 36.70 M303.68 255.81 C385.70 168.62, 461.64 80.76, 499.13 34.45 M308.21 262.32 C355.03 203.17, 406.47 145.82, 504.79 37.76 M307.28 259.10 C361.44 194.67, 415.73 133.13, 502.74 36.17 M312.86 261.56 C383.60 178.29, 456.56 93.98, 508.83 38.86 M312.50 262.28 C383.95 182.66, 453.92 101.31, 507.08 36.13 M310.86 266.31 C363.47 213.46, 409.94 162.15, 509.77 36.57 M313.69 266.90 C362.56 211.26, 406.38 157.97, 511.88 39.05 M318.04 267.14 C376.99 195.10, 440.79 123.27, 512.41 37.38 M316.58 269.08 C371.66 213.53, 420.07 152.45, 514.78 40.23 M321.24 272.14 C395.12 189.89, 470.70 101.32, 517.01 42.69 M319.87 271.42 C379.88 206.49, 438.08 137.30, 519.88 40.54 M320.19 275.66 C400.77 184.13, 481.74 90.77, 525.77 41.33 M321.69 273.70 C385.86 206.36, 448.98 134.36, 525.31 42.75 M324.05 277.55 C367.60 230.28, 411.37 181.24, 524.76 43.60 M324.47 275.80 C384.08 212.99, 443.87 146.45, 528.29 43.81 M330.20 279.48 C407.34 181.83, 489.42 92.42, 533.94 44.33 M326.52 280.82 C381.78 221.06, 435.04 160.34, 530.82 45.89 M333.75 280.98 C382.20 231.72, 426.86 175.93, 537.00 45.02 M330.76 281.52 C374.52 231.13, 419.06 181.67, 535.67 47.19 M331.36 285.55 C392.85 215.77, 457.26 144.90, 539.64 46.57 M333.81 285.68 C408.35 199.59, 481.63 117.03, 540.32 48.69 M334.21 287.65 C409.95 195.69, 487.80 106.35, 545.30 51.69 M334.92 287.54 C404.73 205.92, 474.27 125.20, 544.13 48.49 M341.75 288.17 C394.92 228.65, 445.54 164.11, 549.45 52.23 M339.25 289.97 C381.45 240.60, 422.84 193.77, 545.45 52.06 M344.84 292.78 C424.82 197.04, 506.78 101.55, 547.32 57.50 M341.16 292.57 C397.32 232.31, 454.21 167.69, 550.10 56.06 M348.51 295.19 C422.51 204.30, 500.27 119.94, 553.02 59.10 M346.31 295.22 C420.52 204.41, 499.50 115.37, 554.04 57.79 M347.82 294.86 C419.20 215.77, 494.24 132.37, 553.65 60.41 M349.50 296.42 C398.13 242.03, 444.68 188.77, 555.09 61.34 M355.00 300.57 C403.44 243.52, 447.89 189.55, 558.03 59.88 M354.43 297.74 C415.10 228.88, 478.66 156.92, 558.32 62.14 M358.73 302.91 C427.95 218.30, 494.97 140.82, 560.32 64.51 M356.98 299.58 C419.36 228.76, 482.63 155.11, 563.03 63.97 M361.13 300.49 C404.13 254.88, 447.92 206.47, 563.36 67.38 M361.83 301.72 C413.97 246.25, 467.41 187.02, 564.19 68.35 M363.61 302.70 C437.95 219.93, 512.16 133.13, 568.64 71.57 M365.69 304.11 C417.53 239.16, 472.44 178.36, 567.33 70.09 M367.87 306.03 C413.13 252.19, 454.55 202.13, 573.05 72.03 M367.75 305.75 C433.33 226.00, 500.69 149.24, 573.23 72.95 M372.33 306.66 C443.43 230.25, 509.57 151.81, 575.61 76.32 M373.14 306.64 C422.08 251.66, 475.01 194.02, 574.84 75.19 M374.87 307.33 C416.57 260.87, 459.14 212.16, 576.19 80.04 M376.78 309.35 C448.44 231.78, 520.51 148.46, 577.62 76.71 M377.45 312.69 C420.77 261.08, 467.21 214.43, 577.77 83.33 M380.22 310.73 C446.71 229.75, 515.75 149.47, 579.41 81.93 M380.74 312.95 C451.67 236.53, 514.70 156.42, 584.27 81.46 M384.47 312.44 C430.67 261.38, 475.56 210.97, 581.43 83.75 M388.02 316.64 C426.66 268.36, 471.02 222.51, 584.01 87.25 M387.44 314.18 C442.55 250.87, 500.34 183.15, 585.85 88.59 M391.25 315.32 C436.78 258.34, 485.78 203.32, 588.16 91.15 M392.49 317.07 C432.70 272.26, 471.11 226.90, 588.74 90.92 M395.91 315.52 C459.41 241.26, 524.02 169.60, 589.98 95.06 M396.81 317.97 C474.62 226.33, 550.55 138.54, 590.60 94.03 M401.44 317.00 C454.64 260.51, 501.19 204.71, 590.31 100.66 M399.78 317.29 C448.29 263.02, 497.66 207.94, 591.74 98.03 M407.72 318.37 C446.25 271.63, 493.34 219.04, 593.20 103.24 M405.84 320.12 C453.40 258.07, 504.77 201.73, 594.34 101.80 M409.87 322.31 C467.77 252.95, 530.99 186.69, 596.04 107.48 M410.56 320.77 C456.29 265.36, 507.65 208.27, 596.26 103.87 M416.16 321.09 C482.16 236.74, 555.65 154.74, 600.43 105.96 M413.50 319.72 C458.96 264.80, 506.62 212.89, 599.51 109.62 M418.83 323.88 C466.91 260.65, 513.60 207.95, 603.68 111.39 M417.81 323.65 C466.60 267.56, 515.04 210.61, 600.63 111.79 M421.57 325.35 C461.70 275.71, 504.10 232.78, 606.06 116.19 M421.02 322.22 C473.17 263.65, 526.94 201.68, 602.41 114.59 M426.65 321.61 C489.25 254.79, 549.32 184.56, 603.86 120.32 M427.20 324.10 C474.81 267.92, 522.64 211.91, 606.18 118.83 M431.99 327.85 C474.59 274.12, 518.49 227.62, 607.43 124.75 M432.31 324.22 C482.79 267.56, 534.28 209.51, 606.12 123.84 M439.34 324.37 C493.91 253.64, 555.66 185.63, 606.38 129.77 M435.39 326.72 C472.90 278.94, 512.34 238.07, 608.47 125.80 M442.84 327.70 C503.55 258.42, 564.10 185.49, 611.38 133.84 M441.93 324.75 C481.47 279.32, 525.40 231.88, 611.92 131.68 M448.82 321.54 C501.04 263.11, 551.11 204.92, 610.15 133.42 M447.67 323.70 C501.31 266.57, 551.35 205.67, 611.05 135.52 M455.23 325.20 C510.53 253.66, 568.60 188.68, 613.15 137.18 M452.04 323.69 C508.18 263.47, 561.39 201.57, 613.82 140.66 M461.30 324.55 C495.22 287.13, 526.37 245.16, 615.90 141.47 M458.50 323.55 C519.50 252.52, 584.01 177.97, 615.62 144.88 M467.13 325.77 C508.72 270.04, 555.79 217.18, 620.10 150.00 M464.24 324.07 C517.19 261.24, 572.24 197.48, 616.24 146.06 M471.19 321.42 C527.78 258.42, 587.36 193.11, 621.75 150.97 M469.52 323.66 C504.74 289.75, 532.34 254.45, 619.63 152.59 M478.05 324.23 C514.37 279.50, 555.13 235.23, 624.55 154.32 M475.42 321.16 C531.40 254.78, 588.60 189.64, 619.95 154.50 M483.92 322.17 C531.43 268.91, 580.96 210.07, 618.53 164.66 M482.36 320.83 C527.07 268.25, 572.22 217.09, 620.51 162.07 M489.99 321.99 C515.57 288.03, 539.52 262.74, 616.65 169.22 M487.39 320.14 C532.31 269.02, 578.73 220.16, 620.07 169.54 M496.66 318.34 C536.45 272.87, 570.51 228.01, 617.87 178.07 M495.61 317.66 C525.96 276.61, 562.17 237.50, 618.56 176.88 M500.02 312.71 C531.02 286.73, 561.07 255.03, 616.53 180.65 M501.73 314.74 C543.45 268.40, 582.65 223.96, 620.33 181.12 M510.11 315.55 C537.96 285.53, 563.99 255.25, 615.26 191.10 M509.02 315.00 C536.11 281.58, 564.42 252.74, 617.48 190.40 M514.85 307.33 C542.23 279.53, 564.39 255.12, 618.51 199.57 M517.07 312.61 C542.20 283.27, 569.31 253.81, 616.76 198.92 M522.76 310.47 C545.49 287.23, 559.96 269.08, 617.22 203.51 M524.11 310.35 C550.38 279.90, 574.05 248.49, 617.10 204.33 M532.78 307.99 C562.14 272.06, 590.99 237.66, 611.92 217.25 M533.19 305.02 C562.05 273.95, 592.83 238.01, 614.87 215.13 M541.50 302.32 C564.05 279.61, 578.78 262.67, 607.19 224.45 M544.41 301.17 C566.82 274.90, 586.49 252.53, 608.64 222.10 M556.11 295.99 C569.16 274.45, 585.81 260.26, 606.71 234.48 M556.94 293.03 C569.83 277.41, 583.74 258.55, 608.43 233.87 M566.72 285.66 C576.26 274.61, 585.37 261.99, 603.49 240.86 M565.31 286.07 C579.85 271.05, 592.09 260.14, 604.50 241.67" fill="#faf7ef" stroke="none"/><path d="M491.21 31.64 C507.19 32.55, 525.43 39.97, 539.76 47.43 C554.09 54.89, 566.44 65.00, 577.19 76.42 C587.94 87.85, 596.97 102.61, 604.28 115.99 C611.59 129.38, 619.08 142.15, 621.07 156.74 C623.06 171.34, 619.12 189.11, 616.21 203.57 C613.30 218.02, 610.76 230.52, 603.58 243.47 C596.41 256.41, 585.05 270.82, 573.16 281.22 C561.26 291.62, 547.26 299.09, 532.19 305.88 C517.11 312.68, 499.34 318.77, 482.71 321.98 C466.09 325.18, 448.58 326.45, 432.42 325.11 C416.27 323.76, 401.31 319.53, 385.76 313.91 C370.21 308.30, 352.55 300.92, 339.13 291.41 C325.70 281.91, 314.10 269.66, 305.20 256.88 C296.30 244.09, 290.08 228.94, 285.72 214.72 C281.36 200.50, 278.36 185.63, 279.05 171.56 C279.75 157.49, 284.28 143.93, 289.89 130.32 C295.51 116.71, 303.46 101.87, 312.75 89.89 C322.03 77.90, 332.79 67.15, 345.63 58.40 C358.47 49.66, 374.10 42.75, 389.79 37.43 C405.47 32.12, 412.25 22.99, 439.73 26.51 C467.22 30.04, 528.47 45.74, 554.69 58.58 C580.91 71.43, 598.88 101.95, 597.06 103.61 M331.25 71.86 C340.83 59.70, 359.14 47.83, 373.84 40.46 C388.53 33.10, 402.73 29.94, 419.42 27.65 C436.12 25.37, 457.50 24.29, 474.03 26.77 C490.56 29.25, 503.49 36.33, 518.61 42.54 C533.74 48.75, 551.68 54.38, 564.80 64.03 C577.92 73.68, 589.15 87.96, 597.33 100.43 C605.51 112.90, 609.81 124.94, 613.88 138.86 C617.95 152.78, 621.98 169.16, 621.73 183.93 C621.48 198.70, 618.74 214.08, 612.40 227.47 C606.05 240.86, 593.82 252.87, 583.68 264.26 C573.53 275.65, 564.47 287.08, 551.54 295.80 C538.60 304.53, 522.14 311.89, 506.07 316.61 C490.00 321.32, 472.67 323.16, 455.12 324.10 C437.57 325.04, 417.53 325.67, 400.75 322.25 C383.98 318.83, 368.17 311.88, 354.48 303.57 C340.78 295.26, 328.62 283.91, 318.58 272.40 C308.54 260.90, 300.93 247.96, 294.24 234.55 C287.54 221.13, 280.76 206.63, 278.40 191.89 C276.03 177.15, 276.12 160.55, 280.06 146.10 C283.99 131.64, 293.45 117.55, 302.01 105.13 C310.56 92.72, 326.14 77.34, 331.38 71.62 C336.63 65.91, 331.39 69.43, 333.49 70.85" fill="none" stroke="#202020" stroke-width="2" stroke-linecap="round" stroke-linejoin="round"/><path d="M270.69 16.68 C270.69 16.68, 270.69 16.68, 270.69 16.68 M270.69 16.68 C270.69 16.68, 270.69 16.68, 270.69 16.68 M253.01 49.12 C258.38 36.82, 263.22 28.94, 290.59 0.06 M249.67 47.67 C255.86 37.54, 263.09 26.84, 289.28 2.24 M237.92 65.09 C252.91 50.87, 268.95 33.19, 307.15 -11.55 M236.01 70.61 C259.80 44.12, 282.10 14.65, 306.24 -11.53 M232.82 78.14 C257.87 47.11, 282.22 16.85, 316.32 -22.64 M230.34 79.68 C264.49 42.67, 296.26 8.54, 319.30 -18.62 M223.41 88.21 C251.05 67.90, 270.71 41.15, 328.63 -28.59 M228.59 89.88 C256.72 52.65, 291.40 16.56, 329.91 -23.68 M225.40 102.99 C272.21 51.98, 311.42 -3.18, 339.62 -30.99 M222.00 103.73 C253.19 65.63, 285.99 26.47, 338.10 -30.04 M214.39 117.51 C265.52 59.11, 308.87 10.07, 346.02 -34.90 M215.35 113.44 C250.19 78.21, 282.73 38.85, 347.89 -36.32 M217.67 122.64 C258.08 71.44, 296.39 27.76, 356.73 -37.07 M214.61 121.20 C267.17 67.76, 314.87 15.20, 355.65 -39.18 M217.85 127.67 C263.03 67.82, 312.03 15.88, 365.42 -47.71 M216.35 129.03 C248.79 89.17, 282.05 49.92, 367.72 -44.72 M214.42 134.63 C270.83 74.79, 331.14 11.32, 373.26 -45.36 M214.31 135.21 C262.05 81.51, 312.17 26.39, 371.47 -44.72 M214.41 145.22 C274.23 79.76, 330.76 12.14, 375.21 -45.22 M214.12 143.47 C253.45 101.27, 291.10 56.58, 377.22 -46.32 M214.70 152.65 C277.71 80.18, 342.41 1.99, 381.69 -45.39 M212.93 149.68 C261.09 98.23, 305.44 45.60, 386.09 -47.96 M211.21 153.20 C273.13 88.11, 328.85 22.61, 393.70 -47.33 M212.41 155.85 C285.49 73.69, 356.71 -7.00, 390.46 -48.22 M210.58 164.26 C250.67 120.31, 288.99 74.21, 397.62 -49.36 M212.64 162.66 C276.73 89.64, 340.22 15.42, 396.78 -50.44 M209.76 168.93 C253.74 116.94, 293.95 69.48, 404.45 -50.32 M212.85 168.85 C258.89 114.71, 303.10 65.26, 403.48 -51.71 M206.78 177.34 C273.72 104.75, 333.58 31.22, 409.97 -54.22 M209.05 180.21 C281.38 93.90, 357.09 8.01, 409.96 -52.47 M212.04 184.23 C264.68 116.50, 324.08 50.67, 416.76 -52.92 M210.48 185.23 C271.71 110.63, 334.67 37.63, 415.75 -51.32 M211.94 192.63 C290.65 98.88, 366.61 9.33, 422.20 -52.03 M209.51 190.03 C268.85 121.35, 325.45 54.41, 422.81 -54.37 M209.99 196.56 C285.03 110.38, 357.94 27.80, 431.10 -58.93 M210.66 194.41 C266.36 129.18, 323.54 65.33, 429.77 -58.88 M210.90 202.21 C257.28 145.09, 307.58 91.91, 436.45 -60.12 M210.17 200.82 C291.22 105.33, 371.20 15.18, 435.70 -57.21 M214.83 206.37 C258.67 146.84, 312.03 87.65, 438.84 -55.51 M211.75 205.96 C289.65 122.60, 363.79 35.91, 440.36 -57.70 M214.48 210.17 C306.20 108.44, 394.58 6.30, 446.23 -57.38 M213.14 211.85 C276.56 136.30, 339.17 64.12, 446.05 -57.24 M211.35 218.75 C266.37 152.94, 319.98 90.79, 450.06 -59.40 M214.30 216.89 C285.45 138.29, 354.34 57.77, 451.94 -58.11 M214.16 220.14 C299.70 123.03, 379.76 27.17, 457.88 -55.93 M215.63 221.80 C296.77 128.77, 378.70 35.21, 456.50 -58.20 M215.33 227.02 C269.63 169.76, 318.97 113.64, 463.14 -59.07 M214.44 227.53 C287.74 144.80, 361.57 58.46, 461.94 -57.39 M218.15 233.96 C297.44 135.83, 380.23 37.17, 469.56 -58.09 M215.09 232.35 C285.71 150.16, 358.30 66.53, 468.56 -57.11 M218.18 238.44 C279.76 159.43, 341.50 86.15, 470.32 -58.03 M216.30 236.67 C279.25 162.49, 342.94 89.68, 471.49 -57.02 M219.05 243.09 C291.10 162.19, 360.16 76.52, 478.27 -58.38 M219.47 242.19 C309.62 136.32, 403.63 26.71, 478.64 -57.39 M219.78 244.38 C277.12 183.90, 337.38 114.12, 484.01 -55.19 M220.34 245.96 C282.79 174.10, 340.51 106.18, 483.11 -56.14 M220.56 248.25 C319.69 134.99, 418.70 22.57, 486.64 -56.91 M221.27 249.58 C303.40 156.99, 381.40 67.86, 487.88 -56.09 M223.01 253.48 C325.09 141.57, 423.81 25.96, 493.06 -54.24 M222.80 252.88 C322.32 143.93, 416.41 36.53, 493.29 -55.99 M226.87 256.64 C308.04 160.20, 394.65 57.96, 498.89 -56.42 M225.63 258.84 C291.32 181.30, 358.12 104.75, 497.74 -55.21 M227.37 264.14 C285.32 192.21, 343.33 124.80, 500.70 -51.65 M226.72 261.25 C318.33 158.77, 409.14 53.74, 501.63 -53.36 M226.86 267.40 C323.39 155.34, 420.67 42.53, 507.22 -50.30 M227.86 265.77 C332.44 143.48, 440.77 18.84, 504.42 -53.20 M230.65 271.64 C344.03 144.91, 455.43 20.59, 508.54 -51.72 M230.85 270.58 C341.79 143.94, 450.74 17.24, 509.51 -51.76 M231.68 276.35 C307.76 188.19, 382.39 102.10, 512.69 -51.43 M232.02 275.50 C319.51 177.42, 404.26 80.65, 513.21 -49.79 M231.69 277.69 C318.93 178.89, 404.38 81.24, 520.12 -47.42 M232.76 278.52 C332.00 168.23, 426.10 60.11, 519.36 -49.74 M236.78 281.10 C320.61 178.80, 407.53 78.45, 523.11 -49.04 M235.10 281.96 C341.13 160.99, 446.02 40.56, 521.81 -48.63 M237.30 285.66 C345.82 166.46, 451.56 43.93, 526.32 -43.92 M236.91 286.24 C327.18 188.64, 414.56 89.70, 525.54 -46.36 M237.14 293.01 C338.10 174.94, 439.14 55.69, 529.13 -43.52 M238.39 291.47 C305.44 215.55, 367.78 141.52, 530.48 -44.20 M242.45 295.73 C341.53 180.72, 438.86 64.40, 535.22 -43.01 M240.68 294.65 C304.45 222.97, 369.50 148.19, 535.20 -43.04 M241.24 299.00 C326.86 200.31, 411.78 97.84, 538.96 -40.85 M242.90 298.83 C349.28 174.90, 459.79 49.20, 538.76 -42.93 M246.09 302.75 C327.93 208.89, 410.56 112.38, 544.09 -39.75 M246.85 301.63 C354.24 172.17, 464.36 46.65, 543.57 -42.35 M249.57 304.90 C342.93 194.25, 439.50 84.19, 549.90 -39.93 M248.05 304.08 C327.52 211.28, 408.08 118.12, 548.00 -40.65 M249.07 307.70 C329.06 214.51, 413.08 116.99, 550.20 -37.98 M249.73 307.66 C345.65 202.92, 436.26 97.93, 552.20 -38.62 M254.18 310.27 C358.25 191.55, 464.00 69.85, 555.70 -37.89 M253.08 311.09 C363.28 183.73, 474.55 54.10, 554.59 -37.02 M257.77 312.87 C354.38 204.85, 451.11 90.97, 559.40 -33.40 M255.47 314.79 C320.35 236.02, 387.54 157.56, 558.24 -35.04 M257.14 318.13 C378.51 181.28, 497.78 47.75, 560.59 -31.67 M258.67 318.06 C381.86 179.59, 503.34 40.47, 562.93 -31.57 M260.03 320.65 C374.67 192.14, 485.00 63.10, 566.87 -30.98 M260.20 320.95 C347.18 219.26, 436.04 115.15, 565.26 -30.69 M264.93 325.14 C371.07 205.34, 475.23 82.23, 568.05 -26.99 M262.37 324.57 C342.90 230.31, 423.40 137.10, 569.10 -29.03 M265.08 328.03 C381.04 198.58, 494.04 66.27, 571.43 -28.24 M266.39 326.76 C346.08 232.29, 426.39 139.25, 572.76 -26.76 M267.20 331.57 C388.99 197.03, 503.30 61.70, 575.93 -23.47 M268.72 330.11 C335.54 247.07, 405.21 167.99, 577.05 -24.17 M270.50 334.31 C365.86 225.50, 464.18 115.83, 580.44 -21.96 M270.19 334.24 C389.10 193.06, 511.26 52.23, 580.58 -21.42 M272.64 336.27 C352.11 242.71, 431.27 149.21, 583.01 -21.06 M272.92 337.60 C349.78 244.99, 429.05 153.04, 583.93 -19.28 M276.92 339.86 C344.60 268.19, 407.04 193.21, 586.56 -16.66 M276.06 341.08 C336.41 270.02, 399.38 196.90, 586.57 -18.96 M278.56 341.84 C347.26 268.71, 413.46 193.96, 589.98 -17.95 M278.41 343.50 C371.42 237.75, 463.69 132.10, 591.08 -16.80 M281.20 344.99 C346.11 272.00, 410.68 194.36, 594.99 -16.09 M282.35 344.79 C351.06 266.15, 418.55 188.06, 594.17 -13.96 M283.59 346.83 C391.37 228.54, 499.64 104.76, 597.43 -12.13 M285.45 348.07 C398.20 219.93, 508.76 92.61, 598.98 -12.13 M288.40 350.75 C401.91 224.18, 513.81 92.92, 603.47 -11.00 M288.08 349.43 C385.14 237.34, 483.88 123.69, 602.18 -10.78 M293.03 350.94 C355.29 279.54, 419.42 207.68, 603.02 -8.02 M291.54 352.15 C356.01 274.17, 425.16 194.67, 604.00 -7.35 M294.99 353.91 C383.16 249.16, 473.67 146.93, 607.70 -3.27 M294.67 354.59 C368.03 267.36, 441.92 183.78, 607.80 -4.17 M298.57 356.30 C391.36 253.33, 482.10 146.95, 610.73 -2.99 M298.05 358.20 C377.48 268.26, 456.49 176.08, 610.30 -2.23 M301.25 360.52 C414.58 223.58, 532.68 90.09, 611.79 1.16 M301.24 359.82 C394.98 249.51, 490.88 140.32, 613.07 1.60 M304.83 363.16 C426.97 224.31, 545.50 87.16, 617.17 4.77 M304.48 363.18 C369.43 287.83, 436.00 211.48, 614.96 3.79 M305.88 364.06 C394.71 266.00, 483.82 165.32, 618.78 6.99 M306.75 365.69 C393.86 264.70, 479.54 165.00, 618.82 6.27 M312.08 366.82 C376.97 289.82, 442.86 214.08, 620.96 8.46 M310.30 366.69 C377.13 289.82, 445.05 212.51, 622.37 9.58 M313.80 368.48 C410.97 256.99, 511.48 143.24, 625.65 12.22 M313.47 369.08 C410.73 263.79, 506.34 155.04, 623.30 12.70 M315.54 370.68 C436.40 231.58, 558.53 93.35, 627.94 14.59 M317.64 373.00 C406.03 269.74, 493.73 169.38, 627.80 15.56 M322.03 372.23 C388.32 300.86, 456.42 224.06, 629.66 16.85 M321.05 374.23 C387.45 295.24, 454.49 217.27, 630.98 17.54 M323.30 377.46 C444.40 234.77, 570.94 93.48, 633.91 20.96 M324.35 376.81 C387.45 304.82, 451.78 231.26, 633.94 19.81 M326.19 379.74 C412.75 281.61, 497.93 183.78, 634.06 24.06 M326.41 379.49 C435.87 251.72, 547.31 122.71, 635.11 24.45 M329.80 379.98 C417.97 286.61, 504.93 184.69, 637.56 27.63 M330.21 381.46 C429.41 265.49, 532.77 148.40, 638.61 27.06 M336.04 381.63 C420.72 280.05, 508.06 182.36, 640.70 27.64 M334.16 383.04 C407.53 300.94, 480.00 218.14, 642.44 29.40 M337.26 383.45 C447.44 255.87, 554.27 132.15, 645.79 30.72 M338.41 383.83 C439.31 268.58, 542.20 150.23, 644.74 31.90 M341.09 386.78 C417.47 296.27, 496.59 204.65, 646.04 36.86 M342.70 385.16 C434.57 283.27, 524.44 180.05, 646.70 35.46 M344.91 385.33 C409.91 309.27, 477.10 234.25, 646.42 38.24 M346.41 386.95 C451.13 266.67, 553.58 147.29, 647.70 39.59 M350.27 387.88 C446.08 272.04, 546.41 160.33, 651.69 44.35 M349.24 388.07 C449.22 271.55, 548.66 156.52, 649.54 43.43 M351.73 390.77 C430.98 299.76, 508.30 210.47, 652.81 46.93 M354.05 391.01 C435.94 298.67, 517.13 206.52, 651.43 46.56 M356.65 393.60 C448.74 289.78, 538.31 182.38, 655.49 52.54 M357.51 393.38 C462.03 273.94, 564.59 154.61, 654.17 51.57 M362.32 394.90 C470.13 268.51, 579.29 145.31, 655.56 53.44 M360.92 394.04 C420.09 321.45, 482.71 249.40, 656.28 55.71 M365.19 394.36 C429.91 320.22, 493.36 247.14, 658.35 57.44 M365.94 395.17 C473.43 270.85, 582.62 145.83, 657.65 58.10 M370.88 398.49 C433.14 321.19, 495.24 249.83, 661.44 61.51 M369.56 398.22 C463.59 286.82, 558.55 177.29, 659.75 62.32 M373.73 400.97 C479.67 279.28, 580.17 160.56, 661.17 68.37 M372.44 399.36 C452.34 305.60, 535.62 209.38, 661.57 66.05 M377.80 400.21 C481.27 275.78, 588.70 149.79, 663.26 70.18 M377.90 400.34 C439.32 330.54, 499.50 260.98, 664.16 70.61 M382.03 401.13 C471.73 295.04, 566.44 190.98, 666.18 74.26 M381.30 402.54 C459.39 309.22, 543.42 214.24, 665.36 74.00 M386.97 402.94 C481.87 288.05, 582.46 176.72, 668.19 75.65 M384.44 404.41 C493.10 278.98, 602.41 153.22, 668.95 77.51 M390.30 405.24 C449.64 337.29, 506.12 263.66, 669.51 83.08 M389.08 403.00 C478.55 304.41, 568.07 201.64, 670.41 81.08 M394.86 404.14 C460.64 322.26, 530.19 241.37, 671.33 86.06 M393.99 405.03 C505.73 275.92, 616.82 148.38, 672.27 85.12 M399.49 404.18 C454.42 335.77, 517.00 264.81, 673.25 90.33 M398.80 406.16 C494.81 295.56, 589.93 188.00, 672.51 90.51 M402.31 405.12 C500.76 290.76, 599.14 175.68, 675.29 93.93 M404.26 406.46 C461.38 345.72, 516.07 282.07, 674.37 93.92 M407.50 408.58 C506.61 294.13, 609.86 177.43, 676.03 99.49 M407.55 408.26 C491.67 307.90, 577.81 212.37, 675.53 98.24 M412.03 409.57 C502.02 299.75, 596.38 195.78, 679.16 103.38 M413.36 407.56 C486.72 321.55, 559.53 236.56, 677.90 103.62 M416.70 407.56 C498.50 315.95, 573.04 228.67, 678.44 107.88 M418.03 408.27 C470.63 345.38, 525.52 282.63, 677.91 108.32 M424.40 409.79 C489.50 327.18, 557.16 249.75, 680.59 113.37 M422.55 409.08 C482.54 338.51, 547.25 264.83, 680.90 112.58 M428.08 408.50 C512.89 312.85, 599.81 209.69, 684.63 117.12 M426.97 410.00 C509.98 316.93, 591.09 224.29, 681.65 116.18 M433.81 412.58 C504.27 330.27, 577.28 247.62, 684.12 123.30 M431.76 410.00 C498.68 336.63, 564.54 259.12, 682.70 122.22 M436.85 412.33 C512.73 324.68, 589.74 234.86, 686.50 126.93 M435.56 412.50 C502.89 333.73, 569.02 257.85, 685.05 126.11 M441.53 410.01 C501.93 338.62, 564.63 269.51, 687.54 129.90 M440.33 413.20 C503.98 341.89, 565.65 268.05, 687.10 129.55 M448.74 410.61 C500.04 349.62, 557.50 281.54, 689.78 133.77 M446.13 410.85 C529.83 315.34, 617.92 213.61, 688.15 133.90 M450.20 412.37 C545.66 303.05, 636.98 193.31, 686.52 138.06 M453.28 410.42 C506.22 348.63, 561.50 288.46, 690.11 137.95 M457.38 412.18 C545.09 309.70, 631.11 212.46, 690.73 143.01 M457.30 410.38 C520.30 339.93, 582.01 267.30, 692.52 142.64 M463.98 409.64 C523.40 341.61, 581.35 271.79, 690.37 148.73 M464.94 410.32 C536.59 329.57, 609.63 247.35, 691.27 148.40 M467.67 411.82 C532.68 339.43, 593.46 272.39, 690.54 156.15 M470.13 410.54 C538.31 334.63, 607.84 257.71, 691.67 154.72 M474.99 410.44 C547.73 323.65, 617.01 238.20, 691.52 162.12 M475.80 408.60 C560.02 312.63, 643.63 217.98, 690.57 160.00 M482.91 410.08 C534.09 347.05, 590.59 279.57, 692.17 168.64 M482.46 406.98 C533.72 353.04, 583.18 294.53, 692.76 166.25 M484.74 407.12 C534.20 354.14, 583.90 300.99, 689.60 172.54 M486.59 409.10 C534.07 356.72, 582.31 301.04, 691.64 171.65 M495.75 406.29 C555.53 336.00, 614.10 270.66, 689.12 179.06 M491.94 407.51 C537.47 355.19, 581.87 302.27, 691.56 177.32 M497.16 408.57 C553.16 340.76, 606.70 279.33, 692.97 187.31 M498.51 406.06 C552.76 346.14, 607.52 280.67, 691.56 184.33 M504.52 402.92 C574.44 332.64, 636.14 254.51, 693.40 189.90 M507.28 403.17 C564.80 338.68, 620.37 273.73, 691.02 190.76 M515.96 403.50 C563.59 341.37, 611.17 285.19, 692.35 198.53 M513.63 400.61 C564.87 342.85, 616.36 280.41, 689.18 198.67 M522.93 397.34 C562.92 346.50, 604.41 303.35, 688.81 206.65 M520.59 398.43 C572.58 339.79, 623.15 280.24, 686.07 207.56 M531.69 399.55 C585.80 327.09, 647.04 258.24, 684.28 214.77 M529.44 395.82 C573.42 346.27, 614.98 300.07, 686.83 217.75 M534.89 393.03 C587.11 337.85, 639.91 275.56, 682.45 227.31 M536.07 395.98 C572.25 352.54, 608.27 309.34, 683.65 225.86 M539.65 393.41 C580.32 345.91, 625.57 294.85, 678.90 233.12 M541.39 391.39 C595.78 336.34, 644.52 279.27, 680.24 233.89 M553.03 390.70 C590.47 351.09, 617.68 315.33, 680.68 243.57 M551.92 389.72 C598.02 334.21, 645.33 281.46, 678.86 243.35 M554.98 388.46 C591.23 349.49, 620.21 311.33, 676.85 252.59 M560.26 384.59 C585.13 355.31, 615.91 321.74, 678.39 248.46 M569.97 382.34 C612.88 331.34, 649.46 291.43, 675.74 262.59 M568.48 377.59 C602.30 348.78, 628.42 318.53, 675.53 258.84 M581.75 372.86 C607.78 344.92, 628.52 316.41, 670.85 277.75 M583.97 369.94 C605.05 342.15, 629.14 317.56, 666.22 275.13 M591.73 365.28 C618.85 335.99, 643.80 310.45, 659.77 285.06 M592.35 365.76 C606.65 349.66, 620.37 332.30, 659.75 288.97 M605.24 357.17 C619.51 344.68, 625.37 337.23, 653.21 307.25 M605.32 356.46 C616.61 344.60, 625.89 331.04, 653.83 303.21" fill="#faf7ef" stroke="none"/><path d="M491.32 -56.76 C510.36 -57.45, 528.84 -49.00, 547.18 -41.31 C565.52 -33.62, 585.28 -22.74, 601.37 -10.60 C617.46 1.53, 632.09 15.65, 643.74 31.49 C655.39 47.33, 663.71 66.31, 671.26 84.44 C678.82 102.56, 686.09 121.11, 689.06 140.24 C692.03 159.37, 691.47 179.41, 689.09 199.21 C686.71 219.00, 681.61 240.34, 674.78 259.02 C667.94 277.69, 659.17 295.34, 648.09 311.25 C637.01 327.17, 623.28 341.97, 608.29 354.50 C593.31 367.03, 576.50 377.88, 558.16 386.42 C539.82 394.97, 517.98 401.54, 498.26 405.77 C478.54 410.00, 459.69 412.53, 439.85 411.79 C420.01 411.05, 398.28 406.97, 379.20 401.33 C360.13 395.70, 342.38 387.82, 325.40 377.97 C308.41 368.11, 291.62 356.19, 277.29 342.20 C262.96 328.22, 249.38 310.98, 239.41 294.06 C229.43 277.14, 222.64 259.75, 217.41 240.67 C212.19 221.60, 208.70 199.71, 208.05 179.61 C207.39 159.51, 208.94 138.77, 213.48 120.07 C218.03 101.38, 225.79 84.66, 235.31 67.45 C244.82 50.25, 256.94 31.47, 270.56 16.82 C284.18 2.18, 300.55 -9.65, 317.01 -20.40 C333.48 -31.15, 350.42 -41.42, 369.37 -47.69 C388.31 -53.96, 398.14 -60.95, 430.69 -58.02 C463.24 -55.10, 531.91 -42.95, 564.67 -30.16 C597.43 -17.37, 628.78 15.32, 627.24 18.71 M287.12 1.72 C298.65 -13.42, 316.06 -18.89, 332.74 -28.25 C349.43 -37.61, 367.75 -49.32, 387.23 -54.43 C406.71 -59.55, 428.82 -59.15, 449.62 -58.92 C470.43 -58.69, 493.09 -57.47, 512.06 -53.06 C531.02 -48.66, 546.61 -41.54, 563.44 -32.51 C580.26 -23.48, 597.68 -12.31, 613.00 1.11 C628.33 14.53, 644.66 30.74, 655.38 48.00 C666.10 65.25, 671.12 85.56, 677.34 104.66 C683.56 123.75, 690.94 143.08, 692.71 162.56 C694.49 182.05, 692.11 203.01, 688.01 221.57 C683.91 240.14, 677.14 256.67, 668.12 273.96 C659.10 291.25, 646.33 310.00, 633.90 325.32 C621.46 340.64, 609.47 354.20, 593.52 365.90 C577.57 377.59, 557.13 388.36, 538.22 395.51 C519.30 402.66, 499.52 406.50, 480.03 408.79 C460.54 411.07, 441.13 411.38, 421.27 409.23 C401.41 407.08, 379.70 402.84, 360.85 395.89 C342.01 388.95, 324.64 379.42, 308.21 367.56 C291.78 355.71, 275.37 340.27, 262.27 324.74 C249.16 309.22, 237.81 291.24, 229.61 274.40 C221.40 257.56, 216.46 242.80, 213.04 223.69 C209.62 204.58, 208.09 179.71, 209.10 159.74 C210.12 139.78, 213.43 122.58, 219.12 103.92 C224.80 85.25, 232.26 64.39, 243.24 47.74 C254.22 31.08, 277.81 11.01, 285.00 3.98 C292.20 -3.05, 283.43 2.94, 286.41 5.56" fill="none" stroke="#202020" stroke-width="2" stroke-linecap="round" stroke-linejoin="round"/><path d="M421.81 73.65 C432.46 68.47, 449.16 67.53, 461.00 68.47 C472.85 69.42, 483.10 73.02, 492.89 79.32 C502.69 85.61, 511.99 96.34, 519.77 106.23 C527.55 116.13, 535.23 127.29, 539.57 138.67 C543.91 150.06, 545.43 161.95, 545.82 174.55 C546.20 187.15, 545.83 202.17, 541.87 214.28 C537.91 226.39, 530.16 237.42, 522.04 247.20 C513.92 256.97, 503.53 267.09, 493.15 272.95 C482.76 278.82, 471.22 281.57, 459.75 282.38 C448.28 283.20, 435.93 281.60, 424.30 277.84 C412.67 274.08, 399.62 267.79, 389.96 259.84 C380.29 251.89, 372.39 241.15, 366.33 230.11 C360.27 219.08, 355.18 205.76, 353.59 193.63 C351.99 181.50, 354.42 169.92, 356.76 157.35 C359.10 144.78, 362.09 129.60, 367.64 118.21 C373.19 106.83, 375.06 97.39, 390.06 89.03 C405.07 80.67, 441.59 69.50, 457.68 68.04 C473.77 66.59, 486.53 77.94, 486.58 80.28 M440.07 70.17 C451.52 67.87, 466.79 73.18, 477.89 76.30 C488.99 79.41, 497.28 81.79, 506.66 88.86 C516.05 95.92, 528.18 107.48, 534.21 118.67 C540.24 129.86, 540.88 142.96, 542.84 155.99 C544.79 169.03, 547.52 184.05, 545.92 196.86 C544.32 209.68, 539.97 222.33, 533.25 232.90 C526.53 243.47, 515.32 252.61, 505.59 260.28 C495.85 267.96, 486.00 274.84, 474.83 278.94 C463.66 283.05, 450.18 286.17, 438.56 284.92 C426.94 283.66, 415.03 278.00, 405.08 271.41 C395.13 264.82, 386.01 254.98, 378.86 245.38 C371.72 235.78, 366.61 225.94, 362.22 213.84 C357.82 201.73, 353.25 185.93, 352.50 172.76 C351.74 159.58, 353.16 146.35, 357.67 134.80 C362.18 123.24, 371.67 112.46, 379.55 103.44 C387.44 94.42, 394.50 86.08, 404.98 80.69 C415.45 75.31, 435.69 72.24, 442.39 71.16 C449.08 70.07, 445.34 72.13, 445.14 74.17" fill="#faf7ef" stroke="none"/><path d="M387.64 95.30 C395.16 85.65, 406.65 78.58, 417.40 74.53 C428.14 70.47, 440.19 70.32, 452.11 70.97 C464.02 71.63, 478.12 73.91, 488.90 78.47 C499.67 83.02, 508.53 89.81, 516.77 98.32 C525.01 106.82, 533.43 117.62, 538.32 129.51 C543.22 141.40, 545.16 156.66, 546.14 169.67 C547.11 182.67, 547.44 195.78, 544.18 207.57 C540.92 219.35, 534.17 230.05, 526.57 240.40 C518.97 250.74, 508.46 262.72, 498.58 269.61 C488.69 276.51, 478.45 279.78, 467.28 281.78 C456.10 283.77, 443.14 284.11, 431.52 281.59 C419.90 279.07, 407.84 273.71, 397.54 266.64 C387.24 259.58, 376.56 249.63, 369.73 239.22 C362.90 228.80, 359.45 217.09, 356.57 204.17 C353.69 191.24, 351.10 174.80, 352.45 161.68 C353.79 148.57, 357.78 137.20, 364.62 125.48 C371.46 113.76, 387.53 97.44, 393.48 91.38 C399.44 85.31, 399.63 87.62, 400.34 89.10 M501.39 86.88 C511.45 91.67, 520.12 100.78, 526.93 110.27 C533.74 119.76, 538.97 131.27, 542.24 143.83 C545.50 156.38, 547.70 171.93, 546.54 185.59 C545.37 199.26, 540.14 214.59, 535.25 225.81 C530.37 237.04, 525.44 244.66, 517.24 252.93 C509.04 261.19, 497.34 270.17, 486.04 275.43 C474.75 280.68, 460.91 284.81, 449.48 284.48 C438.06 284.15, 428.11 278.13, 417.50 273.45 C406.89 268.77, 394.58 264.27, 385.83 256.40 C377.09 248.54, 370.53 237.64, 365.04 226.28 C359.54 214.91, 354.61 201.68, 352.87 188.21 C351.13 174.74, 351.40 158.23, 354.60 145.45 C357.80 132.66, 364.72 121.17, 372.06 111.51 C379.39 101.85, 388.35 94.44, 398.60 87.50 C408.85 80.55, 422.43 72.31, 433.58 69.84 C444.72 67.37, 453.99 70.59, 465.49 72.70 C476.98 74.81, 497.13 80.10, 502.54 82.50 C507.96 84.89, 499.33 84.73, 497.95 87.08" fill="none" stroke="#202020" stroke-width="2" stroke-linecap="round" stroke-linejoin="round"/><path d="M659.47 -29.99 C679.68 -49.80, 694.03 -67.02, 739.04 -108.64 M657.70 -31.12 C677.13 -49.20, 699.42 -69.68, 734.83 -109.95" fill="none" stroke="#202020" stroke-width="2" stroke-linecap="round" stroke-linejoin="round"/><path d="M654.46 382.49 C676.56 405.03, 698.49 427.77, 737.47 460.50 M657.28 382.48 C680.12 409.86, 705.47 434.92, 735.61 461.65" fill="none" stroke="#202020" stroke-width="2" stroke-linecap="round" stroke-linejoin="round"/><path d="M240.96 385.01 C216.46 411.44, 192.64 436.25, 164.14 463.66 M245.62 383.38 C221.65 405.61, 196.89 431.62, 163.33 461.53" fill="none" stroke="#202020" stroke-width="2" stroke-linecap="round" stroke-linejoin="round"/><path d="M247.65 -31.82 C228.21 -46.38, 207.69 -59.82, 162.71 -112.34 M243.20 -29.66 C209.21 -63.60, 177.53 -95.62, 164.65 -110.26" fill="none" stroke="#202020" stroke-width="2" stroke-linecap="round" stroke-linejoin="round"/></svg>