<svg xmlns="http://www.w3.org/2000/svg" viewBox="0 0 900 320" width="900" height="320"><path d="M13.25 15.58 C214.05 19.54, 414.88 19.89, 884.84 13.75 M13.47 13.75 C214.29 15.60, 415.72 16.64, 885.37 13.43 M885.52 11.81 C883.18 114.67, 886.17 209.55, 886.69 305.66 M885.91 13.73 C885.17 107.13, 888.07 203.08, 884.94 304.71 M887.13 306.25 C609.10 313.84, 333.81 314.08, 12.98 306.94 M886.47 306.43 C644.53 312.25, 401.92 312.17, 13.36 305.99 M12.70 305.99 C13.08 191.77, 12.06 80.84, 16.61 15.18 M13.44 304.74 C14.52 204.44, 14.21 104.60, 13.41 12.57" fill="none" stroke="#202020" stroke-width="2" stroke-linecap="round" stroke-linejoin="round"/><path d="M28.28 33.49 C257.83 27.09, 486.14 27.52, 871.07 32.61 M28.74 32.61 C290.91 37.21, 554.40 37.20, 871.86 31.22" fill="none" stroke="#202020" stroke-width="2" stroke-linecap="round" stroke-linejoin="round"/><path d="M27.72 118.61 C245.37 112.03, 464.02 113.16, 873.07 116.95 M28.06 117.43 C264.15 122.09, 499.41 123.43, 872.14 117.20" fill="none" stroke="#202020" stroke-width="2" stroke-linecap="round" stroke-linejoin="round"/><path d="M26.58 201.13 C286.11 202.60, 546.97 202.62, 873.39 202.02 M28.32 203.16 C355.40 203.92, 684.09 203.48, 871.28 202.96" fill="none" stroke="#202020" stroke-width="2" stroke-linecap="round" stroke-linejoin="round"/><path d="M28.54 287.44 C331.07 285.68, 634.31 287.72, 873.18 288.08 M28.30 288.44 C277.87 283.26, 528.95 282.84, 872.02 287.71" fill="none" stroke="#202020" stroke-width="2" stroke-linecap="round" stroke-linejoin="round"/></svg>