<svg xmlns="http://www.w3.org/2000/svg" viewBox="0 0 900 300" width="900" height="300"><path d="M46.55 3.99 L314.96 -1.61 L318.40 -43.27 L492.19 -48.59 L495.44 -2.85 L858.63 2.86 L851.34 88.69 L902.41 86.30 L897.80 146.04 L851.36 153.00 L856.87 302.44 L496.48 298.69 L498.28 347.94 L314.52 346.43 L318.35 302.90 L41.52 297.75 L45.40 149.92 L-2.56 146.51 L-1.52 87.44 L42.82 89.40" fill="#faf7ef" stroke="none"/><path d="M44.43 -2.18 C132.90 4.55, 221.25 5.76, 313.60 -2.85 M44.49 -0.24 C117.59 2.08, 189.24 3.09, 314.47 1.39 M312.54 -2.94 C318.36 -17.19, 313.65 -32.93, 316.92 -45.67 M316.18 1.02 C314.15 -11.97, 316.61 -24.24, 314.74 -45.51 M313.88 -47.16 C377.97 -44.56, 435.95 -44.28, 491.16 -48.86 M313.03 -45.30 C350.70 -46.56, 389.60 -47.36, 494.27 -45.08 M496.92 -43.98 C492.69 -30.58, 494.43 -19.92, 497.95 -2.83 M496.62 -44.77 C495.54 -33.58, 494.39 -24.61, 494.38 2.00 M497.32 -0.19 C571.71 3.84, 649.00 2.70, 857.50 0.28 M494.12 0.36 C601.30 -1.11, 707.45 0.37, 855.48 -1.21 M854.36 0.79 C852.38 29.54, 856.63 62.69, 855.36 90.74 M856.89 0.05 C853.57 34.58, 856.40 67.59, 856.24 89.50 M851.40 86.11 C865.84 90.41, 883.23 86.99, 900.40 88.20 M855.32 90.56 C869.91 90.23, 881.97 89.17, 898.69 91.85 M903.39 88.01 C900.44 106.33, 897.66 115.90, 903.22 153.61 M900.49 90.96 C899.74 111.78, 900.41 133.32, 901.99 151.81 M898.14 153.66 C882.84 149.13, 861.81 147.19, 851.80 149.34 M898.40 151.07 C882.48 150.79, 866.89 148.64, 855.51 148.16 M858.54 150.44 C853.08 201.72, 857.01 264.95, 852.83 300.06 M854.38 151.68 C853.06 182.84, 853.30 211.55, 854.25 299.21 M854.45 299.28 C734.17 298.81, 611.70 297.35, 496.94 299.24 M854.38 300.99 C752.26 302.61, 649.58 302.08, 493.87 299.27 M492.98 301.83 C494.50 312.97, 491.40 334.27, 491.28 341.91 M495.30 299.45 C496.11 311.38, 493.87 322.90, 493.26 345.25 M497.86 348.04 C456.64 348.17, 411.50 345.95, 313.55 345.13 M494.02 345.40 C454.82 345.17, 417.72 346.10, 313.91 345.31 M311.55 341.10 C317.68 330.91, 317.39 318.05, 311.34 298.78 M315.24 345.78 C313.54 331.41, 313.54 322.73, 313.45 301.29 M316.19 302.29 C214.51 300.62, 111.51 301.01, 44.81 302.78 M316.23 300.39 C216.22 300.17, 120.03 302.08, 46.41 301.05 M46.30 303.87 C48.64 263.67, 48.25 225.95, 48.22 153.82 M43.19 299.91 C41.13 246.23, 43.31 194.95, 46.04 149.43 M42.10 146.44 C34.31 146.50, 20.53 149.60, -3.86 153.43 M44.62 148.11 C27.76 150.49, 12.35 149.81, -0.13 148.13 M1.91 149.30 C-0.34 134.55, 2.01 111.62, -2.29 93.04 M0.29 148.49 C1.46 129.33, 0.36 108.55, 0.54 89.24 M-3.10 92.53 C12.54 89.72, 18.92 87.34, 46.70 89.76 M1.07 91.02 C11.46 90.06, 21.96 90.93, 43.30 88.33 M44.35 88.56 C40.83 56.15, 47.06 21.51, 44.09 0.98 M46.43 89.19 C45.99 63.58, 46.80 34.63, 45.59 -1.25" fill="none" stroke="#202020" stroke-width="2" stroke-linecap="round" stroke-linejoin="round"/></svg>