<svg xmlns="http://www.w3.org/2000/svg" viewBox="0 0 960 420" width="960" height="420"><path d="M60.68 -3.14 L339.44 2.97 L335.41 -61.38 L524.03 -64.88 L529.15 0.00 L898.38 -2.99 L893.84 125.94 L962.47 127.81 L956.03 212.80 L893.06 207.13 L900.44 421.46 L526.19 421.40 L528.64 486.60 L338.85 481.58 L339.59 418.08 L61.14 419.21 L65.19 209.64 L-0.64 208.65 L-1.56 129.41 L60.41 128.02" fill="#faf7ef" stroke="none"/><path d="M64.92 -3.04 C144.90 2.92, 220.53 2.96, 337.41 2.61 M64.35 1.49 C169.58 2.77, 274.78 1.64, 334.64 0.32 M338.08 -3.69 C333.29 -23.29, 337.51 -42.10, 332.53 -63.06 M335.15 -0.59 C334.85 -17.31, 336.02 -38.02, 335.98 -61.80 M332.31 -60.95 C402.98 -64.47, 462.55 -63.64, 531.79 -64.79 M337.94 -64.04 C375.44 -63.17, 414.00 -61.50, 526.53 -61.03 M525.15 -65.44 C530.57 -46.39, 528.39 -23.14, 529.97 -0.35 M528.45 -63.17 C529.27 -37.52, 526.74 -16.22, 527.33 -0.54 M527.72 -2.45 C648.10 0.52, 772.93 -0.47, 895.02 0.25 M528.08 -0.59 C651.44 -1.79, 773.66 -2.56, 896.49 0.70 M899.79 -1.76 C899.34 37.32, 896.03 82.91, 900.45 127.46 M896.92 1.84 C896.35 26.57, 896.76 53.59, 896.77 127.68 M894.99 129.58 C919.38 127.13, 935.66 127.00, 959.02 129.22 M897.43 126.40 C919.08 123.01, 937.99 124.66, 960.87 126.43 M963.56 122.48 C954.77 151.44, 960.87 187.39, 962.94 209.29 M959.43 125.59 C962.60 149.86, 960.64 169.16, 961.67 211.10 M959.18 210.39 C936.12 212.16, 915.79 210.81, 896.13 211.11 M959.03 208.66 C936.44 210.45, 915.88 210.63, 898.49 210.37 M900.00 211.89 C896.48 283.15, 898.00 353.61, 899.09 416.59 M898.01 208.84 C894.31 258.17, 894.73 308.75, 896.98 418.61 M894.58 417.58 C813.42 421.02, 734.23 419.57, 529.10 420.95 M897.32 420.70 C760.36 419.38, 622.24 419.29, 527.76 419.97 M527.66 420.45 C526.67 438.35, 528.55 460.13, 530.07 481.94 M528.20 421.60 C525.45 442.74, 526.47 470.52, 526.53 484.36 M531.23 484.63 C469.48 480.92, 414.56 483.76, 333.24 482.34 M527.91 483.61 C485.26 481.62, 439.68 483.65, 335.69 483.30 M332.23 482.38 C339.87 467.79, 340.32 449.15, 334.99 416.04 M337.23 482.61 C336.20 462.86, 336.74 442.96, 336.36 418.85 M336.74 423.04 C234.75 422.99, 135.71 425.57, 62.76 417.45 M336.14 421.01 C252.43 421.18, 172.23 421.58, 62.66 419.47 M64.35 421.70 C60.85 376.42, 62.01 329.24, 63.63 208.96 M63.14 418.91 C66.64 345.73, 66.82 270.18, 61.31 211.28 M66.24 209.94 C49.18 211.55, 32.21 208.42, 1.38 210.72 M63.89 208.17 C40.79 210.03, 18.75 211.55, 0.03 211.97 M2.70 207.19 C-0.51 194.41, 2.57 174.81, 3.06 129.78 M-0.12 211.03 C0.76 182.98, 0.90 156.78, -0.17 126.65 M-1.86 129.05 C25.43 126.19, 48.91 128.62, 59.76 128.87 M-1.76 124.04 C17.53 125.84, 33.96 125.75, 62.45 125.16 M60.19 127.65 C65.19 84.34, 57.78 35.94, 59.23 2.37 M63.99 127.95 C63.68 91.29, 64.85 53.40, 62.57 1.25" fill="none" stroke="#202020" stroke-width="2" stroke-linecap="round" stroke-linejoin="round"/></svg>