<svg xmlns="http://www.w3.org/2000/svg" viewBox="0 0 900 320" width="900" height="320"><path d="M321.79 66.40 C321.79 66.40, 321.79 66.40, 321.79 66.40 M321.79 66.40 C321.79 66.40, 321.79 66.40, 321.79 66.40 M312.59 78.90 C330.55 62.04, 339.45 46.99, 359.36 37.16 M312.51 81.07 C329.43 65.93, 343.69 48.23, 357.03 35.05 M304.07 92.80 C324.33 71.63, 344.25 47.12, 363.89 30.21 M306.43 94.99 C326.76 74.80, 344.38 55.13, 366.46 29.23 M296.23 106.97 C320.40 91.07, 339.85 64.88, 373.29 24.81 M297.80 110.08 C320.77 86.52, 340.56 63.32, 376.44 25.06 M299.69 122.54 C321.87 84.29, 354.94 57.06, 384.33 15.59 M298.44 119.83 C330.47 79.93, 366.03 42.68, 382.34 21.11 M298.96 127.06 C338.65 79.28, 377.02 41.53, 394.91 13.13 M296.53 126.51 C323.44 92.32, 354.96 59.46, 392.98 14.22 M293.63 132.67 C322.31 102.42, 350.17 67.67, 403.08 9.71 M296.10 136.10 C316.78 107.89, 342.76 82.27, 403.44 11.05 M291.67 139.67 C326.62 104.03, 356.90 73.23, 411.26 9.76 M292.08 141.95 C325.22 110.27, 351.47 78.60, 408.46 10.08 M295.74 152.15 C319.49 122.32, 342.57 89.36, 412.19 10.13 M291.51 147.58 C328.97 107.58, 368.19 61.70, 414.97 8.15 M290.52 159.30 C318.97 126.53, 344.84 97.86, 420.03 8.48 M290.47 158.47 C334.21 109.16, 374.04 62.76, 421.99 9.52 M288.60 162.39 C339.67 102.61, 391.67 47.73, 424.52 10.33 M289.46 162.80 C325.56 126.26, 360.97 88.54, 424.65 6.89 M287.21 169.80 C346.46 111.80, 394.56 50.09, 429.38 6.89 M290.98 169.29 C346.83 104.33, 400.91 40.67, 431.41 5.88 M289.58 175.04 C349.35 107.94, 407.33 45.24, 438.61 2.93 M291.53 175.29 C339.69 121.69, 390.19 65.21, 438.43 6.84 M293.24 183.41 C328.03 140.53, 367.84 95.54, 444.57 5.30 M289.21 179.71 C355.30 110.28, 415.99 42.38, 445.49 3.96 M290.47 189.42 C332.16 138.20, 374.49 87.17, 449.43 2.35 M292.13 188.45 C341.70 132.85, 390.26 74.47, 449.97 5.48 M290.62 190.93 C326.78 150.59, 363.22 109.15, 456.31 5.35 M289.99 191.52 C341.78 138.42, 388.70 83.92, 453.84 4.61 M292.86 199.61 C352.44 124.37, 421.56 49.10, 457.43 7.74 M291.43 199.17 C346.00 134.63, 399.64 70.17, 459.86 4.90 M293.29 201.72 C342.80 140.69, 395.61 87.03, 462.72 4.58 M292.95 203.73 C332.08 157.72, 370.72 113.51, 464.18 6.82 M293.86 206.44 C351.38 146.29, 407.35 80.73, 468.14 4.66 M292.71 208.75 C348.13 150.27, 401.15 86.07, 470.02 7.44 M295.02 214.85 C337.29 165.50, 378.66 112.96, 472.84 8.43 M293.23 213.91 C350.59 152.53, 406.34 88.46, 474.28 6.40 M297.93 220.17 C366.46 142.52, 437.95 58.75, 480.70 7.74 M293.75 218.78 C351.45 154.13, 405.12 89.70, 477.76 8.17 M297.49 221.19 C335.59 175.86, 378.75 127.35, 482.62 9.36 M297.29 223.20 C357.23 152.67, 419.86 79.98, 481.95 8.06 M296.82 229.16 C366.15 148.72, 434.32 70.65, 489.49 13.14 M297.09 227.56 C336.58 180.64, 380.19 131.37, 485.81 10.43 M302.80 231.29 C365.53 160.74, 423.69 93.78, 494.73 10.05 M299.07 231.79 C366.72 153.99, 435.86 75.48, 491.37 9.55 M300.73 236.16 C357.92 171.94, 414.92 103.48, 497.35 8.93 M301.55 234.87 C339.24 188.20, 380.08 144.73, 497.06 10.32 M301.48 237.82 C353.02 192.64, 399.21 138.91, 499.05 11.24 M303.91 239.43 C375.83 157.60, 448.48 77.35, 501.77 11.44 M303.18 246.17 C378.60 154.77, 457.01 66.28, 502.99 14.20 M304.72 245.77 C374.07 162.96, 442.53 82.60, 503.88 15.20 M307.18 250.58 C378.72 170.94, 446.74 86.50, 510.33 18.29 M305.12 249.57 C371.83 167.91, 441.96 90.45, 507.40 18.36 M306.59 255.15 C372.94 187.57, 433.18 115.68, 509.05 21.53 M308.78 253.30 C357.74 196.05, 406.98 136.26, 511.04 20.32 M311.05 258.23 C385.61 164.02, 464.11 72.49, 516.51 19.21 M310.43 256.09 C362.13 195.46, 417.50 132.44, 514.68 20.19 M310.88 263.00 C377.86 186.98, 441.96 115.34, 520.23 23.77 M312.14 260.16 C376.87 186.04, 445.33 106.86, 517.52 24.27 M313.84 263.58 C390.17 170.20, 471.03 82.88, 524.38 24.27 M313.72 264.65 C397.87 169.85, 479.18 74.57, 522.04 24.87 M317.09 271.61 C362.77 212.42, 414.41 161.50, 527.32 29.17 M316.69 268.42 C392.76 178.70, 471.95 86.49, 527.14 27.26 M316.40 271.57 C390.28 185.90, 464.56 99.54, 529.50 27.61 M317.83 273.55 C403.27 181.19, 482.88 89.03, 528.79 30.35 M322.46 274.23 C380.63 202.56, 439.52 135.65, 531.95 28.64 M320.50 276.28 C377.91 206.33, 435.80 136.83, 533.48 30.22 M324.52 281.51 C361.53 228.66, 406.59 176.80, 535.77 35.34 M323.76 278.92 C392.68 197.29, 461.69 117.27, 536.35 32.29 M325.56 281.75 C397.26 194.55, 472.27 111.08, 537.98 36.17 M325.19 282.08 C387.02 207.54, 450.98 134.76, 540.46 34.66 M328.07 283.25 C413.07 192.57, 494.45 99.09, 542.68 35.55 M328.31 284.97 C391.63 206.92, 458.03 131.33, 542.13 38.26 M331.59 288.54 C379.05 237.37, 423.08 186.21, 547.69 37.90 M328.88 288.19 C377.22 235.46, 425.38 182.89, 546.15 41.25 M331.42 293.95 C398.61 219.26, 464.81 141.51, 547.83 43.96 M333.01 291.87 C405.35 209.57, 480.20 126.90, 548.63 42.07 M332.59 296.52 C377.34 239.79, 428.04 184.37, 552.27 46.91 M334.77 294.99 C392.64 225.05, 454.64 152.33, 551.14 45.12 M337.52 299.37 C386.32 242.59, 434.18 188.37, 556.25 46.75 M336.18 301.29 C395.78 228.61, 459.41 155.42, 555.44 48.72 M339.09 303.66 C419.68 211.47, 498.91 121.13, 557.51 48.29 M338.77 302.52 C416.15 215.54, 493.05 128.37, 559.19 49.50 M343.07 303.46 C391.17 249.58, 435.73 198.77, 560.87 53.62 M341.47 306.55 C394.35 244.73, 444.52 188.89, 561.89 52.07 M344.01 307.18 C409.29 237.82, 469.04 164.01, 565.69 54.75 M344.42 308.43 C398.88 249.33, 451.92 191.30, 565.04 54.89 M346.83 307.92 C390.68 255.75, 439.24 201.86, 565.62 59.69 M348.86 310.86 C430.58 213.61, 511.82 118.47, 566.66 59.60 M350.58 310.70 C408.47 248.93, 461.59 191.17, 569.52 63.22 M352.03 313.58 C413.30 243.89, 472.05 176.84, 569.22 61.30 M358.09 316.02 C405.24 257.77, 458.60 196.32, 572.63 65.69 M355.64 313.05 C414.14 254.09, 466.90 192.35, 573.19 62.68 M357.37 315.60 C432.34 231.44, 507.08 144.15, 577.57 65.59 M357.78 317.23 C437.25 225.41, 519.20 133.03, 576.88 65.94 M361.30 319.82 C427.22 248.08, 488.59 171.42, 578.90 67.54 M363.24 317.80 C418.84 250.20, 477.81 181.17, 578.15 68.91 M364.47 319.85 C430.33 244.09, 497.73 170.79, 581.13 72.57 M365.12 322.51 C444.94 228.79, 524.29 136.60, 580.29 72.72 M368.64 325.96 C416.39 273.83, 459.81 225.06, 584.23 74.15 M368.91 322.58 C427.87 252.10, 488.68 181.87, 583.49 75.42 M373.98 323.12 C453.33 236.22, 526.52 143.45, 586.61 79.74 M373.61 325.41 C431.87 258.37, 490.77 189.66, 585.76 79.52 M375.75 327.18 C422.43 273.48, 469.04 219.00, 586.17 85.15 M375.10 327.43 C447.04 245.53, 520.17 165.43, 587.04 83.54 M379.88 327.42 C454.73 248.06, 524.59 161.28, 588.67 84.67 M379.46 328.35 C452.86 243.66, 525.52 161.17, 589.31 86.94 M381.09 329.98 C451.69 252.30, 524.54 165.87, 589.97 93.42 M382.61 332.66 C441.14 261.65, 503.46 190.46, 591.07 90.30 M389.38 334.49 C439.05 270.93, 491.37 213.31, 592.89 92.49 M386.97 333.99 C443.96 266.52, 502.17 199.52, 593.42 94.99 M388.98 332.69 C464.95 251.63, 534.57 168.75, 593.48 96.33 M392.02 334.88 C442.58 273.20, 495.07 212.79, 594.82 99.95 M396.99 334.99 C476.95 242.17, 553.00 148.75, 599.51 103.62 M396.48 335.39 C447.78 273.39, 504.41 210.20, 598.29 101.38 M397.87 337.61 C456.73 274.16, 509.03 207.81, 600.37 107.76 M400.84 336.64 C466.80 263.21, 531.18 189.96, 599.26 107.78 M406.21 337.57 C474.01 257.71, 542.39 181.28, 602.37 111.02 M405.19 338.91 C445.00 290.07, 484.49 241.86, 601.95 111.22 M410.25 337.59 C460.78 273.29, 518.19 209.16, 602.32 114.31 M406.83 339.61 C473.66 260.79, 541.80 181.19, 604.75 114.23 M411.23 342.71 C463.93 283.60, 510.63 223.63, 607.14 116.28 M413.31 339.68 C476.29 270.61, 541.03 197.05, 605.30 117.54 M419.11 342.81 C486.99 260.80, 558.82 182.51, 605.46 124.10 M417.26 340.60 C482.68 270.25, 545.00 195.64, 605.91 124.90 M419.12 344.71 C460.65 293.10, 498.66 247.36, 605.90 131.00 M420.45 342.28 C487.32 264.71, 553.07 189.97, 605.99 130.36 M423.79 346.91 C468.18 290.78, 517.30 237.31, 609.26 137.15 M424.16 346.03 C483.44 272.85, 545.73 201.59, 605.84 132.97 M429.56 348.01 C481.77 286.61, 530.96 226.61, 606.20 137.66 M427.98 344.84 C486.08 282.66, 540.03 218.59, 607.53 140.61 M432.14 342.58 C498.03 276.49, 559.50 203.23, 606.60 141.74 M433.57 344.02 C499.73 263.79, 569.47 186.27, 607.69 145.57 M440.85 345.44 C474.97 303.71, 516.31 265.60, 608.38 149.60 M441.01 346.46 C496.21 280.70, 555.71 213.31, 610.11 149.00 M445.44 344.44 C489.35 289.47, 537.81 237.20, 608.00 153.99 M444.45 344.57 C483.42 301.82, 520.97 259.14, 611.34 155.12 M448.39 343.50 C486.75 304.09, 522.45 260.36, 610.09 156.99 M451.77 345.04 C509.69 283.24, 566.33 216.26, 612.42 161.30 M458.56 343.04 C506.99 286.43, 561.37 228.05, 613.77 162.70 M456.50 346.34 C510.85 277.32, 566.28 213.73, 612.89 167.20 M458.44 345.92 C499.33 310.37, 535.18 270.55, 612.26 169.00 M460.24 346.77 C502.15 296.97, 546.04 250.77, 612.99 171.25 M465.95 346.66 C503.47 305.97, 537.51 260.17, 608.42 181.05 M467.01 347.15 C516.06 291.07, 564.84 233.45, 611.92 179.07 M472.98 347.56 C513.64 298.87, 561.39 245.04, 609.56 181.80 M471.29 346.16 C512.69 296.17, 554.36 248.61, 612.66 185.03 M475.26 342.65 C525.93 290.83, 570.29 237.00, 611.84 192.31 M477.87 344.70 C514.75 300.98, 551.85 257.22, 612.78 191.50 M487.28 344.46 C515.36 303.87, 551.79 269.82, 607.09 197.67 M483.95 344.99 C531.70 288.22, 580.86 232.73, 610.75 197.38 M490.47 343.67 C528.77 298.60, 571.08 245.90, 607.58 199.91 M488.96 339.95 C525.71 303.26, 559.32 264.15, 609.38 203.73 M497.47 343.76 C539.98 285.97, 582.65 235.47, 611.50 210.39 M497.79 340.56 C533.47 301.28, 567.51 266.54, 611.88 208.97 M503.24 336.82 C527.29 317.18, 549.60 285.70, 613.50 218.82 M503.01 337.58 C526.50 312.24, 549.38 287.25, 610.29 218.18 M513.02 338.44 C528.35 314.94, 552.44 293.32, 604.51 224.97 M512.19 336.69 C530.21 310.86, 553.42 286.06, 606.24 229.77 M522.96 333.36 C533.37 309.52, 556.92 292.40, 602.31 238.40 M520.77 333.42 C549.50 300.33, 576.82 271.05, 599.34 240.13 M533.33 325.16 C553.05 302.35, 572.60 279.79, 597.52 247.64 M533.95 320.55 C543.93 306.56, 559.50 293.43, 594.47 252.55 M547.15 313.83 C562.44 298.24, 574.85 281.75, 592.14 260.63 M548.20 312.03 C564.90 292.84, 580.12 273.63, 592.59 259.82" fill="#faf7ef" stroke="none"/><path d="M540.32 34.73 C554.78 41.49, 568.33 55.82, 578.76 68.68 C589.19 81.55, 597.49 95.83, 602.91 111.90 C608.34 127.97, 610.23 147.73, 611.29 165.09 C612.36 182.46, 612.85 199.54, 609.31 216.07 C605.77 232.61, 598.00 249.95, 590.04 264.30 C582.08 278.64, 573.27 290.83, 561.57 302.17 C549.87 313.51, 534.15 325.17, 519.83 332.35 C505.51 339.52, 491.50 343.22, 475.64 345.22 C459.79 347.23, 440.64 346.83, 424.72 344.38 C408.79 341.94, 394.37 337.29, 380.08 330.54 C365.78 323.78, 350.46 315.34, 338.97 303.85 C327.47 292.35, 318.76 276.44, 311.08 261.56 C303.41 246.68, 296.52 230.92, 292.92 214.57 C289.33 198.22, 288.66 180.35, 289.52 163.46 C290.37 146.58, 292.72 129.38, 298.05 113.25 C303.39 97.12, 311.62 80.28, 321.52 66.70 C331.41 53.13, 344.25 41.26, 357.42 31.82 C370.60 22.39, 384.97 14.76, 400.57 10.09 C416.17 5.41, 434.77 3.56, 451.05 3.80 C467.32 4.04, 478.23 1.65, 498.23 11.55 C518.23 21.44, 555.44 48.64, 571.05 63.16 C586.67 77.68, 593.44 96.89, 591.92 98.67 M375.12 25.81 C386.62 16.31, 399.98 12.94, 415.12 9.35 C430.26 5.77, 449.65 2.79, 465.97 4.28 C482.29 5.78, 497.95 12.11, 513.01 18.30 C528.07 24.49, 543.83 30.63, 556.34 41.42 C568.85 52.22, 579.30 68.60, 588.08 83.08 C596.86 97.57, 604.57 112.13, 609.00 128.35 C613.43 144.58, 615.20 163.64, 614.66 180.44 C614.12 197.23, 611.20 212.99, 605.77 229.12 C600.35 245.25, 591.93 263.54, 582.11 277.23 C572.28 290.91, 559.72 301.28, 546.82 311.24 C533.92 321.21, 519.47 330.92, 504.71 337.03 C489.95 343.13, 473.70 347.34, 458.28 347.85 C442.86 348.37, 427.22 343.97, 412.17 340.10 C397.12 336.22, 382.19 332.45, 367.97 324.59 C353.75 316.73, 338.14 305.45, 326.86 292.96 C315.57 280.47, 306.92 266.05, 300.27 249.63 C293.62 233.22, 288.57 211.25, 286.94 194.48 C285.31 177.71, 287.32 164.72, 290.49 149.02 C293.67 133.32, 299.22 116.18, 305.99 100.27 C312.77 84.37, 320.10 66.30, 331.13 53.60 C342.17 40.91, 364.61 27.96, 372.20 24.10 C379.78 20.24, 375.55 27.39, 376.63 30.45" fill="none" stroke="#202020" stroke-width="2" stroke-linecap="round" stroke-linejoin="round"/><path d="M309.85 16.27 C309.85 16.27, 309.85 16.27, 309.85 16.27 M309.85 16.27 C309.85 16.27, 309.85 16.27, 309.85 16.27 M269.80 67.40 C277.33 59.16, 291.08 36.74, 319.05 5.10 M268.99 71.05 C287.95 45.29, 307.06 22.76, 321.63 9.18 M260.03 92.33 C289.37 53.01, 318.76 22.29, 338.66 -0.51 M255.67 89.47 C282.23 58.23, 310.51 27.87, 337.13 -0.99 M248.99 104.59 C281.59 66.55, 323.43 17.33, 347.96 -11.83 M246.76 108.39 C285.06 60.64, 323.95 18.66, 347.21 -10.57 M244.93 117.82 C288.24 62.17, 332.92 18.31, 358.27 -17.23 M245.11 115.75 C267.23 86.43, 289.13 59.19, 359.49 -15.30 M243.28 119.95 C280.55 75.62, 324.95 30.51, 366.85 -16.23 M243.21 124.10 C285.15 71.52, 329.71 20.34, 364.46 -15.55 M245.33 128.21 C291.84 82.29, 333.21 24.76, 369.26 -23.48 M242.51 132.63 C270.55 95.26, 301.60 59.59, 373.46 -21.19 M239.53 139.43 C271.24 103.29, 301.19 69.36, 378.60 -23.21 M241.85 140.26 C277.43 98.70, 310.71 56.12, 381.33 -21.49 M236.94 144.02 C293.67 84.57, 347.44 18.76, 385.60 -28.50 M239.73 145.98 C292.07 86.03, 343.76 26.73, 386.93 -26.77 M235.12 155.25 C280.00 107.62, 318.53 63.41, 392.78 -31.09 M238.68 156.24 C279.55 103.68, 322.54 53.75, 397.06 -28.99 M237.79 161.99 C273.90 110.80, 317.73 68.03, 404.41 -29.86 M237.86 159.47 C281.14 109.92, 328.29 55.24, 401.58 -29.86 M237.66 163.55 C278.89 125.75, 313.43 80.11, 409.62 -33.70 M238.81 165.04 C303.41 91.24, 367.64 18.01, 410.15 -31.33 M240.28 172.45 C295.49 104.37, 360.71 35.93, 414.63 -30.11 M237.30 173.50 C291.19 112.37, 342.24 52.07, 416.86 -32.25 M239.51 178.88 C281.62 123.95, 329.29 70.77, 421.66 -30.12 M238.57 176.63 C288.14 120.21, 340.42 63.41, 421.85 -33.39 M239.15 184.85 C304.34 112.87, 363.41 38.44, 427.92 -30.97 M238.29 185.02 C305.46 103.61, 373.48 25.82, 426.80 -33.72 M237.52 186.39 C313.51 101.26, 389.07 19.81, 435.34 -35.63 M237.68 188.90 C275.68 140.87, 316.77 97.38, 433.52 -32.81 M239.87 193.64 C296.27 121.30, 360.13 48.05, 439.65 -35.90 M238.27 196.27 C321.66 105.42, 400.26 16.08, 438.08 -36.73 M236.93 203.74 C292.13 148.14, 339.67 88.22, 444.91 -34.60 M239.31 202.28 C288.14 142.42, 338.82 85.80, 445.33 -36.55 M240.57 209.20 C305.63 131.63, 368.13 57.41, 452.64 -38.98 M239.86 205.53 C292.08 144.92, 342.78 89.11, 451.29 -37.02 M241.60 212.92 C286.52 158.28, 335.64 100.32, 458.34 -36.66 M241.60 211.50 C301.05 141.91, 362.70 73.82, 457.15 -37.62 M242.81 215.96 C327.30 121.17, 411.20 20.72, 459.41 -37.46 M243.11 216.64 C318.58 131.64, 389.49 48.03, 460.91 -37.11 M241.75 220.93 C314.90 137.44, 382.45 59.72, 468.03 -36.79 M244.34 220.02 C322.12 130.33, 400.00 41.47, 467.37 -34.61 M247.32 224.54 C322.03 130.28, 407.79 37.79, 469.00 -34.77 M243.90 224.64 C293.18 165.21, 344.74 104.40, 470.19 -36.43 M246.80 228.62 C308.50 155.94, 375.28 81.40, 477.40 -35.71 M247.02 230.79 C293.88 169.69, 343.77 111.86, 474.71 -33.93 M246.49 236.90 C298.39 184.08, 344.92 124.17, 478.57 -32.30 M247.02 233.80 C325.50 145.57, 402.14 56.97, 480.35 -34.68 M249.80 240.27 C299.97 180.68, 348.68 125.43, 482.99 -31.86 M249.47 238.36 C340.42 137.21, 433.55 31.69, 485.11 -32.24 M251.96 242.04 C338.06 137.60, 429.68 33.42, 488.91 -31.37 M250.99 244.69 C332.12 152.23, 412.73 58.75, 489.56 -31.41 M249.34 248.78 C304.16 190.80, 357.60 128.50, 493.94 -32.38 M249.79 247.72 C329.37 163.82, 403.19 76.14, 494.53 -31.98 M250.52 250.55 C308.57 188.49, 366.44 124.22, 499.52 -32.21 M252.81 252.64 C334.25 159.17, 413.53 67.13, 499.21 -30.65 M252.46 255.95 C318.07 185.26, 384.37 103.82, 504.39 -29.18 M253.33 257.00 C338.68 161.65, 421.21 66.97, 503.09 -31.00 M256.67 260.44 C340.86 168.91, 421.86 73.70, 506.41 -27.76 M254.66 261.71 C317.51 186.39, 378.28 116.25, 507.89 -30.20 M257.12 266.73 C321.65 192.16, 386.88 114.29, 513.10 -28.20 M256.56 266.52 C338.75 170.42, 419.68 77.09, 512.57 -28.31 M258.01 267.18 C338.48 177.51, 419.83 88.07, 516.95 -27.81 M259.27 270.20 C331.34 190.46, 399.41 110.71, 517.14 -26.79 M259.52 274.23 C315.13 210.78, 368.78 147.77, 521.33 -24.90 M260.41 273.65 C318.11 202.87, 376.16 135.35, 519.50 -24.54 M263.74 278.21 C350.12 181.41, 428.32 85.30, 523.47 -22.96 M262.63 276.20 C321.83 204.93, 383.18 133.79, 524.17 -24.09 M266.05 281.13 C350.97 182.38, 437.99 79.12, 527.38 -20.14 M265.28 281.71 C364.57 172.11, 460.64 61.38, 527.93 -21.42 M267.27 285.95 C371.64 162.12, 477.13 37.95, 532.30 -18.01 M266.54 285.24 C332.89 208.46, 397.32 132.70, 531.86 -20.70 M269.82 289.33 C366.45 174.41, 466.57 59.12, 534.55 -15.98 M269.64 288.38 C337.39 215.50, 403.98 137.80, 535.68 -17.18 M269.51 293.51 C335.95 216.96, 400.16 140.67, 537.91 -17.30 M271.95 291.14 C371.14 174.15, 472.97 55.54, 540.85 -17.59 M274.84 295.33 C353.88 204.10, 432.72 110.00, 544.51 -14.70 M274.32 295.64 C371.21 186.88, 469.00 74.71, 542.78 -15.71 M277.58 300.35 C365.73 192.76, 461.07 84.61, 545.53 -14.64 M276.00 299.74 C347.57 214.51, 419.92 130.93, 546.47 -13.99 M277.74 301.27 C372.16 198.30, 465.71 91.84, 553.05 -10.34 M278.81 301.93 C340.55 226.33, 405.12 152.45, 550.67 -10.48 M280.17 306.44 C358.67 219.28, 439.52 130.64, 555.56 -10.98 M280.69 306.51 C348.62 227.20, 417.27 149.41, 555.50 -10.02 M283.65 308.86 C380.23 193.24, 483.09 79.30, 558.01 -7.96 M282.55 310.02 C389.27 190.84, 494.56 71.25, 558.33 -7.33 M285.35 310.71 C346.32 247.19, 408.16 179.77, 561.76 -7.37 M285.39 312.96 C385.78 201.06, 483.03 88.84, 561.23 -5.84 M288.18 317.03 C354.22 242.78, 415.33 168.72, 566.85 -4.94 M287.81 314.68 C385.57 205.37, 479.87 94.94, 565.13 -3.28 M290.80 317.35 C361.87 241.28, 429.76 161.76, 570.38 0.10 M290.25 318.98 C386.88 204.98, 484.35 93.71, 569.47 -0.26 M293.82 322.21 C377.09 229.60, 454.91 136.86, 570.74 0.18 M294.01 321.52 C357.39 250.63, 417.58 180.68, 571.71 0.47 M296.36 325.39 C371.43 244.88, 439.40 163.55, 575.40 4.04 M296.39 324.62 C383.44 225.15, 467.38 130.10, 575.85 3.43 M298.92 327.70 C392.50 221.55, 487.24 114.38, 577.21 5.85 M300.41 327.20 C379.53 231.44, 462.00 137.13, 577.48 6.33 M300.33 328.86 C365.06 255.38, 432.60 182.76, 579.93 8.21 M301.01 330.60 C413.16 204.66, 521.62 77.76, 580.85 9.10 M305.52 334.37 C417.46 206.40, 528.60 79.52, 583.81 10.13 M305.36 333.06 C364.81 262.86, 424.95 193.90, 584.58 11.73 M307.60 335.79 C418.18 204.30, 530.50 75.42, 585.29 15.53 M307.93 335.68 C415.83 212.14, 521.45 89.49, 587.03 14.55 M309.65 340.46 C402.04 239.45, 490.53 134.96, 589.86 18.52 M311.09 338.63 C384.67 252.94, 463.70 161.72, 590.61 16.21 M315.05 342.47 C406.23 234.44, 502.22 121.31, 594.99 19.93 M313.07 341.49 C374.04 269.17, 438.49 197.14, 594.29 20.07 M314.93 343.52 C392.92 258.24, 467.47 172.15, 597.56 21.77 M316.01 345.35 C385.77 265.26, 453.03 186.88, 596.10 21.58 M318.01 346.04 C395.66 261.80, 470.38 175.02, 601.19 23.24 M319.12 347.26 C381.90 277.18, 441.37 208.42, 598.86 24.96 M320.61 350.25 C431.27 225.07, 535.56 106.83, 602.42 27.71 M322.59 350.18 C393.46 268.93, 461.50 191.18, 603.28 27.28 M325.23 349.07 C385.18 278.65, 449.01 213.29, 604.01 30.99 M326.64 352.12 C436.54 223.80, 546.50 98.82, 605.61 29.40 M328.77 351.26 C407.52 264.16, 481.50 173.51, 608.77 32.09 M329.44 354.00 C433.11 235.20, 532.43 121.54, 607.60 33.99 M334.29 356.93 C400.48 280.00, 469.33 200.43, 611.01 34.58 M332.61 354.62 C433.39 240.47, 535.00 123.49, 609.98 36.92 M335.80 356.60 C436.06 237.17, 540.46 119.66, 613.80 38.96 M336.99 356.36 C411.50 268.88, 486.43 181.08, 612.05 39.48 M340.90 356.72 C421.73 260.82, 506.46 167.10, 614.03 42.88 M340.18 359.32 C432.27 254.70, 523.58 147.30, 614.25 42.64 M344.94 359.82 C404.61 289.29, 469.35 211.06, 615.92 45.88 M344.70 361.41 C414.18 280.81, 482.99 200.88, 617.96 46.16 M349.38 360.93 C440.75 258.54, 535.86 149.42, 621.36 49.82 M346.81 362.15 C410.34 286.69, 476.07 211.97, 620.13 49.46 M349.22 365.05 C429.84 280.48, 506.45 190.78, 621.87 51.73 M350.86 366.00 C453.77 249.80, 555.33 134.55, 621.84 54.20 M355.97 366.94 C427.74 286.32, 498.12 208.91, 624.15 56.17 M354.76 366.38 C455.88 246.79, 558.98 128.26, 625.35 57.33 M360.53 367.14 C466.01 246.66, 568.28 124.11, 626.43 58.65 M358.35 369.72 C460.17 252.61, 558.38 139.45, 627.77 60.49 M363.69 371.04 C471.24 250.92, 577.16 127.20, 630.87 63.83 M362.39 370.02 C454.53 262.04, 546.51 156.27, 629.56 63.40 M364.37 373.19 C421.91 311.81, 476.69 250.09, 630.90 68.42 M364.88 373.20 C462.72 263.80, 558.69 153.84, 631.22 65.85 M372.27 375.54 C470.25 256.86, 569.88 139.76, 634.39 70.81 M370.31 373.52 C469.89 261.09, 568.26 146.16, 634.08 70.66 M376.66 375.29 C457.57 280.39, 536.42 191.88, 635.21 74.80 M373.56 375.38 C479.53 256.23, 584.11 137.34, 636.90 74.20 M377.70 377.27 C483.35 254.25, 586.75 136.11, 636.79 78.12 M379.24 375.74 C447.02 301.50, 513.43 227.30, 637.35 78.47 M380.81 379.95 C451.67 299.38, 519.79 221.03, 638.56 80.76 M382.33 378.36 C454.90 296.13, 524.50 214.77, 641.50 79.94 M385.19 377.86 C444.61 311.75, 501.99 245.09, 640.66 84.36 M387.75 378.84 C440.17 316.57, 493.49 256.55, 641.77 85.82 M391.58 379.55 C476.85 286.51, 555.53 191.92, 643.83 88.25 M391.58 379.46 C450.69 309.96, 508.19 241.17, 643.64 89.07 M394.97 381.35 C454.22 306.31, 517.44 235.37, 646.04 93.97 M395.31 382.48 C457.82 310.90, 520.96 238.28, 645.52 91.78 M399.66 384.65 C463.49 310.02, 525.59 238.03, 646.73 97.52 M398.97 383.70 C466.88 307.01, 534.32 230.32, 646.96 96.29 M404.21 383.30 C469.31 305.33, 539.81 226.38, 651.16 102.56 M402.48 384.62 C469.02 313.01, 534.57 237.63, 649.87 101.65 M408.09 386.22 C496.71 285.58, 581.01 182.92, 654.29 105.91 M408.88 385.06 C501.57 272.81, 597.02 164.45, 652.64 104.15 M410.95 385.45 C504.14 275.93, 596.10 167.38, 653.14 109.31 M411.06 387.58 C486.26 302.45, 558.49 219.05, 654.89 107.92 M414.77 386.91 C486.35 308.48, 555.37 226.58, 653.72 114.93 M416.11 388.56 C485.70 307.97, 556.04 230.54, 655.80 112.44 M422.28 390.36 C483.18 319.17, 539.34 249.18, 656.52 117.33 M421.44 387.23 C511.34 287.19, 600.45 184.23, 657.55 115.51 M424.26 386.41 C510.96 288.55, 598.29 193.02, 658.42 122.54 M425.54 388.47 C487.12 322.21, 544.04 254.46, 658.89 121.72 M428.34 388.85 C502.07 306.68, 570.20 226.92, 657.54 125.02 M432.21 390.41 C482.21 327.98, 533.27 267.70, 658.72 126.84 M437.30 392.13 C526.16 292.36, 606.85 189.67, 660.27 130.92 M435.52 388.29 C486.44 339.02, 532.94 285.32, 659.59 132.69 M443.13 387.02 C529.64 294.98, 612.43 197.75, 662.19 139.70 M440.72 389.45 C491.00 329.85, 544.16 268.62, 659.58 135.70 M446.45 389.94 C534.27 290.93, 617.85 196.90, 659.69 141.67 M447.81 390.13 C509.95 313.10, 576.90 235.97, 662.22 142.51 M450.83 388.16 C511.91 312.16, 580.26 233.74, 663.28 147.70 M452.31 389.40 C520.39 313.05, 589.26 234.39, 660.94 147.40 M456.11 390.45 C506.48 324.22, 563.39 258.45, 660.78 153.50 M457.14 391.58 C527.84 309.33, 601.24 223.04, 663.56 151.21 M461.06 392.08 C534.77 305.76, 603.52 221.95, 665.20 158.70 M460.91 389.80 C524.40 314.23, 589.93 235.92, 663.32 156.27 M464.50 392.37 C531.28 320.26, 592.17 244.20, 662.85 164.16 M465.45 390.72 C539.07 303.98, 613.56 219.44, 665.99 162.88 M472.50 391.77 C536.30 316.20, 600.16 242.86, 664.10 169.71 M471.54 390.87 C525.16 332.07, 574.65 274.80, 666.64 167.28 M479.53 389.07 C557.06 304.86, 623.65 222.48, 663.44 172.23 M480.24 387.55 C546.27 314.58, 610.56 242.99, 664.71 172.84 M488.00 389.79 C560.35 305.44, 626.56 221.20, 667.72 180.56 M485.62 387.72 C558.34 305.28, 627.81 224.08, 663.59 180.93 M493.16 383.68 C545.39 328.51, 602.04 265.27, 664.85 187.41 M491.66 385.91 C552.53 314.30, 614.78 243.58, 665.02 186.96 M500.39 382.05 C551.75 325.38, 596.67 268.66, 666.01 198.13 M498.33 382.15 C552.84 323.09, 602.86 262.30, 663.92 193.58 M508.28 382.65 C539.59 346.34, 575.81 300.20, 663.03 202.88 M507.50 381.15 C557.24 318.22, 615.99 254.37, 661.43 200.74 M516.39 380.09 C566.68 315.96, 622.84 250.31, 663.24 212.02 M512.25 379.94 C565.78 321.26, 613.07 263.94, 662.13 210.66 M518.26 375.23 C571.82 315.91, 628.92 254.17, 663.68 214.46 M519.72 377.60 C569.80 323.21, 618.48 267.56, 659.70 213.98 M531.00 376.56 C569.15 331.83, 605.52 288.84, 661.09 220.82 M528.08 372.93 C560.70 335.33, 597.51 295.88, 660.70 224.49 M540.93 371.57 C574.57 327.93, 609.28 283.23, 657.06 230.96 M536.57 367.78 C569.04 335.89, 597.64 302.80, 657.92 234.98 M551.12 367.23 C585.48 322.07, 614.62 287.06, 648.55 244.06 M547.38 366.40 C569.17 340.25, 590.32 314.41, 651.17 245.16 M557.74 361.63 C583.61 331.02, 607.39 296.36, 650.81 258.53 M557.84 358.79 C585.56 327.53, 616.89 292.93, 649.50 256.75 M568.83 358.43 C598.02 320.19, 624.35 289.11, 643.48 264.19 M567.90 357.42 C583.30 331.12, 602.00 310.82, 644.00 263.93 M580.87 345.26 C604.62 323.79, 622.94 298.45, 639.10 278.14 M581.05 342.14 C597.45 323.92, 612.87 304.34, 641.88 273.90 M596.32 327.73 C606.24 321.16, 615.51 307.70, 625.39 300.78 M599.08 330.26 C606.42 321.83, 617.45 310.29, 624.20 303.58" fill="#faf7ef" stroke="none"/><path d="M512.70 -28.73 C530.06 -27.03, 544.85 -17.06, 560.01 -7.67 C575.16 1.73, 591.25 14.66, 603.64 27.62 C616.03 40.59, 625.42 55.33, 634.34 70.14 C643.26 84.94, 651.93 99.82, 657.17 116.43 C662.41 133.04, 665.41 151.65, 665.77 169.81 C666.13 187.98, 663.43 207.89, 659.31 225.45 C655.18 243.00, 648.90 259.64, 641.01 275.16 C633.12 290.69, 624.16 305.41, 611.97 318.61 C599.78 331.81, 583.00 344.51, 567.87 354.35 C552.74 364.19, 537.35 371.71, 521.20 377.68 C505.04 383.64, 488.62 388.46, 470.93 390.13 C453.23 391.79, 433.06 390.82, 415.01 387.65 C396.97 384.47, 378.99 378.04, 362.66 371.05 C346.33 364.07, 331.05 356.80, 317.05 345.74 C303.04 334.68, 289.08 318.82, 278.63 304.69 C268.18 290.56, 260.87 277.19, 254.35 260.96 C247.83 244.72, 242.39 225.02, 239.52 207.28 C236.65 189.53, 235.82 171.60, 237.13 154.47 C238.44 137.34, 241.05 120.78, 247.36 104.49 C253.68 88.21, 264.64 71.42, 275.01 56.77 C285.38 42.11, 296.31 28.37, 309.59 16.56 C322.87 4.76, 338.59 -6.08, 354.71 -14.05 C370.82 -22.02, 389.22 -27.27, 406.28 -31.25 C423.34 -35.23, 428.65 -43.44, 457.09 -37.93 C485.54 -32.42, 548.91 -14.66, 576.96 1.79 C605.02 18.25, 627.37 57.42, 625.45 60.80 M410.58 -32.93 C426.37 -39.97, 445.10 -38.92, 461.92 -38.48 C478.75 -38.03, 494.54 -35.61, 511.53 -30.27 C528.52 -24.93, 548.39 -16.29, 563.85 -6.42 C579.32 3.44, 592.12 15.75, 604.32 28.93 C616.52 42.12, 628.49 57.00, 637.04 72.68 C645.59 88.37, 651.46 106.08, 655.62 123.05 C659.79 140.03, 661.92 157.72, 662.04 174.53 C662.16 191.34, 660.05 207.21, 656.33 223.93 C652.61 240.65, 648.19 259.22, 639.71 274.83 C631.23 290.43, 617.78 303.69, 605.44 317.56 C593.09 331.43, 580.21 348.13, 565.63 358.05 C551.04 367.97, 534.67 372.10, 517.94 377.08 C501.22 382.06, 482.91 386.14, 465.29 387.92 C447.67 389.69, 430.03 391.15, 412.22 387.75 C394.41 384.35, 374.46 375.42, 358.42 367.53 C342.39 359.65, 329.19 351.00, 316.02 340.45 C302.85 329.90, 290.43 318.15, 279.39 304.26 C268.35 290.37, 257.13 273.88, 249.77 257.12 C242.40 240.36, 237.71 220.89, 235.19 203.71 C232.68 186.54, 232.63 171.01, 234.67 154.07 C236.72 137.13, 241.07 118.83, 247.49 102.08 C253.90 85.33, 262.52 68.45, 273.17 53.58 C283.83 38.71, 297.26 24.09, 311.41 12.84 C325.57 1.59, 342.05 -6.38, 358.10 -13.91 C374.16 -21.43, 399.32 -30.22, 407.74 -32.32 C416.16 -34.43, 407.97 -30.19, 408.64 -26.55" fill="none" stroke="#202020" stroke-width="2" stroke-linecap="round" stroke-linejoin="round"/><path d="M412.23 81.19 C422.34 75.09, 435.92 73.45, 447.83 73.62 C459.73 73.80, 472.46 77.62, 483.65 82.24 C494.83 86.85, 505.81 93.70, 514.92 101.30 C524.02 108.91, 532.80 116.84, 538.27 127.86 C543.75 138.87, 546.30 155.03, 547.77 167.38 C549.24 179.72, 549.95 190.16, 547.07 201.95 C544.19 213.73, 537.67 228.06, 530.49 238.08 C523.32 248.10, 514.44 255.69, 504.03 262.05 C493.62 268.41, 480.00 273.61, 468.03 276.23 C456.06 278.86, 443.93 279.99, 432.20 277.80 C420.48 275.61, 407.81 269.35, 397.68 263.09 C387.55 256.83, 378.81 249.85, 371.42 240.22 C364.02 230.59, 356.99 217.12, 353.32 205.30 C349.66 193.48, 348.45 181.69, 349.43 169.30 C350.42 156.91, 353.66 142.38, 359.23 130.97 C364.79 119.57, 371.40 109.74, 382.82 100.85 C394.24 91.96, 418.07 81.54, 427.75 77.61 C437.42 73.69, 440.33 76.15, 440.89 77.32 M398.34 86.00 C407.48 78.93, 424.57 79.09, 437.11 77.75 C449.65 76.41, 462.29 76.18, 473.57 77.97 C484.85 79.76, 495.00 81.86, 504.80 88.49 C514.60 95.12, 525.23 107.48, 532.37 117.76 C539.51 128.05, 545.23 138.03, 547.66 150.20 C550.08 162.37, 548.15 177.86, 546.92 190.81 C545.69 203.75, 545.73 217.33, 540.26 227.86 C534.78 238.39, 523.41 246.36, 514.07 253.98 C504.72 261.60, 495.63 270.01, 484.21 273.56 C472.79 277.12, 458.13 276.10, 445.55 275.29 C432.97 274.49, 419.50 273.34, 408.75 268.75 C397.99 264.15, 389.72 255.98, 381.01 247.71 C372.30 239.44, 361.68 230.02, 356.50 219.14 C351.32 208.25, 350.48 194.77, 349.91 182.40 C349.34 170.03, 349.42 156.99, 353.10 144.92 C356.77 132.85, 364.02 120.00, 371.94 109.99 C379.85 99.97, 395.91 88.79, 400.57 84.83 C405.23 80.87, 398.62 83.84, 399.91 86.21" fill="#faf7ef" stroke="none"/><path d="M496.69 85.27 C507.18 89.57, 515.86 100.54, 523.85 109.94 C531.84 119.33, 540.46 130.02, 544.61 141.66 C548.76 153.30, 548.84 167.27, 548.74 179.77 C548.65 192.28, 548.16 205.85, 544.06 216.72 C539.96 227.59, 532.82 236.06, 524.14 244.97 C515.46 253.88, 502.86 264.38, 491.96 270.17 C481.07 275.96, 470.50 278.97, 458.75 279.71 C447.01 280.45, 433.55 278.52, 421.49 274.60 C409.44 270.69, 395.96 264.23, 386.41 256.22 C376.86 248.21, 369.86 237.48, 364.19 226.54 C358.51 215.60, 354.14 202.77, 352.36 190.56 C350.57 178.36, 351.15 164.88, 353.47 153.29 C355.79 141.69, 359.76 131.06, 366.26 121.00 C372.76 110.94, 382.38 100.03, 392.47 92.91 C402.56 85.79, 415.48 81.38, 426.79 78.26 C438.10 75.14, 447.24 72.15, 460.35 74.18 C473.46 76.20, 496.66 86.69, 505.47 90.38 C514.27 94.08, 514.03 95.06, 513.16 96.35 M369.74 115.26 C374.77 105.10, 384.56 96.74, 394.06 90.64 C403.56 84.54, 415.08 81.15, 426.74 78.65 C438.40 76.16, 452.00 74.48, 464.03 75.65 C476.06 76.82, 488.55 79.50, 498.93 85.66 C509.30 91.81, 518.63 102.72, 526.26 112.58 C533.90 122.43, 540.45 133.31, 544.75 144.79 C549.04 156.26, 552.59 169.55, 552.05 181.43 C551.50 193.30, 546.54 204.67, 541.48 216.04 C536.43 227.42, 529.92 240.70, 521.73 249.66 C513.53 258.63, 503.12 264.72, 492.31 269.85 C481.51 274.97, 468.91 280.40, 456.91 280.39 C444.91 280.38, 432.43 274.11, 420.30 269.77 C408.17 265.43, 393.47 262.03, 384.13 254.36 C374.78 246.68, 369.64 234.50, 364.24 223.71 C358.84 212.92, 353.66 201.10, 351.72 189.61 C349.77 178.12, 350.22 166.89, 352.57 154.77 C354.92 142.66, 363.51 123.03, 365.81 116.91 C368.10 110.79, 364.73 116.55, 366.35 118.05" fill="none" stroke="#202020" stroke-width="2" stroke-linecap="round" stroke-linejoin="round"/><path d="M658.99 -33.83 C687.17 -56.45, 710.34 -85.09, 740.24 -107.67 M654.47 -28.64 C683.03 -59.73, 712.91 -89.63, 737.37 -111.39" fill="none" stroke="#202020" stroke-width="2" stroke-linecap="round" stroke-linejoin="round"/><path d="M657.59 381.80 C682.61 406.51, 708.62 431.47, 739.27 459.11 M657.15 380.73 C672.87 398.77, 692.65 418.88, 737.00 462.75" fill="none" stroke="#202020" stroke-width="2" stroke-linecap="round" stroke-linejoin="round"/><path d="M247.23 381.42 C227.68 397.58, 210.44 418.27, 166.67 461.40 M245.19 383.90 C223.12 403.90, 197.99 425.93, 163.70 461.24" fill="none" stroke="#202020" stroke-width="2" stroke-linecap="round" stroke-linejoin="round"/><path d="M241.46 -30.33 C225.98 -54.59, 205.79 -75.33, 163.11 -109.15 M242.64 -29.70 C218.25 -59.30, 190.49 -82.23, 163.18 -111.90" fill="none" stroke="#202020" stroke-width="2" stroke-linecap="round" stroke-linejoin="round"/></svg>