<svg xmlns="http://www.w3.org/2000/svg" viewBox="0 0 900 320" width="900" height="320"><path d="M449.95 17.44 C609.90 69.72, 768.69 122.86, 884.39 159.45 M449.49 15.06 C578.42 59.36, 709.65 102.40, 884.20 160.40 M885.53 161.50 C762.89 194.81, 639.09 236.97, 450.23 305.07 M884.60 160.13 C759.81 198.39, 637.16 238.90, 450.65 303.55 M450.93 302.61 C284.74 246.77, 115.36 193.94, 15.99 160.97 M449.74 303.36 C297.59 255.13, 143.63 204.14, 15.54 159.89 M16.63 159.63 C187.62 104.66, 359.42 48.62, 450.03 16.48 M16.72 159.54 C161.31 114.43, 304.56 66.62, 450.72 16.30" fill="none" stroke="#202020" stroke-width="2" stroke-linecap="round" stroke-linejoin="round"/><path d="M26.96 161.89 C35.97 156.68, 43.44 160.37, 51.09 163.58 M25.98 159.74 C31.80 160.08, 38.82 158.36, 51.58 159.94" fill="none" stroke="#202020" stroke-width="2" stroke-linecap="round" stroke-linejoin="round"/><path d="M850.14 158.93 C856.91 161.09, 857.78 161.12, 870.56 158.53 M847.56 160.10 C855.30 159.24, 861.61 159.12, 872.75 159.17" fill="none" stroke="#202020" stroke-width="2" stroke-linecap="round" stroke-linejoin="round"/><path d="M43.20 155.00 C45.80 156.38, 49.07 155.87, 49.55 160.28 M43.74 154.70 C46.78 157.52, 49.36 158.37, 51.71 160.11 M51.76 161.11 C50.42 159.78, 48.03 163.38, 45.47 165.83 M50.87 160.14 C49.01 160.83, 47.12 162.24, 43.70 164.91" fill="none" stroke="#202020" stroke-width="2" stroke-linecap="round" stroke-linejoin="round"/><path d="M854.56 154.25 C853.93 157.27, 853.96 158.10, 850.62 161.15 M855.19 154.45 C854.51 157.04, 851.62 156.83, 848.27 159.57 M847.92 160.96 C849.32 161.57, 852.12 162.21, 857.46 165.98 M848.98 160.49 C851.66 161.68, 853.11 162.72, 855.94 164.18" fill="none" stroke="#202020" stroke-width="2" stroke-linecap="round" stroke-linejoin="round"/></svg>