<svg xmlns="http://www.w3.org/2000/svg" viewBox="0 0 900 300" width="900" height="300"><path d="M42.31 1.42 L311.92 3.15 L317.19 -44.62 L491.53 -41.74 L496.05 -1.52 L857.13 -0.22 L857.24 90.14 L901.61 89.10 L901.87 153.34 L855.13 146.05 L857.76 299.69 L491.73 298.29 L491.06 348.82 L317.75 347.43 L315.87 298.04 L45.38 302.61 L45.25 152.15 L0.57 149.80 L-2.25 90.19 L44.85 93.20" fill="#faf7ef" stroke="none"/><path d="M46.90 -1.71 C150.90 3.90, 255.85 3.45, 317.01 -1.22 M43.68 0.43 C117.76 1.49, 192.74 1.88, 315.17 -1.20 M316.68 -3.84 C318.22 -14.21, 310.97 -29.64, 317.46 -43.09 M313.23 -0.76 C316.35 -11.74, 316.42 -21.89, 315.62 -43.43 M313.82 -41.89 C370.07 -48.84, 416.40 -51.44, 492.01 -42.94 M316.39 -43.50 C370.66 -47.70, 424.39 -47.53, 496.09 -46.09 M491.92 -44.71 C497.60 -30.19, 491.36 -19.10, 495.93 -3.18 M494.87 -43.29 C496.30 -32.39, 493.04 -19.49, 493.49 1.44 M492.99 1.68 C569.10 3.99, 645.17 1.68, 855.07 0.42 M494.14 0.29 C618.93 -0.93, 742.03 -0.69, 855.65 -0.10 M851.37 2.45 C857.93 22.93, 853.86 45.40, 857.39 89.00 M853.91 -1.60 C855.34 33.90, 853.64 63.56, 853.73 91.59 M851.04 90.41 C861.36 87.08, 876.96 92.38, 901.40 88.89 M856.85 89.06 C868.64 90.86, 879.96 90.57, 900.91 89.11 M901.55 92.06 C895.37 108.91, 900.17 123.45, 900.60 152.49 M898.18 88.80 C899.99 101.57, 899.21 114.29, 901.17 151.24 M902.78 153.53 C892.29 152.54, 876.31 148.64, 855.03 149.12 M899.87 148.99 C886.41 151.74, 869.87 150.21, 854.19 151.22 M858.19 150.70 C857.45 196.41, 858.43 243.61, 854.62 297.27 M853.79 151.54 C853.96 205.96, 854.89 256.39, 855.80 299.80 M852.68 299.85 C743.22 296.71, 633.30 296.29, 495.81 299.88 M854.76 299.98 C779.21 302.54, 704.99 302.28, 494.33 299.97 M491.92 296.25 C499.22 317.72, 496.86 331.38, 497.49 346.61 M496.34 298.63 C495.48 316.09, 496.15 331.25, 496.55 345.12 M491.56 342.65 C431.70 344.30, 373.33 346.12, 315.53 344.22 M495.14 343.67 C432.14 345.17, 369.70 343.04, 313.75 345.69 M317.33 344.43 C312.39 333.67, 314.22 324.74, 315.71 300.44 M313.88 343.04 C313.83 330.87, 312.82 318.71, 315.94 299.32 M313.03 300.69 C235.68 295.75, 151.93 298.99, 44.77 298.52 M315.05 300.99 C216.09 298.65, 112.91 300.24, 43.65 301.52 M45.05 296.67 C46.95 262.59, 43.28 228.51, 41.52 151.33 M44.43 299.43 C46.74 268.63, 45.59 239.20, 43.68 148.35 M46.97 153.04 C34.93 152.65, 21.05 147.24, 0.18 153.20 M45.51 151.49 C29.11 149.57, 11.43 151.18, 0.34 149.66 M3.94 151.92 C4.10 125.88, 2.99 109.26, 3.74 90.40 M-0.56 149.79 C0.82 130.88, -1.94 110.61, -1.09 88.67 M2.19 87.57 C7.09 87.31, 20.72 87.07, 41.75 88.63 M-0.87 90.43 C11.37 87.33, 23.94 88.11, 45.95 88.49 M47.13 93.06 C46.24 66.75, 46.27 43.14, 47.01 0.21 M45.17 88.55 C42.67 70.29, 44.23 52.35, 44.20 0.55" fill="none" stroke="#202020" stroke-width="2" stroke-linecap="round" stroke-linejoin="round"/></svg>