<svg xmlns="http://www.w3.org/2000/svg" viewBox="0 0 960 420" width="960" height="420"><path d="M19.84 16.98 C16.78 130.89, 20.99 250.67, 21.97 407.05 M19.08 13.99 C24.67 160.67, 25.15 305.91, 19.19 405.19" fill="none" stroke="#202020" stroke-width="2" stroke-linecap="round" stroke-linejoin="round"/><path d="M201.91 13.90 C202.15 158.88, 200.59 304.76, 204.22 406.68 M204.40 15.53 C202.56 170.60, 202.29 324.09, 204.11 403.91" fill="none" stroke="#202020" stroke-width="2" stroke-linecap="round" stroke-linejoin="round"/><path d="M388.14 16.19 C385.42 94.98, 383.15 170.57, 388.06 404.45 M387.66 16.05 C391.68 163.66, 392.45 311.43, 388.69 403.92" fill="none" stroke="#202020" stroke-width="2" stroke-linecap="round" stroke-linejoin="round"/><path d="M572.27 16.68 C573.05 138.76, 573.25 263.76, 570.51 405.68 M571.98 13.87 C569.57 124.48, 570.22 234.62, 572.98 404.49" fill="none" stroke="#202020" stroke-width="2" stroke-linecap="round" stroke-linejoin="round"/><path d="M757.20 16.14 C758.79 172.69, 761.36 327.70, 757.24 406.83 M755.83 14.96 C757.03 163.89, 756.02 312.74, 756.76 405.62" fill="none" stroke="#202020" stroke-width="2" stroke-linecap="round" stroke-linejoin="round"/><path d="M938.48 15.15 C937.90 104.09, 937.44 188.00, 939.94 406.08 M938.90 14.00 C943.31 106.03, 942.62 197.54, 940.50 405.23" fill="none" stroke="#202020" stroke-width="2" stroke-linecap="round" stroke-linejoin="round"/><path d="M21.01 14.26 C280.55 20.40, 539.17 18.44, 941.18 15.47 M19.79 15.63 C264.26 14.63, 507.45 15.08, 940.60 14.92" fill="none" stroke="#202020" stroke-width="2" stroke-linecap="round" stroke-linejoin="round"/><path d="M18.48 113.45 C371.34 110.38, 722.45 110.02, 939.17 111.99 M19.54 113.17 C286.29 112.82, 551.99 112.09, 939.31 112.51" fill="none" stroke="#202020" stroke-width="2" stroke-linecap="round" stroke-linejoin="round"/><path d="M18.45 210.38 C320.00 205.77, 618.16 203.14, 939.48 209.31 M19.29 210.66 C346.38 206.20, 670.74 206.62, 940.34 209.32" fill="none" stroke="#202020" stroke-width="2" stroke-linecap="round" stroke-linejoin="round"/><path d="M21.12 307.18 C291.55 299.15, 563.72 300.15, 938.64 308.60 M20.28 307.16 C340.80 307.04, 662.12 307.45, 939.79 308.04" fill="none" stroke="#202020" stroke-width="2" stroke-linecap="round" stroke-linejoin="round"/><path d="M18.62 404.52 C290.08 402.48, 558.94 402.33, 939.24 406.06 M20.45 405.00 C354.75 407.86, 688.04 406.97, 940.57 405.17" fill="none" stroke="#202020" stroke-width="2" stroke-linecap="round" stroke-linejoin="round"/><path d="M294.19 161.43 L477.97 162.84 L477.88 259.20 L297.76 256.61" fill="#faf7ef" stroke="none"/><path d="M298.02 160.86 C351.56 162.85, 407.70 162.38, 476.13 160.98 M297.12 160.31 C358.26 157.94, 419.99 157.58, 481.66 160.58 M480.92 162.06 C480.32 181.18, 479.56 203.14, 477.22 260.58 M478.45 162.34 C482.26 183.54, 480.63 202.39, 478.24 260.01 M476.04 259.08 C425.70 258.19, 365.88 256.88, 295.70 259.40 M478.11 259.06 C438.69 255.57, 398.57 253.61, 297.54 258.41 M298.54 262.07 C300.31 233.45, 296.78 208.48, 296.95 158.86 M295.48 256.92 C295.53 230.91, 297.50 203.71, 297.72 160.51" fill="none" stroke="#202020" stroke-width="2" stroke-linecap="round" stroke-linejoin="round"/><path d="M424.39 209.56 C500.67 208.45, 570.93 208.90, 627.13 210.49 M423.03 210.85 C480.39 211.72, 538.68 211.71, 628.67 209.48" fill="none" stroke="#202020" stroke-width="2" stroke-linecap="round" stroke-linejoin="round"/><path d="M594.36 190.26 C604.24 196.79, 616.41 200.50, 642.56 206.83 M591.83 192.03 C603.28 195.58, 614.15 199.30, 644.18 209.75 M641.86 208.27 C626.81 217.09, 605.27 222.48, 591.38 231.83 M647.35 209.26 C628.12 217.72, 608.83 222.81, 589.88 227.82" fill="none" stroke="#202020" stroke-width="2" stroke-linecap="round" stroke-linejoin="round"/></svg>