<svg xmlns="http://www.w3.org/2000/svg" viewBox="0 0 900 320" width="900" height="320"><path d="M338.03 72.57 C338.03 72.57, 338.03 72.57, 338.03 72.57 M338.03 72.57 C338.03 72.57, 338.03 72.57, 338.03 72.57 M309.37 105.45 C323.55 97.37, 335.56 80.44, 354.61 54.44 M312.23 108.50 C325.95 88.22, 343.03 71.65, 358.24 54.66 M311.34 121.33 C319.93 105.03, 338.15 83.45, 374.91 43.00 M308.05 118.30 C326.29 97.76, 341.30 82.46, 374.30 44.95 M307.60 127.67 C327.04 106.04, 348.06 84.77, 379.63 39.79 M305.72 124.57 C322.74 104.92, 341.00 85.99, 380.75 39.63 M305.38 135.64 C333.62 101.26, 358.80 69.56, 391.01 41.26 M305.67 136.33 C327.92 105.98, 352.36 79.27, 390.78 35.89 M301.89 141.95 C322.23 121.66, 342.57 93.75, 394.00 36.53 M304.00 142.39 C326.56 117.06, 346.98 92.69, 395.92 36.31 M299.42 155.07 C331.58 116.07, 364.77 82.10, 404.08 33.11 M301.71 150.58 C333.96 114.30, 369.95 72.84, 404.48 33.74 M298.04 161.05 C333.89 116.61, 363.78 84.19, 408.89 27.72 M299.30 158.76 C343.37 107.94, 387.36 57.88, 411.85 30.83 M302.63 166.34 C337.69 123.99, 378.87 80.28, 419.20 31.03 M298.69 164.09 C325.90 134.93, 348.92 105.10, 418.81 27.99 M299.68 168.84 C336.91 131.06, 371.44 86.21, 421.27 24.42 M300.66 170.21 C334.42 131.06, 369.54 89.25, 423.50 26.69 M301.39 179.20 C335.25 137.47, 370.92 98.41, 429.65 24.82 M299.14 175.20 C335.06 137.42, 368.44 98.86, 431.12 28.24 M297.80 186.46 C335.90 142.82, 365.87 103.77, 434.43 29.04 M302.02 184.46 C337.30 140.83, 374.31 95.51, 437.08 26.08 M302.40 191.48 C338.27 142.38, 378.21 94.48, 442.22 23.60 M299.80 189.21 C332.64 153.77, 365.78 118.44, 441.58 27.22 M302.33 191.48 C333.07 153.30, 369.40 119.90, 448.40 28.22 M300.43 194.23 C336.60 160.30, 371.08 119.21, 449.33 26.72 M298.85 198.95 C329.87 165.53, 367.89 125.40, 455.17 23.67 M300.12 198.73 C337.02 158.82, 372.60 118.38, 452.75 23.51 M302.26 201.62 C353.84 144.67, 404.16 85.96, 460.11 21.78 M304.61 203.64 C342.29 160.80, 380.26 117.69, 459.64 24.35 M302.83 207.72 C366.83 135.75, 428.48 63.92, 463.03 26.17 M303.44 210.07 C356.58 149.61, 408.69 88.33, 462.14 26.10 M304.77 212.78 C349.35 162.43, 388.86 112.60, 466.29 26.76 M305.19 212.46 C349.25 164.64, 391.60 112.34, 470.31 26.51 M307.13 218.07 C345.03 175.65, 382.53 136.57, 474.64 26.99 M306.29 216.39 C349.85 166.29, 393.41 117.27, 471.90 27.63 M308.14 223.14 C345.14 183.80, 380.70 142.71, 476.63 26.26 M306.54 222.18 C369.93 145.97, 433.70 73.36, 477.16 27.02 M308.16 224.36 C347.49 181.24, 386.53 141.19, 481.62 26.56 M310.49 227.95 C361.83 165.46, 414.44 105.70, 481.37 28.45 M310.08 234.51 C377.99 154.73, 441.38 84.17, 487.76 27.37 M310.52 233.06 C355.52 177.47, 400.43 126.77, 487.76 29.21 M310.68 233.36 C377.36 159.19, 446.34 82.35, 494.11 27.83 M312.94 236.26 C367.44 177.72, 421.40 115.64, 491.09 29.66 M312.50 240.40 C367.98 177.24, 418.55 116.97, 495.04 32.58 M314.96 241.56 C383.62 159.31, 453.72 76.64, 495.15 32.50 M315.80 244.75 C371.19 180.29, 428.17 119.06, 501.78 30.24 M315.29 244.57 C362.30 185.63, 410.27 130.10, 499.41 31.29 M317.72 246.84 C361.38 201.34, 400.77 155.25, 502.04 36.21 M318.89 248.39 C385.88 172.24, 453.10 94.45, 503.76 33.85 M321.68 249.08 C366.32 198.26, 419.45 136.15, 506.53 32.58 M319.49 251.73 C385.48 172.61, 453.26 95.95, 507.30 34.11 M323.63 254.49 C370.00 203.76, 415.46 151.55, 513.63 39.53 M321.46 254.19 C374.21 200.01, 422.56 145.85, 512.86 38.73 M321.95 258.76 C396.24 177.90, 467.38 90.32, 512.17 40.69 M324.93 259.32 C390.21 185.24, 455.43 112.74, 514.25 38.58 M328.45 264.21 C369.97 211.93, 422.64 158.17, 520.54 41.70 M327.53 260.55 C388.05 193.08, 449.13 122.13, 518.90 40.46 M331.52 268.76 C409.60 176.73, 487.01 89.80, 521.87 41.24 M329.04 266.62 C384.70 205.99, 437.32 146.75, 523.56 44.31 M333.52 271.34 C403.28 187.34, 474.77 100.47, 528.93 46.36 M330.21 270.77 C395.13 194.45, 460.25 122.93, 526.71 44.98 M330.90 273.33 C400.42 188.90, 472.51 114.24, 530.25 46.12 M333.77 272.88 C406.38 186.13, 482.09 101.64, 528.72 46.40 M336.51 273.41 C388.33 220.42, 437.26 156.74, 531.75 51.50 M337.19 276.00 C397.02 209.14, 457.38 139.60, 531.54 49.35 M335.97 282.02 C421.46 192.88, 500.51 102.65, 534.03 53.57 M337.54 278.19 C401.60 211.32, 462.94 143.02, 537.47 51.78 M342.44 278.81 C384.90 231.75, 422.01 188.24, 540.45 52.26 M341.60 282.02 C403.85 208.01, 465.03 135.19, 539.80 52.83 M347.59 283.19 C421.78 199.22, 495.65 112.18, 542.46 53.02 M345.97 283.76 C421.68 197.31, 494.95 110.83, 544.73 55.34 M350.73 285.94 C416.00 208.93, 487.83 127.89, 544.59 57.80 M349.46 286.77 C412.44 218.44, 471.47 149.52, 547.46 58.54 M352.72 287.87 C389.01 238.00, 432.45 192.48, 549.65 61.31 M350.57 288.66 C390.71 241.27, 430.70 193.60, 550.01 62.27 M355.16 292.74 C398.28 241.18, 444.48 186.17, 552.47 65.18 M353.34 291.51 C432.70 201.14, 510.62 109.14, 550.87 63.14 M359.96 295.91 C423.68 214.56, 493.43 137.58, 555.62 67.96 M356.75 294.18 C404.39 241.04, 449.14 185.85, 554.69 66.79 M361.41 296.47 C418.72 237.51, 467.18 176.48, 555.17 69.11 M361.05 297.26 C418.12 226.85, 476.17 156.68, 557.73 70.92 M362.27 298.03 C434.44 221.83, 498.78 146.37, 559.11 71.12 M363.43 299.58 C412.60 246.45, 461.69 191.02, 560.51 73.12 M370.22 300.31 C433.88 222.15, 498.51 147.50, 565.79 77.21 M367.65 300.29 C441.19 212.93, 519.49 125.62, 562.38 76.71 M369.45 306.03 C448.60 216.40, 516.34 131.06, 566.97 81.39 M369.25 303.24 C421.15 251.07, 468.15 194.97, 564.74 79.33 M373.88 303.71 C445.42 212.74, 527.91 125.96, 565.29 83.31 M373.02 305.00 C428.29 239.76, 488.16 171.83, 566.60 82.65 M374.90 306.24 C455.58 221.06, 530.41 137.68, 568.36 82.44 M378.48 308.58 C452.06 227.58, 522.29 144.43, 571.97 86.83 M381.26 311.28 C433.90 246.49, 488.15 189.04, 574.71 90.24 M380.12 310.39 C448.12 230.74, 520.41 150.80, 573.54 89.49 M385.37 312.97 C452.55 229.81, 527.15 144.95, 576.36 90.75 M384.26 310.69 C456.22 229.94, 526.05 146.95, 574.51 92.77 M386.60 311.12 C439.22 252.93, 487.59 196.19, 574.96 95.82 M389.77 312.92 C434.90 261.05, 481.20 210.15, 578.19 95.62 M390.46 316.30 C453.13 248.31, 504.88 184.26, 581.67 98.76 M391.23 314.62 C449.83 244.25, 510.67 175.43, 578.82 99.94 M398.99 314.79 C435.57 264.82, 475.91 217.77, 578.38 101.77 M396.75 315.32 C435.12 269.89, 476.99 222.81, 580.85 103.74 M400.83 317.93 C451.57 258.49, 504.13 193.58, 581.45 108.64 M399.33 317.67 C448.62 264.90, 495.50 209.40, 582.74 107.25 M405.60 321.89 C451.67 269.08, 493.68 214.63, 586.58 113.33 M404.42 318.87 C445.15 271.94, 485.27 225.50, 584.11 110.71 M405.78 318.12 C477.86 239.62, 544.39 157.47, 585.20 113.96 M408.49 319.72 C451.91 268.83, 498.82 218.15, 586.81 114.64 M413.34 325.20 C472.55 253.40, 532.12 185.83, 588.39 121.11 M412.54 322.52 C468.07 259.54, 522.77 196.10, 588.50 118.34 M413.41 323.78 C469.09 264.26, 521.79 206.69, 593.02 122.03 M415.64 324.22 C452.47 280.85, 492.94 233.39, 590.59 121.81 M417.98 325.31 C463.81 273.20, 508.48 225.93, 593.94 127.26 M419.47 325.57 C480.08 259.46, 538.29 190.05, 592.28 126.07 M423.19 328.02 C484.57 265.96, 540.61 197.98, 596.04 128.51 M423.76 324.48 C496.11 248.29, 561.67 171.61, 596.23 129.09 M430.49 323.28 C483.83 267.59, 536.62 208.13, 597.52 133.77 M429.64 326.52 C490.43 254.83, 553.88 183.19, 597.12 135.64 M436.39 329.15 C495.05 251.96, 560.75 181.32, 597.44 140.15 M433.77 326.88 C498.47 260.61, 558.32 190.94, 595.47 139.85 M439.52 330.17 C472.72 288.79, 501.14 253.99, 600.15 148.58 M441.00 326.47 C497.58 264.33, 557.40 196.24, 598.77 146.96 M443.94 325.86 C502.14 270.03, 552.58 209.15, 600.88 148.16 M446.65 326.15 C489.17 271.89, 535.05 218.84, 600.31 149.97 M452.25 328.06 C480.96 289.33, 509.50 260.41, 598.37 153.72 M451.05 327.12 C505.67 264.86, 562.71 198.55, 599.60 155.00 M456.62 327.88 C507.87 272.20, 553.19 216.11, 600.56 160.10 M455.82 329.51 C483.77 292.03, 514.28 257.12, 602.14 160.11 M460.53 327.04 C499.06 281.46, 543.79 234.13, 598.44 168.84 M461.41 328.51 C500.41 282.40, 537.74 234.96, 601.34 165.69 M467.31 329.58 C500.10 292.12, 529.11 257.41, 600.18 167.69 M466.59 328.93 C502.97 288.51, 536.61 248.61, 600.55 171.73 M470.20 327.04 C507.71 281.48, 548.03 242.13, 604.94 172.25 M470.87 325.62 C517.46 272.90, 563.86 221.30, 605.12 176.08 M483.34 320.31 C520.92 275.93, 562.10 222.53, 600.18 186.25 M480.44 324.84 C517.50 277.98, 557.95 232.69, 600.89 182.67 M489.17 320.73 C527.18 284.27, 563.33 239.87, 598.94 193.63 M486.80 323.18 C515.90 283.25, 547.43 248.70, 598.88 191.00 M489.30 323.79 C508.46 295.77, 533.90 271.76, 595.98 196.28 M494.75 322.17 C528.64 275.65, 565.32 234.35, 598.07 198.16 M496.38 321.62 C527.02 285.80, 556.51 250.83, 595.90 204.61 M498.71 319.68 C537.95 279.91, 573.53 236.83, 596.97 205.79 M502.91 320.82 C533.09 289.14, 562.32 252.45, 596.64 212.90 M507.30 319.14 C534.75 284.02, 559.92 253.42, 598.67 213.82 M517.37 307.97 C547.48 286.58, 567.27 256.06, 594.72 222.11 M515.08 312.90 C536.96 292.57, 552.71 272.86, 595.10 222.31 M528.68 301.26 C547.80 279.84, 569.56 254.12, 587.14 235.50 M526.96 303.98 C549.81 280.24, 567.65 254.30, 588.65 236.30 M541.93 298.55 C549.13 279.09, 569.81 264.65, 579.25 251.22 M540.16 296.50 C550.07 284.24, 562.08 269.31, 582.57 251.50" fill="#faf7ef" stroke="none"/><path d="M338.12 72.47 C346.02 60.57, 359.28 51.40, 371.92 44.15 C384.56 36.89, 399.45 32.33, 413.96 28.93 C428.47 25.53, 444.04 23.10, 458.99 23.76 C473.94 24.42, 489.29 27.51, 503.65 32.90 C518.01 38.29, 533.28 46.54, 545.13 56.11 C556.99 65.69, 566.57 78.06, 574.78 90.36 C583.00 102.65, 589.79 115.67, 594.43 129.89 C599.07 144.12, 602.33 160.61, 602.61 175.69 C602.88 190.77, 600.79 205.97, 596.11 220.38 C591.42 234.80, 583.23 249.82, 574.50 262.19 C565.77 274.55, 555.29 285.30, 543.74 294.56 C532.18 303.82, 518.74 312.12, 505.19 317.77 C491.63 323.41, 477.04 327.24, 462.41 328.41 C447.78 329.59, 431.79 328.28, 417.41 324.82 C403.03 321.36, 389.45 315.39, 376.13 307.67 C362.80 299.94, 347.73 289.15, 337.46 278.47 C327.19 267.79, 320.62 256.93, 314.52 243.58 C308.43 230.22, 303.48 213.14, 300.90 198.34 C298.33 183.53, 297.41 169.68, 299.06 154.75 C300.71 139.82, 300.51 125.50, 310.78 108.76 C321.05 92.02, 348.44 65.59, 360.69 54.32 C372.94 43.05, 382.84 39.54, 384.28 41.14 M543.75 57.14 C555.60 64.15, 562.11 76.73, 570.56 87.96 C579.02 99.19, 589.72 110.73, 594.48 124.50 C599.24 138.27, 599.02 155.41, 599.14 170.56 C599.25 185.72, 598.79 200.61, 595.20 215.45 C591.60 230.30, 585.77 247.15, 577.57 259.61 C569.38 272.06, 557.31 280.93, 546.03 290.19 C534.74 299.45, 523.24 308.89, 509.86 315.18 C496.47 321.48, 480.65 325.72, 465.72 327.96 C450.78 330.20, 434.77 331.42, 420.26 328.62 C405.76 325.82, 391.74 319.25, 378.68 311.17 C365.62 303.08, 352.71 291.37, 341.90 280.12 C331.08 268.87, 321.15 256.41, 313.77 243.69 C306.39 230.97, 299.66 218.23, 297.62 203.78 C295.58 189.33, 298.93 172.46, 301.53 156.97 C304.12 141.48, 307.75 124.53, 313.18 110.82 C318.61 97.10, 324.85 85.80, 334.12 74.68 C343.39 63.57, 355.52 51.89, 368.80 44.14 C382.09 36.39, 398.81 31.62, 413.86 28.18 C428.91 24.73, 444.24 23.13, 459.11 23.47 C473.98 23.82, 489.64 24.97, 503.07 30.26 C516.51 35.54, 533.60 50.76, 539.72 55.17 C545.84 59.57, 541.35 54.36, 539.81 56.69" fill="none" stroke="#202020" stroke-width="2" stroke-linecap="round" stroke-linejoin="round"/><path d="M284.88 23.72 C284.88 23.72, 284.88 23.72, 284.88 23.72 M284.88 23.72 C284.88 23.72, 284.88 23.72, 284.88 23.72 M280.79 40.94 C288.96 21.91, 303.07 9.70, 331.90 -26.20 M279.07 39.34 C295.19 17.07, 311.21 -3.01, 334.45 -26.31 M274.94 51.97 C299.86 20.43, 329.65 -9.97, 348.76 -34.07 M270.10 52.94 C294.54 27.06, 315.61 0.21, 347.36 -38.16 M262.41 62.03 C292.26 34.02, 321.39 -1.40, 364.16 -49.64 M263.39 66.09 C295.73 31.80, 322.86 -2.22, 361.20 -45.59 M258.02 74.24 C290.91 43.40, 323.33 11.12, 375.41 -57.30 M259.11 77.85 C300.10 28.45, 342.34 -16.46, 371.82 -52.49 M253.27 86.37 C285.46 48.55, 321.20 17.21, 378.88 -57.56 M257.07 86.82 C303.44 38.60, 349.48 -13.41, 378.81 -54.33 M250.24 96.63 C302.45 36.21, 352.42 -23.53, 387.36 -57.29 M252.25 95.56 C300.13 39.16, 353.30 -19.57, 387.58 -57.01 M253.73 108.93 C298.76 57.46, 339.54 8.03, 396.19 -62.67 M249.44 105.19 C304.00 45.94, 359.88 -19.09, 395.19 -61.37 M249.57 115.66 C293.23 58.01, 339.76 9.63, 400.56 -58.51 M249.05 114.26 C305.01 44.21, 366.72 -25.13, 400.25 -60.09 M242.80 125.27 C290.91 73.66, 327.65 30.31, 406.61 -64.41 M244.03 124.61 C307.93 50.96, 371.42 -20.79, 408.97 -63.70 M240.59 136.89 C298.68 73.80, 352.73 11.17, 415.87 -67.90 M240.90 133.64 C285.88 90.01, 325.51 43.54, 416.94 -65.02 M239.17 143.77 C300.41 73.95, 360.60 5.78, 420.14 -64.74 M242.11 142.28 C296.99 77.17, 355.41 8.37, 421.73 -65.72 M238.44 146.30 C308.79 67.08, 382.87 -15.08, 429.77 -63.53 M241.30 146.79 C275.70 104.45, 315.11 60.84, 427.62 -65.41 M243.25 151.44 C283.64 104.03, 334.65 48.12, 433.95 -65.09 M242.10 152.89 C300.30 87.21, 357.93 20.95, 433.71 -65.29 M241.88 158.22 C289.13 100.30, 344.17 44.43, 436.22 -64.90 M240.31 159.14 C316.09 74.45, 387.46 -10.24, 437.56 -67.54 M237.68 165.39 C295.26 105.52, 346.09 45.99, 441.82 -65.15 M240.64 165.18 C285.10 113.27, 329.83 60.54, 442.97 -66.05 M238.89 172.94 C286.48 115.48, 333.55 65.32, 447.44 -69.30 M240.21 171.56 C300.14 107.00, 357.12 41.70, 449.30 -67.44 M241.36 179.32 C290.58 122.89, 338.82 59.63, 451.78 -66.99 M240.56 178.43 C290.32 122.81, 340.71 64.84, 454.64 -66.60 M238.74 184.96 C291.38 122.73, 348.91 59.21, 458.22 -64.68 M239.31 184.67 C317.06 94.67, 397.06 5.74, 460.52 -65.94 M238.43 189.57 C303.05 117.21, 364.38 40.77, 466.22 -67.10 M240.74 191.58 C332.51 86.92, 421.99 -16.34, 464.75 -67.87 M238.05 198.09 C315.16 106.61, 389.11 20.08, 472.42 -64.76 M239.71 197.58 C310.94 115.25, 383.86 32.76, 470.89 -66.01 M240.84 203.53 C316.83 106.56, 396.97 15.97, 472.55 -69.28 M241.61 202.24 C311.40 122.33, 380.96 41.65, 474.08 -67.84 M242.06 205.68 C319.59 116.10, 398.57 28.03, 480.26 -65.47 M241.71 205.72 C321.43 111.89, 401.98 22.08, 480.17 -65.72 M245.04 213.53 C294.12 156.53, 344.70 95.00, 483.93 -64.96 M242.48 211.74 C304.86 136.17, 369.41 62.96, 483.59 -65.43 M246.69 215.09 C298.59 156.11, 350.42 89.03, 489.75 -61.12 M243.90 216.65 C295.96 152.94, 349.32 92.35, 488.40 -63.41 M243.35 219.79 C308.48 148.91, 372.91 73.39, 492.05 -61.73 M245.82 221.58 C328.64 124.84, 409.08 33.21, 491.74 -61.34 M247.58 224.08 C305.50 161.33, 363.87 91.40, 494.85 -61.03 M246.83 226.39 C295.50 167.68, 346.53 109.52, 496.02 -61.81 M249.05 230.90 C338.89 128.22, 431.17 21.88, 498.55 -62.22 M248.24 231.06 C333.42 139.00, 414.94 44.16, 501.55 -59.39 M247.81 234.87 C328.27 142.69, 410.33 47.49, 507.36 -59.28 M248.31 235.80 C320.44 152.45, 392.58 69.76, 504.17 -59.78 M248.68 238.71 C352.16 125.38, 453.42 6.14, 508.68 -55.87 M250.48 240.04 C325.22 155.52, 397.73 71.88, 509.14 -58.61 M253.03 244.39 C315.34 174.28, 375.33 103.74, 514.69 -55.80 M249.84 245.62 C332.91 145.76, 420.44 48.29, 514.71 -57.90 M251.27 249.51 C357.18 128.68, 463.46 10.22, 519.48 -55.74 M252.36 250.87 C327.73 166.60, 399.83 83.60, 518.17 -55.07 M252.25 255.19 C330.42 162.19, 409.73 72.94, 523.76 -55.77 M252.53 255.46 C348.22 143.83, 444.80 30.36, 521.74 -54.39 M252.27 262.18 C319.71 186.46, 380.27 114.74, 524.61 -54.28 M254.20 260.02 C348.03 153.50, 441.15 46.64, 525.68 -53.49 M256.52 265.35 C317.85 199.81, 374.60 133.28, 530.13 -52.61 M256.13 264.22 C324.36 181.25, 395.26 100.55, 530.61 -50.22 M258.40 266.99 C337.79 175.25, 420.46 83.98, 535.29 -46.92 M257.94 269.06 C321.63 190.26, 388.62 112.80, 533.27 -49.00 M259.33 272.66 C348.21 173.55, 436.55 71.87, 534.88 -48.08 M259.69 271.95 C320.54 194.61, 386.54 118.36, 537.49 -47.19 M261.05 276.14 C365.58 151.58, 473.55 28.48, 542.20 -44.51 M261.49 276.91 C318.91 205.93, 381.12 135.13, 539.52 -43.50 M262.71 281.12 C347.30 181.71, 434.60 78.90, 541.88 -43.78 M261.67 281.48 C348.72 177.61, 438.90 74.92, 543.50 -40.95 M264.20 284.25 C338.85 203.27, 411.82 118.97, 546.60 -39.56 M264.19 285.23 C333.21 199.65, 406.17 116.21, 547.83 -40.74 M263.72 289.71 C360.36 181.50, 452.40 74.34, 549.89 -39.64 M265.02 290.39 C376.58 164.10, 483.93 38.79, 549.68 -37.91 M267.14 293.76 C349.24 196.96, 434.37 100.20, 554.05 -36.64 M266.12 295.23 C327.83 220.99, 390.48 150.33, 553.50 -34.63 M266.66 299.35 C355.51 197.74, 441.80 99.29, 555.86 -34.83 M269.24 297.60 C330.26 227.96, 390.77 158.45, 557.72 -33.78 M271.62 301.68 C337.28 219.33, 407.44 140.49, 561.18 -30.51 M270.32 303.32 C355.99 206.67, 440.86 107.92, 560.05 -32.72 M271.70 306.23 C373.72 185.73, 480.12 65.20, 563.95 -29.83 M272.50 306.75 C370.57 194.10, 469.81 78.84, 564.17 -28.32 M275.01 312.16 C334.28 240.67, 396.95 168.86, 567.11 -27.63 M273.49 312.19 C361.46 206.58, 453.45 100.82, 568.63 -26.84 M274.35 316.23 C389.73 186.25, 503.34 51.65, 572.54 -23.21 M275.53 314.66 C391.11 178.46, 509.81 42.47, 570.03 -24.93 M278.71 318.36 C341.01 247.26, 399.46 179.66, 572.88 -23.89 M277.96 318.77 C394.89 185.92, 511.44 51.53, 573.75 -21.77 M280.15 321.84 C370.52 216.68, 457.37 115.65, 577.09 -19.78 M280.46 322.02 C351.98 242.61, 421.65 162.25, 576.90 -19.55 M282.01 326.81 C350.55 249.63, 421.93 168.14, 578.84 -18.13 M282.86 325.99 C378.07 217.15, 472.20 111.07, 579.48 -16.84 M284.77 328.35 C380.65 217.20, 478.70 104.56, 583.06 -14.94 M285.53 327.55 C366.84 235.61, 449.98 140.86, 581.55 -12.62 M287.35 330.46 C392.50 209.28, 501.23 86.21, 584.49 -10.23 M286.48 331.36 C385.62 217.23, 485.20 102.23, 585.96 -10.79 M289.66 333.52 C382.42 232.08, 469.49 130.28, 588.84 -7.45 M289.56 335.04 C362.38 247.94, 436.01 163.41, 588.87 -8.87 M293.60 336.11 C372.24 251.73, 446.32 165.52, 592.47 -5.92 M292.16 338.42 C395.32 221.42, 498.33 101.68, 592.04 -5.19 M295.28 341.22 C406.46 208.55, 521.35 79.66, 592.74 -0.57 M295.88 342.20 C379.92 245.30, 462.43 150.75, 593.12 -2.51 M298.40 344.57 C370.32 262.54, 440.70 183.02, 596.39 2.06 M297.69 343.74 C410.51 212.10, 523.83 82.10, 596.96 0.95 M299.91 346.48 C414.46 211.93, 529.73 75.33, 597.84 2.89 M299.67 347.38 C370.65 266.59, 440.78 187.04, 599.31 2.37 M303.44 352.79 C377.92 262.19, 451.50 174.76, 601.76 4.28 M301.30 350.84 C391.02 249.56, 476.95 149.22, 602.96 5.28 M303.32 354.76 C369.18 285.93, 430.33 216.99, 604.33 9.61 M305.01 354.31 C407.92 239.35, 509.85 121.31, 604.12 9.84 M306.82 358.44 C375.75 275.56, 449.10 195.08, 606.27 11.90 M305.98 357.39 C377.72 282.09, 445.31 203.85, 608.33 11.96 M307.55 360.59 C373.99 290.74, 439.62 217.13, 609.16 14.99 M308.65 361.57 C388.73 268.72, 471.94 173.34, 610.54 15.02 M310.62 365.35 C371.80 290.61, 437.52 216.73, 611.94 19.82 M311.47 364.95 C423.94 234.02, 539.72 102.38, 612.17 19.01 M315.33 366.58 C429.18 230.83, 543.57 101.20, 615.24 21.47 M315.59 365.93 C378.95 292.11, 441.63 219.60, 614.49 21.68 M320.03 369.11 C415.58 262.96, 508.99 152.47, 617.75 27.53 M318.36 368.72 C415.66 258.26, 512.28 147.27, 617.51 25.99 M321.12 372.51 C423.16 261.76, 518.39 147.85, 620.09 28.91 M322.80 371.20 C416.53 265.28, 507.56 161.76, 619.23 28.86 M326.40 374.11 C390.68 296.85, 458.10 217.37, 618.98 31.87 M325.71 373.33 C394.35 293.29, 465.28 212.02, 621.45 32.84 M329.70 374.55 C426.65 259.43, 526.66 148.13, 622.14 36.25 M328.72 375.78 C415.03 275.64, 502.43 174.64, 623.64 37.27 M332.25 378.76 C412.08 285.68, 490.88 196.59, 626.62 41.97 M332.38 377.44 C437.58 256.90, 544.89 134.61, 625.20 41.21 M335.73 381.03 C433.05 270.91, 529.31 156.96, 627.89 43.81 M334.29 381.55 C405.67 299.56, 475.15 220.99, 626.40 44.30 M337.80 383.66 C410.12 306.02, 478.17 223.03, 627.06 49.26 M337.90 383.28 C445.09 260.21, 551.33 135.70, 628.62 49.30 M339.47 385.11 C429.56 279.65, 516.37 176.48, 631.59 53.13 M341.95 386.30 C407.11 310.35, 473.81 233.32, 631.87 51.99 M345.82 389.87 C449.74 266.45, 555.11 145.44, 633.40 56.33 M344.62 387.62 C436.21 280.26, 530.08 173.09, 632.84 55.56 M348.47 388.91 C446.63 269.36, 548.94 154.33, 636.24 60.61 M348.46 390.96 C459.92 265.24, 569.40 140.62, 634.92 58.45 M349.27 391.17 C455.59 271.73, 560.33 152.92, 635.40 63.60 M350.78 392.33 C437.47 290.34, 524.94 190.93, 638.03 63.72 M355.44 393.50 C464.71 269.98, 579.01 140.17, 638.38 69.27 M354.76 395.29 C439.70 296.44, 526.56 195.88, 638.45 67.04 M356.69 398.13 C424.81 317.19, 497.80 236.80, 640.10 74.39 M358.74 395.80 C440.63 306.15, 522.79 213.60, 640.51 72.26 M363.22 400.21 C450.07 298.16, 537.83 196.29, 641.36 75.33 M361.33 399.29 C461.55 283.15, 563.04 166.41, 641.17 76.58 M366.93 401.85 C426.95 330.78, 488.18 265.54, 641.60 80.62 M364.88 399.77 C450.59 301.65, 534.64 202.77, 642.75 80.83 M368.69 400.79 C457.06 301.12, 542.71 201.09, 643.21 87.41 M370.21 401.57 C471.45 279.02, 575.89 158.68, 645.27 85.65 M375.10 403.30 C465.21 297.26, 557.10 192.82, 644.59 88.70 M372.97 404.63 C434.81 330.70, 500.42 257.88, 645.23 89.61 M375.64 403.74 C468.79 301.49, 559.79 198.28, 647.28 95.24 M378.39 405.83 C449.91 323.08, 522.57 240.85, 646.45 96.62 M379.80 408.34 C483.79 287.94, 586.13 172.92, 647.95 97.89 M381.14 407.00 C463.58 310.43, 547.93 213.47, 647.09 100.67 M383.64 410.20 C470.36 310.70, 557.51 208.63, 647.19 106.15 M385.04 408.15 C483.26 293.61, 584.16 177.12, 648.82 105.51 M387.65 409.87 C456.36 328.97, 526.85 248.94, 649.80 108.16 M387.53 411.40 C479.07 299.43, 575.19 191.48, 650.04 108.34 M391.68 411.74 C453.70 341.55, 514.50 272.77, 652.35 114.11 M391.83 412.62 C469.10 322.95, 546.91 232.61, 651.77 114.07 M396.71 415.78 C483.12 320.35, 564.73 222.73, 651.98 118.35 M395.55 412.87 C456.82 345.90, 515.98 279.71, 653.30 118.03 M400.10 416.21 C485.12 320.05, 564.46 228.29, 656.92 124.93 M400.39 415.16 C501.03 300.72, 599.37 185.81, 655.24 122.99 M404.34 417.54 C470.04 342.72, 534.35 267.15, 658.08 128.41 M403.92 417.93 C492.22 314.84, 581.69 211.52, 654.89 127.15 M406.96 417.33 C463.47 358.87, 515.98 299.05, 657.08 134.14 M407.83 418.38 C464.53 347.87, 521.70 281.44, 656.41 133.54 M412.69 420.08 C466.25 356.13, 520.08 297.75, 657.28 138.30 M414.22 417.12 C481.10 340.60, 548.40 263.58, 657.09 138.88 M418.00 420.61 C483.82 347.71, 544.75 273.27, 659.29 144.92 M419.05 417.38 C474.22 355.54, 532.42 288.11, 656.24 144.60 M424.57 416.89 C468.74 367.39, 514.54 312.39, 656.39 148.73 M422.99 418.59 C498.64 332.56, 575.10 243.21, 657.79 150.92 M427.96 421.16 C514.53 319.94, 599.03 223.20, 656.18 158.90 M429.17 419.38 C504.18 333.78, 576.13 251.28, 657.45 156.08 M434.05 421.63 C524.08 320.58, 609.14 217.24, 657.95 159.78 M433.96 421.42 C517.35 324.46, 601.35 232.24, 658.37 161.60 M435.45 420.49 C517.13 331.87, 591.47 246.65, 656.96 169.40 M437.24 419.73 C486.71 361.90, 540.01 300.50, 657.16 167.03 M443.64 420.25 C507.07 344.19, 575.61 268.09, 656.51 173.89 M441.74 420.27 C512.91 341.77, 582.96 264.57, 658.67 174.59 M449.32 422.85 C523.29 333.60, 594.32 253.25, 660.88 178.55 M448.27 420.34 C511.55 348.17, 573.87 277.35, 658.98 180.39 M454.33 423.51 C520.90 341.64, 589.68 265.70, 656.88 183.01 M454.43 420.67 C510.82 354.50, 569.31 286.49, 659.07 185.49 M461.16 420.59 C530.23 334.14, 604.59 254.45, 656.74 189.67 M460.00 422.56 C532.93 330.05, 610.87 242.28, 657.38 193.03 M463.29 420.75 C518.65 363.50, 566.36 308.04, 655.17 199.16 M464.08 421.32 C533.08 341.11, 606.35 259.96, 656.03 199.08 M468.91 421.38 C527.98 351.14, 580.23 286.23, 658.22 206.63 M471.25 420.34 C521.99 358.12, 578.13 295.30, 656.07 205.66 M475.21 420.71 C530.99 360.70, 583.96 300.13, 656.85 213.11 M475.52 417.35 C544.42 340.74, 612.86 263.46, 655.72 212.24 M485.20 417.42 C526.06 369.97, 571.15 315.90, 652.33 221.77 M481.79 418.82 C527.92 367.00, 572.16 316.28, 655.42 218.85 M488.70 417.52 C526.20 374.85, 558.87 336.06, 656.02 228.69 M489.42 416.32 C548.39 347.43, 611.63 277.37, 654.97 226.16 M494.69 418.24 C535.94 375.59, 572.98 331.39, 651.43 235.52 M493.54 416.32 C551.30 352.88, 603.42 289.43, 653.80 234.38 M500.56 418.46 C540.80 366.92, 591.46 309.78, 652.98 241.19 M500.25 414.21 C555.08 350.99, 610.80 285.06, 652.37 241.61 M507.20 416.75 C544.90 372.52, 582.99 332.58, 653.80 246.05 M506.57 412.95 C547.29 368.02, 586.89 321.49, 653.08 249.01 M516.46 410.79 C565.68 352.36, 615.44 295.30, 643.58 256.87 M515.54 408.35 C554.02 365.20, 592.22 318.57, 644.89 261.27 M529.24 407.32 C570.27 360.61, 607.68 309.44, 644.16 268.64 M526.95 402.77 C559.40 367.02, 594.64 327.85, 641.13 271.11 M537.83 397.25 C570.00 359.91, 602.67 321.88, 635.79 286.20 M537.27 400.41 C576.25 355.34, 611.86 309.71, 637.40 283.42 M549.29 392.32 C573.80 360.18, 600.54 334.44, 634.87 292.21 M546.13 391.72 C568.45 369.00, 592.90 339.89, 633.03 294.68 M560.06 388.82 C581.82 364.70, 599.44 335.25, 619.46 314.85 M554.96 388.57 C576.67 362.64, 600.54 336.76, 621.79 314.00 M577.41 365.58 C587.45 358.40, 596.71 342.62, 607.93 335.95 M578.51 365.59 C589.53 355.59, 596.73 346.53, 608.48 336.74" fill="#faf7ef" stroke="none"/><path d="M524.23 -54.40 C540.80 -51.22, 555.91 -36.99, 570.19 -25.65 C584.47 -14.31, 598.67 -1.39, 609.91 13.63 C621.16 28.64, 630.14 46.20, 637.65 64.44 C645.15 82.68, 651.44 103.04, 654.95 123.07 C658.46 143.10, 659.25 163.87, 658.73 184.63 C658.20 205.40, 656.83 228.09, 651.80 247.65 C646.77 267.22, 637.54 284.90, 628.56 302.03 C619.57 319.16, 609.97 336.17, 597.88 350.44 C585.79 364.71, 570.91 377.11, 556.01 387.64 C541.10 398.17, 525.53 407.93, 508.46 413.62 C491.39 419.31, 471.21 421.25, 453.59 421.78 C435.96 422.31, 419.28 421.30, 402.70 416.80 C386.12 412.29, 369.72 403.97, 354.10 394.76 C338.49 385.55, 322.53 375.43, 309.02 361.54 C295.50 347.65, 282.29 328.57, 273.01 311.42 C263.73 294.27, 258.89 277.89, 253.31 258.62 C247.74 239.35, 241.59 216.22, 239.57 195.80 C237.54 175.38, 237.95 155.87, 241.17 136.10 C244.40 116.34, 251.61 95.97, 258.92 77.21 C266.22 58.45, 274.21 39.87, 285.03 23.55 C295.84 7.22, 309.73 -8.05, 323.79 -20.75 C337.85 -33.46, 353.64 -44.98, 369.37 -52.66 C385.11 -60.34, 401.21 -64.30, 418.21 -66.83 C435.20 -69.37, 443.06 -77.15, 471.32 -67.89 C499.59 -58.63, 561.69 -31.95, 587.79 -11.26 C613.89 9.43, 630.16 53.19, 627.95 56.27 M402.18 -61.32 C417.77 -69.83, 437.73 -71.23, 455.68 -70.88 C473.63 -70.52, 493.02 -64.43, 509.88 -59.19 C526.74 -53.95, 541.90 -49.72, 556.82 -39.46 C571.74 -29.20, 587.37 -12.80, 599.40 2.38 C611.42 17.56, 620.59 34.77, 628.97 51.62 C637.35 68.47, 644.35 84.68, 649.68 103.46 C655.01 122.25, 659.79 143.63, 660.93 164.35 C662.07 185.08, 660.44 207.00, 656.51 227.82 C652.57 248.64, 645.77 271.37, 637.30 289.25 C628.83 307.13, 617.44 319.95, 605.68 335.10 C593.93 350.24, 580.99 367.98, 566.77 380.12 C552.55 392.26, 536.69 401.57, 520.38 407.92 C504.07 414.26, 486.01 416.23, 468.90 418.19 C451.79 420.16, 435.02 422.60, 417.70 419.72 C400.39 416.84, 380.62 408.85, 365.01 400.93 C349.39 393.01, 337.89 384.64, 324.03 372.21 C310.17 359.78, 292.68 342.57, 281.84 326.34 C271.00 310.10, 266.00 292.81, 259.00 274.81 C251.99 256.81, 242.46 238.27, 239.80 218.31 C237.15 198.36, 241.12 176.31, 243.08 155.09 C245.03 133.87, 246.40 110.25, 251.54 90.99 C256.69 71.73, 264.25 56.26, 273.94 39.53 C283.63 22.79, 296.56 4.51, 309.69 -9.43 C322.83 -23.38, 336.78 -35.03, 352.73 -44.14 C368.69 -53.25, 396.40 -61.62, 405.40 -64.09 C414.39 -66.57, 406.42 -62.84, 406.69 -59.00" fill="none" stroke="#202020" stroke-width="2" stroke-linecap="round" stroke-linejoin="round"/><path d="M376.55 96.58 C385.02 87.49, 398.89 81.94, 411.82 78.00 C424.76 74.05, 440.46 72.21, 454.16 72.91 C467.86 73.61, 482.03 77.25, 494.03 82.19 C506.03 87.13, 516.36 93.99, 526.15 102.54 C535.94 111.09, 547.11 122.09, 552.80 133.49 C558.48 144.88, 559.56 158.55, 560.27 170.91 C560.98 183.27, 560.72 195.88, 557.06 207.65 C553.41 219.42, 546.82 231.70, 538.32 241.54 C529.82 251.38, 518.05 260.56, 506.05 266.69 C494.04 272.81, 479.35 276.68, 466.28 278.28 C453.21 279.88, 440.64 279.01, 427.61 276.30 C414.58 273.58, 399.26 268.58, 388.09 261.98 C376.92 255.37, 368.28 247.00, 360.58 236.68 C352.88 226.37, 345.24 212.65, 341.91 200.08 C338.58 187.51, 339.24 173.25, 340.61 161.27 C341.99 149.28, 343.03 139.42, 350.15 128.19 C357.27 116.96, 376.44 99.82, 383.33 93.89 C390.22 87.96, 390.40 91.57, 391.46 92.59 M370.57 104.36 C378.50 94.69, 390.53 88.68, 402.87 83.35 C415.21 78.01, 431.25 73.19, 444.61 72.36 C457.98 71.54, 470.84 74.69, 483.08 78.40 C495.32 82.11, 507.15 86.86, 518.04 94.65 C528.93 102.43, 541.82 114.32, 548.43 125.10 C555.03 135.89, 556.02 147.12, 557.67 159.36 C559.32 171.60, 560.83 186.30, 558.32 198.56 C555.82 210.82, 549.63 222.82, 542.64 232.90 C535.65 242.97, 527.35 252.07, 516.37 259.02 C505.39 265.97, 490.15 271.74, 476.76 274.60 C463.37 277.46, 449.27 277.70, 436.04 276.19 C422.82 274.68, 408.93 271.24, 397.39 265.54 C385.85 259.83, 375.77 251.35, 366.81 241.95 C357.84 232.56, 348.19 220.30, 343.60 209.18 C339.02 198.07, 338.33 186.99, 339.32 175.27 C340.31 163.55, 344.53 150.97, 349.54 138.86 C354.54 126.74, 365.97 107.98, 369.34 102.57 C372.70 97.17, 368.74 105.24, 369.74 106.41" fill="#faf7ef" stroke="none"/><path d="M509.18 87.70 C520.58 92.65, 529.62 103.95, 537.75 114.04 C545.87 124.13, 553.79 136.59, 557.91 148.24 C562.04 159.89, 564.03 171.55, 562.48 183.91 C560.94 196.27, 554.79 211.02, 548.64 222.38 C542.48 233.75, 535.01 243.89, 525.55 252.09 C516.08 260.30, 504.58 266.83, 491.84 271.61 C479.09 276.38, 462.91 280.59, 449.09 280.76 C435.27 280.93, 421.25 277.05, 408.92 272.64 C396.58 268.24, 384.83 262.58, 375.10 254.34 C365.36 246.10, 356.89 234.69, 350.51 223.22 C344.13 211.75, 338.41 198.08, 336.81 185.52 C335.20 172.95, 337.14 159.62, 340.86 147.83 C344.57 136.04, 350.63 124.86, 359.07 114.80 C367.51 104.74, 380.17 93.99, 391.49 87.46 C402.82 80.93, 413.80 77.78, 427.02 75.62 C440.24 73.46, 452.99 69.10, 470.81 74.50 C488.62 79.90, 521.12 98.61, 533.91 108.03 C546.69 117.46, 549.40 130.32, 547.52 131.06 M409.22 78.79 C420.72 73.26, 435.44 72.81, 449.56 73.50 C463.68 74.19, 481.10 78.74, 493.92 82.92 C506.74 87.10, 516.69 90.24, 526.47 98.59 C536.24 106.94, 546.83 121.75, 552.56 133.02 C558.29 144.28, 560.09 154.48, 560.86 166.17 C561.63 177.86, 561.07 190.68, 557.18 203.14 C553.29 215.59, 545.85 230.27, 537.54 240.90 C529.23 251.52, 518.28 260.77, 507.30 266.91 C496.32 273.05, 484.59 276.10, 471.66 277.73 C458.74 279.37, 443.41 279.22, 429.76 276.73 C416.11 274.23, 400.96 268.92, 389.74 262.77 C378.51 256.61, 370.36 249.64, 362.41 239.80 C354.47 229.96, 346.49 216.23, 342.08 203.74 C337.68 191.25, 335.07 177.05, 335.98 164.86 C336.88 152.67, 341.25 141.09, 347.54 130.58 C353.82 120.07, 363.38 110.43, 373.69 101.78 C384.00 93.13, 403.38 81.81, 409.39 78.67 C415.40 75.54, 408.95 81.24, 409.76 82.96" fill="none" stroke="#202020" stroke-width="2" stroke-linecap="round" stroke-linejoin="round"/><path d="M654.90 -27.35 C676.48 -46.18, 688.04 -61.02, 734.75 -108.65 M655.28 -28.74 C674.61 -50.02, 693.10 -66.18, 735.28 -110.87" fill="none" stroke="#202020" stroke-width="2" stroke-linecap="round" stroke-linejoin="round"/><path d="M656.84 382.78 C675.14 403.21, 695.90 417.36, 735.24 465.29 M657.79 381.83 C673.87 400.50, 690.30 414.33, 736.97 463.13" fill="none" stroke="#202020" stroke-width="2" stroke-linecap="round" stroke-linejoin="round"/><path d="M242.45 378.99 C214.11 407.62, 189.40 433.89, 164.85 460.61 M243.17 384.06 C224.59 400.49, 204.16 422.16, 164.42 463.59" fill="none" stroke="#202020" stroke-width="2" stroke-linecap="round" stroke-linejoin="round"/><path d="M244.36 -33.03 C227.43 -50.42, 209.22 -64.76, 165.88 -110.63 M245.40 -28.51 C225.54 -50.25, 205.64 -68.17, 164.89 -109.26" fill="none" stroke="#202020" stroke-width="2" stroke-linecap="round" stroke-linejoin="round"/></svg>