<svg xmlns="http://www.w3.org/2000/svg" viewBox="0 0 900 320" width="900" height="320"><path d="M451.50 15.12 C579.64 60.42, 709.89 104.32, 884.33 158.41 M450.29 15.72 C598.69 67.31, 747.19 117.00, 884.72 159.25 M884.80 158.60 C772.62 191.83, 660.85 229.27, 450.81 304.35 M883.80 160.11 C785.68 197.46, 688.06 228.35, 450.65 303.83 M451.74 302.21 C357.02 270.07, 265.03 239.23, 14.97 159.62 M449.53 304.76 C328.63 263.01, 207.32 223.68, 16.75 159.94 M14.78 159.15 C171.52 110.79, 323.97 63.45, 449.43 16.33 M15.79 160.30 C118.08 125.84, 219.35 92.83, 449.86 16.03" fill="none" stroke="#202020" stroke-width="2" stroke-linecap="round" stroke-linejoin="round"/><path d="M25.18 162.00 C33.37 161.15, 42.26 159.70, 50.49 156.57 M25.98 161.41 C30.94 158.67, 39.40 162.06, 51.94 158.34" fill="none" stroke="#202020" stroke-width="2" stroke-linecap="round" stroke-linejoin="round"/><path d="M849.49 158.75 C859.76 158.53, 858.88 159.08, 872.07 159.94 M848.23 160.37 C858.21 158.85, 867.04 161.19, 875.20 160.85" fill="none" stroke="#202020" stroke-width="2" stroke-linecap="round" stroke-linejoin="round"/><path d="M45.63 156.34 C44.88 156.51, 49.37 158.31, 50.23 158.33 M44.26 155.27 C45.42 156.51, 49.13 158.48, 50.66 159.70 M52.46 160.60 C47.62 161.67, 48.60 161.32, 44.36 165.76 M50.62 160.16 C48.99 161.36, 47.35 163.01, 43.86 164.21" fill="none" stroke="#202020" stroke-width="2" stroke-linecap="round" stroke-linejoin="round"/><path d="M855.79 154.75 C852.40 158.08, 849.75 159.68, 848.99 158.89 M856.03 154.27 C853.10 156.95, 851.44 158.12, 848.60 160.01 M850.58 160.38 C850.79 162.96, 851.44 163.79, 856.56 163.87 M849.45 160.79 C851.92 161.34, 852.91 162.36, 855.15 164.63" fill="none" stroke="#202020" stroke-width="2" stroke-linecap="round" stroke-linejoin="round"/></svg>