<svg xmlns="http://www.w3.org/2000/svg" viewBox="0 0 436 310" width="436" height="310"><path d="M21.86 251.52 L58.99 255.88 L57.63 285.01 L18.59 286.31" fill="#faf7ef" stroke="none"/><path d="M22.32 250.27 C31.42 251.09, 41.10 250.64, 51.46 252.78 M18.77 253.20 C35.22 254.49, 47.86 252.70, 54.48 255.98 M54.12 256.13 C55.37 260.95, 57.77 275.33, 54.47 283.46 M53.67 255.83 C54.85 264.80, 54.92 276.43, 56.43 285.05 M52.88 284.87 C41.90 282.20, 37.05 281.87, 18.98 280.22 M56.68 283.67 C45.96 281.82, 34.92 281.75, 19.18 282.71 M23.82 280.36 C18.78 274.26, 18.89 260.50, 17.00 250.93 M21.70 283.42 C17.99 272.51, 19.59 261.74, 18.19 255.85" fill="none" stroke="#202020" stroke-width="3" stroke-linecap="round" stroke-linejoin="round"/><path d="M57.88 251.58 L92.06 256.11 L91.57 284.11 L61.58 287.49" fill="#faf7ef" stroke="none"/><path d="M58.12 251.04 C72.93 250.79, 85.89 250.69, 95.74 252.02 M59.05 255.73 C71.41 252.97, 81.62 255.39, 94.12 253.99 M91.94 254.32 C97.48 259.41, 98.26 269.28, 96.26 280.61 M95.73 252.51 C93.23 262.97, 94.24 274.44, 93.86 282.82 M97.21 286.43 C78.23 286.10, 71.68 284.99, 62.62 280.90 M95.10 282.09 C83.41 285.36, 70.24 282.82, 59.77 285.53 M63.22 283.39 C62.36 276.24, 63.64 263.76, 62.01 253.39 M58.51 282.03 C60.41 278.84, 59.74 269.03, 60.63 252.39" fill="none" stroke="#202020" stroke-width="3" stroke-linecap="round" stroke-linejoin="round"/><path d="M99.13 257.28 L131.97 254.67 L136.21 286.93 L102.47 286.93" fill="#faf7ef" stroke="none"/><path d="M101.68 254.85 C110.20 256.94, 117.81 257.97, 134.52 253.51 M99.66 254.79 C111.67 253.89, 121.31 254.26, 133.04 252.01 M138.79 250.31 C133.99 257.52, 138.50 267.05, 138.31 281.29 M133.43 254.22 C133.47 260.05, 134.44 268.10, 135.14 285.35 M136.02 285.68 C121.12 286.73, 111.50 283.85, 96.54 283.95 M134.51 282.92 C124.97 285.58, 113.57 283.81, 101.77 285.89 M96.22 282.12 C103.04 270.59, 96.35 260.77, 103.97 250.12 M100.41 285.30 C99.59 275.71, 98.20 267.22, 98.28 253.14" fill="none" stroke="#202020" stroke-width="3" stroke-linecap="round" stroke-linejoin="round"/><path d="M37.71 216.03 L73.33 219.89 L76.24 251.74 L43.59 252.15" fill="#faf7ef" stroke="none"/><path d="M41.16 220.20 C51.94 219.37, 61.39 218.14, 72.71 216.43 M38.55 220.43 C49.35 218.61, 58.25 218.82, 73.95 218.56 M76.43 219.63 C77.72 228.23, 74.21 230.01, 72.36 247.61 M76.46 219.53 C74.79 226.99, 73.71 239.20, 74.38 248.61 M71.48 249.09 C64.71 246.43, 61.13 252.17, 40.15 252.52 M75.75 249.71 C69.08 251.62, 60.85 249.90, 40.38 247.90 M36.09 250.41 C44.13 239.47, 43.60 222.57, 40.45 221.59 M40.38 248.30 C38.70 243.23, 41.34 234.50, 41.98 218.48" fill="none" stroke="#202020" stroke-width="3" stroke-linecap="round" stroke-linejoin="round"/><path d="M83.60 218.26 L118.70 218.62 L113.76 250.48 L80.77 251.03" fill="#faf7ef" stroke="none"/><path d="M78.72 219.93 C89.04 221.93, 98.28 222.96, 118.16 220.51 M80.03 217.44 C92.48 218.37, 108.41 217.89, 116.48 217.78 M116.95 219.79 C115.05 226.58, 112.15 240.93, 112.03 248.71 M113.21 217.50 C113.93 225.01, 114.87 234.56, 116.16 247.20 M117.46 248.50 C109.78 247.75, 97.45 248.25, 81.27 246.78 M116.48 248.28 C106.74 246.95, 95.60 248.30, 80.50 248.22 M77.53 251.65 C83.58 240.65, 78.58 226.79, 78.24 220.15 M79.39 248.05 C78.28 240.84, 78.12 232.53, 80.64 218.37" fill="none" stroke="#202020" stroke-width="3" stroke-linecap="round" stroke-linejoin="round"/><path d="M59.65 183.93 L94.26 180.04 L91.55 211.63 L60.91 215.93" fill="#faf7ef" stroke="none"/><path d="M60.28 186.33 C65.70 183.69, 79.45 184.55, 94.11 187.26 M60.11 182.57 C68.75 185.87, 73.83 185.92, 96.87 185.29 M96.51 187.38 C96.39 197.50, 93.67 202.51, 98.24 216.10 M95.78 185.41 C93.05 193.52, 96.82 204.53, 95.99 215.58 M96.48 214.75 C83.90 217.55, 72.34 214.70, 60.41 212.82 M95.19 212.96 C83.47 214.16, 70.77 215.97, 61.47 215.61 M61.78 215.79 C62.20 202.58, 62.20 197.14, 63.57 182.46 M60.78 213.69 C60.34 202.70, 58.88 193.81, 60.79 183.37" fill="none" stroke="#202020" stroke-width="3" stroke-linecap="round" stroke-linejoin="round"/><path d="M368.06 17.70 L401.88 22.38 L408.81 47.35 L367.92 51.59" fill="#faf7ef" stroke="none"/><path d="M370.58 20.26 C382.05 21.70, 394.04 24.37, 405.70 22.29 M368.56 18.58 C383.10 20.76, 396.36 21.19, 406.45 21.58 M408.65 20.33 C404.10 28.02, 404.30 36.96, 405.40 48.23 M405.44 18.24 C403.97 30.02, 405.03 34.53, 405.08 49.05 M401.99 49.83 C400.90 54.54, 387.78 53.02, 370.11 47.20 M405.73 50.39 C392.59 48.93, 377.59 51.53, 371.02 49.48 M368.76 46.91 C372.64 36.34, 368.73 29.48, 366.39 17.31 M369.89 51.24 C369.02 42.58, 369.00 38.86, 370.51 20.60" fill="none" stroke="#202020" stroke-width="3" stroke-linecap="round" stroke-linejoin="round"/><path d="M384.82 53.03 C391.86 81.58, 393.42 101.45, 386.51 173.59 M388.74 56.61 C387.64 83.10, 388.42 109.78, 388.80 175.16" fill="none" stroke="#202020" stroke-width="3" stroke-linecap="round" stroke-linejoin="round"/></svg>