<svg xmlns="http://www.w3.org/2000/svg" viewBox="0 0 436 310" width="436" height="310"><path d="M23.19 251.91 L55.84 256.91 L56.39 281.93 L22.72 285.61" fill="#faf7ef" stroke="none"/><path d="M23.86 251.04 C30.28 255.82, 49.25 253.74, 54.52 253.41 M20.32 252.98 C29.70 254.85, 42.99 254.78, 55.81 254.56 M58.05 251.67 C51.00 261.95, 56.12 270.69, 53.51 284.16 M53.46 254.48 C56.87 266.37, 53.65 276.19, 54.59 283.81 M55.51 285.36 C47.35 280.57, 28.68 286.31, 21.85 283.60 M54.67 282.21 C45.73 284.17, 30.75 285.52, 19.59 284.02 M20.50 284.86 C22.11 275.38, 16.81 269.18, 22.41 256.19 M19.25 285.24 C19.40 276.81, 19.54 267.59, 18.43 253.01" fill="none" stroke="#202020" stroke-width="3" stroke-linecap="round" stroke-linejoin="round"/><path d="M58.10 253.72 L92.17 253.06 L97.73 282.54 L60.36 280.33" fill="#faf7ef" stroke="none"/><path d="M62.75 252.54 C72.49 251.42, 84.72 251.77, 93.24 252.53 M61.72 255.98 C68.65 255.53, 77.24 252.93, 94.91 255.71 M94.17 256.68 C98.21 264.30, 92.70 279.40, 98.10 285.53 M96.45 253.14 C93.91 261.96, 96.14 271.49, 94.60 285.45 M93.12 280.72 C88.96 281.81, 74.73 287.80, 60.19 282.37 M93.71 283.61 C82.72 283.51, 69.03 282.97, 59.57 285.24 M62.57 280.56 C60.08 276.33, 57.71 262.14, 60.32 256.76 M59.61 282.78 C59.52 277.75, 60.73 271.27, 58.88 255.76" fill="none" stroke="#202020" stroke-width="3" stroke-linecap="round" stroke-linejoin="round"/><path d="M98.63 251.69 L134.83 252.95 L134.22 280.07 L98.02 281.78" fill="#faf7ef" stroke="none"/><path d="M96.57 257.17 C111.52 251.78, 126.28 254.82, 133.48 255.36 M100.64 253.77 C109.34 255.53, 122.43 254.94, 136.86 252.74 M137.34 252.20 C137.02 264.31, 133.78 274.15, 132.84 284.79 M136.14 252.25 C133.88 266.34, 135.50 275.75, 134.75 283.37 M133.21 280.44 C121.32 284.21, 114.44 285.80, 100.47 280.32 M133.09 283.55 C127.72 284.88, 118.34 282.46, 100.99 284.59 M99.37 281.40 C100.00 278.40, 103.04 271.73, 98.93 253.31 M100.80 282.32 C98.37 274.77, 98.41 266.21, 99.31 255.24" fill="none" stroke="#202020" stroke-width="3" stroke-linecap="round" stroke-linejoin="round"/><path d="M40.08 221.77 L74.90 221.77 L74.11 246.99 L40.28 245.25" fill="#faf7ef" stroke="none"/><path d="M39.40 220.40 C52.48 217.66, 58.36 217.75, 77.74 222.65 M40.61 217.52 C51.56 218.51, 67.31 220.46, 75.34 219.85 M72.58 218.09 C71.10 229.43, 73.92 237.54, 71.81 249.49 M74.49 217.68 C73.91 226.91, 73.26 235.59, 74.42 249.60 M71.48 251.78 C68.14 249.03, 61.28 248.93, 43.70 245.94 M76.96 250.14 C62.16 249.12, 51.69 248.23, 40.75 250.97 M39.33 250.72 C41.39 242.23, 44.02 233.67, 37.17 216.11 M39.96 249.68 C40.75 240.44, 38.89 236.44, 40.99 219.92" fill="none" stroke="#202020" stroke-width="3" stroke-linecap="round" stroke-linejoin="round"/><path d="M78.94 221.48 L111.93 218.19 L113.84 248.64 L81.37 252.50" fill="#faf7ef" stroke="none"/><path d="M78.92 219.38 C94.50 216.98, 100.80 222.32, 117.76 220.44 M79.45 218.20 C89.32 217.45, 97.54 220.25, 114.22 218.82 M112.83 216.32 C117.54 227.34, 116.33 233.73, 113.53 251.47 M113.95 219.88 C115.85 225.99, 117.44 234.24, 115.58 248.72 M112.47 248.64 C100.97 248.82, 97.57 249.53, 79.82 246.03 M116.47 248.88 C101.49 249.45, 88.80 250.00, 80.40 250.10 M80.33 249.47 C76.49 243.16, 75.69 236.00, 78.31 218.98 M80.49 249.33 C79.31 237.57, 79.91 224.26, 80.76 220.10" fill="none" stroke="#202020" stroke-width="3" stroke-linecap="round" stroke-linejoin="round"/><path d="M56.58 186.62 L98.62 182.67 L93.29 213.81 L60.34 211.39" fill="#faf7ef" stroke="none"/><path d="M58.51 184.91 C70.17 187.97, 78.97 184.70, 95.28 183.90 M58.74 186.00 C66.01 183.07, 73.86 184.59, 96.34 182.10 M94.97 186.00 C96.51 193.06, 98.56 204.31, 93.62 217.53 M95.49 182.80 C94.10 195.49, 94.33 204.36, 96.81 214.88 M92.16 214.41 C84.19 214.56, 77.12 215.39, 62.22 212.11 M95.62 213.41 C83.98 214.95, 73.64 213.62, 59.45 214.80 M57.81 215.67 C58.91 208.62, 63.56 197.56, 57.24 183.79 M60.90 213.27 C59.83 203.54, 61.04 189.61, 60.22 182.34" fill="none" stroke="#202020" stroke-width="3" stroke-linecap="round" stroke-linejoin="round"/><path d="M370.45 21.59 L406.41 19.62 L401.20 46.82 L373.44 51.91" fill="#faf7ef" stroke="none"/><path d="M368.31 19.85 C383.58 22.81, 391.58 22.40, 403.45 18.00 M368.41 18.42 C379.54 18.47, 385.31 20.54, 403.39 20.22 M402.92 17.63 C402.89 28.26, 404.42 39.77, 401.99 46.32 M406.86 18.11 C404.32 31.91, 404.87 42.49, 403.79 50.69 M405.59 53.39 C395.32 48.84, 389.48 49.67, 372.69 50.70 M405.09 51.79 C390.06 49.72, 379.23 49.50, 368.90 48.85 M370.61 48.31 C369.11 37.44, 371.32 28.17, 373.50 20.47 M369.22 50.61 C370.68 42.13, 372.37 37.38, 369.08 19.52" fill="none" stroke="#202020" stroke-width="3" stroke-linecap="round" stroke-linejoin="round"/><path d="M386.37 52.28 C386.40 86.55, 389.17 121.71, 386.70 177.30 M389.98 54.33 C389.87 85.76, 389.91 117.46, 389.95 172.84" fill="none" stroke="#202020" stroke-width="3" stroke-linecap="round" stroke-linejoin="round"/></svg>