<svg xmlns="http://www.w3.org/2000/svg" viewBox="0 0 436 310" width="436" height="310"><path d="M20.83 13.70 C17.65 117.74, 19.79 218.84, 21.67 277.79 M19.23 14.65 C21.45 119.26, 21.33 221.87, 19.77 278.16" fill="none" stroke="#202020" stroke-width="3" stroke-linecap="round" stroke-linejoin="round"/><path d="M98.42 12.76 C97.56 82.69, 98.22 154.06, 92.98 280.07 M97.10 15.12 C96.42 93.55, 96.48 169.89, 94.70 278.88" fill="none" stroke="#202020" stroke-width="3" stroke-linecap="round" stroke-linejoin="round"/><path d="M173.83 13.09 C170.02 117.74, 171.30 222.33, 170.08 281.06 M171.47 16.24 C168.94 72.85, 170.61 132.49, 171.84 277.89" fill="none" stroke="#202020" stroke-width="3" stroke-linecap="round" stroke-linejoin="round"/><path d="M247.58 17.27 C245.75 121.42, 245.25 225.65, 249.72 278.75 M249.54 15.34 C246.49 94.32, 244.64 176.36, 247.52 280.23" fill="none" stroke="#202020" stroke-width="3" stroke-linecap="round" stroke-linejoin="round"/><path d="M326.94 11.88 C325.95 88.99, 323.21 159.49, 326.85 281.11 M325.11 15.63 C320.61 103.03, 321.48 191.20, 323.21 277.62" fill="none" stroke="#202020" stroke-width="3" stroke-linecap="round" stroke-linejoin="round"/><path d="M402.86 16.26 C403.45 75.92, 401.90 135.75, 396.96 277.05 M400.37 15.04 C395.58 109.62, 396.22 205.53, 399.73 278.64" fill="none" stroke="#202020" stroke-width="3" stroke-linecap="round" stroke-linejoin="round"/><path d="M18.99 14.12 C154.92 13.37, 291.74 13.68, 398.91 16.67 M19.19 15.87 C116.51 16.43, 215.64 14.61, 399.41 14.52" fill="none" stroke="#202020" stroke-width="3" stroke-linecap="round" stroke-linejoin="round"/><path d="M18.44 79.08 C166.65 75.15, 308.18 78.71, 400.25 80.79 M19.29 80.50 C147.13 84.51, 271.90 84.71, 400.91 80.63" fill="none" stroke="#202020" stroke-width="3" stroke-linecap="round" stroke-linejoin="round"/><path d="M21.00 144.64 C136.08 147.98, 250.26 149.60, 400.38 146.54 M20.45 147.83 C126.17 151.42, 233.34 152.09, 398.93 145.99" fill="none" stroke="#202020" stroke-width="3" stroke-linecap="round" stroke-linejoin="round"/><path d="M20.50 213.79 C170.35 212.32, 322.34 210.49, 399.90 214.71 M19.98 213.66 C152.01 210.26, 283.50 208.80, 399.14 214.18" fill="none" stroke="#202020" stroke-width="3" stroke-linecap="round" stroke-linejoin="round"/><path d="M20.45 277.20 C131.08 283.49, 246.80 283.41, 399.45 277.78 M20.50 280.14 C99.36 281.09, 178.78 282.28, 398.95 280.06" fill="none" stroke="#202020" stroke-width="3" stroke-linecap="round" stroke-linejoin="round"/><path d="M132.90 117.23 L213.66 115.20 L208.56 181.56 L133.01 178.32" fill="#faf7ef" stroke="none"/><path d="M136.20 112.59 C149.46 114.46, 172.21 113.28, 211.15 116.22 M135.77 115.92 C161.97 112.67, 188.07 114.04, 210.02 112.35 M213.54 115.46 C213.12 136.80, 215.01 162.43, 209.35 181.57 M209.02 115.12 C209.27 138.90, 210.08 163.88, 211.52 180.86 M207.24 176.66 C181.30 176.60, 155.18 177.67, 132.70 179.58 M210.38 180.49 C186.57 178.66, 164.71 181.46, 132.73 178.79 M137.48 182.30 C136.62 163.49, 132.38 146.73, 132.19 115.87 M135.72 181.21 C134.52 159.06, 136.75 141.29, 134.96 115.23" fill="none" stroke="#202020" stroke-width="3" stroke-linecap="round" stroke-linejoin="round"/><path d="M190.30 143.95 C209.20 147.57, 237.33 145.73, 274.30 147.49 M187.73 148.97 C210.45 145.63, 230.15 144.57, 270.80 145.03" fill="none" stroke="#202020" stroke-width="3" stroke-linecap="round" stroke-linejoin="round"/><path d="M254.96 135.49 C264.01 137.27, 261.68 137.17, 275.29 148.01 M255.75 133.16 C260.27 138.86, 267.47 140.34, 279.42 145.35 M281.57 144.73 C275.56 150.55, 267.77 154.15, 258.33 161.77 M278.04 147.41 C273.39 149.90, 263.30 153.67, 256.18 161.22" fill="none" stroke="#202020" stroke-width="3" stroke-linecap="round" stroke-linejoin="round"/></svg>