<svg xmlns="http://www.w3.org/2000/svg" viewBox="0 0 436 310" width="436" height="310"><path d="M22.43 12.03 C24.24 87.65, 21.38 164.96, 20.04 278.33 M20.35 15.45 C19.51 75.14, 18.10 137.59, 20.59 279.14" fill="none" stroke="#202020" stroke-width="3" stroke-linecap="round" stroke-linejoin="round"/><path d="M94.38 15.76 C94.89 91.45, 91.41 162.82, 98.56 281.30 M95.25 13.57 C93.73 101.54, 94.12 185.73, 97.22 279.86" fill="none" stroke="#202020" stroke-width="3" stroke-linecap="round" stroke-linejoin="round"/><path d="M169.05 13.08 C172.12 111.69, 169.62 206.10, 168.93 279.93 M173.37 15.30 C167.87 73.71, 166.51 129.88, 170.74 279.07" fill="none" stroke="#202020" stroke-width="3" stroke-linecap="round" stroke-linejoin="round"/><path d="M250.18 16.78 C249.70 72.26, 251.93 130.35, 245.36 280.95 M248.59 15.37 C248.06 118.59, 247.83 221.93, 248.64 280.05" fill="none" stroke="#202020" stroke-width="3" stroke-linecap="round" stroke-linejoin="round"/><path d="M322.02 14.68 C319.86 86.85, 323.71 164.56, 321.45 278.83 M323.11 14.87 C324.58 71.15, 326.60 127.47, 323.22 280.15" fill="none" stroke="#202020" stroke-width="3" stroke-linecap="round" stroke-linejoin="round"/><path d="M399.22 13.25 C403.44 122.07, 399.13 226.11, 402.50 281.58 M398.54 15.17 C402.20 120.04, 402.07 223.38, 399.16 277.81" fill="none" stroke="#202020" stroke-width="3" stroke-linecap="round" stroke-linejoin="round"/><path d="M22.13 14.38 C143.77 10.70, 270.93 8.70, 401.76 15.37 M20.69 14.26 C160.20 19.76, 301.43 19.73, 401.03 16.07" fill="none" stroke="#202020" stroke-width="3" stroke-linecap="round" stroke-linejoin="round"/><path d="M18.39 79.17 C161.99 81.10, 298.93 83.80, 399.55 78.98 M21.09 80.30 C143.51 84.64, 267.29 82.76, 400.24 81.32" fill="none" stroke="#202020" stroke-width="3" stroke-linecap="round" stroke-linejoin="round"/><path d="M19.10 146.08 C147.89 151.56, 280.06 151.18, 400.07 148.02 M20.77 146.36 C147.44 146.79, 275.47 145.71, 400.07 146.82" fill="none" stroke="#202020" stroke-width="3" stroke-linecap="round" stroke-linejoin="round"/><path d="M18.40 212.98 C149.12 209.22, 277.55 210.01, 402.23 213.26 M19.91 213.15 C109.59 210.29, 199.65 208.52, 399.08 213.02" fill="none" stroke="#202020" stroke-width="3" stroke-linecap="round" stroke-linejoin="round"/><path d="M22.06 279.85 C144.69 280.94, 269.22 279.05, 399.69 278.36 M20.09 280.14 C99.03 279.89, 176.58 279.56, 399.51 278.15" fill="none" stroke="#202020" stroke-width="3" stroke-linecap="round" stroke-linejoin="round"/><path d="M137.74 114.90 L211.57 114.39 L207.52 181.12 L134.56 183.26" fill="#faf7ef" stroke="none"/><path d="M132.75 111.85 C154.58 110.39, 169.38 112.98, 207.87 116.67 M132.19 115.65 C155.35 113.75, 175.55 112.93, 210.07 112.80 M208.03 117.47 C210.18 131.60, 209.25 155.70, 206.73 182.66 M210.71 113.97 C210.76 130.91, 210.15 143.27, 210.01 181.99 M207.08 182.48 C184.63 183.67, 158.03 183.82, 134.58 176.64 M209.84 180.19 C192.15 179.69, 174.66 182.54, 132.02 178.10 M135.39 180.59 C131.57 161.19, 132.43 150.62, 137.76 113.62 M132.79 179.62 C132.41 161.07, 134.30 141.65, 135.83 113.93" fill="none" stroke="#202020" stroke-width="3" stroke-linecap="round" stroke-linejoin="round"/><path d="M185.43 143.18 C208.19 146.37, 234.17 150.80, 274.27 148.82 M188.86 145.09 C218.82 144.40, 252.97 144.63, 268.87 145.29" fill="none" stroke="#202020" stroke-width="3" stroke-linecap="round" stroke-linejoin="round"/><path d="M255.45 133.26 C257.54 135.13, 268.62 136.06, 278.49 150.68 M257.36 135.08 C261.60 139.80, 269.21 141.51, 278.36 146.62 M278.29 150.83 C275.60 145.93, 265.88 155.43, 254.60 158.88 M276.59 148.99 C271.98 152.19, 262.52 156.89, 254.28 161.68" fill="none" stroke="#202020" stroke-width="3" stroke-linecap="round" stroke-linejoin="round"/></svg>