<svg xmlns="http://www.w3.org/2000/svg" viewBox="0 0 436 310" width="436" height="310"><path d="M157.71 29.04 C172.10 23.60, 192.82 26.10, 209.95 26.26 C227.08 26.43, 244.89 26.30, 260.48 30.05 C276.08 33.80, 290.23 41.07, 303.53 48.78 C316.83 56.48, 331.07 66.68, 340.30 76.29 C349.53 85.90, 354.97 95.14, 358.91 106.43 C362.86 117.73, 364.65 131.70, 363.96 144.06 C363.28 156.43, 361.27 169.14, 354.80 180.59 C348.34 192.04, 336.76 203.72, 325.16 212.77 C313.55 221.81, 299.68 229.28, 285.16 234.86 C270.64 240.43, 254.44 243.84, 238.01 246.20 C221.57 248.57, 203.49 250.42, 186.55 249.04 C169.61 247.66, 151.43 243.89, 136.39 237.91 C121.35 231.92, 107.71 222.14, 96.30 213.14 C84.88 204.14, 74.65 194.91, 67.91 183.92 C61.17 172.94, 57.51 159.38, 55.85 147.24 C54.18 135.11, 54.19 122.92, 57.94 111.11 C61.68 99.30, 69.00 86.91, 78.32 76.37 C87.65 65.83, 99.14 55.61, 113.86 47.87 C128.58 40.13, 155.95 33.28, 166.64 29.92 C177.33 26.55, 177.09 26.08, 178.00 27.68 M114.70 46.84 C125.87 38.92, 143.61 33.57, 159.96 30.26 C176.31 26.95, 195.04 26.38, 212.78 26.97 C230.52 27.55, 250.69 30.30, 266.40 33.76 C282.12 37.21, 294.78 40.04, 307.07 47.70 C319.36 55.36, 330.72 69.30, 340.14 79.71 C349.56 90.11, 359.38 98.35, 363.57 110.13 C367.77 121.90, 367.03 138.40, 365.31 150.36 C363.59 162.32, 359.95 171.16, 353.25 181.89 C346.55 192.62, 337.47 205.64, 325.09 214.72 C312.71 223.81, 294.43 231.22, 278.95 236.40 C263.48 241.57, 248.42 244.40, 232.25 245.79 C216.09 247.18, 198.71 246.88, 181.97 244.73 C165.24 242.58, 146.96 238.52, 131.84 232.91 C116.73 227.29, 102.65 219.74, 91.29 211.04 C79.93 202.34, 69.99 192.06, 63.69 180.69 C57.39 169.32, 54.17 154.76, 53.51 142.81 C52.85 130.87, 54.71 120.35, 59.73 109.02 C64.75 97.69, 74.32 84.77, 83.63 74.84 C92.93 64.91, 109.83 53.89, 115.57 49.44 C121.32 44.99, 116.75 46.81, 118.07 48.15" fill="#faf7ef" stroke="none"/><path d="M98.52 59.62 C108.43 49.88, 125.63 42.17, 140.83 36.32 C156.02 30.48, 173.27 25.93, 189.71 24.55 C206.15 23.17, 223.03 25.44, 239.44 28.04 C255.85 30.63, 273.85 34.11, 288.17 40.13 C302.48 46.16, 314.40 54.98, 325.35 64.19 C336.30 73.40, 347.22 84.48, 353.88 95.39 C360.54 106.29, 364.27 117.36, 365.33 129.61 C366.40 141.86, 364.79 156.80, 360.27 168.87 C355.75 180.93, 347.67 192.37, 338.22 201.99 C328.76 211.61, 317.04 219.26, 303.53 226.57 C290.03 233.88, 273.57 241.99, 257.19 245.85 C240.81 249.70, 222.21 250.05, 205.28 249.68 C188.35 249.32, 171.46 248.02, 155.62 243.67 C139.79 239.32, 123.39 231.68, 110.25 223.59 C97.11 215.51, 85.30 205.70, 76.78 195.17 C68.27 184.64, 62.66 172.43, 59.15 160.41 C55.65 148.40, 54.22 135.16, 55.77 123.09 C57.31 111.01, 55.24 102.05, 68.43 87.95 C81.63 73.86, 116.10 48.37, 134.95 38.53 C153.80 28.69, 179.82 27.50, 181.52 28.89 M240.73 25.76 C257.49 26.48, 276.24 32.64, 290.94 38.95 C305.63 45.26, 318.58 54.02, 328.89 63.60 C339.19 73.17, 346.62 85.27, 352.77 96.39 C358.92 107.51, 364.22 118.51, 365.77 130.32 C367.32 142.12, 366.61 155.57, 362.08 167.23 C357.55 178.88, 348.83 189.62, 338.60 200.25 C328.37 210.87, 314.95 223.70, 300.69 230.97 C286.42 238.24, 269.52 241.07, 253.01 243.86 C236.50 246.65, 218.39 248.28, 201.61 247.71 C184.82 247.14, 167.60 244.60, 152.32 240.45 C137.04 236.30, 122.57 230.71, 109.91 222.79 C97.26 214.86, 84.83 203.68, 76.39 192.90 C67.96 182.13, 63.22 169.97, 59.30 158.15 C55.37 146.33, 50.89 133.38, 52.82 121.98 C54.74 110.58, 63.40 100.17, 70.86 89.74 C78.31 79.31, 85.66 68.17, 97.54 59.39 C109.41 50.62, 126.43 42.64, 142.11 37.08 C157.79 31.52, 175.59 28.00, 191.61 26.02 C207.64 24.05, 230.45 24.70, 238.25 25.24 C246.05 25.78, 238.79 27.28, 238.39 29.25" fill="none" stroke="#202020" stroke-width="3" stroke-linecap="round" stroke-linejoin="round"/><path d="M145.98 128.54 C146.38 129.11, 145.61 128.48, 145.62 129.35 C145.64 130.21, 146.46 132.84, 146.08 133.73 C145.69 134.63, 144.30 134.03, 143.30 134.73 C142.30 135.44, 140.90 137.74, 140.08 137.96 C139.27 138.18, 138.99 137.11, 138.40 136.05 C137.82 135.00, 136.71 133.11, 136.58 131.64 C136.45 130.17, 136.90 127.96, 137.64 127.22 C138.38 126.47, 139.69 126.92, 141.00 127.15 C142.31 127.37, 144.56 128.22, 145.50 128.57 C146.43 128.92, 146.19 128.86, 146.60 129.25 M146.60 130.64 C146.49 131.59, 144.73 130.55, 144.50 131.31 C144.28 132.07, 144.82 134.80, 145.23 135.21 C145.65 135.61, 147.43 133.97, 147.00 133.77 C146.56 133.56, 144.16 133.65, 142.62 133.98 C141.09 134.32, 138.48 136.58, 137.80 135.79 C137.11 135.00, 138.23 130.35, 138.49 129.24 C138.76 128.13, 138.75 129.57, 139.39 129.13 C140.04 128.69, 141.78 126.49, 142.34 126.60 C142.90 126.71, 141.80 129.78, 142.77 129.76 C143.74 129.74, 147.66 126.68, 148.17 126.46" fill="#faf7ef" stroke="none"/><path d="M139.53 127.05 C140.44 127.05, 143.58 128.41, 144.60 128.98 C145.62 129.54, 145.38 129.92, 145.63 130.43 C145.89 130.94, 146.26 131.38, 146.13 132.04 C146.01 132.71, 145.50 133.50, 144.88 134.43 C144.27 135.36, 143.08 137.33, 142.44 137.64 C141.79 137.94, 141.88 136.59, 141.03 136.24 C140.17 135.89, 137.87 136.64, 137.33 135.53 C136.79 134.41, 137.25 131.06, 137.80 129.55 C138.36 128.04, 140.00 127.12, 140.64 126.46 C141.29 125.80, 141.76 125.34, 141.68 125.61 M136.33 127.45 C136.64 127.17, 138.92 129.23, 140.44 128.89 C141.96 128.55, 144.13 125.60, 145.42 125.38 C146.71 125.17, 148.00 126.19, 148.17 127.60 C148.35 129.02, 146.88 132.86, 146.45 133.86 C146.02 134.86, 146.35 133.45, 145.59 133.60 C144.84 133.76, 143.19 134.37, 141.91 134.81 C140.63 135.24, 138.11 136.71, 137.90 136.22 C137.70 135.72, 140.29 133.49, 140.67 131.86 C141.05 130.23, 140.49 127.14, 140.20 126.43 C139.90 125.72, 139.19 127.25, 138.91 127.63" fill="none" stroke="#202020" stroke-width="3" stroke-linecap="round" stroke-linejoin="round"/><path d="M280.95 129.46 C281.43 130.20, 281.23 132.41, 280.85 133.28 C280.47 134.16, 279.58 134.07, 278.70 134.72 C277.82 135.37, 276.25 136.82, 275.56 137.18 C274.88 137.53, 275.12 137.32, 274.61 136.85 C274.09 136.37, 272.64 135.58, 272.50 134.32 C272.35 133.05, 273.52 130.67, 273.71 129.26 C273.90 127.85, 272.83 126.42, 273.63 125.86 C274.43 125.29, 276.79 124.96, 278.51 125.89 C280.22 126.82, 283.36 129.78, 283.91 131.44 C284.47 133.10, 282.09 135.47, 281.85 135.86 M279.08 130.66 C280.52 131.62, 283.70 129.56, 284.31 130.53 C284.93 131.49, 283.52 135.24, 282.77 136.45 C282.03 137.65, 281.13 137.83, 279.84 137.74 C278.55 137.66, 276.25 136.21, 275.02 135.96 C273.79 135.70, 272.92 137.32, 272.46 136.21 C271.99 135.10, 271.60 130.48, 272.22 129.30 C272.83 128.12, 275.08 129.21, 276.14 129.13 C277.19 129.05, 278.21 129.06, 278.55 128.81 C278.90 128.55, 277.94 127.23, 278.20 127.61 C278.46 127.99, 279.48 130.42, 280.14 131.08" fill="#faf7ef" stroke="none"/><path d="M277.15 127.03 C277.74 127.36, 278.82 127.69, 279.90 128.46 C280.99 129.23, 283.74 130.42, 283.66 131.64 C283.58 132.85, 280.71 134.80, 279.44 135.77 C278.17 136.75, 277.19 137.56, 276.02 137.49 C274.86 137.41, 273.02 135.82, 272.44 135.33 C271.86 134.84, 272.19 135.71, 272.54 134.55 C272.90 133.39, 274.03 129.40, 274.55 128.37 C275.07 127.34, 274.33 128.23, 275.67 128.37 C277.01 128.50, 281.69 128.31, 282.57 129.17 C283.46 130.02, 281.01 133.55, 280.98 133.50 M276.04 127.64 C277.55 127.31, 282.53 125.66, 283.75 126.83 C284.97 128.01, 284.11 133.26, 283.38 134.68 C282.66 136.10, 280.05 134.91, 279.40 135.35 C278.76 135.80, 280.30 137.06, 279.51 137.38 C278.73 137.69, 275.50 138.42, 274.68 137.26 C273.86 136.09, 274.48 131.19, 274.59 130.38 C274.69 129.58, 275.30 132.87, 275.32 132.43 C275.35 131.99, 274.63 128.81, 274.74 127.74 C274.85 126.67, 275.06 125.73, 275.96 125.99 C276.87 126.25, 279.26 128.89, 280.18 129.30" fill="none" stroke="#202020" stroke-width="3" stroke-linecap="round" stroke-linejoin="round"/><path d="M204.88 145.95 L209.91 147.38 L213.07 157.19 L205.54 151.82" fill="#faf7ef" stroke="none"/><path d="M206.65 149.65 C208.41 149.59, 209.66 149.23, 213.06 148.73 M207.10 148.60 C208.90 149.11, 210.91 148.79, 212.70 149.50 M213.16 148.77 C213.78 150.92, 214.06 152.90, 212.54 154.63 M212.75 149.12 C213.01 150.41, 212.53 152.26, 213.09 155.13 M211.84 154.42 C210.43 154.75, 208.09 155.91, 206.82 155.42 M212.48 155.24 C211.06 155.56, 209.09 154.99, 206.70 155.26 M208.18 154.02 C205.97 154.10, 207.11 151.38, 207.49 148.33 M207.42 155.21 C206.60 152.75, 206.50 151.71, 207.00 148.73" fill="none" stroke="#202020" stroke-width="3" stroke-linecap="round" stroke-linejoin="round"/><path d="M199.64 163.31 C197.49 165.55, 197.70 166.82, 197.59 172.89 M198.07 161.92 C197.36 164.10, 198.18 165.37, 197.13 172.44" fill="none" stroke="#202020" stroke-width="3" stroke-linecap="round" stroke-linejoin="round"/><path d="M205.78 160.16 C204.38 164.78, 204.76 167.56, 207.29 171.87 M206.32 161.86 C205.02 164.58, 206.06 165.87, 205.01 171.85" fill="none" stroke="#202020" stroke-width="3" stroke-linecap="round" stroke-linejoin="round"/><path d="M212.32 161.38 C215.49 166.61, 215.24 170.68, 215.97 170.52 M213.13 162.37 C213.79 165.64, 213.37 169.69, 214.76 171.94" fill="none" stroke="#202020" stroke-width="3" stroke-linecap="round" stroke-linejoin="round"/><path d="M220.13 161.61 C223.36 165.50, 223.87 170.84, 221.12 171.88 M221.27 162.54 C222.76 166.45, 221.51 169.43, 221.68 172.07" fill="none" stroke="#202020" stroke-width="3" stroke-linecap="round" stroke-linejoin="round"/><path d="M185.29 253.52 C198.72 257.55, 209.81 258.72, 232.81 275.90 M185.71 250.91 C198.89 255.97, 213.08 263.72, 234.01 274.48" fill="none" stroke="#202020" stroke-width="3" stroke-linecap="round" stroke-linejoin="round"/><path d="M235.65 247.47 C219.12 258.01, 197.95 266.14, 188.50 276.07 M233.81 248.44 C225.54 256.52, 213.14 260.70, 184.53 273.43" fill="none" stroke="#202020" stroke-width="3" stroke-linecap="round" stroke-linejoin="round"/></svg>