<svg xmlns="http://www.w3.org/2000/svg" viewBox="0 0 436 310" width="436" height="310"><path d="M321.82 65.71 C335.95 72.29, 348.26 83.91, 356.55 93.54 C364.85 103.17, 369.10 113.49, 371.61 123.48 C374.12 133.47, 375.17 143.18, 371.62 153.46 C368.07 163.74, 359.50 175.77, 350.31 185.15 C341.11 194.54, 329.25 202.74, 316.43 209.78 C303.62 216.81, 289.67 222.89, 273.43 227.37 C257.19 231.86, 236.77 235.75, 219.00 236.68 C201.24 237.60, 184.02 235.92, 166.83 232.93 C149.65 229.93, 130.33 224.56, 115.90 218.72 C101.47 212.88, 90.80 206.73, 80.24 197.88 C69.68 189.04, 58.44 176.42, 52.55 165.65 C46.66 154.88, 44.39 143.49, 44.88 133.27 C45.38 123.05, 48.96 114.14, 55.51 104.33 C62.07 94.53, 72.62 83.05, 84.19 74.45 C95.76 65.84, 110.23 58.66, 124.93 52.72 C139.64 46.78, 155.73 41.48, 172.43 38.81 C189.12 36.13, 207.36 35.41, 225.10 36.67 C242.84 37.93, 255.95 36.03, 278.86 46.35 C301.77 56.67, 347.25 83.47, 362.56 98.61 C377.88 113.75, 373.63 136.41, 370.72 137.17 M114.16 56.28 C126.43 49.55, 146.89 45.24, 164.29 42.31 C181.69 39.38, 201.13 37.80, 218.55 38.72 C235.98 39.64, 252.60 43.69, 268.86 47.85 C285.13 52.01, 302.49 57.07, 316.15 63.70 C329.82 70.33, 341.49 78.81, 350.85 87.64 C360.22 96.47, 368.61 106.30, 372.36 116.67 C376.12 127.03, 376.55 139.47, 373.39 149.82 C370.23 160.18, 361.14 168.61, 353.39 178.79 C345.63 188.97, 338.83 202.93, 326.86 210.91 C314.90 218.89, 298.24 222.82, 281.59 226.66 C264.94 230.51, 244.67 233.18, 226.97 233.98 C209.27 234.77, 192.50 233.62, 175.39 231.44 C158.28 229.27, 139.13 225.76, 124.31 220.95 C109.50 216.14, 97.60 210.40, 86.50 202.60 C75.40 194.79, 64.78 184.35, 57.71 174.11 C50.64 163.88, 45.01 151.77, 44.07 141.19 C43.14 130.60, 46.46 121.21, 52.10 110.60 C57.74 99.99, 66.95 86.63, 77.91 77.56 C88.87 68.48, 111.32 59.91, 117.87 56.14 C124.42 52.37, 115.84 53.27, 117.21 54.93" fill="#faf7ef" stroke="none"/><path d="M80.99 77.57 C88.90 68.67, 103.49 60.31, 118.06 54.21 C132.62 48.12, 151.13 43.81, 168.37 41.02 C185.61 38.23, 204.15 36.81, 221.50 37.48 C238.84 38.14, 256.30 40.59, 272.45 45.00 C288.59 49.42, 304.69 56.89, 318.36 63.94 C332.03 71.00, 345.63 78.02, 354.46 87.33 C363.29 96.63, 368.54 108.75, 371.33 119.78 C374.13 130.81, 373.66 142.84, 371.22 153.51 C368.78 164.18, 364.72 174.28, 356.67 183.81 C348.62 193.35, 336.32 203.64, 322.93 210.70 C309.54 217.75, 292.43 222.10, 276.36 226.14 C260.28 230.17, 243.60 233.44, 226.47 234.90 C209.35 236.36, 190.75 237.15, 173.63 234.88 C156.50 232.60, 138.86 227.04, 123.71 221.24 C108.57 215.45, 94.03 208.66, 82.77 200.12 C71.50 191.58, 62.21 180.03, 56.14 170.02 C50.07 160.01, 46.64 150.75, 46.35 140.05 C46.07 129.36, 47.48 117.43, 54.44 105.86 C61.41 94.28, 80.73 76.85, 88.14 70.59 C95.56 64.32, 97.03 66.85, 98.93 68.28 M185.13 36.22 C201.18 33.39, 224.79 36.73, 242.67 39.20 C260.55 41.67, 276.84 46.02, 292.42 51.02 C308.00 56.02, 324.76 61.42, 336.16 69.22 C347.55 77.02, 354.85 87.30, 360.80 97.83 C366.74 108.35, 370.36 121.62, 371.84 132.39 C373.32 143.16, 373.93 151.78, 369.66 162.46 C365.40 173.14, 356.53 187.19, 346.25 196.45 C335.98 205.71, 323.11 212.20, 308.01 218.01 C292.91 223.83, 273.10 227.99, 255.65 231.35 C238.20 234.72, 220.31 238.31, 203.32 238.20 C186.33 238.09, 169.66 234.68, 153.73 230.69 C137.80 226.70, 121.69 221.44, 107.75 214.27 C93.81 207.10, 79.55 196.57, 70.08 187.67 C60.61 178.76, 55.06 171.46, 50.95 160.84 C46.84 150.21, 43.84 135.06, 45.42 123.92 C47.01 112.77, 52.10 103.04, 60.47 93.97 C68.84 84.91, 83.43 77.53, 95.66 69.54 C107.88 61.55, 118.73 51.19, 133.81 46.03 C148.90 40.87, 177.01 39.49, 186.17 38.58 C195.33 37.67, 188.55 38.43, 188.78 40.58" fill="none" stroke="#202020" stroke-width="3" stroke-linecap="round" stroke-linejoin="round"/><path d="M137.51 129.82 C137.92 129.16, 139.81 128.47, 141.22 127.76 C142.63 127.04, 144.62 124.91, 145.97 125.54 C147.32 126.18, 149.09 129.99, 149.33 131.57 C149.58 133.15, 148.03 134.28, 147.45 135.01 C146.88 135.74, 146.82 135.40, 145.89 135.97 C144.97 136.54, 142.69 138.13, 141.89 138.42 C141.09 138.72, 142.15 138.53, 141.11 137.73 C140.06 136.94, 135.30 135.23, 135.62 133.65 C135.93 132.07, 140.93 128.90, 143.00 128.26 C145.08 127.62, 148.25 129.99, 148.06 129.83 M143.87 124.71 C144.95 124.64, 146.32 129.35, 146.91 130.29 C147.50 131.22, 147.28 129.06, 147.41 130.34 C147.54 131.62, 148.45 137.21, 147.70 137.96 C146.94 138.71, 144.21 135.11, 142.87 134.84 C141.54 134.56, 140.50 136.86, 139.67 136.31 C138.83 135.76, 138.18 132.35, 137.85 131.53 C137.52 130.71, 136.88 131.64, 137.69 131.40 C138.51 131.16, 141.91 131.28, 142.74 130.09 C143.58 128.90, 142.64 124.37, 142.71 124.24 C142.78 124.10, 142.95 128.29, 143.15 129.28" fill="#faf7ef" stroke="none"/><path d="M145.97 129.08 C147.00 129.32, 146.99 129.72, 147.38 130.36 C147.77 131.01, 148.70 132.16, 148.30 132.94 C147.91 133.72, 146.00 134.10, 145.00 135.02 C144.00 135.95, 143.20 138.41, 142.31 138.50 C141.43 138.59, 140.22 136.70, 139.71 135.57 C139.19 134.44, 139.58 132.96, 139.21 131.74 C138.83 130.51, 136.99 129.02, 137.46 128.23 C137.93 127.44, 140.24 126.83, 142.02 126.99 C143.80 127.15, 147.35 128.00, 148.16 129.19 C148.97 130.38, 147.14 134.20, 146.88 134.12 M139.90 127.20 C140.97 126.12, 144.69 124.76, 145.43 125.20 C146.17 125.64, 144.25 128.63, 144.37 129.85 C144.49 131.07, 145.79 131.13, 146.14 132.52 C146.49 133.90, 147.03 137.55, 146.48 138.18 C145.92 138.81, 143.90 136.72, 142.79 136.30 C141.69 135.89, 140.37 135.86, 139.84 135.69 C139.32 135.51, 139.79 136.19, 139.64 135.25 C139.50 134.31, 138.98 131.16, 138.96 130.04 C138.94 128.92, 139.44 128.90, 139.52 128.53 C139.61 128.17, 139.57 128.32, 139.47 127.86" fill="none" stroke="#202020" stroke-width="3" stroke-linecap="round" stroke-linejoin="round"/><path d="M275.55 127.12 C276.21 126.35, 277.14 126.19, 278.14 126.39 C279.14 126.59, 280.84 127.56, 281.55 128.31 C282.25 129.07, 282.39 130.08, 282.37 130.92 C282.35 131.75, 282.10 132.18, 281.41 133.33 C280.72 134.47, 279.36 137.10, 278.24 137.77 C277.12 138.44, 275.74 138.27, 274.69 137.36 C273.64 136.44, 272.27 133.33, 271.92 132.28 C271.56 131.22, 272.10 132.14, 272.57 131.04 C273.04 129.94, 274.34 126.24, 274.72 125.70 C275.11 125.16, 274.71 127.48, 274.88 127.79 M274.93 131.04 C275.63 130.23, 277.39 128.36, 278.49 127.75 C279.60 127.14, 280.70 126.95, 281.54 127.38 C282.38 127.81, 283.09 129.62, 283.52 130.35 C283.95 131.09, 284.38 131.07, 284.13 131.78 C283.89 132.49, 283.55 133.86, 282.05 134.62 C280.54 135.37, 276.79 136.32, 275.10 136.31 C273.41 136.30, 272.40 135.74, 271.90 134.57 C271.39 133.39, 271.95 130.08, 272.05 129.25 C272.15 128.43, 272.36 130.16, 272.51 129.62 C272.66 129.09, 272.78 126.50, 272.94 126.05" fill="#faf7ef" stroke="none"/><path d="M273.62 127.85 C274.07 126.69, 275.81 125.92, 276.66 125.91 C277.51 125.89, 278.03 126.79, 278.70 127.78 C279.36 128.77, 280.17 131.02, 280.67 131.87 C281.18 132.72, 281.83 132.21, 281.71 132.87 C281.60 133.53, 281.12 135.36, 279.98 135.82 C278.84 136.27, 276.23 135.63, 274.86 135.58 C273.49 135.53, 272.13 136.34, 271.78 135.52 C271.43 134.69, 272.51 132.10, 272.77 130.62 C273.03 129.15, 273.00 126.91, 273.32 126.67 C273.65 126.43, 274.19 128.86, 274.73 129.18 M273.71 130.47 C274.30 129.66, 273.56 125.70, 274.58 125.10 C275.60 124.50, 278.47 126.16, 279.83 126.89 C281.19 127.62, 282.54 128.24, 282.72 129.49 C282.91 130.73, 281.79 133.06, 280.93 134.36 C280.07 135.67, 278.34 136.75, 277.56 137.33 C276.78 137.90, 276.64 138.42, 276.27 137.80 C275.90 137.19, 275.92 134.64, 275.34 133.64 C274.76 132.65, 273.01 133.14, 272.81 131.81 C272.60 130.48, 273.81 126.42, 274.12 125.66 C274.43 124.91, 274.59 127.10, 274.65 127.30" fill="none" stroke="#202020" stroke-width="3" stroke-linecap="round" stroke-linejoin="round"/><path d="M206.48 149.12 L216.95 147.88 L216.32 151.98 L206.73 151.45" fill="#faf7ef" stroke="none"/><path d="M207.75 149.33 C209.21 149.70, 209.32 149.51, 213.73 149.42 M207.15 149.23 C209.03 148.55, 211.15 149.58, 212.83 149.27 M212.50 150.08 C212.37 151.23, 212.47 152.54, 212.48 155.41 M212.69 149.17 C213.25 149.73, 212.87 151.58, 213.20 154.43 M212.75 155.56 C210.38 155.50, 209.84 155.69, 207.09 155.22 M213.55 155.49 C211.77 154.81, 209.79 154.64, 206.48 154.44 M207.52 155.66 C206.53 152.84, 206.03 152.33, 206.54 149.16 M207.16 155.27 C207.04 152.42, 207.44 150.24, 206.76 149.21" fill="none" stroke="#202020" stroke-width="3" stroke-linecap="round" stroke-linejoin="round"/><path d="M199.68 162.31 C198.03 165.94, 198.15 165.36, 197.42 173.08 M198.74 162.36 C197.52 166.65, 198.04 170.13, 197.51 171.04" fill="none" stroke="#202020" stroke-width="3" stroke-linecap="round" stroke-linejoin="round"/><path d="M207.07 163.55 C205.35 162.58, 205.13 166.40, 206.77 173.19 M206.83 161.01 C206.50 165.05, 206.30 168.78, 206.14 172.00" fill="none" stroke="#202020" stroke-width="3" stroke-linecap="round" stroke-linejoin="round"/><path d="M212.93 162.75 C212.15 164.88, 215.55 168.51, 213.79 171.98 M214.68 161.49 C214.91 164.95, 213.60 167.64, 213.35 171.10" fill="none" stroke="#202020" stroke-width="3" stroke-linecap="round" stroke-linejoin="round"/><path d="M222.11 161.80 C223.63 167.03, 221.46 168.90, 221.61 171.97 M222.90 162.35 C221.59 166.48, 221.77 168.80, 222.57 172.36" fill="none" stroke="#202020" stroke-width="3" stroke-linecap="round" stroke-linejoin="round"/><path d="M188.82 248.81 C195.74 253.80, 205.03 259.06, 231.16 272.49 M184.44 247.91 C198.41 257.15, 209.94 261.34, 235.81 276.68" fill="none" stroke="#202020" stroke-width="3" stroke-linecap="round" stroke-linejoin="round"/><path d="M237.98 248.34 C220.67 259.56, 204.98 266.20, 185.30 275.05 M235.91 251.36 C225.92 257.40, 215.21 261.94, 186.83 276.33" fill="none" stroke="#202020" stroke-width="3" stroke-linecap="round" stroke-linejoin="round"/></svg>