<svg xmlns="http://www.w3.org/2000/svg" viewBox="0 0 900 300" width="900" height="300"><path d="M22.93 15.03 C23.95 87.17, 18.94 155.19, 17.58 287.90 M21.24 15.30 C16.51 86.19, 14.97 158.69, 18.73 283.96" fill="none" stroke="#202020" stroke-width="2" stroke-linecap="round" stroke-linejoin="round"/><path d="M193.76 14.34 C186.98 108.34, 185.49 198.54, 194.02 286.73 M192.37 14.48 C192.29 112.50, 191.69 206.44, 191.73 286.15" fill="none" stroke="#202020" stroke-width="2" stroke-linecap="round" stroke-linejoin="round"/><path d="M366.01 14.77 C369.56 77.46, 364.73 143.65, 364.34 287.10 M365.30 14.22 C361.78 107.97, 362.19 198.18, 363.83 284.62" fill="none" stroke="#202020" stroke-width="2" stroke-linecap="round" stroke-linejoin="round"/><path d="M538.49 18.05 C533.20 103.29, 533.31 192.93, 538.91 283.39 M536.48 13.70 C535.93 121.17, 535.75 230.58, 537.45 286.36" fill="none" stroke="#202020" stroke-width="2" stroke-linecap="round" stroke-linejoin="round"/><path d="M706.09 13.68 C706.52 68.88, 705.26 123.83, 710.38 286.89 M709.45 16.16 C707.66 72.03, 707.06 129.86, 708.93 285.33" fill="none" stroke="#202020" stroke-width="2" stroke-linecap="round" stroke-linejoin="round"/><path d="M877.76 13.88 C880.83 122.64, 879.60 230.21, 880.79 287.34 M879.39 14.28 C884.23 108.03, 882.27 198.94, 880.49 285.27" fill="none" stroke="#202020" stroke-width="2" stroke-linecap="round" stroke-linejoin="round"/><path d="M20.86 16.37 C215.65 12.08, 408.37 11.83, 881.47 15.27 M19.84 14.45 C352.96 16.83, 686.04 17.14, 879.21 14.96" fill="none" stroke="#202020" stroke-width="2" stroke-linecap="round" stroke-linejoin="round"/><path d="M20.12 82.62 C322.63 87.79, 622.38 85.71, 878.47 82.30 M19.80 81.83 C346.02 83.65, 670.82 84.04, 880.43 83.07" fill="none" stroke="#202020" stroke-width="2" stroke-linecap="round" stroke-linejoin="round"/><path d="M18.72 148.47 C244.98 145.11, 471.16 144.64, 880.04 150.28 M20.66 150.34 C243.42 147.79, 468.05 146.93, 879.51 150.78" fill="none" stroke="#202020" stroke-width="2" stroke-linecap="round" stroke-linejoin="round"/><path d="M18.64 217.35 C227.96 216.59, 434.76 218.01, 880.80 219.00 M20.21 217.08 C279.38 222.15, 537.90 223.07, 880.42 216.75" fill="none" stroke="#202020" stroke-width="2" stroke-linecap="round" stroke-linejoin="round"/><path d="M21.31 284.38 C226.72 284.61, 434.75 282.43, 878.98 283.53 M20.65 284.24 C221.42 280.90, 422.63 281.26, 879.56 285.10" fill="none" stroke="#202020" stroke-width="2" stroke-linecap="round" stroke-linejoin="round"/><path d="M275.56 112.79 L451.08 114.22 L452.02 187.32 L281.27 185.71" fill="#faf7ef" stroke="none"/><path d="M280.20 114.59 C317.45 117.17, 357.04 116.89, 452.16 112.76 M278.74 116.95 C323.29 115.19, 368.60 115.33, 450.34 118.24 M449.12 114.80 C453.36 138.42, 447.69 164.79, 448.39 181.80 M450.62 117.03 C451.22 142.82, 448.09 167.21, 448.67 183.15 M453.21 181.54 C390.04 179.06, 335.69 183.67, 276.98 184.97 M448.30 185.30 C406.03 182.10, 364.32 180.82, 278.24 182.54 M278.83 180.87 C279.13 164.22, 279.28 149.22, 277.39 113.54 M279.90 183.47 C279.63 158.91, 277.96 135.25, 279.21 114.77" fill="none" stroke="#202020" stroke-width="2" stroke-linecap="round" stroke-linejoin="round"/><path d="M397.81 153.50 C473.07 155.30, 551.84 150.95, 589.16 153.79 M399.45 150.67 C470.29 151.56, 540.70 150.17, 588.67 149.62" fill="none" stroke="#202020" stroke-width="2" stroke-linecap="round" stroke-linejoin="round"/><path d="M551.76 138.79 C568.67 144.09, 577.99 144.80, 602.03 150.73 M553.03 137.93 C566.01 142.95, 580.69 145.69, 603.36 148.75 M602.00 151.61 C591.84 156.88, 583.23 153.34, 551.58 166.59 M605.86 148.09 C593.51 151.80, 581.26 154.97, 555.13 161.82" fill="none" stroke="#202020" stroke-width="2" stroke-linecap="round" stroke-linejoin="round"/></svg>