<svg xmlns="http://www.w3.org/2000/svg" viewBox="0 0 960 420" width="960" height="420"><path d="M18.66 15.38 C20.92 101.03, 22.22 190.17, 19.73 407.02 M20.03 15.62 C17.61 160.72, 16.94 308.57, 19.35 404.76" fill="none" stroke="#202020" stroke-width="2" stroke-linecap="round" stroke-linejoin="round"/><path d="M205.80 17.22 C202.50 146.36, 198.52 276.78, 201.67 407.17 M205.01 15.82 C205.99 116.54, 204.19 216.68, 204.14 405.05" fill="none" stroke="#202020" stroke-width="2" stroke-linecap="round" stroke-linejoin="round"/><path d="M387.96 15.74 C389.45 149.00, 388.25 285.78, 389.89 402.69 M387.13 15.85 C391.19 138.85, 392.33 260.51, 387.21 406.01" fill="none" stroke="#202020" stroke-width="2" stroke-linecap="round" stroke-linejoin="round"/><path d="M574.31 13.53 C572.70 102.77, 574.45 187.47, 572.32 403.26 M571.59 16.13 C569.91 120.23, 569.50 223.88, 571.17 404.26" fill="none" stroke="#202020" stroke-width="2" stroke-linecap="round" stroke-linejoin="round"/><path d="M756.33 16.49 C753.28 112.17, 753.56 211.57, 755.49 405.11 M756.53 15.12 C754.35 167.58, 753.09 319.12, 756.14 403.93" fill="none" stroke="#202020" stroke-width="2" stroke-linecap="round" stroke-linejoin="round"/><path d="M942.04 14.08 C938.71 126.33, 941.46 235.03, 942.10 404.79 M941.15 14.90 C939.38 122.07, 939.99 230.64, 940.90 405.79" fill="none" stroke="#202020" stroke-width="2" stroke-linecap="round" stroke-linejoin="round"/><path d="M19.87 13.79 C380.02 21.63, 741.81 21.01, 941.34 15.81 M19.75 15.60 C204.75 21.09, 388.70 21.15, 940.25 15.10" fill="none" stroke="#202020" stroke-width="2" stroke-linecap="round" stroke-linejoin="round"/><path d="M21.17 111.37 C373.21 114.48, 723.55 114.47, 938.50 111.05 M19.94 112.23 C348.41 107.64, 675.10 107.08, 940.42 111.76" fill="none" stroke="#202020" stroke-width="2" stroke-linecap="round" stroke-linejoin="round"/><path d="M18.99 209.12 C333.89 202.60, 647.62 204.64, 939.28 211.46 M19.48 210.55 C256.93 212.32, 493.43 212.63, 939.41 209.97" fill="none" stroke="#202020" stroke-width="2" stroke-linecap="round" stroke-linejoin="round"/><path d="M21.19 308.35 C249.39 309.51, 481.87 309.57, 941.03 305.92 M19.93 307.93 C352.17 313.37, 685.03 312.07, 940.35 306.93" fill="none" stroke="#202020" stroke-width="2" stroke-linecap="round" stroke-linejoin="round"/><path d="M19.80 404.19 C290.13 403.50, 562.81 405.49, 940.57 404.82 M19.94 404.50 C264.24 408.55, 506.96 407.91, 940.08 404.58" fill="none" stroke="#202020" stroke-width="2" stroke-linecap="round" stroke-linejoin="round"/><path d="M295.52 164.19 L479.28 162.03 L477.25 255.23 L294.86 258.07" fill="#faf7ef" stroke="none"/><path d="M295.17 157.65 C345.21 157.44, 398.21 162.94, 482.37 164.54 M297.25 161.12 C342.60 158.85, 391.16 157.12, 481.48 161.30 M477.53 159.75 C478.54 199.62, 478.09 227.22, 482.96 260.49 M480.08 159.76 C480.15 190.68, 479.44 219.65, 479.97 258.46 M483.54 261.32 C418.22 260.93, 358.79 258.58, 298.03 260.93 M478.71 258.39 C425.99 258.87, 376.35 259.74, 295.06 258.16 M299.65 262.38 C293.93 222.81, 300.94 188.16, 298.12 160.71 M297.57 257.77 C296.47 235.56, 296.35 215.90, 296.92 160.71" fill="none" stroke="#202020" stroke-width="2" stroke-linecap="round" stroke-linejoin="round"/><path d="M422.39 211.33 C495.36 208.35, 575.35 210.58, 624.97 212.13 M426.00 209.39 C484.97 211.28, 543.12 210.50, 626.85 211.35" fill="none" stroke="#202020" stroke-width="2" stroke-linecap="round" stroke-linejoin="round"/><path d="M593.45 192.98 C609.55 194.22, 630.69 203.13, 645.17 210.24 M589.92 192.06 C608.68 195.82, 629.93 203.03, 646.76 209.80 M644.50 207.07 C633.48 213.64, 619.48 216.81, 593.28 232.05 M644.07 210.23 C633.09 215.58, 616.66 220.25, 589.37 228.31" fill="none" stroke="#202020" stroke-width="2" stroke-linecap="round" stroke-linejoin="round"/></svg>