<svg xmlns="http://www.w3.org/2000/svg" viewBox="0 0 900 320" width="900" height="320"><path d="M311.77 82.87 C311.77 82.87, 311.77 82.87, 311.77 82.87 M311.77 82.87 C311.77 82.87, 311.77 82.87, 311.77 82.87 M288.14 116.14 C305.93 97.82, 319.99 79.94, 334.44 65.92 M288.69 118.47 C301.16 99.51, 317.19 80.68, 334.46 65.42 M283.86 126.96 C301.92 106.48, 315.25 92.66, 354.87 51.95 M285.27 127.93 C294.91 111.98, 310.89 95.41, 352.69 50.13 M280.82 133.21 C315.54 98.44, 346.91 65.39, 361.36 45.25 M281.43 133.04 C306.84 107.39, 332.36 78.28, 358.62 45.16 M281.51 145.53 C313.81 107.82, 348.82 70.83, 371.30 40.42 M279.21 143.87 C310.54 109.35, 336.99 79.49, 370.09 40.57 M282.97 151.58 C298.97 124.29, 328.35 96.69, 382.52 37.70 M279.38 149.35 C302.94 120.38, 327.54 89.94, 379.95 37.01 M277.79 158.19 C300.70 127.22, 330.62 97.09, 385.63 33.17 M277.00 157.20 C315.41 118.95, 352.78 76.86, 387.90 33.33 M275.68 171.64 C319.35 123.28, 357.03 70.52, 396.28 24.24 M276.15 165.75 C307.20 123.54, 345.92 83.68, 397.88 29.05 M272.80 177.22 C318.70 133.48, 351.53 91.14, 400.01 23.93 M277.28 172.95 C318.93 122.82, 363.88 74.94, 403.26 28.22 M275.46 176.37 C298.44 147.91, 330.30 116.47, 405.30 30.82 M274.33 177.77 C312.25 141.07, 346.21 99.79, 408.81 28.25 M275.37 183.41 C325.53 127.56, 375.84 76.54, 415.00 29.02 M277.31 183.28 C311.84 140.29, 348.57 97.69, 414.80 25.59 M275.77 189.34 C306.40 156.93, 339.04 116.68, 418.75 28.35 M275.54 190.02 C309.77 149.57, 341.34 112.40, 418.39 24.34 M280.08 194.08 C305.54 158.67, 339.95 115.16, 426.11 24.18 M278.75 196.31 C333.20 133.20, 386.03 72.71, 426.19 23.25 M280.51 202.69 C321.65 150.36, 367.11 99.08, 434.42 24.74 M276.31 199.88 C315.09 162.47, 354.01 120.15, 432.23 25.40 M279.47 205.39 C310.27 167.15, 350.64 122.73, 440.89 19.93 M278.93 207.88 C342.87 130.83, 405.36 60.87, 439.06 22.23 M280.40 212.72 C321.52 163.07, 369.21 112.88, 444.43 20.42 M277.99 214.33 C326.32 161.08, 372.34 103.97, 442.57 24.13 M280.37 219.06 C321.01 171.93, 356.43 128.19, 446.74 21.14 M278.84 215.64 C314.14 172.73, 351.41 128.35, 448.03 23.32 M280.08 221.66 C325.61 170.62, 369.98 123.74, 456.45 22.10 M280.24 221.27 C334.46 161.62, 385.66 103.12, 452.70 22.33 M285.12 225.42 C321.46 187.35, 356.00 143.97, 457.59 23.07 M285.33 223.63 C321.65 181.17, 362.21 135.13, 459.01 24.36 M286.28 230.27 C351.22 151.86, 417.75 74.72, 463.10 21.75 M284.91 229.74 C356.10 147.70, 428.06 65.87, 465.82 22.44 M287.49 233.96 C348.30 160.66, 407.20 88.44, 466.56 24.76 M287.94 233.79 C328.19 187.34, 367.21 138.82, 469.54 22.92 M290.65 233.27 C337.77 178.33, 391.50 118.98, 472.17 22.60 M290.49 237.56 C352.88 167.98, 412.73 97.71, 474.15 25.37 M290.50 242.12 C362.46 153.42, 440.15 67.07, 478.80 22.16 M290.30 240.65 C349.97 169.11, 411.94 96.86, 478.97 25.39 M293.57 241.84 C361.74 166.95, 425.12 87.90, 486.90 23.36 M294.35 243.67 C362.86 166.67, 430.14 86.21, 483.57 24.88 M298.42 249.74 C354.15 181.55, 412.86 113.93, 491.18 28.02 M296.65 246.33 C337.88 204.91, 376.44 159.16, 488.57 26.80 M295.65 251.79 C351.74 188.84, 403.94 124.93, 494.83 24.71 M298.64 251.95 C346.05 200.31, 393.17 144.26, 493.45 25.45 M299.29 256.68 C370.15 180.65, 440.25 98.80, 497.23 24.81 M298.58 255.70 C357.30 187.06, 415.22 119.24, 500.20 24.40 M304.57 259.95 C351.59 202.47, 405.30 144.97, 501.58 26.76 M300.92 258.17 C345.81 205.31, 391.83 151.80, 503.48 27.22 M302.77 263.58 C358.12 201.93, 410.81 140.09, 506.55 27.37 M304.27 262.83 C357.03 197.01, 412.76 135.54, 505.24 29.60 M306.41 266.16 C390.92 168.50, 469.99 77.18, 508.67 32.05 M308.19 264.75 C367.06 194.31, 427.15 122.61, 509.61 31.76 M312.10 265.68 C365.88 203.13, 418.32 141.91, 516.34 32.82 M309.01 267.63 C375.33 190.56, 439.17 118.63, 512.60 32.52 M310.22 268.57 C394.28 176.56, 474.01 80.15, 518.27 32.53 M313.16 270.99 C383.24 190.41, 449.07 113.52, 516.96 33.55 M316.55 275.16 C385.94 193.35, 461.14 105.72, 521.46 38.61 M316.16 273.85 C359.36 221.45, 408.02 167.77, 520.51 35.44 M320.48 277.15 C385.50 200.39, 455.98 120.14, 522.80 37.05 M317.35 276.71 C375.02 216.39, 427.60 153.07, 525.03 36.83 M321.95 277.35 C385.73 205.44, 449.99 132.41, 526.94 37.38 M319.73 279.42 C383.71 210.63, 445.11 140.29, 530.13 38.95 M321.87 284.85 C400.94 194.18, 477.31 109.22, 530.88 44.14 M324.23 283.50 C374.16 224.01, 423.70 170.21, 533.01 41.76 M324.00 284.91 C387.44 216.25, 444.52 145.37, 538.48 41.55 M325.83 285.71 C397.36 206.53, 464.23 128.80, 536.59 42.81 M328.52 288.34 C389.32 217.30, 446.57 152.18, 540.65 42.66 M329.28 288.97 C382.20 227.55, 433.54 165.85, 542.20 43.73 M329.04 291.31 C375.51 239.77, 417.92 189.17, 544.39 46.89 M331.99 292.18 C385.91 234.90, 436.58 174.80, 544.06 45.60 M334.40 292.22 C400.54 216.63, 466.94 142.56, 546.55 49.93 M333.62 294.05 C375.78 243.42, 418.53 191.76, 546.29 47.99 M339.56 299.04 C423.83 204.07, 504.41 111.45, 554.02 52.83 M338.36 295.74 C416.13 206.58, 493.83 117.20, 550.94 50.91 M340.92 297.85 C390.10 235.70, 441.77 176.21, 555.66 55.49 M342.01 298.65 C402.88 229.82, 463.42 157.04, 553.37 54.50 M342.50 300.01 C396.68 234.07, 456.43 174.03, 556.52 58.01 M343.75 300.49 C428.60 206.03, 510.86 110.87, 558.56 55.64 M350.18 300.65 C416.40 227.95, 483.75 153.43, 559.00 60.56 M347.97 304.21 C393.09 249.12, 438.34 197.69, 561.30 58.22 M351.63 303.52 C431.38 209.83, 510.02 120.00, 563.48 60.59 M352.02 304.85 C416.83 232.00, 480.50 160.48, 562.74 59.72 M357.14 303.87 C438.25 218.76, 514.95 123.85, 564.39 64.14 M355.29 306.81 C432.61 217.92, 509.55 130.03, 565.78 62.65 M358.19 308.04 C435.24 227.24, 506.54 140.52, 572.17 64.72 M359.82 307.55 C413.10 249.45, 462.35 191.56, 571.20 64.71 M360.58 312.35 C425.30 239.13, 490.81 166.83, 576.06 68.82 M362.68 310.71 C416.14 251.01, 463.50 194.27, 574.78 67.81 M365.85 311.87 C423.55 243.47, 484.97 176.71, 579.49 69.02 M366.33 314.17 C423.36 250.67, 479.13 184.69, 576.98 70.72 M369.42 313.88 C435.71 236.89, 503.46 158.72, 582.94 75.17 M368.43 314.62 C427.87 246.83, 485.27 180.25, 580.56 73.01 M371.05 319.25 C438.70 239.05, 505.88 162.62, 582.44 75.20 M372.80 317.22 C433.22 244.64, 490.97 176.64, 583.35 75.80 M378.09 320.67 C461.99 224.65, 539.02 131.25, 583.85 78.25 M377.33 319.60 C447.16 237.61, 517.09 159.21, 587.19 77.24 M382.25 318.63 C456.94 228.66, 537.24 140.45, 590.53 82.63 M382.64 320.67 C436.52 254.67, 494.15 190.77, 589.32 79.66 M383.59 319.41 C463.71 231.71, 542.72 138.85, 589.94 84.00 M384.75 320.01 C434.11 264.90, 483.79 209.74, 590.87 85.03 M389.44 322.15 C471.00 226.34, 547.65 137.99, 592.89 88.23 M389.63 322.67 C456.83 242.66, 526.69 163.11, 594.67 87.46 M393.66 321.93 C440.32 263.67, 495.00 202.16, 594.37 87.92 M394.35 321.95 C455.66 251.96, 515.24 181.29, 597.54 90.28 M396.13 323.59 C478.76 236.15, 552.85 144.25, 596.96 93.49 M398.48 325.42 C464.92 246.08, 530.93 171.67, 599.98 93.49 M405.58 325.63 C471.00 241.94, 543.16 157.67, 599.18 94.98 M401.71 325.95 C467.74 251.38, 530.92 180.21, 600.21 98.09 M410.09 328.00 C452.71 276.59, 498.11 219.79, 603.10 99.00 M406.67 327.80 C471.06 250.55, 539.16 171.26, 604.26 101.31 M409.51 330.44 C447.73 282.44, 492.24 232.86, 606.43 103.40 M412.85 328.56 C478.40 248.73, 544.08 174.40, 607.05 104.56 M417.22 330.23 C464.40 277.32, 508.20 229.32, 606.53 108.29 M417.01 329.28 C454.51 281.16, 491.79 234.88, 609.14 106.92 M419.19 328.78 C485.70 265.85, 541.39 194.78, 610.64 113.07 M421.17 329.82 C489.65 248.76, 561.99 168.06, 611.67 109.40 M426.68 332.20 C488.36 259.91, 544.01 192.20, 615.77 114.69 M424.97 332.28 C492.19 247.48, 564.74 164.44, 613.89 112.80 M427.62 330.99 C491.84 254.97, 558.16 179.31, 615.25 116.58 M428.73 333.25 C478.37 270.33, 530.35 211.48, 616.38 119.04 M433.60 333.98 C498.24 263.00, 557.90 184.01, 619.35 119.14 M436.21 331.97 C506.66 251.03, 577.41 171.45, 617.57 122.66 M439.13 334.93 C498.57 267.85, 563.00 196.79, 620.63 129.14 M440.57 332.67 C481.39 289.77, 519.56 243.50, 619.70 128.05 M444.02 329.40 C487.22 283.78, 524.75 242.19, 616.36 128.99 M446.00 330.97 C516.70 250.66, 586.05 170.92, 618.47 132.85 M451.81 333.67 C502.02 275.19, 556.89 217.30, 621.57 138.73 M450.57 332.32 C505.53 269.60, 560.90 203.39, 621.76 136.60 M453.58 329.21 C506.46 273.51, 550.47 217.40, 622.11 144.50 M456.26 330.54 C516.74 259.28, 578.05 190.03, 621.75 141.70 M461.31 328.38 C492.67 295.69, 524.14 256.97, 621.03 148.52 M462.81 328.83 C523.47 261.84, 586.08 189.99, 621.69 145.44 M468.96 330.71 C522.46 269.08, 575.22 204.19, 623.61 148.99 M466.53 331.46 C498.75 293.76, 533.56 254.62, 624.07 150.61 M475.77 330.86 C518.18 273.06, 567.22 217.16, 623.37 153.94 M474.56 328.77 C530.79 262.90, 590.95 197.52, 623.73 156.20 M479.69 330.53 C509.35 288.56, 544.67 254.42, 622.82 161.82 M479.19 330.34 C506.28 298.70, 536.31 263.46, 626.81 160.56 M484.73 326.69 C528.15 279.17, 577.92 225.40, 627.40 165.77 M484.41 327.97 C520.50 290.11, 556.96 249.39, 626.94 167.64 M495.78 326.92 C519.15 292.82, 553.86 259.90, 624.70 175.65 M492.61 327.01 C535.78 271.79, 582.15 215.93, 626.99 174.44 M498.51 321.94 C527.23 292.64, 560.17 256.00, 624.21 178.93 M499.70 324.81 C548.33 266.56, 596.58 212.06, 624.02 180.19 M502.88 326.21 C535.82 294.58, 561.30 264.58, 624.51 188.15 M506.24 320.43 C548.64 273.79, 589.66 223.53, 623.22 184.88 M514.02 320.44 C549.88 281.32, 585.45 242.60, 625.88 193.75 M515.27 322.26 C553.96 276.81, 595.28 228.90, 625.23 191.68 M524.30 317.78 C545.04 289.33, 568.24 269.72, 623.20 200.29 M519.42 319.68 C561.99 271.59, 602.67 221.77, 624.73 197.47 M523.74 318.98 C552.83 282.95, 582.55 245.27, 626.13 204.33 M526.92 315.18 C564.21 275.84, 604.16 230.37, 624.92 204.17 M539.30 310.42 C563.35 287.03, 583.29 261.22, 622.19 211.91 M536.63 310.44 C565.81 277.54, 596.97 244.66, 618.42 214.93 M551.05 300.65 C560.91 286.71, 580.84 270.33, 615.03 230.47 M547.98 302.94 C566.96 283.57, 584.50 265.25, 614.23 226.88 M557.77 298.73 C571.01 284.79, 584.67 263.61, 609.70 239.64 M559.33 296.04 C577.47 274.53, 598.22 251.28, 607.60 240.47" fill="#faf7ef" stroke="none"/><path d="M311.59 83.07 C319.51 70.21, 334.87 59.77, 348.72 50.67 C362.57 41.57, 378.19 33.25, 394.67 28.47 C411.14 23.69, 430.21 22.39, 447.56 21.97 C464.92 21.56, 482.60 21.87, 498.81 25.99 C515.02 30.11, 530.08 38.00, 544.84 46.70 C559.60 55.39, 575.71 66.67, 587.37 78.15 C599.03 89.64, 608.38 101.91, 614.80 115.60 C621.22 129.29, 624.37 145.21, 625.90 160.29 C627.44 175.38, 627.72 190.80, 624.00 206.12 C620.28 221.44, 611.94 238.75, 603.57 252.21 C595.20 265.68, 586.06 276.35, 573.77 286.90 C561.48 297.45, 545.23 308.49, 529.84 315.51 C514.45 322.53, 498.34 326.34, 481.43 329.02 C464.52 331.69, 445.95 333.37, 428.37 331.54 C410.78 329.70, 391.85 324.32, 375.92 318.01 C359.99 311.70, 345.29 303.70, 332.79 293.67 C320.29 283.64, 309.97 270.98, 300.91 257.84 C291.86 244.70, 282.78 230.12, 278.45 214.84 C274.13 199.56, 273.85 181.97, 274.98 166.17 C276.10 150.37, 274.27 138.70, 285.19 120.02 C296.12 101.33, 325.41 67.91, 340.52 54.06 C355.62 40.20, 374.11 34.76, 375.83 36.90 M386.20 33.57 C400.57 25.12, 419.10 20.03, 436.46 18.53 C453.83 17.03, 473.14 20.69, 490.40 24.57 C507.66 28.46, 525.51 34.71, 540.01 41.84 C554.50 48.97, 565.57 55.96, 577.38 67.35 C589.18 78.74, 602.67 95.96, 610.83 110.18 C619.00 124.40, 623.66 137.45, 626.39 152.67 C629.11 167.89, 629.87 186.38, 627.16 201.47 C624.45 216.57, 618.15 229.72, 610.12 243.24 C602.10 256.77, 590.97 271.69, 579.03 282.62 C567.09 293.55, 553.09 301.35, 538.48 308.83 C523.87 316.30, 508.05 323.60, 491.36 327.48 C474.67 331.36, 456.09 333.02, 438.34 332.10 C420.59 331.17, 401.72 327.54, 384.87 321.93 C368.01 316.33, 350.55 308.42, 337.20 298.48 C323.85 288.53, 313.94 274.95, 304.78 262.26 C295.62 249.57, 287.85 236.44, 282.25 222.33 C276.66 208.22, 271.15 192.63, 271.21 177.61 C271.27 162.58, 276.67 146.75, 282.61 132.20 C288.55 117.64, 297.14 103.76, 306.86 90.28 C316.57 76.80, 327.85 61.64, 340.91 51.31 C353.98 40.98, 378.04 31.52, 385.24 28.29 C392.44 25.07, 382.57 29.01, 384.12 31.94" fill="none" stroke="#202020" stroke-width="2" stroke-linecap="round" stroke-linejoin="round"/><path d="M298.76 -3.97 C298.76 -3.97, 298.76 -3.97, 298.76 -3.97 M298.76 -3.97 C298.76 -3.97, 298.76 -3.97, 298.76 -3.97 M256.13 52.23 C271.95 29.84, 291.91 9.93, 317.00 -14.84 M256.18 52.28 C276.44 29.92, 295.68 4.12, 314.75 -15.74 M250.58 67.40 C269.82 46.88, 281.50 27.39, 331.59 -28.78 M248.50 63.52 C281.50 27.56, 315.20 -11.98, 332.43 -30.88 M243.90 78.46 C285.49 28.60, 323.59 -11.80, 348.95 -36.78 M242.41 79.84 C276.88 36.50, 315.75 -7.86, 346.79 -39.28 M235.61 92.51 C277.23 40.39, 321.29 -9.54, 355.87 -43.32 M232.95 93.34 C270.99 51.43, 310.22 7.67, 351.85 -40.57 M237.70 100.74 C265.93 64.99, 299.15 29.40, 363.96 -48.55 M232.01 100.22 C280.64 45.12, 332.20 -15.46, 360.28 -44.44 M234.01 107.15 C279.90 48.79, 336.95 -10.95, 367.62 -50.73 M230.46 110.98 C276.20 59.66, 317.32 10.09, 371.15 -47.80 M231.56 115.90 C279.12 60.22, 324.81 8.10, 375.97 -54.54 M230.49 117.54 C278.92 57.18, 330.81 1.94, 379.54 -53.06 M229.04 126.76 C281.55 63.95, 340.98 -2.38, 384.40 -57.27 M226.82 126.29 C263.30 85.76, 300.53 44.71, 385.81 -57.22 M224.85 132.91 C291.52 59.45, 355.25 -14.53, 397.71 -57.39 M227.60 132.82 C267.54 87.98, 310.19 40.34, 395.80 -59.80 M226.41 140.08 C260.76 92.59, 303.93 46.11, 401.55 -61.29 M225.69 142.24 C295.26 60.70, 364.62 -19.45, 402.31 -59.89 M223.09 147.93 C281.43 81.95, 346.52 10.74, 404.72 -61.51 M224.86 149.51 C294.22 69.07, 365.67 -12.25, 405.48 -59.80 M221.01 155.89 C288.02 80.86, 359.33 -5.60, 412.79 -59.03 M220.33 157.20 C291.31 77.99, 360.51 -4.72, 413.40 -62.73 M219.90 163.04 C298.29 74.79, 371.52 -9.44, 419.16 -62.75 M222.67 163.67 C274.02 103.62, 326.21 41.55, 417.43 -61.93 M223.55 171.85 C286.26 100.72, 351.02 30.19, 425.81 -62.48 M222.42 168.02 C293.29 87.30, 365.49 5.38, 425.01 -61.96 M219.42 178.30 C277.00 114.61, 325.60 58.99, 430.06 -64.41 M221.44 176.21 C269.49 124.11, 314.49 69.17, 430.55 -63.48 M224.94 178.76 C286.21 107.34, 347.21 33.43, 437.03 -66.42 M222.72 181.13 C295.09 94.26, 367.46 8.12, 434.97 -63.96 M222.85 186.36 C304.67 89.97, 383.13 -4.14, 440.40 -63.83 M223.62 186.56 C283.90 115.32, 342.56 46.20, 440.58 -65.31 M222.76 192.39 C299.47 102.02, 378.75 10.97, 445.44 -64.41 M222.07 191.37 C292.18 112.92, 357.55 36.46, 446.59 -64.41 M221.28 197.65 C290.37 116.79, 360.36 40.33, 451.34 -67.14 M223.62 199.21 C293.89 119.29, 360.94 40.04, 451.66 -64.29 M225.68 204.87 C294.10 126.59, 361.11 50.04, 455.71 -65.15 M224.38 204.42 C280.69 139.65, 337.38 75.58, 456.89 -65.28 M221.49 209.21 C303.93 119.13, 384.05 22.28, 460.86 -65.07 M223.64 211.01 C307.17 110.30, 389.77 15.06, 462.38 -64.75 M222.75 213.22 C317.00 111.27, 410.19 3.77, 467.80 -63.07 M225.83 215.91 C289.86 143.77, 354.92 69.48, 466.51 -63.42 M227.68 222.00 C298.82 135.50, 374.17 52.43, 472.58 -61.90 M226.78 220.04 C312.66 118.30, 401.59 14.71, 471.04 -61.97 M229.44 226.17 C298.30 145.89, 372.14 61.75, 478.74 -62.63 M226.52 224.58 C281.26 158.65, 335.67 96.14, 477.10 -62.02 M230.17 231.20 C327.83 112.37, 428.71 -1.04, 478.90 -62.48 M228.15 230.33 C299.04 149.63, 369.19 68.51, 481.29 -61.04 M232.47 231.56 C327.10 123.45, 427.71 8.36, 487.00 -59.59 M230.86 233.02 C319.15 135.02, 405.10 32.82, 485.54 -60.64 M230.48 238.77 C280.87 176.04, 335.99 117.34, 488.23 -58.66 M231.30 236.91 C316.75 138.15, 403.61 40.94, 490.34 -58.76 M234.63 244.35 C289.15 174.54, 343.18 111.93, 493.99 -58.26 M231.94 242.78 C333.45 130.30, 431.73 16.68, 495.71 -59.77 M236.67 244.92 C316.32 149.56, 399.63 57.36, 498.88 -57.86 M234.24 246.50 C325.34 138.47, 418.94 30.97, 499.76 -58.27 M235.77 253.49 C294.02 178.70, 359.54 107.31, 503.58 -57.46 M235.78 251.55 C329.76 146.43, 421.56 37.68, 505.66 -57.03 M237.73 257.08 C318.43 163.89, 397.76 71.58, 508.43 -57.27 M237.34 255.99 C332.52 149.46, 425.42 40.76, 510.24 -58.23 M239.16 262.34 C298.55 190.61, 356.99 124.58, 515.47 -56.45 M239.35 259.35 C315.36 174.91, 389.24 91.31, 514.08 -54.90 M240.41 265.93 C317.45 178.67, 392.65 94.00, 515.63 -55.28 M240.30 265.24 C340.85 153.68, 440.48 39.49, 518.03 -54.93 M240.97 268.24 C310.44 189.34, 381.65 109.36, 518.91 -51.70 M242.17 269.00 C304.22 199.18, 367.25 127.68, 520.64 -51.29 M241.94 272.71 C342.88 163.01, 440.03 48.04, 526.50 -48.52 M242.58 272.60 C331.87 174.10, 420.29 73.15, 523.93 -50.86 M245.44 277.36 C334.82 175.75, 423.74 73.97, 528.62 -47.62 M244.37 277.74 C312.23 198.29, 381.62 118.28, 529.50 -49.48 M245.77 280.47 C330.86 188.75, 412.84 96.19, 531.75 -48.53 M247.46 280.29 C335.31 180.74, 422.24 79.27, 532.52 -46.30 M249.26 285.50 C318.38 206.61, 388.50 126.02, 537.41 -46.71 M248.54 284.65 C358.87 154.86, 469.51 29.12, 535.22 -45.59 M251.28 289.87 C335.26 190.24, 423.56 92.24, 537.95 -44.96 M251.75 288.49 C314.08 214.83, 376.09 142.96, 540.17 -43.84 M253.80 290.35 C348.04 186.68, 441.05 78.92, 541.93 -41.23 M254.14 292.49 C326.91 207.82, 400.48 124.11, 543.39 -42.58 M253.65 297.67 C336.47 207.21, 410.12 121.11, 546.52 -40.80 M255.68 295.49 C332.81 208.10, 409.93 117.10, 546.75 -39.23 M258.20 299.35 C316.28 230.90, 375.91 164.80, 552.25 -36.87 M256.73 299.89 C368.65 171.89, 482.73 41.20, 550.92 -38.29 M258.11 304.54 C350.59 201.69, 433.87 99.44, 556.32 -36.20 M259.19 304.36 C370.40 177.17, 482.86 49.29, 555.47 -35.42 M260.38 305.64 C358.93 193.89, 459.04 81.13, 556.33 -34.14 M262.02 306.51 C359.02 197.24, 455.97 86.43, 558.84 -34.84 M264.61 310.51 C386.79 171.01, 506.18 32.23, 560.94 -33.90 M264.49 310.88 C364.74 199.52, 461.58 86.20, 562.13 -33.84 M264.11 315.96 C355.36 212.43, 445.99 105.62, 566.64 -30.00 M265.69 314.16 C369.25 194.43, 474.40 74.77, 566.08 -31.77 M269.17 319.01 C382.42 187.16, 496.23 58.87, 570.11 -29.48 M267.86 318.06 C335.25 234.67, 406.74 153.58, 568.93 -29.30 M271.50 319.37 C368.87 210.03, 466.00 97.55, 571.07 -26.65 M271.25 321.82 C343.22 234.03, 420.06 146.85, 571.83 -25.81 M270.44 326.05 C348.05 236.97, 428.61 145.61, 574.12 -24.42 M272.81 325.54 C386.35 190.81, 503.81 55.10, 576.13 -23.24 M273.74 327.46 C395.82 189.98, 518.30 51.13, 578.55 -22.10 M275.49 327.28 C342.11 252.85, 410.48 176.18, 578.08 -20.64 M276.48 332.75 C362.80 236.00, 444.80 140.62, 583.07 -17.85 M276.95 330.81 C366.34 232.05, 452.27 132.86, 581.49 -18.00 M281.88 335.09 C377.89 222.52, 475.64 110.32, 584.49 -17.13 M281.38 333.80 C349.29 259.16, 414.35 182.74, 584.61 -15.11 M282.30 336.38 C382.25 226.31, 479.33 118.13, 586.17 -12.62 M282.39 336.89 C369.33 238.01, 456.18 137.57, 586.66 -11.93 M285.67 341.56 C388.25 222.70, 490.59 103.92, 590.51 -10.15 M285.11 340.74 C356.94 256.44, 428.78 175.19, 590.26 -9.45 M288.87 344.18 C367.62 248.21, 453.23 150.12, 594.37 -9.28 M289.17 342.72 C368.61 252.48, 448.67 158.92, 594.15 -8.49 M291.96 345.32 C365.86 260.96, 440.29 173.26, 595.66 -5.89 M291.76 345.53 C415.37 207.82, 537.49 67.21, 596.55 -5.55 M295.11 347.02 C386.20 235.16, 484.22 128.17, 599.09 -1.33 M294.79 348.42 C385.20 241.15, 479.74 133.20, 600.64 -2.86 M297.87 352.35 C374.42 259.90, 455.18 165.84, 601.39 0.87 M295.93 352.04 C369.68 265.97, 444.63 180.42, 603.49 -1.27 M300.32 354.39 C364.99 275.79, 433.79 198.07, 605.75 2.74 M299.52 355.43 C367.99 274.51, 436.00 194.16, 606.42 2.64 M301.77 357.17 C385.47 262.20, 473.29 162.76, 607.74 6.21 M302.68 358.59 C391.30 254.89, 482.25 150.23, 609.46 4.49 M306.26 359.25 C410.39 238.73, 515.02 118.31, 610.37 7.96 M304.30 360.60 C404.25 248.63, 502.80 136.21, 612.18 8.21 M305.85 364.61 C406.70 253.57, 502.99 142.55, 613.61 10.07 M306.69 363.42 C398.52 259.67, 489.85 153.50, 614.07 11.93 M309.52 365.42 C382.31 286.45, 451.38 207.82, 616.60 15.01 M310.98 366.24 C411.03 250.16, 514.57 131.12, 616.49 14.07 M311.78 368.12 C392.80 270.51, 477.73 176.09, 620.25 16.11 M313.20 369.67 C426.56 237.14, 542.75 103.21, 618.55 17.08 M315.95 372.23 C414.33 258.13, 514.17 143.00, 621.81 22.70 M317.26 372.57 C402.35 274.87, 485.55 178.93, 621.91 21.58 M318.26 373.05 C437.35 240.65, 552.44 107.68, 622.32 24.09 M318.80 374.29 C403.77 279.95, 484.83 186.11, 624.63 24.80 M323.56 376.48 C435.37 246.29, 547.55 120.21, 625.97 28.90 M322.77 377.30 C410.74 277.57, 498.34 179.27, 627.01 28.23 M328.00 379.88 C431.16 253.62, 534.29 132.93, 627.37 31.24 M327.83 378.24 C398.92 297.11, 470.80 213.89, 628.79 31.40 M328.13 380.88 C439.93 251.55, 551.10 123.50, 631.47 34.99 M329.37 381.36 C413.78 277.81, 502.01 178.13, 631.02 34.38 M333.95 382.75 C397.77 307.37, 462.65 234.28, 633.04 38.24 M334.11 383.45 C408.92 293.44, 486.00 205.31, 634.69 37.84 M336.70 384.26 C425.90 283.15, 510.88 183.96, 634.63 41.08 M338.06 385.41 C406.20 307.01, 473.73 228.47, 635.98 41.31 M340.53 388.49 C419.52 299.70, 492.41 215.42, 638.41 45.69 M340.93 387.66 C450.61 261.81, 559.68 134.97, 637.91 43.45 M342.23 387.88 C459.47 256.02, 573.14 122.39, 641.51 48.78 M343.80 388.19 C432.86 284.57, 522.96 179.22, 641.73 46.64 M349.24 391.26 C419.84 306.14, 488.52 222.62, 643.77 51.29 M347.25 391.61 C452.37 268.27, 560.20 144.62, 644.30 49.39 M351.72 394.55 C413.65 318.45, 482.05 239.72, 645.83 53.99 M351.25 393.61 C464.40 267.31, 574.54 139.93, 646.82 52.80 M353.05 395.01 C443.55 293.09, 532.10 188.92, 649.84 55.93 M354.80 394.75 C426.25 313.55, 495.07 232.62, 647.81 56.91 M359.82 397.97 C470.59 268.47, 581.50 143.85, 651.67 62.96 M358.90 396.65 C467.49 276.29, 574.28 152.79, 650.55 61.52 M360.73 400.51 C447.71 296.95, 538.21 194.55, 653.37 67.49 M360.64 399.78 C468.08 274.77, 579.20 148.92, 651.40 65.11 M363.68 399.28 C429.66 333.43, 486.71 264.19, 651.81 71.25 M364.88 401.36 C461.54 292.13, 554.37 184.01, 654.04 69.82 M370.29 400.58 C445.33 315.44, 521.57 229.00, 654.93 75.56 M370.02 402.27 C471.07 288.12, 567.35 175.65, 654.65 73.72 M372.47 403.96 C446.84 321.85, 519.78 239.14, 656.97 76.22 M374.27 404.37 C469.18 293.81, 562.56 186.48, 656.88 77.37 M379.68 406.31 C453.19 320.97, 530.02 232.56, 659.20 80.22 M378.58 405.84 C485.56 281.82, 594.82 156.96, 659.53 81.82 M381.07 405.62 C493.69 280.10, 605.25 149.50, 659.46 84.70 M381.70 405.89 C450.48 326.28, 519.95 245.63, 660.59 86.27 M386.81 409.46 C481.80 298.09, 577.80 190.05, 664.40 88.66 M386.14 406.49 C481.89 302.08, 574.42 196.65, 661.85 90.15 M391.77 409.16 C487.72 297.28, 585.12 181.99, 663.74 92.12 M390.31 408.54 C473.17 310.70, 555.87 214.75, 663.20 93.43 M396.49 410.12 C491.90 293.58, 593.53 180.71, 667.79 98.93 M394.96 410.84 C454.88 335.42, 518.51 263.00, 665.31 98.21 M399.74 412.27 C499.29 297.05, 598.25 184.44, 667.74 100.47 M397.77 412.49 C486.94 311.74, 574.99 210.43, 667.95 101.04 M401.04 411.16 C477.12 327.64, 548.87 248.82, 668.88 104.68 M402.68 413.41 C506.48 290.52, 612.08 170.88, 668.92 105.48 M405.29 412.12 C474.04 333.04, 542.79 261.54, 671.04 109.63 M407.85 413.58 C470.86 346.61, 529.75 276.86, 671.31 111.83 M410.31 414.53 C473.48 348.16, 530.84 283.08, 671.20 116.47 M410.48 414.65 C504.35 309.00, 598.17 201.84, 670.37 116.33 M415.70 417.07 C508.71 310.50, 601.38 203.28, 670.13 120.65 M415.41 415.79 C487.31 329.87, 563.37 245.27, 671.26 121.33 M421.41 417.14 C494.83 332.03, 566.04 250.00, 673.17 126.72 M419.73 417.49 C503.66 317.81, 592.03 219.75, 671.78 126.30 M425.65 415.10 C506.87 321.51, 586.39 234.64, 674.56 129.91 M426.10 417.56 C506.31 324.45, 587.38 231.04, 672.35 132.94 M430.23 417.67 C527.53 307.83, 622.68 199.39, 674.17 134.97 M430.31 418.01 C487.84 355.46, 543.05 290.71, 673.36 137.50 M438.09 418.07 C509.26 329.58, 582.17 247.88, 673.05 145.05 M437.23 416.06 C514.94 326.63, 592.44 238.72, 674.69 142.79 M440.68 418.88 C494.45 359.41, 545.40 296.42, 676.94 145.74 M440.61 418.24 C523.70 316.76, 607.45 221.02, 675.52 147.38 M448.54 417.13 C517.93 336.61, 583.57 258.61, 676.97 153.85 M447.34 417.33 C522.51 331.20, 599.46 241.12, 677.44 152.63 M451.85 414.54 C516.69 343.12, 580.82 265.01, 677.42 157.78 M452.02 417.65 C523.22 332.71, 593.70 248.79, 678.11 158.34 M458.57 418.34 C546.93 316.41, 632.19 216.60, 677.13 165.30 M457.66 418.00 C541.21 324.08, 623.87 229.63, 677.16 163.24 M460.55 419.52 C511.31 365.98, 553.97 310.59, 679.66 169.01 M462.69 418.17 C545.00 321.55, 628.08 224.69, 676.37 170.17 M469.46 418.82 C541.27 329.67, 621.11 239.35, 677.94 177.02 M468.60 417.78 C551.61 323.82, 635.57 229.54, 676.31 176.68 M476.27 417.07 C542.22 344.56, 608.25 266.18, 675.48 183.25 M474.41 416.39 C545.34 336.60, 617.65 252.26, 677.08 182.88 M480.44 416.31 C518.63 369.43, 558.29 323.92, 673.30 188.75 M479.83 415.21 C537.04 348.84, 597.16 281.75, 674.21 190.66 M488.79 416.65 C547.38 344.85, 610.36 276.59, 676.46 196.03 M486.44 414.90 C549.85 339.63, 616.72 263.17, 674.17 196.75 M490.17 413.60 C538.72 364.01, 586.24 306.21, 675.17 207.48 M491.57 414.33 C563.21 334.01, 630.22 253.60, 674.79 205.08 M502.04 410.32 C537.54 368.13, 575.79 322.92, 674.63 212.18 M500.16 411.73 C550.16 354.39, 598.39 297.95, 672.86 212.11 M504.87 411.68 C562.95 344.80, 619.66 277.69, 671.63 218.34 M505.60 409.83 C571.27 338.59, 633.94 268.24, 672.93 218.89 M513.27 410.50 C549.25 366.69, 580.06 329.51, 671.64 227.73 M512.35 407.56 C565.66 348.17, 613.46 292.75, 672.36 224.97 M516.29 405.95 C567.28 353.86, 619.06 296.09, 667.76 233.84 M518.54 406.89 C573.85 347.78, 627.08 283.87, 671.64 233.51 M523.87 407.46 C572.46 351.62, 616.76 298.26, 664.91 241.18 M524.63 404.04 C558.21 372.76, 588.89 334.88, 666.01 243.34 M532.40 400.16 C580.39 346.07, 632.15 293.48, 660.48 252.89 M535.37 402.65 C577.85 354.04, 619.22 304.93, 664.96 250.97 M540.78 399.18 C575.30 358.84, 614.80 315.17, 657.95 259.39 M545.62 396.92 C569.25 365.28, 594.47 334.75, 661.05 261.80 M556.66 388.62 C582.50 360.07, 613.26 329.53, 659.09 271.94 M555.16 391.95 C592.30 345.57, 635.32 299.24, 656.30 269.49 M563.48 382.50 C584.78 358.50, 611.42 332.42, 657.95 283.59 M566.08 383.75 C599.81 341.58, 636.71 302.63, 656.12 281.13 M572.63 375.69 C591.68 360.12, 604.63 347.13, 647.10 300.57 M577.40 379.35 C587.53 360.42, 601.04 343.53, 643.55 299.58 M606.73 349.13 C609.77 344.53, 621.33 332.82, 631.37 326.24 M605.49 352.65 C610.94 345.01, 615.25 337.32, 630.71 322.53" fill="#faf7ef" stroke="none"/><path d="M298.73 -3.93 C309.62 -19.58, 326.43 -29.25, 342.67 -38.74 C358.92 -48.22, 377.69 -56.34, 396.22 -60.84 C414.75 -65.33, 434.87 -66.22, 453.84 -65.71 C472.80 -65.20, 491.46 -63.49, 510.04 -57.79 C528.61 -52.10, 548.94 -41.81, 565.26 -31.54 C581.59 -21.26, 594.66 -10.06, 607.98 3.85 C621.29 17.76, 635.00 35.17, 645.16 51.94 C655.32 68.72, 663.50 85.91, 668.93 104.50 C674.35 123.09, 677.20 143.33, 677.71 163.50 C678.22 183.67, 676.03 205.41, 671.97 225.54 C667.91 245.67, 661.46 266.53, 653.35 284.29 C645.24 302.04, 635.42 316.88, 623.30 332.07 C611.19 347.27, 596.02 363.59, 580.67 375.47 C565.31 387.36, 548.98 396.43, 531.16 403.38 C513.35 410.33, 492.88 414.90, 473.77 417.15 C454.67 419.41, 435.17 419.75, 416.53 416.90 C397.90 414.06, 379.14 407.87, 361.97 400.08 C344.80 392.29, 328.48 382.59, 313.52 370.14 C298.56 357.70, 283.92 341.06, 272.24 325.40 C260.56 309.73, 251.48 294.61, 243.43 276.18 C235.38 257.75, 227.62 234.52, 223.92 214.82 C220.22 195.12, 219.55 177.96, 221.25 157.99 C222.94 138.03, 227.59 114.17, 234.09 95.02 C240.59 75.88, 244.12 63.86, 260.24 43.13 C276.37 22.40, 312.78 -14.92, 330.82 -29.36 C348.86 -43.79, 366.32 -46.53, 368.48 -43.48 M352.27 -43.09 C366.53 -54.66, 385.70 -57.77, 404.43 -61.38 C423.16 -64.99, 445.76 -65.93, 464.65 -64.76 C483.54 -63.59, 499.63 -60.76, 517.79 -54.36 C535.95 -47.96, 557.18 -37.48, 573.61 -26.36 C590.05 -15.24, 603.93 -1.92, 616.39 12.36 C628.86 26.65, 639.06 42.12, 648.40 59.35 C657.74 76.57, 667.58 96.99, 672.43 115.72 C677.28 134.44, 677.23 152.05, 677.50 171.68 C677.77 191.32, 678.14 214.09, 674.06 233.54 C669.98 253.00, 662.33 270.27, 653.02 288.42 C643.71 306.58, 631.28 326.88, 618.21 342.46 C605.13 358.05, 590.54 371.48, 574.57 381.92 C558.60 392.36, 540.47 399.61, 522.38 405.11 C504.30 410.60, 484.65 413.41, 466.05 414.91 C447.45 416.42, 429.15 417.25, 410.78 414.14 C392.41 411.03, 373.56 404.44, 355.83 396.26 C338.11 388.08, 318.98 378.08, 304.43 365.04 C289.89 352.00, 280.03 334.52, 268.56 318.02 C257.10 301.53, 243.10 284.47, 235.65 266.07 C228.21 247.66, 225.61 227.24, 223.91 207.59 C222.21 187.94, 223.20 168.25, 225.45 148.16 C227.69 128.08, 231.35 105.94, 237.38 87.10 C243.41 68.26, 250.71 51.26, 261.62 35.12 C272.52 18.98, 288.22 3.21, 302.82 -9.75 C317.42 -22.71, 340.80 -38.04, 349.22 -42.64 C357.65 -47.23, 350.86 -40.87, 353.37 -37.34" fill="none" stroke="#202020" stroke-width="2" stroke-linecap="round" stroke-linejoin="round"/><path d="M455.02 70.72 C467.88 69.94, 481.01 76.84, 493.38 81.71 C505.75 86.57, 519.68 91.30, 529.24 99.91 C538.81 108.51, 545.73 121.64, 550.75 133.35 C555.78 145.05, 558.55 157.31, 559.39 170.11 C560.23 182.92, 559.81 198.22, 555.78 210.16 C551.74 222.10, 543.51 232.59, 535.16 241.74 C526.81 250.89, 517.08 258.97, 505.69 265.08 C494.29 271.18, 480.30 276.21, 466.80 278.35 C453.31 280.50, 437.99 280.89, 424.72 277.94 C411.44 274.99, 398.09 268.09, 387.16 260.68 C376.23 253.28, 366.70 243.30, 359.14 233.51 C351.59 223.73, 345.25 213.91, 341.82 201.99 C338.39 190.07, 336.77 174.96, 338.56 162.00 C340.36 149.04, 345.76 135.12, 352.60 124.21 C359.44 113.31, 369.26 104.18, 379.60 96.59 C389.94 88.99, 391.58 78.66, 414.62 78.62 C437.66 78.59, 494.33 84.28, 517.86 96.40 C541.39 108.51, 557.01 150.42, 555.80 151.32 M367.35 105.38 C374.56 95.37, 387.03 86.35, 399.37 81.12 C411.71 75.89, 427.26 74.98, 441.39 73.99 C455.52 73.01, 471.83 72.38, 484.13 75.20 C496.43 78.02, 505.38 83.38, 515.18 90.91 C524.98 98.44, 535.30 109.34, 542.93 120.36 C550.55 131.38, 558.38 144.24, 560.95 157.02 C563.52 169.80, 560.97 184.82, 558.34 197.03 C555.71 209.23, 552.49 219.26, 545.17 230.23 C537.84 241.20, 525.09 254.76, 514.39 262.84 C503.70 270.93, 493.55 275.80, 481.00 278.74 C468.46 281.67, 452.76 281.66, 439.11 280.44 C425.47 279.22, 411.04 276.89, 399.13 271.40 C387.21 265.91, 376.24 257.64, 367.61 247.50 C358.98 237.36, 351.78 222.81, 347.37 210.56 C342.96 198.31, 341.41 185.95, 341.14 173.99 C340.87 162.02, 341.55 149.86, 345.74 138.76 C349.94 127.66, 362.51 112.64, 366.33 107.36 C370.14 102.09, 366.79 106.22, 368.62 107.09" fill="#faf7ef" stroke="none"/><path d="M476.43 74.91 C489.58 76.26, 502.97 82.68, 513.98 89.71 C524.99 96.75, 535.04 106.45, 542.49 117.11 C549.94 127.77, 555.96 141.63, 558.70 153.68 C561.44 165.74, 560.71 177.04, 558.92 189.44 C557.13 201.84, 554.29 216.75, 547.98 228.07 C541.66 239.39, 531.57 249.51, 521.01 257.34 C510.46 265.18, 497.39 271.06, 484.63 275.08 C471.87 279.10, 458.04 282.30, 444.46 281.48 C430.88 280.66, 415.42 275.44, 403.15 270.16 C390.88 264.88, 380.25 258.31, 370.85 249.80 C361.46 241.29, 352.34 230.40, 346.77 219.10 C341.20 207.81, 337.62 194.98, 337.43 182.03 C337.24 169.08, 341.33 153.70, 345.64 141.39 C349.95 129.08, 354.55 117.79, 363.27 108.19 C372.00 98.60, 385.77 89.62, 397.97 83.81 C410.16 78.00, 414.25 70.30, 436.45 73.33 C458.65 76.36, 511.28 88.60, 531.16 101.99 C551.05 115.39, 557.24 152.10, 555.77 153.69 M420.22 74.43 C431.24 69.74, 442.93 72.02, 456.39 73.78 C469.84 75.54, 488.04 79.48, 500.94 85.00 C513.85 90.53, 524.91 98.43, 533.81 106.95 C542.72 115.46, 549.40 124.64, 554.38 136.11 C559.36 147.59, 563.47 163.09, 563.67 175.79 C563.87 188.50, 561.03 200.29, 555.56 212.36 C550.08 224.44, 540.40 238.83, 530.81 248.25 C521.23 257.67, 509.87 263.38, 498.04 268.89 C486.21 274.41, 472.90 279.94, 459.83 281.32 C446.76 282.70, 431.72 281.08, 419.63 277.18 C407.54 273.28, 397.79 265.28, 387.30 257.91 C376.82 250.53, 364.57 243.52, 356.70 232.92 C348.82 222.33, 342.92 206.45, 340.05 194.35 C337.19 182.25, 336.72 172.77, 339.53 160.33 C342.34 147.89, 349.31 131.01, 356.92 119.71 C364.53 108.41, 374.91 99.36, 385.18 92.55 C395.46 85.74, 412.99 80.86, 418.60 78.84 C424.21 76.83, 418.32 79.31, 418.84 80.45" fill="none" stroke="#202020" stroke-width="2" stroke-linecap="round" stroke-linejoin="round"/><path d="M654.00 -29.61 C690.04 -65.30, 714.99 -91.10, 734.82 -108.17 M655.10 -30.80 C677.96 -54.31, 703.26 -77.56, 735.32 -110.38" fill="none" stroke="#202020" stroke-width="2" stroke-linecap="round" stroke-linejoin="round"/><path d="M656.35 385.47 C680.03 404.33, 703.72 422.75, 736.20 466.31 M658.05 382.56 C678.97 403.60, 701.07 424.22, 736.66 461.24" fill="none" stroke="#202020" stroke-width="2" stroke-linecap="round" stroke-linejoin="round"/><path d="M245.65 378.34 C227.33 398.00, 211.98 414.62, 164.58 459.80 M242.22 382.91 C224.96 400.78, 204.12 420.76, 162.44 462.51" fill="none" stroke="#202020" stroke-width="2" stroke-linecap="round" stroke-linejoin="round"/><path d="M240.67 -28.42 C221.80 -49.54, 200.88 -72.88, 166.96 -109.64 M243.88 -28.40 C221.05 -54.59, 201.76 -73.87, 165.29 -109.13" fill="none" stroke="#202020" stroke-width="2" stroke-linecap="round" stroke-linejoin="round"/></svg>