<svg xmlns="http://www.w3.org/2000/svg" viewBox="0 0 900 320" width="900" height="320"><path d="M449.21 15.07 C589.89 58.54, 729.42 106.25, 883.42 158.55 M450.61 16.11 C569.63 59.00, 690.41 98.02, 883.62 159.99 M882.27 159.93 C785.24 193.56, 688.30 223.08, 448.96 305.02 M884.31 160.23 C754.09 203.87, 624.77 245.75, 449.58 303.85 M450.00 305.66 C302.33 258.19, 157.31 211.03, 14.57 161.72 M449.39 303.62 C342.75 269.19, 233.21 233.12, 16.52 159.93 M16.41 161.18 C115.26 129.35, 212.75 95.96, 451.75 15.43 M16.46 160.42 C160.65 108.88, 303.54 61.21, 450.06 16.25" fill="none" stroke="#202020" stroke-width="2" stroke-linecap="round" stroke-linejoin="round"/><path d="M25.70 162.16 C30.22 158.88, 33.50 159.45, 50.99 160.46 M26.68 160.30 C30.79 160.72, 38.27 158.48, 50.09 161.92" fill="none" stroke="#202020" stroke-width="2" stroke-linecap="round" stroke-linejoin="round"/><path d="M845.42 162.63 C859.95 162.41, 864.78 156.56, 877.91 157.30 M849.57 158.76 C858.48 161.26, 868.22 161.17, 872.05 160.62" fill="none" stroke="#202020" stroke-width="2" stroke-linecap="round" stroke-linejoin="round"/><path d="M42.50 154.73 C47.46 155.15, 49.51 158.57, 51.00 159.11 M43.15 154.77 C46.57 156.83, 48.26 158.65, 50.34 159.80 M49.41 160.50 C50.46 160.94, 48.05 163.08, 44.25 165.34 M51.65 159.39 C49.46 161.25, 47.24 162.19, 44.00 164.91" fill="none" stroke="#202020" stroke-width="2" stroke-linecap="round" stroke-linejoin="round"/><path d="M856.41 154.57 C854.02 157.42, 852.67 159.22, 848.19 160.33 M856.19 154.90 C854.17 155.80, 853.70 156.83, 848.32 160.27 M848.39 158.62 C851.66 162.54, 851.00 162.73, 856.31 163.88 M849.51 159.23 C850.89 160.49, 852.28 162.12, 856.43 164.41" fill="none" stroke="#202020" stroke-width="2" stroke-linecap="round" stroke-linejoin="round"/></svg>