<svg xmlns="http://www.w3.org/2000/svg" viewBox="0 0 436 310" width="436" height="310"><path d="M106.54 77.30 L318.90 80.91 L317.61 280.79 L107.12 284.59" fill="#faf7ef" stroke="none"/><path d="M101.68 80.56 C176.75 82.85, 239.11 79.36, 314.66 80.75 M105.58 78.34 C161.60 76.75, 218.24 78.09, 315.11 77.33 M314.17 75.64 C313.22 131.17, 317.48 186.46, 316.78 282.64 M314.76 79.66 C318.97 121.69, 317.11 166.60, 316.56 285.29 M312.49 283.49 C268.10 278.87, 220.21 284.04, 104.10 282.02 M316.07 284.59 C244.04 288.32, 169.09 288.60, 103.56 283.03 M105.38 281.45 C106.10 208.67, 104.41 135.50, 102.85 79.48 M103.45 283.58 C104.72 204.03, 105.07 124.50, 105.65 79.21" fill="none" stroke="#202020" stroke-width="3" stroke-linecap="round" stroke-linejoin="round"/><path d="M93.52 79.87 L209.35 44.77 L325.69 77.97" fill="#faf7ef" stroke="none"/><path d="M98.76 74.41 C115.93 71.40, 146.30 59.48, 213.64 40.84 M96.36 79.32 C128.35 66.55, 158.77 56.66, 209.56 44.08 M211.44 40.16 C255.54 60.44, 296.81 71.72, 328.16 75.43 M211.36 44.06 C238.59 48.85, 265.64 57.98, 324.91 77.36 M323.21 79.13 C263.86 80.83, 207.37 80.67, 92.16 78.34 M323.82 77.42 C268.99 77.22, 209.36 77.93, 95.23 79.87" fill="none" stroke="#202020" stroke-width="3" stroke-linecap="round" stroke-linejoin="round"/><path d="M165.09 132.82 L252.81 128.73 L253.73 193.18 L164.74 194.07" fill="#faf7ef" stroke="none"/><path d="M165.76 126.07 C197.44 128.84, 231.36 130.44, 252.29 131.93 M166.06 127.70 C200.45 131.59, 230.97 130.98, 251.63 128.23 M253.97 133.41 C254.38 152.16, 249.32 180.85, 248.43 190.79 M252.17 130.03 C249.96 143.57, 249.74 157.84, 253.98 193.83 M252.76 190.88 C220.04 192.35, 183.88 192.20, 167.27 191.91 M251.90 191.66 C227.08 193.96, 198.61 192.47, 169.45 192.00 M169.85 192.78 C171.05 174.23, 170.37 153.37, 171.35 126.09 M169.31 191.70 C170.75 173.10, 170.49 156.14, 168.27 131.32" fill="none" stroke="#202020" stroke-width="3" stroke-linecap="round" stroke-linejoin="round"/><path d="M157.92 211.56 L265.39 215.51 L266.13 287.56 L157.04 285.06" fill="#faf7ef" stroke="none"/><path d="M157.91 211.46 C193.52 212.92, 232.11 216.54, 259.41 212.60 M158.44 211.76 C192.29 210.03, 224.71 210.20, 261.48 212.53 M260.39 210.89 C258.39 236.64, 260.85 267.91, 262.95 280.31 M264.14 212.26 C262.17 232.70, 261.42 254.10, 261.12 284.85 M263.30 281.10 C225.28 286.71, 191.07 280.78, 157.64 286.99 M264.45 283.11 C242.12 285.15, 220.97 284.01, 158.31 285.47 M158.83 283.30 C155.92 252.82, 155.53 230.76, 157.55 212.26 M157.65 283.15 C157.69 257.19, 154.67 232.56, 158.24 212.24" fill="none" stroke="#202020" stroke-width="3" stroke-linecap="round" stroke-linejoin="round"/></svg>