<svg xmlns="http://www.w3.org/2000/svg" viewBox="0 0 436 310" width="436" height="310"><path d="M103.51 81.36 L315.80 77.83 L315.00 285.11 L105.95 280.23" fill="#faf7ef" stroke="none"/><path d="M103.28 76.58 C179.83 83.44, 246.99 78.16, 312.90 75.49 M104.33 77.22 C156.86 73.37, 205.14 75.41, 314.96 77.00 M313.33 81.66 C313.73 143.71, 311.13 207.72, 315.76 285.50 M313.23 79.77 C313.75 119.92, 313.61 166.21, 316.51 282.57 M315.22 285.04 C255.19 288.84, 192.40 285.81, 107.57 280.55 M315.72 284.03 C248.41 284.32, 176.83 281.72, 105.96 284.28 M107.42 285.15 C103.62 225.28, 105.46 174.65, 102.00 78.44 M103.82 283.03 C104.59 212.00, 105.65 136.21, 104.63 76.43" fill="none" stroke="#202020" stroke-width="3" stroke-linecap="round" stroke-linejoin="round"/><path d="M91.84 80.10 L212.76 46.73 L326.01 79.49" fill="#faf7ef" stroke="none"/><path d="M94.54 81.08 C123.66 72.49, 150.42 60.54, 212.09 44.38 M96.20 78.80 C140.28 61.16, 183.19 48.21, 208.16 42.31 M207.37 43.39 C239.51 48.58, 261.28 61.15, 323.67 81.86 M211.32 43.57 C236.50 50.16, 263.87 57.78, 323.54 79.61 M325.48 79.10 C257.11 79.93, 183.94 76.14, 92.19 80.75 M325.70 78.99 C234.48 79.00, 147.58 78.10, 95.88 78.78" fill="none" stroke="#202020" stroke-width="3" stroke-linecap="round" stroke-linejoin="round"/><path d="M166.65 127.70 L255.80 129.51 L248.82 196.10 L165.26 190.16" fill="#faf7ef" stroke="none"/><path d="M166.64 126.12 C197.49 131.18, 221.38 128.79, 249.21 129.24 M167.81 128.35 C196.42 128.15, 223.50 127.33, 253.79 130.51 M250.09 129.25 C248.97 144.77, 249.76 162.08, 253.15 189.35 M251.11 130.82 C254.56 148.39, 251.29 167.93, 251.51 194.38 M251.84 193.02 C226.53 196.65, 194.68 191.75, 164.00 191.85 M252.22 192.50 C229.22 189.68, 207.44 192.51, 169.26 191.39 M167.93 193.96 C165.52 175.32, 166.72 150.36, 170.37 126.75 M166.87 191.31 C167.73 177.39, 168.29 162.03, 167.35 129.54" fill="none" stroke="#202020" stroke-width="3" stroke-linecap="round" stroke-linejoin="round"/><path d="M160.45 214.77 L264.78 209.97 L263.93 286.92 L157.75 285.90" fill="#faf7ef" stroke="none"/><path d="M161.11 208.04 C176.75 213.23, 202.60 213.94, 258.65 211.30 M158.26 213.07 C183.23 213.36, 213.40 211.64, 260.86 211.42 M262.57 209.08 C265.07 226.37, 261.33 248.36, 264.90 281.55 M260.93 210.41 C263.06 230.14, 265.04 244.17, 263.37 285.80 M264.43 282.82 C241.16 280.89, 209.72 284.36, 153.92 280.08 M263.75 284.10 C221.65 283.68, 182.69 281.02, 158.92 282.10 M154.74 281.59 C153.33 259.02, 157.97 227.80, 159.34 209.07 M157.47 285.39 C155.58 258.88, 154.40 236.91, 159.32 213.66" fill="none" stroke="#202020" stroke-width="3" stroke-linecap="round" stroke-linejoin="round"/></svg>