<svg xmlns="http://www.w3.org/2000/svg" viewBox="0 0 900 300" width="900" height="300"><path d="M23.69 263.33 L58.98 256.11 L54.26 291.86 L16.83 293.75" fill="#faf7ef" stroke="none"/><path d="M16.03 262.48 C26.67 258.34, 40.52 257.15, 56.82 256.83 M20.59 261.23 C32.13 260.09, 44.04 261.69, 53.40 258.27 M52.01 260.03 C56.74 271.39, 56.15 275.85, 56.47 292.31 M56.06 258.16 C53.78 267.44, 55.47 274.77, 56.91 288.63 M53.41 287.92 C45.66 289.52, 28.97 290.08, 18.57 293.47 M54.60 289.20 C48.58 288.97, 39.11 289.90, 19.69 289.51 M17.51 293.32 C23.21 284.05, 18.91 280.45, 19.84 263.66 M20.93 288.32 C17.97 281.54, 21.04 268.86, 18.69 260.98" fill="none" stroke="#202020" stroke-width="2" stroke-linecap="round" stroke-linejoin="round"/><path d="M60.36 263.72 L98.70 258.24 L96.73 286.90 L57.10 291.58" fill="#faf7ef" stroke="none"/><path d="M60.30 258.05 C75.39 258.10, 87.25 258.53, 97.76 258.85 M58.15 259.90 C73.62 261.36, 82.60 259.98, 96.85 258.23 M93.79 263.20 C97.52 268.22, 97.45 271.60, 93.93 290.85 M95.78 261.34 C95.12 266.67, 96.95 275.66, 96.27 288.52 M97.68 292.61 C85.95 292.92, 72.16 291.92, 63.35 293.43 M95.71 291.63 C83.49 292.01, 71.55 290.46, 60.47 291.51 M56.29 291.00 C63.55 279.02, 58.64 273.19, 57.61 261.23 M61.18 289.95 C59.09 278.75, 59.00 269.29, 60.41 261.28" fill="none" stroke="#202020" stroke-width="2" stroke-linecap="round" stroke-linejoin="round"/><path d="M102.12 258.45 L131.97 257.40 L137.73 287.87 L100.16 289.79" fill="#faf7ef" stroke="none"/><path d="M97.24 257.23 C108.19 256.26, 120.78 261.02, 135.84 257.46 M98.01 258.13 C114.01 261.01, 125.80 262.16, 135.90 258.15 M135.70 259.44 C138.43 269.48, 132.67 278.42, 137.35 291.59 M133.72 261.52 C136.98 269.70, 133.59 280.98, 133.17 288.64 M131.95 290.81 C121.99 290.80, 117.09 290.35, 97.92 290.96 M136.02 288.76 C124.41 288.68, 115.99 290.59, 100.58 291.17 M97.27 292.96 C96.00 279.81, 98.73 271.27, 99.44 259.43 M100.41 291.36 C100.96 282.02, 100.71 272.50, 101.36 260.73" fill="none" stroke="#202020" stroke-width="2" stroke-linecap="round" stroke-linejoin="round"/><path d="M42.72 221.88 L75.33 221.60 L76.70 251.63 L43.35 254.68" fill="#faf7ef" stroke="none"/><path d="M37.90 221.67 C46.89 222.72, 60.89 223.16, 72.16 224.72 M41.11 223.26 C53.52 225.44, 69.77 224.47, 76.02 225.12 M73.10 224.63 C71.93 239.25, 71.57 242.36, 77.42 252.45 M73.13 223.95 C74.01 230.39, 76.61 238.00, 76.35 254.40 M78.29 251.34 C66.49 253.46, 55.03 254.20, 41.29 255.25 M74.63 256.32 C59.73 254.53, 47.59 255.32, 41.29 255.29 M38.08 253.94 C43.38 246.70, 41.83 228.88, 41.19 228.27 M38.34 255.76 C41.20 245.17, 40.71 237.30, 40.98 226.93" fill="none" stroke="#202020" stroke-width="2" stroke-linecap="round" stroke-linejoin="round"/><path d="M80.00 226.30 L112.88 221.15 L112.24 256.42 L76.15 256.93" fill="#faf7ef" stroke="none"/><path d="M80.83 222.95 C91.80 227.92, 96.36 228.57, 112.65 227.56 M78.52 225.69 C93.96 227.04, 106.67 227.29, 114.10 225.04 M113.89 223.45 C112.53 236.43, 117.21 247.45, 116.41 251.53 M113.89 224.96 C115.84 236.47, 115.28 244.14, 115.20 253.09 M118.44 252.02 C109.62 255.27, 94.04 254.16, 80.66 255.20 M116.49 254.24 C104.62 254.92, 93.89 254.64, 79.83 253.52 M78.10 258.15 C80.34 245.10, 80.94 243.30, 83.96 227.81 M80.33 253.88 C81.42 241.55, 81.32 230.97, 79.34 223.01" fill="none" stroke="#202020" stroke-width="2" stroke-linecap="round" stroke-linejoin="round"/><path d="M62.47 186.97 L93.88 191.26 L95.85 223.84 L63.41 220.47" fill="#faf7ef" stroke="none"/><path d="M57.13 193.58 C73.49 188.38, 78.21 187.77, 96.41 191.19 M61.18 191.94 C71.08 192.02, 82.59 191.98, 93.37 191.67 M94.97 189.48 C95.46 197.08, 96.98 211.56, 96.14 222.70 M96.59 189.37 C96.36 196.07, 96.98 201.01, 94.87 218.10 M93.75 221.80 C89.95 221.91, 77.91 217.58, 56.67 220.73 M96.81 218.95 C81.85 219.65, 69.68 217.74, 61.67 220.91 M61.75 217.40 C63.39 209.25, 56.48 196.33, 61.26 191.51 M60.07 220.89 C58.58 208.72, 61.01 199.49, 60.08 188.21" fill="none" stroke="#202020" stroke-width="2" stroke-linecap="round" stroke-linejoin="round"/><path d="M849.25 22.59 L881.66 22.16 L886.82 52.81 L848.92 47.01" fill="#faf7ef" stroke="none"/><path d="M849.36 20.18 C860.38 22.05, 865.64 16.54, 886.87 18.05 M851.48 20.12 C859.04 18.32, 870.82 18.95, 884.12 21.59 M887.77 17.59 C882.70 27.81, 881.21 37.73, 884.70 48.62 M885.44 18.27 C885.40 29.55, 886.03 42.40, 885.11 48.44 M888.55 47.53 C874.54 50.68, 872.77 47.44, 852.87 51.04 M885.17 48.64 C871.34 50.31, 859.10 48.88, 848.57 50.56 M846.05 50.34 C848.42 42.14, 847.96 33.60, 853.09 18.57 M851.93 48.32 C851.74 40.81, 850.65 33.66, 849.73 20.18" fill="none" stroke="#202020" stroke-width="2" stroke-linecap="round" stroke-linejoin="round"/><path d="M864.66 51.29 C872.35 92.40, 866.88 126.91, 871.91 176.34 M866.49 54.02 C868.47 97.26, 867.86 137.44, 869.09 181.21" fill="none" stroke="#202020" stroke-width="2" stroke-linecap="round" stroke-linejoin="round"/></svg>