<svg xmlns="http://www.w3.org/2000/svg" viewBox="0 0 960 420" width="960" height="420"><path d="M18.08 383.00 L55.91 380.48 L56.37 407.87 L23.09 409.06" fill="#faf7ef" stroke="none"/><path d="M23.24 378.58 C24.71 378.33, 36.40 381.69, 58.12 377.26 M21.84 381.73 C31.79 380.26, 41.40 381.40, 55.11 379.35 M56.42 376.80 C51.20 393.25, 57.81 404.67, 58.29 407.50 M55.07 378.73 C53.25 386.14, 53.47 394.30, 54.22 409.73 M56.93 408.72 C44.65 412.38, 28.08 410.37, 21.18 410.52 M55.01 409.33 C42.04 408.26, 30.44 411.11, 18.08 409.63 M16.78 407.68 C19.27 403.62, 21.22 389.08, 16.02 381.80 M20.50 410.74 C21.06 405.19, 18.05 399.33, 21.67 378.53" fill="none" stroke="#202020" stroke-width="2" stroke-linecap="round" stroke-linejoin="round"/><path d="M56.06 382.80 L96.99 381.46 L94.45 406.18 L62.35 411.76" fill="#faf7ef" stroke="none"/><path d="M56.41 379.18 C66.80 383.29, 77.69 377.08, 94.14 381.06 M58.59 379.84 C69.01 380.88, 80.30 378.33, 93.99 378.62 M92.89 382.84 C98.05 387.58, 96.07 397.41, 98.66 413.25 M95.90 380.62 C95.18 387.79, 95.78 396.44, 96.75 411.22 M91.87 409.82 C85.78 407.22, 79.15 410.46, 60.63 412.09 M93.57 409.08 C82.50 408.63, 69.39 410.32, 58.20 410.52 M57.85 409.53 C62.78 402.54, 62.38 392.12, 56.49 376.23 M60.63 410.56 C61.96 400.74, 59.31 393.86, 59.47 378.78" fill="none" stroke="#202020" stroke-width="2" stroke-linecap="round" stroke-linejoin="round"/><path d="M103.08 378.64 L132.66 379.27 L134.30 409.12 L99.39 409.81" fill="#faf7ef" stroke="none"/><path d="M100.08 382.05 C115.35 375.83, 122.22 382.58, 138.05 378.02 M101.43 380.58 C107.24 379.81, 119.66 381.41, 134.92 381.37 M135.71 376.82 C138.97 386.71, 138.45 399.21, 132.83 413.67 M133.18 378.16 C136.32 388.65, 133.46 395.45, 136.43 409.83 M137.49 409.57 C131.03 409.07, 120.79 411.00, 101.06 411.08 M136.22 410.82 C123.40 411.78, 113.75 408.75, 100.71 411.38 M96.74 409.54 C98.62 402.54, 98.78 391.96, 103.29 383.78 M100.24 410.71 C100.24 397.80, 99.27 386.48, 98.64 379.75" fill="none" stroke="#202020" stroke-width="2" stroke-linecap="round" stroke-linejoin="round"/><path d="M39.31 344.18 L75.99 346.72 L74.39 377.46 L42.50 377.94" fill="#faf7ef" stroke="none"/><path d="M38.25 347.50 C51.38 343.75, 63.56 347.60, 72.30 342.71 M40.87 345.76 C50.76 347.11, 60.45 347.12, 74.98 344.85 M77.76 344.27 C71.57 352.53, 78.44 365.12, 72.73 373.88 M74.41 345.13 C74.53 352.94, 75.86 364.90, 74.85 375.07 M72.27 378.84 C57.68 374.16, 48.34 374.67, 38.76 372.04 M76.11 376.02 C61.28 375.56, 50.45 374.52, 41.13 373.75 M43.37 375.46 C41.20 368.70, 43.07 355.07, 39.12 346.99 M40.42 375.03 C40.59 362.83, 38.20 351.86, 41.69 345.86" fill="none" stroke="#202020" stroke-width="2" stroke-linecap="round" stroke-linejoin="round"/><path d="M81.90 346.57 L118.03 348.20 L117.12 375.00 L82.66 373.45" fill="#faf7ef" stroke="none"/><path d="M76.36 345.70 C91.31 342.22, 105.76 341.22, 117.69 347.55 M81.81 345.22 C91.83 345.00, 101.56 344.55, 114.47 344.14 M112.48 346.17 C118.06 353.74, 116.37 363.18, 118.58 374.13 M113.35 343.75 C114.49 353.84, 114.94 364.55, 113.62 375.17 M114.83 373.55 C100.43 375.29, 93.06 371.71, 77.87 371.83 M114.98 373.41 C105.83 374.05, 94.46 375.14, 78.86 373.66 M78.00 372.61 C76.57 368.60, 81.60 354.49, 83.69 341.63 M81.72 375.83 C77.47 369.45, 79.47 362.19, 80.23 343.74" fill="none" stroke="#202020" stroke-width="2" stroke-linecap="round" stroke-linejoin="round"/><path d="M58.78 311.72 L98.63 307.62 L97.36 339.18 L60.79 343.70" fill="#faf7ef" stroke="none"/><path d="M62.45 307.17 C66.02 310.95, 76.84 313.13, 98.11 309.83 M58.65 309.10 C68.07 309.31, 77.67 309.77, 95.91 309.28 M98.87 306.35 C98.91 322.99, 98.59 331.73, 94.74 337.47 M96.07 308.15 C95.59 316.84, 95.59 325.12, 96.46 338.91 M98.84 338.48 C87.80 340.21, 73.21 341.93, 61.70 341.76 M96.62 339.70 C85.98 339.89, 80.55 340.18, 59.28 341.23 M56.57 337.13 C62.64 336.16, 60.32 325.87, 63.89 311.79 M59.20 339.57 C58.47 332.59, 58.03 321.47, 58.59 311.64" fill="none" stroke="#202020" stroke-width="2" stroke-linecap="round" stroke-linejoin="round"/><path d="M906.61 20.82 L948.72 19.83 L943.23 46.80 L913.80 48.92" fill="#faf7ef" stroke="none"/><path d="M909.72 21.36 C919.36 16.70, 932.61 16.45, 943.39 17.30 M911.40 21.38 C923.98 19.48, 935.47 20.75, 943.69 18.67 M948.85 20.89 C943.69 22.70, 945.55 31.15, 947.54 49.20 M945.31 19.11 C943.92 26.49, 945.03 34.99, 944.68 48.76 M944.42 49.75 C930.42 53.99, 922.26 49.42, 907.50 52.13 M945.13 48.41 C935.24 50.48, 925.32 47.83, 908.58 50.16 M909.37 46.38 C906.88 42.20, 911.03 35.69, 910.58 16.07 M911.05 49.90 C911.14 38.94, 911.09 26.52, 911.84 18.25" fill="none" stroke="#202020" stroke-width="2" stroke-linecap="round" stroke-linejoin="round"/><path d="M926.83 57.51 C931.96 149.98, 929.86 237.27, 926.77 297.99 M928.06 56.52 C923.47 109.15, 925.47 167.75, 928.42 298.94" fill="none" stroke="#202020" stroke-width="2" stroke-linecap="round" stroke-linejoin="round"/></svg>