<svg xmlns="http://www.w3.org/2000/svg" viewBox="0 0 900 320" width="900" height="320"><path d="M346.05 50.39 C346.05 50.39, 346.05 50.39, 346.05 50.39 M346.05 50.39 C346.05 50.39, 346.05 50.39, 346.05 50.39 M327.79 75.31 C333.74 67.01, 348.17 60.37, 366.19 36.53 M327.60 77.30 C340.06 59.66, 357.02 43.92, 364.12 36.40 M317.13 95.59 C338.36 76.07, 353.91 55.86, 382.52 22.53 M319.34 91.49 C341.91 69.18, 363.15 42.25, 381.58 20.87 M313.27 99.75 C339.03 77.42, 363.44 48.99, 391.43 19.96 M316.97 101.97 C344.94 73.29, 371.80 41.54, 389.66 17.82 M311.56 114.19 C337.42 85.42, 360.33 60.62, 401.54 13.25 M313.00 112.63 C335.09 91.22, 358.14 63.71, 398.23 14.07 M308.31 124.85 C339.52 87.34, 374.56 43.27, 403.03 12.32 M306.35 125.91 C341.08 83.11, 375.77 42.97, 404.54 12.22 M295.99 140.93 C337.72 92.92, 376.89 52.74, 415.55 9.72 M301.74 140.37 C342.89 95.08, 382.84 46.27, 413.45 7.21 M301.23 143.25 C327.85 114.16, 356.69 82.91, 422.78 9.00 M300.56 144.75 C346.41 87.04, 397.14 33.15, 421.09 4.43 M296.09 150.60 C337.16 103.18, 377.87 65.60, 427.86 3.81 M298.80 153.01 C337.04 108.02, 377.99 60.99, 427.15 5.12 M296.92 158.87 C331.88 128.56, 362.18 89.20, 435.93 3.94 M299.66 160.76 C342.00 113.74, 383.11 62.58, 432.92 5.19 M298.26 162.67 C338.98 119.09, 376.58 69.13, 440.13 5.41 M300.21 165.80 C328.74 128.70, 361.72 93.42, 438.31 3.67 M301.14 173.64 C334.06 135.07, 364.31 93.57, 445.86 4.44 M297.70 173.40 C356.30 106.78, 414.96 40.51, 442.88 3.53 M297.81 179.97 C334.65 134.35, 378.71 87.95, 447.47 2.10 M298.76 180.02 C333.02 137.57, 365.91 100.00, 450.86 5.83 M295.24 186.45 C331.31 149.36, 369.47 106.89, 454.17 4.81 M295.77 185.71 C328.74 143.63, 365.05 106.42, 455.20 5.09 M297.66 194.46 C342.38 141.23, 382.04 93.04, 458.19 4.02 M297.30 192.89 C336.89 147.05, 371.89 105.47, 460.15 4.10 M297.41 197.15 C350.69 142.58, 396.27 79.77, 466.85 3.56 M300.13 196.12 C341.95 143.93, 386.76 92.69, 464.59 2.67 M301.15 201.58 C348.25 144.93, 394.64 90.10, 471.30 6.38 M300.80 202.62 C340.82 155.72, 381.16 108.22, 471.85 4.23 M298.68 203.96 C336.62 166.91, 369.70 121.09, 473.85 2.58 M301.59 206.07 C356.25 143.03, 408.55 82.12, 475.98 4.78 M303.55 214.25 C350.01 158.89, 402.46 102.75, 480.79 5.53 M300.32 211.45 C341.03 166.81, 380.09 122.63, 478.41 5.29 M304.36 218.23 C350.10 162.93, 389.26 116.81, 485.19 9.91 M302.65 216.72 C351.53 158.35, 403.33 101.09, 483.07 8.74 M306.01 219.40 C369.73 150.13, 430.60 77.23, 490.45 10.68 M302.48 222.10 C371.69 143.87, 439.25 67.93, 488.29 10.50 M302.12 225.56 C363.98 161.60, 421.39 89.47, 489.55 8.09 M304.13 227.59 C359.33 169.98, 408.42 110.53, 493.20 8.99 M308.03 228.79 C378.00 145.90, 449.62 57.95, 497.83 15.08 M306.13 232.16 C352.15 177.26, 400.13 124.40, 496.25 12.37 M308.44 238.81 C364.89 170.37, 422.95 102.17, 501.10 12.49 M306.55 234.99 C378.82 152.52, 450.92 72.28, 500.84 14.58 M304.89 243.17 C366.41 176.85, 422.88 109.84, 506.60 12.73 M307.76 242.92 C371.57 169.92, 435.76 94.04, 505.28 15.35 M305.98 245.20 C353.67 193.27, 396.56 143.81, 509.11 18.63 M308.26 246.54 C383.27 155.79, 460.03 69.51, 509.56 17.11 M310.25 247.21 C355.51 198.88, 396.84 151.20, 511.18 16.44 M309.91 248.97 C366.31 186.38, 421.46 123.07, 513.58 17.20 M310.78 254.45 C388.28 163.36, 465.24 71.37, 516.05 16.71 M313.74 252.13 C358.44 194.31, 409.37 138.71, 515.32 18.15 M314.96 255.10 C371.71 196.83, 421.44 133.96, 517.60 21.86 M315.44 257.47 C373.84 190.69, 429.97 128.60, 520.46 21.72 M317.79 261.14 C388.41 177.29, 459.74 98.81, 523.81 24.00 M318.47 261.06 C364.88 202.74, 414.16 147.80, 522.44 24.49 M319.67 261.87 C373.82 203.31, 428.96 141.80, 527.33 25.13 M319.89 263.90 C362.12 212.90, 407.13 163.65, 525.03 27.88 M323.96 268.00 C385.51 198.15, 449.05 125.37, 530.69 31.58 M322.72 267.53 C377.91 199.14, 439.80 127.87, 529.19 30.35 M321.05 271.29 C404.52 180.82, 478.34 91.84, 533.97 34.06 M322.13 270.58 C382.34 207.91, 438.21 143.02, 531.29 31.87 M323.74 273.19 C371.83 219.68, 418.47 167.87, 535.87 33.67 M325.38 274.34 C385.65 209.11, 442.70 143.21, 535.65 34.27 M329.64 279.88 C388.12 214.16, 443.37 145.16, 536.74 34.70 M328.53 278.36 C389.37 208.85, 447.00 144.25, 537.44 36.05 M328.37 284.18 C413.72 187.51, 493.40 97.68, 541.13 39.96 M328.52 282.05 C391.53 213.65, 453.43 145.91, 540.83 40.89 M331.12 287.18 C402.06 202.96, 469.74 125.17, 543.93 39.63 M331.35 286.40 C389.10 221.19, 446.09 156.25, 545.48 40.66 M333.05 288.10 C395.60 221.72, 455.59 154.49, 548.52 43.27 M333.60 289.56 C391.63 222.24, 447.85 158.87, 548.51 44.63 M340.11 293.22 C411.83 206.47, 482.06 119.66, 548.19 46.33 M338.07 291.25 C382.16 241.50, 427.88 188.46, 551.74 47.57 M340.24 297.73 C427.24 199.12, 512.72 104.72, 554.34 49.44 M339.09 294.03 C415.89 209.46, 494.74 119.64, 552.58 48.07 M343.73 296.28 C404.55 234.14, 461.87 166.71, 553.57 52.49 M341.65 297.66 C397.62 234.34, 453.60 171.93, 554.96 53.64 M343.61 302.67 C422.70 218.43, 496.61 131.15, 559.22 54.53 M344.82 301.18 C396.01 246.56, 443.86 188.94, 559.70 57.48 M350.22 304.73 C390.83 253.93, 435.95 201.44, 558.58 61.70 M349.05 304.52 C406.62 238.31, 465.05 169.52, 559.44 59.24 M351.12 306.76 C410.52 237.27, 476.21 164.80, 562.45 61.33 M350.30 306.87 C401.91 244.53, 454.23 182.00, 563.36 62.88 M355.59 311.75 C411.22 245.73, 465.24 178.66, 563.90 64.20 M353.56 311.01 C432.86 214.97, 516.60 120.42, 564.50 65.25 M355.31 313.39 C425.43 225.85, 501.08 139.24, 568.69 67.29 M355.37 312.76 C435.22 223.61, 514.68 134.42, 567.85 69.14 M361.44 317.77 C409.34 255.08, 466.45 193.72, 571.35 71.59 M358.62 316.57 C418.95 245.15, 479.12 176.33, 571.05 73.58 M363.06 319.27 C410.59 264.46, 453.67 213.81, 571.55 76.55 M362.69 319.07 C405.59 267.13, 449.47 214.35, 573.13 75.63 M365.19 324.20 C430.80 239.84, 495.37 162.51, 576.82 80.64 M365.08 322.57 C448.42 226.66, 526.86 134.45, 573.87 78.94 M367.67 322.89 C418.68 263.90, 470.75 205.34, 577.35 83.78 M369.40 323.74 C413.51 275.38, 453.68 228.03, 576.82 82.32 M370.94 326.40 C436.36 260.47, 496.62 184.81, 578.86 87.79 M371.76 325.06 C433.52 256.06, 492.85 188.52, 578.71 87.33 M377.95 328.69 C455.95 236.44, 532.38 143.55, 584.62 90.46 M376.15 327.94 C447.85 241.84, 517.93 157.25, 581.24 89.67 M380.28 332.07 C429.13 274.64, 480.51 212.98, 585.43 93.47 M380.19 329.49 C437.02 263.85, 494.97 197.59, 584.43 95.40 M380.39 334.14 C454.34 243.59, 528.52 164.06, 584.45 97.35 M383.84 329.96 C427.87 280.29, 470.44 232.41, 583.84 100.24 M387.31 335.66 C452.30 256.95, 523.97 179.33, 584.97 104.61 M386.98 334.00 C456.30 247.53, 529.42 165.82, 586.88 103.59 M387.48 334.03 C441.39 270.48, 494.78 211.55, 586.20 105.55 M388.95 336.15 C457.14 260.26, 524.50 182.13, 589.40 107.02 M392.75 338.14 C459.57 260.40, 527.73 181.12, 591.60 112.34 M393.67 337.96 C458.22 262.42, 521.22 187.28, 589.48 112.08 M395.92 338.79 C461.47 269.35, 517.17 198.55, 589.47 115.36 M397.52 338.58 C453.23 275.10, 506.83 212.82, 592.12 115.38 M399.48 340.88 C460.20 270.54, 521.05 200.80, 595.56 118.07 M400.69 341.78 C474.92 255.44, 549.06 169.75, 594.62 118.09 M402.98 341.01 C473.27 262.77, 539.01 187.69, 594.08 126.44 M402.78 342.47 C450.78 290.61, 499.17 234.70, 594.45 123.47 M404.85 343.46 C471.04 271.88, 540.27 189.63, 599.65 128.55 M406.80 346.47 C448.98 303.33, 489.70 254.87, 595.74 128.76 M409.71 343.30 C455.77 296.06, 500.40 252.03, 601.27 132.32 M412.13 344.99 C477.90 267.50, 546.13 189.58, 599.73 132.60 M419.42 344.50 C458.22 304.07, 495.07 255.42, 602.16 139.54 M416.58 345.97 C469.48 285.54, 522.70 225.28, 600.05 136.98 M421.65 349.97 C471.37 290.19, 519.83 230.85, 597.25 139.96 M419.98 349.24 C495.28 269.64, 564.12 191.21, 600.84 141.72 M425.44 346.36 C494.44 269.66, 559.35 193.81, 598.14 145.26 M427.62 349.30 C483.75 286.75, 536.79 224.03, 602.42 148.78 M431.73 345.89 C477.50 293.82, 523.98 245.29, 601.22 152.90 M431.64 348.26 C490.36 281.71, 549.69 212.92, 602.44 154.43 M433.71 346.86 C481.79 298.57, 524.39 246.39, 602.87 159.15 M437.42 350.14 C501.64 275.40, 562.71 202.93, 601.55 160.11 M441.79 346.85 C490.61 295.19, 534.91 237.98, 602.32 163.67 M441.23 351.36 C481.62 301.63, 522.21 253.13, 600.72 164.76 M445.63 347.67 C480.58 313.31, 513.60 275.65, 605.36 170.63 M446.54 350.30 C481.49 308.88, 520.89 265.28, 601.97 170.52 M450.10 352.48 C494.24 296.28, 535.05 247.71, 605.41 172.33 M452.09 352.34 C513.47 280.51, 573.12 208.27, 603.83 177.06 M458.06 351.00 C491.37 305.87, 529.28 267.01, 605.65 182.95 M456.43 350.56 C510.84 293.45, 562.31 232.84, 602.82 180.07 M460.10 350.38 C517.74 287.65, 572.36 220.88, 605.80 185.13 M459.87 352.30 C493.48 318.50, 524.26 283.74, 603.75 188.14 M463.46 348.09 C500.91 310.42, 539.86 268.71, 599.18 192.58 M467.04 349.38 C520.84 287.64, 572.64 223.94, 600.99 193.77 M471.31 347.45 C506.57 308.73, 542.85 272.55, 600.80 204.37 M474.53 349.44 C522.52 293.12, 572.87 235.95, 600.54 202.11 M479.05 344.68 C515.17 303.98, 553.80 258.38, 597.05 210.23 M478.78 349.35 C523.56 298.17, 570.21 244.54, 599.93 209.62 M489.30 349.80 C514.28 315.76, 534.96 292.62, 600.18 216.03 M484.96 347.53 C516.56 310.99, 548.02 272.81, 596.35 220.16 M497.68 340.66 C531.67 295.20, 572.52 249.56, 597.60 223.87 M495.51 342.52 C515.89 315.50, 539.84 290.02, 596.18 228.41 M505.73 339.96 C525.60 312.10, 550.72 286.04, 590.64 232.67 M503.52 336.10 C535.23 299.19, 571.41 261.35, 593.55 235.73 M515.77 335.05 C535.49 301.33, 569.17 271.60, 595.11 240.50 M514.15 331.85 C533.09 310.34, 551.61 288.54, 595.27 238.79 M524.00 324.29 C539.96 302.07, 561.00 279.45, 589.87 255.26 M524.83 328.76 C541.92 304.46, 559.53 283.97, 588.02 251.25 M536.95 325.08 C542.28 305.83, 554.48 299.26, 579.55 268.06 M534.56 321.28 C547.36 307.78, 560.56 291.91, 581.39 266.18" fill="#faf7ef" stroke="none"/><path d="M346.36 50.02 C354.95 36.78, 369.25 27.83, 382.72 20.09 C396.19 12.34, 412.52 6.42, 427.17 3.55 C441.82 0.68, 455.98 0.47, 470.63 2.89 C485.28 5.31, 501.42 10.52, 515.06 18.06 C528.69 25.61, 541.50 36.30, 552.44 48.16 C563.37 60.02, 572.96 74.63, 580.69 89.24 C588.42 103.86, 595.08 119.65, 598.81 135.86 C602.54 152.06, 604.16 169.42, 603.06 186.46 C601.95 203.51, 597.66 221.56, 592.16 238.13 C586.67 254.70, 579.18 272.47, 570.07 285.89 C560.96 299.32, 550.29 309.20, 537.51 318.67 C524.73 328.13, 507.62 337.46, 493.39 342.67 C479.16 347.87, 466.75 349.57, 452.12 349.89 C437.49 350.21, 420.20 349.25, 405.59 344.57 C390.98 339.89, 376.80 331.53, 364.48 321.81 C352.15 312.09, 341.28 299.61, 331.64 286.27 C322.00 272.94, 312.44 257.72, 306.63 241.79 C300.81 225.86, 297.88 207.74, 296.73 190.71 C295.59 173.69, 296.14 156.21, 299.76 139.64 C303.39 123.08, 307.92 109.05, 318.49 91.32 C329.06 73.60, 352.15 44.45, 363.19 33.29 C374.23 22.12, 383.06 22.13, 384.72 24.34 M575.01 77.96 C585.11 89.84, 591.06 110.93, 596.02 127.18 C600.98 143.43, 604.58 158.64, 604.79 175.48 C605.00 192.31, 602.42 211.37, 597.29 228.21 C592.16 245.04, 582.74 262.34, 574.02 276.48 C565.30 290.62, 557.00 302.41, 544.96 313.04 C532.93 323.67, 516.14 334.01, 501.79 340.25 C487.43 346.49, 473.53 349.81, 458.85 350.49 C444.16 351.17, 427.69 348.24, 413.70 344.33 C399.71 340.41, 387.68 335.18, 374.92 326.99 C362.16 318.80, 348.01 307.97, 337.13 295.21 C326.26 282.44, 315.66 266.78, 309.64 250.41 C303.63 234.03, 302.62 214.10, 301.04 196.96 C299.47 179.82, 298.31 164.48, 300.20 147.56 C302.09 130.63, 305.67 110.55, 312.39 95.43 C319.11 80.31, 330.48 68.99, 340.54 56.82 C350.60 44.65, 359.62 31.43, 372.72 22.44 C385.82 13.44, 403.70 5.75, 419.15 2.83 C434.60 -0.09, 450.62 2.54, 465.42 4.91 C480.22 7.29, 494.31 10.65, 507.94 17.10 C521.57 23.54, 535.49 33.56, 547.21 43.56 C558.93 53.56, 573.27 70.92, 578.29 77.10 C583.31 83.27, 579.95 78.75, 577.33 80.62" fill="none" stroke="#202020" stroke-width="2" stroke-linecap="round" stroke-linejoin="round"/><path d="M302.02 25.37 C302.02 25.37, 302.02 25.37, 302.02 25.37 M302.02 25.37 C302.02 25.37, 302.02 25.37, 302.02 25.37 M269.37 72.58 C280.72 52.31, 293.66 44.39, 316.50 11.52 M267.61 68.19 C278.12 58.44, 289.28 46.32, 317.65 15.65 M268.24 82.23 C279.97 65.59, 292.87 46.88, 334.21 3.53 M266.95 78.95 C285.61 55.89, 304.80 35.59, 329.62 5.50 M262.12 87.39 C290.41 58.70, 320.50 19.13, 341.87 -3.15 M261.68 88.36 C292.20 51.67, 324.34 13.42, 344.88 -6.81 M254.73 96.82 C285.59 67.39, 309.57 37.18, 355.21 -6.97 M259.92 100.57 C290.58 62.02, 327.35 24.11, 352.20 -11.01 M255.02 107.14 C290.20 70.70, 320.47 31.60, 359.79 -14.64 M255.56 109.68 C293.91 60.31, 334.90 13.30, 363.06 -15.79 M250.69 117.16 C285.53 79.15, 324.37 42.97, 372.83 -23.22 M252.58 118.89 C294.94 68.61, 342.42 16.38, 372.13 -19.99 M245.60 128.04 C297.24 79.51, 343.31 26.31, 382.85 -21.49 M249.75 130.40 C283.78 87.93, 317.59 51.89, 383.90 -23.76 M245.92 134.14 C290.80 87.90, 334.06 38.21, 389.21 -29.67 M246.40 138.17 C290.73 83.02, 337.55 33.00, 393.17 -29.45 M243.68 148.03 C289.01 92.82, 334.91 45.84, 399.80 -27.08 M246.77 145.16 C279.49 105.65, 311.56 71.39, 398.38 -28.03 M245.25 152.35 C305.38 80.87, 366.59 11.81, 400.22 -28.38 M244.42 151.74 C294.62 96.64, 341.82 41.08, 403.48 -28.34 M239.75 158.26 C295.11 93.37, 351.65 30.12, 409.84 -34.21 M241.66 161.99 C308.63 92.05, 370.85 18.57, 409.23 -32.32 M237.35 171.15 C297.23 108.85, 353.98 40.22, 415.02 -32.54 M240.23 168.82 C275.75 129.06, 311.56 86.75, 414.16 -30.68 M241.19 175.24 C291.95 118.02, 344.31 60.73, 418.21 -31.03 M242.40 174.86 C296.47 111.61, 352.81 50.12, 419.37 -32.89 M239.98 177.21 C280.03 129.58, 321.53 83.95, 426.65 -32.30 M242.71 180.07 C302.17 113.82, 358.20 44.90, 425.66 -33.73 M245.90 183.37 C306.36 117.89, 368.67 49.82, 431.46 -30.47 M241.72 185.38 C288.96 130.90, 333.53 81.49, 431.54 -34.44 M240.96 188.72 C304.19 120.74, 364.93 51.40, 439.61 -32.19 M244.48 189.24 C315.76 108.20, 389.00 23.33, 438.82 -35.11 M242.14 197.18 C286.85 142.94, 331.12 96.56, 444.93 -33.73 M243.28 194.41 C320.67 111.81, 391.34 27.31, 445.77 -34.90 M246.61 200.96 C327.00 109.01, 404.78 11.61, 451.81 -32.32 M244.09 200.60 C289.07 145.82, 334.98 92.36, 450.41 -35.82 M245.67 205.71 C318.80 123.22, 397.03 36.62, 452.89 -36.03 M245.61 206.06 C299.11 144.53, 355.45 81.66, 455.22 -34.13 M243.56 213.93 C308.71 138.04, 370.80 72.17, 462.08 -33.07 M246.12 212.52 C292.20 157.94, 338.47 103.67, 458.91 -33.07 M248.60 216.90 C305.20 146.97, 365.06 77.72, 463.47 -34.31 M247.66 217.46 C296.43 158.50, 347.16 100.31, 464.95 -32.24 M246.45 219.54 C305.46 151.20, 369.52 82.10, 471.19 -31.95 M247.59 221.27 C314.90 144.49, 382.07 66.81, 470.06 -32.82 M251.31 227.78 C337.80 125.02, 425.43 22.09, 474.16 -30.92 M249.36 226.08 C295.51 171.87, 343.93 117.86, 475.70 -34.80 M251.03 232.83 C320.50 156.89, 390.65 75.07, 481.23 -33.71 M251.62 231.26 C305.40 170.05, 357.45 107.05, 479.88 -32.06 M253.46 232.73 C338.88 137.86, 418.50 42.30, 482.83 -31.44 M252.17 233.23 C330.88 141.62, 413.79 48.22, 484.56 -32.60 M255.27 236.85 C328.07 154.33, 401.57 69.09, 491.18 -30.19 M253.78 240.17 C298.36 183.87, 346.80 128.65, 490.40 -33.51 M257.27 244.92 C332.38 158.00, 409.03 66.12, 494.12 -33.12 M256.79 243.25 C345.69 137.15, 437.52 31.82, 495.90 -32.77 M259.11 245.38 C321.86 175.54, 385.74 99.42, 497.49 -32.04 M258.11 247.12 C307.80 184.36, 359.68 124.64, 500.56 -30.49 M258.50 253.19 C337.35 156.88, 417.24 64.20, 503.50 -27.35 M259.90 250.50 C336.59 168.14, 411.16 83.98, 502.83 -28.59 M259.26 257.62 C354.08 154.53, 447.58 45.31, 506.11 -25.73 M260.01 255.93 C360.10 145.97, 456.46 32.95, 505.65 -27.52 M260.29 259.12 C327.88 183.48, 399.51 103.47, 513.33 -24.50 M260.90 261.16 C351.69 155.16, 439.87 51.53, 510.99 -27.26 M262.18 264.54 C322.68 201.25, 378.00 135.18, 514.73 -22.15 M263.33 263.99 C356.46 156.33, 449.33 48.28, 513.66 -24.63 M266.51 269.97 C335.27 188.10, 406.42 104.17, 518.04 -20.42 M263.70 270.11 C365.60 154.96, 465.26 40.39, 518.36 -23.44 M265.19 272.45 C335.57 195.25, 404.70 120.22, 522.06 -22.78 M265.97 273.14 C347.35 181.80, 430.53 88.26, 523.08 -21.25 M270.14 276.36 C357.39 177.15, 443.24 77.05, 526.51 -18.74 M267.47 276.37 C320.25 212.12, 376.43 149.30, 527.34 -19.56 M270.56 281.59 C349.44 187.48, 429.99 99.80, 530.06 -19.78 M270.99 279.90 C357.61 185.06, 442.82 86.44, 531.52 -19.14 M271.71 285.83 C369.30 176.68, 460.89 72.16, 534.19 -16.80 M272.95 282.95 C371.34 176.88, 465.51 68.44, 534.40 -15.73 M275.95 288.90 C341.19 208.25, 414.18 129.67, 539.90 -14.67 M274.61 287.97 C351.90 199.73, 428.59 111.18, 537.21 -14.26 M279.52 290.13 C343.18 211.89, 411.96 129.89, 543.41 -13.91 M277.18 290.63 C352.59 204.41, 427.54 117.71, 542.28 -13.56 M281.73 292.90 C344.26 222.28, 410.03 151.27, 547.89 -10.16 M279.70 294.40 C338.42 231.37, 395.76 165.32, 545.87 -11.63 M281.00 301.10 C338.77 236.83, 394.17 172.13, 547.06 -10.26 M281.87 299.92 C381.76 176.37, 486.73 57.24, 548.95 -9.48 M282.56 301.79 C387.72 182.63, 490.19 61.49, 554.05 -5.50 M284.61 302.79 C385.12 186.85, 484.68 72.36, 553.01 -7.96 M286.05 307.75 C370.72 214.68, 451.88 117.02, 557.68 -3.06 M286.35 306.68 C345.67 241.52, 404.48 173.98, 555.82 -4.69 M289.27 309.22 C351.42 233.09, 422.56 153.91, 559.90 -1.67 M287.41 310.07 C379.53 201.13, 475.89 90.40, 559.76 -1.78 M291.00 313.89 C357.12 237.50, 423.14 161.72, 562.30 -2.23 M289.29 313.40 C355.18 244.11, 416.40 173.23, 563.99 -1.46 M293.59 315.56 C362.26 231.94, 436.25 151.37, 567.33 3.21 M292.05 315.69 C378.99 211.99, 468.63 110.48, 567.63 0.50 M294.71 321.07 C392.41 211.64, 485.16 101.74, 568.88 1.98 M296.68 319.24 C380.55 222.55, 464.08 127.58, 569.49 4.50 M296.63 323.40 C355.81 260.09, 411.33 193.09, 572.51 6.40 M298.38 322.22 C407.23 200.13, 513.05 76.48, 574.08 6.45 M301.54 325.20 C385.63 234.21, 465.48 142.51, 576.63 7.81 M301.35 325.06 C408.71 198.68, 515.19 75.60, 577.93 7.44 M302.87 327.27 C406.00 210.28, 506.56 94.09, 579.95 11.66 M303.79 328.11 C400.48 214.69, 501.67 99.74, 580.41 10.89 M308.73 330.64 C372.10 254.99, 438.30 181.48, 584.08 12.23 M307.97 329.75 C397.29 227.91, 487.71 124.11, 584.10 11.47 M309.31 332.94 C370.61 259.05, 431.92 191.77, 588.92 14.16 M311.66 331.56 C367.92 267.09, 424.73 203.84, 586.87 14.72 M312.32 334.67 C394.00 239.08, 475.24 142.80, 589.47 16.45 M313.11 335.55 C391.70 247.90, 466.83 159.59, 590.83 17.52 M317.73 336.60 C412.15 223.67, 504.76 113.81, 594.50 21.04 M316.25 337.69 C423.48 217.03, 529.70 96.48, 592.86 20.72 M321.16 340.54 C414.40 225.99, 508.66 115.10, 594.53 20.83 M319.94 341.15 C409.33 240.90, 496.19 138.38, 596.79 21.68 M324.53 341.26 C409.17 241.58, 498.69 145.21, 598.41 24.65 M323.49 343.76 C382.18 277.94, 440.12 211.38, 597.70 25.51 M327.73 343.86 C414.19 242.17, 503.01 140.21, 601.71 30.01 M325.01 344.58 C384.38 274.11, 446.15 204.67, 600.58 30.32 M329.87 346.26 C384.02 285.05, 440.86 222.39, 604.62 33.90 M329.02 347.65 C413.20 251.60, 495.12 156.63, 602.74 32.37 M330.30 352.51 C395.02 280.39, 455.60 207.86, 608.08 35.17 M332.26 351.17 C424.42 244.36, 514.32 137.77, 607.09 36.23 M336.89 354.95 C435.84 238.36, 534.73 121.46, 608.57 37.37 M335.80 352.56 C425.81 252.60, 513.95 151.62, 609.11 38.61 M339.66 353.31 C436.08 241.31, 535.25 127.21, 610.51 41.08 M339.58 354.84 C406.99 275.07, 478.09 195.48, 612.16 40.39 M344.09 357.83 C420.07 269.65, 493.76 182.56, 611.74 42.88 M342.17 357.95 C412.42 279.91, 481.60 199.31, 613.62 44.56 M347.71 357.68 C405.36 285.88, 470.70 214.49, 618.20 48.54 M346.47 358.20 C425.89 265.24, 507.62 174.09, 615.39 48.31 M349.55 359.73 C429.41 273.78, 506.66 179.25, 618.71 53.04 M349.89 360.74 C440.59 259.72, 526.72 158.77, 617.93 51.93 M354.92 361.05 C440.58 261.08, 532.45 159.22, 622.93 54.49 M352.16 362.99 C410.75 300.08, 465.48 237.29, 620.79 54.94 M357.54 366.31 C436.32 275.90, 510.90 189.38, 623.51 59.67 M357.27 363.79 C447.95 260.77, 536.47 159.24, 622.46 59.13 M360.44 364.56 C442.84 273.92, 523.18 179.04, 626.52 64.49 M360.38 365.81 C421.13 300.04, 476.68 235.51, 625.27 61.24 M364.36 369.47 C454.94 272.00, 536.72 170.64, 626.31 63.71 M363.51 367.73 C432.02 285.85, 502.15 206.96, 626.41 65.24 M366.64 370.91 C447.99 277.56, 529.40 181.87, 628.96 67.79 M367.43 370.18 C468.32 250.07, 572.35 132.60, 629.22 68.97 M371.77 373.10 C465.82 263.27, 562.28 152.49, 630.92 73.44 M371.72 372.27 C452.59 284.83, 528.85 195.65, 631.89 72.23 M372.86 375.16 C479.24 259.69, 581.61 139.71, 635.41 75.92 M375.30 373.66 C438.90 298.30, 505.62 221.91, 632.86 78.24 M377.98 374.66 C448.22 297.87, 512.79 221.70, 635.01 81.46 M378.16 377.33 C475.16 264.69, 569.18 156.89, 634.84 81.05 M380.70 380.55 C468.45 276.00, 553.96 175.26, 638.97 85.12 M381.86 379.04 C432.09 316.92, 485.30 256.96, 637.51 84.05 M386.86 377.96 C441.55 309.72, 502.67 243.14, 638.50 86.71 M387.30 378.55 C456.78 305.62, 523.16 227.72, 639.68 88.98 M393.39 380.56 C483.76 278.24, 573.91 173.74, 641.71 94.72 M392.20 379.39 C459.70 302.02, 525.76 226.57, 641.01 91.60 M396.87 378.85 C473.56 287.31, 561.11 190.26, 641.10 95.11 M395.98 381.27 C445.59 322.86, 496.16 262.99, 643.73 96.82 M397.56 382.88 C462.55 309.13, 525.11 238.74, 646.77 101.11 M399.16 382.52 C495.13 271.69, 589.41 160.44, 644.70 99.85 M406.86 383.54 C472.85 303.04, 536.17 228.80, 647.17 105.68 M404.06 383.46 C494.22 280.12, 584.09 178.95, 647.09 103.30 M407.46 386.10 C470.21 314.42, 530.65 244.62, 648.51 108.31 M410.44 383.89 C494.53 282.03, 582.30 180.70, 646.77 108.45 M416.09 382.74 C479.85 314.61, 541.46 239.59, 649.28 112.50 M413.32 383.10 C464.59 322.46, 516.61 263.39, 647.88 114.60 M419.28 387.08 C461.87 331.17, 508.25 273.91, 651.24 120.13 M419.55 384.32 C470.52 328.58, 521.36 269.50, 649.64 119.51 M425.40 385.00 C473.54 326.42, 524.22 265.28, 648.69 124.97 M422.55 384.98 C471.68 327.40, 523.92 267.75, 650.89 123.59 M425.40 386.20 C511.51 288.86, 596.75 192.84, 652.38 127.84 M427.43 387.28 C508.20 298.64, 583.89 211.11, 651.96 128.90 M430.88 387.25 C495.12 310.47, 565.87 235.96, 653.68 137.08 M433.87 386.38 C493.30 319.93, 556.86 248.89, 652.32 135.59 M436.44 386.92 C510.04 299.80, 586.42 217.49, 650.55 142.05 M437.92 387.45 C517.65 301.22, 594.21 212.23, 654.11 139.57 M444.49 388.61 C492.51 336.39, 537.10 280.87, 653.62 144.71 M444.70 386.78 C515.69 304.13, 589.44 219.67, 654.63 145.15 M450.69 388.38 C526.77 293.94, 603.36 207.15, 655.26 150.95 M448.37 388.45 C488.58 338.04, 531.70 287.25, 656.24 149.77 M456.33 387.79 C523.34 312.44, 591.53 236.72, 655.96 156.24 M453.84 387.86 C513.63 317.43, 573.48 246.30, 656.59 155.41 M457.82 386.05 C511.23 320.03, 566.67 259.73, 655.00 158.40 M460.84 387.15 C516.64 325.31, 571.11 261.86, 655.39 161.43 M467.19 388.13 C537.12 303.18, 612.29 217.25, 654.73 167.28 M465.79 387.75 C539.18 306.59, 608.70 221.82, 657.56 166.61 M468.97 386.11 C517.92 334.25, 563.47 281.82, 657.95 169.52 M471.21 386.36 C518.46 331.04, 566.34 276.39, 658.13 170.08 M478.47 385.45 C535.15 310.49, 600.26 235.94, 654.26 177.64 M476.06 385.28 C523.40 330.89, 569.77 278.91, 657.11 178.41 M479.17 387.73 C534.09 327.23, 589.26 265.20, 660.67 183.24 M480.45 386.40 C540.26 317.09, 596.16 252.62, 656.03 184.08 M484.07 384.70 C551.75 311.44, 612.14 235.08, 658.24 190.46 M487.85 384.55 C553.98 312.66, 618.12 237.45, 656.77 187.50 M495.54 385.42 C535.86 339.59, 575.54 286.45, 658.31 196.98 M495.08 382.92 C552.52 319.28, 609.03 250.68, 659.03 194.17 M498.19 384.18 C565.15 314.93, 624.95 243.42, 660.30 204.32 M499.93 380.78 C544.97 331.94, 591.54 281.59, 659.29 201.06 M507.21 380.69 C544.33 338.58, 578.88 297.07, 655.24 203.95 M506.04 380.19 C545.12 340.08, 578.73 299.66, 657.50 207.05 M517.56 379.05 C566.16 315.04, 621.34 257.30, 653.93 216.99 M513.17 378.31 C547.58 343.03, 578.36 307.40, 655.31 214.60 M519.47 378.14 C575.05 313.62, 626.20 253.79, 651.25 229.17 M520.48 375.47 C559.26 333.33, 596.87 290.88, 650.72 227.18 M532.11 377.10 C569.24 333.01, 603.89 287.35, 648.48 235.11 M528.58 375.09 C579.40 320.24, 623.81 265.90, 651.63 234.96 M536.53 371.48 C566.47 339.38, 588.39 307.78, 645.30 242.15 M536.25 372.14 C571.65 332.35, 604.44 288.29, 647.62 243.19 M549.57 363.06 C587.57 318.98, 623.24 278.53, 640.36 251.26 M549.80 362.43 C569.39 336.72, 589.93 312.72, 644.65 254.92 M563.30 351.79 C593.22 317.81, 621.94 283.79, 638.00 268.75 M562.87 352.87 C579.55 336.74, 592.66 319.58, 639.48 266.66 M576.77 345.36 C585.35 334.77, 601.76 316.18, 628.81 279.96 M572.69 345.59 C587.07 328.30, 602.89 312.48, 629.57 282.53 M607.15 314.34 C608.28 310.85, 614.55 308.08, 619.72 306.56 M604.04 317.76 C606.87 312.99, 609.90 313.19, 615.95 301.41" fill="#faf7ef" stroke="none"/><path d="M495.12 -32.52 C511.89 -31.82, 527.40 -20.77, 543.10 -12.83 C558.81 -4.89, 576.30 3.93, 589.34 15.12 C602.37 26.31, 611.75 39.64, 621.28 54.29 C630.82 68.94, 640.74 86.24, 646.52 103.01 C652.31 119.79, 654.09 137.36, 656.01 154.96 C657.92 172.55, 660.38 191.04, 658.03 208.60 C655.68 226.15, 649.18 243.90, 641.91 260.27 C634.64 276.64, 625.20 293.00, 614.41 306.81 C603.62 320.62, 590.49 332.18, 577.18 343.13 C563.88 354.07, 550.33 365.27, 534.58 372.49 C518.82 379.71, 500.10 384.08, 482.67 386.47 C465.23 388.85, 446.84 388.22, 429.95 386.80 C413.06 385.39, 397.59 383.85, 381.32 377.97 C365.04 372.08, 347.18 361.77, 332.30 351.49 C317.42 341.20, 303.20 329.46, 292.06 316.26 C280.92 303.05, 272.89 288.09, 265.46 272.24 C258.04 256.39, 251.64 238.37, 247.49 221.17 C243.33 203.96, 239.86 186.12, 240.53 169.00 C241.21 151.88, 246.76 135.47, 251.54 118.46 C256.32 101.44, 260.80 82.42, 269.22 66.90 C277.64 51.38, 289.52 37.38, 302.07 25.31 C314.61 13.25, 329.65 3.61, 344.51 -5.51 C359.36 -14.62, 374.63 -24.48, 391.20 -29.38 C407.77 -34.27, 425.16 -35.03, 443.93 -34.88 C462.70 -34.73, 492.99 -30.31, 503.82 -28.48 C514.66 -26.64, 510.35 -27.41, 508.94 -23.87 M515.50 -23.93 C531.66 -22.21, 546.32 -14.00, 560.71 -4.67 C575.09 4.67, 589.71 19.14, 601.80 32.07 C613.90 44.99, 625.00 58.18, 633.26 72.89 C641.52 87.60, 646.74 103.34, 651.36 120.31 C655.99 137.29, 661.20 156.56, 661.01 174.73 C660.83 192.90, 654.93 211.70, 650.24 229.36 C645.56 247.02, 641.43 265.30, 632.92 280.69 C624.41 296.07, 610.85 309.20, 599.18 321.67 C587.52 334.14, 577.41 346.08, 562.90 355.52 C548.40 364.95, 528.50 372.57, 512.16 378.30 C495.83 384.02, 482.02 389.25, 464.87 389.88 C447.72 390.50, 426.44 385.84, 409.26 382.05 C392.08 378.27, 376.72 374.58, 361.79 367.18 C346.87 359.79, 332.78 348.69, 319.72 337.70 C306.67 326.70, 293.63 315.18, 283.48 301.22 C273.34 287.26, 265.19 270.31, 258.85 253.92 C252.50 237.52, 248.28 219.99, 245.41 202.87 C242.54 185.76, 239.96 168.95, 241.63 151.22 C243.29 133.50, 249.22 112.82, 255.39 96.51 C261.57 80.21, 268.75 67.77, 278.67 53.38 C288.58 38.98, 301.59 21.32, 314.88 10.15 C328.16 -1.02, 342.28 -6.11, 358.36 -13.65 C374.43 -21.18, 394.32 -31.79, 411.32 -35.08 C428.32 -38.37, 443.60 -35.33, 460.34 -33.39 C477.09 -31.45, 502.55 -25.20, 511.79 -23.45 C521.02 -21.70, 516.89 -25.66, 515.78 -22.90" fill="none" stroke="#202020" stroke-width="2" stroke-linecap="round" stroke-linejoin="round"/><path d="M367.83 114.02 C373.48 103.52, 385.06 94.82, 395.32 87.59 C405.58 80.36, 417.52 73.05, 429.39 70.64 C441.25 68.22, 454.44 71.00, 466.52 73.10 C478.60 75.20, 490.99 77.27, 501.86 83.21 C512.73 89.15, 523.75 98.69, 531.74 108.73 C539.73 118.76, 546.59 130.66, 549.80 143.42 C553.01 156.19, 552.35 172.37, 551.02 185.33 C549.68 198.29, 547.04 210.24, 541.79 221.20 C536.53 232.15, 528.53 242.07, 519.49 251.07 C510.44 260.08, 498.36 270.00, 487.50 275.23 C476.63 280.45, 466.22 282.34, 454.28 282.41 C442.34 282.48, 427.69 280.07, 415.86 275.66 C404.02 271.25, 392.91 264.41, 383.27 255.95 C373.63 247.48, 363.83 236.28, 358.01 224.85 C352.20 213.42, 349.69 200.10, 348.37 187.37 C347.04 174.64, 346.99 161.09, 350.07 148.46 C353.15 135.82, 362.77 118.41, 366.86 111.55 C370.95 104.68, 373.14 106.44, 374.62 107.28 M505.72 89.37 C516.43 95.35, 524.13 105.81, 530.97 115.28 C537.82 124.75, 542.87 134.34, 546.80 146.18 C550.74 158.01, 555.62 173.72, 554.58 186.28 C553.54 198.83, 547.01 210.23, 540.57 221.50 C534.13 232.78, 525.04 244.63, 515.93 253.92 C506.82 263.22, 496.86 272.60, 485.92 277.28 C474.98 281.95, 462.79 282.26, 450.29 281.95 C437.78 281.64, 422.68 280.24, 410.88 275.42 C399.09 270.61, 388.49 262.28, 379.50 253.06 C370.51 243.84, 362.78 231.40, 356.94 220.11 C351.11 208.83, 345.71 197.30, 344.51 185.38 C343.31 173.45, 345.67 160.62, 349.72 148.57 C353.77 136.53, 360.58 123.38, 368.81 113.10 C377.03 102.83, 388.38 93.68, 399.06 86.92 C409.75 80.16, 421.53 75.14, 432.90 72.55 C444.26 69.95, 455.61 68.54, 467.25 71.33 C478.89 74.13, 496.73 86.26, 502.74 89.29 C508.75 92.32, 504.03 88.82, 503.30 89.51" fill="#faf7ef" stroke="none"/><path d="M509.65 92.17 C520.19 98.38, 529.41 109.17, 536.45 119.44 C543.49 129.70, 549.60 141.12, 551.91 153.75 C554.23 166.38, 552.42 182.20, 550.35 195.24 C548.28 208.29, 545.44 221.64, 539.50 232.02 C533.55 242.41, 524.72 249.84, 514.67 257.55 C504.62 265.25, 490.98 274.13, 479.22 278.24 C467.46 282.35, 456.17 283.52, 444.10 282.22 C432.03 280.92, 418.49 276.00, 406.82 270.44 C395.14 264.87, 383.03 257.64, 374.04 248.82 C365.05 240.00, 357.68 229.32, 352.87 217.50 C348.06 205.68, 345.46 190.90, 345.20 177.92 C344.94 164.94, 346.72 151.47, 351.31 139.63 C355.90 127.79, 364.28 116.73, 372.72 106.86 C381.15 96.99, 391.21 86.25, 401.92 80.41 C412.63 74.57, 424.66 73.29, 436.98 71.84 C449.30 70.39, 460.11 64.73, 475.84 71.69 C491.57 78.65, 519.74 101.44, 531.38 113.60 C543.01 125.76, 546.71 143.66, 545.65 144.66 M441.97 67.26 C453.46 64.59, 471.11 71.57, 482.88 75.84 C494.65 80.11, 503.11 85.27, 512.59 92.87 C522.06 100.48, 532.83 109.79, 539.73 121.46 C546.64 133.14, 552.35 150.01, 554.03 162.93 C555.71 175.86, 552.55 187.11, 549.82 199.03 C547.08 210.95, 544.41 224.26, 537.63 234.46 C530.85 244.65, 519.12 253.12, 509.15 260.21 C499.17 267.31, 489.81 273.79, 477.77 277.03 C465.74 280.28, 449.58 281.46, 436.92 279.69 C424.27 277.91, 412.82 272.65, 401.83 266.38 C390.85 260.10, 378.71 251.50, 371.01 242.01 C363.31 232.53, 359.79 221.42, 355.64 209.48 C351.49 197.54, 346.56 182.83, 346.09 170.38 C345.62 157.92, 347.55 146.41, 352.83 134.72 C358.11 123.04, 369.02 109.56, 377.75 100.27 C386.47 90.98, 394.44 83.72, 405.18 79.00 C415.93 74.28, 436.14 73.01, 442.22 71.95 C448.30 70.89, 441.07 71.12, 441.67 72.63" fill="none" stroke="#202020" stroke-width="2" stroke-linecap="round" stroke-linejoin="round"/><path d="M655.05 -26.55 C684.09 -55.08, 702.84 -84.83, 732.70 -113.33 M654.36 -31.18 C679.28 -51.32, 699.60 -74.18, 735.24 -111.96" fill="none" stroke="#202020" stroke-width="2" stroke-linecap="round" stroke-linejoin="round"/><path d="M656.81 384.18 C676.87 397.52, 696.87 419.06, 734.35 461.27 M656.60 384.08 C679.17 407.14, 701.24 428.18, 735.49 461.94" fill="none" stroke="#202020" stroke-width="2" stroke-linecap="round" stroke-linejoin="round"/><path d="M240.95 383.30 C219.68 406.72, 191.58 430.66, 161.06 465.02 M242.63 381.44 C226.85 400.59, 208.53 417.27, 162.37 464.00" fill="none" stroke="#202020" stroke-width="2" stroke-linecap="round" stroke-linejoin="round"/><path d="M240.94 -31.19 C214.02 -56.55, 189.88 -88.39, 164.99 -108.20 M245.65 -31.09 C220.76 -52.35, 196.64 -76.37, 164.46 -110.79" fill="none" stroke="#202020" stroke-width="2" stroke-linecap="round" stroke-linejoin="round"/></svg>