<svg xmlns="http://www.w3.org/2000/svg" viewBox="0 0 900 320" width="900" height="320"><path d="M15.59 12.82 C268.01 13.91, 521.83 14.80, 884.68 15.08 M14.04 13.59 C335.30 9.15, 656.59 9.67, 886.42 13.68 M885.04 15.03 C884.90 117.45, 887.16 226.12, 888.39 303.20 M885.22 13.76 C888.05 123.42, 889.76 231.76, 885.98 306.26 M884.84 305.28 C637.10 300.79, 385.86 301.16, 12.91 304.44 M886.25 306.71 C608.47 304.70, 331.59 304.41, 14.59 305.40 M11.64 306.97 C17.58 218.66, 14.87 128.26, 14.93 14.06 M13.13 304.72 C14.73 196.49, 13.18 84.92, 14.62 14.06" fill="none" stroke="#202020" stroke-width="2" stroke-linecap="round" stroke-linejoin="round"/><path d="M27.64 31.49 C309.31 24.52, 592.06 26.54, 872.46 33.46 M28.51 32.63 C358.31 34.61, 687.61 35.38, 871.55 31.53" fill="none" stroke="#202020" stroke-width="2" stroke-linecap="round" stroke-linejoin="round"/><path d="M27.43 118.05 C323.62 120.66, 615.85 120.93, 870.53 116.50 M27.21 118.11 C298.34 123.35, 566.67 123.03, 871.41 118.00" fill="none" stroke="#202020" stroke-width="2" stroke-linecap="round" stroke-linejoin="round"/><path d="M26.83 201.85 C279.46 200.51, 531.16 201.77, 870.69 201.14 M28.00 202.65 C241.03 197.13, 453.95 197.46, 872.13 202.62" fill="none" stroke="#202020" stroke-width="2" stroke-linecap="round" stroke-linejoin="round"/><path d="M29.49 287.44 C357.48 292.86, 688.04 292.29, 873.38 288.36 M28.76 288.23 C250.34 284.45, 472.35 283.77, 871.82 287.59" fill="none" stroke="#202020" stroke-width="2" stroke-linecap="round" stroke-linejoin="round"/></svg>