<svg xmlns="http://www.w3.org/2000/svg" viewBox="0 0 436 310" width="436" height="310"><path d="M207.51 7.97 L330.15 101.62 L93.36 100.08" fill="#faf7ef" stroke="none"/><path d="M210.73 13.02 C239.56 36.46, 275.54 61.51, 328.77 99.59 M208.54 9.96 C252.58 43.00, 293.84 73.22, 330.89 102.16 M327.70 103.30 C270.91 97.13, 208.04 101.03, 91.63 105.79 M329.49 101.24 C270.80 106.00, 212.12 105.83, 90.85 102.85 M89.10 99.12 C134.54 66.48, 184.75 30.31, 207.93 12.03 M91.23 102.75 C115.42 80.04, 142.02 62.59, 211.82 11.37" fill="none" stroke="#202020" stroke-width="3" stroke-linecap="round" stroke-linejoin="round"/><path d="M326.89 100.05 L409.18 265.48 L208.78 285.04 L8.02 266.01 L88.98 104.15" fill="#faf7ef" stroke="none"/><path d="M327.48 100.37 C360.08 158.41, 387.87 225.31, 412.46 265.69 M330.98 102.84 C358.48 162.34, 388.27 224.97, 411.09 263.46 M407.25 266.37 C354.27 266.57, 302.07 276.05, 212.75 285.91 M410.64 262.55 C332.68 271.40, 255.39 277.97, 211.02 282.38 M210.02 286.15 C133.61 275.01, 54.81 270.65, 12.51 265.49 M210.66 282.57 C161.74 276.58, 108.50 269.77, 11.19 263.46 M7.88 265.17 C40.87 205.03, 68.87 140.88, 93.31 106.21 M9.55 263.92 C34.66 211.51, 61.13 157.09, 88.94 103.79 M90.86 100.02 C139.19 104.27, 188.78 107.91, 330.91 103.69 M89.16 103.98 C156.26 102.80, 221.27 102.26, 329.21 102.69" fill="none" stroke="#202020" stroke-width="3" stroke-linecap="round" stroke-linejoin="round"/><path d="M208.46 9.68 C205.20 86.06, 206.35 162.19, 213.03 284.64 M208.90 9.23 C214.11 68.26, 214.62 124.85, 210.02 284.66" fill="none" stroke="#202020" stroke-width="3" stroke-linecap="round" stroke-linejoin="round"/><path d="M330.93 105.17 C238.40 150.38, 145.96 197.01, 11.28 265.08 M329.37 102.21 C226.60 152.27, 119.47 204.32, 11.05 263.74" fill="none" stroke="#202020" stroke-width="3" stroke-linecap="round" stroke-linejoin="round"/><path d="M89.66 100.43 C171.39 147.53, 250.77 188.18, 411.02 262.18 M88.97 103.87 C172.24 143.01, 252.23 184.70, 408.84 265.27" fill="none" stroke="#202020" stroke-width="3" stroke-linecap="round" stroke-linejoin="round"/></svg>