<svg xmlns="http://www.w3.org/2000/svg" viewBox="0 0 436 310" width="436" height="310"><path d="M207.56 8.56 L326.79 99.55 L93.91 99.37" fill="#faf7ef" stroke="none"/><path d="M211.98 9.81 C245.56 33.39, 272.71 61.02, 328.13 106.16 M208.95 10.56 C248.65 38.31, 288.06 68.20, 329.89 101.18 M331.70 100.63 C243.76 102.60, 154.95 102.65, 89.93 103.47 M328.36 103.73 C267.10 98.45, 202.57 100.88, 89.38 102.09 M90.93 100.30 C133.15 75.58, 172.19 43.02, 208.01 11.55 M89.69 104.47 C120.73 83.39, 147.26 61.75, 210.89 9.26" fill="none" stroke="#202020" stroke-width="3" stroke-linecap="round" stroke-linejoin="round"/><path d="M331.11 101.63 L412.42 260.89 L209.52 282.51 L13.19 266.89 L90.73 102.59" fill="#faf7ef" stroke="none"/><path d="M331.59 104.18 C362.32 160.68, 387.19 218.80, 407.56 263.26 M329.46 104.54 C346.10 140.24, 367.36 179.70, 408.15 265.94 M407.52 263.66 C335.03 275.10, 261.09 283.82, 206.51 284.50 M411.00 264.14 C331.75 272.30, 253.57 281.46, 210.24 283.20 M210.46 282.92 C131.94 277.61, 51.38 267.93, 13.21 264.19 M211.39 284.82 C142.98 275.20, 76.41 267.79, 8.29 264.67 M12.57 260.73 C29.96 226.28, 46.43 198.24, 87.98 106.27 M9.91 262.14 C40.16 201.86, 69.29 141.31, 89.95 103.68 M91.50 105.40 C173.14 100.59, 253.10 103.10, 330.70 100.44 M91.64 104.40 C159.32 104.12, 232.16 103.54, 329.97 102.19" fill="none" stroke="#202020" stroke-width="3" stroke-linecap="round" stroke-linejoin="round"/><path d="M211.56 9.44 C214.69 109.94, 213.10 213.90, 210.93 281.37 M208.80 11.36 C207.30 117.03, 209.67 222.66, 209.07 284.56" fill="none" stroke="#202020" stroke-width="3" stroke-linecap="round" stroke-linejoin="round"/><path d="M328.66 101.12 C261.40 141.03, 190.30 172.98, 11.03 265.78 M329.26 103.84 C249.05 140.95, 165.78 183.40, 9.94 264.38" fill="none" stroke="#202020" stroke-width="3" stroke-linecap="round" stroke-linejoin="round"/><path d="M89.92 103.03 C152.24 138.63, 218.48 169.98, 411.40 264.52 M90.61 103.02 C172.05 142.48, 252.89 181.86, 410.34 264.72" fill="none" stroke="#202020" stroke-width="3" stroke-linecap="round" stroke-linejoin="round"/></svg>