<svg xmlns="http://www.w3.org/2000/svg" viewBox="0 0 900 300" width="900" height="300"><path d="M47.55 3.71 L318.03 -3.16 L316.39 -46.12 L494.68 -43.24 L497.43 0.74 L857.62 0.59 L851.54 86.97 L902.01 92.62 L900.26 148.61 L856.35 151.01 L852.74 302.89 L497.66 303.99 L497.23 348.88 L313.19 346.40 L313.33 301.33 L41.71 296.53 L44.69 147.87 L1.69 147.28 L-1.43 91.72 L47.41 88.75" fill="#faf7ef" stroke="none"/><path d="M44.83 -2.88 C132.42 -3.95, 214.32 -5.48, 316.46 2.04 M43.47 -1.17 C124.61 -0.71, 207.21 -0.58, 316.53 0.35 M318.63 -3.68 C312.42 -19.88, 313.16 -32.13, 313.14 -46.51 M315.78 -0.61 C314.67 -9.51, 314.02 -18.90, 316.52 -45.74 M313.39 -47.21 C372.08 -41.73, 425.93 -38.18, 497.70 -46.18 M316.80 -45.15 C354.70 -41.06, 390.21 -40.45, 493.74 -45.65 M498.82 -43.27 C495.17 -33.40, 498.29 -25.08, 494.48 0.31 M494.64 -44.16 C493.60 -27.56, 495.69 -14.78, 493.73 0.52 M492.80 2.53 C622.70 2.75, 752.47 2.86, 855.35 -0.88 M494.82 0.58 C579.74 -1.99, 664.84 -2.56, 855.00 -0.76 M852.75 -0.16 C852.82 21.61, 854.35 49.52, 857.12 93.48 M855.01 -1.13 C855.27 24.76, 854.82 52.60, 854.28 89.56 M857.34 89.17 C873.93 90.06, 888.79 86.46, 903.82 86.60 M853.96 89.66 C865.01 88.65, 873.11 92.51, 900.26 89.16 M902.52 86.91 C897.89 103.31, 903.43 120.04, 902.60 151.40 M899.41 90.51 C898.20 105.62, 899.14 122.46, 900.47 148.23 M898.76 153.55 C890.15 149.59, 875.91 150.80, 851.82 148.82 M899.72 151.10 C885.47 151.17, 872.06 148.63, 856.36 149.77 M851.95 153.47 C851.89 186.63, 852.08 231.22, 858.15 299.92 M855.72 149.78 C854.40 205.80, 855.31 259.54, 855.86 299.47 M856.29 300.12 C772.77 299.65, 690.24 300.09, 495.77 300.96 M854.89 299.75 C749.92 297.99, 645.65 299.16, 496.11 299.75 M491.75 297.63 C491.71 313.60, 492.89 324.00, 496.58 343.05 M496.50 298.89 C496.85 313.61, 496.00 332.13, 494.70 346.97 M494.11 347.59 C447.89 341.58, 393.18 347.93, 311.32 348.96 M494.83 345.50 C441.50 345.32, 388.13 343.96, 316.21 345.25 M314.92 347.31 C311.78 333.82, 312.80 327.56, 313.55 302.63 M315.66 346.07 C316.61 330.29, 315.60 310.49, 315.44 300.67 M314.48 297.64 C210.16 298.78, 108.52 302.58, 42.48 298.92 M314.51 300.88 C258.45 299.89, 202.47 298.71, 46.13 300.22 M43.35 297.96 C47.70 243.34, 47.44 189.25, 41.50 151.06 M43.02 298.95 C45.97 252.61, 48.81 206.17, 44.77 149.91 M42.32 152.81 C29.09 148.23, 17.88 152.52, 1.95 147.82 M43.04 148.80 C30.92 148.20, 13.48 148.53, 1.29 150.37 M-3.75 153.98 C-1.12 131.72, -3.49 109.87, 2.81 91.03 M1.55 149.16 C0.42 129.12, 0.20 109.77, 0.51 89.30 M3.61 93.05 C10.29 91.56, 26.55 92.87, 45.14 93.85 M-0.67 89.05 C12.75 88.77, 23.41 88.71, 43.58 90.42 M41.46 87.90 C50.18 61.48, 47.26 31.80, 48.33 3.47 M45.53 91.93 C46.52 54.26, 45.46 21.97, 43.40 1.89" fill="none" stroke="#202020" stroke-width="2" stroke-linecap="round" stroke-linejoin="round"/></svg>