<svg xmlns="http://www.w3.org/2000/svg" viewBox="0 0 960 420" width="960" height="420"><path d="M64.44 -2.72 L333.77 2.82 L332.45 -61.56 L529.10 -63.66 L531.82 0.18 L895.46 3.76 L899.71 122.05 L959.37 129.67 L962.59 207.95 L897.02 207.93 L899.30 419.83 L531.28 421.13 L525.80 479.16 L332.81 479.86 L332.74 419.40 L60.22 416.37 L59.56 206.57 L0.58 211.65 L-2.11 128.12 L62.85 125.68" fill="#faf7ef" stroke="none"/><path d="M62.41 -1.90 C161.76 -5.53, 260.61 -2.44, 339.07 2.25 M62.35 -1.37 C138.05 0.11, 212.33 -1.52, 334.59 -1.44 M332.09 -2.74 C338.14 -19.03, 336.14 -43.56, 332.63 -59.91 M335.31 -1.08 C337.68 -16.38, 336.48 -33.54, 337.60 -61.93 M339.08 -60.28 C409.35 -69.06, 485.75 -67.59, 528.04 -62.69 M336.53 -62.57 C402.95 -64.82, 470.83 -66.41, 527.11 -61.34 M526.35 -64.83 C530.60 -37.72, 526.59 -22.15, 530.03 -1.63 M528.73 -61.28 C526.38 -48.24, 529.16 -33.44, 526.86 0.19 M527.75 -1.55 C667.52 4.27, 802.21 2.28, 898.48 0.35 M528.09 -0.59 C617.52 4.63, 706.51 3.58, 895.79 -0.03 M900.82 -1.84 C895.92 40.51, 898.29 78.47, 900.16 122.72 M895.76 -1.40 C895.15 46.26, 898.19 91.23, 896.87 125.79 M895.24 125.75 C917.86 122.82, 947.83 126.70, 957.40 129.83 M895.59 126.10 C912.82 128.09, 924.39 127.18, 959.44 125.26 M957.19 126.10 C958.89 148.58, 958.30 166.17, 959.99 207.92 M959.48 127.06 C961.54 144.39, 959.79 164.02, 959.43 208.79 M958.41 206.82 C945.31 210.24, 935.08 208.03, 894.29 206.87 M958.28 211.19 C940.51 209.78, 915.86 210.47, 896.21 211.09 M898.18 209.41 C897.26 256.01, 901.95 296.19, 895.55 419.36 M896.80 210.73 C900.06 279.89, 899.39 348.03, 897.53 420.91 M895.41 420.44 C816.77 420.30, 733.54 419.40, 528.10 421.59 M898.17 419.47 C794.66 422.50, 690.64 422.31, 528.26 420.27 M530.55 420.19 C528.05 442.24, 525.23 467.19, 530.16 479.62 M528.49 418.88 C529.60 445.72, 530.46 470.41, 526.93 483.02 M525.03 486.31 C471.62 480.90, 407.27 483.99, 334.45 486.02 M528.07 484.61 C485.79 481.53, 440.41 482.03, 336.24 484.46 M332.24 481.04 C332.26 458.98, 333.46 438.05, 339.24 419.83 M335.56 484.60 C335.27 461.18, 334.95 439.39, 336.36 418.33 M335.60 419.00 C259.30 415.33, 180.24 417.63, 65.56 421.49 M335.08 421.06 C247.49 422.95, 157.64 423.53, 61.47 418.76 M60.92 423.03 C68.04 360.67, 65.04 293.85, 60.14 210.11 M62.58 418.24 C59.86 339.94, 58.89 264.12, 63.66 209.19 M66.72 213.67 C34.21 210.65, 16.28 211.15, -2.53 211.52 M63.39 210.96 C43.67 208.18, 25.72 210.34, -0.80 209.14 M-2.37 213.84 C-0.67 194.61, 1.76 168.03, 3.52 127.99 M-1.58 211.40 C-0.29 175.36, 1.15 145.03, -0.19 127.72 M-0.35 128.98 C19.98 121.89, 48.34 125.59, 65.23 126.51 M-0.54 124.73 C18.49 127.70, 37.25 126.18, 61.50 127.83 M65.02 129.90 C63.20 82.37, 66.24 46.42, 64.00 -1.35 M61.56 126.56 C63.41 78.97, 65.05 33.57, 63.00 0.22" fill="none" stroke="#202020" stroke-width="2" stroke-linecap="round" stroke-linejoin="round"/></svg>