<svg xmlns="http://www.w3.org/2000/svg" viewBox="0 0 900 320" width="900" height="320"><path d="M317.55 81.27 C317.55 81.27, 317.55 81.27, 317.55 81.27 M317.55 81.27 C317.55 81.27, 317.55 81.27, 317.55 81.27 M299.36 105.16 C316.89 83.38, 333.66 63.44, 356.67 42.68 M301.56 106.17 C323.04 83.92, 339.50 60.49, 352.26 47.02 M292.05 121.20 C318.97 96.97, 336.34 72.50, 364.84 37.06 M293.37 122.05 C317.47 88.44, 348.32 57.60, 361.66 39.01 M290.76 128.47 C310.23 104.03, 337.11 77.14, 377.80 30.44 M291.23 128.55 C306.83 109.34, 322.95 92.39, 374.27 35.78 M288.99 137.16 C312.35 109.54, 334.92 81.50, 386.32 23.70 M292.15 138.50 C314.41 109.69, 338.38 83.06, 385.12 29.04 M293.18 146.24 C332.34 91.49, 367.33 51.16, 392.45 22.44 M289.84 144.66 C327.10 102.01, 364.86 57.65, 393.71 20.73 M286.30 149.00 C328.06 111.59, 365.03 66.31, 398.62 23.76 M290.79 148.80 C330.25 99.42, 372.73 53.58, 400.16 22.14 M285.80 158.17 C331.15 103.88, 371.61 61.82, 405.46 19.65 M289.11 156.65 C327.63 106.78, 372.75 61.81, 408.86 20.34 M288.68 166.98 C319.79 131.58, 347.71 92.65, 416.81 16.34 M286.62 164.66 C330.59 119.11, 369.83 72.43, 415.19 21.73 M285.82 172.95 C321.15 128.70, 360.99 85.42, 415.99 17.05 M285.74 171.35 C327.02 126.88, 366.32 84.01, 418.67 19.12 M289.69 174.92 C336.91 122.05, 381.65 74.69, 425.36 22.31 M288.01 178.47 C315.51 146.99, 343.63 114.34, 423.67 20.50 M283.95 180.16 C323.17 133.13, 370.98 83.75, 434.06 17.98 M287.52 181.67 C337.60 127.16, 387.08 71.61, 430.20 16.93 M288.01 188.31 C338.94 130.58, 388.74 72.33, 435.47 18.78 M288.20 190.68 C331.82 142.68, 373.87 94.19, 436.82 17.01 M286.49 193.15 C345.21 126.52, 403.63 60.48, 445.40 18.42 M289.13 192.56 C335.96 140.79, 384.28 87.59, 442.56 18.83 M291.92 199.31 C330.37 153.24, 369.86 107.58, 448.82 16.60 M288.29 198.82 C347.52 135.47, 403.39 68.94, 446.81 16.13 M287.93 205.29 C325.68 166.97, 362.96 122.88, 454.21 18.77 M289.18 203.96 C323.96 168.21, 358.50 129.03, 453.43 18.00 M293.54 212.47 C332.53 160.55, 372.92 108.93, 458.27 15.30 M290.59 211.02 C341.50 149.86, 391.54 95.89, 456.22 17.01 M289.64 214.03 C327.62 174.32, 360.32 134.26, 460.37 17.92 M290.59 217.17 C353.51 142.61, 419.69 68.57, 463.62 19.06 M294.67 222.61 C342.69 167.34, 391.07 110.97, 464.60 19.89 M292.56 221.82 C326.27 178.24, 360.68 134.50, 467.10 17.60 M293.62 222.55 C354.05 148.32, 421.16 79.41, 472.16 16.43 M293.02 223.38 C362.88 144.41, 432.45 65.96, 471.70 17.98 M297.24 229.79 C339.75 173.75, 385.44 125.04, 479.04 17.12 M296.79 228.56 C366.45 144.88, 438.91 61.33, 475.92 21.08 M295.43 233.79 C351.08 159.44, 409.40 97.39, 485.01 21.00 M297.59 232.27 C354.59 162.84, 411.54 96.69, 480.51 21.16 M301.33 238.79 C349.72 178.26, 399.96 124.13, 485.61 21.35 M299.11 236.81 C373.15 153.13, 445.93 68.81, 488.26 21.22 M303.63 240.37 C343.42 190.70, 385.64 142.33, 492.85 19.11 M301.63 241.36 C349.15 186.73, 398.88 129.81, 493.09 21.75 M303.40 246.90 C376.35 163.34, 450.60 76.92, 498.07 20.47 M304.10 245.03 C356.06 186.11, 408.99 122.58, 496.18 20.76 M302.56 248.21 C375.38 166.22, 445.35 90.32, 500.06 26.15 M303.71 249.91 C343.27 198.44, 384.69 151.87, 499.98 22.49 M308.13 254.80 C380.18 166.65, 456.23 84.35, 504.14 25.19 M305.76 252.43 C371.32 177.87, 436.64 102.32, 503.80 25.25 M306.24 256.55 C354.73 198.57, 405.80 137.27, 506.97 29.08 M307.19 257.95 C387.21 163.60, 466.09 74.81, 508.56 28.21 M309.60 258.68 C349.72 212.33, 395.45 166.92, 512.61 30.32 M309.24 259.88 C382.10 182.04, 450.48 103.09, 511.99 28.64 M310.48 262.02 C363.57 200.56, 417.75 139.63, 517.39 28.08 M313.01 262.89 C385.91 182.46, 461.06 98.41, 516.28 28.45 M314.88 267.87 C361.09 211.21, 403.36 161.53, 518.25 30.02 M313.62 267.40 C399.18 174.77, 478.78 82.30, 521.02 31.61 M319.18 270.42 C360.56 217.58, 401.82 170.13, 524.49 31.32 M317.35 271.00 C385.77 188.34, 457.46 108.55, 522.73 33.73 M321.51 274.25 C366.54 223.31, 404.55 176.98, 530.96 36.57 M321.22 272.89 C370.80 215.00, 420.22 156.26, 527.38 33.25 M323.12 276.88 C388.78 197.88, 456.87 120.91, 529.43 37.65 M324.57 275.60 C389.34 202.80, 449.24 129.56, 531.65 36.60 M324.02 279.57 C387.43 206.14, 452.40 131.74, 534.38 38.33 M324.48 279.07 C405.68 191.62, 483.66 101.97, 537.36 37.94 M326.58 279.97 C376.98 222.15, 433.36 158.02, 540.64 36.96 M329.67 281.76 C388.99 212.29, 448.55 143.65, 540.84 39.66 M331.85 283.91 C377.15 231.14, 421.81 181.61, 544.45 42.63 M329.91 284.44 C380.47 229.27, 429.98 172.71, 543.10 40.37 M331.68 289.40 C419.94 193.40, 498.91 97.63, 543.53 43.89 M334.09 288.12 C397.91 218.27, 461.85 146.71, 545.91 44.44 M339.01 289.24 C405.23 208.99, 474.72 130.37, 548.03 47.77 M335.86 292.41 C412.11 203.18, 487.02 118.77, 549.57 47.34 M339.35 295.76 C414.14 203.79, 496.06 115.05, 552.94 50.74 M338.89 293.07 C424.45 200.57, 506.41 105.00, 550.85 49.58 M339.43 299.42 C399.85 229.56, 455.51 159.82, 554.63 53.03 M340.72 297.59 C388.88 249.40, 433.24 197.62, 555.21 51.30 M348.11 300.94 C409.99 224.59, 474.58 148.40, 560.30 55.28 M346.35 298.38 C401.90 235.61, 458.60 168.52, 558.75 53.92 M348.23 299.98 C415.93 228.86, 479.14 151.69, 559.64 59.74 M349.50 301.33 C422.86 212.99, 499.91 125.44, 561.91 58.20 M349.82 304.56 C412.39 241.70, 462.91 176.01, 562.11 58.30 M351.68 302.68 C402.27 239.40, 457.26 177.71, 562.85 60.58 M357.75 306.74 C400.96 252.54, 448.47 195.56, 567.46 60.60 M355.81 304.53 C423.22 227.69, 490.67 149.96, 567.53 63.48 M360.20 309.31 C440.09 213.23, 519.23 122.39, 569.52 65.00 M359.38 308.03 C400.28 261.09, 444.00 211.65, 568.17 64.70 M362.07 312.05 C420.83 240.33, 482.35 169.97, 575.22 69.34 M361.47 308.96 C429.76 234.06, 495.51 155.43, 572.24 68.36 M366.89 311.22 C438.22 225.37, 513.49 143.99, 574.67 71.36 M366.66 312.58 C422.70 244.84, 481.93 178.32, 576.78 71.37 M371.29 317.13 C434.97 240.72, 501.02 161.99, 577.28 76.01 M370.18 315.70 C421.18 257.90, 472.77 196.86, 577.88 74.03 M373.24 315.26 C431.86 250.14, 486.86 187.46, 582.41 79.91 M372.31 316.34 C441.58 234.35, 509.24 153.49, 579.01 78.68 M378.07 316.88 C456.19 228.19, 531.61 142.63, 582.27 79.97 M374.84 318.67 C420.04 265.74, 468.42 209.87, 582.51 83.04 M380.38 322.05 C425.52 267.87, 468.39 216.63, 581.72 86.71 M379.33 320.90 C442.70 250.96, 502.59 182.41, 585.39 84.48 M384.54 325.45 C441.42 254.78, 499.97 188.16, 585.62 87.61 M383.54 322.33 C422.37 275.44, 462.06 229.42, 584.72 90.73 M387.20 322.81 C434.59 271.28, 480.87 218.10, 590.67 91.24 M386.12 326.34 C450.23 256.03, 511.70 184.01, 588.98 93.52 M392.36 327.32 C461.07 253.10, 528.89 172.53, 593.12 94.47 M391.35 326.09 C439.41 273.25, 487.84 215.15, 590.49 96.16 M396.11 325.20 C438.63 280.99, 483.25 224.99, 593.90 98.21 M395.94 328.65 C468.38 246.02, 537.48 166.54, 593.58 99.10 M399.61 328.47 C465.25 252.94, 525.80 178.42, 595.20 100.94 M399.70 328.83 C474.99 237.63, 553.03 148.63, 593.49 102.87 M403.23 329.40 C458.93 266.34, 513.15 204.05, 595.98 106.32 M404.10 329.32 C469.48 256.10, 534.47 184.24, 597.17 107.34 M406.63 330.78 C467.91 263.10, 531.43 197.94, 599.80 108.35 M407.26 332.09 C448.80 281.08, 490.67 235.92, 599.21 110.12 M411.08 333.38 C458.85 277.90, 500.47 222.61, 603.73 115.05 M412.74 333.09 C470.05 262.88, 529.43 192.80, 600.15 114.77 M418.94 333.53 C451.31 290.41, 492.71 242.74, 604.27 118.48 M417.07 332.92 C474.08 271.07, 529.90 204.38, 604.16 118.32 M419.40 335.68 C481.50 264.04, 539.40 199.29, 604.15 122.62 M421.19 333.80 C467.91 281.56, 513.73 230.61, 604.25 122.49 M425.35 336.64 C473.67 272.47, 527.82 211.28, 605.86 127.85 M425.30 337.45 C476.60 275.42, 528.73 214.57, 604.68 127.16 M431.86 340.23 C481.46 273.25, 540.85 212.53, 609.40 132.29 M430.56 336.68 C483.93 273.90, 537.13 214.76, 606.18 132.58 M435.42 336.35 C494.66 266.65, 557.31 195.65, 608.84 138.38 M434.19 337.55 C471.46 296.64, 509.62 253.12, 607.74 137.55 M439.27 334.89 C508.84 257.92, 573.56 182.98, 613.23 143.11 M441.19 336.90 C477.81 292.23, 515.97 251.95, 611.21 142.47 M448.94 334.97 C508.78 268.60, 566.90 191.28, 612.64 143.30 M445.62 334.89 C491.99 289.76, 532.89 241.20, 612.62 146.34 M454.15 338.78 C504.68 273.84, 550.53 215.47, 614.27 150.40 M451.89 335.68 C517.81 263.38, 581.76 190.68, 613.09 147.60 M461.05 333.73 C517.03 263.13, 578.14 195.71, 616.50 154.48 M456.53 335.59 C501.65 285.93, 546.89 232.55, 614.75 152.68 M462.44 331.85 C507.17 287.93, 545.71 237.14, 615.45 158.80 M465.06 334.48 C502.71 288.31, 543.18 242.27, 618.04 157.76 M468.10 331.10 C513.91 282.58, 557.00 228.39, 614.42 167.27 M468.38 334.80 C523.43 273.69, 578.26 211.12, 617.13 165.69 M475.53 333.36 C536.75 270.53, 589.33 205.15, 618.29 173.11 M476.56 333.37 C521.69 273.87, 573.93 213.20, 614.93 171.34 M480.89 333.26 C521.93 292.55, 560.73 246.78, 613.90 180.82 M480.25 334.17 C513.66 296.07, 546.02 256.05, 615.21 176.67 M483.57 333.08 C530.75 277.68, 575.96 227.66, 612.87 180.69 M485.70 332.92 C531.53 283.71, 574.02 233.76, 613.76 184.24 M494.03 332.24 C526.15 292.93, 559.84 253.16, 612.01 189.63 M495.33 330.06 C521.31 294.32, 547.74 265.06, 615.66 192.13 M498.53 324.45 C538.27 286.21, 576.97 243.35, 610.81 197.48 M502.58 328.97 C523.53 301.22, 550.21 270.48, 615.25 196.86 M506.86 326.62 C548.11 285.20, 582.34 247.58, 609.61 206.75 M506.06 327.31 C547.08 283.89, 581.77 239.34, 612.40 202.60 M512.17 324.41 C537.08 292.70, 564.87 258.85, 609.95 213.96 M516.81 322.81 C552.07 279.14, 589.10 238.02, 609.53 212.02 M523.77 322.01 C548.90 296.90, 572.51 267.58, 608.87 220.90 M523.22 319.49 C547.00 292.91, 571.76 267.49, 606.85 222.99 M532.67 316.70 C553.62 292.09, 579.06 266.50, 600.08 234.21 M532.87 316.01 C551.76 291.33, 574.49 266.23, 604.45 233.17 M543.58 307.33 C559.05 288.89, 580.31 267.36, 599.61 247.06 M545.95 306.31 C561.80 287.77, 573.57 272.31, 599.46 246.32 M564.70 297.05 C567.08 286.27, 572.75 283.10, 583.98 268.19 M559.91 293.53 C569.63 287.85, 578.91 276.30, 581.67 268.22" fill="#faf7ef" stroke="none"/><path d="M350.02 47.74 C360.59 36.17, 378.17 27.40, 393.97 22.24 C409.77 17.08, 428.20 16.98, 444.82 16.79 C461.43 16.59, 477.80 17.45, 493.65 21.06 C509.50 24.66, 526.45 30.27, 539.91 38.40 C553.37 46.53, 564.23 57.39, 574.41 69.85 C584.58 82.32, 593.93 98.51, 600.93 113.19 C607.94 127.86, 614.44 142.49, 616.42 157.90 C618.40 173.32, 616.14 190.25, 612.81 205.70 C609.49 221.15, 604.01 236.52, 596.46 250.60 C588.91 264.68, 578.96 278.74, 567.53 290.20 C556.10 301.66, 541.99 312.34, 527.86 319.35 C513.72 326.37, 499.03 329.33, 482.73 332.27 C466.42 335.21, 446.35 338.34, 430.04 336.98 C413.72 335.62, 399.61 330.86, 384.85 324.12 C370.08 317.37, 354.00 307.11, 341.44 296.49 C328.88 285.87, 317.90 273.32, 309.47 260.39 C301.05 247.46, 294.88 233.61, 290.90 218.91 C286.91 204.22, 285.47 188.36, 285.58 172.19 C285.69 156.03, 286.25 137.07, 291.57 121.93 C296.89 106.79, 305.54 95.14, 317.48 81.35 C329.42 67.57, 353.62 47.04, 363.22 39.21 C372.81 31.38, 373.35 32.02, 375.06 34.39 M524.15 28.42 C539.85 33.07, 553.99 47.77, 565.23 59.00 C576.48 70.22, 583.43 82.48, 591.63 95.78 C599.84 109.07, 610.45 123.62, 614.46 138.76 C618.47 153.90, 617.15 170.48, 615.67 186.63 C614.19 202.77, 611.15 221.04, 605.57 235.64 C599.99 250.23, 592.40 261.69, 582.20 274.22 C571.99 286.76, 558.20 301.28, 544.35 310.84 C530.49 320.40, 514.54 326.94, 499.08 331.59 C483.62 336.25, 467.89 339.17, 451.60 338.76 C435.32 338.36, 417.14 334.42, 401.38 329.15 C385.62 323.89, 370.28 316.47, 357.06 307.16 C343.84 297.84, 332.21 285.14, 322.06 273.27 C311.91 261.41, 302.14 250.70, 296.15 235.98 C290.17 221.25, 287.71 200.97, 286.16 184.94 C284.60 168.90, 283.66 154.74, 286.84 139.76 C290.03 124.77, 296.98 109.09, 305.27 95.03 C313.57 80.97, 324.80 66.29, 336.63 55.38 C348.45 44.48, 361.51 36.22, 376.24 29.58 C390.97 22.94, 408.24 18.03, 425.01 15.55 C441.79 13.07, 460.57 11.91, 476.91 14.69 C493.26 17.46, 515.51 29.17, 523.08 32.21 C530.64 35.24, 523.90 30.75, 522.30 32.91" fill="none" stroke="#202020" stroke-width="2" stroke-linecap="round" stroke-linejoin="round"/><path d="M243.45 69.86 C243.45 69.86, 243.45 69.86, 243.45 69.86 M243.45 69.86 C243.45 69.86, 243.45 69.86, 243.45 69.86 M240.19 82.89 C250.64 66.66, 261.08 57.71, 288.94 22.52 M238.13 82.79 C257.23 61.84, 273.73 36.97, 288.44 24.34 M232.46 93.87 C259.40 67.21, 281.56 35.18, 304.42 17.06 M228.71 99.04 C258.96 63.44, 286.42 31.54, 305.13 11.51 M220.64 112.83 C249.04 79.61, 281.38 38.97, 320.74 7.74 M222.20 110.17 C251.38 75.16, 280.10 42.13, 317.96 2.96 M217.40 124.01 C243.97 94.30, 262.68 72.91, 327.31 -1.97 M218.29 119.22 C253.37 82.08, 289.13 42.59, 328.20 -5.84 M217.73 125.85 C249.40 84.19, 285.04 48.15, 334.21 -10.97 M219.99 128.82 C241.16 101.57, 266.56 68.50, 335.56 -9.06 M217.99 133.87 C244.07 105.23, 267.86 77.70, 344.84 -6.44 M217.90 136.82 C239.19 105.82, 267.52 76.22, 346.00 -8.28 M218.50 148.28 C265.54 87.89, 312.65 28.29, 349.55 -10.41 M213.87 143.95 C261.73 90.86, 308.87 34.57, 350.85 -13.32 M210.68 153.08 C247.13 113.79, 275.81 82.70, 361.62 -16.15 M212.72 152.96 C247.42 109.96, 283.03 68.19, 360.58 -16.26 M210.25 159.57 C248.78 128.20, 279.33 91.77, 365.97 -18.59 M210.56 159.51 C247.76 124.24, 283.91 81.37, 369.57 -19.69 M213.78 171.10 C263.54 108.63, 311.78 48.12, 377.54 -20.24 M209.23 169.27 C271.70 99.12, 332.45 30.03, 377.21 -23.13 M209.40 171.82 C275.57 105.39, 333.29 37.78, 382.12 -25.46 M209.91 175.12 C275.68 104.98, 336.87 32.25, 383.02 -25.20 M212.65 181.15 C280.38 99.01, 345.91 23.41, 390.63 -23.66 M212.08 180.30 C281.21 100.26, 349.25 22.97, 390.89 -26.88 M211.72 186.79 C270.15 117.46, 334.78 45.24, 392.92 -27.83 M212.57 184.21 C280.18 108.24, 345.83 32.54, 395.51 -25.38 M212.37 190.43 C287.45 110.07, 359.11 24.28, 399.63 -28.94 M214.71 189.40 C273.82 121.78, 333.84 50.17, 400.47 -27.74 M214.25 197.40 C276.49 120.16, 347.12 41.07, 409.40 -26.07 M212.65 193.80 C270.23 131.66, 325.22 69.18, 406.19 -28.86 M213.42 199.22 C270.19 137.96, 330.29 71.60, 415.67 -29.29 M215.56 198.78 C272.25 130.78, 327.14 65.50, 413.09 -29.90 M216.66 206.42 C271.39 138.23, 333.18 67.47, 421.34 -28.47 M214.11 205.97 C260.70 152.01, 308.11 97.54, 420.70 -28.95 M218.83 211.09 C259.27 153.58, 307.56 100.72, 423.26 -27.82 M217.76 211.04 C300.93 119.08, 380.46 28.41, 425.20 -30.38 M217.52 214.50 C285.90 134.04, 355.50 55.02, 433.12 -29.26 M217.68 217.27 C269.63 159.11, 318.65 100.62, 432.28 -29.18 M217.95 221.43 C266.51 161.36, 322.66 102.28, 439.92 -30.47 M218.00 221.74 C308.82 119.93, 395.32 19.03, 437.26 -30.45 M221.10 223.48 C281.02 152.85, 345.42 74.83, 444.09 -31.37 M219.30 226.23 C271.92 167.27, 322.87 106.78, 443.17 -33.29 M220.36 227.80 C279.01 154.95, 342.77 86.15, 447.27 -32.00 M220.65 229.61 C298.32 138.19, 377.84 45.09, 448.30 -32.28 M220.74 231.96 C282.22 169.68, 337.65 99.99, 453.98 -29.48 M222.73 233.94 C303.00 142.36, 382.27 50.81, 454.13 -31.94 M225.58 238.36 C283.45 169.93, 343.22 101.44, 458.39 -31.38 M222.85 239.14 C287.45 168.98, 349.86 95.06, 459.40 -32.14 M222.96 241.48 C298.67 157.41, 378.94 64.71, 464.36 -29.39 M225.86 242.55 C286.77 173.50, 344.85 107.08, 463.37 -32.43 M227.72 249.45 C304.99 156.56, 381.76 66.96, 469.74 -33.23 M227.26 248.71 C274.86 186.72, 329.14 125.46, 468.24 -31.72 M228.65 252.90 C292.12 180.78, 353.06 111.29, 471.94 -29.21 M226.73 253.08 C322.57 141.05, 418.10 30.01, 473.46 -31.74 M230.21 258.77 C313.65 164.14, 393.00 75.26, 480.80 -32.61 M229.18 256.57 C293.56 182.54, 355.47 112.26, 478.84 -31.20 M229.97 260.66 C328.50 143.90, 428.28 28.37, 483.07 -31.66 M231.23 262.32 C288.33 195.69, 345.69 130.26, 483.36 -28.89 M230.04 263.77 C311.55 177.14, 383.17 94.39, 487.68 -31.79 M231.90 265.51 C304.57 179.29, 381.16 92.49, 489.50 -28.98 M233.22 270.18 C299.15 190.96, 370.75 112.34, 495.07 -29.76 M233.99 269.44 C312.10 181.60, 387.88 94.29, 494.72 -29.91 M237.74 273.99 C329.40 168.33, 424.16 55.33, 498.31 -29.95 M235.82 274.83 C333.21 156.80, 431.82 42.94, 498.91 -28.46 M238.99 276.89 C307.34 197.40, 378.88 121.03, 501.64 -26.89 M237.02 277.61 C320.37 176.18, 407.82 77.51, 504.36 -28.01 M240.81 279.57 C309.34 199.34, 376.06 117.71, 509.78 -25.21 M242.17 280.14 C317.24 192.04, 393.58 103.18, 507.95 -27.62 M241.72 283.34 C332.47 185.07, 417.43 87.89, 510.85 -25.78 M244.11 283.42 C327.28 190.57, 408.73 98.63, 512.80 -25.91 M247.62 286.28 C342.00 172.59, 444.50 59.39, 518.11 -24.00 M245.47 285.91 C314.50 209.26, 383.52 128.73, 517.20 -24.02 M246.87 289.87 C314.52 216.39, 374.84 143.29, 521.45 -24.32 M248.12 289.11 C328.28 197.63, 408.93 102.97, 521.22 -23.36 M250.75 293.52 C324.75 206.11, 401.68 119.86, 526.95 -22.33 M250.64 292.34 C358.98 167.41, 466.92 44.39, 525.77 -21.73 M251.95 295.40 C347.64 187.63, 447.70 76.79, 527.69 -22.76 M253.99 296.75 C319.53 217.14, 389.15 139.17, 529.00 -20.60 M255.21 299.71 C323.86 222.74, 388.82 145.41, 531.36 -18.71 M255.44 298.40 C340.93 199.58, 424.91 104.66, 532.51 -18.27 M256.97 303.19 C345.79 202.36, 432.58 101.12, 535.22 -16.08 M257.99 302.20 C322.10 227.32, 385.62 155.80, 537.02 -17.09 M261.55 304.93 C323.97 228.94, 394.15 150.57, 539.55 -18.72 M261.81 305.53 C362.11 187.09, 464.49 69.14, 540.92 -17.27 M264.70 308.76 C369.29 193.56, 472.14 77.07, 544.63 -14.54 M263.58 309.58 C364.63 191.26, 465.06 76.44, 546.80 -16.00 M267.82 312.01 C366.54 197.60, 466.69 85.85, 551.09 -13.64 M266.12 312.97 C357.05 209.46, 448.70 102.92, 549.62 -14.30 M268.10 315.41 C365.71 201.52, 466.20 90.62, 555.01 -12.60 M269.84 315.36 C371.00 199.29, 472.28 84.09, 552.96 -12.76 M272.00 319.08 C357.97 218.38, 444.49 120.39, 559.85 -10.28 M272.85 317.35 C341.57 240.22, 411.58 159.85, 558.27 -10.90 M277.35 317.33 C376.18 204.60, 475.79 89.03, 562.23 -8.97 M275.43 319.02 C334.54 250.89, 392.97 183.23, 562.84 -10.62 M279.69 323.05 C370.01 221.00, 462.31 113.00, 566.40 -7.27 M279.57 321.21 C367.67 221.41, 456.50 121.79, 565.76 -7.81 M282.48 325.34 C378.46 212.38, 474.11 102.55, 570.11 -4.48 M282.81 324.17 C369.96 219.93, 460.59 117.03, 569.24 -6.92 M284.61 326.25 C384.74 213.27, 481.72 96.48, 572.16 -4.58 M285.13 326.49 C382.42 215.53, 477.77 104.34, 571.53 -3.96 M287.82 329.84 C399.53 200.33, 509.08 74.07, 574.71 -0.60 M289.48 329.47 C371.30 229.63, 457.50 133.20, 576.71 -1.29 M291.31 333.32 C396.06 207.13, 504.44 83.27, 580.09 0.47 M291.70 331.80 C392.68 215.35, 494.54 98.35, 578.72 -0.36 M292.92 335.06 C385.57 229.77, 479.22 123.38, 580.93 1.05 M294.11 334.09 C355.91 262.99, 416.98 193.93, 581.61 3.33 M296.21 337.06 C364.27 252.42, 436.83 173.43, 584.68 4.07 M298.51 337.60 C398.63 223.33, 498.38 107.62, 585.42 5.32 M299.30 339.28 C385.86 239.06, 469.10 141.54, 589.44 7.75 M301.03 339.19 C378.46 248.60, 461.08 153.87, 588.33 7.65 M304.44 341.36 C399.08 240.63, 487.56 135.06, 592.66 7.82 M303.57 340.64 C411.27 217.40, 518.03 96.51, 593.90 8.37 M308.46 344.09 C405.05 234.24, 503.95 119.61, 596.51 12.62 M306.98 343.92 C403.83 235.21, 498.77 126.49, 595.06 12.03 M308.39 347.95 C373.94 274.87, 436.33 202.42, 599.67 12.48 M309.99 346.64 C374.54 276.48, 436.70 203.45, 599.67 12.78 M313.15 350.18 C399.55 249.06, 484.94 149.04, 601.02 15.67 M313.67 349.16 C412.77 235.73, 513.96 118.24, 602.35 16.76 M315.44 350.26 C380.80 282.44, 444.69 211.28, 606.36 16.50 M316.89 351.91 C401.24 256.58, 484.80 159.89, 606.68 18.08 M318.81 354.92 C400.09 262.97, 480.13 169.79, 607.76 19.60 M321.09 352.34 C412.15 246.80, 504.31 140.36, 609.21 21.39 M323.76 353.11 C418.06 243.46, 517.12 131.47, 610.52 23.38 M323.36 355.77 C420.03 239.37, 518.42 128.63, 612.22 23.48 M327.85 354.09 C423.97 247.83, 515.23 141.47, 614.98 25.40 M327.92 354.96 C387.05 286.72, 445.64 219.97, 615.72 25.98 M331.11 358.56 C427.13 247.57, 525.47 138.06, 616.51 31.03 M331.81 358.75 C402.40 276.67, 472.17 195.72, 617.83 28.88 M337.07 360.63 C392.81 292.64, 454.27 224.47, 618.73 32.37 M335.38 359.38 C410.04 275.44, 484.43 190.62, 621.51 31.19 M338.64 361.94 C429.68 259.81, 515.79 158.60, 622.31 33.95 M340.12 360.49 C433.71 252.81, 531.34 139.79, 623.47 34.73 M345.08 362.41 C411.69 278.41, 484.17 195.25, 626.04 39.73 M343.25 363.11 C402.34 297.22, 461.22 227.94, 625.64 38.32 M347.55 363.64 C451.03 246.41, 557.14 126.29, 628.94 38.93 M347.57 364.94 C416.13 285.46, 483.08 208.95, 629.08 41.62 M351.26 367.01 C439.80 269.36, 525.86 171.84, 633.22 43.66 M352.83 366.35 C424.92 279.36, 501.77 193.77, 630.99 43.22 M354.28 369.32 C458.78 252.33, 558.18 131.08, 636.00 47.77 M355.57 367.88 C445.35 264.31, 534.95 158.01, 634.27 47.33 M358.04 367.91 C447.00 264.04, 536.25 159.92, 637.28 50.70 M359.75 370.18 C467.39 247.51, 575.15 125.26, 637.93 50.24 M364.24 372.33 C428.65 300.52, 489.83 226.26, 639.28 52.37 M363.12 370.45 C452.50 267.32, 539.02 167.03, 639.14 53.40 M365.30 374.25 C451.49 275.46, 536.38 174.70, 643.26 56.28 M366.45 372.14 C476.76 248.41, 586.11 121.28, 642.22 54.44 M371.02 373.94 C448.41 281.92, 532.60 187.74, 644.25 56.08 M371.01 372.96 C442.96 289.82, 514.15 208.10, 646.08 57.72 M376.39 373.62 C456.63 281.63, 538.30 188.48, 650.20 62.15 M377.36 374.59 C481.77 254.56, 585.41 134.01, 647.38 62.31 M382.44 375.39 C442.24 307.63, 504.43 239.99, 652.01 64.56 M381.53 375.15 C468.19 274.32, 558.73 168.16, 649.72 64.76 M387.56 373.87 C445.56 307.11, 508.37 234.56, 651.36 69.42 M385.79 376.74 C461.86 289.53, 538.27 201.86, 653.97 68.52 M391.24 379.00 C477.57 277.54, 562.51 176.73, 656.75 70.74 M389.79 378.28 C492.94 261.53, 590.44 145.86, 654.97 71.42 M393.11 376.88 C459.10 299.10, 523.36 224.77, 657.90 77.09 M395.04 377.30 C471.21 285.46, 551.04 193.02, 658.49 74.50 M399.22 377.91 C499.47 269.99, 594.38 157.76, 659.89 76.99 M398.90 379.28 C480.45 286.93, 562.14 194.16, 659.78 79.90 M402.59 378.56 C483.63 282.95, 569.67 188.99, 660.33 82.55 M403.29 379.46 C498.33 272.87, 589.98 165.93, 662.57 82.17 M405.68 381.11 C497.17 283.38, 580.78 183.44, 662.24 87.16 M408.80 380.70 C477.26 299.43, 548.97 219.24, 663.81 86.41 M409.94 383.82 C488.46 296.27, 563.77 210.86, 666.46 88.13 M411.46 382.58 C496.79 284.26, 578.12 190.75, 666.70 89.32 M416.99 380.46 C471.65 320.74, 524.38 257.85, 670.62 90.96 M418.00 382.28 C516.23 268.12, 612.03 156.67, 667.89 91.92 M419.71 383.12 C473.89 322.51, 525.98 262.46, 670.07 96.41 M422.30 384.13 C479.53 320.12, 537.20 253.80, 671.40 95.03 M426.37 384.39 C499.37 299.41, 571.28 220.21, 672.15 102.35 M425.19 383.79 C503.00 292.63, 582.18 200.05, 672.80 99.96 M428.65 384.35 C524.04 280.18, 619.43 170.37, 676.19 104.78 M431.51 385.56 C522.11 282.02, 609.56 181.53, 676.08 102.77 M435.97 386.20 C503.40 309.88, 564.83 235.69, 675.66 109.99 M435.32 384.40 C505.48 305.03, 573.52 224.26, 676.78 108.42 M443.31 384.66 C519.08 289.68, 600.65 196.79, 677.50 113.26 M440.33 383.84 C533.97 279.40, 627.43 172.63, 678.90 112.37 M444.03 385.51 C535.10 279.29, 626.10 177.73, 678.45 115.22 M445.45 386.29 C531.23 283.56, 619.48 183.46, 678.71 118.39 M449.57 386.70 C497.90 328.23, 548.95 269.17, 679.23 120.56 M450.66 386.63 C506.14 321.36, 561.15 258.51, 679.10 123.39 M458.36 387.00 C515.79 323.02, 567.60 256.21, 683.10 124.79 M456.53 386.05 C533.39 294.01, 611.87 203.33, 680.83 128.16 M461.11 386.07 C523.02 313.94, 586.70 239.27, 683.72 131.10 M461.48 386.62 C543.72 289.78, 627.76 193.50, 681.51 131.29 M467.45 385.17 C538.99 300.76, 611.67 211.71, 683.02 138.12 M467.37 386.48 C516.30 329.54, 563.26 272.15, 684.25 137.91 M470.07 384.06 C523.58 330.38, 568.31 275.62, 685.32 143.40 M472.76 386.93 C524.83 320.59, 580.70 258.78, 684.11 141.13 M476.95 383.86 C553.66 304.98, 625.35 219.77, 686.63 147.28 M478.97 385.17 C533.17 321.30, 587.22 260.71, 685.41 146.43 M481.75 385.66 C549.80 307.88, 616.60 230.55, 687.43 151.79 M482.36 386.14 C544.52 310.06, 609.31 238.75, 685.55 150.94 M486.91 385.34 C552.44 319.83, 611.69 247.47, 685.76 156.69 M488.90 384.00 C555.61 305.53, 623.25 226.34, 686.26 157.51 M499.29 379.59 C574.10 300.23, 648.82 210.05, 686.81 163.46 M495.27 382.50 C573.30 296.90, 651.75 207.88, 688.61 162.02 M503.73 377.71 C569.94 306.78, 629.07 237.19, 687.38 168.46 M504.36 379.80 C553.44 324.49, 602.24 265.61, 689.41 167.24 M512.79 380.59 C576.35 300.20, 649.82 217.15, 690.38 172.44 M511.32 379.03 C573.89 306.52, 635.46 239.06, 688.56 174.32 M515.45 374.20 C572.99 310.02, 628.31 248.55, 691.31 182.04 M517.80 377.51 C552.76 334.19, 590.26 291.04, 688.14 180.33 M523.51 377.10 C573.37 310.94, 624.26 253.20, 686.12 187.52 M523.61 374.28 C575.29 315.49, 629.48 256.30, 690.52 185.96 M531.87 372.13 C569.87 333.09, 601.06 289.26, 687.80 189.67 M532.68 374.17 C585.44 303.00, 644.19 238.97, 689.18 191.90 M536.24 370.07 C584.17 313.08, 629.17 265.02, 689.91 200.20 M537.15 369.37 C575.84 329.13, 610.24 289.89, 689.80 198.06 M545.10 371.14 C585.12 332.02, 621.34 286.86, 689.25 203.21 M545.75 368.88 C596.05 315.84, 642.20 259.64, 689.76 204.80 M555.15 363.54 C609.20 303.91, 663.75 243.09, 686.43 209.30 M552.53 364.73 C598.90 314.57, 642.70 264.30, 690.59 210.29 M566.57 357.85 C599.69 321.20, 642.50 273.78, 686.48 218.36 M561.92 362.18 C591.59 331.36, 616.37 300.76, 685.73 219.51 M576.94 353.08 C600.13 331.77, 619.68 303.63, 682.03 233.32 M572.33 354.19 C606.19 314.71, 644.44 272.16, 679.55 231.94 M582.39 353.96 C616.34 314.62, 646.62 273.57, 671.98 242.78 M581.53 351.66 C610.07 321.94, 635.72 289.98, 675.04 245.27 M589.74 343.11 C617.54 316.66, 634.49 295.02, 674.85 257.58 M590.39 344.73 C612.24 319.28, 637.11 295.58, 669.31 256.09 M606.36 333.50 C621.96 317.25, 633.40 307.62, 662.51 273.29 M607.28 337.18 C623.37 317.85, 640.36 297.96, 660.54 270.68 M624.23 324.01 C628.33 312.84, 636.40 300.39, 653.37 289.57 M624.06 323.79 C635.81 308.46, 646.14 294.98, 650.00 291.93" fill="#faf7ef" stroke="none"/><path d="M384.69 -25.24 C402.06 -32.99, 423.78 -32.20, 443.72 -32.77 C463.65 -33.34, 484.68 -32.29, 504.29 -28.67 C523.89 -25.05, 544.00 -19.08, 561.35 -11.05 C578.69 -3.01, 594.03 7.68, 608.38 19.53 C622.73 31.39, 636.14 45.90, 647.45 60.08 C658.77 74.27, 669.56 88.34, 676.27 104.66 C682.97 120.97, 685.60 140.51, 687.68 157.97 C689.75 175.43, 692.00 192.24, 688.72 209.43 C685.44 226.62, 675.99 244.80, 667.99 261.11 C659.99 277.41, 652.61 293.74, 640.69 307.25 C628.78 320.76, 612.38 331.84, 596.48 342.15 C580.59 352.46, 563.55 361.95, 545.35 369.11 C527.15 376.26, 506.92 382.42, 487.27 385.07 C467.62 387.73, 447.40 387.17, 427.44 385.02 C407.48 382.87, 386.21 377.95, 367.51 372.17 C348.80 366.39, 331.85 360.18, 315.18 350.35 C298.51 340.52, 280.97 326.27, 267.48 313.19 C253.99 300.12, 242.61 287.26, 234.27 271.92 C225.92 256.58, 221.44 238.13, 217.40 221.15 C213.35 204.16, 209.50 187.40, 210.00 170.03 C210.49 152.66, 214.74 133.68, 220.36 116.92 C225.99 100.17, 233.42 84.39, 243.75 69.51 C254.08 54.64, 268.46 39.87, 282.33 27.67 C296.20 15.46, 303.32 6.41, 326.98 -3.73 C350.65 -13.86, 401.23 -29.12, 424.32 -33.13 C447.41 -37.15, 465.07 -31.35, 465.50 -27.83 M251.53 58.59 C259.70 43.31, 279.73 31.40, 294.61 19.88 C309.48 8.36, 323.71 -2.52, 340.79 -10.53 C357.87 -18.53, 377.32 -23.84, 397.10 -28.16 C416.88 -32.48, 438.86 -36.40, 459.46 -36.44 C480.05 -36.49, 501.80 -34.05, 520.66 -28.44 C539.52 -22.83, 556.51 -12.64, 572.62 -2.79 C588.73 7.06, 603.68 18.13, 617.33 30.65 C630.97 43.18, 644.17 58.13, 654.49 72.34 C664.81 86.54, 673.79 99.21, 679.26 115.89 C684.73 132.57, 686.45 154.44, 687.33 172.42 C688.22 190.40, 688.48 206.77, 684.58 223.77 C680.67 240.77, 672.72 259.01, 663.89 274.45 C655.05 289.88, 644.95 304.21, 631.55 316.37 C618.16 328.54, 600.25 338.20, 583.52 347.44 C566.78 356.67, 549.37 365.90, 531.15 371.79 C512.94 377.68, 494.19 381.22, 474.22 382.76 C454.24 384.31, 430.99 382.92, 411.29 381.04 C391.59 379.17, 373.92 377.84, 356.01 371.52 C338.11 365.20, 319.55 354.70, 303.88 343.12 C288.21 331.54, 274.85 315.98, 261.99 302.05 C249.14 288.11, 234.79 274.96, 226.72 259.52 C218.66 244.08, 216.46 226.70, 213.60 209.40 C210.75 192.09, 207.87 172.74, 209.62 155.68 C211.36 138.63, 217.43 123.90, 224.05 107.06 C230.67 90.21, 243.73 62.59, 249.35 54.61 C254.98 46.63, 254.54 56.88, 257.80 59.18" fill="none" stroke="#202020" stroke-width="2" stroke-linecap="round" stroke-linejoin="round"/><path d="M377.67 93.99 C385.60 83.50, 398.64 75.69, 410.25 70.78 C421.87 65.87, 434.58 64.48, 447.34 64.53 C460.11 64.59, 475.06 66.74, 486.85 71.10 C498.63 75.47, 508.37 82.22, 518.06 90.72 C527.76 99.21, 539.12 109.97, 545.01 122.08 C550.91 134.19, 551.96 149.63, 553.45 163.37 C554.94 177.12, 556.69 191.56, 553.96 204.54 C551.23 217.52, 544.48 230.66, 537.05 241.25 C529.62 251.84, 520.06 260.75, 509.37 268.07 C498.67 275.39, 485.85 282.16, 472.88 285.16 C459.90 288.16, 444.07 287.84, 431.51 286.08 C418.95 284.31, 408.34 281.06, 397.53 274.58 C386.72 268.11, 374.44 257.74, 366.62 247.23 C358.81 236.73, 354.33 224.45, 350.67 211.57 C347.00 198.69, 344.33 183.61, 344.64 169.96 C344.95 156.32, 346.04 142.68, 352.53 129.68 C359.02 116.68, 377.51 99.16, 383.56 91.96 C389.61 84.76, 388.01 85.67, 388.84 86.48 M428.92 65.71 C440.56 61.70, 456.11 61.99, 468.70 64.30 C481.29 66.61, 493.68 72.31, 504.48 79.58 C515.29 86.86, 525.99 97.30, 533.53 107.96 C541.06 118.61, 545.91 130.71, 549.70 143.51 C553.49 156.31, 557.34 170.64, 556.29 184.77 C555.24 198.89, 548.77 215.68, 543.42 228.25 C538.07 240.82, 533.35 251.82, 524.20 260.18 C515.06 268.55, 501.02 273.58, 488.56 278.42 C476.10 283.26, 461.88 288.85, 449.43 289.23 C436.99 289.62, 425.76 285.39, 413.90 280.72 C402.04 276.05, 388.07 270.31, 378.26 261.19 C368.45 252.07, 360.21 238.24, 355.05 226.02 C349.89 213.79, 348.29 201.11, 347.30 187.85 C346.32 174.59, 345.58 160.03, 349.13 146.46 C352.68 132.88, 361.53 117.84, 368.60 106.37 C375.66 94.91, 381.65 84.31, 391.51 77.68 C401.36 71.06, 421.34 68.21, 427.71 66.62 C434.08 65.04, 429.27 66.50, 429.73 68.16" fill="#faf7ef" stroke="none"/><path d="M417.30 67.60 C428.33 61.82, 442.05 62.01, 454.89 62.79 C467.73 63.57, 482.50 66.81, 494.34 72.29 C506.17 77.78, 517.04 85.55, 525.90 95.72 C534.75 105.88, 542.33 120.35, 547.47 133.27 C552.62 146.18, 556.70 159.55, 556.76 173.19 C556.82 186.84, 551.94 202.37, 547.82 215.13 C543.70 227.88, 540.14 239.99, 532.05 249.71 C523.97 259.43, 510.57 266.99, 499.32 273.44 C488.07 279.89, 477.12 286.33, 464.56 288.40 C452.00 290.48, 436.81 289.19, 423.97 285.90 C411.13 282.62, 398.03 276.70, 387.55 268.70 C377.06 260.70, 367.55 249.53, 361.03 237.91 C354.51 226.28, 350.98 211.99, 348.42 198.97 C345.86 185.96, 343.91 173.17, 345.68 159.81 C347.44 146.46, 352.35 131.04, 358.99 118.85 C365.64 106.67, 369.10 96.05, 385.55 86.70 C401.99 77.35, 439.22 64.43, 457.67 62.76 C476.11 61.09, 496.61 74.43, 496.24 76.69 M408.18 73.13 C418.65 66.15, 431.57 63.94, 444.42 63.26 C457.27 62.59, 472.89 64.60, 485.29 69.05 C497.68 73.51, 508.78 80.76, 518.78 90.01 C528.78 99.25, 539.06 112.55, 545.26 124.50 C551.47 136.45, 554.71 148.76, 556.01 161.70 C557.32 174.65, 556.40 189.09, 553.11 202.16 C549.82 215.24, 543.39 228.79, 536.27 240.16 C529.14 251.54, 521.04 263.20, 510.36 270.42 C499.68 277.63, 484.91 280.53, 472.20 283.48 C459.50 286.43, 446.77 289.52, 434.13 288.13 C421.49 286.74, 407.53 282.19, 396.36 275.15 C385.18 268.11, 375.01 256.10, 367.08 245.92 C359.14 235.73, 352.12 227.08, 348.75 214.04 C345.39 201.01, 346.28 181.48, 346.91 167.69 C347.54 153.89, 348.10 142.92, 352.54 131.30 C356.99 119.67, 363.95 107.92, 373.57 97.94 C383.18 87.96, 404.66 75.07, 410.22 71.44 C415.79 67.81, 406.78 74.51, 406.95 76.18" fill="none" stroke="#202020" stroke-width="2" stroke-linecap="round" stroke-linejoin="round"/><path d="M659.94 -31.27 C681.94 -58.24, 707.39 -87.18, 737.40 -111.84 M657.42 -30.05 C679.94 -55.94, 705.36 -78.61, 735.61 -111.00" fill="none" stroke="#202020" stroke-width="2" stroke-linecap="round" stroke-linejoin="round"/><path d="M656.31 381.42 C691.31 410.44, 719.90 448.14, 737.69 460.45 M658.16 380.84 C673.54 398.66, 692.21 416.30, 735.32 462.91" fill="none" stroke="#202020" stroke-width="2" stroke-linecap="round" stroke-linejoin="round"/><path d="M240.13 384.99 C223.81 405.29, 204.26 424.09, 165.87 465.44 M242.49 382.77 C224.67 400.42, 207.61 421.76, 164.42 460.78" fill="none" stroke="#202020" stroke-width="2" stroke-linecap="round" stroke-linejoin="round"/><path d="M243.79 -28.64 C212.37 -58.64, 189.20 -90.60, 165.47 -111.01 M241.85 -31.99 C225.60 -51.38, 203.62 -70.14, 163.12 -108.61" fill="none" stroke="#202020" stroke-width="2" stroke-linecap="round" stroke-linejoin="round"/></svg>