<svg xmlns="http://www.w3.org/2000/svg" viewBox="0 0 900 320" width="900" height="320"><path d="M450.43 16.67 C565.65 56.21, 680.87 94.70, 884.29 161.05 M450.48 15.90 C550.67 50.84, 652.56 85.31, 883.29 159.07 M885.49 161.63 C784.49 196.08, 686.38 228.90, 448.21 304.46 M883.31 160.50 C730.43 212.07, 578.25 263.44, 450.36 304.72 M449.56 303.80 C360.07 273.72, 275.60 244.97, 14.52 161.22 M450.23 304.24 C350.70 270.23, 249.99 237.04, 16.89 160.28 M15.47 160.80 C108.82 132.42, 202.88 102.91, 450.87 14.35 M16.73 160.85 C104.38 133.87, 191.05 105.17, 449.87 16.44" fill="none" stroke="#202020" stroke-width="2" stroke-linecap="round" stroke-linejoin="round"/><path d="M29.76 161.51 C38.53 158.49, 41.04 163.30, 48.38 158.33 M26.54 161.23 C33.91 159.12, 41.06 160.42, 50.63 159.59" fill="none" stroke="#202020" stroke-width="2" stroke-linecap="round" stroke-linejoin="round"/><path d="M850.70 156.49 C860.97 161.39, 862.73 156.28, 875.98 161.96 M849.12 159.57 C856.85 158.24, 863.21 160.86, 875.73 161.95" fill="none" stroke="#202020" stroke-width="2" stroke-linecap="round" stroke-linejoin="round"/><path d="M43.53 155.75 C44.67 154.98, 49.50 157.04, 51.16 159.58 M43.37 154.95 C46.55 156.80, 47.79 157.18, 50.92 159.29 M52.36 160.11 C47.90 161.08, 48.02 164.15, 43.76 164.30 M50.57 159.32 C48.56 160.83, 47.29 163.29, 43.22 164.55" fill="none" stroke="#202020" stroke-width="2" stroke-linecap="round" stroke-linejoin="round"/><path d="M854.36 155.75 C854.95 156.28, 852.84 157.78, 847.63 159.77 M855.67 154.72 C853.71 156.97, 852.66 158.42, 848.28 160.20 M849.91 159.68 C851.56 160.07, 853.63 161.57, 857.40 165.71 M848.22 160.64 C850.68 160.87, 854.13 162.64, 855.46 164.84" fill="none" stroke="#202020" stroke-width="2" stroke-linecap="round" stroke-linejoin="round"/></svg>