<svg xmlns="http://www.w3.org/2000/svg" viewBox="0 0 436 310" width="436" height="310"><path d="M154.09 87.86 C160.98 79.36, 172.80 74.03, 183.63 70.80 C194.47 67.56, 207.46 66.87, 219.10 68.44 C230.74 70.01, 243.48 73.94, 253.47 80.20 C263.46 86.47, 273.04 96.31, 279.05 106.01 C285.07 115.72, 288.61 127.26, 289.55 138.45 C290.50 149.64, 288.55 162.25, 284.72 173.16 C280.90 184.07, 275.05 195.57, 266.60 203.88 C258.14 212.20, 245.14 219.02, 234.00 223.04 C222.86 227.05, 210.98 229.32, 199.78 227.98 C188.59 226.65, 176.80 221.79, 166.84 215.03 C156.89 208.27, 146.40 197.28, 140.03 187.40 C133.66 177.52, 129.40 167.33, 128.61 155.73 C127.83 144.12, 129.41 130.58, 135.31 117.77 C141.22 104.96, 157.30 85.62, 164.05 78.86 C170.79 72.10, 174.71 75.70, 175.77 77.20 M162.19 81.38 C170.60 73.93, 186.38 70.91, 197.62 69.00 C208.87 67.09, 218.75 67.10, 229.68 69.92 C240.60 72.74, 254.20 78.25, 263.17 85.93 C272.13 93.62, 279.02 105.45, 283.46 116.01 C287.91 126.57, 290.31 137.74, 289.83 149.31 C289.36 160.87, 286.45 175.28, 280.59 185.41 C274.73 195.53, 264.55 203.06, 254.67 210.05 C244.79 217.05, 232.63 225.38, 221.32 227.37 C210.01 229.36, 197.97 225.84, 186.79 221.99 C175.60 218.15, 162.36 211.69, 154.21 204.31 C146.06 196.92, 142.28 188.50, 137.89 177.69 C133.49 166.89, 127.71 151.60, 127.86 139.50 C128.01 127.41, 132.48 114.88, 138.78 105.12 C145.08 95.37, 161.31 84.43, 165.66 80.95 C170.00 77.48, 164.69 82.70, 164.86 84.28" fill="#faf7ef" stroke="none"/><path d="M180.52 70.69 C190.39 66.20, 203.70 66.99, 215.79 68.38 C227.87 69.78, 242.98 73.25, 253.01 79.06 C263.05 84.86, 270.27 93.47, 276.00 103.23 C281.73 112.98, 285.63 126.11, 287.38 137.57 C289.14 149.03, 289.90 161.08, 286.54 172.00 C283.17 182.93, 275.33 194.68, 267.18 203.10 C259.04 211.52, 248.19 218.80, 237.65 222.53 C227.11 226.26, 215.40 226.84, 203.95 225.48 C192.51 224.12, 179.42 220.15, 168.98 214.37 C158.54 208.59, 147.77 200.27, 141.33 190.79 C134.90 181.32, 131.82 168.91, 130.37 157.49 C128.93 146.07, 128.84 133.58, 132.66 122.26 C136.48 110.94, 141.45 98.51, 153.29 89.56 C165.14 80.61, 192.13 72.06, 203.75 68.55 C215.37 65.04, 222.92 67.20, 223.00 68.50 M169.67 79.51 C178.36 73.09, 190.09 71.12, 201.19 69.95 C212.28 68.78, 225.67 69.06, 236.24 72.50 C246.80 75.94, 256.19 83.02, 264.57 90.61 C272.95 98.20, 282.62 107.11, 286.51 118.04 C290.41 128.96, 289.15 144.64, 287.94 156.15 C286.74 167.65, 284.68 177.51, 279.30 187.07 C273.92 196.63, 265.30 207.07, 255.66 213.51 C246.03 219.95, 233.42 224.51, 221.48 225.71 C209.54 226.91, 195.16 224.66, 184.01 220.73 C172.86 216.79, 162.90 209.59, 154.58 202.09 C146.26 194.59, 137.69 185.89, 134.10 175.73 C130.51 165.57, 132.19 153.05, 133.01 141.13 C133.84 129.22, 133.89 114.25, 139.03 104.27 C144.16 94.28, 158.62 85.60, 163.82 81.22 C169.03 76.84, 169.22 76.88, 170.27 78.00" fill="none" stroke="#202020" stroke-width="3" stroke-linecap="round" stroke-linejoin="round"/><path d="M210.32 69.42 C207.39 64.23, 210.40 55.76, 212.95 50.16 M209.55 69.54 C209.22 66.22, 210.10 61.97, 210.82 51.26" fill="none" stroke="#202020" stroke-width="3" stroke-linecap="round" stroke-linejoin="round"/><path d="M262.76 91.96 C266.33 84.26, 271.85 85.31, 280.91 80.60 M266.72 90.89 C268.75 87.37, 270.45 85.82, 276.79 79.02" fill="none" stroke="#202020" stroke-width="3" stroke-linecap="round" stroke-linejoin="round"/><path d="M290.86 145.07 C291.81 146.16, 301.12 146.32, 305.25 145.66 M290.12 145.90 C293.94 146.97, 299.99 146.04, 307.03 145.50" fill="none" stroke="#202020" stroke-width="3" stroke-linecap="round" stroke-linejoin="round"/><path d="M264.19 199.87 C265.51 208.46, 272.33 207.83, 279.17 215.85 M265.07 201.84 C268.02 207.87, 275.09 212.04, 276.34 214.38" fill="none" stroke="#202020" stroke-width="3" stroke-linecap="round" stroke-linejoin="round"/><path d="M213.04 226.61 C212.19 228.10, 208.40 235.82, 211.59 243.43 M209.51 226.79 C208.07 230.41, 209.60 236.46, 211.06 243.44" fill="none" stroke="#202020" stroke-width="3" stroke-linecap="round" stroke-linejoin="round"/><path d="M152.39 203.99 C154.35 206.45, 148.45 205.45, 140.45 217.52 M154.69 201.83 C150.45 206.98, 146.56 209.64, 141.70 215.27" fill="none" stroke="#202020" stroke-width="3" stroke-linecap="round" stroke-linejoin="round"/><path d="M130.42 145.71 C124.95 146.27, 120.73 149.68, 117.73 144.62 M132.87 146.41 C125.07 147.14, 119.60 147.22, 113.53 148.22" fill="none" stroke="#202020" stroke-width="3" stroke-linecap="round" stroke-linejoin="round"/><path d="M153.74 90.75 C150.98 85.80, 151.79 83.04, 145.02 76.77 M152.86 92.24 C149.41 89.17, 146.17 85.73, 140.89 80.27" fill="none" stroke="#202020" stroke-width="3" stroke-linecap="round" stroke-linejoin="round"/></svg>