<svg xmlns="http://www.w3.org/2000/svg" viewBox="0 0 436 310" width="436" height="310"><path d="M265.13 99.56 C271.62 107.55, 274.38 119.81, 276.57 131.09 C278.76 142.37, 280.72 156.10, 278.28 167.26 C275.84 178.41, 268.42 189.27, 261.94 198.03 C255.46 206.80, 248.06 215.63, 239.42 219.85 C230.78 224.06, 220.09 223.83, 210.11 223.33 C200.12 222.83, 188.62 221.40, 179.52 216.85 C170.41 212.30, 161.73 204.95, 155.46 196.03 C149.19 187.12, 143.80 174.66, 141.89 163.36 C139.97 152.05, 141.57 139.22, 143.95 128.18 C146.32 117.14, 150.28 105.91, 156.11 97.11 C161.94 88.31, 170.12 79.99, 178.95 75.39 C187.78 70.80, 198.55 69.62, 209.10 69.55 C219.64 69.48, 232.76 69.34, 242.22 74.98 C251.68 80.61, 261.26 97.70, 265.84 103.35 C270.41 109.01, 270.09 107.84, 269.66 108.92 M241.45 78.30 C250.10 82.15, 257.57 91.75, 264.07 100.79 C270.57 109.83, 277.96 121.88, 280.46 132.55 C282.96 143.22, 281.55 154.00, 279.07 164.81 C276.59 175.62, 271.80 188.28, 265.58 197.42 C259.36 206.57, 250.85 215.17, 241.73 219.70 C232.60 224.24, 221.24 225.13, 210.82 224.64 C200.41 224.16, 187.96 221.53, 179.23 216.81 C170.49 212.09, 165.00 205.45, 158.42 196.33 C151.85 187.21, 142.15 172.82, 139.78 162.10 C137.41 151.38, 141.32 142.36, 144.22 132.03 C147.12 121.71, 151.06 109.65, 157.19 100.14 C163.31 90.64, 172.01 80.30, 180.96 74.99 C189.91 69.68, 200.93 68.09, 210.90 68.27 C220.86 68.46, 235.57 74.56, 240.74 76.10 C245.91 77.63, 242.95 75.76, 241.90 77.47" fill="#faf7ef" stroke="none"/><path d="M249.09 81.42 C257.42 86.40, 263.09 96.90, 268.27 106.58 C273.45 116.27, 278.99 128.20, 280.17 139.52 C281.35 150.84, 278.95 163.53, 275.33 174.50 C271.71 185.47, 265.53 197.66, 258.44 205.35 C251.35 213.04, 242.39 217.62, 232.76 220.62 C223.14 223.62, 211.05 225.01, 200.68 223.33 C190.30 221.66, 178.84 216.42, 170.52 210.59 C162.19 204.76, 155.65 197.66, 150.72 188.34 C145.80 179.02, 142.01 165.94, 140.98 154.66 C139.95 143.38, 140.95 131.40, 144.54 120.67 C148.12 109.93, 155.09 98.34, 162.49 90.27 C169.89 82.19, 179.22 75.83, 188.93 72.21 C198.63 68.59, 207.35 62.61, 220.73 68.55 C234.11 74.49, 259.79 94.84, 269.21 107.87 C278.64 120.90, 277.92 145.97, 277.28 146.73 M175.55 82.61 C183.27 76.29, 196.53 71.00, 206.13 69.97 C215.72 68.93, 224.13 72.33, 233.14 76.41 C242.14 80.49, 253.20 86.78, 260.15 94.45 C267.10 102.13, 271.37 111.95, 274.85 122.46 C278.32 132.98, 282.13 146.19, 281.01 157.53 C279.88 168.88, 273.59 181.37, 268.12 190.53 C262.64 199.69, 256.46 206.51, 248.16 212.48 C239.86 218.45, 228.96 225.00, 218.33 226.36 C207.69 227.72, 194.46 225.24, 184.34 220.64 C174.22 216.04, 164.39 207.19, 157.59 198.78 C150.80 190.37, 146.10 180.59, 143.57 170.17 C141.03 159.74, 140.85 147.11, 142.37 136.23 C143.89 125.36, 146.93 114.10, 152.69 104.89 C158.45 95.69, 173.36 85.43, 176.92 81.02 C180.49 76.60, 174.33 77.93, 174.09 78.38" fill="none" stroke="#202020" stroke-width="3" stroke-linecap="round" stroke-linejoin="round"/><path d="M212.48 65.67 C211.91 68.07, 210.69 62.40, 209.19 49.86 M208.53 69.94 C211.07 63.69, 209.76 60.16, 208.96 51.03" fill="none" stroke="#202020" stroke-width="3" stroke-linecap="round" stroke-linejoin="round"/><path d="M268.11 91.95 C269.62 87.12, 272.57 86.41, 277.03 77.19 M264.77 91.45 C270.67 86.40, 274.82 81.96, 276.24 79.07" fill="none" stroke="#202020" stroke-width="3" stroke-linecap="round" stroke-linejoin="round"/><path d="M286.30 148.33 C296.27 146.17, 303.80 150.56, 304.80 144.85 M288.66 145.98 C295.16 145.68, 301.24 145.85, 304.45 148.13" fill="none" stroke="#202020" stroke-width="3" stroke-linecap="round" stroke-linejoin="round"/><path d="M266.81 201.71 C268.09 202.45, 269.84 208.41, 278.65 215.27 M266.32 203.13 C268.71 207.08, 272.58 210.87, 277.03 213.40" fill="none" stroke="#202020" stroke-width="3" stroke-linecap="round" stroke-linejoin="round"/><path d="M212.59 227.76 C209.19 233.68, 209.75 238.33, 209.62 241.20 M209.33 226.27 C208.16 230.25, 211.24 233.71, 209.18 243.71" fill="none" stroke="#202020" stroke-width="3" stroke-linecap="round" stroke-linejoin="round"/><path d="M155.44 201.22 C151.86 206.35, 148.35 213.60, 142.62 213.29 M155.97 200.91 C149.79 207.62, 145.16 212.06, 141.82 214.42" fill="none" stroke="#202020" stroke-width="3" stroke-linecap="round" stroke-linejoin="round"/><path d="M131.01 147.14 C127.77 148.26, 126.56 144.75, 111.22 148.75 M130.75 146.67 C127.29 148.59, 124.68 147.89, 113.18 148.42" fill="none" stroke="#202020" stroke-width="3" stroke-linecap="round" stroke-linejoin="round"/><path d="M153.74 89.13 C153.40 90.97, 151.73 82.74, 139.83 81.26 M154.09 93.16 C149.57 88.60, 148.22 84.07, 141.54 80.49" fill="none" stroke="#202020" stroke-width="3" stroke-linecap="round" stroke-linejoin="round"/></svg>