<svg xmlns="http://www.w3.org/2000/svg" viewBox="0 0 900 300" width="900" height="300"><path d="M22.98 12.45 C20.79 87.77, 20.97 166.98, 19.11 287.15 M20.47 14.17 C24.34 75.21, 23.82 133.82, 19.53 283.76" fill="none" stroke="#202020" stroke-width="2" stroke-linecap="round" stroke-linejoin="round"/><path d="M194.34 14.36 C193.59 100.91, 190.22 183.44, 194.29 284.45 M191.18 16.27 C189.65 109.96, 190.48 204.28, 191.90 284.49" fill="none" stroke="#202020" stroke-width="2" stroke-linecap="round" stroke-linejoin="round"/><path d="M361.57 13.86 C365.41 75.71, 363.20 140.27, 362.27 283.46 M364.64 14.91 C365.82 88.54, 366.72 163.47, 364.50 285.99" fill="none" stroke="#202020" stroke-width="2" stroke-linecap="round" stroke-linejoin="round"/><path d="M538.23 14.11 C534.69 108.10, 532.35 196.16, 536.30 286.27 M534.76 13.58 C533.52 103.13, 533.17 189.71, 535.67 285.39" fill="none" stroke="#202020" stroke-width="2" stroke-linecap="round" stroke-linejoin="round"/><path d="M707.31 14.63 C705.03 121.07, 706.71 228.49, 705.73 283.21 M707.00 15.88 C706.85 77.05, 706.38 137.21, 709.45 285.10" fill="none" stroke="#202020" stroke-width="2" stroke-linecap="round" stroke-linejoin="round"/><path d="M878.31 16.61 C882.45 98.88, 882.46 179.07, 876.98 283.29 M879.18 15.46 C878.75 73.52, 878.30 128.87, 880.73 284.83" fill="none" stroke="#202020" stroke-width="2" stroke-linecap="round" stroke-linejoin="round"/><path d="M19.25 13.97 C227.16 13.66, 434.97 14.66, 881.59 15.45 M20.46 15.19 C254.26 16.21, 487.14 16.82, 880.01 14.40" fill="none" stroke="#202020" stroke-width="2" stroke-linecap="round" stroke-linejoin="round"/><path d="M21.03 82.86 C299.49 81.62, 580.92 82.24, 880.37 82.52 M19.93 83.19 C351.03 77.21, 683.68 76.18, 879.72 82.98" fill="none" stroke="#202020" stroke-width="2" stroke-linecap="round" stroke-linejoin="round"/><path d="M20.17 149.85 C326.81 150.67, 633.44 151.94, 879.13 148.86 M19.21 150.22 C240.67 157.44, 460.47 156.55, 880.62 150.25" fill="none" stroke="#202020" stroke-width="2" stroke-linecap="round" stroke-linejoin="round"/><path d="M20.31 218.54 C203.77 221.18, 385.51 220.02, 878.75 217.64 M20.72 216.72 C353.47 221.32, 686.62 221.75, 879.39 216.70" fill="none" stroke="#202020" stroke-width="2" stroke-linecap="round" stroke-linejoin="round"/><path d="M18.46 284.21 C326.00 285.98, 632.10 285.05, 878.88 283.41 M19.98 284.62 C228.14 282.55, 436.82 283.11, 879.60 284.45" fill="none" stroke="#202020" stroke-width="2" stroke-linecap="round" stroke-linejoin="round"/><path d="M275.60 112.87 L448.62 116.10 L446.10 180.81 L281.03 187.09" fill="#faf7ef" stroke="none"/><path d="M279.64 112.49 C317.34 113.39, 368.07 114.55, 453.35 115.88 M276.54 114.34 C333.86 114.31, 389.83 115.66, 449.96 115.93 M446.10 119.57 C449.85 139.14, 452.13 161.92, 452.26 181.33 M450.17 115.90 C450.20 139.88, 452.83 162.31, 451.23 182.31 M448.26 182.78 C394.57 179.07, 331.34 177.03, 281.64 181.69 M451.46 183.41 C406.90 182.68, 360.89 181.75, 276.84 182.78 M279.34 183.21 C272.95 160.12, 274.88 141.49, 277.37 114.98 M276.15 184.34 C278.97 166.58, 278.02 149.18, 279.07 117.63" fill="none" stroke="#202020" stroke-width="2" stroke-linecap="round" stroke-linejoin="round"/><path d="M400.67 153.33 C472.01 151.45, 550.82 152.29, 587.42 153.78 M400.18 151.24 C451.82 152.47, 508.69 151.63, 586.23 151.65" fill="none" stroke="#202020" stroke-width="2" stroke-linecap="round" stroke-linejoin="round"/><path d="M556.12 134.56 C570.20 141.36, 589.50 143.36, 606.78 149.53 M553.82 135.93 C562.51 138.31, 575.36 142.73, 603.50 150.57 M603.93 151.01 C587.37 155.21, 574.39 161.67, 555.20 162.03 M606.21 150.20 C594.75 150.94, 584.01 157.23, 554.62 164.59" fill="none" stroke="#202020" stroke-width="2" stroke-linecap="round" stroke-linejoin="round"/></svg>