<svg xmlns="http://www.w3.org/2000/svg" viewBox="0 0 960 420" width="960" height="420"><path d="M16.95 381.17 L57.35 380.81 L55.20 407.01 L17.51 410.77" fill="#faf7ef" stroke="none"/><path d="M20.60 379.52 C28.97 381.83, 44.13 379.39, 56.94 377.57 M21.11 380.79 C34.08 378.15, 46.88 380.90, 54.04 380.84 M55.10 382.49 C51.38 391.47, 53.98 400.36, 55.03 413.41 M54.03 378.43 C54.94 388.99, 55.78 394.19, 55.60 411.50 M56.12 409.92 C51.15 406.67, 41.06 413.30, 18.67 409.61 M56.67 409.81 C45.14 412.63, 37.60 410.22, 19.70 410.58 M19.14 411.32 C15.73 404.23, 18.99 396.93, 22.58 379.10 M18.30 411.90 C19.48 400.95, 21.54 389.61, 19.57 381.18" fill="none" stroke="#202020" stroke-width="2" stroke-linecap="round" stroke-linejoin="round"/><path d="M59.47 379.31 L96.52 376.21 L91.11 410.04 L62.08 407.32" fill="#faf7ef" stroke="none"/><path d="M62.18 378.21 C66.64 380.69, 77.35 377.29, 98.06 379.60 M61.25 381.04 C67.30 379.50, 75.11 381.24, 93.13 381.51 M93.77 382.77 C95.18 386.02, 95.98 391.84, 93.89 412.36 M95.53 378.05 C95.05 390.72, 93.55 402.58, 95.13 410.23 M96.56 407.89 C84.27 407.12, 71.49 411.18, 60.21 412.09 M95.86 410.61 C82.79 410.22, 73.36 410.77, 60.64 410.46 M58.75 407.51 C57.72 396.60, 61.26 389.99, 63.48 380.64 M58.28 408.69 C61.32 400.57, 60.49 388.13, 61.95 378.82" fill="none" stroke="#202020" stroke-width="2" stroke-linecap="round" stroke-linejoin="round"/><path d="M101.81 377.82 L133.76 380.76 L137.62 410.44 L99.55 412.26" fill="#faf7ef" stroke="none"/><path d="M103.00 376.39 C111.46 380.13, 127.05 380.33, 132.64 378.14 M100.17 378.13 C107.83 381.04, 115.91 379.30, 136.65 379.32 M131.82 382.31 C137.98 389.85, 131.93 399.37, 132.27 406.46 M133.17 379.58 C133.93 388.64, 135.21 401.39, 136.45 410.53 M131.33 413.40 C120.07 408.28, 114.15 405.92, 96.27 411.60 M135.84 411.14 C121.41 409.30, 108.15 407.77, 98.18 410.12 M100.49 411.15 C97.61 397.93, 100.49 385.79, 103.66 380.45 M98.46 411.54 C98.75 402.55, 100.37 395.91, 100.38 378.86" fill="none" stroke="#202020" stroke-width="2" stroke-linecap="round" stroke-linejoin="round"/><path d="M36.76 341.15 L75.05 347.31 L78.88 378.79 L38.72 371.34" fill="#faf7ef" stroke="none"/><path d="M41.59 342.99 C43.78 340.83, 53.97 348.30, 71.36 344.40 M38.36 345.46 C49.17 345.80, 58.13 345.34, 73.93 344.05 M72.21 346.42 C71.60 351.07, 76.00 365.96, 74.95 372.98 M75.78 344.50 C74.87 354.09, 75.48 362.93, 76.50 374.37 M77.24 378.02 C65.01 378.88, 53.29 372.91, 42.21 377.97 M74.44 373.27 C64.92 373.94, 51.87 375.73, 41.02 376.49 M42.16 375.18 C43.21 366.82, 37.12 359.93, 38.39 343.15 M40.07 376.01 C40.27 367.39, 41.42 357.07, 41.85 346.19" fill="none" stroke="#202020" stroke-width="2" stroke-linecap="round" stroke-linejoin="round"/><path d="M81.17 345.18 L111.13 343.10 L114.16 375.66 L80.08 375.17" fill="#faf7ef" stroke="none"/><path d="M83.26 347.53 C93.57 343.90, 108.34 347.39, 118.50 342.38 M78.51 344.42 C94.32 344.82, 103.72 343.03, 115.86 346.77 M116.99 343.90 C113.66 352.81, 112.93 362.09, 112.44 372.98 M116.11 346.65 C117.04 357.16, 115.23 370.38, 114.20 375.40 M113.91 375.27 C104.13 375.57, 101.64 372.31, 76.46 373.42 M115.28 374.23 C107.61 373.02, 97.34 373.86, 81.62 374.82 M83.88 374.99 C76.65 367.89, 82.35 362.27, 82.33 347.27 M80.24 376.80 C81.44 370.63, 79.48 362.28, 81.78 343.82" fill="none" stroke="#202020" stroke-width="2" stroke-linecap="round" stroke-linejoin="round"/><path d="M62.72 313.54 L92.75 307.18 L92.02 337.37 L63.28 341.58" fill="#faf7ef" stroke="none"/><path d="M59.70 313.89 C72.76 309.53, 80.78 309.82, 96.92 311.19 M58.38 311.91 C71.98 309.76, 86.39 307.72, 95.50 311.69 M92.04 313.05 C94.61 324.40, 92.50 332.95, 97.13 341.71 M93.90 311.40 C96.81 322.63, 94.20 334.05, 93.54 340.25 M95.36 343.01 C82.90 342.21, 66.34 335.58, 59.36 342.11 M96.48 340.07 C84.83 342.13, 77.46 339.74, 59.36 339.54 M56.00 336.77 C63.14 328.13, 59.48 320.03, 56.32 312.67 M61.13 339.66 C59.09 328.98, 58.64 318.46, 58.48 310.97" fill="none" stroke="#202020" stroke-width="2" stroke-linecap="round" stroke-linejoin="round"/><path d="M907.52 18.52 L946.79 17.38 L941.85 53.28 L908.38 46.85" fill="#faf7ef" stroke="none"/><path d="M912.21 21.09 C925.38 22.38, 930.77 22.19, 946.94 21.91 M910.34 21.57 C919.13 20.03, 927.96 20.14, 943.78 21.28 M946.75 18.30 C948.52 29.61, 948.22 29.42, 945.09 46.34 M944.15 19.30 C946.41 31.95, 944.21 40.19, 946.57 51.17 M947.28 47.75 C939.77 53.52, 926.18 50.08, 910.25 53.58 M943.09 51.74 C931.59 47.58, 919.14 50.53, 911.64 50.02 M910.55 49.30 C908.34 37.99, 907.63 28.02, 906.70 16.27 M909.72 50.00 C911.91 43.33, 910.85 32.23, 910.10 18.85" fill="none" stroke="#202020" stroke-width="2" stroke-linecap="round" stroke-linejoin="round"/><path d="M930.25 53.22 C927.59 154.40, 928.66 248.29, 925.92 301.15 M926.47 55.02 C930.34 109.82, 928.27 160.60, 926.67 300.54" fill="none" stroke="#202020" stroke-width="2" stroke-linecap="round" stroke-linejoin="round"/></svg>