<svg xmlns="http://www.w3.org/2000/svg" viewBox="0 0 900 320" width="900" height="320"><path d="M354.46 37.83 C354.46 37.83, 354.46 37.83, 354.46 37.83 M354.46 37.83 C354.46 37.83, 354.46 37.83, 354.46 37.83 M322.22 81.19 C337.12 63.59, 350.54 45.74, 366.97 34.96 M321.62 78.30 C336.29 65.35, 345.62 54.57, 365.05 30.95 M323.14 94.30 C337.10 69.27, 353.90 59.01, 373.42 25.23 M319.90 89.77 C331.53 76.25, 345.00 60.37, 375.82 24.79 M311.78 98.86 C340.33 76.58, 360.10 42.82, 385.46 17.17 M314.57 99.70 C335.78 80.28, 353.79 58.58, 387.02 16.64 M308.95 109.64 C342.21 82.14, 364.17 49.87, 395.22 16.30 M309.44 110.43 C341.29 78.10, 368.80 46.59, 397.59 12.62 M308.10 122.60 C332.83 94.04, 357.58 71.55, 404.07 11.36 M308.12 123.27 C329.13 96.59, 351.77 72.76, 404.22 9.71 M309.12 128.03 C328.29 103.87, 356.58 70.52, 411.17 12.82 M306.71 129.71 C344.13 87.64, 378.80 48.58, 410.65 10.23 M303.51 138.39 C327.56 107.73, 358.49 76.97, 419.92 7.37 M305.55 136.88 C348.56 92.30, 394.27 40.96, 418.18 6.36 M299.20 143.79 C335.53 107.60, 364.48 78.16, 427.66 3.96 M302.93 145.16 C349.44 96.31, 395.99 42.06, 423.39 6.91 M301.65 157.55 C341.75 109.00, 376.78 65.95, 427.45 5.30 M302.27 153.59 C327.62 122.17, 354.09 89.01, 432.42 5.39 M297.68 164.25 C345.45 109.07, 387.76 60.47, 438.70 4.84 M301.38 160.66 C342.87 112.66, 389.01 60.18, 439.96 3.42 M299.60 172.34 C334.59 125.73, 374.41 79.74, 443.84 2.22 M296.76 168.45 C338.40 123.86, 375.28 80.59, 444.35 4.56 M298.84 178.88 C340.80 128.72, 385.39 72.03, 448.21 1.12 M298.66 176.21 C347.15 115.83, 396.97 55.96, 447.45 4.70 M300.87 183.63 C361.04 111.67, 416.19 43.35, 452.13 7.06 M297.54 181.85 C351.01 118.31, 405.86 56.92, 452.58 4.18 M301.65 185.45 C358.68 112.60, 422.57 42.12, 459.06 7.63 M298.09 185.88 C335.82 143.34, 373.69 101.49, 458.80 4.83 M301.83 190.73 C357.42 128.69, 413.06 60.71, 464.14 7.91 M300.42 193.13 C350.81 135.94, 398.77 82.63, 463.17 6.39 M301.75 196.12 C351.48 142.05, 404.85 82.14, 468.63 8.06 M301.90 196.34 C342.81 147.80, 384.59 101.78, 466.85 6.43 M299.20 203.43 C339.33 160.59, 381.89 109.47, 469.20 5.39 M302.14 201.41 C351.77 142.79, 403.07 82.95, 470.78 6.28 M299.95 205.63 C350.24 153.53, 400.78 94.86, 479.22 5.98 M302.01 207.68 C343.08 158.34, 389.89 105.60, 475.60 6.89 M303.12 211.36 C351.81 151.02, 406.44 90.19, 481.41 10.03 M302.95 212.05 C346.29 160.83, 391.06 107.99, 482.72 7.36 M302.90 214.33 C350.29 163.48, 392.23 113.74, 484.70 7.33 M303.46 218.28 C378.76 134.05, 447.83 50.60, 487.58 7.11 M305.77 220.92 C341.18 177.34, 384.84 135.90, 489.25 10.07 M304.50 223.22 C377.15 139.85, 447.04 57.88, 488.54 11.15 M303.50 224.73 C378.22 148.71, 448.58 68.30, 491.05 10.70 M307.55 226.99 C351.76 175.86, 395.56 125.49, 493.98 12.47 M310.00 232.74 C378.33 155.36, 450.44 75.77, 498.87 12.42 M307.66 230.57 C350.75 181.59, 390.85 137.48, 498.38 14.20 M310.53 237.16 C365.93 167.03, 426.31 99.28, 501.38 14.24 M310.40 234.98 C350.33 190.93, 390.75 143.93, 501.21 14.08 M312.84 240.85 C355.08 192.23, 399.95 139.81, 506.86 16.67 M310.20 239.99 C372.57 166.94, 434.82 95.02, 506.84 17.43 M315.58 242.70 C378.35 165.56, 448.58 86.76, 509.89 20.68 M313.36 244.12 C356.66 195.35, 399.55 149.17, 507.77 17.18 M312.95 245.95 C381.74 166.59, 451.51 90.90, 511.04 18.36 M315.04 249.48 C357.32 195.74, 400.02 146.25, 511.96 21.06 M318.54 253.44 C357.11 201.71, 400.42 152.58, 514.58 18.88 M317.03 252.48 C393.17 165.15, 467.83 80.93, 515.90 20.74 M318.93 257.83 C391.83 172.65, 459.71 92.41, 520.28 21.94 M318.86 256.18 C389.05 172.27, 457.00 93.82, 522.08 22.07 M321.34 257.87 C396.34 173.77, 476.70 81.74, 522.51 26.10 M320.19 259.50 C385.41 189.45, 449.34 116.86, 524.46 24.44 M321.68 263.98 C393.85 181.16, 470.35 99.27, 529.21 29.49 M320.21 264.23 C389.33 180.29, 461.02 96.61, 527.62 26.78 M322.40 269.86 C396.18 191.14, 459.60 118.40, 532.04 30.10 M323.44 268.86 C394.95 184.10, 469.10 99.30, 531.63 31.63 M326.55 272.30 C390.54 197.84, 455.87 122.07, 531.12 32.80 M324.73 271.81 C366.20 220.04, 410.21 171.27, 533.95 33.03 M329.22 278.02 C391.01 201.28, 456.49 125.87, 535.02 37.83 M327.90 276.02 C374.12 215.26, 425.26 158.88, 535.20 36.37 M328.29 279.21 C393.99 205.19, 463.48 132.61, 537.76 39.87 M329.22 280.94 C379.67 221.20, 430.29 162.67, 539.09 37.15 M331.35 285.99 C407.93 194.34, 480.65 107.57, 545.00 38.26 M330.29 283.75 C385.48 222.76, 441.78 158.97, 541.43 42.14 M336.02 284.44 C390.85 220.62, 445.99 155.79, 544.17 45.95 M335.10 286.93 C397.99 213.99, 459.50 144.61, 545.72 42.39 M337.85 291.22 C408.69 206.06, 481.47 125.75, 546.26 46.26 M337.97 289.12 C422.32 193.35, 504.04 98.29, 548.28 45.35 M336.68 292.85 C388.34 233.85, 443.26 175.82, 553.19 47.70 M339.73 292.91 C420.01 196.37, 502.17 98.34, 551.53 49.04 M342.97 295.78 C394.48 238.43, 452.19 175.82, 553.68 53.37 M342.71 297.54 C409.98 218.13, 478.64 138.81, 554.68 52.02 M344.66 300.88 C397.91 237.55, 453.80 171.81, 558.56 52.61 M344.86 300.31 C422.36 211.14, 501.70 121.45, 556.90 53.09 M348.74 303.66 C416.62 223.16, 485.18 148.31, 562.37 54.68 M344.98 304.38 C419.83 221.27, 488.46 140.43, 560.43 57.98 M351.06 306.04 C410.14 232.28, 475.68 156.61, 564.07 59.86 M348.51 307.02 C393.31 257.20, 436.49 205.97, 562.60 60.22 M348.36 311.21 C407.08 250.18, 460.93 188.00, 563.90 64.37 M350.60 311.18 C425.51 227.06, 498.43 144.42, 564.86 64.97 M351.84 313.54 C407.73 249.77, 464.17 183.81, 569.78 70.09 M354.56 312.35 C424.23 231.04, 497.26 151.20, 567.18 66.29 M359.35 316.15 C435.21 220.75, 521.88 124.82, 570.65 69.34 M355.87 316.43 C416.17 253.17, 472.76 185.54, 569.77 72.21 M360.57 320.04 C421.96 247.90, 479.62 176.31, 571.45 72.38 M359.93 319.19 C433.12 234.31, 504.67 151.13, 570.50 73.38 M363.33 322.47 C423.26 254.85, 488.87 183.13, 573.70 76.13 M364.50 320.98 C405.77 269.33, 449.10 218.90, 573.55 78.48 M366.64 320.45 C415.76 263.42, 472.67 201.52, 575.98 83.15 M367.08 321.27 C442.53 233.91, 524.01 140.88, 576.09 83.21 M368.45 322.15 C419.32 268.18, 467.28 207.57, 578.54 85.99 M370.52 322.42 C420.86 268.04, 469.02 214.09, 578.91 84.01 M376.62 327.53 C435.81 253.87, 503.00 179.87, 582.14 87.85 M373.84 325.89 C424.04 267.69, 473.63 211.85, 579.38 87.60 M378.98 329.20 C422.78 273.58, 470.82 216.79, 580.30 90.25 M377.07 328.66 C436.04 268.00, 491.91 204.93, 583.19 91.90 M383.54 332.92 C433.05 272.26, 479.73 211.05, 587.33 93.38 M382.21 330.16 C460.29 238.33, 537.77 149.57, 583.47 95.69 M382.13 332.91 C442.02 270.07, 494.89 202.44, 586.03 98.00 M383.61 332.78 C451.99 251.89, 521.82 172.51, 585.94 98.66 M385.65 333.68 C466.38 247.04, 543.79 154.33, 586.94 105.15 M389.34 334.52 C439.77 270.19, 496.91 208.27, 588.30 103.92 M393.52 337.57 C466.47 248.58, 543.09 159.61, 590.08 108.31 M392.75 337.41 C440.81 284.70, 488.55 230.27, 591.13 107.18 M397.99 340.42 C447.58 284.08, 492.58 225.85, 593.15 116.39 M396.42 337.62 C456.85 275.51, 515.75 205.67, 589.75 114.19 M399.96 338.71 C466.56 267.26, 529.53 191.77, 589.04 117.25 M398.67 340.42 C458.25 272.89, 512.52 209.49, 590.86 119.55 M403.74 341.85 C446.02 284.99, 497.24 230.48, 595.51 123.03 M402.73 340.72 C446.03 292.43, 488.81 242.48, 594.05 124.22 M406.14 342.39 C463.32 275.06, 523.32 211.67, 591.94 125.11 M409.42 342.67 C458.40 284.33, 511.58 224.41, 594.19 128.92 M413.01 339.75 C458.90 290.57, 507.62 235.90, 595.74 135.76 M412.66 341.53 C466.53 281.00, 517.81 223.36, 593.80 131.86 M418.70 345.98 C480.71 275.26, 543.22 200.55, 596.91 137.58 M415.78 345.11 C488.52 264.38, 556.49 183.08, 596.35 137.94 M424.69 342.06 C481.76 276.42, 542.64 202.77, 594.91 144.79 M422.74 344.59 C473.20 286.86, 521.80 226.45, 596.63 143.29 M428.50 347.24 C485.84 275.94, 547.13 207.51, 598.29 143.89 M426.99 346.88 C473.13 291.73, 519.15 238.58, 599.98 146.07 M430.10 348.18 C491.14 271.92, 558.15 199.53, 600.84 154.99 M431.19 345.07 C484.62 286.99, 540.12 225.09, 599.28 151.79 M437.82 347.02 C474.75 299.96, 516.31 256.71, 601.79 157.52 M434.77 348.75 C472.28 306.61, 511.32 261.79, 601.19 159.02 M438.93 345.83 C498.39 288.56, 550.65 225.80, 599.38 162.06 M441.63 348.83 C501.96 275.08, 565.13 201.62, 599.56 164.76 M447.96 345.69 C491.68 292.68, 535.73 240.52, 596.40 170.12 M445.37 346.76 C485.66 305.60, 520.80 262.87, 600.75 168.97 M454.70 349.57 C497.58 296.07, 542.34 241.96, 596.97 179.21 M452.13 347.54 C505.87 279.57, 564.89 211.21, 601.04 174.46 M457.18 345.58 C491.69 306.67, 523.41 266.51, 601.38 182.66 M457.82 347.29 C487.47 311.67, 515.60 276.90, 600.59 183.75 M460.54 345.54 C492.24 314.95, 521.57 277.67, 600.71 189.98 M462.49 346.32 C503.73 295.03, 548.61 246.23, 601.15 186.93 M466.76 342.70 C503.42 306.05, 534.44 269.85, 601.32 196.96 M468.71 344.07 C514.95 292.50, 561.97 238.77, 602.29 194.83 M471.95 342.16 C499.91 311.75, 531.60 277.60, 603.81 197.74 M472.63 346.60 C510.28 305.01, 546.55 261.80, 602.35 200.95 M477.61 344.70 C526.52 296.88, 568.46 239.79, 602.44 206.02 M481.62 342.93 C517.75 304.45, 552.96 263.88, 600.02 208.96 M488.03 338.69 C532.03 299.48, 575.41 245.48, 598.43 215.92 M487.20 341.64 C516.76 309.70, 545.77 277.55, 595.36 217.06 M497.67 341.45 C517.69 308.26, 541.32 285.33, 594.97 227.06 M495.81 338.40 C523.90 309.78, 552.59 278.83, 594.48 223.20 M506.51 332.52 C533.41 296.86, 564.29 261.63, 591.52 233.73 M503.39 334.37 C524.14 314.16, 540.87 295.92, 593.17 235.13 M508.40 333.75 C534.63 307.10, 565.54 278.51, 586.27 239.47 M513.55 331.76 C535.33 301.05, 561.08 274.27, 591.48 243.56 M522.82 325.64 C544.10 302.48, 567.74 273.67, 584.96 248.29 M520.13 328.45 C543.76 304.39, 567.95 277.51, 586.67 252.65 M532.55 318.14 C545.86 310.03, 556.15 294.82, 583.04 268.88 M531.82 321.32 C546.67 302.99, 561.39 288.37, 578.90 267.32 M546.01 309.70 C551.68 299.22, 559.95 299.64, 574.31 285.33 M550.70 305.85 C555.32 296.36, 563.13 287.71, 572.60 282.17" fill="#faf7ef" stroke="none"/><path d="M322.86 79.40 C328.98 64.30, 342.50 48.81, 354.41 37.89 C366.32 26.96, 380.37 19.81, 394.30 13.84 C408.23 7.88, 422.65 3.03, 437.97 2.07 C453.29 1.11, 471.72 4.23, 486.20 8.11 C500.68 11.98, 512.42 17.09, 524.83 25.31 C537.25 33.52, 550.15 44.74, 560.69 57.38 C571.22 70.01, 581.60 85.53, 588.03 101.11 C594.47 116.69, 597.22 134.27, 599.31 150.86 C601.39 167.46, 602.60 183.69, 600.54 200.70 C598.47 217.71, 593.23 237.00, 586.92 252.93 C580.60 268.87, 572.63 284.32, 562.67 296.32 C552.70 308.32, 540.56 316.94, 527.13 324.93 C513.70 332.92, 497.02 340.48, 482.08 344.27 C467.13 348.07, 451.89 348.66, 437.48 347.70 C423.07 346.73, 409.73 344.17, 395.63 338.46 C381.53 332.75, 364.62 324.00, 352.88 313.42 C341.14 302.84, 333.01 289.12, 325.21 274.99 C317.40 260.86, 310.80 245.27, 306.05 228.63 C301.29 211.98, 296.67 192.50, 296.67 175.13 C296.67 157.76, 295.29 147.76, 306.06 124.39 C316.82 101.03, 343.64 54.05, 361.24 34.95 C378.84 15.85, 409.83 7.51, 411.67 9.79 M549.25 47.62 C562.04 56.92, 575.39 72.52, 583.66 87.11 C591.93 101.70, 596.13 118.53, 598.87 135.14 C601.61 151.75, 601.04 169.57, 600.10 186.76 C599.17 203.95, 598.65 222.31, 593.26 238.30 C587.88 254.29, 577.49 269.43, 567.81 282.69 C558.12 295.96, 547.18 307.86, 535.14 317.89 C523.10 327.93, 509.61 337.77, 495.57 342.90 C481.54 348.03, 465.61 349.11, 450.94 348.68 C436.28 348.25, 421.49 345.25, 407.58 340.33 C393.67 335.41, 379.79 328.63, 367.50 319.16 C355.21 309.69, 343.48 296.02, 333.82 283.51 C324.15 271.00, 315.30 259.20, 309.50 244.12 C303.71 229.04, 300.97 210.83, 299.05 193.03 C297.12 175.24, 294.61 154.21, 297.94 137.37 C301.27 120.52, 311.70 106.82, 319.02 91.97 C326.34 77.11, 331.01 59.86, 341.87 48.25 C352.74 36.64, 370.51 29.67, 384.22 22.32 C397.92 14.97, 410.08 7.63, 424.09 4.15 C438.11 0.68, 453.74 -0.97, 468.31 1.46 C482.89 3.88, 497.89 11.30, 511.52 18.71 C525.15 26.11, 543.53 40.81, 550.09 45.89 C556.66 50.97, 552.27 47.10, 550.90 49.18" fill="none" stroke="#202020" stroke-width="2" stroke-linecap="round" stroke-linejoin="round"/><path d="M288.25 38.57 C288.25 38.57, 288.25 38.57, 288.25 38.57 M288.25 38.57 C288.25 38.57, 288.25 38.57, 288.25 38.57 M278.07 49.61 C303.17 34.06, 315.42 9.62, 332.40 -2.10 M281.63 52.60 C295.13 37.98, 309.29 20.44, 329.44 -0.46 M277.59 67.87 C293.13 46.64, 307.93 22.20, 337.01 -5.34 M275.39 68.40 C297.55 39.77, 319.12 13.45, 338.11 -10.07 M264.05 77.44 C296.70 50.99, 321.38 14.65, 347.38 -15.30 M266.16 80.58 C300.81 46.81, 330.86 9.43, 351.02 -13.79 M263.19 91.37 C293.63 56.66, 332.01 15.89, 359.20 -19.08 M263.97 90.62 C296.88 50.60, 333.62 7.62, 359.50 -21.13 M261.14 103.77 C276.46 75.97, 305.07 47.24, 373.41 -26.89 M261.13 104.00 C293.85 58.69, 329.62 16.74, 369.58 -27.01 M259.31 111.90 C285.27 81.15, 315.75 44.89, 378.08 -31.84 M258.11 111.01 C301.96 58.10, 348.45 4.62, 378.92 -31.42 M250.98 123.57 C288.53 78.28, 325.91 32.25, 389.86 -34.70 M251.81 122.14 C289.95 73.58, 331.25 30.55, 387.08 -32.23 M248.51 131.61 C293.80 87.27, 331.42 40.44, 391.26 -32.71 M249.91 131.55 C291.78 85.80, 335.09 35.11, 393.82 -35.65 M248.34 141.02 C298.35 81.46, 356.54 17.03, 404.18 -35.82 M245.70 141.63 C295.17 84.89, 342.38 30.06, 402.58 -39.10 M246.41 143.65 C282.80 107.94, 317.89 65.15, 412.10 -39.32 M246.20 144.94 C289.08 104.35, 329.27 57.25, 408.69 -41.37 M249.61 149.16 C290.54 108.49, 325.66 60.52, 419.73 -40.28 M249.21 153.44 C294.39 100.32, 343.34 44.44, 418.54 -43.70 M250.86 158.40 C289.31 110.41, 329.41 59.77, 420.31 -46.02 M246.75 158.83 C300.01 98.24, 352.33 37.13, 423.55 -43.04 M245.07 161.75 C291.72 108.58, 341.32 52.49, 430.80 -43.64 M248.60 162.50 C290.17 111.99, 337.67 57.88, 427.12 -44.60 M249.21 171.03 C310.44 95.74, 369.32 25.25, 431.97 -44.44 M248.86 169.01 C303.97 108.14, 358.39 43.36, 435.43 -44.71 M246.15 177.36 C295.77 119.14, 349.39 57.43, 437.41 -46.02 M248.25 177.05 C319.44 87.02, 392.96 2.73, 440.44 -43.51 M249.06 181.83 C326.57 92.81, 398.61 11.06, 443.56 -41.89 M247.50 181.40 C316.91 104.96, 386.36 28.15, 444.07 -45.82 M246.96 190.44 C323.09 100.42, 396.55 13.83, 451.70 -46.84 M248.17 187.87 C299.58 126.47, 351.70 68.02, 451.50 -45.06 M251.34 191.38 C319.70 114.57, 388.25 38.19, 457.52 -48.02 M248.77 193.72 C308.26 121.97, 368.42 50.59, 455.40 -46.85 M248.17 202.69 C322.27 119.01, 396.29 33.23, 463.43 -43.79 M247.71 199.83 C319.99 116.02, 391.35 33.60, 462.36 -46.12 M246.86 205.01 C298.18 148.82, 343.28 94.25, 467.08 -45.24 M248.40 206.10 C290.59 152.93, 334.37 103.73, 467.83 -46.72 M252.06 212.67 C311.27 144.59, 372.06 77.80, 470.37 -42.61 M249.83 209.71 C335.90 111.16, 421.67 11.83, 472.45 -44.34 M248.58 214.06 C338.91 111.78, 423.26 8.24, 474.96 -42.53 M251.73 216.59 C329.16 130.28, 403.14 42.95, 476.76 -44.47 M254.24 218.44 C329.90 129.81, 407.07 40.26, 482.68 -41.94 M250.84 221.31 C334.91 123.67, 420.45 26.92, 482.95 -42.56 M254.15 225.49 C315.62 148.98, 378.29 77.65, 487.94 -44.94 M251.94 226.52 C323.74 144.34, 399.06 59.48, 485.54 -43.31 M254.44 231.36 C329.08 147.04, 406.98 59.34, 488.65 -43.19 M252.83 229.75 C343.63 126.30, 429.03 26.84, 490.84 -40.87 M255.70 234.80 C327.05 157.91, 392.88 81.56, 494.68 -42.60 M253.62 236.36 C338.17 142.65, 421.05 46.88, 495.68 -39.14 M255.35 239.31 C325.43 159.51, 398.84 77.59, 499.48 -37.54 M256.03 240.48 C344.58 135.75, 435.65 27.82, 500.17 -38.68 M253.82 244.32 C318.25 173.71, 384.12 97.47, 501.11 -38.63 M255.25 246.66 C315.83 176.03, 378.60 104.35, 502.39 -38.35 M254.78 252.29 C319.77 176.60, 388.32 101.27, 509.06 -39.22 M257.06 252.25 C306.97 193.98, 356.46 137.05, 508.85 -37.91 M259.90 253.08 C352.00 150.07, 446.32 41.70, 512.84 -37.70 M260.35 254.72 C318.13 187.21, 378.86 115.74, 511.43 -36.30 M263.08 257.86 C325.49 178.40, 391.90 101.40, 518.44 -36.76 M261.26 259.73 C354.05 153.00, 446.89 44.63, 515.91 -34.09 M263.17 263.81 C346.46 169.25, 427.13 72.58, 521.86 -35.94 M262.94 262.76 C321.84 189.38, 385.08 115.78, 520.07 -32.89 M265.00 267.41 C343.15 170.01, 426.27 80.79, 526.58 -31.61 M266.03 266.09 C339.71 177.86, 415.12 92.35, 524.23 -31.34 M267.86 271.05 C335.55 193.10, 400.97 115.47, 527.23 -28.04 M266.60 269.54 C358.05 169.09, 449.02 64.05, 529.05 -30.50 M270.33 276.49 C347.59 188.64, 426.16 99.99, 529.72 -28.94 M268.84 274.79 C346.78 185.82, 425.45 96.13, 530.59 -26.65 M268.90 277.26 C348.91 184.53, 425.61 95.21, 534.38 -24.18 M271.97 277.38 C342.14 199.03, 410.16 118.10, 534.55 -25.18 M272.85 281.48 C351.27 190.15, 427.24 100.66, 538.85 -24.15 M273.62 282.20 C365.49 176.14, 457.26 73.85, 537.94 -24.64 M276.21 287.72 C375.30 168.02, 479.00 47.24, 542.27 -20.47 M275.36 286.38 C325.97 223.07, 379.08 161.14, 542.11 -21.80 M278.79 287.81 C348.55 206.94, 420.39 122.67, 544.18 -19.47 M275.84 288.61 C367.95 180.56, 461.17 74.13, 545.45 -19.72 M278.82 293.37 C348.30 210.35, 423.67 127.06, 549.37 -18.27 M277.57 292.72 C375.27 183.36, 472.27 71.49, 549.43 -16.56 M281.47 299.54 C349.67 220.50, 417.18 141.79, 553.78 -14.43 M279.90 298.21 C354.94 209.88, 432.53 123.80, 552.77 -14.55 M283.31 299.37 C354.80 218.45, 424.01 135.58, 553.31 -14.05 M283.57 302.17 C378.25 192.50, 473.39 83.37, 555.24 -12.18 M284.83 303.62 C381.29 194.91, 475.22 81.49, 559.34 -12.24 M284.56 304.11 C338.53 239.98, 395.03 177.24, 560.14 -10.35 M285.25 308.60 C370.92 208.73, 456.33 111.07, 562.49 -9.01 M287.64 307.48 C370.41 209.75, 454.75 111.15, 563.06 -7.38 M290.34 311.80 C380.14 207.03, 468.31 104.53, 564.25 -5.49 M289.85 310.75 C361.52 227.54, 436.90 141.32, 566.72 -7.05 M290.62 315.18 C378.43 213.50, 463.29 114.32, 567.27 -3.22 M291.63 313.27 C347.53 249.71, 402.98 184.71, 569.20 -3.15 M294.92 317.11 C369.49 228.19, 447.86 135.01, 571.01 1.41 M294.03 318.31 C392.27 208.80, 488.41 98.64, 572.17 -1.23 M296.20 321.50 C355.77 255.78, 411.21 187.59, 574.96 2.52 M297.93 320.82 C353.03 254.80, 408.22 190.81, 573.18 2.84 M300.17 324.93 C354.61 260.32, 409.11 196.50, 576.53 5.54 M300.95 322.66 C408.81 197.53, 516.44 73.64, 575.92 5.01 M304.20 327.37 C386.71 225.41, 470.94 129.12, 577.93 6.78 M301.97 327.38 C398.69 217.26, 497.27 105.51, 580.58 8.22 M306.17 330.90 C365.29 253.93, 430.61 180.34, 583.76 12.65 M306.12 329.15 C371.90 248.63, 440.36 169.79, 582.40 10.07 M306.12 333.55 C390.50 237.85, 472.45 143.97, 584.19 13.39 M307.09 332.67 C395.92 229.98, 488.56 125.28, 584.69 13.36 M310.46 334.31 C385.45 256.64, 457.95 172.02, 586.52 15.05 M310.16 335.62 C381.45 258.00, 451.67 179.22, 587.69 15.88 M313.15 338.91 C395.32 247.25, 474.08 157.14, 591.92 19.67 M313.87 340.03 C390.37 245.90, 471.67 152.82, 591.93 19.35 M314.15 342.87 C392.26 250.71, 473.07 160.93, 594.83 22.36 M315.09 342.19 C396.38 250.01, 478.86 156.48, 593.32 23.65 M319.30 345.15 C419.98 230.27, 521.88 115.82, 597.58 25.40 M318.96 346.15 C376.20 278.89, 434.80 213.88, 596.65 25.53 M319.22 348.90 C406.69 252.79, 489.32 157.25, 599.50 26.24 M321.33 347.70 C416.26 237.46, 513.03 125.56, 598.85 28.25 M326.01 350.58 C396.90 263.43, 473.07 175.85, 602.96 32.43 M323.88 349.82 C395.09 269.54, 468.29 187.04, 602.62 31.31 M325.31 352.61 C403.49 265.89, 479.29 175.02, 604.10 33.89 M326.97 353.14 C394.09 275.40, 462.51 197.24, 604.85 34.42 M330.58 355.40 C395.12 280.06, 459.63 205.59, 605.82 39.17 M330.38 355.23 C428.09 239.80, 526.81 125.96, 607.42 37.76 M334.82 358.47 C440.58 231.01, 545.68 110.24, 607.68 40.28 M333.35 357.48 C419.71 257.90, 503.98 159.02, 608.64 41.25 M337.37 359.33 C418.90 260.99, 506.73 160.76, 612.41 44.03 M337.87 361.16 C409.34 277.09, 482.92 190.35, 611.71 44.83 M341.92 364.99 C407.52 287.56, 472.60 213.89, 611.74 50.55 M339.36 362.61 C429.69 259.14, 518.06 159.22, 614.62 48.58 M340.91 364.10 C437.73 258.44, 530.78 146.71, 617.97 49.84 M342.05 364.82 C413.97 282.90, 486.07 201.45, 616.30 52.54 M347.96 367.19 C439.46 259.79, 534.08 151.92, 617.49 56.80 M344.97 367.66 C434.82 270.96, 519.46 172.40, 617.59 55.37 M349.02 372.50 C417.15 293.62, 481.00 217.43, 621.81 57.02 M350.03 371.98 C404.08 308.21, 460.86 243.34, 620.94 57.97 M353.69 372.27 C450.56 259.80, 551.27 145.01, 622.83 60.80 M352.09 372.85 C404.73 310.04, 460.37 246.01, 622.33 62.47 M357.93 374.99 C418.42 299.99, 484.94 226.49, 626.48 65.13 M356.24 376.46 C437.33 277.56, 520.60 181.95, 625.22 66.36 M359.01 378.59 C446.22 280.20, 528.76 186.21, 626.87 70.91 M359.20 375.99 C439.98 285.58, 515.51 196.90, 627.24 69.79 M363.90 380.69 C439.67 292.81, 517.20 202.93, 628.56 74.05 M362.86 378.12 C429.30 303.05, 495.69 228.12, 629.01 71.91 M367.12 379.57 C463.80 273.04, 563.71 160.07, 632.36 74.98 M367.10 379.41 C445.37 293.07, 522.55 204.73, 631.74 75.52 M372.53 381.39 C440.02 299.35, 509.90 219.81, 633.58 80.75 M370.79 381.08 C457.42 285.02, 544.00 185.99, 632.78 80.91 M376.60 383.97 C438.87 316.19, 497.05 246.33, 637.16 83.09 M376.47 382.26 C439.38 310.50, 504.55 235.48, 634.42 85.38 M379.70 386.16 C466.19 279.17, 557.21 175.15, 634.03 89.54 M380.12 385.52 C446.99 308.75, 510.47 233.89, 636.13 88.85 M383.96 387.76 C477.02 276.90, 574.94 167.56, 639.59 91.91 M384.39 386.02 C446.12 314.42, 509.46 243.55, 637.84 92.69 M385.41 386.43 C465.32 291.32, 546.63 200.75, 641.88 95.34 M387.08 388.16 C446.24 323.86, 500.41 260.41, 638.73 98.50 M390.88 388.77 C442.51 328.97, 492.05 269.67, 639.46 101.29 M392.49 388.42 C458.61 306.31, 528.96 225.74, 641.53 101.76 M393.17 393.51 C487.51 279.28, 585.18 167.17, 644.09 107.45 M393.96 390.49 C450.25 329.34, 507.81 265.29, 641.62 107.61 M397.31 393.50 C464.39 320.68, 529.73 249.90, 646.57 111.73 M398.54 391.41 C490.50 286.26, 581.16 181.92, 643.32 111.36 M401.74 393.23 C479.81 305.86, 560.59 219.36, 644.66 113.65 M403.57 394.81 C487.21 293.12, 573.34 193.12, 645.64 115.10 M409.71 396.21 C502.85 283.71, 593.68 180.38, 644.70 122.27 M408.65 394.82 C483.74 308.64, 556.71 224.26, 645.76 119.81 M410.98 394.35 C498.55 293.40, 585.79 195.74, 649.94 124.58 M411.86 396.14 C467.68 330.80, 521.16 269.79, 649.46 123.36 M416.80 393.46 C465.21 342.23, 517.54 281.54, 650.28 126.95 M419.29 394.28 C478.50 328.56, 540.34 257.49, 650.32 129.75 M424.40 397.49 C499.96 302.22, 581.76 209.63, 650.53 134.14 M423.25 395.29 C473.46 333.18, 526.28 272.36, 649.73 134.98 M429.87 398.59 C500.18 311.43, 569.23 229.59, 649.67 137.60 M426.12 397.94 C491.49 323.69, 556.56 249.19, 651.43 141.12 M429.78 398.02 C491.86 329.79, 555.04 260.45, 650.91 146.76 M431.97 398.14 C491.87 330.12, 546.64 265.08, 652.26 144.23 M439.57 398.30 C514.25 310.66, 591.70 220.17, 651.69 150.88 M438.56 398.32 C512.25 307.20, 591.53 217.83, 651.66 149.48 M440.28 397.59 C504.88 328.19, 566.33 253.93, 652.77 157.84 M442.47 398.44 C510.46 319.65, 577.75 240.35, 653.31 157.51 M449.93 398.93 C510.58 328.20, 572.37 258.53, 652.74 163.42 M448.08 399.18 C521.83 315.66, 594.13 233.18, 654.79 160.04 M450.88 397.23 C521.57 317.83, 594.99 235.16, 655.54 165.31 M453.10 399.07 C509.50 333.14, 565.26 266.65, 652.48 165.99 M459.69 396.60 C505.81 340.00, 558.47 280.94, 654.98 172.43 M456.58 398.79 C519.98 330.37, 577.75 261.71, 653.90 172.32 M465.84 395.32 C510.76 344.08, 557.51 292.14, 652.89 175.14 M462.81 396.78 C526.53 325.50, 586.17 252.70, 653.83 176.23 M472.32 394.05 C525.79 332.24, 585.88 260.75, 655.83 185.38 M469.86 397.55 C540.84 310.77, 615.97 226.13, 655.89 183.21 M479.27 395.73 C538.98 320.06, 608.60 240.11, 652.79 188.24 M474.95 395.96 C519.33 349.96, 556.12 305.69, 655.07 189.87 M479.21 397.77 C541.71 325.96, 602.32 259.45, 653.49 195.65 M480.93 395.82 C549.69 320.99, 610.67 246.36, 655.33 197.50 M487.13 395.84 C533.90 340.57, 585.70 286.72, 651.65 205.23 M488.51 395.18 C543.59 326.49, 600.55 261.82, 651.30 204.03 M494.70 393.87 C540.53 331.93, 595.12 275.86, 653.51 209.55 M492.84 391.88 C539.08 340.66, 587.59 288.37, 651.78 212.66 M501.35 389.70 C529.97 354.33, 567.31 314.77, 651.08 221.79 M500.93 393.28 C548.55 338.75, 597.00 280.15, 648.20 219.76 M509.58 388.05 C546.77 340.91, 591.98 293.52, 647.50 231.45 M506.30 390.16 C542.56 347.77, 581.61 301.97, 648.67 228.86 M516.69 391.69 C556.26 348.98, 591.21 305.45, 647.78 235.83 M515.09 387.52 C555.00 342.83, 594.18 297.04, 647.46 235.47 M521.17 382.09 C572.96 329.04, 615.99 278.21, 640.79 248.02 M523.53 380.97 C554.91 348.37, 586.40 313.23, 641.71 245.80 M534.30 375.45 C571.76 338.12, 598.75 302.29, 638.39 251.72 M535.10 376.63 C577.46 330.64, 613.83 287.55, 640.60 257.20 M546.28 367.48 C566.61 350.08, 587.26 325.24, 637.36 262.88 M547.23 369.86 C566.76 347.00, 584.44 326.83, 637.31 265.22 M557.72 357.46 C581.63 338.12, 598.64 310.95, 634.01 275.80 M559.76 359.41 C588.32 326.50, 619.63 293.06, 632.68 277.36 M575.70 342.70 C600.27 321.67, 619.50 303.69, 624.92 285.56 M579.09 345.24 C587.98 331.80, 602.74 317.40, 627.54 286.59" fill="#faf7ef" stroke="none"/><path d="M564.37 -7.18 C579.57 -0.11, 590.99 17.24, 602.30 31.36 C613.61 45.47, 624.38 61.27, 632.23 77.50 C640.08 93.74, 645.54 110.84, 649.41 128.74 C653.29 146.64, 656.12 166.75, 655.49 184.88 C654.86 203.02, 650.45 219.79, 645.63 237.56 C640.81 255.34, 635.29 275.59, 626.57 291.52 C617.85 307.44, 605.78 320.70, 593.32 333.10 C580.86 345.49, 565.97 356.24, 551.80 365.89 C537.62 375.53, 524.43 385.54, 508.26 390.98 C492.09 396.42, 472.35 398.02, 454.78 398.51 C437.20 399.01, 419.48 397.89, 402.82 393.97 C386.17 390.05, 369.31 383.39, 354.83 375.02 C340.35 366.64, 328.24 356.27, 315.95 343.73 C303.66 331.18, 291.02 315.39, 281.11 299.74 C271.19 284.10, 262.01 266.92, 256.47 249.86 C250.93 232.80, 249.48 215.74, 247.84 197.39 C246.21 179.04, 243.92 158.14, 246.68 139.75 C249.44 121.36, 257.51 103.86, 264.41 87.03 C271.32 70.20, 277.88 53.26, 288.09 38.76 C298.30 24.26, 311.90 10.94, 325.67 0.01 C339.44 -10.92, 355.48 -19.58, 370.70 -26.83 C385.92 -34.08, 400.57 -40.19, 416.98 -43.47 C433.39 -46.75, 451.73 -48.17, 469.17 -46.51 C486.61 -44.85, 499.22 -46.39, 521.62 -33.52 C544.02 -20.65, 585.92 12.26, 603.59 30.71 C621.26 49.15, 630.40 74.65, 627.62 77.14 M294.20 29.24 C302.57 13.61, 319.36 -0.39, 333.74 -10.62 C348.12 -20.85, 364.35 -26.42, 380.47 -32.15 C396.59 -37.89, 413.94 -43.47, 430.46 -45.02 C446.97 -46.58, 462.79 -44.54, 479.55 -41.48 C496.32 -38.41, 515.46 -33.50, 531.04 -26.64 C546.61 -19.77, 559.30 -11.86, 573.02 -0.30 C586.73 11.26, 602.69 28.04, 613.32 42.74 C623.94 57.44, 630.41 71.43, 636.78 87.90 C643.15 104.38, 648.53 123.22, 651.53 141.59 C654.53 159.96, 656.12 179.40, 654.80 198.14 C653.49 216.89, 649.68 237.23, 643.64 254.05 C637.60 270.86, 628.34 284.49, 618.57 299.03 C608.79 313.58, 597.41 328.65, 584.99 341.32 C572.57 354.00, 559.27 367.02, 544.03 375.10 C528.79 383.17, 510.39 385.49, 493.53 389.78 C476.67 394.07, 459.36 400.52, 442.87 400.83 C426.39 401.15, 410.75 397.75, 394.61 391.67 C378.47 385.58, 360.62 374.26, 346.03 364.31 C331.44 354.37, 318.97 344.87, 307.07 332.01 C295.17 319.15, 283.73 302.95, 274.63 287.16 C265.52 271.38, 257.38 254.66, 252.43 237.30 C247.49 219.94, 245.13 200.87, 244.97 183.02 C244.81 165.16, 247.81 147.71, 251.49 130.18 C255.18 112.65, 259.06 94.35, 267.08 77.83 C275.10 61.32, 294.52 39.05, 299.62 31.12 C304.72 23.18, 295.84 27.86, 297.69 30.20" fill="none" stroke="#202020" stroke-width="2" stroke-linecap="round" stroke-linejoin="round"/><path d="M523.65 105.85 C531.13 114.78, 536.46 128.59, 540.26 141.69 C544.06 154.79, 546.96 170.37, 546.45 184.47 C545.93 198.57, 542.49 213.55, 537.15 226.29 C531.82 239.03, 523.05 251.71, 514.44 260.89 C505.83 270.07, 496.18 276.29, 485.48 281.39 C474.78 286.49, 461.41 291.43, 450.23 291.49 C439.04 291.55, 429.03 286.64, 418.37 281.74 C407.70 276.85, 394.81 271.20, 386.26 262.11 C377.71 253.02, 372.31 239.88, 367.05 227.20 C361.80 214.52, 356.46 199.59, 354.73 186.05 C353.01 172.51, 353.50 158.68, 356.72 145.95 C359.94 133.22, 366.99 121.09, 374.06 109.66 C381.14 98.22, 389.39 84.78, 399.18 77.34 C408.97 69.91, 421.40 67.76, 432.81 65.06 C444.22 62.36, 456.76 59.05, 467.63 61.13 C478.51 63.21, 485.77 62.76, 498.06 77.55 C510.35 92.35, 534.43 129.34, 541.38 149.90 C548.34 170.45, 540.89 200.30, 539.81 200.87 M427.94 62.61 C437.57 57.29, 449.63 59.18, 461.18 61.08 C472.72 62.99, 486.70 67.37, 497.22 74.03 C507.74 80.69, 517.41 89.91, 524.30 101.04 C531.18 112.17, 534.95 127.95, 538.52 140.81 C542.09 153.67, 545.42 164.99, 545.71 178.19 C546.01 191.39, 544.56 207.15, 540.29 220.02 C536.02 232.90, 528.34 244.86, 520.10 255.45 C511.86 266.04, 501.91 277.46, 490.84 283.55 C479.77 289.64, 465.43 291.68, 453.67 291.99 C441.91 292.30, 430.61 289.57, 420.28 285.43 C409.96 281.28, 400.54 275.46, 391.69 267.11 C382.85 258.77, 373.11 247.31, 367.22 235.36 C361.32 223.41, 358.24 209.95, 356.33 195.42 C354.43 180.89, 353.43 162.10, 355.80 148.18 C358.17 134.26, 363.56 123.24, 370.58 111.91 C377.60 100.58, 388.40 88.32, 397.93 80.18 C407.47 72.05, 422.97 64.93, 427.76 63.11 C432.55 61.29, 426.48 67.16, 426.66 69.26" fill="#faf7ef" stroke="none"/><path d="M486.89 71.15 C496.97 74.18, 504.63 80.96, 512.66 90.33 C520.69 99.69, 529.67 114.47, 535.05 127.32 C540.44 140.18, 544.10 153.87, 544.98 167.45 C545.86 181.04, 543.82 196.13, 540.33 208.84 C536.84 221.56, 530.98 232.69, 524.04 243.75 C517.09 254.80, 508.33 267.70, 498.67 275.18 C489.02 282.65, 476.99 286.21, 466.12 288.59 C455.25 290.97, 444.38 292.33, 433.43 289.47 C422.48 286.60, 410.12 278.76, 400.42 271.38 C390.73 264.00, 382.27 255.95, 375.28 245.19 C368.29 234.42, 361.58 220.37, 358.49 206.79 C355.39 193.21, 355.60 177.71, 356.70 163.69 C357.80 149.66, 360.39 135.05, 365.09 122.63 C369.80 110.21, 376.44 98.19, 384.92 89.17 C393.39 80.15, 405.25 72.94, 415.94 68.51 C426.63 64.09, 433.44 59.95, 449.04 62.60 C464.63 65.25, 497.18 76.47, 509.49 84.42 C521.80 92.36, 524.30 108.37, 522.90 110.26 M515.70 98.22 C523.94 106.38, 530.84 117.83, 535.98 130.33 C541.12 142.83, 546.37 159.46, 546.56 173.22 C546.74 186.98, 541.05 199.57, 537.09 212.89 C533.12 226.22, 530.01 242.90, 522.76 253.19 C515.51 263.47, 504.21 268.86, 493.59 274.62 C482.96 280.39, 470.45 285.73, 459.02 287.79 C447.59 289.86, 435.42 289.56, 425.01 287.02 C414.60 284.48, 405.85 280.88, 396.56 272.56 C387.27 264.24, 376.09 248.97, 369.26 237.11 C362.43 225.25, 358.11 214.45, 355.59 201.41 C353.07 188.37, 352.35 172.37, 354.11 158.87 C355.88 145.37, 359.97 132.41, 366.15 120.40 C372.34 108.38, 382.50 95.78, 391.21 86.78 C399.92 77.78, 407.41 70.61, 418.41 66.42 C429.41 62.22, 445.06 60.95, 457.21 61.62 C469.36 62.28, 481.33 64.85, 491.31 70.41 C501.28 75.98, 512.79 90.12, 517.08 95.00 C521.37 99.89, 518.07 98.64, 517.05 99.73" fill="none" stroke="#202020" stroke-width="2" stroke-linecap="round" stroke-linejoin="round"/><path d="M657.59 -28.07 C672.72 -44.87, 693.62 -65.89, 736.43 -110.43 M654.57 -31.59 C684.20 -55.14, 710.63 -82.45, 735.80 -108.63" fill="none" stroke="#202020" stroke-width="2" stroke-linecap="round" stroke-linejoin="round"/><path d="M657.77 378.66 C688.53 414.29, 719.79 446.07, 739.29 460.04 M657.12 381.73 C677.39 401.96, 695.44 422.26, 738.35 462.23" fill="none" stroke="#202020" stroke-width="2" stroke-linecap="round" stroke-linejoin="round"/><path d="M245.46 382.31 C226.85 394.86, 209.78 413.82, 160.23 461.15 M242.01 382.53 C227.14 399.45, 209.76 416.04, 163.50 460.43" fill="none" stroke="#202020" stroke-width="2" stroke-linecap="round" stroke-linejoin="round"/><path d="M241.03 -27.08 C218.58 -53.64, 196.38 -80.50, 163.88 -111.20 M244.46 -30.67 C212.61 -57.65, 183.36 -90.39, 163.13 -111.50" fill="none" stroke="#202020" stroke-width="2" stroke-linecap="round" stroke-linejoin="round"/></svg>