<svg xmlns="http://www.w3.org/2000/svg" viewBox="0 0 900 320" width="900" height="320"><path d="M451.44 14.82 C612.52 72.18, 776.52 129.19, 884.76 161.18 M450.84 15.73 C551.87 51.58, 655.39 85.05, 884.17 160.51 M883.62 160.12 C731.21 209.28, 582.41 257.92, 450.97 305.31 M883.90 160.80 C742.55 207.72, 600.84 256.01, 450.03 304.37 M449.34 304.18 C315.46 260.62, 180.58 217.62, 16.80 161.15 M450.31 303.11 C335.36 267.01, 218.70 228.17, 15.51 160.02 M16.15 159.70 C164.76 113.43, 313.77 66.12, 450.14 16.13 M15.45 159.08 C131.31 119.34, 244.95 80.10, 450.30 16.81" fill="none" stroke="#202020" stroke-width="2" stroke-linecap="round" stroke-linejoin="round"/><path d="M23.16 163.74 C29.44 163.89, 40.70 158.85, 48.50 160.12 M24.11 158.50 C33.56 157.98, 39.18 160.14, 52.64 160.88" fill="none" stroke="#202020" stroke-width="2" stroke-linecap="round" stroke-linejoin="round"/><path d="M845.63 160.53 C857.12 159.87, 860.69 160.65, 872.49 156.43 M850.58 161.85 C855.62 161.13, 864.74 160.33, 873.21 159.44" fill="none" stroke="#202020" stroke-width="2" stroke-linecap="round" stroke-linejoin="round"/><path d="M45.13 153.81 C46.14 157.70, 49.89 159.06, 52.19 160.92 M43.87 154.64 C46.29 156.09, 48.16 158.67, 51.70 159.85 M50.45 161.12 C50.18 162.69, 46.80 164.10, 45.08 163.48 M50.39 159.70 C48.37 161.52, 45.16 164.42, 43.55 165.19" fill="none" stroke="#202020" stroke-width="2" stroke-linecap="round" stroke-linejoin="round"/><path d="M854.98 154.51 C854.04 157.03, 853.02 157.21, 848.41 161.09 M855.64 154.65 C855.09 155.82, 852.20 157.93, 849.73 160.50 M850.71 159.92 C850.41 160.61, 852.90 162.92, 857.24 166.32 M848.63 160.52 C851.32 161.18, 854.44 164.08, 855.64 165.61" fill="none" stroke="#202020" stroke-width="2" stroke-linecap="round" stroke-linejoin="round"/></svg>