<svg xmlns="http://www.w3.org/2000/svg" viewBox="0 0 436 310" width="436" height="310"><path d="M16.72 253.64 L53.71 255.26 L56.14 282.04 L20.19 284.86" fill="#faf7ef" stroke="none"/><path d="M19.62 253.11 C36.87 252.16, 51.10 250.01, 58.05 252.34 M20.36 254.66 C28.27 252.97, 39.32 255.66, 54.24 253.64 M55.74 253.04 C54.11 266.09, 58.69 271.81, 51.17 285.78 M53.97 255.15 C56.46 260.01, 53.52 269.84, 56.49 282.93 M57.20 286.32 C47.33 281.77, 39.74 286.90, 18.50 283.07 M56.16 284.08 C39.65 283.78, 27.27 284.89, 21.85 283.58 M20.74 281.13 C18.06 276.08, 22.93 262.97, 22.79 256.56 M20.49 283.44 C21.01 276.38, 18.75 266.88, 20.40 253.23" fill="none" stroke="#202020" stroke-width="3" stroke-linecap="round" stroke-linejoin="round"/><path d="M59.35 251.10 L91.63 252.09 L92.74 283.66 L62.78 287.35" fill="#faf7ef" stroke="none"/><path d="M61.28 256.21 C71.28 254.89, 82.65 256.23, 95.47 257.54 M61.39 255.16 C69.47 253.64, 78.63 256.01, 95.70 255.29 M98.44 256.79 C94.22 268.99, 96.99 273.58, 98.51 285.83 M96.45 255.09 C94.52 258.42, 93.67 268.21, 94.05 282.20 M97.80 287.97 C87.40 285.27, 77.50 283.07, 57.59 282.82 M96.28 284.80 C85.65 282.13, 72.20 282.83, 59.47 284.05 M57.77 286.16 C63.27 275.20, 62.09 261.95, 56.46 252.16 M58.49 284.93 C60.24 273.65, 58.62 262.67, 59.28 253.60" fill="none" stroke="#202020" stroke-width="3" stroke-linecap="round" stroke-linejoin="round"/><path d="M96.93 255.05 L136.39 252.98 L134.76 280.62 L102.36 286.20" fill="#faf7ef" stroke="none"/><path d="M103.76 253.99 C106.51 254.30, 118.20 257.42, 132.55 257.67 M99.30 252.31 C111.57 252.62, 120.83 254.49, 134.43 253.57 M134.63 253.74 C132.42 263.20, 133.06 265.94, 131.49 287.39 M136.04 255.90 C134.09 261.84, 136.20 267.29, 135.97 284.54 M132.00 286.38 C119.66 284.84, 116.17 286.89, 96.78 283.98 M134.97 283.16 C120.71 283.48, 106.82 282.26, 98.39 283.52 M96.93 285.66 C99.56 275.47, 101.87 274.01, 103.12 250.73 M98.26 284.14 C100.65 274.98, 98.54 269.93, 101.63 255.73" fill="none" stroke="#202020" stroke-width="3" stroke-linecap="round" stroke-linejoin="round"/><path d="M38.31 218.58 L76.69 219.70 L76.25 246.16 L39.95 249.25" fill="#faf7ef" stroke="none"/><path d="M40.73 221.52 C51.40 219.57, 62.73 221.26, 71.90 215.12 M39.24 219.53 C50.66 221.01, 63.50 221.40, 74.81 219.64 M78.53 218.20 C76.06 233.01, 71.81 239.79, 74.49 246.33 M75.81 219.02 C73.63 227.03, 73.96 236.07, 75.83 249.02 M78.76 249.29 C65.90 250.47, 54.81 249.59, 42.81 249.77 M74.62 249.52 C59.84 249.03, 47.57 248.11, 38.68 248.58 M39.28 247.51 C37.12 236.00, 43.51 228.92, 37.80 222.13 M40.01 249.90 C41.19 240.04, 40.76 232.10, 38.50 220.06" fill="none" stroke="#202020" stroke-width="3" stroke-linecap="round" stroke-linejoin="round"/><path d="M80.23 222.64 L118.06 222.20 L118.48 252.60 L78.56 247.29" fill="#faf7ef" stroke="none"/><path d="M79.16 217.90 C85.27 219.16, 98.81 217.88, 117.47 219.55 M79.90 219.17 C86.56 219.56, 97.75 216.97, 113.98 217.49 M117.90 216.65 C114.74 229.73, 111.50 231.77, 114.89 252.77 M115.42 220.78 C115.68 227.48, 115.44 234.67, 114.79 250.13 M116.29 245.13 C108.08 247.65, 97.25 247.76, 76.13 252.96 M114.92 247.82 C104.05 249.95, 89.19 247.31, 78.89 247.15 M80.41 247.34 C79.33 238.86, 78.96 229.04, 77.71 220.91 M79.90 247.73 C79.43 241.77, 81.58 236.54, 79.80 217.03" fill="none" stroke="#202020" stroke-width="3" stroke-linecap="round" stroke-linejoin="round"/><path d="M56.36 185.26 L94.95 182.23 L98.45 214.31 L62.17 215.77" fill="#faf7ef" stroke="none"/><path d="M57.97 183.90 C69.85 183.45, 72.81 187.91, 98.37 180.21 M60.66 184.76 C66.18 185.28, 73.55 184.86, 95.99 185.76 M98.78 180.32 C91.70 194.37, 93.69 200.64, 98.46 211.58 M93.41 184.96 C94.53 190.20, 96.56 197.24, 95.86 213.53 M93.14 217.41 C85.19 210.24, 68.04 218.10, 63.37 211.75 M94.10 215.27 C83.18 212.84, 70.21 215.08, 61.67 213.83 M59.82 211.43 C62.78 209.39, 59.53 200.00, 59.50 181.54 M60.72 214.53 C59.23 207.92, 60.72 201.06, 58.12 184.63" fill="none" stroke="#202020" stroke-width="3" stroke-linecap="round" stroke-linejoin="round"/><path d="M372.16 21.06 L405.04 16.75 L408.64 53.92 L369.71 53.68" fill="#faf7ef" stroke="none"/><path d="M368.92 21.88 C380.36 18.84, 386.80 19.70, 405.55 20.29 M370.65 18.08 C377.68 21.27, 386.97 18.85, 403.65 20.64 M406.28 23.97 C404.38 30.58, 403.38 40.39, 408.23 52.62 M406.89 19.49 C404.06 28.80, 406.20 40.20, 403.63 48.17 M407.50 49.64 C393.97 51.41, 392.12 48.18, 369.83 52.97 M403.34 49.71 C392.16 51.17, 378.61 48.79, 370.77 50.09 M373.75 53.20 C372.58 39.30, 370.32 37.31, 368.24 21.16 M370.49 49.55 C369.95 43.96, 369.97 33.38, 370.57 21.13" fill="none" stroke="#202020" stroke-width="3" stroke-linecap="round" stroke-linejoin="round"/><path d="M385.44 58.46 C393.62 98.87, 392.68 140.97, 384.93 175.82 M389.16 54.54 C388.24 89.60, 389.66 122.73, 386.73 175.37" fill="none" stroke="#202020" stroke-width="3" stroke-linecap="round" stroke-linejoin="round"/></svg>