<svg xmlns="http://www.w3.org/2000/svg" viewBox="0 0 436 310" width="436" height="310"><path d="M22.44 253.43 L53.92 256.39 L57.50 283.99 L23.85 280.24" fill="#faf7ef" stroke="none"/><path d="M22.58 251.03 C29.43 255.56, 33.52 255.38, 51.88 257.86 M18.66 253.65 C29.59 253.31, 36.16 254.98, 53.01 253.07 M58.43 253.12 C52.32 264.61, 51.78 276.28, 56.13 282.49 M56.92 255.96 C56.70 260.12, 53.80 268.48, 53.27 282.15 M55.00 287.29 C47.15 282.61, 35.47 285.10, 22.62 283.16 M53.28 283.19 C41.62 285.83, 33.93 284.18, 19.38 284.82 M21.32 281.75 C21.44 269.59, 20.91 263.23, 19.37 256.37 M18.85 283.82 C21.95 276.70, 21.52 268.29, 20.11 255.17" fill="none" stroke="#202020" stroke-width="3" stroke-linecap="round" stroke-linejoin="round"/><path d="M57.54 251.09 L97.58 251.00 L97.73 287.87 L57.31 287.77" fill="#faf7ef" stroke="none"/><path d="M58.44 253.59 C72.70 255.55, 86.40 255.14, 94.45 252.84 M58.38 254.87 C68.94 254.91, 74.16 252.44, 95.52 254.32 M93.46 255.87 C94.40 261.82, 91.63 264.99, 91.80 286.90 M96.05 253.17 C94.80 262.14, 93.80 268.12, 95.23 285.02 M97.51 287.86 C82.88 283.34, 70.89 287.91, 57.33 284.16 M94.44 285.44 C83.23 283.71, 74.48 284.21, 58.19 283.11 M61.30 286.15 C56.43 273.08, 63.07 265.41, 62.93 257.48 M61.97 282.37 C60.22 276.82, 60.83 268.83, 59.87 254.82" fill="none" stroke="#202020" stroke-width="3" stroke-linecap="round" stroke-linejoin="round"/><path d="M100.74 250.43 L133.54 252.60 L138.38 287.49 L99.91 284.08" fill="#faf7ef" stroke="none"/><path d="M100.45 257.46 C114.82 251.35, 121.79 251.42, 132.13 250.99 M100.75 255.11 C108.39 255.01, 112.76 253.25, 134.72 255.32 M137.18 255.02 C134.36 264.52, 134.98 273.37, 136.09 282.34 M134.11 255.58 C136.55 259.35, 136.16 266.29, 135.56 284.34 M138.14 283.76 C124.51 282.35, 110.55 286.08, 101.92 281.85 M133.56 285.96 C127.28 285.29, 122.13 285.16, 99.99 284.89 M99.57 287.50 C100.13 273.20, 101.74 263.63, 100.23 255.66 M101.46 285.76 C100.88 273.47, 98.73 259.65, 101.76 254.80" fill="none" stroke="#202020" stroke-width="3" stroke-linecap="round" stroke-linejoin="round"/><path d="M39.26 218.84 L72.55 215.94 L77.71 246.37 L38.23 246.46" fill="#faf7ef" stroke="none"/><path d="M40.96 218.51 C45.94 222.47, 59.07 221.04, 72.71 220.59 M40.32 220.51 C51.84 217.70, 64.16 219.90, 75.25 218.48 M72.49 220.21 C74.05 225.51, 76.86 232.75, 78.48 245.39 M75.44 219.04 C72.85 231.26, 73.86 241.47, 73.75 250.20 M71.76 245.78 C67.94 246.74, 54.78 250.91, 39.38 245.63 M74.00 250.82 C68.15 251.43, 59.89 248.73, 40.60 247.96 M36.41 245.14 C39.38 240.48, 43.64 229.51, 41.79 222.25 M40.19 247.04 C39.63 242.65, 39.01 233.82, 39.64 220.23" fill="none" stroke="#202020" stroke-width="3" stroke-linecap="round" stroke-linejoin="round"/><path d="M81.30 220.52 L111.43 218.86 L112.48 248.03 L80.66 252.93" fill="#faf7ef" stroke="none"/><path d="M80.75 219.59 C86.82 219.74, 94.11 217.91, 114.24 216.88 M80.11 220.29 C88.59 220.59, 99.86 218.64, 114.71 218.89 M113.81 219.43 C112.20 229.63, 111.47 233.48, 115.24 252.34 M114.95 218.94 C113.44 224.42, 115.25 231.72, 116.34 247.89 M117.27 245.79 C107.98 246.05, 97.61 248.07, 80.31 251.40 M115.06 247.43 C104.71 250.65, 96.94 250.27, 81.72 249.44 M76.00 246.09 C82.69 238.25, 76.47 229.19, 80.93 219.30 M79.27 250.25 C80.34 239.98, 81.29 234.60, 80.39 219.95" fill="none" stroke="#202020" stroke-width="3" stroke-linecap="round" stroke-linejoin="round"/><path d="M56.58 187.75 L94.00 187.34 L91.81 215.56 L59.72 216.31" fill="#faf7ef" stroke="none"/><path d="M62.11 185.35 C70.76 183.22, 79.38 185.87, 95.77 186.47 M61.68 182.61 C73.58 182.33, 84.41 182.16, 95.98 183.83 M96.63 181.21 C93.29 194.44, 94.66 199.35, 98.13 213.98 M96.79 183.68 C93.37 192.46, 95.20 204.21, 93.30 214.99 M95.18 216.91 C85.97 213.69, 73.82 213.17, 59.31 217.64 M95.42 215.06 C85.56 212.37, 77.95 212.45, 60.91 215.25 M62.85 213.05 C60.51 202.40, 62.69 197.88, 56.60 180.76 M59.06 212.32 C59.93 207.93, 58.62 197.93, 58.42 182.73" fill="none" stroke="#202020" stroke-width="3" stroke-linecap="round" stroke-linejoin="round"/><path d="M370.31 17.79 L405.78 21.92 L402.42 46.92 L367.11 47.44" fill="#faf7ef" stroke="none"/><path d="M371.40 22.26 C385.15 19.48, 390.90 19.07, 404.44 22.63 M371.24 20.61 C383.39 19.52, 396.29 20.04, 403.06 20.43 M408.53 17.68 C407.50 27.44, 401.11 29.74, 406.05 50.39 M406.78 21.70 C407.02 28.73, 404.10 35.88, 405.03 48.57 M402.72 49.41 C389.97 45.88, 382.83 48.35, 366.74 51.70 M404.62 48.20 C393.92 49.09, 382.76 49.85, 371.50 51.82 M366.49 46.25 C367.76 35.84, 369.23 27.93, 370.80 16.67 M370.34 49.44 C370.85 42.60, 367.74 35.43, 368.49 21.46" fill="none" stroke="#202020" stroke-width="3" stroke-linecap="round" stroke-linejoin="round"/><path d="M390.86 58.16 C388.09 95.06, 389.00 131.82, 387.72 170.48 M387.28 54.25 C387.65 93.94, 386.22 132.90, 388.56 175.06" fill="none" stroke="#202020" stroke-width="3" stroke-linecap="round" stroke-linejoin="round"/></svg>