<svg xmlns="http://www.w3.org/2000/svg" viewBox="0 0 900 300" width="900" height="300"><path d="M282.69 48.99 C301.90 43.44, 330.81 43.42, 356.18 41.09 C381.56 38.76, 408.57 35.63, 434.94 35.01 C461.31 34.39, 488.90 35.51, 514.40 37.39 C539.90 39.28, 564.54 43.00, 587.92 46.32 C611.29 49.65, 634.09 52.36, 654.63 57.34 C675.17 62.32, 694.82 69.52, 711.17 76.20 C727.52 82.88, 742.40 89.75, 752.72 97.43 C763.05 105.11, 768.49 113.67, 773.12 122.27 C777.76 130.87, 782.41 140.44, 780.55 149.01 C778.69 157.59, 770.39 166.02, 761.99 173.72 C753.59 181.41, 743.78 188.19, 730.16 195.18 C716.54 202.17, 699.32 209.56, 680.26 215.66 C661.19 221.75, 638.39 227.85, 615.78 231.74 C593.17 235.64, 569.20 236.92, 544.59 239.04 C519.99 241.16, 494.75 243.84, 468.18 244.44 C441.61 245.04, 411.10 244.55, 385.20 242.64 C359.29 240.73, 336.27 236.72, 312.74 232.98 C289.21 229.24, 264.90 224.88, 244.00 220.19 C223.10 215.49, 203.43 211.31, 187.35 204.81 C171.26 198.31, 157.54 189.12, 147.49 181.18 C137.43 173.23, 131.04 165.50, 127.00 157.16 C122.96 148.82, 121.84 139.46, 123.25 131.12 C124.66 122.78, 127.89 114.85, 135.47 107.11 C143.05 99.36, 154.43 91.55, 168.70 84.66 C182.98 77.77, 189.23 73.37, 221.12 65.77 C253.02 58.17, 323.16 43.58, 360.06 39.07 C396.96 34.56, 441.32 36.69, 442.52 38.73 M257.21 55.69 C274.26 50.09, 303.52 46.30, 328.67 43.47 C353.82 40.64, 381.76 40.29, 408.11 38.70 C434.46 37.11, 460.95 33.77, 486.76 33.93 C512.57 34.10, 538.02 36.22, 562.99 39.69 C587.95 43.15, 614.30 49.29, 636.54 54.70 C658.79 60.12, 679.36 66.40, 696.47 72.16 C713.58 77.93, 726.71 82.80, 739.22 89.31 C751.73 95.82, 764.37 102.92, 771.53 111.21 C778.70 119.50, 782.37 130.42, 782.22 139.04 C782.06 147.67, 777.08 154.96, 770.60 162.98 C764.13 170.99, 755.29 179.27, 743.40 187.15 C731.51 195.03, 716.46 203.85, 699.27 210.25 C682.08 216.64, 662.09 220.82, 640.26 225.53 C618.43 230.23, 593.22 235.13, 568.29 238.48 C543.37 241.84, 516.27 244.57, 490.71 245.65 C465.15 246.72, 440.23 246.68, 414.93 244.95 C389.63 243.22, 363.84 238.62, 338.91 235.26 C313.97 231.90, 287.37 229.49, 265.31 224.80 C243.25 220.11, 224.42 213.31, 206.56 207.10 C188.71 200.88, 170.90 194.32, 158.16 187.52 C145.42 180.71, 136.24 174.47, 130.13 166.29 C124.02 158.10, 122.01 147.05, 121.51 138.41 C121.01 129.77, 121.66 122.25, 127.11 114.45 C132.57 106.64, 141.96 98.87, 154.25 91.56 C166.54 84.25, 183.00 76.90, 200.86 70.58 C218.72 64.26, 251.02 56.43, 261.41 53.63 C271.79 50.83, 260.20 52.11, 263.18 53.79" fill="#faf7ef" stroke="none"/><path d="M400.55 35.51 C424.40 32.74, 454.56 36.23, 480.46 37.26 C506.36 38.29, 530.86 39.07, 555.96 41.67 C581.07 44.26, 608.87 48.50, 631.08 52.84 C653.28 57.18, 671.41 61.80, 689.18 67.72 C706.95 73.63, 724.64 81.12, 737.72 88.32 C750.79 95.52, 760.94 103.04, 767.64 110.93 C774.34 118.81, 777.41 126.87, 777.91 135.64 C778.41 144.42, 776.11 154.90, 770.64 163.58 C765.18 172.27, 756.46 180.57, 745.12 187.73 C733.78 194.90, 719.04 200.83, 702.58 206.60 C686.13 212.36, 667.86 217.08, 646.40 222.32 C624.94 227.56, 598.42 234.59, 573.82 238.05 C549.21 241.50, 524.19 242.01, 498.75 243.05 C473.32 244.09, 447.58 245.15, 421.23 244.26 C394.88 243.37, 365.82 240.34, 340.67 237.73 C315.51 235.13, 292.36 233.26, 270.30 228.64 C248.25 224.02, 226.54 216.30, 208.32 210.01 C190.11 203.71, 173.40 198.07, 161.01 190.87 C148.61 183.67, 140.61 174.75, 133.95 166.81 C127.29 158.88, 122.34 151.11, 121.07 143.27 C119.79 135.44, 120.88 127.64, 126.30 119.80 C131.71 111.95, 141.76 103.94, 153.56 96.19 C165.36 88.44, 179.88 79.82, 197.09 73.32 C214.31 66.81, 235.68 61.95, 256.86 57.15 C278.04 52.35, 286.98 48.23, 324.18 44.51 C361.39 40.79, 441.70 35.30, 480.08 34.85 C518.46 34.40, 555.09 39.62, 554.47 41.82 M564.79 42.05 C589.81 42.96, 611.58 50.23, 632.64 54.47 C653.70 58.70, 673.32 61.67, 691.16 67.46 C709.00 73.24, 726.69 81.76, 739.67 89.18 C752.64 96.59, 761.99 103.39, 769.00 111.95 C776.01 120.52, 781.03 132.11, 781.71 140.57 C782.39 149.02, 779.78 155.38, 773.08 162.69 C766.39 170.01, 753.34 176.75, 741.55 184.46 C729.77 192.17, 718.99 202.56, 702.37 208.93 C685.74 215.31, 663.48 218.23, 641.79 222.70 C620.09 227.18, 596.57 232.81, 572.20 235.77 C547.83 238.72, 521.99 238.98, 495.56 240.41 C469.14 241.85, 440.18 245.04, 413.64 244.38 C387.09 243.73, 361.24 239.86, 336.29 236.49 C311.34 233.13, 285.39 228.14, 263.94 224.19 C242.50 220.23, 224.65 218.96, 207.62 212.77 C190.58 206.59, 174.79 194.53, 161.76 187.06 C148.73 179.59, 136.53 175.23, 129.43 167.94 C122.32 160.65, 118.84 152.04, 119.13 143.32 C119.43 134.61, 124.92 124.23, 131.20 115.67 C137.47 107.11, 145.50 99.45, 156.78 91.96 C168.05 84.47, 181.59 76.51, 198.84 70.73 C216.09 64.94, 238.13 62.15, 260.25 57.26 C282.37 52.37, 306.89 44.62, 331.57 41.37 C356.26 38.12, 382.62 38.76, 408.37 37.75 C434.11 36.75, 459.97 34.25, 486.06 35.33 C512.14 36.42, 552.90 43.15, 564.89 44.27 C576.88 45.38, 560.56 40.30, 558.00 42.00" fill="none" stroke="#202020" stroke-width="2" stroke-linecap="round" stroke-linejoin="round"/><path d="M308.79 132.04 C309.34 132.17, 308.43 131.92, 308.53 132.49 C308.63 133.06, 309.27 134.10, 309.38 135.48 C309.49 136.86, 309.65 139.70, 309.17 140.77 C308.70 141.84, 307.32 142.27, 306.54 141.88 C305.77 141.50, 305.19 139.71, 304.51 138.45 C303.83 137.19, 302.81 135.50, 302.47 134.31 C302.14 133.11, 302.22 131.90, 302.50 131.28 C302.79 130.66, 302.83 131.02, 304.18 130.60 C305.53 130.18, 309.84 128.96, 310.59 128.74 C311.34 128.52, 308.97 128.71, 308.69 129.29 M304.04 131.45 C305.15 131.00, 305.87 132.51, 307.06 132.88 C308.24 133.25, 310.25 133.63, 311.14 133.69 C312.03 133.74, 313.02 132.21, 312.39 133.20 C311.77 134.18, 308.05 138.07, 307.39 139.59 C306.73 141.11, 309.42 142.55, 308.43 142.33 C307.45 142.10, 303.07 139.70, 301.46 138.25 C299.85 136.80, 298.56 134.26, 298.76 133.63 C298.97 133.00, 301.86 134.88, 302.69 134.48 C303.52 134.08, 303.69 131.45, 303.74 131.24 C303.79 131.03, 302.66 132.81, 303.01 133.21" fill="#faf7ef" stroke="none"/><path d="M301.44 131.48 C302.02 130.64, 304.62 128.67, 305.69 128.57 C306.77 128.46, 306.82 129.58, 307.92 130.87 C309.01 132.16, 312.04 135.17, 312.29 136.30 C312.53 137.44, 310.48 137.41, 309.36 137.70 C308.25 137.99, 306.73 138.00, 305.59 138.05 C304.45 138.11, 303.35 138.36, 302.52 138.02 C301.68 137.69, 300.57 136.90, 300.59 136.03 C300.61 135.16, 302.23 133.82, 302.62 132.82 C303.02 131.82, 302.77 130.33, 302.98 130.04 C303.19 129.75, 304.03 130.72, 303.87 131.07 M301.44 130.54 C302.41 129.96, 309.07 130.39, 310.35 131.04 C311.63 131.69, 309.51 133.94, 309.11 134.46 C308.71 134.97, 308.21 133.81, 307.92 134.13 C307.63 134.44, 307.76 135.63, 307.37 136.35 C306.98 137.06, 306.69 138.05, 305.57 138.42 C304.44 138.78, 300.97 138.88, 300.60 138.53 C300.23 138.19, 303.13 137.00, 303.34 136.35 C303.56 135.69, 301.77 135.83, 301.89 134.62 C302.01 133.41, 303.63 130.16, 304.06 129.09 C304.48 128.02, 304.49 127.87, 304.43 128.22" fill="none" stroke="#202020" stroke-width="2" stroke-linecap="round" stroke-linejoin="round"/><path d="M591.80 130.81 C593.13 130.59, 596.30 130.07, 597.49 130.46 C598.68 130.85, 598.69 132.22, 598.93 133.14 C599.17 134.07, 599.27 134.71, 598.92 136.00 C598.58 137.29, 597.95 140.15, 596.88 140.89 C595.80 141.63, 593.51 141.05, 592.49 140.46 C591.48 139.87, 591.15 138.15, 590.80 137.35 C590.44 136.55, 590.30 136.47, 590.35 135.66 C590.40 134.85, 589.96 133.51, 591.10 132.47 C592.23 131.43, 596.01 129.53, 597.14 129.43 C598.28 129.33, 597.89 131.71, 597.91 131.86 M591.77 130.60 C591.82 130.72, 592.69 129.66, 593.95 129.72 C595.22 129.77, 598.44 129.63, 599.35 130.93 C600.26 132.23, 599.81 136.42, 599.44 137.50 C599.07 138.58, 598.68 136.81, 597.14 137.39 C595.60 137.96, 591.39 141.07, 590.20 140.95 C589.00 140.84, 590.35 138.09, 589.97 136.70 C589.60 135.31, 587.90 133.56, 587.95 132.61 C587.99 131.66, 589.65 131.11, 590.24 130.99 C590.84 130.88, 591.06 131.93, 591.51 131.93 C591.96 131.93, 592.22 131.63, 592.94 131.00" fill="#faf7ef" stroke="none"/><path d="M593.76 128.22 C594.57 128.27, 595.67 132.40, 596.39 133.29 C597.10 134.18, 597.52 132.89, 598.06 133.56 C598.61 134.22, 600.33 136.43, 599.65 137.27 C598.96 138.10, 595.00 138.07, 593.93 138.54 C592.85 139.02, 594.21 140.46, 593.19 140.12 C592.16 139.77, 588.43 137.24, 587.79 136.48 C587.15 135.73, 588.66 136.74, 589.33 135.57 C590.00 134.40, 591.25 130.29, 591.81 129.47 C592.37 128.64, 592.28 130.54, 592.69 130.61 C593.10 130.68, 593.79 130.12, 594.29 129.90 M593.92 132.23 C594.67 132.71, 596.58 133.53, 597.44 133.60 C598.29 133.67, 598.65 131.99, 599.04 132.68 C599.42 133.36, 599.85 136.57, 599.75 137.71 C599.64 138.86, 599.70 139.20, 598.41 139.55 C597.11 139.91, 593.73 140.41, 591.98 139.85 C590.24 139.29, 587.98 137.55, 587.93 136.20 C587.88 134.84, 591.11 132.59, 591.68 131.71 C592.24 130.83, 591.17 130.86, 591.33 130.93 C591.49 130.99, 592.07 132.16, 592.65 132.11 C593.24 132.06, 594.94 130.82, 594.84 130.62" fill="none" stroke="#202020" stroke-width="2" stroke-linecap="round" stroke-linejoin="round"/><path d="M450.55 154.09 L453.13 152.35 L451.51 157.62 L443.88 161.15" fill="#faf7ef" stroke="none"/><path d="M447.04 151.33 C447.85 151.31, 449.58 152.27, 452.50 151.80 M447.50 152.60 C449.49 152.48, 450.98 152.23, 453.47 152.02 M453.51 153.12 C454.00 152.83, 452.47 155.80, 452.01 156.97 M453.15 152.03 C452.30 154.40, 452.49 155.62, 453.04 158.24 M453.06 158.36 C451.15 158.69, 450.70 157.83, 446.01 159.05 M452.98 157.71 C450.93 157.99, 449.53 158.02, 446.41 158.50 M447.04 156.98 C447.16 156.98, 446.00 154.63, 447.70 152.07 M446.81 157.60 C447.59 155.51, 447.38 153.37, 447.42 152.41" fill="none" stroke="#202020" stroke-width="2" stroke-linecap="round" stroke-linejoin="round"/><path d="M438.87 165.73 C437.08 165.42, 436.79 168.93, 436.82 174.94 M438.89 165.77 C438.94 169.87, 438.13 173.32, 438.15 174.49" fill="none" stroke="#202020" stroke-width="2" stroke-linecap="round" stroke-linejoin="round"/><path d="M447.39 166.46 C445.48 167.84, 445.83 170.41, 447.62 176.58 M445.25 165.76 C445.12 167.38, 446.54 169.87, 446.77 175.94" fill="none" stroke="#202020" stroke-width="2" stroke-linecap="round" stroke-linejoin="round"/><path d="M452.57 164.23 C455.39 167.83, 454.15 170.72, 453.59 173.34 M454.10 165.25 C454.95 167.18, 453.42 169.98, 454.40 175.36" fill="none" stroke="#202020" stroke-width="2" stroke-linecap="round" stroke-linejoin="round"/><path d="M462.40 164.22 C459.97 168.50, 461.35 173.53, 462.47 175.98 M461.42 165.04 C463.15 167.50, 461.73 170.64, 461.34 175.11" fill="none" stroke="#202020" stroke-width="2" stroke-linecap="round" stroke-linejoin="round"/><path d="M427.41 251.33 C432.97 256.44, 444.85 264.66, 475.31 278.84 M426.85 253.50 C437.69 261.47, 453.77 266.27, 476.08 280.51" fill="none" stroke="#202020" stroke-width="2" stroke-linecap="round" stroke-linejoin="round"/><path d="M478.14 252.65 C460.77 262.08, 448.23 269.47, 428.51 278.05 M474.10 253.06 C459.84 260.86, 449.80 268.75, 423.71 279.31" fill="none" stroke="#202020" stroke-width="2" stroke-linecap="round" stroke-linejoin="round"/></svg>