<svg xmlns="http://www.w3.org/2000/svg" viewBox="0 0 960 420" width="960" height="420"><path d="M722.39 75.30 C749.54 79.64, 768.35 89.14, 788.09 97.50 C807.82 105.85, 826.63 114.79, 840.79 125.43 C854.96 136.07, 865.40 149.78, 873.06 161.34 C880.72 172.90, 885.39 183.92, 886.74 194.79 C888.08 205.67, 886.65 215.58, 881.16 226.57 C875.66 237.55, 865.82 249.73, 853.79 260.70 C841.75 271.66, 826.32 282.91, 808.92 292.34 C791.53 301.77, 772.10 309.86, 749.41 317.27 C726.73 324.67, 699.68 331.30, 672.81 336.79 C645.93 342.27, 617.12 347.21, 588.16 350.16 C559.19 353.10, 529.29 354.05, 499.01 354.46 C468.74 354.87, 436.74 354.96, 406.50 352.61 C376.26 350.26, 345.71 344.77, 317.57 340.35 C289.44 335.93, 262.25 332.45, 237.71 326.10 C213.16 319.74, 189.73 311.19, 170.28 302.25 C150.84 293.31, 134.93 283.02, 121.05 272.45 C107.18 261.89, 95.07 249.90, 87.04 238.88 C79.01 227.85, 74.50 217.44, 72.86 206.33 C71.21 195.22, 71.63 183.59, 77.18 172.21 C82.74 160.83, 94.14 148.33, 106.20 138.02 C118.25 127.72, 132.09 119.48, 149.51 110.37 C166.93 101.26, 187.38 91.26, 210.70 83.37 C234.01 75.49, 262.20 68.35, 289.41 63.05 C316.62 57.76, 344.80 54.31, 373.97 51.59 C403.14 48.88, 434.54 47.28, 464.42 46.77 C494.29 46.27, 523.43 46.66, 553.22 48.56 C583.01 50.47, 597.94 46.84, 643.17 58.21 C688.40 69.57, 786.45 98.34, 824.61 116.73 C862.77 135.13, 877.67 167.12, 872.11 168.58 M329.27 58.28 C353.52 51.72, 391.75 50.40, 421.76 48.48 C451.78 46.56, 479.14 46.20, 509.36 46.75 C539.59 47.31, 573.77 48.31, 603.12 51.81 C632.47 55.31, 659.08 62.26, 685.45 67.76 C711.81 73.25, 738.72 77.18, 761.31 84.79 C783.89 92.40, 804.34 103.75, 820.94 113.41 C837.54 123.07, 850.44 132.08, 860.90 142.74 C871.36 153.41, 879.63 165.71, 883.70 177.42 C887.77 189.12, 888.02 201.64, 885.31 212.99 C882.61 224.34, 876.45 234.52, 867.49 245.50 C858.52 256.47, 846.43 269.33, 831.54 278.83 C816.66 288.32, 798.37 294.56, 778.16 302.47 C757.95 310.37, 735.01 319.38, 710.29 326.26 C685.57 333.15, 658.42 338.99, 629.84 343.78 C601.25 348.57, 569.02 353.69, 538.78 355.01 C508.55 356.32, 478.06 352.97, 448.44 351.67 C418.81 350.38, 390.23 350.71, 361.06 347.23 C331.88 343.75, 299.77 336.67, 273.40 330.79 C247.04 324.92, 224.75 319.73, 202.85 311.99 C180.95 304.25, 159.06 293.35, 142.00 284.35 C124.94 275.34, 111.29 268.15, 100.48 257.94 C89.67 247.74, 81.30 234.60, 77.14 223.13 C72.98 211.65, 73.52 200.65, 75.52 189.08 C77.51 177.51, 80.47 164.85, 89.10 153.70 C97.74 142.55, 112.14 132.43, 127.33 122.17 C142.52 111.90, 159.56 99.99, 180.24 92.09 C200.92 84.19, 226.45 81.23, 251.41 74.78 C276.37 68.32, 316.43 55.82, 330.00 53.38 C343.58 50.94, 330.06 57.26, 332.85 60.13" fill="#faf7ef" stroke="none"/><path d="M152.11 109.39 C163.79 98.69, 191.06 89.73, 213.68 82.34 C236.30 74.96, 260.88 70.30, 287.82 65.09 C314.76 59.88, 346.16 54.58, 375.32 51.08 C404.49 47.58, 432.70 44.57, 462.81 44.09 C492.92 43.61, 525.77 45.98, 555.99 48.22 C586.22 50.46, 616.68 52.94, 644.14 57.54 C671.61 62.13, 696.33 69.08, 720.80 75.78 C745.27 82.48, 770.69 89.02, 790.95 97.72 C811.21 106.43, 828.74 117.45, 842.34 128.02 C855.95 138.58, 864.68 150.22, 872.56 161.14 C880.44 172.06, 888.21 182.54, 889.64 193.55 C891.07 204.56, 886.91 216.04, 881.14 227.20 C875.38 238.36, 866.87 249.56, 855.03 260.51 C843.20 271.46, 828.17 283.55, 810.14 292.89 C792.12 302.22, 769.68 309.42, 746.89 316.51 C724.09 323.61, 700.31 329.81, 673.36 335.47 C646.42 341.13, 614.47 347.65, 585.22 350.47 C555.98 353.29, 528.00 351.93, 497.90 352.40 C467.79 352.86, 434.59 354.78, 404.59 353.27 C374.58 351.77, 345.77 348.39, 317.85 343.36 C289.93 338.33, 261.72 329.84, 237.08 323.07 C212.44 316.31, 189.66 310.89, 170.01 302.77 C150.35 294.65, 133.40 284.67, 119.15 274.35 C104.90 264.02, 92.59 252.32, 84.51 240.81 C76.44 229.31, 71.61 216.84, 70.69 205.34 C69.78 193.83, 73.14 183.12, 79.03 171.79 C84.92 160.46, 86.49 151.36, 106.04 137.35 C125.59 123.34, 171.17 98.08, 196.33 87.75 C221.48 77.41, 252.07 73.49, 256.96 75.35 M342.17 53.67 C367.16 47.17, 402.71 46.02, 433.38 45.02 C464.04 44.03, 495.49 45.78, 526.14 47.71 C556.79 49.64, 588.77 52.79, 617.29 56.60 C645.82 60.41, 671.82 64.48, 697.30 70.58 C722.78 76.68, 748.59 85.10, 770.19 93.20 C791.78 101.30, 811.00 109.82, 826.84 119.18 C842.69 128.55, 855.39 138.33, 865.26 149.38 C875.13 160.43, 882.45 173.87, 886.04 185.49 C889.63 197.11, 890.00 208.46, 886.82 219.09 C883.64 229.72, 876.99 238.30, 866.95 249.28 C856.90 260.26, 842.52 274.62, 826.55 284.97 C810.57 295.33, 792.61 303.71, 771.09 311.43 C749.57 319.15, 723.85 325.82, 697.42 331.30 C670.99 336.79, 641.34 340.31, 612.51 344.34 C583.68 348.37, 554.09 353.52, 524.41 355.48 C494.74 357.44, 463.86 357.30, 434.46 356.10 C405.06 354.90, 376.99 352.58, 348.00 348.30 C319.01 344.02, 286.89 336.89, 260.51 330.42 C234.14 323.95, 210.53 317.25, 189.74 309.51 C168.96 301.77, 151.26 293.61, 135.82 283.99 C120.38 274.37, 107.65 262.71, 97.11 251.80 C86.57 240.90, 76.75 229.59, 72.58 218.56 C68.40 207.52, 68.04 196.80, 72.04 185.60 C76.03 174.40, 86.32 162.54, 96.56 151.36 C106.80 140.18, 117.49 128.70, 133.48 118.51 C149.46 108.32, 170.53 98.70, 192.47 90.23 C214.40 81.76, 239.85 74.17, 265.08 67.69 C290.31 61.22, 329.71 53.15, 343.83 51.39 C357.95 49.63, 347.55 54.18, 349.79 57.13" fill="none" stroke="#202020" stroke-width="2" stroke-linecap="round" stroke-linejoin="round"/><path d="M320.09 190.82 C320.59 190.24, 323.28 190.47, 324.53 190.64 C325.78 190.80, 326.48 191.34, 327.58 191.78 C328.68 192.22, 330.22 192.64, 331.13 193.29 C332.05 193.94, 333.13 194.85, 333.05 195.67 C332.98 196.48, 331.72 197.20, 330.66 198.17 C329.60 199.13, 328.10 201.20, 326.68 201.44 C325.26 201.68, 323.11 200.60, 322.13 199.59 C321.15 198.58, 320.32 197.07, 320.81 195.40 C321.30 193.72, 323.63 190.19, 325.07 189.56 C326.51 188.93, 329.30 191.33, 329.44 191.62 M325.26 191.10 C326.46 190.99, 330.62 191.23, 331.97 191.83 C333.33 192.43, 333.33 193.83, 333.38 194.69 C333.43 195.55, 332.96 195.90, 332.28 196.99 C331.60 198.09, 330.59 200.92, 329.28 201.24 C327.98 201.55, 326.09 199.61, 324.44 198.88 C322.79 198.14, 320.13 197.45, 319.37 196.82 C318.61 196.19, 319.10 196.31, 319.91 195.11 C320.72 193.91, 322.56 190.61, 324.22 189.62 C325.89 188.62, 329.74 189.04, 329.90 189.14 C330.07 189.24, 326.12 189.96, 325.24 190.19" fill="#faf7ef" stroke="none"/><path d="M325.13 188.88 C326.39 188.03, 326.87 188.46, 327.47 189.11 C328.07 189.75, 328.34 191.71, 328.74 192.77 C329.13 193.82, 329.82 194.41, 329.83 195.43 C329.85 196.45, 329.05 198.39, 328.84 198.90 C328.63 199.40, 329.53 198.66, 328.57 198.46 C327.61 198.25, 324.25 198.10, 323.08 197.68 C321.91 197.25, 321.71 196.85, 321.55 195.90 C321.38 194.95, 321.46 193.12, 322.09 191.99 C322.73 190.86, 324.80 189.74, 325.37 189.13 C325.93 188.52, 325.55 188.01, 325.47 188.33 M329.29 190.05 C330.45 190.15, 330.67 192.67, 331.31 193.87 C331.96 195.07, 333.79 196.23, 333.16 197.24 C332.52 198.25, 328.79 199.65, 327.50 199.93 C326.20 200.21, 326.21 198.99, 325.39 198.94 C324.57 198.89, 323.64 200.40, 322.57 199.65 C321.50 198.90, 319.34 195.39, 318.95 194.46 C318.57 193.54, 319.72 194.94, 320.26 194.09 C320.80 193.24, 320.59 190.32, 322.17 189.35 C323.75 188.37, 328.56 188.40, 329.74 188.24 C330.93 188.07, 329.21 187.92, 329.30 188.37" fill="none" stroke="#202020" stroke-width="2" stroke-linecap="round" stroke-linejoin="round"/><path d="M634.36 191.59 C635.58 191.82, 635.53 191.66, 636.47 192.00 C637.42 192.33, 640.08 192.97, 640.04 193.60 C640.01 194.24, 637.07 195.00, 636.24 195.80 C635.42 196.59, 635.85 197.57, 635.09 198.39 C634.33 199.21, 632.61 201.24, 631.70 200.74 C630.79 200.23, 630.47 196.28, 629.64 195.35 C628.81 194.42, 626.52 195.62, 626.72 195.17 C626.92 194.71, 629.19 193.12, 630.81 192.63 C632.44 192.14, 634.98 192.58, 636.49 192.23 C638.00 191.87, 640.04 190.87, 639.87 190.48 M628.99 190.79 C629.46 190.39, 630.85 191.14, 632.28 191.47 C633.70 191.81, 636.28 192.40, 637.55 192.78 C638.81 193.17, 639.70 193.04, 639.84 193.78 C639.99 194.53, 639.07 196.13, 638.43 197.26 C637.80 198.39, 636.68 200.24, 636.05 200.54 C635.41 200.85, 636.18 199.61, 634.62 199.09 C633.06 198.58, 627.54 197.96, 626.69 197.44 C625.84 196.93, 628.59 197.15, 629.52 196.01 C630.45 194.86, 632.73 191.07, 632.26 190.56 C631.79 190.06, 626.73 193.03, 626.69 192.95" fill="#faf7ef" stroke="none"/><path d="M636.09 192.34 C637.05 193.13, 639.57 193.10, 639.85 193.98 C640.13 194.86, 638.37 197.01, 637.78 197.62 C637.18 198.23, 637.00 197.03, 636.27 197.63 C635.53 198.22, 634.71 200.94, 633.35 201.21 C631.99 201.47, 628.95 200.35, 628.10 199.20 C627.25 198.06, 628.00 195.32, 628.23 194.34 C628.46 193.35, 628.46 194.18, 629.48 193.27 C630.49 192.36, 632.96 189.12, 634.32 188.88 C635.69 188.63, 637.07 190.92, 637.67 191.82 C638.27 192.72, 637.68 194.20, 637.92 194.27 M638.61 190.13 C639.24 191.17, 637.52 193.39, 637.49 194.48 C637.47 195.57, 638.52 196.18, 638.47 196.65 C638.41 197.12, 638.02 196.81, 637.16 197.30 C636.31 197.80, 634.31 200.13, 633.33 199.60 C632.36 199.07, 631.98 194.99, 631.29 194.12 C630.60 193.26, 629.63 195.43, 629.20 194.40 C628.77 193.38, 627.96 188.47, 628.71 187.98 C629.45 187.49, 632.09 191.02, 633.69 191.48 C635.29 191.94, 637.99 190.98, 638.31 190.74 C638.62 190.49, 635.43 190.06, 635.58 190.01" fill="none" stroke="#202020" stroke-width="2" stroke-linecap="round" stroke-linejoin="round"/><path d="M474.65 213.01 L483.90 211.17 L484.22 214.10 L480.47 221.52" fill="#faf7ef" stroke="none"/><path d="M476.73 212.16 C479.27 212.53, 480.98 211.59, 484.19 211.75 M476.69 212.46 C478.08 212.56, 480.18 212.55, 482.83 211.60 M482.26 211.17 C482.59 215.04, 482.33 214.93, 481.87 218.55 M482.79 212.23 C483.69 213.78, 483.68 214.37, 482.56 218.12 M484.20 218.77 C481.86 218.36, 480.17 217.13, 478.10 218.15 M483.21 217.58 C480.24 218.40, 478.35 217.69, 476.63 218.33 M477.93 216.99 C475.85 217.21, 477.86 216.09, 477.00 210.88 M476.71 218.55 C476.71 216.05, 476.50 214.22, 476.91 212.10" fill="none" stroke="#202020" stroke-width="2" stroke-linecap="round" stroke-linejoin="round"/><path d="M468.98 224.99 C467.01 230.79, 465.96 232.52, 467.16 233.37 M467.68 225.70 C469.00 228.51, 467.57 232.72, 467.90 234.88" fill="none" stroke="#202020" stroke-width="2" stroke-linecap="round" stroke-linejoin="round"/><path d="M474.38 225.58 C476.06 225.98, 474.81 231.14, 476.72 233.42 M476.64 225.06 C476.65 227.75, 477.09 230.52, 475.51 235.60" fill="none" stroke="#202020" stroke-width="2" stroke-linecap="round" stroke-linejoin="round"/><path d="M485.23 224.62 C484.85 228.18, 484.69 231.56, 483.89 235.83 M484.42 224.06 C483.05 226.86, 484.26 229.32, 484.54 234.16" fill="none" stroke="#202020" stroke-width="2" stroke-linecap="round" stroke-linejoin="round"/><path d="M492.13 225.81 C493.53 229.94, 491.94 230.30, 490.09 234.48 M492.77 224.23 C492.33 226.98, 492.88 229.78, 491.87 235.56" fill="none" stroke="#202020" stroke-width="2" stroke-linecap="round" stroke-linejoin="round"/><path d="M452.21 358.00 C476.08 369.89, 490.42 372.15, 508.56 378.06 M455.84 358.61 C465.39 362.99, 479.93 365.89, 505.15 383.37" fill="none" stroke="#202020" stroke-width="2" stroke-linecap="round" stroke-linejoin="round"/><path d="M506.08 355.62 C485.04 371.47, 470.45 373.68, 455.86 380.74 M505.86 356.45 C491.74 363.36, 476.89 373.12, 453.57 381.91" fill="none" stroke="#202020" stroke-width="2" stroke-linecap="round" stroke-linejoin="round"/></svg>