<svg xmlns="http://www.w3.org/2000/svg" viewBox="0 0 900 320" width="900" height="320"><path d="M20.45 16.62 L876.50 18.98 L880.70 298.30 L22.38 299.41" fill="#faf7ef" stroke="none"/><path d="M18.91 18.74 C247.75 24.40, 473.08 25.44, 880.86 20.77 M19.87 20.09 C351.34 23.66, 681.24 24.06, 880.10 20.58 M879.99 21.01 C880.72 107.93, 879.58 199.20, 877.77 300.97 M880.84 20.21 C877.05 108.38, 877.74 194.45, 879.67 300.61 M881.18 299.56 C629.25 296.11, 381.08 294.22, 18.98 300.48 M879.36 299.95 C588.27 298.33, 296.82 298.49, 19.51 299.31 M18.37 302.85 C26.47 232.70, 26.82 159.36, 22.42 21.60 M20.25 300.76 C22.20 233.87, 20.94 167.39, 19.96 20.27" fill="none" stroke="#202020" stroke-width="2" stroke-linecap="round" stroke-linejoin="round"/><path d="M37.47 160.11 C36.49 159.22, 45.55 157.03, 57.41 158.41 M35.88 160.23 C39.50 161.26, 46.78 158.73, 55.32 161.95" fill="none" stroke="#202020" stroke-width="2" stroke-linecap="round" stroke-linejoin="round"/><path d="M42.65 152.87 C42.81 157.44, 44.29 167.73, 48.77 168.23 M45.06 150.86 C45.63 156.89, 45.19 158.92, 45.01 169.57" fill="none" stroke="#202020" stroke-width="2" stroke-linecap="round" stroke-linejoin="round"/><path d="M850.58 148.44 C850.58 148.44, 850.58 148.44, 850.58 148.44 M850.58 148.44 C850.58 148.44, 850.58 148.44, 850.58 148.44 M854.81 154.59 C855.73 154.38, 857.39 152.49, 860.06 150.54 M855.01 155.44 C856.74 153.71, 857.71 152.75, 859.18 150.34" fill="#faf7ef" stroke="none"/><path d="M856.64 148.41 C857.57 148.63, 859.42 149.63, 859.87 150.48 C860.33 151.33, 859.68 152.85, 859.36 153.52 C859.05 154.19, 858.73 154.21, 857.96 154.49 C857.20 154.77, 855.91 155.00, 854.76 155.22 C853.62 155.44, 851.95 156.03, 851.09 155.83 C850.23 155.64, 849.65 155.29, 849.60 154.03 C849.54 152.76, 850.21 149.59, 850.76 148.24 C851.31 146.88, 851.80 145.76, 852.90 145.90 C854.01 146.05, 856.75 148.60, 857.37 149.11 C857.98 149.61, 856.66 149.10, 856.61 148.94 M856.28 148.84 C856.78 149.43, 858.63 148.82, 859.14 149.49 C859.65 150.16, 859.30 151.93, 859.34 152.84 C859.38 153.76, 860.92 154.82, 859.37 154.98 C857.83 155.13, 851.35 153.78, 850.07 153.79 C848.80 153.80, 851.41 155.68, 851.74 155.05 C852.07 154.42, 852.39 150.97, 852.04 149.99 C851.69 149.01, 848.81 149.32, 849.66 149.17 C850.50 149.01, 855.93 149.38, 857.11 149.08 C858.29 148.78, 856.01 147.78, 856.73 147.37 C857.45 146.95, 861.04 146.12, 861.41 146.60" fill="none" stroke="#202020" stroke-width="2" stroke-linecap="round" stroke-linejoin="round"/><path d="M860.67 162.52 C860.67 162.52, 860.67 162.52, 860.67 162.52 M860.67 162.52 C860.67 162.52, 860.67 162.52, 860.67 162.52 M861.10 170.73 C865.46 169.16, 865.09 169.47, 870.71 162.62 M862.42 171.70 C866.50 169.88, 868.87 166.89, 869.32 164.60" fill="#faf7ef" stroke="none"/><path d="M867.90 162.14 C869.40 162.33, 870.73 163.19, 871.28 164.12 C871.83 165.04, 871.62 166.19, 871.20 167.71 C870.78 169.23, 870.22 172.04, 868.76 173.24 C867.29 174.45, 863.44 175.01, 862.41 174.94 C861.39 174.86, 863.35 174.05, 862.63 172.81 C861.91 171.58, 858.48 169.18, 858.10 167.53 C857.72 165.87, 859.60 163.87, 860.35 162.89 C861.11 161.91, 860.87 161.15, 862.62 161.63 C864.37 162.11, 869.36 164.88, 870.85 165.77 C872.35 166.65, 872.05 166.96, 871.62 166.94 M859.47 162.93 C859.89 162.95, 862.53 164.92, 863.46 164.88 C864.39 164.83, 863.57 162.45, 865.05 162.65 C866.53 162.85, 871.94 165.15, 872.34 166.06 C872.75 166.97, 868.41 166.77, 867.47 168.10 C866.53 169.43, 867.39 173.42, 866.70 174.05 C866.02 174.67, 864.67 172.55, 863.34 171.87 C862.01 171.18, 859.68 170.24, 858.72 169.93 C857.76 169.61, 857.08 171.27, 857.60 169.98 C858.12 168.68, 861.40 163.12, 861.85 162.17 C862.30 161.22, 860.31 163.99, 860.32 164.25" fill="none" stroke="#202020" stroke-width="2" stroke-linecap="round" stroke-linejoin="round"/></svg>