<svg xmlns="http://www.w3.org/2000/svg" viewBox="0 0 900 320" width="900" height="320"><path d="M449.92 15.14 C554.76 51.68, 660.58 88.48, 885.02 158.56 M449.26 16.24 C597.12 65.79, 743.11 113.61, 883.71 160.23 M883.30 161.62 C716.60 217.35, 544.72 276.69, 449.99 303.24 M884.35 160.91 C773.51 194.84, 663.08 232.41, 449.14 303.31 M448.86 303.81 C280.78 249.41, 114.12 190.28, 15.74 161.15 M450.00 304.21 C281.77 251.81, 112.16 195.92, 16.10 160.54 M16.40 158.13 C125.05 123.13, 235.06 84.93, 451.56 15.62 M15.16 159.80 C154.76 112.72, 291.06 67.10, 450.30 15.98" fill="none" stroke="#202020" stroke-width="2" stroke-linecap="round" stroke-linejoin="round"/><path d="M28.13 158.47 C35.06 156.11, 42.14 162.92, 47.58 158.43 M28.00 161.70 C34.19 161.14, 41.62 161.82, 49.65 158.64" fill="none" stroke="#202020" stroke-width="2" stroke-linecap="round" stroke-linejoin="round"/><path d="M852.96 161.12 C857.32 158.54, 858.20 162.14, 876.93 157.97 M848.26 159.44 C857.71 159.09, 863.25 160.94, 874.57 158.77" fill="none" stroke="#202020" stroke-width="2" stroke-linecap="round" stroke-linejoin="round"/><path d="M43.83 154.13 C45.11 156.89, 45.86 158.51, 50.51 159.64 M44.33 154.20 C45.45 156.21, 47.32 157.92, 50.51 160.39 M49.46 160.07 C46.85 160.57, 44.91 164.57, 42.49 163.78 M50.99 159.99 C48.88 161.98, 48.12 162.43, 44.65 164.56" fill="none" stroke="#202020" stroke-width="2" stroke-linecap="round" stroke-linejoin="round"/><path d="M857.17 155.21 C853.51 157.08, 852.84 156.85, 849.77 158.64 M856.72 154.53 C854.55 156.81, 853.51 156.68, 848.65 159.24 M848.38 161.22 C851.75 160.42, 854.57 163.39, 856.23 166.58 M848.34 160.60 C849.94 161.13, 852.86 162.78, 856.35 165.73" fill="none" stroke="#202020" stroke-width="2" stroke-linecap="round" stroke-linejoin="round"/></svg>