<svg xmlns="http://www.w3.org/2000/svg" viewBox="0 0 436 310" width="436" height="310"><path d="M105.45 79.03 L311.48 78.54 L315.63 284.37 L108.39 284.43" fill="#faf7ef" stroke="none"/><path d="M105.99 80.32 C179.48 81.07, 252.40 83.01, 318.06 80.88 M104.77 77.24 C152.26 73.75, 202.51 75.22, 316.65 78.93 M317.31 75.51 C315.37 152.57, 315.17 227.38, 315.34 281.10 M315.46 79.87 C312.05 148.77, 310.59 215.74, 314.81 285.22 M315.03 284.24 C245.62 278.33, 175.56 278.00, 105.62 282.99 M315.36 283.15 C244.70 282.64, 176.45 284.94, 103.48 285.22 M104.76 287.21 C98.42 226.28, 105.01 164.83, 105.68 79.88 M106.53 283.99 C105.20 208.49, 106.12 132.85, 104.85 79.77" fill="none" stroke="#202020" stroke-width="3" stroke-linecap="round" stroke-linejoin="round"/><path d="M91.89 75.67 L212.99 41.00 L328.36 75.23" fill="#faf7ef" stroke="none"/><path d="M91.42 79.33 C117.86 75.88, 146.36 68.26, 213.93 45.37 M94.62 76.23 C132.65 65.67, 168.96 53.47, 208.25 43.17 M210.99 43.87 C232.05 48.44, 264.32 60.19, 324.36 76.78 M210.21 42.46 C236.72 51.08, 264.99 60.29, 325.71 76.24 M326.99 75.17 C237.87 74.83, 146.70 76.67, 97.07 75.74 M324.34 77.79 C260.42 79.52, 197.21 80.52, 96.63 79.46" fill="none" stroke="#202020" stroke-width="3" stroke-linecap="round" stroke-linejoin="round"/><path d="M171.58 129.96 L254.73 131.19 L254.22 194.14 L164.57 188.81" fill="#faf7ef" stroke="none"/><path d="M164.10 126.93 C193.31 128.47, 220.40 124.30, 248.24 125.96 M167.82 128.17 C195.98 128.97, 221.99 131.83, 252.62 129.44 M251.81 131.91 C252.51 139.69, 249.94 156.09, 248.48 189.03 M252.03 127.86 C254.04 142.40, 254.72 157.70, 253.28 194.56 M253.39 195.18 C232.56 188.56, 219.91 188.35, 170.35 190.01 M251.91 191.35 C223.78 193.01, 195.76 194.60, 169.96 190.79 M166.03 195.00 C169.53 176.21, 171.81 162.04, 164.74 132.44 M166.15 193.67 C169.17 176.40, 168.08 161.52, 167.74 129.66" fill="none" stroke="#202020" stroke-width="3" stroke-linecap="round" stroke-linejoin="round"/><path d="M158.81 208.19 L262.82 214.28 L266.09 282.85 L157.08 282.54" fill="#faf7ef" stroke="none"/><path d="M159.03 215.31 C181.00 213.20, 206.16 212.49, 260.68 211.62 M159.49 213.32 C185.05 213.60, 215.36 213.48, 262.93 212.93 M263.93 208.09 C264.34 231.59, 262.03 239.98, 265.10 286.65 M263.38 213.95 C262.81 234.73, 261.89 253.76, 263.86 282.14 M264.62 282.99 C233.66 280.27, 207.50 285.41, 161.23 280.62 M263.80 282.91 C238.76 285.58, 219.99 285.90, 156.96 285.12 M155.96 286.36 C156.58 254.51, 156.45 232.14, 154.51 208.34 M157.91 282.67 C155.74 254.60, 158.16 228.70, 158.06 210.29" fill="none" stroke="#202020" stroke-width="3" stroke-linecap="round" stroke-linejoin="round"/></svg>