<svg xmlns="http://www.w3.org/2000/svg" viewBox="0 0 436 310" width="436" height="310"><path d="M106.28 80.37 L318.18 78.87 L317.75 280.07 L105.41 283.96" fill="#faf7ef" stroke="none"/><path d="M102.78 77.27 C177.77 78.87, 251.84 74.39, 317.77 76.02 M103.56 79.59 C188.13 78.91, 268.92 76.57, 314.33 76.48 M316.99 78.35 C310.84 132.36, 312.43 189.78, 314.35 282.61 M315.87 77.45 C317.83 133.01, 317.48 191.12, 314.01 285.19 M316.29 281.70 C256.77 280.62, 202.03 279.84, 104.66 284.09 M313.36 284.63 C246.07 281.49, 180.47 283.82, 103.46 283.14 M105.39 284.58 C109.14 220.39, 110.55 160.85, 105.94 77.17 M105.56 282.69 C107.91 205.47, 106.41 126.99, 106.53 77.59" fill="none" stroke="#202020" stroke-width="3" stroke-linecap="round" stroke-linejoin="round"/><path d="M96.95 81.62 L212.94 43.95 L327.61 75.15" fill="#faf7ef" stroke="none"/><path d="M98.13 76.85 C141.03 64.78, 184.87 45.76, 207.79 46.14 M93.77 76.21 C122.03 67.57, 152.24 62.30, 208.90 41.99 M208.07 43.50 C255.94 57.66, 300.01 67.93, 328.52 81.80 M208.35 42.90 C246.49 52.99, 280.05 60.85, 324.46 79.75 M325.01 80.03 C240.81 79.62, 158.31 80.41, 94.12 80.32 M323.84 78.02 C261.86 77.85, 199.95 78.02, 96.10 77.04" fill="none" stroke="#202020" stroke-width="3" stroke-linecap="round" stroke-linejoin="round"/><path d="M171.10 131.27 L254.85 130.59 L250.67 191.90 L164.12 194.54" fill="#faf7ef" stroke="none"/><path d="M166.68 132.54 C195.69 126.86, 222.08 134.12, 250.19 129.47 M167.60 129.30 C196.13 127.75, 220.97 130.16, 253.88 128.81 M255.68 130.17 C253.11 146.17, 252.94 157.39, 255.25 196.27 M252.57 131.30 C250.16 148.80, 251.78 168.07, 251.24 193.16 M250.09 196.31 C220.47 188.90, 193.57 188.66, 167.76 194.47 M252.19 191.25 C222.93 192.20, 195.08 193.18, 167.09 194.45 M165.86 195.89 C170.72 175.40, 166.44 159.98, 164.21 133.47 M168.98 193.58 C169.31 172.24, 167.75 156.12, 168.76 127.94" fill="none" stroke="#202020" stroke-width="3" stroke-linecap="round" stroke-linejoin="round"/><path d="M154.05 213.44 L259.20 212.56 L260.66 284.33 L155.87 284.96" fill="#faf7ef" stroke="none"/><path d="M155.84 215.78 C187.35 210.79, 221.26 215.41, 259.83 210.94 M159.31 212.20 C194.35 211.82, 228.96 215.04, 262.44 212.35 M259.87 213.57 C262.98 240.03, 262.98 271.19, 259.44 284.19 M261.58 211.45 C261.81 235.41, 263.27 257.27, 261.86 284.82 M265.56 283.51 C239.64 286.41, 211.68 281.45, 154.50 287.56 M262.79 285.15 C227.91 284.08, 196.46 283.41, 157.19 283.74 M153.53 287.95 C158.25 256.44, 161.69 227.40, 159.61 214.86 M156.53 284.03 C157.14 255.08, 156.25 226.15, 159.16 212.53" fill="none" stroke="#202020" stroke-width="3" stroke-linecap="round" stroke-linejoin="round"/></svg>