<svg xmlns="http://www.w3.org/2000/svg" viewBox="0 0 900 300" width="900" height="300"><path d="M8.87 2.35 L894.37 7.00 L892.82 298.72 L1.65 291.40" fill="#faf7ef" stroke="none"/><path d="M6.06 3.44 C305.69 3.42, 608.47 2.05, 894.09 4.17 M5.60 4.85 C284.69 3.74, 564.75 3.24, 894.28 4.61 M894.15 5.79 C896.47 67.77, 901.19 131.13, 894.94 293.29 M893.93 5.36 C897.66 79.20, 898.86 151.33, 894.31 294.07 M896.23 296.34 C640.05 299.81, 385.14 301.49, 6.28 295.43 M894.80 294.37 C717.30 288.28, 539.02 288.52, 4.59 295.46 M7.04 296.32 C2.99 209.23, 2.52 118.33, 5.10 5.44 M3.65 294.58 C0.73 218.21, -0.25 144.26, 4.26 4.21" fill="none" stroke="#202020" stroke-width="2" stroke-linecap="round" stroke-linejoin="round"/><path d="M446.85 133.14 L463.92 147.45 L447.54 162.14 L434.05 149.28" fill="#faf7ef" stroke="none"/><path d="M448.48 132.97 C454.21 138.50, 460.19 145.02, 459.95 150.04 M451.88 135.32 C454.52 137.42, 455.13 143.14, 463.79 148.65 M462.24 146.80 C459.58 153.62, 456.12 158.77, 446.69 164.53 M462.72 148.96 C459.15 155.48, 451.87 161.10, 448.11 165.12 M447.25 162.24 C445.03 158.00, 441.85 154.78, 437.98 147.79 M450.94 165.06 C444.66 162.06, 443.43 156.68, 438.86 149.99 M437.31 149.94 C442.70 149.74, 445.81 141.77, 448.36 133.65 M438.94 148.43 C439.90 145.73, 443.95 142.77, 449.73 133.89" fill="none" stroke="#202020" stroke-width="2" stroke-linecap="round" stroke-linejoin="round"/></svg>