<svg xmlns="http://www.w3.org/2000/svg" viewBox="0 0 960 420" width="960" height="420"><path d="M3.59 5.59 L955.48 7.08 L958.92 413.70 L1.85 418.73" fill="#faf7ef" stroke="none"/><path d="M4.49 4.39 C305.14 8.83, 602.01 8.01, 956.11 3.46 M4.35 5.04 C253.48 9.07, 502.00 9.40, 955.34 5.24 M956.63 4.20 C958.27 157.46, 959.21 306.12, 955.02 416.37 M955.47 4.99 C957.31 144.77, 956.50 285.62, 954.60 414.85 M954.86 415.68 C689.31 418.68, 423.49 419.15, 5.85 413.81 M955.42 415.00 C744.30 419.26, 533.51 419.88, 4.54 414.66 M3.82 415.65 C10.52 288.76, 8.78 164.41, 4.50 4.96 M5.19 415.85 C7.23 326.48, 7.71 239.01, 5.93 4.57" fill="none" stroke="#202020" stroke-width="2" stroke-linecap="round" stroke-linejoin="round"/><path d="M478.82 193.52 L494.85 209.37 L483.73 222.60 L465.74 207.97" fill="#faf7ef" stroke="none"/><path d="M479.86 193.80 C483.36 197.94, 489.39 207.25, 493.47 213.69 M481.20 196.06 C483.97 199.05, 489.29 206.69, 493.78 208.97 M488.38 211.91 C490.81 215.55, 485.14 214.78, 479.46 222.79 M491.02 210.87 C490.14 213.61, 486.40 216.13, 478.55 226.14 M481.34 226.53 C480.55 223.66, 471.80 217.25, 471.22 209.55 M479.33 225.12 C477.26 217.75, 472.62 215.41, 466.67 209.75 M467.42 210.96 C474.69 201.40, 476.31 202.83, 482.42 197.23 M469.68 211.85 C469.98 207.54, 472.78 201.41, 478.61 193.65" fill="none" stroke="#202020" stroke-width="2" stroke-linecap="round" stroke-linejoin="round"/></svg>