<svg xmlns="http://www.w3.org/2000/svg" viewBox="0 0 900 320" width="900" height="320"><path d="M5.37 7.78 L897.69 6.54 L892.82 317.11 L7.96 311.65" fill="#faf7ef" stroke="none"/><path d="M4.79 6.38 C330.92 10.46, 653.46 12.10, 894.52 3.77 M4.84 5.71 C273.93 -2.26, 541.01 -1.94, 894.39 5.63 M892.37 7.40 C889.41 109.93, 892.80 213.74, 897.45 313.36 M895.86 6.01 C895.11 83.34, 894.15 164.62, 896.02 314.38 M893.85 315.39 C613.77 309.80, 333.05 309.35, 4.17 314.93 M895.71 315.23 C579.98 307.92, 263.48 308.99, 5.00 314.61 M6.08 313.88 C0.25 212.10, 3.84 107.78, 6.87 7.64 M6.41 315.57 C7.15 198.62, 5.09 84.61, 6.43 5.19" fill="none" stroke="#202020" stroke-width="2" stroke-linecap="round" stroke-linejoin="round"/><path d="M448.34 141.97 L461.06 161.34 L450.35 175.73 L434.72 162.57" fill="#faf7ef" stroke="none"/><path d="M446.32 148.54 C453.35 151.98, 459.36 153.75, 458.18 159.06 M449.57 145.34 C454.12 149.69, 456.36 152.91, 460.35 159.70 M464.27 161.96 C456.13 163.32, 456.39 167.54, 449.26 173.92 M460.92 158.61 C459.63 162.68, 456.71 169.65, 449.49 173.84 M451.04 175.79 C445.42 167.84, 442.24 164.96, 434.45 161.07 M451.82 174.72 C446.86 169.60, 442.49 166.19, 438.08 158.65 M437.91 159.15 C442.46 155.03, 448.21 146.74, 449.88 148.71 M437.94 161.37 C439.74 156.31, 443.29 150.36, 449.12 146.22" fill="none" stroke="#202020" stroke-width="2" stroke-linecap="round" stroke-linejoin="round"/></svg>