<svg xmlns="http://www.w3.org/2000/svg" viewBox="0 0 900 320" width="900" height="320"><path d="M451.30 14.32 C547.64 54.55, 648.50 84.73, 884.34 158.76 M450.84 15.75 C615.44 71.77, 783.16 126.46, 883.69 160.87 M884.53 161.47 C762.08 195.24, 639.11 238.87, 451.70 302.93 M884.47 159.88 C722.51 209.86, 560.80 263.54, 449.50 303.18 M450.73 302.47 C315.13 255.41, 181.00 212.11, 15.96 160.64 M450.35 304.75 C310.56 258.36, 172.09 212.36, 16.82 160.17 M17.19 161.81 C159.88 113.43, 308.18 66.01, 450.68 15.42 M15.11 159.69 C138.24 121.32, 260.68 82.10, 450.08 16.54" fill="none" stroke="#202020" stroke-width="2" stroke-linecap="round" stroke-linejoin="round"/><path d="M29.12 157.21 C31.89 164.17, 34.53 159.44, 50.59 157.39 M26.79 159.16 C30.70 160.02, 38.56 162.22, 49.19 161.32" fill="none" stroke="#202020" stroke-width="2" stroke-linecap="round" stroke-linejoin="round"/><path d="M852.09 160.84 C859.09 158.35, 860.32 157.22, 873.39 160.80 M850.07 159.48 C858.69 158.35, 867.49 161.27, 875.57 159.98" fill="none" stroke="#202020" stroke-width="2" stroke-linecap="round" stroke-linejoin="round"/><path d="M44.42 154.96 C46.81 156.64, 48.24 159.40, 51.49 160.17 M43.58 154.19 C45.93 157.63, 49.27 159.31, 50.97 159.61 M51.36 160.22 C49.79 162.67, 46.02 162.94, 44.36 166.66 M50.86 160.86 C47.62 161.11, 46.50 164.23, 44.40 164.52" fill="none" stroke="#202020" stroke-width="2" stroke-linecap="round" stroke-linejoin="round"/><path d="M857.19 155.57 C854.39 156.97, 852.81 159.18, 850.45 160.19 M855.56 155.11 C855.03 156.80, 851.71 157.01, 848.50 160.35 M849.76 158.44 C850.71 162.38, 853.71 162.89, 854.98 166.46 M849.30 160.11 C850.94 161.65, 854.02 163.75, 855.57 165.27" fill="none" stroke="#202020" stroke-width="2" stroke-linecap="round" stroke-linejoin="round"/></svg>