<svg xmlns="http://www.w3.org/2000/svg" viewBox="0 0 436 310" width="436" height="310"><path d="M134.58 78.38 C141.43 68.36, 154.12 59.51, 164.71 53.73 C175.29 47.94, 185.97 44.81, 198.10 43.69 C210.22 42.56, 225.62 43.49, 237.45 46.98 C249.29 50.47, 259.14 57.24, 269.10 64.63 C279.05 72.03, 290.18 80.98, 297.18 91.35 C304.18 101.71, 308.99 114.69, 311.11 126.81 C313.22 138.94, 312.10 151.91, 309.86 164.10 C307.62 176.30, 304.21 189.12, 297.65 199.99 C291.10 210.86, 280.08 221.63, 270.54 229.30 C261.00 236.97, 251.75 242.57, 240.41 245.99 C229.06 249.41, 214.51 251.01, 202.46 249.83 C190.42 248.65, 179.09 244.09, 168.11 238.92 C157.14 233.74, 145.41 227.83, 136.61 218.76 C127.81 209.69, 119.89 196.44, 115.29 184.51 C110.69 172.58, 108.92 159.30, 109.00 147.20 C109.08 135.10, 110.33 124.41, 115.77 111.89 C121.21 99.37, 136.08 79.28, 141.67 72.10 C147.25 64.91, 148.25 67.47, 149.29 68.79 M273.42 63.73 C284.14 69.82, 291.88 81.65, 297.64 92.54 C303.40 103.43, 306.13 116.58, 307.98 129.06 C309.82 141.55, 310.83 155.32, 308.71 167.45 C306.58 179.58, 301.87 191.90, 295.22 201.87 C288.58 211.84, 278.14 219.67, 268.84 227.27 C259.54 234.88, 251.05 244.11, 239.42 247.50 C227.79 250.89, 211.93 249.37, 199.03 247.62 C186.13 245.87, 172.49 242.45, 161.99 237.00 C151.50 231.56, 144.22 223.62, 136.05 214.98 C127.88 206.33, 117.05 196.01, 112.96 185.15 C108.87 174.29, 111.03 162.33, 111.52 149.81 C112.01 137.29, 112.41 122.57, 115.90 110.02 C119.38 97.47, 124.46 84.26, 132.41 74.51 C140.37 64.76, 152.04 56.36, 163.62 51.52 C175.21 46.69, 189.05 46.06, 201.90 45.50 C214.75 44.94, 229.40 45.22, 240.71 48.15 C252.03 51.09, 264.45 59.69, 269.80 63.09 C275.15 66.49, 273.60 66.66, 272.82 68.55" fill="#faf7ef" stroke="none"/><path d="M195.70 42.95 C206.84 39.45, 220.88 43.14, 232.49 46.09 C244.11 49.05, 255.58 54.14, 265.39 60.66 C275.21 67.18, 284.38 74.92, 291.39 85.22 C298.40 95.52, 304.21 110.38, 307.48 122.46 C310.75 134.54, 312.12 145.74, 311.02 157.69 C309.92 169.64, 306.62 182.57, 300.85 194.15 C295.09 205.74, 285.81 218.52, 276.43 227.20 C267.06 235.88, 256.09 242.65, 244.60 246.22 C233.11 249.78, 219.58 249.53, 207.48 248.62 C195.38 247.71, 183.60 245.41, 172.00 240.76 C160.40 236.11, 146.70 228.91, 137.88 220.74 C129.05 212.56, 124.04 202.63, 119.05 191.69 C114.06 180.75, 109.02 167.89, 107.95 155.09 C106.88 142.29, 108.60 127.25, 112.64 114.90 C116.69 102.56, 124.50 90.84, 132.23 81.02 C139.95 71.19, 142.63 61.87, 158.99 55.95 C175.35 50.03, 212.68 44.23, 230.38 45.48 C248.08 46.73, 265.26 61.88, 265.21 63.45 M191.12 45.41 C202.69 41.58, 216.69 40.44, 229.21 42.72 C241.73 45.01, 255.55 51.83, 266.25 59.11 C276.95 66.39, 286.68 75.97, 293.41 86.39 C300.15 96.82, 303.91 109.67, 306.66 121.65 C309.41 133.63, 311.10 146.40, 309.91 158.27 C308.71 170.13, 304.54 182.15, 299.48 192.83 C294.42 203.51, 288.31 213.39, 279.53 222.33 C270.76 231.27, 258.96 242.27, 246.86 246.50 C234.76 250.73, 219.43 248.16, 206.93 247.71 C194.42 247.26, 182.57 248.22, 171.83 243.79 C161.09 239.35, 151.16 229.50, 142.51 221.09 C133.86 212.69, 125.68 204.13, 119.92 193.37 C114.16 182.61, 109.24 169.51, 107.95 156.53 C106.66 143.54, 108.49 127.31, 112.17 115.47 C115.85 103.62, 122.33 94.54, 130.03 85.47 C137.74 76.41, 148.51 67.69, 158.40 61.08 C168.29 54.48, 184.19 48.04, 189.38 45.83 C194.58 43.61, 188.54 46.55, 189.57 47.80" fill="none" stroke="#202020" stroke-width="3" stroke-linecap="round" stroke-linejoin="round"/><path d="M210.43 50.09 C210.54 48.99, 209.33 46.51, 209.99 46.48 M210.16 49.98 C210.16 49.01, 209.75 48.11, 210.05 46.38" fill="none" stroke="#202020" stroke-width="3" stroke-linecap="round" stroke-linejoin="round"/><path d="M258.30 62.66 C258.32 61.78, 258.79 61.65, 259.86 59.86 M258.24 63.40 C259.44 62.22, 259.62 60.33, 260.73 59.72" fill="none" stroke="#202020" stroke-width="3" stroke-linecap="round" stroke-linejoin="round"/><path d="M293.31 98.98 C294.86 97.64, 296.03 97.47, 296.66 97.30 M293.61 98.48 C295.54 97.88, 296.57 96.87, 297.63 96.30" fill="none" stroke="#202020" stroke-width="3" stroke-linecap="round" stroke-linejoin="round"/><path d="M307.36 147.33 C308.65 146.33, 309.14 147.14, 311.21 146.63 M307.04 147.05 C308.12 147.32, 309.86 147.28, 311.26 147.34" fill="none" stroke="#202020" stroke-width="3" stroke-linecap="round" stroke-linejoin="round"/><path d="M293.89 195.05 C294.98 196.63, 296.68 196.15, 297.15 197.63 M294.25 195.39 C295.10 196.03, 295.60 196.20, 297.58 197.37" fill="none" stroke="#202020" stroke-width="3" stroke-linecap="round" stroke-linejoin="round"/><path d="M259.14 230.56 C258.45 232.93, 259.60 233.27, 260.14 233.93 M258.48 230.53 C258.61 231.71, 259.67 232.49, 260.29 234.77" fill="none" stroke="#202020" stroke-width="3" stroke-linecap="round" stroke-linejoin="round"/><path d="M209.90 243.56 C210.25 244.76, 210.02 245.71, 209.89 247.18 M209.96 243.95 C209.87 245.44, 210.29 246.31, 210.17 247.79" fill="none" stroke="#202020" stroke-width="3" stroke-linecap="round" stroke-linejoin="round"/><path d="M161.21 231.50 C161.40 231.96, 160.59 232.48, 160.02 234.98 M161.30 230.58 C161.20 231.88, 160.80 232.65, 159.76 234.69" fill="none" stroke="#202020" stroke-width="3" stroke-linecap="round" stroke-linejoin="round"/><path d="M126.63 196.11 C125.30 196.47, 124.52 196.23, 122.72 197.64 M125.77 195.15 C125.29 195.71, 124.20 196.45, 122.93 197.33" fill="none" stroke="#202020" stroke-width="3" stroke-linecap="round" stroke-linejoin="round"/><path d="M113.18 146.24 C112.42 147.06, 111.04 147.44, 109.32 146.60 M113.44 146.85 C111.76 146.56, 110.26 146.63, 109.45 147.12" fill="none" stroke="#202020" stroke-width="3" stroke-linecap="round" stroke-linejoin="round"/><path d="M126.51 98.44 C124.87 98.50, 124.76 97.22, 122.70 97.01 M125.89 98.81 C125.00 98.23, 123.35 97.30, 122.26 96.60" fill="none" stroke="#202020" stroke-width="3" stroke-linecap="round" stroke-linejoin="round"/><path d="M162.33 63.83 C160.44 61.52, 160.00 60.30, 159.94 60.40 M161.86 62.84 C160.90 61.37, 159.90 60.59, 159.42 59.70" fill="none" stroke="#202020" stroke-width="3" stroke-linecap="round" stroke-linejoin="round"/><path d="M206.22 147.51 C223.02 163.69, 232.81 177.07, 243.04 199.08 M211.29 147.58 C220.95 163.76, 234.14 181.60, 246.12 197.10" fill="none" stroke="#202020" stroke-width="3" stroke-linecap="round" stroke-linejoin="round"/></svg>