<svg xmlns="http://www.w3.org/2000/svg" viewBox="0 0 436 310" width="436" height="310"><path d="M138.74 82.56 C144.45 73.34, 156.98 66.27, 167.11 60.90 C177.24 55.52, 188.42 51.26, 199.51 50.33 C210.60 49.40, 222.89 52.22, 233.65 55.31 C244.41 58.40, 254.77 62.20, 264.07 68.86 C273.38 75.52, 283.54 85.36, 289.49 95.25 C295.44 105.15, 297.65 116.75, 299.75 128.21 C301.85 139.67, 303.41 152.86, 302.10 164.02 C300.78 175.18, 297.40 185.12, 291.85 195.15 C286.29 205.17, 278.07 217.17, 268.77 224.18 C259.47 231.19, 247.04 234.11, 236.04 237.21 C225.04 240.31, 213.73 243.66, 202.76 242.77 C191.79 241.87, 180.34 237.02, 170.23 231.85 C160.13 226.68, 149.93 219.77, 142.13 211.76 C134.32 203.75, 127.82 194.05, 123.38 183.78 C118.94 173.50, 115.91 161.58, 115.49 150.09 C115.08 138.61, 112.24 129.55, 120.91 114.88 C129.57 100.20, 153.70 72.40, 167.49 62.03 C181.29 51.67, 203.07 51.64, 203.68 52.70 M223.42 49.15 C233.46 48.20, 241.53 53.44, 251.27 59.64 C261.00 65.84, 274.46 76.93, 281.85 86.35 C289.24 95.77, 292.49 105.70, 295.60 116.17 C298.72 126.65, 300.17 137.64, 300.55 149.20 C300.93 160.75, 302.15 174.60, 297.89 185.50 C293.63 196.41, 283.36 206.99, 274.99 214.62 C266.62 222.25, 257.47 226.69, 247.67 231.27 C237.88 235.85, 227.14 240.68, 216.23 242.11 C205.32 243.55, 192.68 242.97, 182.20 239.87 C171.71 236.77, 161.76 230.50, 153.30 223.52 C144.85 216.55, 137.30 207.72, 131.46 198.02 C125.61 188.32, 120.35 176.63, 118.23 165.32 C116.12 154.02, 116.42 141.74, 118.78 130.21 C121.14 118.68, 126.05 106.70, 132.37 96.12 C138.68 85.54, 147.83 73.34, 156.67 66.73 C165.51 60.12, 175.15 58.55, 185.40 56.46 C195.64 54.37, 212.80 54.24, 218.15 54.20 C223.49 54.15, 216.79 55.30, 217.49 56.22" fill="#faf7ef" stroke="none"/><path d="M271.89 76.31 C280.52 83.06, 286.44 95.42, 291.86 105.83 C297.29 116.24, 303.37 127.88, 304.44 138.76 C305.50 149.64, 301.31 160.23, 298.26 171.12 C295.22 182.02, 292.45 194.51, 286.17 204.14 C279.89 213.77, 270.25 222.93, 260.57 228.89 C250.88 234.86, 239.53 237.79, 228.07 239.92 C216.61 242.05, 203.27 243.92, 191.82 241.70 C180.38 239.47, 168.96 232.42, 159.40 226.56 C149.85 220.70, 140.77 215.43, 134.49 206.54 C128.21 197.66, 124.95 184.35, 121.70 173.25 C118.45 162.16, 114.49 151.65, 114.99 139.96 C115.50 128.28, 119.55 113.42, 124.75 103.14 C129.96 92.85, 137.61 85.57, 146.22 78.26 C154.84 70.96, 165.87 63.50, 176.44 59.32 C187.01 55.13, 198.77 53.62, 209.64 53.13 C220.51 52.64, 229.07 50.34, 241.66 56.39 C254.24 62.43, 276.66 81.10, 285.13 89.39 C293.61 97.68, 293.57 105.10, 292.50 106.13 M268.36 73.79 C277.63 79.10, 285.85 86.35, 291.69 95.24 C297.54 104.13, 302.11 115.55, 303.41 127.11 C304.71 138.67, 301.44 153.26, 299.47 164.59 C297.51 175.92, 296.93 185.66, 291.61 195.09 C286.28 204.51, 277.33 213.30, 267.51 221.14 C257.70 228.98, 243.42 238.59, 232.73 242.12 C222.04 245.66, 214.57 244.12, 203.37 242.35 C192.18 240.57, 175.70 237.15, 165.57 231.47 C155.45 225.78, 149.72 216.73, 142.62 208.22 C135.53 199.70, 126.96 191.11, 123.00 180.37 C119.04 169.63, 118.59 155.52, 118.88 143.77 C119.16 132.02, 120.80 120.24, 124.71 109.87 C128.62 99.50, 135.21 89.95, 142.34 81.53 C149.47 73.12, 157.36 64.04, 167.48 59.36 C177.60 54.69, 191.61 54.37, 203.07 53.46 C214.53 52.56, 225.52 50.85, 236.23 53.93 C246.94 57.01, 261.97 69.36, 267.33 71.96 C272.69 74.56, 268.99 68.81, 268.41 69.53" fill="none" stroke="#202020" stroke-width="3" stroke-linecap="round" stroke-linejoin="round"/><path d="M210.58 50.09 C209.87 48.57, 210.21 48.90, 209.54 45.59 M210.04 49.97 C210.35 48.53, 209.58 47.31, 210.39 45.81" fill="none" stroke="#202020" stroke-width="3" stroke-linecap="round" stroke-linejoin="round"/><path d="M258.84 62.68 C259.48 62.75, 260.15 60.66, 260.46 59.13 M258.26 63.15 C258.81 62.69, 259.51 61.77, 260.25 60.01" fill="none" stroke="#202020" stroke-width="3" stroke-linecap="round" stroke-linejoin="round"/><path d="M294.70 97.95 C294.32 98.27, 294.77 98.36, 298.01 95.81 M293.79 98.60 C295.14 98.05, 296.42 97.44, 297.56 96.89" fill="none" stroke="#202020" stroke-width="3" stroke-linecap="round" stroke-linejoin="round"/><path d="M306.36 147.05 C307.69 147.26, 310.59 147.06, 311.44 147.23 M307.21 146.73 C307.35 146.90, 308.28 146.69, 310.54 146.88" fill="none" stroke="#202020" stroke-width="3" stroke-linecap="round" stroke-linejoin="round"/><path d="M294.12 195.76 C295.64 195.62, 297.16 197.16, 297.40 197.86 M294.24 195.35 C294.93 196.34, 296.35 196.44, 297.17 197.52" fill="none" stroke="#202020" stroke-width="3" stroke-linecap="round" stroke-linejoin="round"/><path d="M258.00 230.44 C258.81 231.66, 259.41 233.45, 260.49 234.13 M258.24 231.03 C258.89 232.43, 260.09 233.81, 260.43 234.75" fill="none" stroke="#202020" stroke-width="3" stroke-linecap="round" stroke-linejoin="round"/><path d="M210.48 243.44 C209.77 245.63, 210.43 246.30, 209.68 248.53 M209.68 243.70 C209.73 245.20, 209.72 245.92, 209.91 248.23" fill="none" stroke="#202020" stroke-width="3" stroke-linecap="round" stroke-linejoin="round"/><path d="M162.15 231.02 C161.54 232.46, 160.12 232.24, 160.15 233.61 M161.80 230.88 C161.32 232.10, 160.28 233.05, 159.48 234.37" fill="none" stroke="#202020" stroke-width="3" stroke-linecap="round" stroke-linejoin="round"/><path d="M125.87 195.05 C124.52 195.75, 123.56 197.09, 123.33 198.25 M126.12 195.44 C124.52 196.03, 123.31 196.64, 122.24 197.65" fill="none" stroke="#202020" stroke-width="3" stroke-linecap="round" stroke-linejoin="round"/><path d="M113.68 147.01 C111.87 146.99, 109.88 147.00, 109.77 146.31 M113.20 146.68 C112.35 147.33, 110.93 147.12, 109.30 146.80" fill="none" stroke="#202020" stroke-width="3" stroke-linecap="round" stroke-linejoin="round"/><path d="M125.32 98.68 C125.77 98.59, 125.08 98.19, 122.11 96.88 M126.06 98.37 C124.70 97.58, 123.24 97.36, 122.36 96.50" fill="none" stroke="#202020" stroke-width="3" stroke-linecap="round" stroke-linejoin="round"/><path d="M161.41 62.50 C161.53 62.58, 160.57 61.26, 160.29 60.23 M161.55 63.18 C161.33 61.82, 160.66 61.18, 159.84 59.84" fill="none" stroke="#202020" stroke-width="3" stroke-linecap="round" stroke-linejoin="round"/><path d="M210.23 143.14 C223.07 165.41, 230.01 177.68, 249.77 195.25 M209.43 147.66 C223.76 164.61, 236.28 182.84, 247.98 196.44" fill="none" stroke="#202020" stroke-width="3" stroke-linecap="round" stroke-linejoin="round"/></svg>