<svg xmlns="http://www.w3.org/2000/svg" viewBox="0 0 436 310" width="436" height="310"><path d="M147.32 120.11 C147.32 120.11, 147.32 120.11, 147.32 120.11 M147.32 120.11 C147.32 120.11, 147.32 120.11, 147.32 120.11 M142.05 132.59 C149.04 125.70, 159.15 116.45, 164.80 105.91 M145.03 129.84 C149.32 123.11, 156.64 114.76, 165.13 105.62 M139.95 141.39 C150.75 127.34, 161.41 114.05, 178.23 96.71 M138.79 142.29 C155.09 120.75, 171.56 104.33, 180.41 95.42 M136.20 149.93 C153.29 136.14, 164.67 114.16, 188.38 98.14 M135.11 149.17 C150.00 138.21, 161.64 121.55, 186.65 95.98 M138.94 153.53 C160.50 130.04, 175.46 111.99, 188.84 90.51 M138.19 156.58 C154.51 136.39, 171.07 117.72, 190.89 94.08 M135.73 161.07 C161.15 135.18, 178.97 114.46, 196.16 89.96 M134.91 163.79 C156.16 139.25, 179.17 113.92, 197.65 92.52 M135.17 172.39 C149.90 148.63, 160.88 138.05, 206.26 87.39 M137.17 167.73 C152.99 152.03, 169.70 133.68, 206.70 90.13 M136.03 176.74 C166.41 146.96, 189.21 115.21, 211.12 92.57 M134.10 176.56 C149.85 156.66, 166.34 141.95, 209.37 89.70 M132.72 183.12 C156.82 160.19, 179.41 137.10, 216.86 88.79 M137.61 180.14 C161.40 149.60, 192.08 118.02, 213.44 91.44 M138.95 187.80 C166.74 152.75, 201.09 118.53, 221.72 91.15 M136.55 184.82 C169.13 150.92, 199.64 114.32, 220.18 91.76 M141.28 186.95 C173.44 151.80, 204.61 110.69, 226.45 92.88 M142.63 187.73 C169.88 156.76, 198.44 123.97, 224.91 93.68 M142.99 190.24 C175.16 164.06, 197.94 130.18, 226.79 95.93 M141.44 193.99 C168.27 164.55, 191.32 134.98, 231.20 90.63 M145.97 192.15 C172.94 167.88, 194.74 148.54, 232.35 91.04 M146.30 193.59 C171.92 163.46, 199.97 132.32, 233.07 92.14 M151.31 202.73 C180.67 163.03, 209.64 132.91, 240.25 93.08 M149.50 198.53 C176.58 165.91, 201.64 138.65, 240.15 92.15 M151.93 201.91 C187.53 157.34, 224.74 113.96, 238.75 93.73 M151.20 201.02 C176.53 172.74, 203.28 146.51, 242.83 94.72 M150.47 209.28 C184.04 168.43, 220.45 124.98, 247.51 96.44 M150.36 208.08 C184.76 170.01, 215.71 138.10, 246.20 100.00 M157.89 209.69 C179.71 179.03, 204.80 146.28, 250.71 98.50 M152.67 209.66 C187.26 174.95, 214.88 138.94, 250.11 102.66 M154.48 210.56 C193.05 169.98, 234.24 129.97, 253.31 102.90 M155.55 214.24 C178.61 191.21, 197.93 168.15, 252.62 101.00 M159.49 216.62 C186.76 184.85, 215.73 146.91, 252.38 108.08 M158.36 215.55 C188.08 185.37, 217.55 151.26, 257.27 106.90 M166.56 218.83 C183.95 192.06, 212.32 160.52, 255.77 111.41 M163.42 217.04 C186.13 189.57, 205.91 165.90, 259.71 107.99 M166.38 219.72 C201.89 177.04, 239.46 143.61, 263.80 113.93 M168.12 218.78 C202.24 175.78, 237.51 134.29, 261.53 111.57 M169.16 219.84 C205.13 186.20, 234.48 148.94, 262.46 110.58 M168.77 219.38 C196.20 187.82, 228.14 156.91, 264.35 114.02 M175.44 226.90 C205.60 192.94, 233.88 151.98, 270.56 115.84 M173.82 223.95 C195.09 201.40, 216.55 173.30, 266.87 114.37 M181.27 228.88 C206.54 193.03, 232.97 162.21, 272.84 120.11 M175.52 224.34 C197.61 202.09, 219.14 179.99, 270.74 120.10 M176.85 229.48 C212.62 186.73, 247.46 148.79, 273.03 126.29 M178.76 229.87 C214.59 190.65, 244.56 155.13, 270.11 122.56 M183.15 233.23 C203.64 210.11, 222.23 187.43, 274.14 130.73 M183.08 230.38 C208.06 201.15, 233.50 174.47, 273.69 128.11 M186.72 230.18 C214.30 202.43, 242.02 171.97, 273.47 131.49 M188.54 232.58 C219.56 194.70, 252.63 154.89, 275.43 128.38 M191.65 228.22 C220.85 199.63, 244.56 170.78, 278.99 132.94 M195.59 232.52 C219.68 200.48, 245.20 172.89, 279.89 132.21 M200.11 233.38 C229.06 203.21, 248.83 171.04, 280.47 140.33 M196.62 231.61 C220.96 206.67, 241.65 180.68, 281.05 135.15 M199.47 230.95 C227.65 203.32, 255.54 177.50, 279.14 139.47 M204.67 234.14 C231.37 203.29, 253.81 175.44, 281.69 141.39 M207.37 234.93 C225.63 212.66, 242.58 189.50, 283.17 144.84 M206.43 232.70 C231.49 211.50, 251.10 185.58, 282.86 145.24 M209.08 233.53 C236.46 214.48, 254.74 187.94, 287.15 151.65 M213.52 233.36 C239.41 204.52, 266.61 171.11, 282.75 152.07 M213.37 237.05 C240.56 202.29, 266.75 173.15, 280.64 158.43 M215.75 233.85 C242.12 204.71, 270.13 173.23, 283.98 158.94 M223.62 234.92 C238.36 221.92, 249.46 201.02, 282.54 166.46 M222.72 234.12 C247.34 206.08, 274.20 176.81, 285.80 162.50 M234.74 233.21 C244.14 219.29, 261.09 197.63, 280.79 167.76 M229.50 231.01 C249.75 208.34, 268.87 185.15, 285.42 170.14 M237.44 225.99 C257.49 212.17, 269.48 190.60, 285.85 175.26 M238.76 228.53 C254.83 209.93, 269.34 193.34, 283.28 175.03 M243.44 222.86 C260.17 215.44, 269.95 200.15, 281.45 186.30 M244.26 227.40 C256.08 215.98, 263.32 205.92, 277.91 186.33 M266.51 207.42 C266.87 207.59, 272.74 202.28, 275.77 198.64 M264.76 210.35 C268.31 205.62, 269.64 203.47, 273.82 199.44" fill="#faf7ef" stroke="none"/><path d="M265.80 113.75 C273.59 120.40, 281.46 133.07, 284.43 143.45 C287.40 153.82, 285.70 165.95, 283.63 176.01 C281.56 186.07, 278.36 195.43, 271.99 203.81 C265.62 212.20, 254.77 221.11, 245.42 226.33 C236.07 231.55, 226.39 234.67, 215.89 235.12 C205.39 235.58, 192.58 233.07, 182.42 229.05 C172.27 225.03, 162.83 219.14, 154.97 211.01 C147.11 202.87, 138.31 190.20, 135.25 180.25 C132.20 170.29, 134.67 161.26, 136.65 151.28 C138.62 141.30, 140.65 129.44, 147.10 120.37 C153.54 111.29, 165.68 101.84, 175.32 96.83 C184.95 91.83, 194.14 90.93, 204.90 90.34 C215.66 89.75, 226.93 84.40, 239.88 93.29 C252.82 102.19, 275.71 129.21, 282.59 143.69 C289.46 158.17, 282.44 179.78, 281.12 180.18 M167.95 103.85 C175.92 97.36, 190.46 92.82, 201.55 90.94 C212.63 89.06, 224.32 89.64, 234.46 92.59 C244.60 95.54, 254.80 101.09, 262.38 108.65 C269.95 116.20, 276.08 127.58, 279.93 137.92 C283.77 148.26, 285.90 160.49, 285.45 170.67 C285.00 180.84, 282.71 190.14, 277.21 198.96 C271.72 207.77, 262.33 218.05, 252.49 223.56 C242.64 229.07, 229.19 230.69, 218.14 232.02 C207.08 233.35, 196.50 234.47, 186.14 231.56 C175.78 228.64, 164.14 222.26, 155.98 214.54 C147.82 206.82, 141.12 195.07, 137.18 185.22 C133.24 175.36, 130.85 165.55, 132.33 155.39 C133.80 145.24, 139.76 133.62, 146.01 124.27 C152.26 114.93, 165.80 103.25, 169.84 99.32 C173.88 95.38, 169.39 99.08, 170.24 100.65" fill="none" stroke="#202020" stroke-width="3" stroke-linecap="round" stroke-linejoin="round"/><path d="M134.86 93.38 C134.86 93.38, 134.86 93.38, 134.86 93.38 M134.86 93.38 C134.86 93.38, 134.86 93.38, 134.86 93.38 M112.84 127.11 C123.93 108.84, 139.05 89.10, 149.98 81.44 M113.03 124.52 C119.99 118.47, 128.59 107.42, 147.28 83.54 M107.93 135.93 C126.43 107.34, 147.73 84.63, 162.96 76.90 M110.77 133.89 C129.04 116.61, 144.09 96.73, 161.98 74.35 M105.08 140.92 C127.68 129.50, 136.12 111.63, 167.04 73.63 M106.50 142.69 C130.05 118.84, 150.43 94.28, 167.22 74.24 M102.65 149.81 C125.27 129.20, 144.20 107.17, 173.79 72.49 M105.48 148.69 C130.94 122.68, 152.60 94.89, 177.14 73.17 M101.24 159.81 C132.58 125.46, 158.67 92.41, 178.19 74.25 M102.51 159.65 C127.89 130.53, 151.73 100.23, 182.19 72.10 M101.22 166.22 C125.15 137.43, 142.04 120.25, 191.55 68.51 M103.75 164.89 C132.69 128.07, 165.99 95.58, 187.72 67.09 M102.56 170.26 C140.88 129.38, 170.85 92.59, 194.93 64.49 M106.78 171.10 C127.90 143.54, 147.45 117.53, 194.35 66.07 M104.80 171.98 C127.06 147.86, 148.32 117.81, 199.18 63.40 M106.08 173.80 C132.83 148.28, 158.73 116.30, 204.71 65.08 M107.39 182.33 C144.19 141.92, 173.97 103.72, 206.55 60.89 M108.77 179.75 C145.49 133.60, 187.38 85.84, 209.07 62.97 M107.18 188.24 C136.63 151.00, 173.51 115.39, 211.04 66.59 M105.37 187.82 C141.01 139.68, 179.94 100.45, 213.22 65.39 M111.81 190.03 C136.91 162.06, 161.33 125.06, 220.11 64.23 M107.28 190.13 C141.25 152.84, 173.93 117.73, 219.72 64.20 M105.92 198.37 C137.77 162.31, 163.45 133.26, 218.97 67.91 M110.81 195.32 C141.83 157.46, 175.42 121.14, 220.67 67.04 M109.03 195.49 C150.30 150.51, 191.47 108.98, 228.53 65.10 M113.54 199.76 C138.89 167.94, 166.98 137.66, 225.34 67.91 M111.17 206.57 C137.44 175.37, 161.32 143.17, 231.20 65.02 M115.22 203.04 C147.16 164.87, 178.20 128.06, 234.03 68.07 M112.89 207.56 C161.74 155.52, 209.13 96.79, 238.50 67.33 M116.50 206.79 C156.68 162.44, 193.42 121.86, 235.78 65.89 M120.32 209.54 C163.85 159.49, 202.03 108.42, 240.93 68.05 M117.86 210.83 C147.31 178.96, 177.22 143.38, 242.50 68.37 M124.51 213.72 C167.32 162.70, 214.37 116.26, 244.19 69.46 M121.48 211.83 C163.63 164.12, 205.80 113.46, 243.91 69.57 M124.89 213.26 C152.37 184.49, 179.47 155.96, 247.51 71.15 M125.42 216.65 C171.32 163.68, 215.53 110.82, 248.86 71.36 M128.49 218.66 C168.82 173.94, 219.49 122.07, 253.68 74.37 M127.79 217.55 C163.63 173.20, 202.13 129.52, 254.99 71.60 M126.83 222.19 C168.03 178.48, 204.44 129.47, 259.39 72.46 M128.32 221.35 C164.42 177.37, 204.54 132.41, 257.93 76.38 M130.45 224.42 C173.77 177.27, 217.16 128.50, 261.46 73.54 M129.36 227.18 C180.33 170.74, 228.41 110.90, 259.63 78.03 M131.05 228.52 C167.13 188.24, 203.57 148.63, 267.39 80.20 M134.67 229.73 C171.84 183.07, 212.32 136.91, 263.04 80.06 M138.97 229.86 C175.69 189.11, 220.35 143.78, 265.81 79.18 M137.46 230.05 C185.37 174.86, 233.95 117.86, 266.53 82.77 M141.85 236.45 C165.55 199.25, 193.91 168.40, 267.05 84.83 M139.79 232.69 C185.94 181.71, 232.75 132.61, 269.43 85.00 M143.73 233.77 C176.42 194.31, 208.00 154.43, 275.49 88.00 M144.64 233.48 C191.71 179.85, 239.52 124.81, 274.18 85.30 M149.80 235.05 C173.97 203.69, 204.10 168.98, 276.34 89.05 M145.90 237.86 C179.15 202.06, 212.81 166.70, 279.73 87.47 M154.75 236.38 C180.51 203.75, 214.08 162.73, 280.97 90.90 M152.16 241.18 C187.86 198.90, 225.14 158.88, 282.34 89.44 M154.71 239.64 C201.64 184.62, 249.16 134.05, 286.68 94.65 M154.44 242.22 C190.95 203.86, 227.50 157.85, 283.54 93.04 M153.32 248.26 C182.50 215.16, 209.29 182.86, 284.33 94.02 M155.33 244.29 C190.86 201.52, 233.30 158.27, 286.93 93.12 M163.76 247.17 C209.56 196.90, 250.19 140.98, 291.54 97.20 M162.35 248.19 C201.51 203.09, 239.14 161.81, 291.44 98.02 M166.41 250.90 C202.29 200.84, 241.55 160.84, 290.62 103.41 M164.61 248.95 C209.26 195.76, 254.22 143.77, 293.22 101.45 M165.65 252.34 C213.26 187.71, 267.79 135.79, 294.96 104.13 M166.78 250.59 C212.11 199.75, 256.37 148.68, 296.73 105.48 M171.67 253.87 C198.98 216.06, 235.22 186.71, 294.39 105.92 M173.71 250.64 C214.35 208.16, 252.44 160.63, 300.00 107.61 M176.15 255.62 C219.28 199.45, 269.98 153.21, 301.35 109.16 M175.46 254.47 C201.30 227.16, 228.50 197.68, 299.78 110.13 M184.57 250.79 C207.56 220.86, 233.23 188.08, 304.41 114.50 M178.86 253.69 C224.27 204.54, 264.43 154.76, 302.44 113.95 M186.46 254.16 C218.21 222.28, 244.05 193.03, 307.06 116.92 M184.24 254.09 C231.40 201.80, 277.85 149.40, 306.59 118.16 M188.63 260.75 C214.85 225.31, 248.20 189.31, 304.29 119.11 M188.39 255.33 C228.07 214.38, 265.51 173.84, 306.57 119.65 M192.75 258.76 C231.75 221.11, 265.32 183.24, 309.37 126.27 M193.25 257.48 C228.20 212.99, 267.66 170.35, 309.10 124.52 M199.82 255.44 C237.83 216.80, 271.20 178.30, 308.59 125.63 M197.76 258.83 C239.08 213.69, 276.61 168.68, 310.98 129.07 M203.50 259.63 C230.05 223.58, 252.10 198.58, 312.51 136.47 M202.50 257.45 C241.37 215.56, 278.77 177.46, 312.20 133.84 M209.33 255.66 C236.37 229.37, 268.62 194.24, 312.31 135.77 M207.47 259.28 C238.30 222.68, 269.99 188.59, 314.50 135.58 M215.45 258.01 C247.99 222.16, 280.33 177.30, 319.49 138.66 M214.58 255.66 C237.18 226.68, 264.44 200.12, 317.00 142.86 M219.75 260.92 C253.67 216.98, 289.43 174.95, 319.78 143.81 M219.86 257.57 C246.98 228.40, 274.82 198.28, 317.57 144.18 M223.75 254.90 C244.93 237.67, 262.54 214.69, 321.62 151.17 M224.72 258.98 C248.66 228.24, 273.98 199.46, 320.07 150.32 M234.29 253.29 C264.44 219.02, 292.25 189.87, 316.70 155.50 M230.41 255.90 C260.44 225.12, 286.43 191.45, 318.63 156.56 M232.80 259.02 C262.93 222.38, 297.31 193.27, 316.87 164.58 M235.87 257.02 C266.43 219.41, 298.01 180.74, 319.71 163.49 M247.79 250.59 C269.95 217.31, 300.87 188.68, 317.51 173.60 M241.98 253.00 C260.10 238.91, 275.63 220.18, 318.16 170.20 M252.62 251.35 C266.23 235.84, 279.34 215.52, 317.15 176.71 M250.19 252.64 C266.73 233.28, 282.68 214.38, 317.95 177.14 M261.04 246.54 C269.61 239.00, 279.76 222.48, 316.43 184.39 M258.83 248.68 C269.65 233.01, 281.59 219.17, 318.77 183.10 M263.66 248.94 C274.54 234.36, 290.09 226.01, 313.55 193.73 M265.45 246.51 C282.04 233.91, 293.88 218.21, 312.32 192.70 M273.52 248.09 C289.54 228.41, 299.91 213.36, 308.80 205.91 M271.22 246.30 C288.35 229.51, 300.45 214.06, 308.61 203.99" fill="#faf7ef" stroke="none"/><path d="M279.34 87.16 C290.02 92.71, 295.18 100.97, 301.67 111.13 C308.16 121.30, 316.07 136.50, 318.30 148.15 C320.53 159.80, 317.82 169.75, 315.06 181.02 C312.30 192.28, 309.13 205.49, 301.73 215.76 C294.34 226.04, 281.91 235.95, 270.71 242.65 C259.50 249.34, 246.70 253.52, 234.50 255.95 C222.29 258.38, 209.77 258.70, 197.48 257.21 C185.19 255.73, 172.03 252.41, 160.73 247.05 C149.44 241.68, 138.49 233.71, 129.69 225.02 C120.90 216.33, 112.57 205.88, 107.96 194.88 C103.36 183.88, 101.80 170.77, 102.06 159.02 C102.32 147.28, 104.09 135.31, 109.52 124.42 C114.94 113.53, 125.06 102.49, 134.61 93.67 C144.16 84.85, 155.56 76.51, 166.84 71.48 C178.12 66.46, 189.43 64.25, 202.28 63.52 C215.12 62.78, 226.55 57.82, 243.92 67.08 C261.30 76.34, 294.31 103.72, 306.53 119.08 C318.75 134.44, 318.75 158.82, 317.24 159.24 M139.13 83.89 C147.16 75.10, 163.38 70.86, 175.99 67.47 C188.60 64.09, 201.41 62.46, 214.81 63.59 C228.20 64.73, 244.89 69.19, 256.36 74.30 C267.83 79.42, 274.87 86.25, 283.62 94.30 C292.37 102.36, 303.05 112.14, 308.88 122.65 C314.71 133.16, 317.81 145.30, 318.59 157.37 C319.37 169.45, 317.56 183.49, 313.57 195.10 C309.57 206.71, 303.67 218.75, 294.62 227.05 C285.57 235.35, 270.90 239.44, 259.26 244.91 C247.62 250.39, 237.04 257.73, 224.78 259.90 C212.52 262.07, 197.99 260.93, 185.69 257.93 C173.40 254.94, 161.78 249.20, 151.03 241.94 C140.28 234.68, 128.88 224.54, 121.19 214.35 C113.51 204.17, 107.83 191.90, 104.92 180.82 C102.01 169.74, 101.93 158.58, 103.72 147.87 C105.51 137.15, 109.86 126.60, 115.64 116.54 C121.42 106.48, 133.59 92.61, 138.39 87.50 C143.19 82.39, 143.27 84.69, 144.46 85.87" fill="none" stroke="#202020" stroke-width="3" stroke-linecap="round" stroke-linejoin="round"/><path d="M177.60 121.86 C183.10 116.45, 194.79 115.14, 202.81 114.18 C210.83 113.21, 218.15 113.19, 225.74 116.07 C233.33 118.95, 242.98 124.95, 248.34 131.45 C253.71 137.95, 257.00 146.84, 257.94 155.07 C258.87 163.29, 257.20 173.57, 253.96 180.81 C250.72 188.06, 244.23 193.28, 238.52 198.53 C232.80 203.79, 227.22 211.03, 219.66 212.37 C212.10 213.71, 200.71 209.70, 193.16 206.59 C185.62 203.48, 179.66 199.90, 174.40 193.71 C169.15 187.52, 163.32 177.99, 161.64 169.47 C159.96 160.94, 157.53 152.11, 164.34 142.54 C171.14 132.97, 191.49 116.62, 202.46 112.04 C213.44 107.45, 230.01 114.36, 230.17 115.02 M247.66 131.66 C252.11 137.05, 255.63 145.40, 256.61 153.59 C257.58 161.78, 256.82 172.54, 253.49 180.80 C250.16 189.05, 242.68 198.43, 236.62 203.13 C230.55 207.83, 225.08 207.80, 217.10 209.00 C209.12 210.19, 196.09 213.44, 188.71 210.30 C181.34 207.16, 177.50 197.30, 172.84 190.15 C168.17 183.01, 161.78 175.63, 160.72 167.44 C159.66 159.25, 163.19 149.12, 166.48 141.02 C169.78 132.91, 174.08 123.98, 180.50 118.79 C186.92 113.60, 197.09 110.17, 205.00 109.87 C212.91 109.56, 221.01 113.38, 227.96 116.96 C234.92 120.54, 243.64 129.05, 246.73 131.35 C249.82 133.66, 246.47 129.77, 246.52 130.79" fill="#faf7ef" stroke="none"/><path d="M213.07 109.77 C220.35 109.45, 227.67 113.28, 234.07 118.03 C240.46 122.78, 247.53 130.46, 251.44 138.26 C255.35 146.06, 257.76 156.42, 257.52 164.83 C257.27 173.25, 254.08 182.08, 249.96 188.74 C245.85 195.40, 239.58 200.67, 232.84 204.79 C226.09 208.91, 217.26 213.47, 209.48 213.46 C201.69 213.45, 192.77 209.43, 186.14 204.72 C179.50 200.02, 173.37 192.54, 169.66 185.24 C165.94 177.93, 163.67 169.20, 163.83 160.90 C164.00 152.59, 166.51 142.98, 170.66 135.40 C174.80 127.83, 178.02 118.12, 188.71 115.46 C199.41 112.80, 224.26 115.87, 234.82 119.42 C245.37 122.96, 252.48 136.22, 252.03 136.71 M222.16 110.31 C229.26 112.21, 237.74 121.70, 243.23 128.44 C248.72 135.19, 252.54 143.11, 255.11 150.79 C257.67 158.46, 260.53 167.11, 258.64 174.47 C256.75 181.83, 249.52 189.25, 243.78 194.95 C238.04 200.65, 231.39 206.01, 224.21 208.68 C217.03 211.36, 208.78 213.02, 200.72 211.00 C192.66 208.97, 181.96 202.68, 175.85 196.54 C169.74 190.39, 165.87 182.12, 164.07 174.12 C162.27 166.12, 163.01 156.75, 165.05 148.56 C167.10 140.37, 171.28 130.47, 176.37 124.99 C181.46 119.51, 188.37 117.33, 195.57 115.66 C202.77 114.00, 215.55 115.10, 219.55 115.00 C223.55 114.91, 219.80 114.41, 219.56 115.10" fill="none" stroke="#202020" stroke-width="3" stroke-linecap="round" stroke-linejoin="round"/><path d="M305.01 68.46 C318.93 53.66, 324.40 49.23, 345.27 27.34 M307.62 65.27 C317.76 51.54, 331.89 37.85, 345.17 27.13" fill="none" stroke="#202020" stroke-width="3" stroke-linecap="round" stroke-linejoin="round"/><path d="M305.99 257.51 C313.47 265.78, 326.40 281.77, 346.94 293.82 M306.48 256.47 C317.55 268.76, 330.45 282.20, 341.89 295.07" fill="none" stroke="#202020" stroke-width="3" stroke-linecap="round" stroke-linejoin="round"/><path d="M111.51 261.82 C104.81 264.98, 94.70 282.93, 79.19 294.28 M115.53 256.88 C98.15 272.98, 86.84 286.85, 75.29 293.36" fill="none" stroke="#202020" stroke-width="3" stroke-linecap="round" stroke-linejoin="round"/><path d="M114.99 62.22 C106.33 58.85, 94.07 50.39, 78.87 24.49 M113.23 67.34 C104.28 52.10, 91.40 43.88, 76.80 30.00" fill="none" stroke="#202020" stroke-width="3" stroke-linecap="round" stroke-linejoin="round"/></svg>