<svg xmlns="http://www.w3.org/2000/svg" viewBox="0 0 436 310" width="436" height="310"><path d="M146.83 118.36 C146.83 118.36, 146.83 118.36, 146.83 118.36 M146.83 118.36 C146.83 118.36, 146.83 118.36, 146.83 118.36 M143.83 132.75 C146.12 122.71, 158.31 115.63, 167.15 100.09 M142.98 129.94 C151.12 118.88, 158.72 111.42, 168.49 99.50 M141.20 143.04 C153.46 124.57, 159.50 112.66, 174.10 92.94 M136.71 139.25 C143.95 132.16, 153.75 122.44, 176.37 96.23 M136.60 152.37 C154.18 129.03, 169.89 104.67, 180.72 94.19 M136.90 150.90 C151.09 134.27, 166.68 115.58, 182.37 95.70 M137.35 152.15 C153.16 126.18, 178.99 107.94, 188.43 90.85 M135.80 156.87 C157.56 133.52, 175.09 110.70, 191.06 91.12 M138.18 159.59 C149.40 149.17, 162.86 126.80, 201.06 92.63 M136.07 163.58 C146.84 149.27, 160.88 134.74, 198.88 90.53 M133.86 165.89 C155.04 148.99, 165.28 132.47, 205.68 89.20 M136.26 168.37 C155.85 143.61, 174.93 121.97, 207.69 86.86 M139.60 170.65 C160.48 146.46, 185.26 113.16, 209.93 85.54 M136.94 172.15 C160.61 148.10, 181.73 121.28, 209.57 88.89 M138.20 177.18 C165.90 143.58, 195.74 113.99, 213.01 90.30 M137.14 177.90 C162.39 152.30, 186.30 123.75, 213.79 88.70 M137.76 186.04 C162.22 159.76, 181.35 130.34, 217.54 90.97 M137.98 184.13 C156.88 160.78, 176.07 139.51, 219.20 90.16 M142.93 186.51 C172.30 151.24, 203.31 113.83, 222.70 86.96 M141.00 188.76 C170.68 153.84, 203.37 114.57, 224.87 89.96 M142.02 190.23 C164.59 171.03, 181.50 145.49, 233.06 94.26 M142.95 191.87 C162.92 165.77, 185.31 142.02, 227.56 91.05 M142.76 194.72 C177.19 153.19, 218.76 109.75, 237.20 89.90 M145.32 195.46 C177.40 155.46, 208.04 122.41, 236.07 89.89 M144.70 197.17 C178.32 163.26, 206.27 136.66, 238.76 94.89 M146.85 198.02 C182.98 157.04, 217.16 119.97, 237.51 91.31 M146.46 204.92 C182.19 162.80, 215.35 119.38, 242.86 96.50 M148.40 201.31 C170.85 178.29, 190.45 151.13, 244.23 93.44 M152.40 207.63 C168.25 182.92, 186.67 159.86, 241.57 97.88 M151.32 203.36 C184.74 162.51, 221.69 124.41, 245.24 95.49 M152.77 210.04 C184.78 177.76, 205.67 152.28, 251.63 101.20 M152.15 209.74 C174.81 181.31, 196.07 156.21, 250.43 98.76 M159.37 208.76 C186.64 179.06, 215.95 142.76, 251.74 98.79 M157.68 211.45 C193.67 169.87, 230.79 128.23, 250.31 99.28 M157.04 218.24 C192.55 176.13, 222.25 138.70, 252.06 99.86 M159.49 215.55 C191.77 175.61, 225.13 135.87, 254.37 102.92 M158.39 220.86 C190.10 185.87, 210.64 154.43, 263.08 105.29 M160.79 216.46 C186.28 188.53, 210.73 158.97, 257.40 104.47 M162.24 219.75 C203.86 177.33, 235.99 137.75, 263.15 103.84 M163.87 218.63 C203.41 175.18, 241.28 133.62, 264.10 107.85 M167.88 222.32 C195.88 183.86, 231.44 149.48, 264.47 110.50 M166.46 221.10 C200.81 182.56, 231.06 145.67, 265.95 107.83 M173.95 228.31 C211.90 180.58, 250.40 136.98, 271.01 110.91 M168.89 227.09 C196.85 199.27, 216.80 174.23, 270.29 112.05 M175.49 229.96 C207.91 193.36, 239.58 152.97, 274.10 118.79 M173.65 226.75 C212.83 184.37, 251.83 141.94, 271.09 114.11 M174.42 226.10 C196.78 202.44, 222.73 173.34, 272.79 117.26 M177.18 230.71 C199.67 203.05, 219.39 178.73, 271.22 120.84 M181.86 234.61 C199.83 206.71, 221.49 179.86, 276.02 121.57 M178.63 231.30 C204.97 202.44, 234.07 169.93, 273.33 124.53 M186.50 231.57 C211.46 209.59, 231.36 176.55, 274.80 124.25 M183.33 234.45 C212.38 201.01, 243.15 167.82, 276.05 128.43 M191.52 236.02 C201.51 211.33, 226.98 188.66, 278.37 133.69 M189.07 234.36 C209.70 210.55, 230.50 186.58, 279.00 132.64 M189.35 232.52 C207.90 210.49, 233.40 188.23, 278.51 135.25 M192.25 236.15 C217.65 208.43, 241.25 179.92, 278.57 136.93 M199.65 238.35 C228.98 206.22, 254.43 173.34, 281.12 136.40 M196.46 235.73 C218.39 212.89, 239.19 186.78, 281.12 137.78 M202.58 237.47 C230.09 207.30, 255.76 174.31, 285.66 147.11 M199.48 237.93 C218.82 218.98, 236.21 199.50, 284.27 145.70 M209.51 238.88 C223.44 218.84, 243.63 190.43, 281.75 146.69 M206.07 238.54 C221.26 222.35, 239.00 205.02, 281.07 150.69 M209.62 242.91 C233.01 218.06, 253.41 190.03, 281.99 155.11 M209.83 240.37 C226.78 221.83, 248.37 200.69, 285.28 155.59 M215.64 243.77 C235.85 221.43, 252.60 206.11, 283.53 164.32 M214.74 239.78 C229.07 224.84, 243.43 207.15, 285.59 162.43 M226.28 234.91 C245.46 212.14, 266.60 186.57, 284.64 170.58 M221.28 238.00 C236.03 223.39, 249.28 205.49, 284.60 167.00 M232.05 233.82 C248.77 214.59, 275.37 188.49, 284.89 176.46 M229.64 235.98 C248.26 216.62, 263.52 198.69, 284.97 171.27 M238.20 231.62 C256.02 217.11, 270.43 199.21, 283.93 183.72 M239.79 229.55 C254.00 218.13, 265.25 202.14, 281.65 185.94 M247.14 230.53 C252.58 222.31, 258.30 210.19, 279.53 194.73 M247.17 226.46 C252.65 221.09, 260.17 213.23, 276.95 192.79" fill="#faf7ef" stroke="none"/><path d="M146.87 118.31 C151.81 108.97, 164.45 100.48, 174.13 94.90 C183.82 89.32, 194.39 85.46, 205.00 84.81 C215.61 84.15, 227.43 86.72, 237.78 90.98 C248.13 95.23, 259.85 102.41, 267.12 110.34 C274.38 118.26, 278.55 128.02, 281.36 138.52 C284.18 149.02, 285.51 162.18, 284.03 173.34 C282.55 184.49, 278.86 196.55, 272.49 205.47 C266.11 214.40, 255.56 221.18, 245.77 226.87 C235.98 232.57, 224.47 238.62, 213.75 239.65 C203.03 240.68, 190.98 237.46, 181.45 233.06 C171.91 228.66, 164.03 221.18, 156.55 213.24 C149.07 205.31, 140.18 196.08, 136.58 185.47 C132.99 174.86, 132.42 161.73, 134.97 149.58 C137.52 137.43, 148.36 119.26, 151.87 112.59 C155.38 105.92, 155.03 108.55, 156.03 109.56 M191.37 85.50 C201.10 81.25, 215.91 82.58, 227.10 84.89 C238.29 87.21, 250.41 92.08, 258.51 99.40 C266.61 106.72, 271.12 118.09, 275.69 128.82 C280.26 139.56, 285.35 152.74, 285.93 163.81 C286.51 174.88, 284.13 186.11, 279.19 195.24 C274.24 204.37, 264.43 212.20, 256.24 218.59 C248.06 224.98, 240.35 230.65, 230.08 233.57 C219.80 236.49, 205.71 238.42, 194.60 236.09 C183.50 233.77, 172.62 226.70, 163.44 219.60 C154.26 212.50, 144.79 203.14, 139.52 193.49 C134.25 183.83, 130.97 172.10, 131.80 161.69 C132.64 151.29, 139.38 141.02, 144.52 131.06 C149.66 121.11, 154.73 108.98, 162.64 101.98 C170.55 94.97, 186.84 91.60, 191.98 89.06 C197.12 86.51, 193.26 85.95, 193.48 86.68" fill="none" stroke="#202020" stroke-width="3" stroke-linecap="round" stroke-linejoin="round"/><path d="M140.73 78.61 C140.73 78.61, 140.73 78.61, 140.73 78.61 M140.73 78.61 C140.73 78.61, 140.73 78.61, 140.73 78.61 M113.08 109.07 C125.63 106.06, 133.53 96.27, 150.73 73.70 M114.60 112.83 C128.00 100.22, 133.82 89.64, 150.02 73.35 M112.50 125.71 C123.84 109.74, 135.36 99.50, 160.57 66.44 M113.13 124.92 C120.41 110.19, 134.59 100.21, 162.45 63.77 M108.17 137.14 C131.69 113.79, 147.51 91.49, 170.53 63.05 M107.49 133.98 C122.97 116.14, 137.48 100.62, 172.29 60.33 M101.81 142.96 C129.35 116.76, 150.14 90.48, 181.05 57.52 M105.90 143.63 C132.99 108.33, 162.50 75.71, 179.07 56.58 M106.18 147.44 C119.45 130.97, 135.51 110.91, 183.65 55.32 M104.12 151.39 C128.50 125.76, 150.64 98.61, 186.13 58.79 M101.42 156.52 C130.03 128.86, 151.24 106.42, 195.10 56.42 M106.08 157.57 C135.53 119.07, 167.10 84.22, 190.35 57.28 M104.84 158.66 C127.66 140.91, 154.05 108.61, 198.26 54.45 M105.94 162.81 C130.36 135.44, 158.76 104.58, 198.37 56.02 M105.51 169.52 C129.09 141.99, 153.82 111.37, 206.98 56.94 M103.93 170.12 C143.10 128.77, 175.40 87.36, 205.89 53.98 M107.48 174.30 C137.57 143.96, 163.30 112.49, 208.49 56.92 M105.85 171.94 C124.67 149.15, 147.75 126.13, 211.07 52.71 M103.36 182.18 C146.27 133.55, 187.50 87.36, 212.25 57.50 M104.06 179.84 C138.45 137.15, 176.25 94.63, 215.12 52.86 M109.13 188.39 C149.90 137.24, 191.97 87.74, 218.76 55.83 M105.20 186.51 C135.88 147.22, 173.26 107.62, 220.78 53.69 M107.35 187.47 C151.32 139.48, 194.10 86.72, 224.30 55.80 M105.59 188.91 C132.04 160.20, 156.03 130.32, 223.86 56.51 M107.01 196.86 C135.03 169.19, 161.78 136.17, 229.92 56.36 M108.30 195.95 C148.05 148.66, 188.42 105.91, 227.55 56.52 M107.51 194.75 C160.96 141.77, 208.28 93.82, 232.32 55.89 M111.41 199.46 C155.37 149.16, 198.87 96.82, 233.36 57.37 M109.48 204.98 C158.65 146.97, 200.33 93.70, 237.63 60.84 M113.03 202.86 C164.72 143.04, 210.85 89.55, 235.33 60.06 M111.54 209.92 C146.51 166.43, 178.23 128.22, 241.95 57.40 M112.92 208.62 C144.35 177.98, 172.17 144.87, 242.84 60.47 M114.33 206.97 C151.93 167.99, 186.98 122.11, 245.36 64.55 M116.20 209.22 C168.11 154.80, 212.28 98.88, 247.51 61.93 M118.38 217.73 C165.94 166.41, 207.68 108.25, 247.19 61.30 M118.91 215.75 C159.53 167.87, 197.31 123.97, 250.78 61.80 M120.61 220.14 C150.59 190.74, 175.45 154.59, 257.68 60.65 M121.09 217.69 C173.93 160.39, 223.31 104.10, 254.64 62.34 M120.37 221.40 C170.88 163.61, 219.41 107.86, 261.36 66.90 M123.08 223.80 C167.26 171.68, 210.15 117.08, 257.81 66.74 M122.41 223.30 C167.66 184.60, 202.86 140.04, 257.78 69.93 M124.35 225.28 C171.02 172.02, 215.89 121.89, 261.54 69.72 M124.09 230.91 C183.92 165.97, 235.27 106.15, 261.68 71.35 M128.54 227.16 C183.45 168.81, 236.25 104.08, 266.06 69.50 M127.00 234.74 C157.36 202.93, 186.28 169.07, 270.66 75.05 M129.75 232.93 C165.84 189.91, 201.62 149.30, 269.48 70.77 M133.34 234.87 C174.78 188.11, 210.54 138.92, 269.52 73.83 M132.07 234.72 C190.00 170.40, 242.93 105.21, 272.92 75.13 M138.77 239.81 C193.49 172.97, 243.14 109.02, 277.61 79.56 M134.25 238.41 C187.26 179.93, 236.43 119.20, 276.71 75.73 M137.90 239.35 C193.43 182.71, 241.66 122.99, 280.99 81.55 M136.13 240.53 C186.33 178.17, 236.38 121.46, 277.75 76.74 M143.44 246.00 C182.23 194.90, 224.48 143.21, 279.29 82.67 M139.30 242.16 C170.59 206.46, 201.59 171.28, 283.93 81.42 M145.32 246.06 C190.53 188.04, 235.22 132.25, 285.71 80.45 M144.72 245.05 C175.38 209.62, 208.85 170.33, 286.95 83.20 M145.11 248.52 C200.55 187.44, 258.11 124.47, 290.12 89.49 M147.16 248.25 C175.35 215.75, 205.28 183.33, 286.41 84.84 M151.32 251.71 C203.24 188.61, 258.48 127.93, 293.53 86.88 M149.92 250.53 C186.17 208.98, 225.75 166.83, 292.05 88.38 M149.62 251.02 C191.03 203.11, 235.77 158.42, 289.96 95.18 M153.13 255.97 C181.22 219.81, 212.95 183.92, 291.47 92.44 M159.41 254.26 C185.99 227.45, 208.51 194.86, 295.36 95.40 M156.41 257.75 C189.21 216.43, 224.77 174.21, 296.37 95.59 M161.69 257.47 C187.90 222.70, 218.77 189.79, 299.53 102.27 M158.04 258.45 C208.03 202.85, 258.38 144.66, 297.50 98.62 M167.01 261.07 C195.36 218.69, 230.87 181.71, 297.16 102.32 M164.61 257.73 C208.48 205.50, 250.08 156.72, 300.93 103.22 M170.24 260.44 C200.90 227.87, 226.92 194.33, 301.77 109.86 M166.49 262.26 C197.03 226.47, 227.57 192.43, 301.73 107.80 M169.54 261.45 C206.88 221.56, 243.14 172.77, 304.64 113.79 M171.48 261.01 C219.86 208.10, 270.39 153.97, 304.72 110.00 M177.13 264.95 C211.73 218.16, 250.43 180.79, 302.75 112.59 M176.99 263.07 C223.32 205.66, 274.75 146.64, 307.06 112.75 M177.70 263.21 C228.96 211.37, 278.01 154.85, 311.96 115.11 M179.34 264.36 C222.83 217.74, 266.32 170.51, 308.44 118.85 M186.43 270.84 C224.16 222.31, 264.18 183.43, 309.39 123.70 M184.62 267.92 C220.67 223.76, 257.04 183.43, 308.84 123.90 M184.73 271.85 C224.48 216.42, 270.77 170.45, 309.48 130.93 M186.03 267.86 C221.39 228.45, 261.23 186.11, 308.95 128.91 M194.24 272.55 C217.26 238.28, 247.17 205.02, 311.47 133.02 M192.80 267.40 C227.19 227.74, 264.00 185.04, 312.82 131.91 M194.50 267.20 C236.92 218.00, 280.74 173.65, 314.64 136.93 M196.65 268.69 C227.97 236.37, 258.56 200.19, 311.20 136.04 M202.59 270.81 C229.31 231.77, 257.73 195.88, 316.27 144.03 M203.19 267.99 C240.19 221.88, 282.68 178.38, 312.46 142.00 M205.83 266.67 C252.26 226.51, 284.86 181.35, 318.33 142.85 M209.64 270.35 C240.39 230.38, 276.71 190.57, 314.25 146.01 M210.16 269.00 C239.62 243.40, 258.55 214.63, 315.43 149.90 M212.85 271.11 C232.92 246.41, 254.79 221.64, 317.94 150.11 M215.77 270.32 C240.15 244.27, 259.96 219.54, 315.95 154.70 M217.50 271.42 C248.89 235.81, 277.69 202.04, 315.37 157.63 M223.46 268.60 C258.40 226.68, 299.57 185.66, 316.06 165.09 M224.52 269.30 C259.20 230.99, 293.33 190.25, 316.09 162.85 M230.35 266.82 C256.56 235.94, 284.62 205.53, 313.58 173.64 M227.41 267.81 C249.63 242.35, 273.29 214.52, 316.39 169.02 M236.73 263.85 C268.68 235.46, 298.34 197.34, 313.40 173.63 M237.88 265.42 C259.40 240.35, 283.06 214.49, 316.01 178.45 M248.62 264.73 C269.32 239.48, 287.63 215.23, 317.41 185.46 M246.09 262.08 C270.25 237.28, 291.45 211.84, 314.56 184.78 M253.71 263.10 C274.40 230.89, 294.67 210.76, 315.31 193.23 M255.25 259.03 C265.97 243.26, 283.93 225.53, 313.54 189.17 M263.37 255.23 C278.66 237.35, 291.06 218.84, 311.80 197.17 M261.95 258.08 C277.97 235.02, 296.27 214.56, 311.99 198.21 M281.33 245.81 C287.04 233.79, 288.02 230.24, 296.69 222.44 M279.70 245.21 C284.40 233.74, 292.36 227.03, 299.60 218.59" fill="#faf7ef" stroke="none"/><path d="M140.64 78.72 C149.14 69.10, 164.18 62.06, 176.21 57.73 C188.25 53.39, 200.17 51.91, 212.85 52.70 C225.54 53.49, 240.14 57.57, 252.33 62.47 C264.52 67.37, 276.69 73.06, 285.98 82.10 C295.28 91.14, 303.01 104.46, 308.12 116.72 C313.22 128.98, 315.89 142.17, 316.63 155.66 C317.37 169.15, 316.83 184.97, 312.55 197.68 C308.27 210.40, 299.29 222.16, 290.94 231.95 C282.60 241.73, 273.45 249.95, 262.47 256.38 C251.49 262.82, 237.43 268.52, 225.06 270.54 C212.69 272.56, 200.49 271.21, 188.25 268.51 C176.01 265.81, 162.74 261.94, 151.63 254.36 C140.52 246.79, 129.23 234.08, 121.59 223.05 C113.96 212.03, 108.86 200.92, 105.82 188.21 C102.78 175.50, 101.63 159.82, 103.36 146.78 C105.09 133.74, 107.86 123.07, 116.21 109.98 C124.55 96.89, 144.65 76.22, 153.41 68.24 C162.16 60.26, 168.02 60.56, 168.72 62.08 M174.49 57.48 C185.40 51.37, 199.18 53.63, 211.66 54.40 C224.14 55.17, 237.51 57.21, 249.38 62.12 C261.25 67.04, 273.43 75.57, 282.87 83.90 C292.31 92.22, 300.65 100.66, 306.02 112.08 C311.40 123.50, 313.86 138.50, 315.12 152.40 C316.38 166.29, 317.02 182.83, 313.58 195.44 C310.15 208.06, 302.88 217.80, 294.51 228.09 C286.13 238.39, 273.89 250.71, 263.33 257.23 C252.78 263.74, 243.18 265.22, 231.17 267.17 C219.17 269.13, 204.42 271.13, 191.29 268.95 C178.16 266.77, 163.15 260.65, 152.40 254.08 C141.65 247.52, 133.91 240.19, 126.78 229.56 C119.65 218.93, 113.88 203.77, 109.62 190.33 C105.36 176.88, 100.43 162.09, 101.22 148.89 C102.01 135.70, 108.35 122.76, 114.35 111.17 C120.35 99.58, 127.04 88.41, 137.23 79.36 C147.41 70.31, 169.37 59.45, 175.46 56.90 C181.56 54.35, 173.45 61.67, 173.78 64.05" fill="none" stroke="#202020" stroke-width="3" stroke-linecap="round" stroke-linejoin="round"/><path d="M245.69 120.41 C252.68 124.69, 256.02 133.67, 258.44 142.30 C260.86 150.93, 261.28 163.37, 260.20 172.19 C259.12 181.00, 257.11 188.86, 251.97 195.19 C246.83 201.53, 238.14 207.00, 229.37 210.19 C220.60 213.37, 208.43 215.41, 199.35 214.32 C190.26 213.22, 181.66 209.21, 174.85 203.62 C168.04 198.03, 161.49 189.06, 158.49 180.75 C155.49 172.45, 155.02 162.95, 156.84 153.80 C158.67 144.64, 163.42 133.05, 169.46 125.83 C175.50 118.61, 184.84 113.43, 193.06 110.47 C201.27 107.51, 208.37 103.82, 218.75 108.09 C229.13 112.36, 248.47 128.04, 255.32 136.09 C262.18 144.14, 260.72 155.77, 259.88 156.39 M210.29 108.00 C218.27 108.35, 227.55 114.35, 235.50 119.26 C243.45 124.17, 253.51 130.46, 258.01 137.46 C262.50 144.46, 263.44 152.68, 262.48 161.25 C261.52 169.82, 256.95 181.56, 252.26 188.90 C247.57 196.24, 241.61 200.82, 234.36 205.29 C227.10 209.76, 217.37 215.04, 208.74 215.72 C200.10 216.40, 190.23 214.18, 182.55 209.36 C174.87 204.53, 166.90 195.25, 162.63 186.75 C158.35 178.26, 156.77 166.75, 156.90 158.40 C157.03 150.05, 158.55 143.60, 163.41 136.65 C168.28 129.71, 177.61 121.38, 186.09 116.72 C194.58 112.05, 210.53 109.64, 214.31 108.65 C218.09 107.66, 209.24 110.14, 208.79 110.79" fill="#faf7ef" stroke="none"/><path d="M252.47 130.87 C257.43 137.70, 260.82 150.06, 261.44 159.10 C262.05 168.15, 259.67 177.19, 256.17 185.11 C252.67 193.04, 247.89 201.62, 240.42 206.68 C232.94 211.73, 220.21 214.81, 211.31 215.44 C202.40 216.07, 194.71 214.39, 187.00 210.44 C179.28 206.49, 170.02 199.54, 165.03 191.75 C160.04 183.95, 157.13 172.65, 157.07 163.69 C157.01 154.74, 160.47 145.41, 164.65 138.02 C168.84 130.62, 174.88 123.91, 182.17 119.33 C189.45 114.75, 199.47 111.25, 208.36 110.55 C217.25 109.85, 226.65 105.03, 235.49 115.16 C244.33 125.28, 260.34 156.96, 261.38 171.31 C262.41 185.66, 242.71 201.23, 241.69 201.25 M167.64 130.21 C172.56 122.84, 182.12 114.83, 189.89 111.27 C197.65 107.72, 205.97 108.17, 214.23 108.88 C222.48 109.60, 231.93 110.85, 239.42 115.57 C246.92 120.30, 255.31 128.66, 259.21 137.23 C263.11 145.80, 263.97 158.34, 262.84 166.97 C261.70 175.59, 257.37 181.41, 252.42 188.98 C247.46 196.55, 240.82 207.80, 233.12 212.40 C225.41 216.99, 215.00 217.54, 206.21 216.54 C197.42 215.55, 188.11 211.31, 180.39 206.41 C172.67 201.51, 163.66 195.70, 159.90 187.14 C156.14 178.58, 156.84 164.01, 157.83 155.05 C158.83 146.10, 163.80 136.91, 165.87 133.43 C167.93 129.94, 169.08 134.03, 170.21 134.15" fill="none" stroke="#202020" stroke-width="3" stroke-linecap="round" stroke-linejoin="round"/><path d="M309.05 69.26 C317.22 55.76, 329.00 44.99, 344.15 31.23 M304.68 65.71 C317.98 54.61, 325.29 44.36, 344.80 28.53" fill="none" stroke="#202020" stroke-width="3" stroke-linecap="round" stroke-linejoin="round"/><path d="M305.23 257.43 C322.20 272.28, 334.83 287.81, 343.09 293.52 M308.08 257.40 C320.01 272.52, 333.13 286.03, 344.96 293.75" fill="none" stroke="#202020" stroke-width="3" stroke-linecap="round" stroke-linejoin="round"/><path d="M117.63 259.36 C97.08 269.84, 85.29 287.77, 77.36 292.31 M115.64 257.35 C101.85 265.98, 92.76 280.58, 77.75 296.00" fill="none" stroke="#202020" stroke-width="3" stroke-linecap="round" stroke-linejoin="round"/><path d="M112.54 61.54 C103.90 56.90, 94.84 42.17, 76.63 29.22 M112.23 67.36 C101.48 55.41, 89.81 40.37, 77.84 27.84" fill="none" stroke="#202020" stroke-width="3" stroke-linecap="round" stroke-linejoin="round"/></svg>