<svg xmlns="http://www.w3.org/2000/svg" viewBox="0 0 436 310" width="436" height="310"><path d="M11.86 12.81 C162.71 13.95, 309.61 13.35, 407.32 13.70 M13.98 14.03 C162.29 16.00, 312.19 15.25, 405.38 14.57 M408.13 12.52 C405.55 84.83, 404.88 157.03, 407.10 282.78 M405.16 13.83 C403.71 69.90, 403.75 123.71, 406.96 279.91 M403.80 281.48 C313.02 277.81, 219.15 281.34, 13.63 281.47 M406.26 280.17 C307.03 280.23, 207.53 280.24, 13.40 280.97 M15.44 278.51 C13.02 205.45, 12.57 122.85, 14.80 10.93 M13.15 281.23 C13.67 187.71, 14.76 99.50, 13.60 15.28" fill="none" stroke="#202020" stroke-width="3" stroke-linecap="round" stroke-linejoin="round"/><path d="M29.78 34.21 C105.83 30.48, 180.22 30.76, 393.13 31.98 M27.67 32.82 C138.78 29.90, 247.49 30.16, 391.42 32.14" fill="none" stroke="#202020" stroke-width="3" stroke-linecap="round" stroke-linejoin="round"/><path d="M26.00 107.11 C133.74 102.31, 235.52 103.66, 394.01 107.41 M28.18 108.28 C116.91 104.32, 204.88 104.40, 392.56 109.14" fill="none" stroke="#202020" stroke-width="3" stroke-linecap="round" stroke-linejoin="round"/><path d="M26.61 184.18 C171.09 183.89, 313.12 182.67, 392.60 186.78 M26.76 184.79 C139.15 185.28, 253.38 185.13, 392.08 184.61" fill="none" stroke="#202020" stroke-width="3" stroke-linecap="round" stroke-linejoin="round"/><path d="M25.53 259.93 C113.01 265.76, 195.66 264.02, 392.00 261.62 M27.31 261.15 C151.82 264.10, 275.89 263.99, 391.66 262.12" fill="none" stroke="#202020" stroke-width="3" stroke-linecap="round" stroke-linejoin="round"/></svg>