<svg xmlns="http://www.w3.org/2000/svg" viewBox="0 0 436 310" width="436" height="310"><path d="M12.02 13.31 C101.51 15.09, 187.20 14.73, 404.97 12.42 M14.89 13.17 C163.22 16.74, 313.13 16.58, 405.57 14.51 M407.68 12.94 C407.70 105.96, 402.74 201.66, 403.35 281.13 M404.67 13.10 C409.77 118.35, 409.74 222.11, 407.15 281.34 M404.83 281.98 C253.95 280.77, 104.57 280.34, 14.23 279.00 M406.68 280.06 C323.46 283.12, 242.29 283.96, 14.95 279.48 M11.40 280.42 C13.80 198.42, 8.36 118.89, 11.09 11.34 M13.06 280.33 C12.58 202.03, 12.63 123.86, 13.94 15.34" fill="none" stroke="#202020" stroke-width="3" stroke-linecap="round" stroke-linejoin="round"/><path d="M25.78 32.26 C118.54 28.00, 204.92 26.94, 391.97 33.68 M28.38 30.80 C138.62 34.86, 247.31 35.48, 391.27 33.13" fill="none" stroke="#202020" stroke-width="3" stroke-linecap="round" stroke-linejoin="round"/><path d="M28.86 107.45 C164.61 108.96, 298.24 107.75, 390.13 106.49 M27.90 107.87 C105.31 112.46, 183.89 113.65, 392.22 108.24" fill="none" stroke="#202020" stroke-width="3" stroke-linecap="round" stroke-linejoin="round"/><path d="M27.41 186.92 C104.34 187.26, 182.20 190.07, 393.68 186.96 M27.59 185.98 C141.24 180.49, 252.03 181.35, 391.75 185.92" fill="none" stroke="#202020" stroke-width="3" stroke-linecap="round" stroke-linejoin="round"/><path d="M27.14 259.86 C131.77 257.99, 230.99 261.44, 392.17 264.21 M27.80 262.12 C126.28 266.24, 223.60 264.22, 392.73 262.38" fill="none" stroke="#202020" stroke-width="3" stroke-linecap="round" stroke-linejoin="round"/></svg>