<svg xmlns="http://www.w3.org/2000/svg" viewBox="0 0 900 300" width="900" height="300"><path d="M222.29 76.23 L671.89 83.88 L672.19 287.30 L222.62 286.95" fill="#faf7ef" stroke="none"/><path d="M224.18 81.28 C385.15 77.14, 545.26 79.17, 674.42 78.11 M224.22 80.14 C393.38 79.57, 559.62 79.83, 675.44 80.68 M675.31 77.55 C680.99 127.42, 678.40 180.39, 674.03 288.76 M673.59 80.27 C678.82 136.17, 679.12 192.77, 675.32 291.65 M673.83 288.58 C515.07 287.13, 353.11 285.57, 224.40 290.72 M674.80 289.26 C530.46 287.52, 383.14 286.91, 225.30 289.54 M223.16 289.03 C220.20 244.25, 221.86 199.29, 222.50 79.96 M225.57 288.70 C226.06 230.04, 224.51 172.23, 224.09 80.54" fill="none" stroke="#202020" stroke-width="2" stroke-linecap="round" stroke-linejoin="round"/><path d="M217.50 78.17 L453.91 41.71 L685.20 79.38" fill="#faf7ef" stroke="none"/><path d="M213.86 82.07 C268.63 75.91, 332.56 67.42, 450.23 43.35 M216.21 79.88 C304.52 66.62, 396.71 54.51, 450.80 46.19 M449.56 43.92 C541.65 59.99, 637.90 75.25, 685.21 82.90 M450.13 46.22 C529.00 55.88, 606.36 68.87, 684.85 80.05 M684.07 79.37 C539.06 83.48, 390.55 83.00, 214.54 78.99 M685.72 79.34 C511.14 82.48, 338.11 82.24, 214.99 79.49" fill="none" stroke="#202020" stroke-width="2" stroke-linecap="round" stroke-linejoin="round"/><path d="M361.75 132.41 L542.96 134.04 L542.12 265.13 L363.00 263.82" fill="#faf7ef" stroke="none"/><path d="M358.78 129.04 C429.98 135.51, 500.88 137.67, 542.24 130.41 M361.60 132.94 C413.31 130.00, 468.53 129.83, 540.48 133.09 M536.48 135.10 C537.73 162.67, 540.12 191.73, 537.01 268.75 M541.82 133.96 C538.06 174.56, 537.22 217.46, 541.89 268.26 M536.39 263.66 C473.26 266.34, 406.07 271.16, 361.60 264.72 M538.99 266.38 C485.19 269.29, 427.28 268.04, 358.88 268.07 M357.67 269.22 C362.91 218.46, 360.49 173.97, 363.21 135.71 M359.45 269.00 C360.04 219.24, 359.19 172.16, 359.56 131.83" fill="none" stroke="#202020" stroke-width="2" stroke-linecap="round" stroke-linejoin="round"/><path d="M336.30 219.69 L558.94 217.29 L561.96 291.30 L334.77 288.80" fill="#faf7ef" stroke="none"/><path d="M334.64 218.88 C403.03 215.21, 464.99 213.70, 561.45 214.63 M335.86 216.06 C400.24 221.35, 467.03 221.22, 562.90 216.38 M560.74 215.18 C563.50 238.69, 561.88 253.92, 559.10 287.77 M562.82 218.26 C563.37 235.76, 561.72 255.04, 562.23 290.17 M562.03 287.75 C478.38 288.72, 390.05 290.97, 339.86 286.81 M563.33 290.11 C501.68 288.88, 439.99 289.81, 339.17 289.31 M341.15 290.42 C341.58 258.08, 337.99 229.35, 340.14 215.82 M336.22 289.79 C338.55 260.16, 340.39 231.97, 336.26 216.24" fill="none" stroke="#202020" stroke-width="2" stroke-linecap="round" stroke-linejoin="round"/></svg>