<svg xmlns="http://www.w3.org/2000/svg" viewBox="0 0 960 420" width="960" height="420"><path d="M240.67 114.30 L719.08 115.58 L716.18 410.11 L236.80 411.35" fill="#faf7ef" stroke="none"/><path d="M238.47 116.45 C340.11 112.09, 442.67 113.76, 718.33 117.19 M240.12 116.04 C428.42 115.72, 617.20 115.30, 719.70 115.60 M720.51 114.71 C718.02 214.97, 716.76 307.45, 719.99 410.26 M719.65 115.70 C719.76 188.24, 718.61 258.17, 720.97 410.68 M719.35 411.48 C548.30 407.56, 375.06 410.74, 238.64 411.48 M719.22 410.73 C574.16 413.11, 428.15 413.41, 239.97 409.69 M241.10 412.28 C242.50 322.35, 238.53 230.49, 239.62 115.32 M239.15 410.09 C241.34 317.37, 243.50 226.26, 238.91 116.79" fill="none" stroke="#202020" stroke-width="2" stroke-linecap="round" stroke-linejoin="round"/><path d="M226.80 114.88 L478.43 83.23 L728.74 112.14" fill="#faf7ef" stroke="none"/><path d="M229.05 117.20 C290.60 113.93, 344.58 103.93, 478.36 81.86 M230.96 114.95 C282.89 108.19, 334.26 101.73, 480.85 81.07 M479.86 79.76 C569.40 97.34, 665.99 110.55, 730.77 117.26 M479.56 82.08 C576.36 90.50, 669.24 105.04, 730.25 115.59 M728.64 115.01 C561.00 117.96, 388.50 115.88, 231.30 116.85 M730.66 115.85 C621.75 112.11, 513.04 112.16, 229.55 115.43" fill="none" stroke="#202020" stroke-width="2" stroke-linecap="round" stroke-linejoin="round"/><path d="M385.26 193.41 L576.20 191.58 L575.52 334.75 L383.68 334.54" fill="#faf7ef" stroke="none"/><path d="M381.73 186.61 C446.74 193.40, 513.38 191.24, 576.06 185.63 M384.41 189.85 C430.41 193.34, 474.46 192.80, 577.86 187.98 M575.13 190.71 C577.90 235.68, 571.45 280.52, 574.77 334.55 M576.04 188.42 C579.70 237.43, 579.41 285.98, 576.39 333.51 M575.70 330.67 C512.51 340.36, 457.88 339.84, 386.05 333.55 M575.76 335.33 C509.71 335.73, 441.21 335.69, 382.04 333.64 M385.68 332.24 C384.38 274.94, 380.69 219.01, 385.67 185.54 M382.15 333.10 C382.02 290.38, 385.59 247.38, 382.46 188.91" fill="none" stroke="#202020" stroke-width="2" stroke-linecap="round" stroke-linejoin="round"/><path d="M360.20 305.50 L602.07 309.68 L596.50 410.82 L361.63 412.77" fill="#faf7ef" stroke="none"/><path d="M361.52 304.07 C452.90 310.36, 552.76 306.45, 598.02 308.91 M361.23 306.78 C444.67 304.13, 527.68 303.78, 600.80 308.55 M598.06 303.80 C602.18 332.66, 603.70 353.87, 599.90 411.00 M599.01 307.78 C600.89 345.57, 599.53 384.66, 601.66 411.67 M602.23 411.86 C539.72 407.59, 482.99 406.86, 357.62 410.58 M599.65 411.05 C518.79 411.68, 434.84 411.52, 358.74 410.13 M361.75 406.96 C361.00 387.71, 362.88 359.55, 363.32 306.17 M358.92 410.09 C360.85 386.13, 361.48 360.01, 360.23 305.11" fill="none" stroke="#202020" stroke-width="2" stroke-linecap="round" stroke-linejoin="round"/></svg>