<svg xmlns="http://www.w3.org/2000/svg" viewBox="0 0 900 320" width="900" height="320"><path d="M342.66 71.29 C342.66 71.29, 342.66 71.29, 342.66 71.29 M342.66 71.29 C342.66 71.29, 342.66 71.29, 342.66 71.29 M313.46 108.81 C329.91 98.24, 340.96 77.44, 359.90 57.79 M312.35 112.01 C325.28 98.86, 338.88 86.36, 356.76 59.71 M308.29 117.47 C329.84 99.92, 349.12 81.71, 376.21 46.60 M309.69 119.71 C331.28 96.47, 354.69 73.26, 371.30 50.62 M308.52 130.95 C335.43 99.32, 356.03 70.68, 380.42 40.69 M309.37 130.22 C325.15 110.95, 340.09 90.08, 381.68 42.46 M306.06 135.04 C330.40 104.99, 364.72 71.22, 387.64 35.91 M306.38 136.06 C329.28 106.30, 355.24 76.89, 389.58 39.15 M303.88 145.29 C326.79 124.98, 344.91 100.98, 398.22 33.81 M303.78 148.24 C333.46 117.05, 363.20 83.38, 397.34 35.24 M301.97 154.60 C336.61 109.17, 375.64 70.19, 408.80 33.65 M304.09 155.73 C339.26 112.00, 371.90 72.64, 407.97 32.69 M299.81 161.79 C343.45 114.47, 383.41 71.53, 418.44 30.15 M300.44 159.74 C331.86 129.80, 363.17 95.29, 415.35 32.09 M301.11 163.78 C332.25 137.10, 360.23 100.22, 423.30 27.70 M300.69 168.17 C347.83 120.44, 389.64 68.57, 420.35 30.77 M300.12 170.35 C329.55 141.90, 357.06 112.98, 425.15 24.91 M303.58 172.90 C331.07 141.45, 360.08 108.89, 427.95 27.28 M299.80 177.44 C351.48 129.47, 399.02 71.03, 433.15 25.48 M299.01 179.13 C349.40 124.20, 396.95 70.40, 432.34 29.48 M301.20 183.91 C341.88 144.29, 379.84 94.15, 438.30 26.69 M301.66 186.45 C342.40 140.89, 382.54 91.43, 437.49 27.93 M297.21 196.34 C355.01 133.70, 403.99 73.72, 447.08 30.70 M301.00 193.10 C352.97 130.96, 407.28 69.71, 443.11 26.12 M299.83 198.65 C344.48 152.09, 386.94 105.68, 451.14 26.82 M300.78 198.78 C332.83 161.41, 366.10 122.35, 451.63 26.87 M301.54 201.68 C349.39 149.40, 393.15 95.48, 454.90 26.36 M304.26 201.65 C349.56 146.91, 395.68 90.45, 454.52 25.13 M302.43 203.40 C350.29 147.97, 404.95 92.79, 464.30 25.06 M303.69 205.87 C352.60 150.88, 403.92 96.03, 461.00 27.03 M307.95 214.47 C353.40 159.99, 398.95 102.53, 463.80 25.58 M304.61 211.13 C354.30 161.91, 398.04 109.29, 467.56 28.07 M307.95 215.23 C365.25 152.19, 423.19 82.31, 467.58 25.30 M307.05 217.04 C351.59 160.99, 398.04 106.13, 470.50 26.46 M308.63 218.50 C375.45 142.51, 443.30 67.02, 476.31 29.74 M307.92 221.13 C363.51 159.37, 418.69 98.71, 476.10 28.11 M308.77 223.11 C348.82 175.67, 389.76 135.80, 476.29 27.44 M308.60 225.18 C358.57 170.47, 405.90 117.14, 480.92 30.98 M310.25 226.89 C374.45 154.69, 445.69 74.25, 480.70 30.12 M310.94 228.00 C361.73 167.80, 415.58 107.00, 482.24 30.84 M309.94 233.39 C372.88 168.08, 431.57 103.23, 487.33 34.36 M312.08 234.31 C365.39 175.26, 415.74 117.91, 487.10 33.64 M316.40 239.11 C362.77 183.97, 409.78 130.99, 489.49 34.75 M312.89 239.43 C363.14 180.16, 409.97 126.30, 493.81 32.01 M316.67 239.76 C347.61 205.03, 384.95 163.87, 495.02 33.67 M315.74 244.08 C356.73 195.41, 395.69 151.22, 498.16 35.10 M315.54 244.49 C377.83 176.27, 439.25 109.18, 501.71 37.87 M318.37 246.10 C385.34 169.69, 450.99 91.39, 501.82 35.30 M317.61 247.12 C365.79 197.55, 411.12 143.08, 504.56 36.58 M321.70 249.28 C377.95 182.17, 432.74 117.81, 504.38 35.42 M319.73 252.18 C365.43 201.74, 406.99 155.30, 508.86 38.75 M323.13 253.12 C380.43 183.97, 440.81 116.69, 508.96 38.05 M323.83 255.33 C381.02 195.80, 430.53 138.73, 512.95 41.60 M324.67 256.06 C385.47 186.38, 449.37 114.34, 513.34 40.11 M327.10 257.89 C372.17 206.98, 419.49 152.64, 518.70 41.30 M328.25 260.23 C394.52 182.50, 460.87 106.65, 515.15 42.98 M329.25 261.37 C392.88 190.85, 460.90 117.00, 521.51 41.89 M330.66 262.18 C375.42 210.34, 422.00 159.15, 519.93 44.85 M328.60 264.89 C378.83 211.74, 428.86 152.18, 522.78 46.53 M332.01 266.99 C402.78 179.05, 479.06 92.45, 522.63 44.73 M336.13 273.59 C397.43 190.49, 465.65 112.78, 528.15 50.03 M334.18 270.85 C378.40 219.87, 420.87 170.41, 528.16 49.43 M335.02 275.09 C392.02 202.52, 450.77 134.96, 532.33 51.98 M335.36 275.98 C398.77 201.66, 462.37 128.09, 531.81 50.85 M335.58 278.02 C413.78 184.54, 490.78 93.98, 536.63 51.91 M338.15 278.69 C405.91 201.81, 473.86 121.78, 533.06 51.57 M338.80 280.03 C397.18 210.29, 455.69 144.26, 538.99 54.93 M339.65 279.22 C390.37 222.69, 438.44 169.54, 538.59 53.71 M345.04 282.56 C389.15 227.44, 438.91 174.44, 539.08 54.20 M345.01 283.22 C405.93 217.89, 465.67 146.36, 540.89 57.64 M348.86 287.76 C427.45 197.91, 502.47 110.11, 541.66 58.66 M347.57 285.30 C407.92 215.67, 468.00 146.06, 544.90 58.88 M351.27 288.82 C399.42 225.37, 455.87 167.98, 548.50 63.21 M348.63 289.05 C404.48 229.61, 459.61 167.86, 547.67 60.74 M351.74 292.03 C415.32 213.14, 479.74 140.85, 552.20 65.63 M353.00 290.47 C396.97 241.52, 441.44 190.46, 550.65 64.95 M354.35 295.91 C422.30 221.55, 483.83 151.91, 555.79 67.63 M357.52 293.78 C421.93 217.11, 486.86 141.15, 551.84 66.97 M359.79 297.48 C412.41 231.40, 470.66 164.92, 556.12 72.76 M358.04 296.23 C416.12 225.63, 479.22 155.08, 556.83 70.94 M360.72 298.18 C431.53 220.58, 500.74 140.12, 560.83 72.93 M361.96 299.19 C410.87 241.37, 460.22 183.03, 557.76 72.46 M365.23 305.19 C410.07 250.74, 460.10 194.47, 562.36 78.68 M364.00 300.89 C429.72 224.73, 495.45 152.32, 561.13 74.95 M364.71 303.20 C439.66 218.93, 517.74 134.77, 566.52 80.44 M368.56 305.35 C421.66 247.26, 471.59 184.96, 565.75 77.21 M367.80 308.33 C429.10 240.47, 488.53 171.91, 564.73 79.97 M370.18 308.31 C428.52 242.49, 485.97 175.05, 566.08 80.68 M373.73 308.90 C418.87 260.36, 459.49 206.99, 568.81 82.15 M374.56 308.44 C417.78 255.68, 467.01 201.87, 570.21 84.32 M379.13 309.69 C450.39 221.33, 523.49 137.96, 572.13 84.47 M379.66 310.63 C428.42 252.01, 478.49 191.98, 572.50 86.93 M379.92 309.43 C440.68 244.85, 493.70 176.87, 573.17 89.19 M383.04 310.52 C431.48 254.56, 481.29 194.51, 576.54 90.95 M389.12 314.09 C430.30 257.93, 471.97 209.95, 575.23 96.44 M385.66 312.16 C429.15 262.73, 474.71 211.17, 577.06 93.68 M393.01 317.00 C458.87 233.44, 522.34 161.12, 580.42 95.92 M389.54 315.03 C453.43 243.50, 518.49 172.23, 581.20 98.53 M396.96 317.90 C437.67 271.48, 473.57 226.44, 583.02 102.86 M395.97 315.26 C461.72 233.12, 533.52 151.41, 580.48 101.70 M398.64 319.28 C438.91 276.74, 474.48 232.74, 580.92 105.39 M398.95 318.20 C432.04 272.48, 470.41 230.87, 582.67 104.62 M400.93 319.70 C445.41 274.26, 490.70 220.41, 582.08 109.92 M401.31 320.75 C449.16 265.94, 495.69 211.08, 584.70 109.78 M404.62 318.63 C451.55 267.92, 494.23 211.77, 589.35 113.39 M406.43 321.49 C445.67 276.49, 482.73 231.92, 586.61 114.19 M408.77 323.45 C469.64 245.23, 535.53 172.53, 585.51 116.82 M410.01 323.21 C471.83 253.88, 532.37 184.74, 589.62 116.39 M416.56 327.77 C466.21 262.10, 516.23 203.66, 590.71 123.03 M413.54 324.32 C473.59 258.10, 532.56 191.24, 591.01 123.32 M421.84 324.86 C458.93 278.56, 493.83 235.46, 588.93 127.02 M420.41 325.17 C471.61 266.05, 521.69 206.11, 592.37 125.61 M426.64 323.39 C467.11 268.64, 517.74 212.86, 596.49 130.91 M423.30 325.84 C467.85 278.85, 512.02 227.80, 594.22 128.85 M430.02 324.90 C496.42 256.32, 554.40 177.15, 598.09 133.97 M428.00 326.83 C491.88 255.55, 554.71 182.67, 594.24 135.18 M437.17 323.18 C493.25 254.79, 558.00 181.74, 599.92 139.83 M435.60 326.50 C496.18 258.46, 556.87 190.78, 597.05 140.09 M441.52 324.11 C479.60 281.29, 522.97 230.63, 594.02 143.23 M439.49 325.07 C489.53 271.59, 536.22 214.84, 598.82 142.60 M442.72 328.89 C486.65 276.45, 532.57 224.20, 596.54 147.71 M442.63 327.05 C483.31 282.01, 523.47 235.67, 596.88 150.65 M452.19 327.97 C483.30 287.61, 518.61 247.91, 602.08 151.45 M451.45 324.55 C506.36 260.44, 562.17 192.83, 599.51 154.27 M457.16 326.74 C514.11 261.87, 566.67 191.87, 598.12 156.87 M454.11 326.23 C507.77 262.83, 568.04 197.82, 598.36 159.90 M460.51 328.56 C509.19 269.41, 554.14 215.30, 597.87 164.78 M461.45 325.23 C509.95 268.64, 558.28 213.33, 599.66 163.95 M468.07 322.08 C507.37 274.96, 546.07 230.59, 597.29 171.24 M468.74 322.49 C502.53 282.01, 538.68 241.28, 602.32 170.65 M474.68 324.87 C504.25 291.00, 526.60 256.82, 600.80 171.83 M475.14 321.10 C505.55 285.05, 533.33 250.82, 601.04 174.82 M480.31 317.59 C509.94 279.86, 539.58 248.66, 602.84 180.79 M481.71 322.31 C527.15 269.81, 573.12 217.24, 602.10 181.61 M488.91 318.28 C511.85 287.27, 547.12 250.76, 602.30 191.77 M488.35 318.93 C512.49 293.18, 538.58 262.68, 599.67 190.50 M495.80 321.54 C513.20 294.69, 530.01 266.43, 596.56 195.00 M495.05 318.21 C532.13 276.12, 564.68 235.57, 596.20 198.62 M497.10 314.30 C528.24 278.50, 565.98 239.09, 595.56 207.23 M501.67 316.08 C531.50 282.61, 563.78 245.49, 595.39 204.48 M506.10 309.72 C530.26 294.69, 546.32 269.16, 595.05 210.05 M511.74 312.22 C537.52 276.10, 568.00 242.43, 595.70 214.87 M522.33 304.57 C537.40 290.23, 549.46 264.47, 593.41 224.88 M519.66 308.56 C542.89 282.19, 568.58 253.71, 593.03 221.72 M529.01 301.20 C553.02 280.88, 572.72 250.25, 587.95 229.63 M528.40 302.69 C548.22 281.38, 570.21 254.05, 590.35 231.78 M536.71 299.67 C551.32 282.13, 567.46 258.76, 585.83 248.96 M537.54 297.64 C553.77 280.11, 572.51 259.52, 581.28 247.78 M558.07 276.52 C560.08 277.26, 566.01 269.19, 574.28 262.30 M559.84 279.04 C563.45 274.95, 566.48 271.00, 575.61 260.00" fill="#faf7ef" stroke="none"/><path d="M545.69 59.30 C558.25 66.13, 568.32 79.03, 576.71 91.96 C585.10 104.89, 591.86 121.94, 596.03 136.86 C600.19 151.79, 602.25 167.15, 601.69 181.49 C601.13 195.84, 597.42 208.96, 592.66 222.94 C587.89 236.93, 581.76 253.05, 573.09 265.41 C564.43 277.77, 552.79 288.60, 540.68 297.13 C528.56 305.66, 514.51 311.76, 500.39 316.60 C486.26 321.44, 470.45 324.90, 455.90 326.15 C441.36 327.40, 427.57 327.42, 413.13 324.12 C398.69 320.81, 382.20 314.52, 369.26 306.33 C356.32 298.14, 344.75 286.27, 335.49 274.98 C326.23 263.68, 319.57 252.12, 313.69 238.55 C307.81 224.98, 302.07 208.44, 300.22 193.57 C298.36 178.70, 300.15 163.88, 302.54 149.33 C304.93 134.78, 307.90 119.26, 314.57 106.27 C321.25 93.27, 331.78 81.75, 342.59 71.38 C353.40 61.00, 366.28 51.22, 379.41 44.03 C392.54 36.85, 407.19 31.35, 421.36 28.29 C435.53 25.22, 449.79 24.18, 464.43 25.65 C479.07 27.13, 493.27 29.44, 509.21 37.15 C525.15 44.86, 549.64 63.31, 560.06 71.91 C570.47 80.50, 573.67 86.80, 571.71 88.72 M415.78 28.47 C429.16 22.99, 444.58 24.40, 459.12 25.63 C473.66 26.87, 489.07 30.45, 503.00 35.86 C516.93 41.28, 530.93 49.82, 542.69 58.14 C554.46 66.47, 564.68 74.39, 573.60 85.82 C582.53 97.25, 591.91 112.54, 596.25 126.70 C600.58 140.86, 600.14 155.70, 599.60 170.78 C599.07 185.87, 596.71 202.56, 593.06 217.19 C589.41 231.82, 584.99 245.81, 577.72 258.56 C570.44 271.31, 561.28 283.95, 549.39 293.70 C537.51 303.46, 520.65 311.69, 506.40 317.10 C492.16 322.51, 478.31 324.78, 463.92 326.15 C449.53 327.53, 434.46 327.82, 420.05 325.35 C405.64 322.88, 390.39 318.95, 377.48 311.35 C364.56 303.74, 353.05 290.49, 342.55 279.71 C332.06 268.93, 321.02 259.91, 314.52 246.66 C308.01 233.41, 305.71 215.13, 303.54 200.21 C301.36 185.28, 300.29 171.59, 301.46 157.11 C302.63 142.62, 304.61 127.40, 310.56 113.30 C316.51 99.21, 326.49 83.57, 337.14 72.53 C347.79 61.49, 361.84 54.23, 374.47 47.04 C387.10 39.86, 406.68 31.74, 412.94 29.43 C419.19 27.12, 411.76 30.39, 412.00 33.16" fill="none" stroke="#202020" stroke-width="2" stroke-linecap="round" stroke-linejoin="round"/><path d="M267.42 13.84 C267.42 13.84, 267.42 13.84, 267.42 13.84 M267.42 13.84 C267.42 13.84, 267.42 13.84, 267.42 13.84 M239.13 51.06 C263.36 27.31, 285.39 -0.43, 297.31 -18.36 M240.90 48.46 C257.98 31.50, 271.12 14.39, 297.06 -14.13 M231.35 69.64 C250.58 49.50, 274.26 22.08, 315.20 -31.10 M229.82 72.84 C253.33 41.69, 279.29 12.76, 317.31 -29.14 M224.85 81.74 C248.31 52.96, 276.59 19.85, 325.30 -29.66 M225.45 83.18 C251.58 51.03, 274.75 23.80, 325.37 -32.14 M218.22 94.58 C242.25 65.37, 272.55 36.32, 332.80 -33.83 M222.14 91.27 C248.49 57.56, 278.95 24.66, 333.18 -36.88 M216.23 99.57 C243.41 71.87, 269.11 43.15, 344.26 -38.13 M216.30 100.51 C252.47 57.34, 291.61 15.49, 342.28 -41.05 M217.95 110.22 C268.07 47.47, 319.31 -11.89, 347.60 -42.58 M215.07 111.82 C250.28 69.30, 286.30 28.30, 348.13 -43.11 M210.40 117.82 C255.54 74.24, 297.71 18.74, 361.19 -49.01 M212.83 119.77 C253.99 72.17, 292.04 26.12, 359.16 -48.95 M213.80 129.90 C250.15 83.60, 287.83 35.80, 364.10 -53.00 M211.52 126.31 C270.90 58.33, 331.91 -10.00, 366.10 -50.35 M209.38 132.11 C262.29 71.19, 320.16 7.87, 375.69 -54.35 M209.45 136.21 C262.50 71.31, 319.27 9.36, 373.43 -54.23 M208.82 138.55 C259.30 87.73, 306.16 34.39, 379.84 -55.12 M210.77 142.23 C252.27 91.37, 294.13 44.31, 381.14 -55.33 M205.89 147.12 C276.10 73.53, 341.97 -4.84, 388.93 -56.55 M208.22 147.38 C261.76 94.45, 309.40 37.89, 387.16 -56.55 M207.96 157.71 C278.66 70.37, 350.40 -15.25, 397.45 -57.46 M209.04 154.19 C260.51 96.07, 313.15 34.52, 395.94 -60.40 M204.86 162.89 C244.16 115.18, 286.99 68.71, 403.05 -62.98 M207.42 161.20 C246.53 113.95, 286.15 68.41, 402.24 -60.07 M207.30 167.24 C248.86 123.91, 295.93 74.99, 407.63 -65.61 M205.99 168.26 C256.45 113.91, 305.45 58.68, 408.31 -62.50 M203.61 175.12 C269.90 104.32, 333.97 29.54, 417.67 -67.89 M205.56 174.87 C255.37 116.96, 306.18 58.72, 414.87 -65.34 M202.83 183.63 C269.79 117.10, 331.86 47.08, 420.82 -69.54 M206.23 181.65 C274.32 97.29, 347.21 13.59, 421.33 -67.41 M203.31 189.40 C271.13 116.58, 335.16 41.93, 429.01 -69.46 M207.16 189.14 C285.38 100.15, 363.15 8.29, 430.32 -70.18 M208.32 194.57 C254.25 133.42, 308.65 73.67, 434.97 -67.75 M205.67 193.03 C255.66 136.71, 305.26 81.69, 433.67 -69.20 M209.90 197.01 C298.38 93.70, 389.25 -12.61, 440.56 -67.62 M207.99 197.90 C268.52 126.24, 330.96 54.75, 439.48 -67.75 M209.38 203.01 C268.57 143.24, 320.22 75.18, 446.75 -70.53 M208.74 204.39 C284.45 114.49, 361.43 25.33, 444.73 -69.08 M208.48 206.54 C271.07 135.39, 330.86 67.77, 452.63 -70.70 M209.96 207.53 C259.23 146.84, 309.22 87.69, 449.24 -69.25 M209.34 213.95 C297.53 117.30, 384.40 17.77, 455.04 -66.48 M210.31 213.57 C291.77 120.26, 371.70 28.77, 454.70 -68.67 M211.16 217.66 C294.60 125.16, 375.35 30.77, 461.77 -69.89 M209.73 218.00 C312.47 107.99, 410.89 -4.04, 461.63 -68.50 M213.65 221.81 C271.01 152.73, 334.30 83.73, 465.66 -65.92 M212.55 224.79 C266.31 158.02, 325.55 91.27, 465.58 -67.71 M214.12 230.02 C285.15 145.08, 357.52 60.10, 469.19 -69.04 M213.41 229.42 C275.72 157.73, 336.16 86.76, 470.80 -68.16 M215.02 234.01 C280.79 156.35, 349.73 78.54, 476.61 -69.82 M212.44 233.70 C307.28 126.47, 400.77 19.86, 477.18 -67.70 M216.60 239.11 C294.86 143.69, 377.59 52.13, 479.89 -65.77 M215.45 240.04 C298.08 143.28, 382.47 44.73, 482.35 -67.93 M214.13 243.38 C311.50 132.75, 407.75 21.97, 486.36 -68.22 M215.37 244.22 C311.99 133.99, 407.41 24.24, 487.32 -67.98 M218.01 247.73 C284.57 174.15, 352.79 94.79, 489.90 -67.61 M217.02 248.28 C301.60 150.40, 385.32 53.91, 490.94 -67.03 M219.15 252.36 C314.07 140.36, 412.03 28.61, 497.04 -65.60 M219.72 252.51 C320.24 137.36, 420.37 19.51, 495.02 -65.29 M221.37 256.95 C288.59 174.10, 361.91 93.24, 499.12 -61.27 M221.49 256.72 C309.58 156.43, 398.31 55.06, 498.03 -63.31 M221.75 262.65 C302.41 165.37, 383.76 74.99, 501.82 -62.42 M223.26 260.15 C326.99 140.08, 432.78 19.77, 502.85 -62.46 M224.88 264.49 C304.58 171.67, 386.43 76.76, 505.85 -62.90 M223.37 265.86 C323.69 152.47, 421.10 39.08, 506.80 -61.20 M226.34 267.32 C307.43 166.09, 395.58 65.82, 510.79 -58.63 M226.56 269.94 C280.96 201.48, 337.83 135.43, 510.10 -59.44 M227.11 273.25 C309.46 177.38, 395.26 81.16, 517.30 -58.45 M228.39 273.38 C283.20 206.15, 341.71 139.72, 515.51 -58.06 M230.36 277.27 C307.15 188.20, 387.25 100.97, 519.13 -58.13 M228.94 275.75 C293.11 203.46, 356.73 130.66, 518.80 -56.55 M232.97 282.05 C340.56 155.84, 448.93 29.97, 523.85 -55.75 M230.53 280.85 C296.22 208.65, 357.07 137.08, 523.27 -54.89 M232.78 286.27 C349.91 153.64, 462.53 18.73, 527.77 -55.65 M232.96 284.54 C339.10 161.62, 448.80 34.91, 528.14 -54.47 M234.45 289.84 C311.85 198.17, 388.57 107.82, 532.03 -52.61 M234.39 289.97 C346.02 159.96, 458.77 28.67, 532.39 -52.81 M235.29 292.42 C300.64 216.23, 369.39 138.12, 536.25 -49.74 M236.45 292.26 C342.22 174.90, 445.51 53.95, 535.76 -51.01 M238.97 298.38 C347.49 165.90, 459.75 37.35, 541.37 -49.54 M237.88 296.36 C324.68 199.43, 411.06 99.72, 539.33 -50.75 M238.82 300.07 C321.61 204.22, 404.08 106.51, 545.25 -47.99 M240.80 300.83 C331.93 192.38, 427.39 82.78, 544.50 -47.73 M242.06 303.47 C317.42 220.68, 390.55 133.12, 548.63 -46.36 M242.26 305.23 C351.52 176.26, 461.82 48.49, 548.73 -47.44 M244.54 309.30 C324.81 217.24, 407.06 126.66, 553.15 -45.57 M244.79 307.31 C354.97 187.67, 460.70 65.14, 551.04 -44.46 M246.63 310.58 C357.63 185.18, 464.64 64.22, 556.68 -43.79 M247.40 311.61 C325.79 223.92, 402.29 135.95, 554.96 -43.94 M249.58 315.06 C342.06 204.09, 440.33 94.27, 559.59 -40.69 M250.60 314.64 C323.03 228.40, 399.17 142.56, 559.38 -41.79 M253.77 318.63 C367.18 189.64, 478.62 60.44, 564.04 -38.62 M253.07 317.19 C328.03 231.99, 403.34 144.35, 562.70 -38.81 M256.39 321.23 C348.08 215.87, 441.42 109.27, 565.74 -35.05 M256.02 320.08 C352.47 213.68, 448.19 104.22, 566.56 -37.08 M257.36 322.78 C330.83 242.15, 399.39 165.24, 568.30 -33.41 M257.27 323.05 C354.99 207.25, 455.70 91.65, 569.94 -35.61 M259.47 326.12 C341.19 230.13, 426.52 133.24, 572.28 -34.52 M259.39 326.34 C359.00 216.65, 456.73 105.06, 572.88 -32.54 M264.71 327.99 C348.63 230.50, 435.54 129.73, 576.90 -32.27 M263.41 330.24 C376.24 196.60, 492.69 63.36, 577.20 -31.86 M266.81 334.54 C340.77 250.07, 412.97 164.66, 581.32 -29.31 M265.72 332.34 C351.42 231.55, 437.34 133.24, 580.89 -29.28 M269.31 335.08 C354.93 235.66, 439.60 135.70, 585.82 -27.70 M268.11 335.52 C338.19 251.95, 412.64 166.31, 584.44 -28.02 M269.83 339.77 C366.61 227.76, 460.76 117.67, 586.53 -24.67 M270.36 339.28 C351.61 244.73, 431.66 152.75, 588.52 -26.15 M273.31 341.00 C384.14 211.68, 498.01 81.65, 590.40 -22.51 M273.95 342.96 C382.29 215.71, 494.42 89.11, 591.26 -24.36 M277.77 343.63 C339.68 270.99, 406.13 198.50, 594.62 -22.25 M276.22 344.82 C390.45 214.71, 504.87 83.59, 594.43 -21.61 M279.39 350.00 C370.09 238.33, 467.32 127.90, 599.46 -19.85 M279.07 348.27 C386.80 227.00, 493.58 103.38, 599.32 -19.77 M281.97 349.99 C361.48 258.32, 441.50 167.11, 603.10 -18.81 M282.46 351.76 C385.99 228.35, 491.96 105.57, 601.95 -16.53 M284.70 353.83 C370.03 251.02, 459.10 148.24, 604.59 -14.87 M284.45 352.98 C359.00 272.19, 429.47 188.99, 605.63 -14.03 M289.28 356.61 C398.45 231.54, 509.84 103.44, 606.96 -9.83 M287.49 356.40 C385.88 246.31, 480.53 135.47, 607.68 -10.84 M290.22 358.40 C414.06 221.97, 531.53 84.19, 610.24 -7.44 M290.60 359.13 C401.20 228.19, 514.42 99.09, 609.80 -7.98 M295.32 359.90 C384.27 256.89, 471.77 157.39, 612.61 -5.47 M295.34 360.61 C374.31 267.39, 457.39 173.94, 613.02 -6.53 M296.52 361.68 C414.60 233.60, 528.00 102.65, 615.66 -2.15 M297.22 363.28 C364.81 288.67, 431.00 213.46, 615.58 -2.83 M300.72 366.23 C400.83 253.56, 499.99 136.89, 617.18 0.47 M299.93 366.63 C402.72 252.29, 500.85 138.48, 618.62 0.28 M302.44 367.48 C398.32 259.68, 489.12 153.61, 620.60 2.99 M303.57 368.60 C371.50 285.75, 441.06 206.83, 622.49 2.67 M307.19 372.40 C397.07 266.04, 487.56 163.55, 622.70 5.58 M307.03 371.41 C414.05 245.24, 523.11 120.35, 624.35 6.53 M310.61 374.66 C373.71 297.57, 438.82 222.91, 628.54 10.07 M310.31 374.55 C419.76 249.02, 529.44 122.78, 627.49 8.60 M313.23 377.13 C378.25 298.45, 445.47 221.14, 628.57 12.76 M312.60 377.00 C423.34 249.76, 535.48 121.52, 629.82 11.47 M316.02 378.14 C432.83 242.51, 546.75 111.66, 631.03 15.67 M315.24 379.74 C424.91 250.88, 536.23 122.21, 631.75 13.70 M320.64 379.77 C388.16 301.32, 456.41 222.60, 634.09 16.76 M318.91 380.36 C380.90 308.41, 444.20 235.99, 636.35 16.54 M322.30 384.72 C392.03 297.87, 464.88 213.82, 638.57 22.21 M322.11 383.56 C403.51 287.94, 484.43 195.59, 637.78 20.74 M325.80 384.99 C415.82 277.05, 507.55 170.83, 640.32 21.82 M325.39 386.65 C406.10 293.46, 486.22 202.02, 641.41 22.91 M330.30 388.80 C447.96 252.79, 567.45 118.89, 643.25 25.77 M328.30 387.40 C396.99 309.62, 462.72 235.80, 642.44 26.67 M332.21 388.24 C406.48 304.18, 479.95 219.11, 646.03 29.51 M332.23 389.24 C440.03 268.75, 547.91 146.47, 645.62 29.13 M334.84 392.87 C401.06 315.12, 469.06 237.37, 648.90 32.09 M336.68 391.66 C443.75 265.97, 552.99 138.52, 647.16 33.77 M338.74 394.98 C428.96 292.09, 520.35 189.92, 651.67 36.35 M339.32 393.25 C424.09 298.89, 506.48 203.86, 649.49 36.11 M344.83 394.07 C464.84 260.39, 583.37 127.37, 653.26 39.50 M344.85 395.18 C434.48 293.42, 524.76 191.47, 652.86 39.29 M347.96 396.49 C436.26 287.98, 529.32 182.03, 656.07 44.45 M348.97 397.49 C440.99 291.88, 531.09 188.64, 653.93 43.36 M352.67 398.75 C415.80 325.88, 480.43 254.14, 655.10 46.88 M351.74 397.70 C432.38 309.35, 512.38 218.21, 656.02 47.66 M353.64 401.17 C422.24 322.61, 492.16 241.37, 659.70 49.51 M356.33 400.37 C423.07 318.96, 490.49 239.50, 659.59 51.02 M359.30 401.42 C436.87 315.04, 514.27 225.79, 660.00 55.26 M359.73 401.82 C453.83 291.59, 551.16 181.61, 661.37 54.05 M364.88 404.86 C435.98 319.35, 508.77 233.47, 664.27 58.79 M363.17 403.19 C450.70 300.26, 542.06 196.62, 663.86 57.68 M366.41 403.55 C464.70 289.20, 562.70 175.58, 666.61 61.80 M366.28 406.11 C437.82 321.93, 510.17 238.46, 665.09 61.94 M370.59 407.34 C456.04 304.32, 544.97 202.52, 666.74 63.82 M371.45 406.57 C486.65 271.36, 604.66 135.57, 668.14 64.73 M373.89 410.80 C489.52 275.24, 604.13 146.20, 669.37 67.68 M374.12 409.16 C445.70 327.67, 514.21 248.18, 671.09 67.76 M377.82 410.46 C478.74 290.44, 583.65 166.81, 671.68 71.11 M378.95 410.06 C480.36 290.79, 583.63 172.29, 671.59 71.90 M382.94 412.89 C448.30 331.31, 520.67 250.19, 676.34 77.69 M382.59 412.20 C457.34 325.40, 531.59 240.28, 674.90 75.68 M384.98 412.03 C486.87 298.23, 588.02 184.89, 675.45 80.64 M387.24 412.48 C465.07 318.99, 547.21 225.38, 677.05 79.95 M392.22 413.29 C453.37 344.22, 511.49 271.81, 677.42 83.46 M390.82 414.32 C488.64 303.47, 583.80 195.15, 677.47 85.89 M397.51 415.65 C465.13 330.62, 539.91 246.20, 679.41 90.71 M395.17 414.51 C500.79 289.68, 608.71 164.99, 678.29 88.49 M399.30 416.31 C466.60 335.69, 535.46 260.74, 680.96 92.48 M401.01 415.31 C502.33 299.80, 605.33 181.04, 679.69 93.63 M404.57 413.66 C499.75 303.28, 594.54 196.08, 681.77 97.83 M405.76 415.70 C469.88 337.44, 536.85 261.09, 680.32 98.68 M409.89 416.26 C503.24 309.65, 594.53 204.61, 682.95 102.67 M411.05 415.34 C482.09 336.17, 554.86 253.19, 682.09 103.63 M417.09 415.32 C485.07 343.48, 553.69 264.69, 681.68 108.21 M414.96 417.84 C522.08 296.19, 627.69 173.64, 683.71 107.19 M420.86 416.77 C489.94 333.28, 563.86 249.06, 684.09 111.49 M421.26 416.02 C519.54 304.28, 619.04 189.33, 685.64 112.95 M426.10 415.67 C483.23 355.65, 541.75 289.18, 686.83 117.98 M426.41 417.74 C507.17 323.49, 586.92 231.50, 687.28 116.93 M431.22 419.36 C532.22 307.25, 628.62 189.61, 689.08 123.03 M430.65 417.53 C531.46 303.72, 633.50 185.48, 687.22 122.12 M436.69 418.97 C510.94 326.82, 594.47 233.29, 688.56 125.65 M435.79 419.31 C515.89 319.84, 600.43 223.32, 689.46 126.82 M439.33 420.02 C524.55 323.53, 602.47 231.46, 689.38 132.49 M439.22 419.69 C513.82 334.44, 589.56 248.26, 689.90 131.00 M445.53 421.08 C512.71 344.17, 579.18 269.22, 693.41 137.55 M443.16 420.47 C526.19 328.04, 608.61 234.06, 690.49 135.89 M447.95 421.30 C501.95 359.01, 550.89 299.76, 690.17 141.05 M449.94 418.87 C520.09 343.58, 588.37 264.56, 691.40 141.48 M457.47 417.69 C519.71 342.94, 584.67 271.36, 694.50 147.28 M454.27 419.97 C539.36 320.33, 629.37 218.04, 692.29 147.33 M460.12 417.30 C519.23 353.72, 581.22 284.64, 693.37 154.04 M461.28 418.25 C519.59 351.17, 580.64 280.49, 692.99 152.63 M468.40 418.16 C531.57 341.10, 603.62 261.15, 692.95 160.22 M466.22 418.92 C514.63 359.54, 565.77 301.06, 693.61 159.18 M469.28 421.53 C543.47 336.82, 613.73 251.93, 694.21 166.12 M470.55 417.88 C532.69 345.97, 596.45 275.87, 693.35 164.94 M479.68 420.63 C539.80 347.42, 597.22 279.75, 695.47 168.18 M475.87 417.49 C517.36 368.07, 561.01 319.60, 692.33 169.34 M482.85 416.34 C561.13 330.12, 633.94 241.12, 695.25 176.41 M482.97 417.14 C532.45 358.65, 580.69 300.92, 693.82 175.62 M490.63 416.03 C547.06 354.66, 607.52 286.95, 696.15 183.14 M488.95 419.17 C531.46 362.42, 579.85 309.88, 694.18 180.43 M494.29 419.95 C556.79 346.18, 615.87 283.40, 697.08 186.87 M494.02 417.75 C542.01 359.97, 589.74 302.67, 693.34 186.11 M496.84 417.58 C552.11 352.42, 611.46 286.62, 693.23 192.94 M499.31 418.41 C549.82 357.48, 602.10 299.10, 694.61 194.91 M508.01 418.69 C574.49 335.87, 645.57 256.73, 691.88 199.15 M506.93 417.58 C572.99 335.17, 643.02 255.60, 694.97 199.09 M515.55 411.87 C558.33 361.30, 603.41 315.18, 694.58 210.05 M513.48 413.24 C560.44 355.70, 608.43 299.06, 692.81 208.56 M519.45 412.41 C555.89 371.85, 593.52 326.56, 691.97 218.19 M521.31 411.12 C584.17 342.40, 642.69 275.10, 690.12 216.05 M527.72 408.47 C570.27 358.61, 616.70 306.18, 686.08 226.48 M529.27 406.95 C582.34 345.76, 637.98 285.10, 689.07 223.98 M537.34 403.85 C579.64 351.75, 627.53 300.71, 684.43 233.96 M535.48 403.23 C576.12 363.10, 613.89 319.75, 686.62 231.83 M544.16 405.12 C590.92 353.32, 633.64 307.93, 686.53 241.17 M544.45 400.34 C570.71 367.88, 602.72 332.97, 685.39 239.62 M552.69 401.39 C589.31 364.89, 618.67 328.44, 682.21 247.05 M550.49 398.80 C600.43 342.19, 648.61 289.68, 682.02 249.47 M559.31 397.88 C593.99 358.31, 625.02 323.67, 685.37 254.84 M560.82 398.47 C590.83 359.86, 625.18 324.47, 681.63 258.93 M568.56 387.15 C599.53 359.14, 626.41 327.38, 674.24 269.76 M568.90 390.79 C592.08 364.74, 614.54 340.40, 673.43 273.20 M585.72 381.20 C611.48 350.18, 638.16 326.38, 667.03 288.35 M583.37 381.38 C605.86 355.64, 629.92 329.17, 664.94 288.33 M600.54 370.29 C613.65 355.14, 630.59 333.52, 656.32 298.87 M598.76 368.93 C618.25 346.56, 638.11 320.88, 656.67 302.02" fill="#faf7ef" stroke="none"/><path d="M267.22 14.07 C276.75 -3.13, 294.50 -16.60, 311.11 -27.68 C327.71 -38.76, 347.43 -45.50, 366.87 -52.41 C386.31 -59.31, 407.71 -66.54, 427.74 -69.11 C447.76 -71.69, 467.24 -71.43, 487.03 -67.86 C506.82 -64.29, 527.74 -55.70, 546.48 -47.70 C565.21 -39.70, 583.39 -32.00, 599.45 -19.86 C615.52 -7.72, 630.26 9.03, 642.85 25.15 C655.44 41.27, 666.95 58.35, 675.01 76.84 C683.07 95.32, 688.12 115.95, 691.22 136.09 C694.31 156.22, 695.46 177.10, 693.59 197.66 C691.72 218.23, 687.06 240.13, 680.01 259.49 C672.96 278.84, 662.68 296.97, 651.31 313.79 C639.94 330.61, 626.49 346.79, 611.79 360.41 C597.09 374.03, 581.07 386.15, 563.11 395.52 C545.16 404.89, 523.78 412.55, 504.07 416.63 C484.37 420.71, 465.09 420.68, 444.88 420.01 C424.68 419.34, 402.82 418.25, 382.83 412.61 C362.84 406.96, 342.32 396.84, 324.93 386.12 C307.54 375.39, 292.51 362.09, 278.49 348.26 C264.47 334.43, 251.43 320.67, 240.80 303.15 C230.17 285.63, 220.70 262.80, 214.70 243.15 C208.71 223.50, 205.46 205.10, 204.81 185.25 C204.17 165.40, 206.72 143.85, 210.83 124.05 C214.95 104.26, 218.02 87.08, 229.52 66.49 C241.03 45.89, 268.78 12.85, 279.86 0.49 C290.95 -11.88, 293.74 -10.93, 296.02 -7.70 M654.46 37.06 C668.17 50.28, 672.60 71.83, 679.26 90.75 C685.93 109.68, 692.42 130.08, 694.44 150.61 C696.45 171.14, 694.43 194.16, 691.36 213.93 C688.29 233.70, 683.50 250.62, 676.00 269.23 C668.50 287.84, 658.76 308.86, 646.36 325.58 C633.97 342.29, 618.03 357.64, 601.62 369.52 C585.21 381.40, 566.71 388.62, 547.92 396.85 C529.12 405.09, 508.69 415.38, 488.86 418.95 C469.02 422.52, 449.33 419.79, 428.91 418.27 C408.49 416.75, 385.93 416.07, 366.32 409.84 C346.71 403.61, 327.98 392.62, 311.25 380.90 C294.52 369.18, 278.68 355.33, 265.95 339.54 C253.22 323.75, 244.26 304.32, 234.89 286.16 C225.52 267.99, 214.55 249.89, 209.74 230.54 C204.93 211.19, 205.15 189.77, 206.02 170.05 C206.88 150.34, 209.42 131.98, 214.92 112.26 C220.43 92.53, 229.28 69.40, 239.05 51.70 C248.81 34.00, 259.98 20.57, 273.54 6.07 C287.09 -8.43, 302.45 -24.08, 320.39 -35.30 C338.32 -46.51, 361.14 -56.08, 381.16 -61.22 C401.18 -66.36, 420.36 -66.21, 440.51 -66.11 C460.66 -66.01, 482.57 -64.53, 502.04 -60.62 C521.52 -56.71, 539.66 -51.54, 557.35 -42.65 C575.05 -33.75, 592.03 -20.02, 608.19 -7.27 C624.36 5.48, 647.83 26.33, 654.33 33.85 C660.83 41.38, 651.14 34.64, 647.19 37.87" fill="none" stroke="#202020" stroke-width="2" stroke-linecap="round" stroke-linejoin="round"/><path d="M529.08 106.10 C538.24 114.39, 544.29 128.91, 548.88 140.74 C553.46 152.57, 556.97 164.11, 556.60 177.11 C556.24 190.11, 551.92 205.94, 546.70 218.72 C541.49 231.49, 533.94 244.49, 525.31 253.77 C516.68 263.04, 506.53 269.43, 494.92 274.37 C483.31 279.31, 468.26 282.45, 455.64 283.40 C443.03 284.34, 430.93 283.43, 419.25 280.06 C407.56 276.70, 395.53 271.65, 385.55 263.19 C375.57 254.72, 366.03 241.16, 359.37 229.28 C352.72 217.39, 347.67 204.44, 345.61 191.86 C343.56 179.29, 344.29 166.29, 347.04 153.81 C349.78 141.34, 355.04 128.50, 362.09 117.03 C369.14 105.56, 379.12 92.81, 389.34 84.99 C399.55 77.18, 411.19 72.93, 423.39 70.13 C435.58 67.34, 449.77 66.45, 462.50 68.21 C475.22 69.96, 484.98 68.43, 499.75 80.65 C514.51 92.86, 542.42 123.51, 551.09 141.51 C559.76 159.51, 553.23 187.72, 551.77 188.67 M482.61 72.96 C494.54 74.95, 508.76 83.98, 518.78 91.86 C528.80 99.74, 536.32 108.84, 542.73 120.24 C549.15 131.64, 555.76 147.21, 557.28 160.26 C558.79 173.31, 554.56 185.42, 551.80 198.54 C549.05 211.66, 547.29 228.09, 540.74 238.98 C534.20 249.87, 523.63 256.54, 512.51 263.88 C501.39 271.23, 487.01 279.45, 474.00 283.04 C460.99 286.63, 447.21 286.97, 434.48 285.43 C421.74 283.88, 408.38 280.60, 397.60 273.75 C386.83 266.89, 378.08 254.82, 369.82 244.29 C361.56 233.76, 352.71 222.27, 348.05 210.57 C343.40 198.86, 341.42 187.45, 341.88 174.05 C342.33 160.65, 345.08 142.51, 350.77 130.16 C356.46 117.81, 366.86 109.32, 376.01 99.96 C385.15 90.59, 394.61 79.70, 405.64 73.97 C416.67 68.23, 429.79 66.15, 442.20 65.55 C454.62 64.94, 473.63 69.02, 480.13 70.34 C486.62 71.65, 481.02 71.87, 481.17 73.45" fill="#faf7ef" stroke="none"/><path d="M359.96 117.49 C365.01 105.66, 377.58 92.94, 388.17 85.19 C398.76 77.45, 411.23 74.31, 423.49 71.04 C435.75 67.77, 449.02 64.05, 461.74 65.57 C474.46 67.08, 488.19 73.92, 499.80 80.13 C511.42 86.34, 523.05 93.06, 531.44 102.81 C539.82 112.56, 546.31 126.24, 550.12 138.63 C553.94 151.02, 554.49 164.20, 554.33 177.14 C554.17 190.08, 553.75 203.74, 549.15 216.29 C544.55 228.83, 535.65 242.90, 526.72 252.42 C517.78 261.93, 507.30 267.97, 495.54 273.38 C483.78 278.80, 468.93 283.86, 456.15 284.89 C443.36 285.93, 430.92 283.42, 418.80 279.57 C406.69 275.73, 393.60 269.63, 383.44 261.83 C373.28 254.03, 363.99 244.26, 357.82 232.77 C351.66 221.28, 348.65 206.27, 346.47 192.89 C344.29 179.51, 333.41 172.68, 344.75 152.51 C356.09 132.34, 392.36 84.93, 414.49 71.89 C436.62 58.85, 476.94 72.58, 477.53 74.28 M462.15 69.13 C474.77 69.28, 487.08 74.18, 498.22 80.08 C509.36 85.97, 520.92 95.18, 529.00 104.51 C537.08 113.84, 542.09 123.59, 546.70 136.04 C551.30 148.49, 555.95 166.00, 556.64 179.21 C557.33 192.41, 555.21 203.13, 550.84 215.28 C546.47 227.44, 539.75 242.59, 530.39 252.13 C521.04 261.67, 506.53 266.99, 494.70 272.52 C482.87 278.05, 471.90 284.14, 459.41 285.30 C446.92 286.46, 431.92 283.00, 419.76 279.47 C407.60 275.95, 396.54 271.95, 386.46 264.18 C376.38 256.40, 365.83 244.70, 359.27 232.83 C352.70 220.97, 349.17 206.18, 347.09 192.98 C345.00 179.78, 344.79 165.86, 346.74 153.63 C348.69 141.41, 352.32 130.86, 358.76 119.62 C365.20 108.38, 374.73 94.63, 385.36 86.18 C395.99 77.73, 410.46 72.56, 422.53 68.92 C434.61 65.29, 451.45 64.13, 457.79 64.37 C464.12 64.61, 460.18 68.60, 460.56 70.37" fill="none" stroke="#202020" stroke-width="2" stroke-linecap="round" stroke-linejoin="round"/><path d="M657.99 -28.42 C681.73 -53.00, 698.74 -70.20, 740.16 -110.20 M656.54 -28.63 C672.17 -46.98, 689.43 -66.50, 734.83 -109.94" fill="none" stroke="#202020" stroke-width="2" stroke-linecap="round" stroke-linejoin="round"/><path d="M657.34 385.98 C672.57 398.72, 692.33 419.37, 735.26 459.11 M656.27 382.82 C676.45 399.74, 691.14 419.61, 735.18 461.09" fill="none" stroke="#202020" stroke-width="2" stroke-linecap="round" stroke-linejoin="round"/><path d="M243.18 379.70 C222.29 405.11, 202.14 421.08, 166.07 462.64 M244.32 380.72 C219.76 410.05, 191.12 433.33, 161.79 462.17" fill="none" stroke="#202020" stroke-width="2" stroke-linecap="round" stroke-linejoin="round"/><path d="M240.41 -26.54 C222.41 -55.37, 193.96 -82.00, 167.44 -111.75 M243.59 -31.12 C223.33 -50.67, 201.59 -72.15, 164.09 -109.42" fill="none" stroke="#202020" stroke-width="2" stroke-linecap="round" stroke-linejoin="round"/></svg>