<svg xmlns="http://www.w3.org/2000/svg" viewBox="0 0 900 320" width="900" height="320"><path d="M14.79 13.03 C204.82 7.99, 396.63 10.04, 884.49 12.81 M14.64 13.67 C331.72 17.97, 650.90 17.40, 886.46 13.33 M887.85 13.30 C888.77 105.99, 888.83 200.98, 884.55 304.60 M886.90 12.54 C887.27 109.81, 887.54 203.74, 886.43 307.49 M886.54 307.19 C661.71 311.04, 434.68 310.66, 14.49 305.77 M885.74 305.54 C615.51 299.16, 344.47 299.14, 13.53 305.29 M12.29 306.89 C14.88 222.80, 16.67 140.88, 16.93 16.38 M15.05 304.61 C14.38 199.78, 16.51 95.93, 13.54 15.04" fill="none" stroke="#202020" stroke-width="2" stroke-linecap="round" stroke-linejoin="round"/><path d="M28.21 32.79 C336.04 29.77, 642.72 31.02, 870.45 30.85 M27.67 31.99 C284.69 28.67, 542.19 28.12, 872.05 31.47" fill="none" stroke="#202020" stroke-width="2" stroke-linecap="round" stroke-linejoin="round"/><path d="M26.87 118.66 C327.14 112.11, 623.89 113.16, 873.52 115.79 M28.33 117.11 C216.66 124.35, 405.23 123.44, 871.84 116.96" fill="none" stroke="#202020" stroke-width="2" stroke-linecap="round" stroke-linejoin="round"/><path d="M28.45 204.21 C220.17 208.18, 410.10 207.99, 870.70 203.13 M27.23 201.97 C295.46 208.34, 562.16 208.85, 872.59 202.70" fill="none" stroke="#202020" stroke-width="2" stroke-linecap="round" stroke-linejoin="round"/><path d="M27.80 288.53 C231.99 292.80, 432.41 293.99, 871.53 286.96 M27.98 287.48 C298.39 280.85, 569.38 281.27, 871.77 287.25" fill="none" stroke="#202020" stroke-width="2" stroke-linecap="round" stroke-linejoin="round"/></svg>