<svg xmlns="http://www.w3.org/2000/svg" viewBox="0 0 900 300" width="900" height="300"><path d="M5.95 4.22 L891.86 8.37 L893.77 293.19 L5.04 294.13" fill="#faf7ef" stroke="none"/><path d="M6.20 6.12 C311.94 11.34, 617.27 11.79, 895.81 6.04 M5.56 4.52 C277.78 4.49, 551.31 4.28, 894.81 5.46 M897.60 5.37 C896.00 79.49, 900.32 150.20, 895.72 297.13 M894.99 6.33 C893.09 112.19, 894.69 215.19, 893.87 295.10 M896.38 295.27 C700.22 298.37, 507.10 299.52, 5.96 294.71 M895.45 294.32 C647.28 299.36, 401.46 299.48, 4.24 295.78 M4.88 297.85 C3.73 199.30, 7.98 99.71, 7.12 2.47 M3.64 296.33 C2.76 196.84, 2.75 96.72, 4.47 6.05" fill="none" stroke="#202020" stroke-width="2" stroke-linecap="round" stroke-linejoin="round"/><path d="M450.93 134.32 L460.97 146.81 L447.01 163.95 L439.31 148.45" fill="#faf7ef" stroke="none"/><path d="M450.37 135.04 C455.78 141.54, 459.94 147.60, 464.76 146.97 M451.48 135.80 C454.12 140.28, 457.54 144.39, 463.88 148.69 M464.68 149.19 C461.35 152.15, 456.85 156.88, 453.55 163.49 M462.59 148.17 C460.94 152.66, 457.86 158.85, 449.16 164.69 M448.91 164.37 C443.34 163.43, 446.00 159.81, 435.69 153.27 M449.53 164.53 C447.73 161.04, 445.51 158.11, 439.68 151.74 M441.01 153.77 C445.85 143.74, 448.15 141.43, 446.68 138.13 M436.13 149.98 C442.84 146.83, 444.84 140.60, 448.59 135.75" fill="none" stroke="#202020" stroke-width="2" stroke-linecap="round" stroke-linejoin="round"/></svg>