<svg xmlns="http://www.w3.org/2000/svg" viewBox="0 0 960 420" width="960" height="420"><path d="M3.01 1.81 L956.24 1.69 L952.83 417.09 L3.17 416.37" fill="#faf7ef" stroke="none"/><path d="M4.75 5.32 C319.35 -3.14, 635.11 -3.11, 955.91 4.65 M4.35 4.65 C299.08 7.21, 593.52 7.26, 955.16 5.67 M953.10 3.79 C951.78 99.49, 951.06 195.91, 954.74 415.60 M955.76 5.77 C956.90 86.11, 954.80 169.40, 953.99 414.99 M955.67 415.91 C586.43 411.63, 217.77 408.68, 5.78 413.97 M954.85 415.58 C607.38 415.53, 260.03 415.90, 4.73 415.42 M4.20 414.11 C9.10 254.34, 6.77 96.96, 6.96 3.20 M4.02 415.16 C5.07 306.57, 6.63 198.66, 4.14 4.14" fill="none" stroke="#202020" stroke-width="2" stroke-linecap="round" stroke-linejoin="round"/><path d="M482.01 193.53 L495.81 206.85 L480.41 227.38 L466.42 207.40" fill="#faf7ef" stroke="none"/><path d="M482.17 196.95 C483.86 194.40, 483.40 201.42, 494.19 207.51 M479.62 195.25 C483.79 201.32, 488.89 203.40, 490.29 210.78 M494.93 207.02 C485.32 213.29, 486.17 215.26, 477.99 223.99 M491.35 210.80 C486.96 215.59, 481.64 223.68, 480.23 225.01 M478.96 223.56 C475.61 224.36, 471.43 216.27, 471.01 210.77 M480.69 224.73 C475.50 222.26, 472.87 217.51, 468.86 208.71 M467.25 207.71 C469.83 207.49, 474.61 200.09, 478.04 195.24 M467.46 211.74 C471.78 206.84, 471.57 204.60, 478.71 193.40" fill="none" stroke="#202020" stroke-width="2" stroke-linecap="round" stroke-linejoin="round"/></svg>