<svg xmlns="http://www.w3.org/2000/svg" viewBox="0 0 900 320" width="900" height="320"><path d="M321.90 75.77 C321.90 75.77, 321.90 75.77, 321.90 75.77 M321.90 75.77 C321.90 75.77, 321.90 75.77, 321.90 75.77 M311.72 89.56 C331.13 73.18, 348.24 49.55, 359.52 41.82 M314.08 90.62 C330.29 72.16, 348.76 51.32, 359.45 40.30 M305.88 104.84 C332.06 80.53, 358.25 49.38, 371.24 38.17 M306.27 106.75 C331.27 80.23, 354.35 52.54, 369.47 34.17 M298.33 116.94 C315.72 100.87, 332.02 79.03, 379.76 25.51 M301.45 118.91 C319.04 98.39, 337.29 76.48, 380.78 30.34 M301.13 124.79 C321.24 100.46, 347.26 71.00, 386.47 23.86 M300.40 123.24 C318.04 101.52, 337.56 80.84, 387.57 23.28 M298.88 131.34 C333.26 84.99, 373.68 48.29, 397.10 20.05 M300.06 133.64 C328.28 100.59, 356.04 66.11, 400.06 16.74 M299.66 139.68 C334.47 95.73, 377.01 49.22, 406.68 18.10 M298.68 137.11 C343.17 87.14, 385.28 39.39, 405.44 13.44 M299.68 149.73 C336.59 104.95, 372.45 60.15, 414.74 14.81 M296.22 147.63 C333.76 112.42, 362.09 72.81, 412.86 15.17 M293.06 152.85 C336.34 102.68, 380.87 50.78, 419.76 14.20 M297.00 152.36 C337.12 109.82, 379.17 60.05, 417.80 12.48 M291.39 159.26 C333.02 120.70, 378.00 74.65, 422.12 8.24 M293.79 160.67 C325.69 123.12, 357.85 85.83, 425.96 12.18 M294.14 170.70 C331.50 125.89, 365.79 92.93, 433.66 10.40 M296.40 167.48 C341.49 116.55, 384.29 65.69, 431.56 8.53 M291.77 173.74 C324.63 137.30, 353.61 100.41, 441.15 5.83 M293.95 175.37 C325.47 136.80, 357.40 101.85, 437.45 6.91 M291.75 179.33 C353.66 112.49, 414.63 45.64, 443.63 8.98 M295.13 179.75 C333.05 131.19, 369.79 85.90, 445.57 8.07 M298.16 188.66 C326.86 147.80, 362.07 103.93, 447.84 5.28 M296.16 186.90 C339.54 129.07, 388.85 73.59, 450.80 7.37 M293.45 191.06 C354.06 130.49, 406.44 68.62, 452.65 11.63 M294.01 192.24 C355.33 128.36, 411.58 63.57, 453.30 8.92 M298.37 200.04 C343.01 137.90, 400.14 76.44, 460.68 8.75 M294.35 195.91 C328.77 155.46, 365.86 116.94, 458.80 9.01 M292.63 205.65 C342.32 149.86, 395.16 91.31, 461.12 7.10 M293.97 204.13 C360.76 129.89, 425.28 57.73, 463.58 9.46 M298.00 207.29 C348.17 147.14, 401.82 84.47, 465.93 10.71 M295.87 210.21 C342.16 154.79, 388.98 99.22, 468.94 10.01 M294.06 215.34 C327.46 172.61, 363.20 134.59, 473.76 9.41 M295.96 214.33 C358.75 146.94, 421.50 76.27, 472.70 11.87 M298.94 221.54 C362.59 141.67, 435.00 63.33, 480.82 9.26 M296.80 220.49 C358.44 151.35, 416.70 82.07, 478.54 12.30 M299.62 225.17 C369.21 145.25, 439.06 62.81, 485.88 14.98 M298.87 223.43 C364.12 145.78, 434.75 68.29, 482.73 12.68 M301.89 231.85 C354.48 168.00, 411.99 101.10, 490.00 11.67 M299.02 229.12 C364.29 155.91, 429.21 82.82, 487.48 14.49 M300.25 229.76 C345.82 180.80, 383.85 133.44, 490.42 11.58 M303.37 233.05 C362.15 164.80, 422.91 94.28, 493.89 14.63 M301.13 237.12 C350.48 187.23, 388.32 142.54, 498.71 17.13 M304.13 236.60 C345.60 193.38, 386.20 147.86, 496.33 15.85 M308.54 243.37 C364.58 173.98, 418.36 113.37, 501.35 15.81 M305.91 240.31 C377.41 159.73, 449.93 76.77, 499.40 17.05 M306.93 244.23 C383.64 157.49, 454.13 78.92, 502.83 16.67 M307.26 243.69 C357.82 185.31, 408.61 127.45, 503.30 18.70 M310.34 249.34 C381.82 170.91, 449.71 90.27, 508.37 22.72 M309.59 248.17 C350.97 195.61, 392.41 147.23, 507.05 21.34 M314.08 250.08 C378.15 174.48, 443.52 93.35, 510.40 23.21 M311.92 252.95 C361.81 197.33, 405.38 144.60, 512.03 22.32 M316.38 255.87 C366.90 196.18, 416.74 137.47, 513.92 21.98 M314.85 255.59 C382.13 177.46, 449.05 101.61, 514.34 26.10 M317.53 257.57 C377.69 186.66, 441.60 114.04, 518.60 24.78 M314.73 258.70 C376.74 189.16, 438.62 120.62, 517.91 26.60 M319.60 266.38 C394.00 186.32, 466.08 99.14, 521.15 29.23 M316.49 265.07 C382.57 191.84, 446.68 119.91, 522.60 28.90 M317.37 265.71 C373.61 210.85, 425.21 150.10, 527.08 28.40 M318.61 268.04 C396.79 182.88, 469.47 97.41, 526.07 28.96 M322.83 270.39 C370.11 214.73, 420.15 154.48, 529.61 33.37 M322.98 269.56 C373.24 213.98, 424.54 155.88, 529.47 31.19 M323.67 275.60 C404.38 183.75, 479.63 94.52, 534.08 34.39 M326.16 273.16 C393.14 194.94, 463.37 115.38, 532.80 33.26 M326.35 277.36 C378.65 216.74, 433.42 155.18, 534.73 37.12 M328.00 276.57 C407.72 184.19, 487.46 92.79, 536.01 34.98 M330.59 281.21 C400.73 197.16, 473.56 114.24, 538.10 39.97 M329.05 278.94 C408.98 191.52, 487.61 101.58, 540.03 39.24 M334.79 281.25 C410.70 195.34, 488.74 102.80, 541.06 43.65 M333.69 281.33 C404.04 199.81, 472.63 120.83, 543.77 41.95 M335.28 285.09 C387.54 225.32, 436.02 165.14, 545.21 46.30 M335.76 286.03 C397.68 211.42, 461.17 137.77, 545.27 43.72 M340.28 291.84 C417.18 198.40, 488.81 114.23, 546.42 45.41 M337.48 289.74 C400.28 217.01, 461.66 145.22, 547.66 46.01 M339.67 290.70 C402.43 226.16, 465.29 154.00, 554.50 46.32 M339.18 292.86 C402.35 220.62, 463.10 150.53, 551.34 50.26 M342.43 293.25 C413.38 216.02, 483.27 136.09, 556.09 50.16 M341.63 296.42 C402.93 226.23, 460.16 159.87, 553.70 53.47 M344.51 299.04 C387.19 249.29, 432.47 200.07, 558.93 57.09 M345.22 300.07 C393.49 245.21, 440.61 191.52, 557.84 55.40 M345.27 303.60 C432.15 204.36, 513.78 109.33, 558.62 59.93 M348.53 301.82 C416.16 223.37, 485.01 145.13, 561.38 57.52 M348.20 307.11 C422.22 224.77, 497.83 138.99, 561.44 62.65 M349.44 303.45 C399.66 251.57, 450.17 194.84, 564.16 59.05 M356.01 305.05 C418.74 228.32, 489.02 150.44, 568.98 65.65 M355.54 305.44 C431.35 212.39, 512.79 118.09, 565.64 62.29 M357.40 307.50 C437.14 219.37, 514.64 132.10, 570.36 64.40 M357.06 308.87 C424.90 233.47, 493.25 156.59, 568.71 65.43 M359.00 311.93 C428.18 229.13, 504.15 144.72, 569.76 66.17 M360.22 311.55 C415.07 244.42, 472.27 178.30, 571.42 68.29 M366.00 315.61 C429.14 236.71, 492.22 167.97, 574.87 70.18 M363.89 312.80 C422.00 249.66, 475.68 186.21, 574.86 71.67 M364.59 313.99 C436.80 234.74, 508.54 152.63, 576.90 74.79 M365.87 316.70 C417.69 256.54, 467.91 197.16, 576.15 77.08 M370.59 317.75 C416.65 265.93, 463.61 214.65, 577.53 82.01 M371.36 319.05 C452.66 226.44, 532.52 132.88, 579.39 80.85 M374.60 318.16 C440.41 244.54, 501.37 172.30, 581.07 80.60 M373.84 322.28 C446.29 236.51, 521.46 155.10, 579.84 83.72 M378.42 323.65 C455.95 236.59, 527.74 145.36, 581.99 84.29 M378.07 322.24 C434.79 252.30, 494.94 185.59, 584.08 87.21 M382.03 327.34 C452.63 244.11, 522.83 158.16, 583.85 88.62 M379.51 326.21 C443.05 252.19, 505.90 178.07, 583.40 89.85 M382.26 327.69 C455.82 245.32, 527.14 157.72, 584.35 93.68 M384.01 327.56 C427.96 272.43, 478.45 215.06, 586.99 94.47 M385.51 327.18 C453.72 254.79, 517.54 175.90, 587.29 100.05 M386.25 331.05 C437.88 271.96, 492.04 213.09, 590.57 96.93 M391.60 330.43 C437.45 283.06, 482.95 228.02, 588.75 101.55 M391.73 330.54 C452.69 265.09, 513.04 194.94, 590.15 100.73 M394.97 330.08 C456.14 253.62, 521.44 183.83, 592.81 102.23 M394.56 333.05 C461.80 253.90, 531.58 175.39, 594.55 105.12 M401.12 334.48 C456.98 271.47, 505.66 206.88, 594.48 110.31 M400.45 334.56 C453.71 274.56, 505.88 215.07, 595.36 109.01 M402.68 335.19 C462.51 263.42, 524.08 191.62, 597.84 115.08 M402.06 336.96 C455.27 268.25, 513.09 203.70, 596.92 112.61 M406.10 337.50 C463.80 272.97, 525.09 203.90, 597.09 115.92 M407.84 336.88 C455.75 285.51, 503.59 230.02, 598.26 117.55 M412.18 338.48 C445.86 291.89, 488.77 246.79, 597.87 123.53 M411.61 338.24 C458.75 283.85, 504.57 228.77, 596.64 124.69 M412.45 337.81 C489.64 254.39, 559.78 172.63, 601.38 128.92 M414.83 339.98 C463.29 282.14, 513.33 224.70, 598.32 128.29 M422.08 341.92 C462.47 290.98, 507.32 241.33, 598.88 133.12 M419.86 341.68 C464.98 286.86, 511.27 234.24, 599.45 132.45 M421.36 344.11 C462.87 290.02, 510.24 244.50, 600.09 139.20 M424.25 341.25 C492.06 265.91, 556.98 191.47, 601.59 137.92 M430.79 342.27 C495.21 268.01, 555.59 193.84, 603.89 141.13 M427.40 344.82 C484.10 279.29, 537.30 213.15, 602.36 144.10 M434.79 347.95 C493.27 277.39, 558.45 209.64, 600.84 152.14 M431.59 346.74 C472.47 300.05, 511.02 255.43, 602.77 148.40 M436.13 345.82 C472.66 302.23, 506.08 262.26, 603.53 152.60 M437.01 346.31 C491.98 285.18, 544.70 225.90, 602.54 153.54 M442.65 344.56 C502.90 274.01, 560.18 207.62, 607.90 157.54 M442.75 343.47 C494.83 285.29, 545.35 230.97, 604.25 158.54 M446.84 347.21 C478.96 302.51, 517.87 263.37, 605.90 159.61 M448.52 342.43 C500.48 283.70, 554.39 222.80, 608.14 161.81 M451.63 340.59 C499.58 290.17, 552.10 235.41, 608.93 164.97 M454.22 344.46 C491.57 304.50, 527.99 264.33, 607.28 166.36 M457.62 341.34 C508.42 287.04, 563.31 229.26, 605.02 171.55 M461.89 341.81 C505.46 290.58, 555.82 232.14, 608.72 173.05 M468.31 342.61 C516.48 278.23, 571.42 219.20, 606.84 181.07 M466.48 341.33 C512.68 285.82, 559.59 229.42, 606.80 179.57 M473.94 345.96 C520.04 286.98, 569.76 225.53, 609.96 185.30 M472.04 343.17 C520.56 282.07, 572.27 225.41, 608.62 186.81 M481.08 339.42 C516.20 300.06, 547.14 254.47, 605.65 195.01 M477.08 341.84 C512.85 302.96, 541.65 266.68, 608.91 189.14 M488.93 341.46 C525.76 296.92, 568.20 247.92, 609.69 195.05 M486.79 338.20 C533.48 285.54, 581.04 231.56, 608.03 195.94 M491.89 338.55 C533.63 284.69, 578.23 240.60, 607.20 206.85 M492.86 336.45 C521.97 303.46, 553.62 267.53, 608.37 202.16 M503.20 334.59 C544.43 286.70, 578.37 243.43, 606.03 211.45 M499.86 332.10 C528.94 303.47, 556.21 270.87, 608.87 212.18 M509.85 326.40 C538.44 289.13, 570.94 254.94, 603.99 224.80 M511.19 330.88 C534.05 295.57, 564.19 262.40, 602.12 220.60 M519.92 324.35 C540.30 294.01, 565.89 265.64, 597.50 232.54 M519.33 327.89 C537.93 300.49, 563.79 273.61, 598.43 233.28 M525.80 328.12 C540.19 302.50, 560.44 279.30, 596.81 240.30 M524.53 324.81 C540.46 305.04, 561.19 284.58, 595.78 244.26 M536.19 318.69 C555.18 288.15, 575.94 265.08, 589.81 257.06 M535.71 318.63 C552.05 299.20, 565.85 281.83, 589.91 252.02 M550.02 308.31 C564.88 292.76, 575.21 286.44, 587.36 256.37 M550.37 304.99 C560.66 293.40, 572.99 280.56, 592.60 258.17" fill="#faf7ef" stroke="none"/><path d="M491.63 12.55 C506.59 14.56, 522.75 25.30, 535.84 34.42 C548.93 43.55, 560.34 54.85, 570.17 67.29 C579.99 79.73, 588.95 93.57, 594.78 109.06 C600.62 124.54, 603.15 143.36, 605.17 160.18 C607.18 177.01, 609.53 193.72, 606.86 209.99 C604.19 226.25, 596.85 243.32, 589.14 257.77 C581.43 272.22, 571.95 285.54, 560.61 296.69 C549.27 307.85, 534.89 317.29, 521.09 324.70 C507.29 332.11, 492.82 337.99, 477.82 341.16 C462.82 344.34, 446.57 345.81, 431.11 343.74 C415.64 341.67, 398.98 335.70, 385.02 328.72 C371.06 321.75, 358.73 312.82, 347.36 301.90 C335.99 290.98, 325.45 276.84, 316.80 263.22 C308.15 249.59, 299.23 236.13, 295.46 220.17 C291.70 204.20, 293.30 184.60, 294.22 167.45 C295.14 150.29, 296.38 132.53, 300.98 117.26 C305.59 102.00, 312.42 88.87, 321.84 75.83 C331.26 62.80, 344.67 49.05, 357.53 39.06 C370.39 29.07, 384.64 21.37, 399.01 15.90 C413.38 10.43, 422.40 4.44, 443.76 6.24 C465.11 8.04, 508.75 18.91, 527.15 26.72 C545.55 34.52, 555.63 50.54, 554.14 53.06 M433.45 7.07 C447.87 3.12, 468.33 8.09, 483.28 11.61 C498.22 15.14, 509.39 20.32, 523.11 28.22 C536.82 36.12, 554.17 47.10, 565.56 59.01 C576.94 70.91, 584.33 84.78, 591.41 99.68 C598.49 114.57, 605.58 132.24, 608.03 148.37 C610.49 164.49, 608.70 180.44, 606.13 196.44 C603.57 212.43, 598.98 229.14, 592.66 244.33 C586.34 259.52, 578.09 275.33, 568.21 287.60 C558.33 299.87, 546.38 308.80, 533.39 317.94 C520.40 327.08, 505.07 337.73, 490.28 342.44 C475.48 347.15, 460.67 347.46, 444.61 346.18 C428.55 344.90, 409.33 340.67, 393.91 334.75 C378.49 328.83, 363.59 320.36, 352.08 310.68 C340.57 301.00, 333.51 289.78, 324.86 276.67 C316.22 263.55, 305.80 248.50, 300.22 231.97 C294.65 215.45, 292.17 194.57, 291.42 177.54 C290.66 160.50, 290.88 145.56, 295.67 129.76 C300.47 113.95, 311.43 96.55, 320.18 82.68 C328.93 68.82, 336.99 57.42, 348.17 46.58 C359.36 35.75, 373.19 24.37, 387.28 17.68 C401.37 10.99, 424.80 7.47, 432.72 6.43 C440.64 5.40, 434.11 8.08, 434.78 11.48" fill="none" stroke="#202020" stroke-width="2" stroke-linecap="round" stroke-linejoin="round"/><path d="M270.26 5.71 C270.26 5.71, 270.26 5.71, 270.26 5.71 M270.26 5.71 C270.26 5.71, 270.26 5.71, 270.26 5.71 M255.03 31.60 C260.95 22.62, 270.99 14.64, 291.35 -13.98 M252.89 29.51 C265.89 16.14, 279.54 -0.21, 288.46 -11.54 M238.66 58.66 C263.12 24.08, 289.23 -4.30, 311.84 -24.06 M237.09 57.43 C256.97 35.32, 275.09 12.81, 310.94 -26.78 M236.81 62.24 C274.01 27.45, 302.41 -15.42, 317.55 -30.86 M237.11 63.67 C269.60 26.88, 301.85 -13.25, 318.66 -31.96 M232.99 70.48 C269.67 34.61, 305.78 -9.05, 322.60 -36.93 M231.72 73.28 C260.66 42.04, 285.08 13.08, 327.98 -32.52 M226.93 83.24 C258.28 60.41, 278.11 25.60, 333.86 -40.68 M229.74 86.15 C270.45 35.11, 311.52 -10.09, 333.25 -38.36 M225.99 98.89 C263.33 52.55, 307.09 -3.49, 341.64 -45.72 M224.33 95.85 C245.26 67.87, 269.15 36.72, 345.21 -41.09 M217.04 104.60 C254.47 72.16, 288.61 34.40, 351.71 -47.97 M218.36 108.72 C249.93 72.28, 278.95 36.99, 353.72 -47.35 M213.65 122.09 C249.59 79.04, 283.29 38.54, 365.28 -50.38 M213.53 118.58 C270.47 50.72, 330.00 -13.57, 362.32 -50.14 M210.41 125.18 C249.53 93.95, 278.11 50.71, 371.76 -57.45 M213.16 125.59 C246.10 89.16, 280.34 50.27, 374.31 -58.62 M213.17 135.17 C263.93 80.89, 309.33 27.30, 380.01 -57.26 M212.71 134.00 C277.74 56.11, 343.21 -18.29, 380.33 -59.36 M214.01 140.56 C257.25 86.49, 306.40 33.91, 384.35 -61.51 M211.41 140.95 C251.55 95.34, 292.13 46.75, 385.20 -59.81 M208.14 146.35 C264.63 87.77, 321.25 18.29, 390.51 -60.27 M211.42 147.29 C243.85 107.45, 280.96 63.23, 392.33 -60.71 M209.23 157.28 C259.47 99.67, 307.28 46.83, 400.61 -64.95 M208.00 156.69 C261.80 88.57, 318.39 23.80, 399.51 -62.59 M207.53 160.76 C255.30 104.98, 307.12 45.09, 403.89 -61.04 M209.21 163.14 C273.13 86.31, 336.04 14.33, 404.72 -62.85 M205.05 167.50 C254.68 116.51, 305.44 59.82, 410.74 -63.31 M206.81 168.84 C258.36 109.11, 312.48 49.04, 411.46 -64.35 M202.56 180.14 C246.89 131.76, 293.52 77.79, 416.94 -68.43 M205.38 179.09 C252.92 122.47, 302.53 65.18, 417.32 -66.92 M203.70 183.10 C257.16 124.07, 308.69 68.74, 425.76 -69.47 M204.12 184.86 C262.12 116.38, 319.51 50.03, 424.47 -69.04 M203.35 188.85 C274.62 112.47, 342.64 28.20, 428.31 -69.22 M204.82 190.20 C284.03 98.04, 360.40 6.93, 430.74 -69.94 M204.81 195.92 C299.43 90.12, 386.03 -11.36, 434.37 -69.25 M205.27 195.20 C268.41 126.38, 329.98 56.50, 436.52 -70.21 M204.97 201.38 C282.10 110.24, 364.13 19.09, 441.98 -67.49 M207.02 200.95 C289.71 108.86, 371.63 13.11, 441.69 -67.66 M209.05 204.31 C272.60 130.24, 342.10 55.73, 444.66 -66.79 M206.44 206.64 C272.50 129.05, 337.42 54.36, 446.96 -68.73 M205.87 211.82 C287.98 121.58, 366.38 34.59, 451.54 -68.06 M206.94 212.44 C278.42 128.84, 350.59 44.57, 450.89 -68.01 M208.29 215.82 C274.10 141.59, 338.31 66.23, 457.73 -67.47 M209.37 215.56 C303.21 104.37, 401.36 -6.47, 457.54 -68.82 M208.37 221.93 C282.15 142.21, 352.14 53.12, 462.11 -68.88 M210.36 222.67 C291.91 123.40, 377.92 23.79, 462.02 -68.53 M209.05 225.90 C265.04 162.07, 318.43 99.55, 468.61 -67.11 M210.70 226.51 C279.47 143.89, 350.91 62.60, 465.96 -68.66 M210.21 232.83 C269.79 166.00, 326.02 99.09, 473.63 -65.67 M210.81 233.21 C307.02 125.62, 399.57 17.27, 473.03 -67.48 M211.39 237.92 C312.16 126.26, 413.46 11.77, 475.47 -65.58 M211.33 238.18 C295.87 140.19, 381.92 41.06, 477.04 -67.02 M214.37 245.00 C313.69 127.09, 410.39 13.69, 480.52 -68.05 M211.50 241.88 C305.87 136.55, 398.10 31.08, 481.98 -67.24 M215.59 247.69 C285.30 169.00, 350.95 91.09, 486.56 -67.27 M214.95 245.87 C291.70 157.48, 368.08 69.41, 486.35 -66.36 M215.52 249.53 C315.35 139.40, 415.61 24.04, 494.14 -68.17 M216.33 250.48 C314.72 134.48, 414.87 20.46, 492.70 -69.08 M216.13 253.38 C287.70 173.59, 357.31 92.49, 498.99 -65.75 M217.66 254.21 C284.70 176.67, 353.34 100.52, 496.69 -66.94 M218.61 256.72 C284.38 185.02, 346.67 114.94, 503.96 -66.18 M219.64 258.17 C304.85 158.83, 392.72 56.60, 501.19 -66.74 M221.59 263.14 C280.36 193.48, 343.99 125.22, 508.24 -66.42 M221.18 263.00 C315.67 154.65, 409.34 46.78, 506.30 -63.83 M223.90 266.05 C308.36 169.10, 391.76 74.39, 508.84 -62.07 M224.81 266.24 C318.23 153.46, 414.58 42.23, 510.91 -62.55 M226.00 268.42 C331.87 151.22, 439.04 30.88, 514.77 -63.43 M224.86 270.46 C324.21 158.04, 422.80 48.05, 514.02 -61.63 M226.01 273.73 C312.69 174.23, 401.62 74.87, 518.65 -60.30 M227.58 275.04 C307.31 182.70, 388.47 89.62, 517.89 -61.31 M228.21 276.96 C332.29 161.66, 427.08 48.57, 524.74 -59.22 M229.42 278.96 C320.16 173.40, 411.76 66.45, 522.11 -59.51 M231.47 284.53 C333.33 164.78, 435.35 44.68, 526.48 -58.74 M230.23 282.57 C297.06 205.11, 361.55 131.27, 527.32 -57.27 M231.51 286.92 C339.96 157.98, 451.97 27.12, 532.89 -55.61 M233.22 287.01 C313.51 189.10, 396.53 96.02, 531.75 -55.64 M234.87 291.14 C344.71 169.33, 450.78 45.00, 537.16 -57.17 M234.93 290.64 C330.66 182.33, 425.42 72.02, 535.17 -54.96 M234.83 293.57 C343.83 164.72, 455.49 37.83, 540.82 -54.22 M236.37 294.28 C350.06 162.53, 467.74 29.76, 539.71 -53.64 M238.57 298.30 C352.31 167.81, 468.40 36.81, 543.57 -52.83 M237.81 298.96 C354.95 164.41, 473.57 29.36, 542.85 -52.07 M238.20 301.02 C320.03 208.75, 405.32 111.58, 545.94 -50.82 M240.82 302.17 C357.30 173.10, 469.99 43.36, 547.70 -51.17 M241.72 305.68 C345.03 182.52, 448.83 63.64, 552.24 -49.45 M242.58 306.97 C340.82 196.30, 436.23 85.33, 551.23 -48.70 M246.17 307.68 C346.94 188.22, 452.40 70.35, 554.82 -47.85 M243.89 310.04 C365.29 170.77, 484.13 34.83, 554.29 -46.72 M246.22 312.34 C312.78 242.04, 373.30 168.32, 557.29 -44.62 M247.96 313.65 C328.92 220.48, 409.90 126.63, 558.33 -45.00 M248.61 317.95 C342.05 208.38, 437.14 100.30, 562.13 -43.06 M248.85 315.63 C372.37 172.95, 495.20 30.85, 563.02 -43.74 M251.88 318.44 C316.90 243.96, 383.22 169.12, 565.91 -42.33 M252.15 319.70 C317.84 248.90, 382.21 174.56, 565.21 -40.69 M255.09 322.37 C318.40 248.00, 383.68 175.45, 570.29 -38.42 M254.60 323.38 C320.18 246.27, 385.85 169.99, 568.80 -40.14 M258.12 327.82 C357.92 206.10, 462.10 83.59, 572.92 -36.63 M256.35 326.39 C323.15 253.58, 386.85 178.55, 572.03 -36.64 M258.90 329.86 C350.54 222.78, 445.19 113.99, 575.68 -33.53 M259.17 330.36 C349.53 221.73, 443.99 113.92, 576.48 -34.36 M259.08 332.97 C343.27 240.70, 427.19 141.09, 578.91 -34.38 M260.04 334.60 C354.39 224.93, 446.79 118.03, 579.53 -32.56 M262.73 336.81 C383.73 197.68, 500.69 61.16, 583.13 -31.75 M262.21 337.87 C385.20 196.37, 507.65 54.47, 583.67 -31.30 M265.36 339.24 C356.56 240.03, 444.56 134.28, 586.50 -29.86 M264.62 341.23 C354.94 237.67, 444.04 135.47, 587.34 -29.11 M266.03 344.16 C337.40 263.40, 408.66 186.13, 590.04 -26.86 M267.85 343.35 C377.68 218.67, 487.16 93.16, 590.49 -27.19 M268.59 346.73 C379.31 218.78, 488.91 90.82, 592.38 -23.16 M270.03 346.70 C372.13 233.11, 473.23 116.22, 592.89 -24.00 M273.19 349.94 C393.14 215.54, 513.66 77.58, 595.97 -23.94 M273.15 350.56 C355.99 252.25, 441.13 152.54, 597.17 -22.66 M274.55 353.40 C369.14 246.30, 460.36 141.39, 599.67 -20.87 M274.92 354.08 C345.73 272.62, 415.09 194.91, 599.58 -19.94 M279.94 357.05 C381.85 239.98, 485.48 119.81, 603.97 -18.90 M278.69 356.13 C353.16 265.14, 430.35 176.64, 604.22 -17.77 M282.63 359.93 C368.88 256.04, 458.23 151.58, 606.65 -15.93 M281.25 358.50 C386.85 238.31, 492.11 117.44, 607.58 -16.96 M284.16 362.51 C379.67 256.20, 470.53 151.96, 609.77 -11.84 M284.13 362.00 C375.45 255.32, 469.17 147.26, 609.84 -12.73 M288.88 364.01 C390.43 245.24, 495.42 124.20, 613.69 -10.81 M288.06 363.89 C367.03 274.93, 443.04 186.41, 613.01 -10.49 M290.89 365.73 C382.81 260.91, 472.54 157.54, 616.73 -8.11 M291.60 365.14 C404.01 236.61, 518.07 106.98, 614.81 -6.88 M293.90 366.76 C420.21 221.47, 549.59 72.75, 618.32 -3.70 M293.49 368.59 C383.54 267.01, 470.14 166.18, 618.13 -4.47 M297.45 370.36 C403.65 245.54, 514.47 119.06, 621.64 -1.56 M296.90 370.38 C369.38 285.21, 443.78 199.23, 621.97 -2.46 M299.36 373.14 C403.91 252.26, 510.60 129.86, 624.42 0.33 M300.71 373.31 C373.56 290.75, 443.56 210.68, 623.82 2.21 M304.12 375.60 C405.69 254.96, 509.53 134.01, 627.87 4.01 M303.98 375.78 C419.81 247.08, 534.91 114.73, 626.78 4.81 M305.43 379.40 C408.55 259.78, 509.83 141.31, 630.10 8.44 M306.48 379.52 C418.09 252.09, 525.78 128.55, 628.84 8.38 M309.03 382.47 C402.76 275.55, 497.41 169.23, 633.17 10.06 M309.65 382.32 C388.90 291.29, 468.52 198.79, 631.58 9.42 M311.04 384.36 C398.84 287.78, 486.40 188.97, 635.25 11.84 M312.32 383.91 C417.01 265.91, 518.67 148.76, 635.20 13.59 M314.10 387.52 C382.53 308.22, 454.29 229.87, 635.98 16.13 M314.55 386.77 C442.82 244.87, 567.48 99.90, 637.00 16.15 M318.47 388.44 C418.89 275.15, 514.99 163.36, 639.10 19.32 M319.16 388.76 C427.18 260.92, 538.39 133.52, 641.11 18.35 M321.87 392.38 C447.95 248.32, 572.80 103.68, 644.35 20.62 M321.97 392.78 C419.58 275.98, 521.11 158.77, 643.30 22.59 M326.89 393.05 C448.14 256.40, 566.92 115.42, 647.51 23.49 M325.76 393.03 C436.71 262.89, 547.65 136.29, 645.24 24.10 M330.54 394.06 C425.85 278.57, 526.36 164.74, 649.42 27.44 M330.22 395.03 C446.03 259.77, 563.72 124.30, 649.36 28.22 M332.90 396.30 C414.98 300.75, 496.17 210.16, 649.12 30.20 M332.69 396.92 C459.39 252.98, 584.49 110.05, 650.54 31.19 M337.85 397.04 C404.10 325.03, 466.67 247.66, 652.61 35.20 M337.26 398.54 C410.89 313.52, 487.01 225.40, 652.79 35.22 M341.78 402.15 C410.13 316.94, 482.34 234.97, 653.19 37.45 M339.88 399.82 C405.82 320.86, 473.92 242.02, 653.88 38.28 M345.26 401.06 C429.69 301.47, 515.29 203.53, 655.49 42.96 M344.19 402.23 C427.53 309.80, 507.51 216.60, 657.88 42.37 M347.89 403.95 C452.28 288.82, 555.56 170.71, 657.91 44.45 M347.75 403.01 C417.60 324.95, 486.86 245.37, 659.78 46.60 M352.23 405.40 C430.17 316.70, 510.55 227.55, 662.36 49.51 M351.26 405.81 C438.60 300.77, 529.08 198.84, 661.48 50.39 M356.64 407.01 C436.74 313.61, 518.38 220.36, 662.33 53.29 M355.31 407.54 C445.28 307.74, 533.39 207.72, 662.80 54.04 M360.00 407.99 C462.21 289.59, 567.82 168.75, 666.71 58.66 M359.98 410.05 C425.64 332.63, 491.37 257.47, 665.36 57.57 M363.58 410.53 C478.53 280.70, 589.90 148.67, 665.93 61.49 M364.33 409.99 C480.49 275.46, 596.59 139.57, 668.30 61.11 M368.45 411.89 C489.15 277.62, 607.09 141.14, 669.39 63.17 M366.99 411.48 C480.83 283.09, 593.21 154.10, 670.15 64.18 M372.66 414.24 C486.48 289.09, 596.34 159.65, 669.86 67.15 M371.82 414.16 C435.42 338.96, 499.36 263.62, 671.10 67.49 M373.91 415.63 C469.65 306.71, 563.62 198.66, 673.56 72.37 M375.62 415.11 C450.59 325.76, 526.76 238.91, 673.73 71.14 M381.75 417.42 C449.96 335.50, 516.55 258.23, 676.82 74.46 M380.28 415.66 C481.47 295.06, 582.29 178.83, 675.64 76.78 M386.07 415.79 C446.19 343.58, 508.35 273.60, 679.57 81.02 M384.70 416.59 C461.17 329.16, 538.26 240.36, 678.04 78.61 M388.23 417.38 C468.00 327.82, 545.89 238.85, 681.79 81.37 M389.71 417.64 C468.29 330.98, 544.26 241.74, 680.09 82.52 M393.05 419.63 C489.59 311.04, 583.24 198.17, 679.87 86.21 M393.32 417.76 C458.72 343.89, 523.25 268.52, 681.80 86.58 M398.37 419.90 C474.03 331.59, 550.72 242.81, 684.45 92.76 M399.61 418.26 C460.82 350.59, 519.49 280.70, 681.58 93.24 M403.52 419.61 C495.79 308.58, 593.01 196.14, 684.61 98.13 M403.91 419.21 C494.48 316.03, 580.16 216.65, 683.63 98.32 M407.02 421.71 C506.79 307.27, 607.67 189.50, 685.74 103.07 M407.74 420.04 C487.97 324.83, 568.91 230.93, 685.30 100.41 M411.77 419.54 C470.38 356.13, 528.36 290.69, 685.72 107.65 M411.84 421.45 C505.31 310.33, 601.51 200.39, 685.81 105.36 M417.70 422.59 C522.82 300.10, 628.79 180.84, 685.48 112.10 M418.68 421.02 C477.90 348.65, 538.46 277.47, 687.06 110.21 M421.83 422.95 C484.09 355.13, 542.65 285.79, 688.24 115.71 M421.94 422.80 C486.33 350.94, 550.16 277.77, 689.36 116.47 M427.94 421.36 C502.32 332.70, 575.09 246.92, 690.55 122.23 M428.15 422.28 C507.80 331.70, 586.55 241.08, 690.87 120.13 M430.60 425.46 C487.73 354.75, 540.96 291.32, 693.29 123.96 M432.62 423.37 C496.32 343.39, 563.84 266.45, 690.40 126.15 M438.57 424.29 C525.78 318.07, 615.21 214.85, 689.97 129.51 M435.49 424.99 C533.21 311.41, 628.25 200.41, 692.70 129.59 M438.03 425.13 C521.11 334.28, 597.57 242.18, 694.65 136.98 M440.78 426.53 C515.81 338.68, 592.26 253.06, 693.21 134.45 M444.67 423.60 C536.15 320.48, 628.51 211.68, 696.50 137.42 M444.52 424.63 C525.80 336.93, 604.40 245.55, 694.59 138.20 M452.45 423.95 C531.30 339.73, 608.98 251.40, 694.23 144.97 M449.97 426.95 C514.16 351.26, 579.15 276.88, 695.26 143.22 M457.24 425.85 C542.15 327.25, 627.75 230.46, 697.79 148.48 M456.35 426.31 C552.50 314.59, 649.24 205.01, 697.46 148.83 M460.81 425.82 C544.41 328.44, 627.84 234.25, 697.84 157.65 M461.43 425.73 C515.45 361.88, 570.68 298.22, 695.91 156.03 M467.50 426.30 C514.89 374.56, 560.00 318.38, 698.17 161.34 M467.59 423.97 C548.38 331.06, 629.08 236.39, 695.55 161.52 M472.32 424.67 C530.08 362.66, 587.79 296.73, 695.61 169.01 M473.95 425.10 C538.75 346.81, 605.69 269.05, 697.09 169.12 M479.22 423.22 C542.15 352.44, 607.57 277.45, 698.31 174.19 M479.88 423.67 C566.94 327.72, 652.99 227.16, 697.23 174.84 M486.63 423.42 C549.89 352.28, 614.51 275.53, 697.41 179.01 M484.62 424.13 C534.02 371.56, 580.87 318.61, 696.31 180.24 M492.35 421.42 C552.84 349.77, 618.16 274.32, 695.78 185.66 M491.16 422.01 C562.18 339.23, 636.61 253.20, 696.90 184.42 M497.91 419.80 C567.36 340.57, 637.42 262.60, 697.41 191.46 M496.33 420.01 C573.97 332.39, 649.79 243.78, 696.32 190.13 M504.65 419.14 C575.39 333.79, 647.11 253.57, 698.81 198.81 M504.69 417.55 C546.08 365.84, 589.68 315.55, 696.59 198.42 M512.42 415.43 C556.12 366.87, 596.67 318.65, 699.01 201.11 M513.23 415.43 C571.20 347.62, 625.45 284.81, 697.20 204.46 M522.26 413.07 C584.84 340.28, 646.67 270.21, 696.41 207.70 M520.83 411.61 C557.82 369.48, 594.70 329.62, 697.15 208.01 M528.30 409.96 C587.69 346.83, 645.04 273.22, 696.91 216.27 M528.38 408.67 C562.97 369.54, 598.28 325.90, 694.86 217.27 M536.35 405.99 C573.76 358.69, 610.51 314.86, 693.65 225.41 M534.92 408.82 C576.08 361.00, 615.30 311.22, 691.43 226.54 M543.20 407.85 C575.06 369.74, 605.06 335.17, 690.97 235.87 M541.63 406.50 C576.56 366.31, 613.36 324.51, 690.00 236.09 M548.89 401.24 C592.50 353.00, 643.73 300.80, 688.37 246.73 M551.58 403.17 C594.29 353.00, 639.21 299.61, 687.77 245.69 M554.24 398.92 C589.63 369.23, 619.19 329.62, 685.95 255.23 M559.11 400.63 C605.42 344.39, 651.93 286.12, 686.74 252.99 M566.80 394.76 C607.50 345.17, 644.72 300.49, 679.63 267.44 M568.22 394.26 C610.65 345.03, 651.40 296.60, 677.92 265.99 M581.38 390.53 C607.55 364.28, 622.68 333.99, 676.11 282.61 M580.97 388.05 C610.25 356.53, 638.22 321.74, 670.35 280.93 M589.48 379.40 C608.54 362.48, 620.41 344.17, 663.14 293.31 M593.84 379.39 C622.55 348.57, 646.37 316.41, 666.51 297.44 M604.29 375.67 C613.89 360.05, 632.89 344.05, 654.85 307.25 M603.55 371.28 C620.39 354.81, 636.01 335.61, 659.26 311.14" fill="#faf7ef" stroke="none"/><path d="M492.87 -68.84 C512.36 -69.18, 531.50 -59.46, 550.25 -50.96 C568.99 -42.46, 589.33 -30.64, 605.34 -17.84 C621.36 -5.04, 634.26 9.42, 646.32 25.83 C658.38 42.25, 669.90 61.33, 677.73 80.63 C685.56 99.94, 690.44 120.73, 693.29 141.69 C696.15 162.64, 697.28 185.78, 694.86 206.37 C692.43 226.96, 686.19 246.00, 678.74 265.21 C671.30 284.41, 661.86 304.55, 650.20 321.61 C638.54 338.67, 624.43 354.41, 608.78 367.57 C593.12 380.72, 574.76 391.75, 556.25 400.55 C537.75 409.34, 517.60 416.36, 497.74 420.32 C477.89 424.28, 457.49 425.21, 437.12 424.31 C416.75 423.41, 395.23 420.76, 375.50 414.92 C355.78 409.08, 335.97 400.00, 318.78 389.26 C301.58 378.52, 285.90 365.52, 272.34 350.49 C258.78 335.45, 247.64 317.27, 237.41 299.03 C227.18 280.79, 216.61 261.25, 210.96 241.06 C205.31 220.86, 203.47 198.41, 203.52 177.88 C203.57 157.36, 206.02 137.63, 211.25 117.89 C216.49 98.16, 225.10 78.19, 234.94 59.48 C244.78 40.78, 256.86 20.93, 270.30 5.66 C283.73 -9.61, 298.64 -21.48, 315.56 -32.14 C332.48 -42.79, 352.17 -51.81, 371.82 -58.25 C391.46 -64.70, 409.01 -69.66, 433.44 -70.81 C457.87 -71.96, 500.43 -68.53, 518.37 -65.13 C536.32 -61.72, 541.95 -54.63, 541.10 -50.37 M313.42 -33.50 C326.80 -48.22, 345.92 -53.80, 365.43 -60.39 C384.95 -66.99, 410.17 -71.41, 430.51 -73.08 C450.86 -74.75, 468.12 -74.04, 487.48 -70.39 C506.84 -66.74, 527.46 -59.45, 546.68 -51.17 C565.91 -42.89, 586.02 -32.90, 602.82 -20.72 C619.62 -8.53, 635.37 5.31, 647.48 21.95 C659.59 38.59, 668.24 59.80, 675.49 79.13 C682.75 98.46, 687.84 117.82, 691.00 137.94 C694.17 158.06, 696.01 179.40, 694.49 199.86 C692.97 220.31, 688.56 241.10, 681.87 260.68 C675.19 280.26, 666.00 300.61, 654.39 317.35 C642.78 334.08, 627.65 347.51, 612.21 361.08 C596.77 374.66, 579.75 389.12, 561.74 398.80 C543.74 408.47, 524.37 414.31, 504.18 419.14 C483.98 423.97, 460.93 428.91, 440.57 427.77 C420.20 426.63, 401.64 418.82, 381.99 412.29 C362.33 405.77, 340.21 398.81, 322.64 388.61 C305.06 378.42, 290.54 365.65, 276.53 351.12 C262.53 336.58, 248.59 319.21, 238.62 301.40 C228.66 283.59, 222.79 264.03, 216.77 244.26 C210.74 224.49, 203.48 202.93, 202.48 182.76 C201.47 162.59, 205.64 143.46, 210.73 123.23 C215.82 102.99, 223.91 80.01, 233.00 61.35 C242.08 42.70, 251.64 26.72, 265.23 11.31 C278.82 -4.10, 305.84 -25.15, 314.54 -31.11 C323.23 -37.07, 315.62 -27.59, 317.40 -24.46" fill="none" stroke="#202020" stroke-width="2" stroke-linecap="round" stroke-linejoin="round"/><path d="M474.93 84.17 C487.94 84.73, 499.61 90.04, 510.58 96.17 C521.54 102.30, 532.51 111.39, 540.72 120.95 C548.92 130.51, 556.64 142.52, 559.82 153.54 C562.99 164.57, 561.41 175.85, 559.76 187.10 C558.10 198.35, 556.10 211.09, 549.88 221.05 C543.66 231.02, 533.05 239.36, 522.44 246.89 C511.83 254.43, 498.87 261.86, 486.22 266.25 C473.57 270.64, 459.87 273.59, 446.53 273.23 C433.19 272.87, 418.82 268.55, 406.17 264.09 C393.51 259.63, 380.20 254.20, 370.61 246.46 C361.02 238.72, 354.15 228.52, 348.61 217.64 C343.08 206.77, 338.44 193.08, 337.41 181.21 C336.37 169.34, 338.37 157.03, 342.40 146.43 C346.43 135.82, 352.82 126.50, 361.59 117.59 C370.35 108.67, 383.29 98.92, 394.98 92.93 C406.68 86.95, 412.26 81.11, 431.76 81.67 C451.26 82.22, 493.96 89.79, 512.01 96.26 C530.05 102.74, 541.37 119.57, 540.02 120.51 M375.37 104.10 C384.38 96.00, 400.96 90.99, 413.65 87.46 C426.34 83.92, 438.08 82.97, 451.52 82.89 C464.95 82.82, 481.33 82.73, 494.27 87.02 C507.21 91.31, 519.18 100.43, 529.15 108.61 C539.12 116.79, 548.51 125.83, 554.10 136.11 C559.69 146.39, 562.15 159.03, 562.70 170.27 C563.24 181.51, 561.25 192.38, 557.39 203.53 C553.54 214.68, 547.90 227.87, 539.57 237.17 C531.24 246.48, 518.89 254.08, 507.43 259.36 C495.96 264.64, 484.11 267.59, 470.77 268.86 C457.43 270.13, 441.00 269.19, 427.37 266.96 C413.75 264.73, 400.66 261.46, 389.01 255.47 C377.36 249.47, 365.48 239.88, 357.47 230.99 C349.47 222.11, 343.60 213.39, 341.00 202.17 C338.39 190.95, 339.80 175.25, 341.83 163.69 C343.86 152.13, 347.11 142.70, 353.19 132.78 C359.27 122.87, 374.44 108.77, 378.30 104.21 C382.17 99.65, 375.33 104.23, 376.38 105.44" fill="#faf7ef" stroke="none"/><path d="M417.47 85.68 C429.00 81.39, 445.07 81.86, 458.21 82.11 C471.34 82.37, 483.99 82.80, 496.28 87.20 C508.57 91.60, 522.21 99.66, 531.96 108.52 C541.72 117.39, 549.99 129.49, 554.79 140.37 C559.59 151.25, 560.77 162.45, 560.76 173.82 C560.75 185.20, 558.94 197.76, 554.72 208.63 C550.49 219.51, 543.79 230.62, 535.41 239.10 C527.04 247.59, 516.15 254.45, 504.48 259.54 C492.80 264.63, 479.19 268.22, 465.37 269.65 C451.55 271.08, 435.18 270.86, 421.56 268.12 C407.94 265.38, 394.15 259.88, 383.62 253.21 C373.10 246.53, 365.45 237.77, 358.40 228.08 C351.35 218.40, 344.64 205.95, 341.34 195.09 C338.04 184.23, 336.42 174.16, 338.61 162.92 C340.79 151.67, 347.46 138.07, 354.43 127.61 C361.39 117.16, 364.39 108.43, 380.40 100.19 C396.41 91.95, 433.36 80.76, 450.48 78.17 C467.59 75.58, 483.17 82.48, 483.11 84.66 M533.10 112.10 C543.25 119.72, 552.51 133.12, 557.75 144.27 C562.99 155.43, 565.11 167.02, 564.54 179.03 C563.97 191.04, 560.20 205.35, 554.35 216.32 C548.50 227.30, 539.70 237.12, 529.46 244.87 C519.21 252.63, 505.24 258.65, 492.87 262.84 C480.49 267.03, 467.86 269.06, 455.18 270.03 C442.51 270.99, 429.31 271.53, 416.82 268.65 C404.33 265.77, 390.60 260.02, 380.25 252.76 C369.90 245.50, 361.27 235.31, 354.70 225.09 C348.13 214.88, 343.58 202.92, 340.82 191.49 C338.06 180.05, 335.84 168.31, 338.16 156.49 C340.48 144.66, 347.07 130.38, 354.75 120.54 C362.43 110.71, 372.92 103.47, 384.24 97.48 C395.57 91.48, 409.02 87.32, 422.68 84.56 C436.35 81.79, 452.27 79.45, 466.26 80.89 C480.24 82.33, 495.05 87.36, 506.58 93.18 C518.12 99.00, 531.04 112.23, 535.47 115.82 C539.91 119.41, 534.07 114.26, 533.17 114.71" fill="none" stroke="#202020" stroke-width="2" stroke-linecap="round" stroke-linejoin="round"/><path d="M656.53 -27.78 C680.90 -55.73, 705.57 -80.51, 733.52 -110.59 M657.36 -29.62 C675.26 -47.70, 697.23 -70.48, 738.36 -111.34" fill="none" stroke="#202020" stroke-width="2" stroke-linecap="round" stroke-linejoin="round"/><path d="M653.70 385.06 C672.05 402.51, 695.01 420.85, 733.96 458.78 M654.35 381.68 C680.95 404.85, 702.46 426.90, 735.90 462.22" fill="none" stroke="#202020" stroke-width="2" stroke-linecap="round" stroke-linejoin="round"/><path d="M247.33 380.54 C220.61 407.37, 193.44 432.47, 166.16 462.72 M242.04 381.69 C226.18 399.53, 208.08 418.73, 161.65 463.73" fill="none" stroke="#202020" stroke-width="2" stroke-linecap="round" stroke-linejoin="round"/><path d="M240.73 -27.82 C219.92 -59.40, 191.13 -81.56, 162.65 -112.09 M242.98 -28.70 C210.45 -59.68, 179.65 -92.85, 163.84 -109.33" fill="none" stroke="#202020" stroke-width="2" stroke-linecap="round" stroke-linejoin="round"/></svg>