<svg xmlns="http://www.w3.org/2000/svg" viewBox="0 0 900 320" width="900" height="320"><path d="M449.48 14.18 C551.45 52.51, 653.65 84.21, 885.07 159.52 M450.80 16.62 C596.32 65.14, 743.53 114.11, 883.56 160.90 M884.15 160.24 C777.83 197.27, 673.80 231.28, 448.73 302.40 M883.47 160.82 C797.71 191.98, 710.11 219.79, 450.22 303.63 M448.83 305.02 C288.95 250.15, 129.52 198.05, 14.94 161.45 M449.57 304.60 C312.76 259.27, 174.68 212.58, 16.14 160.67 M15.29 160.74 C173.19 107.98, 331.09 55.32, 450.30 14.81 M16.61 160.20 C122.09 123.05, 228.58 86.33, 450.36 16.89" fill="none" stroke="#202020" stroke-width="2" stroke-linecap="round" stroke-linejoin="round"/><path d="M28.37 158.99 C35.26 161.02, 44.69 158.67, 51.38 161.44 M27.57 158.59 C34.85 160.76, 40.48 159.95, 51.62 160.33" fill="none" stroke="#202020" stroke-width="2" stroke-linecap="round" stroke-linejoin="round"/><path d="M845.75 162.84 C851.57 158.43, 864.74 163.38, 870.05 163.06 M847.86 161.53 C855.98 159.73, 857.80 161.59, 874.49 161.16" fill="none" stroke="#202020" stroke-width="2" stroke-linecap="round" stroke-linejoin="round"/><path d="M43.99 156.03 C44.43 155.38, 46.24 156.67, 51.86 158.47 M44.49 155.01 C46.36 156.80, 48.32 158.76, 50.91 159.24 M49.46 160.03 C50.03 161.08, 46.27 164.38, 45.41 165.99 M51.13 160.47 C49.35 161.88, 46.02 163.22, 43.40 164.74" fill="none" stroke="#202020" stroke-width="2" stroke-linecap="round" stroke-linejoin="round"/><path d="M857.51 154.60 C854.27 156.89, 854.44 158.58, 850.04 158.85 M856.67 155.54 C853.81 155.48, 853.20 158.23, 849.66 160.07 M849.78 160.56 C849.32 161.57, 852.16 161.11, 857.21 164.51 M848.44 159.40 C850.26 160.75, 852.48 161.72, 856.71 164.49" fill="none" stroke="#202020" stroke-width="2" stroke-linecap="round" stroke-linejoin="round"/></svg>