<svg xmlns="http://www.w3.org/2000/svg" viewBox="0 0 436 310" width="436" height="310"><path d="M106.69 42.19 L314.79 43.49 L312.94 246.95 L108.70 252.62" fill="#faf7ef" stroke="none"/><path d="M108.11 44.91 C176.71 48.68, 246.24 46.10, 314.99 40.55 M106.81 44.50 C180.26 46.21, 257.23 45.67, 312.41 45.66 M311.27 44.96 C313.34 90.26, 314.74 132.56, 309.78 250.36 M312.27 43.39 C312.43 125.74, 312.53 207.94, 311.38 251.23 M313.98 248.21 C234.29 248.74, 154.51 254.38, 106.83 248.54 M312.06 249.75 C244.21 251.69, 176.59 251.50, 107.48 250.09 M106.78 246.69 C114.15 171.12, 113.99 82.80, 108.56 46.24 M107.14 251.22 C105.60 185.83, 106.17 121.38, 107.24 43.08" fill="none" stroke="#202020" stroke-width="3" stroke-linecap="round" stroke-linejoin="round"/><path d="M145.51 81.47 C148.58 77.84, 153.31 75.20, 157.19 74.66 C161.07 74.11, 165.24 75.53, 168.79 78.21 C172.35 80.88, 177.23 86.58, 178.50 90.71 C179.77 94.83, 178.33 99.12, 176.41 102.96 C174.48 106.79, 170.82 111.85, 166.96 113.71 C163.11 115.56, 157.56 115.05, 153.29 114.06 C149.01 113.07, 143.88 111.05, 141.31 107.78 C138.74 104.51, 137.25 98.76, 137.85 94.45 C138.46 90.14, 143.16 84.44, 144.92 81.92 C146.67 79.40, 148.44 79.48, 148.38 79.33 M151.14 78.55 C155.19 76.71, 161.78 73.59, 165.40 74.88 C169.02 76.17, 170.43 82.26, 172.87 86.30 C175.31 90.34, 180.33 94.93, 180.06 99.13 C179.79 103.34, 174.94 108.63, 171.25 111.53 C167.56 114.43, 161.49 116.54, 157.91 116.54 C154.34 116.54, 152.86 113.70, 149.80 111.55 C146.75 109.40, 141.10 107.98, 139.59 103.63 C138.08 99.28, 138.59 89.48, 140.75 85.44 C142.92 81.41, 150.75 80.44, 152.58 79.42 C154.41 78.41, 151.90 79.24, 151.75 79.36" fill="#faf7ef" stroke="none"/><path d="M172.70 80.63 C175.11 83.10, 176.70 89.18, 176.97 93.38 C177.24 97.59, 176.44 101.91, 174.33 105.85 C172.23 109.79, 168.31 115.79, 164.34 117.02 C160.37 118.25, 154.90 115.65, 150.52 113.23 C146.14 110.82, 139.88 106.38, 138.04 102.52 C136.20 98.67, 137.56 94.06, 139.47 90.10 C141.39 86.14, 145.82 81.41, 149.52 78.77 C153.22 76.13, 157.32 72.47, 161.68 74.25 C166.04 76.02, 172.59 86.40, 175.67 89.45 C178.75 92.50, 180.22 92.43, 180.15 92.56 M143.60 81.06 C147.23 78.04, 155.84 76.63, 160.01 76.26 C164.19 75.90, 165.47 76.88, 168.64 78.88 C171.81 80.87, 177.66 83.44, 179.03 88.23 C180.41 93.01, 179.44 103.38, 176.87 107.56 C174.31 111.74, 167.80 111.67, 163.62 113.28 C159.44 114.89, 155.07 118.78, 151.78 117.20 C148.48 115.62, 145.91 107.66, 143.84 103.81 C141.78 99.96, 139.05 98.14, 139.39 94.12 C139.73 90.10, 145.33 81.37, 145.89 79.69 C146.44 78.01, 142.28 84.01, 142.73 84.03" fill="none" stroke="#202020" stroke-width="3" stroke-linecap="round" stroke-linejoin="round"/><path d="M265.27 174.74 C269.06 174.63, 271.52 178.88, 274.34 182.59 C277.15 186.31, 281.95 192.30, 282.18 197.02 C282.42 201.74, 278.13 207.39, 275.74 210.92 C273.35 214.46, 271.57 216.94, 267.85 218.22 C264.13 219.51, 257.68 220.14, 253.42 218.61 C249.16 217.08, 244.09 213.18, 242.29 209.03 C240.50 204.87, 241.53 198.37, 242.65 193.69 C243.77 189.01, 245.12 183.93, 249.01 180.93 C252.90 177.93, 262.54 175.85, 265.99 175.71 C269.43 175.57, 269.65 179.74, 269.68 180.10 M267.92 174.80 C271.67 174.75, 272.65 177.76, 274.44 181.95 C276.24 186.13, 278.58 194.61, 278.71 199.91 C278.83 205.22, 277.39 210.33, 275.18 213.76 C272.96 217.20, 269.53 219.63, 265.42 220.53 C261.31 221.43, 254.79 221.55, 250.51 219.15 C246.23 216.75, 240.70 210.78, 239.73 206.15 C238.76 201.52, 242.55 195.36, 244.68 191.38 C246.81 187.41, 249.27 184.64, 252.52 182.32 C255.77 180.01, 262.31 178.77, 264.19 177.50 C266.07 176.22, 263.23 174.43, 263.78 174.64" fill="#faf7ef" stroke="none"/><path d="M249.86 180.14 C252.66 176.61, 257.77 174.10, 261.94 174.65 C266.12 175.19, 271.88 180.36, 274.89 183.40 C277.89 186.44, 278.95 188.60, 279.97 192.89 C280.99 197.18, 282.82 204.86, 281.01 209.14 C279.19 213.41, 273.30 216.94, 269.07 218.54 C264.85 220.13, 259.55 220.08, 255.67 218.71 C251.79 217.33, 248.35 214.34, 245.82 210.29 C243.28 206.23, 238.44 200.13, 240.46 194.39 C242.49 188.66, 253.72 178.78, 257.99 175.87 C262.25 172.96, 266.09 176.71, 266.05 176.94 M255.48 178.82 C259.61 176.53, 265.59 173.54, 269.13 175.46 C272.68 177.38, 274.97 186.13, 276.74 190.34 C278.52 194.55, 279.91 196.65, 279.78 200.72 C279.64 204.79, 278.64 211.20, 275.93 214.75 C273.22 218.29, 268.24 222.42, 263.49 222.00 C258.75 221.58, 250.99 215.71, 247.46 212.23 C243.93 208.74, 242.80 205.01, 242.31 201.10 C241.82 197.20, 242.31 192.55, 244.52 188.81 C246.73 185.08, 254.16 180.07, 255.57 178.68 C256.97 177.30, 253.37 180.37, 252.96 180.52" fill="none" stroke="#202020" stroke-width="3" stroke-linecap="round" stroke-linejoin="round"/><path d="M198.78 130.77 C201.89 127.79, 206.08 126.51, 210.41 126.38 C214.73 126.25, 221.60 127.31, 224.73 129.99 C227.87 132.66, 228.95 137.50, 229.22 142.46 C229.48 147.41, 228.54 155.64, 226.31 159.72 C224.09 163.80, 219.96 165.70, 215.85 166.91 C211.75 168.12, 205.84 168.72, 201.69 166.98 C197.53 165.25, 193.04 160.79, 190.93 156.53 C188.82 152.27, 187.73 146.28, 189.03 141.42 C190.33 136.57, 196.23 129.98, 198.72 127.40 C201.21 124.82, 203.41 125.41, 203.96 125.96 M207.88 125.42 C212.69 125.24, 220.98 126.46, 225.03 129.59 C229.07 132.73, 231.30 139.41, 232.15 144.25 C233.01 149.08, 231.87 154.98, 230.17 158.62 C228.47 162.25, 226.39 164.13, 221.96 166.05 C217.53 167.96, 208.62 171.63, 203.58 170.10 C198.53 168.56, 193.95 160.95, 191.67 156.83 C189.39 152.70, 189.01 149.59, 189.92 145.35 C190.82 141.11, 193.87 134.59, 197.09 131.39 C200.31 128.18, 207.39 127.52, 209.24 126.11 C211.09 124.71, 208.34 123.08, 208.18 122.94" fill="#faf7ef" stroke="none"/><path d="M194.39 128.58 C197.54 125.82, 205.37 124.95, 210.09 125.07 C214.80 125.20, 219.01 126.42, 222.70 129.35 C226.39 132.29, 231.42 137.80, 232.23 142.66 C233.05 147.53, 230.15 154.16, 227.57 158.55 C224.99 162.93, 220.96 167.29, 216.75 168.98 C212.54 170.67, 206.35 170.84, 202.29 168.66 C198.22 166.49, 194.45 160.23, 192.34 155.94 C190.24 151.65, 186.83 147.90, 189.64 142.91 C192.45 137.91, 203.45 128.03, 209.20 126.00 C214.94 123.97, 224.00 130.41, 224.13 130.72 M196.26 127.77 C199.29 124.50, 202.98 123.14, 207.58 123.60 C212.17 124.07, 219.48 127.07, 223.84 130.56 C228.20 134.06, 232.64 140.10, 233.74 144.60 C234.84 149.09, 233.50 153.68, 230.44 157.53 C227.37 161.38, 219.71 166.17, 215.34 167.70 C210.96 169.23, 208.17 168.44, 204.18 166.71 C200.18 164.98, 193.68 160.97, 191.38 157.33 C189.08 153.70, 189.67 149.34, 190.38 144.89 C191.09 140.45, 194.70 132.64, 195.65 130.66 C196.59 128.68, 195.52 133.12, 196.07 132.99" fill="none" stroke="#202020" stroke-width="3" stroke-linecap="round" stroke-linejoin="round"/></svg>