<svg xmlns="http://www.w3.org/2000/svg" viewBox="0 0 436 310" width="436" height="310"><path d="M105.66 44.96 L314.89 42.76 L314.64 253.48 L103.93 248.40" fill="#faf7ef" stroke="none"/><path d="M109.71 42.80 C164.97 42.12, 221.77 45.17, 309.89 46.50 M108.47 42.82 C165.30 47.95, 223.12 45.23, 313.74 42.92 M309.81 46.85 C311.91 112.55, 317.66 188.08, 315.03 247.19 M311.17 43.66 C309.69 105.66, 308.61 168.71, 313.26 251.44 M314.74 253.20 C243.36 246.47, 171.58 247.66, 110.40 253.24 M314.48 250.72 C234.05 251.58, 152.82 252.79, 106.68 249.78 M110.35 249.92 C110.29 178.86, 109.85 106.36, 110.28 41.52 M107.55 250.77 C107.05 188.55, 107.35 125.04, 106.69 43.37" fill="none" stroke="#202020" stroke-width="3" stroke-linecap="round" stroke-linejoin="round"/><path d="M149.51 80.37 C152.69 78.02, 155.90 74.42, 160.08 74.84 C164.26 75.27, 171.51 79.62, 174.58 82.93 C177.65 86.23, 178.54 90.66, 178.50 94.67 C178.46 98.67, 177.14 103.42, 174.34 106.96 C171.54 110.49, 166.05 114.93, 161.68 115.89 C157.31 116.85, 151.70 114.80, 148.11 112.72 C144.51 110.63, 141.29 107.45, 140.10 103.40 C138.92 99.34, 138.83 92.55, 141.01 88.38 C143.19 84.21, 149.45 80.47, 153.19 78.39 C156.93 76.31, 163.07 75.67, 163.45 75.91 M153.54 75.41 C157.42 74.81, 164.29 77.89, 168.32 79.54 C172.34 81.18, 176.28 82.24, 177.69 85.27 C179.10 88.30, 178.48 93.70, 176.76 97.73 C175.04 101.77, 170.24 107.08, 167.36 109.47 C164.49 111.86, 162.94 112.25, 159.51 112.06 C156.08 111.88, 149.98 110.62, 146.77 108.36 C143.57 106.10, 141.21 102.51, 140.28 98.49 C139.35 94.46, 138.64 88.05, 141.19 84.23 C143.75 80.40, 153.54 76.85, 155.64 75.51 C157.75 74.17, 154.20 75.46, 153.82 76.20" fill="#faf7ef" stroke="none"/><path d="M154.91 75.56 C158.33 74.42, 162.97 77.36, 166.21 79.47 C169.45 81.58, 172.38 85.04, 174.36 88.20 C176.34 91.37, 179.13 94.92, 178.11 98.46 C177.08 101.99, 171.43 106.77, 168.22 109.42 C165.00 112.07, 162.93 114.69, 158.82 114.33 C154.72 113.96, 146.92 109.74, 143.59 107.23 C140.26 104.72, 138.80 103.32, 138.83 99.27 C138.87 95.22, 139.50 86.35, 143.80 82.92 C148.11 79.49, 159.12 77.87, 164.67 78.70 C170.22 79.52, 177.10 87.52, 177.12 87.87 M149.30 77.24 C152.73 74.76, 156.52 73.04, 160.27 74.39 C164.02 75.74, 169.13 81.27, 171.79 85.35 C174.45 89.42, 176.27 95.08, 176.24 98.85 C176.21 102.62, 174.23 105.78, 171.62 107.94 C169.01 110.10, 164.88 111.62, 160.57 111.80 C156.26 111.99, 149.29 110.29, 145.76 109.04 C142.23 107.79, 140.16 108.01, 139.41 104.29 C138.65 100.57, 139.79 90.81, 141.24 86.72 C142.68 82.63, 147.08 80.63, 148.10 79.77 C149.12 78.92, 147.22 81.78, 147.34 81.59" fill="none" stroke="#202020" stroke-width="3" stroke-linecap="round" stroke-linejoin="round"/><path d="M267.30 177.63 C271.55 178.51, 276.90 180.87, 279.18 184.33 C281.46 187.80, 281.44 193.18, 280.98 198.42 C280.53 203.66, 279.54 212.16, 276.45 215.79 C273.35 219.42, 266.55 220.37, 262.41 220.20 C258.28 220.02, 255.19 217.51, 251.66 214.76 C248.13 212.02, 242.51 208.26, 241.24 203.72 C239.96 199.18, 242.28 191.39, 244.00 187.52 C245.73 183.65, 246.59 181.59, 251.60 180.52 C256.62 179.45, 269.27 179.34, 274.09 181.10 C278.92 182.85, 280.56 190.90, 280.57 191.06 M267.04 177.51 C270.95 178.08, 272.18 181.11, 274.77 184.94 C277.35 188.78, 282.64 195.98, 282.56 200.50 C282.48 205.01, 277.61 209.08, 274.27 212.03 C270.93 214.98, 266.04 217.71, 262.52 218.20 C259.01 218.68, 256.33 216.78, 253.18 214.92 C250.03 213.07, 245.47 211.30, 243.62 207.06 C241.77 202.83, 240.68 194.62, 242.06 189.52 C243.43 184.41, 247.77 178.31, 251.90 176.41 C256.02 174.50, 264.86 177.62, 266.82 178.09 C268.79 178.56, 264.24 178.65, 263.69 179.24" fill="#faf7ef" stroke="none"/><path d="M269.32 177.93 C273.33 179.57, 279.49 186.64, 281.28 190.91 C283.07 195.18, 281.36 199.42, 280.05 203.54 C278.74 207.66, 277.07 212.56, 273.43 215.63 C269.78 218.70, 262.45 222.23, 258.19 221.95 C253.93 221.66, 251.02 217.23, 247.84 213.93 C244.67 210.62, 239.82 207.05, 239.14 202.12 C238.47 197.18, 241.19 188.61, 243.79 184.33 C246.38 180.05, 249.74 177.45, 254.72 176.43 C259.71 175.40, 270.34 177.49, 273.69 178.16 C277.05 178.84, 275.35 180.06, 274.83 180.48 M252.91 179.32 C256.10 177.98, 260.63 177.92, 265.26 179.47 C269.89 181.03, 278.08 185.38, 280.71 188.63 C283.33 191.88, 282.14 194.82, 281.00 198.97 C279.85 203.13, 277.12 210.33, 273.83 213.57 C270.54 216.80, 265.51 218.33, 261.24 218.37 C256.97 218.41, 251.08 216.01, 248.19 213.82 C245.29 211.62, 245.11 209.26, 243.88 205.18 C242.65 201.10, 239.62 194.02, 240.83 189.34 C242.04 184.66, 249.56 179.20, 251.15 177.10 C252.73 175.00, 250.31 175.87, 250.34 176.74" fill="none" stroke="#202020" stroke-width="3" stroke-linecap="round" stroke-linejoin="round"/><path d="M222.61 132.38 C225.12 135.05, 227.85 140.88, 228.41 145.33 C228.97 149.79, 228.09 155.59, 225.98 159.11 C223.87 162.62, 219.77 165.45, 215.76 166.43 C211.76 167.42, 205.78 166.73, 201.94 165.02 C198.10 163.31, 194.24 160.33, 192.72 156.16 C191.19 152.00, 191.79 144.64, 192.79 140.03 C193.78 135.42, 195.37 130.96, 198.68 128.52 C201.99 126.08, 207.72 122.49, 212.64 125.42 C217.55 128.34, 226.32 140.54, 228.14 146.07 C229.97 151.59, 223.97 158.34, 223.58 158.57 M227.77 136.50 C230.06 139.87, 227.47 143.11, 226.90 147.25 C226.34 151.38, 226.21 158.29, 224.36 161.31 C222.50 164.33, 219.48 164.93, 215.76 165.37 C212.05 165.81, 206.30 165.75, 202.06 163.96 C197.83 162.17, 192.08 158.90, 190.33 154.62 C188.59 150.35, 189.81 142.75, 191.58 138.33 C193.36 133.90, 197.52 130.27, 200.97 128.10 C204.43 125.92, 208.28 123.96, 212.30 125.29 C216.31 126.63, 223.23 134.46, 225.09 136.10 C226.95 137.74, 223.52 135.13, 223.44 135.14" fill="#faf7ef" stroke="none"/><path d="M222.77 131.45 C225.59 133.89, 227.87 140.15, 228.75 144.49 C229.63 148.83, 229.88 153.73, 228.04 157.51 C226.20 161.28, 221.59 165.34, 217.70 167.13 C213.80 168.92, 208.63 170.17, 204.68 168.22 C200.74 166.28, 196.35 159.36, 194.02 155.48 C191.69 151.60, 190.17 149.02, 190.72 144.95 C191.28 140.87, 193.77 134.12, 197.35 131.02 C200.94 127.91, 207.02 122.72, 212.24 126.34 C217.46 129.95, 228.44 145.97, 228.66 152.68 C228.87 159.39, 213.98 166.80, 213.53 166.59 M216.28 126.05 C220.13 127.05, 226.86 130.40, 228.55 134.97 C230.23 139.55, 227.05 148.97, 226.41 153.51 C225.78 158.05, 227.41 160.36, 224.72 162.22 C222.03 164.08, 215.11 164.31, 210.29 164.68 C205.46 165.05, 198.98 167.35, 195.76 164.44 C192.53 161.53, 191.16 151.87, 190.94 147.23 C190.72 142.59, 192.70 139.63, 194.42 136.61 C196.15 133.60, 197.52 130.69, 201.29 129.16 C205.06 127.64, 214.82 127.66, 217.03 127.49 C219.24 127.31, 215.05 127.26, 214.54 128.10" fill="none" stroke="#202020" stroke-width="3" stroke-linecap="round" stroke-linejoin="round"/></svg>