<svg xmlns="http://www.w3.org/2000/svg" viewBox="0 0 900 300" width="900" height="300"><path d="M227.25 82.72 L674.71 78.49 L676.03 291.41 L221.76 287.89" fill="#faf7ef" stroke="none"/><path d="M224.28 81.83 C354.39 84.48, 482.75 83.85, 676.21 79.32 M225.06 80.81 C329.25 77.89, 434.30 77.79, 675.10 80.54 M673.60 78.82 C673.32 147.32, 672.81 218.33, 673.66 292.38 M674.99 79.17 C674.21 128.42, 672.87 176.24, 674.79 291.71 M674.48 290.21 C575.04 291.38, 471.09 293.59, 224.87 290.97 M675.24 290.48 C500.40 289.98, 327.15 288.68, 224.67 290.32 M226.82 286.65 C221.75 242.45, 225.43 192.20, 224.11 77.57 M224.38 289.25 C229.87 218.60, 226.93 147.74, 223.85 79.24" fill="none" stroke="#202020" stroke-width="2" stroke-linecap="round" stroke-linejoin="round"/><path d="M216.40 81.25 L446.09 45.56 L683.86 76.67" fill="#faf7ef" stroke="none"/><path d="M217.65 78.88 C307.81 65.08, 398.39 51.59, 450.11 44.01 M216.36 79.38 C278.74 72.39, 340.32 62.59, 451.61 45.48 M451.25 47.44 C503.55 53.61, 556.02 65.53, 686.79 83.11 M451.44 46.06 C504.58 50.99, 558.38 61.83, 683.82 79.78 M686.02 79.80 C559.91 75.92, 435.14 77.61, 213.28 80.45 M685.33 80.10 C520.10 75.20, 355.39 75.67, 214.30 80.29" fill="none" stroke="#202020" stroke-width="2" stroke-linecap="round" stroke-linejoin="round"/><path d="M363.49 135.75 L541.95 135.05 L538.83 270.12 L357.13 265.82" fill="#faf7ef" stroke="none"/><path d="M356.69 130.64 C410.60 126.86, 461.02 128.25, 538.07 129.63 M360.59 131.40 C399.88 131.54, 435.86 129.59, 539.21 134.48 M538.13 131.17 C543.80 178.06, 543.89 222.50, 540.32 270.81 M538.77 132.60 C543.68 165.19, 543.02 201.20, 540.17 268.12 M540.39 269.69 C484.75 266.12, 430.81 265.66, 356.67 270.83 M540.87 267.46 C474.15 269.60, 403.74 267.89, 360.38 267.54 M362.36 270.48 C360.98 236.62, 359.39 212.98, 357.99 131.58 M360.68 266.53 C361.28 215.50, 361.20 165.56, 361.50 134.28" fill="none" stroke="#202020" stroke-width="2" stroke-linecap="round" stroke-linejoin="round"/><path d="M338.92 212.82 L559.81 219.66 L560.83 293.94 L338.99 291.30" fill="#faf7ef" stroke="none"/><path d="M336.69 216.04 C414.63 216.60, 494.93 211.39, 564.03 217.28 M337.29 216.91 C393.17 214.54, 448.12 214.26, 562.61 218.09 M564.74 219.88 C558.32 247.28, 564.18 270.55, 559.76 288.90 M563.07 216.88 C560.75 236.16, 561.27 258.10, 563.06 291.46 M559.37 289.00 C504.70 291.94, 449.44 293.08, 338.87 290.95 M561.48 290.12 C492.10 287.74, 424.21 286.62, 336.79 288.47 M339.12 290.27 C332.89 267.17, 332.97 245.97, 339.92 213.85 M336.83 288.57 C335.31 262.06, 335.87 237.55, 338.68 217.23" fill="none" stroke="#202020" stroke-width="2" stroke-linecap="round" stroke-linejoin="round"/></svg>