<svg xmlns="http://www.w3.org/2000/svg" viewBox="0 0 960 420" width="960" height="420"><path d="M243.44 113.16 L717.99 118.46 L718.92 409.14 L243.46 413.92" fill="#faf7ef" stroke="none"/><path d="M240.60 117.61 C419.77 113.68, 602.87 113.49, 718.47 114.51 M240.56 116.28 C430.85 116.31, 620.21 115.57, 719.51 116.05 M718.82 117.42 C718.62 185.49, 716.74 254.97, 722.00 410.35 M721.22 116.75 C722.51 201.27, 721.96 285.15, 720.64 409.11 M718.75 410.63 C608.26 408.67, 498.03 408.60, 238.64 410.75 M720.06 410.08 C560.11 410.71, 399.64 411.62, 239.25 409.66 M239.58 407.20 C234.49 304.55, 236.70 195.74, 239.66 116.81 M239.97 411.06 C240.35 296.07, 241.84 178.97, 240.85 115.71" fill="none" stroke="#202020" stroke-width="2" stroke-linecap="round" stroke-linejoin="round"/><path d="M231.35 113.92 L478.36 78.57 L729.09 118.10" fill="#faf7ef" stroke="none"/><path d="M226.76 116.20 C307.11 104.30, 381.10 95.14, 478.18 78.15 M231.37 115.73 C327.07 102.21, 427.36 87.58, 479.37 81.06 M480.00 80.42 C547.85 96.19, 618.39 105.95, 727.84 116.93 M480.53 82.08 C566.79 89.09, 650.31 101.62, 730.61 116.17 M730.83 114.61 C569.14 118.05, 410.68 115.43, 230.47 116.66 M729.71 115.39 C581.33 118.09, 433.46 116.87, 230.50 115.34" fill="none" stroke="#202020" stroke-width="2" stroke-linecap="round" stroke-linejoin="round"/><path d="M386.67 191.84 L579.20 187.10 L572.86 329.78 L387.80 329.90" fill="#faf7ef" stroke="none"/><path d="M381.57 192.65 C444.02 186.37, 505.22 191.11, 579.55 186.72 M383.53 189.78 C449.16 191.88, 514.47 191.26, 575.13 189.77 M577.38 193.11 C575.63 232.04, 574.92 276.99, 577.95 331.71 M574.79 187.77 C575.33 234.36, 576.05 280.42, 577.98 332.85 M579.75 330.57 C508.00 332.98, 448.57 337.63, 383.66 330.59 M574.43 334.21 C520.39 338.05, 469.27 334.81, 385.15 332.77 M386.45 329.74 C384.19 300.38, 381.85 264.52, 384.88 186.57 M385.24 333.92 C382.03 291.01, 383.90 249.89, 385.41 188.79" fill="none" stroke="#202020" stroke-width="2" stroke-linecap="round" stroke-linejoin="round"/><path d="M362.59 307.34 L599.53 305.18 L597.44 407.99 L363.34 411.47" fill="#faf7ef" stroke="none"/><path d="M359.76 308.07 C441.31 307.34, 524.12 307.76, 596.75 310.39 M360.03 305.56 C429.39 306.24, 500.19 306.80, 599.77 305.79 M602.73 310.16 C596.57 330.33, 597.03 348.57, 603.90 411.26 M600.84 308.88 C598.85 341.52, 599.91 378.48, 600.44 409.12 M599.43 408.47 C536.82 411.05, 475.43 413.22, 360.72 407.19 M601.65 410.02 C536.36 410.96, 471.20 409.78, 358.78 409.48 M357.78 407.40 C358.16 377.96, 359.58 350.17, 363.59 308.31 M359.45 408.50 C358.86 381.33, 358.42 352.02, 358.15 307.83" fill="none" stroke="#202020" stroke-width="2" stroke-linecap="round" stroke-linejoin="round"/></svg>