<svg xmlns="http://www.w3.org/2000/svg" viewBox="0 0 900 320" width="900" height="320"><path d="M329.58 58.60 C329.58 58.60, 329.58 58.60, 329.58 58.60 M329.58 58.60 C329.58 58.60, 329.58 58.60, 329.58 58.60 M304.60 93.29 C316.10 73.82, 331.81 65.06, 343.79 46.57 M304.24 90.77 C313.34 82.82, 326.20 72.24, 345.96 47.19 M296.96 102.81 C313.93 90.03, 333.93 69.45, 358.21 37.34 M298.63 103.14 C314.70 88.26, 327.41 75.74, 360.22 34.41 M296.49 113.10 C313.01 88.22, 335.77 71.57, 369.07 26.23 M294.09 115.23 C326.15 82.92, 353.57 48.04, 374.56 27.56 M292.42 128.63 C311.08 103.68, 334.53 75.53, 380.43 24.06 M293.50 126.23 C321.63 94.59, 348.84 61.89, 380.01 24.87 M285.68 136.13 C313.55 106.21, 335.98 80.64, 387.63 19.86 M287.44 137.00 C309.71 112.58, 331.13 87.38, 386.90 20.87 M287.67 145.94 C330.69 93.28, 377.66 44.51, 393.51 14.87 M285.90 147.27 C318.36 104.67, 356.11 63.45, 397.91 16.71 M283.72 156.08 C332.18 100.76, 372.70 45.12, 407.91 11.09 M285.79 151.16 C329.15 103.79, 372.62 53.60, 405.08 14.16 M284.42 160.00 C331.82 100.12, 385.36 41.40, 412.15 8.54 M286.55 157.73 C327.14 117.16, 361.88 75.58, 412.48 11.86 M288.05 163.80 C337.28 99.64, 388.03 37.59, 421.62 12.81 M284.68 165.36 C333.78 113.61, 381.57 58.41, 420.38 11.18 M286.45 167.77 C316.45 140.16, 345.37 103.76, 422.87 7.26 M283.70 171.99 C320.51 127.49, 353.52 87.59, 425.36 11.73 M285.51 173.98 C324.77 131.00, 364.82 78.92, 430.84 13.11 M285.22 175.87 C336.68 119.66, 389.04 59.53, 428.80 9.16 M286.36 180.67 C323.30 138.15, 362.93 97.99, 434.53 8.17 M283.69 182.64 C338.01 125.36, 387.57 65.27, 435.65 12.17 M284.63 191.39 C322.03 146.48, 361.31 104.45, 443.52 12.78 M284.78 190.23 C324.70 146.13, 361.48 102.02, 440.13 11.81 M284.63 196.75 C333.62 141.97, 381.20 88.68, 443.39 13.32 M286.03 197.36 C322.84 154.98, 355.43 117.05, 446.21 10.25 M287.73 199.93 C350.48 126.21, 418.69 47.60, 450.74 14.01 M285.75 201.61 C328.53 155.30, 369.88 106.56, 449.84 12.31 M289.26 206.00 C318.60 167.53, 353.15 126.69, 457.47 13.29 M287.78 203.87 C331.21 154.17, 373.46 103.68, 454.57 10.49 M286.59 211.59 C336.68 154.19, 383.28 102.92, 461.68 8.01 M289.56 210.00 C354.88 130.30, 423.69 52.18, 459.49 11.04 M292.20 217.41 C347.12 155.59, 400.39 88.27, 467.77 9.74 M289.74 215.97 C359.23 135.64, 428.75 56.52, 464.78 11.70 M293.94 217.20 C364.35 136.32, 434.70 54.94, 468.83 13.05 M292.14 219.17 C347.87 149.69, 406.77 84.73, 471.17 11.51 M294.85 226.45 C358.53 150.95, 416.86 81.75, 475.34 11.73 M291.66 222.88 C361.21 146.43, 427.98 69.35, 474.74 12.05 M293.08 227.41 C358.66 158.22, 419.28 87.69, 479.49 13.28 M293.90 228.98 C340.00 174.39, 385.08 121.77, 478.58 14.25 M296.00 233.27 C341.05 175.96, 391.13 122.31, 485.93 17.46 M295.56 232.67 C344.35 175.69, 394.86 117.39, 484.51 14.90 M293.39 236.45 C369.55 150.04, 437.84 71.37, 491.59 16.37 M297.49 238.37 C369.20 151.12, 442.22 67.01, 489.71 14.13 M296.73 243.76 C377.52 151.21, 453.91 63.86, 492.96 17.06 M296.61 242.57 C352.64 185.14, 406.30 123.60, 491.91 16.47 M301.77 247.75 C340.35 202.91, 383.02 153.87, 495.57 15.81 M299.60 244.69 C349.36 182.59, 405.08 121.18, 498.92 16.56 M302.41 251.29 C362.80 175.30, 421.30 104.11, 505.06 16.54 M301.63 250.49 C368.61 167.42, 435.91 89.68, 503.69 17.56 M301.61 254.64 C365.09 179.13, 430.63 111.54, 504.74 16.53 M302.87 252.11 C372.47 172.49, 444.24 91.15, 505.46 18.29 M304.92 258.59 C358.05 195.50, 408.74 141.44, 510.24 21.19 M305.02 257.04 C351.10 204.19, 400.53 150.53, 513.24 19.01 M306.89 259.89 C366.28 189.43, 430.37 121.16, 513.64 19.22 M309.52 259.91 C350.82 211.00, 392.90 161.17, 515.46 21.89 M312.70 262.08 C386.55 175.94, 466.41 86.65, 517.32 24.63 M311.14 263.49 C359.55 208.41, 411.61 151.77, 520.12 22.78 M313.50 266.01 C390.18 182.52, 465.91 91.49, 525.61 23.61 M312.16 268.39 C372.58 195.26, 435.67 121.52, 523.53 23.47 M313.01 268.97 C394.24 178.44, 476.25 85.71, 529.05 28.36 M313.88 271.20 C380.80 195.40, 444.26 121.31, 525.77 28.49 M316.53 275.93 C374.34 209.48, 426.78 143.71, 532.03 28.01 M317.96 273.35 C389.93 190.10, 463.39 106.28, 530.44 29.79 M317.40 275.76 C383.81 205.69, 444.96 129.78, 531.99 29.00 M317.43 277.68 C371.42 214.98, 425.64 150.58, 533.74 31.07 M321.45 283.02 C389.06 203.85, 457.88 121.90, 533.72 36.55 M322.37 281.03 C388.64 203.02, 454.36 127.12, 537.24 34.78 M324.35 285.80 C373.12 227.20, 419.68 165.40, 540.93 36.31 M323.59 285.87 C372.74 223.27, 425.76 162.65, 539.05 36.05 M327.58 289.20 C393.17 208.97, 465.83 125.89, 544.92 40.36 M325.29 289.76 C399.58 205.50, 469.35 123.67, 543.00 37.62 M331.76 290.66 C383.84 217.97, 445.35 152.86, 546.44 42.62 M329.97 290.45 C414.78 191.67, 500.58 91.92, 546.24 40.90 M330.63 292.43 C407.69 211.88, 482.87 123.98, 550.10 42.45 M331.88 292.20 C413.00 204.45, 491.40 113.68, 548.23 43.56 M337.06 294.99 C401.55 227.76, 462.59 155.19, 550.71 44.34 M335.09 296.51 C389.93 232.64, 445.48 168.79, 552.57 46.93 M338.78 297.01 C415.30 206.22, 500.45 112.12, 557.81 47.39 M339.27 299.58 C396.35 231.38, 457.18 161.57, 554.65 47.42 M342.02 301.35 C401.53 230.51, 468.74 157.18, 558.55 50.12 M342.63 301.80 C400.87 227.98, 462.74 156.07, 558.10 51.04 M343.07 304.51 C426.29 211.62, 501.06 124.08, 562.51 53.42 M344.32 303.00 C408.31 232.87, 468.45 161.51, 562.61 53.26 M347.12 306.22 C430.13 214.95, 508.72 121.87, 565.16 56.19 M347.93 306.62 C410.54 232.42, 470.20 160.01, 564.88 56.62 M352.67 310.98 C418.92 236.12, 481.27 156.61, 566.85 61.42 M351.91 308.32 C405.32 244.17, 460.91 181.10, 566.53 61.05 M351.14 309.82 C423.69 232.61, 491.48 155.66, 569.98 64.05 M353.77 311.35 C423.27 229.94, 494.57 147.17, 568.91 63.20 M354.99 313.71 C420.77 240.12, 485.32 164.16, 571.56 64.04 M355.35 314.09 C410.17 250.98, 465.40 190.29, 571.78 66.28 M358.95 318.57 C441.11 221.14, 522.04 134.02, 573.96 70.34 M358.81 316.75 C425.25 242.02, 489.21 168.56, 575.91 69.66 M362.31 317.71 C430.00 244.14, 495.34 165.24, 576.87 69.55 M363.97 319.42 C437.70 230.34, 513.26 140.57, 579.20 72.89 M364.97 322.28 C426.09 254.59, 479.33 191.80, 581.39 75.20 M367.25 320.86 C411.77 268.50, 460.63 213.77, 580.36 76.41 M368.76 319.88 C410.20 274.45, 451.78 227.12, 581.59 79.38 M369.93 321.73 C446.76 238.73, 517.90 155.18, 582.58 77.52 M375.52 323.37 C416.63 272.32, 463.38 220.44, 584.24 78.39 M373.93 323.42 C431.48 257.29, 491.54 188.40, 584.55 81.82 M379.94 325.27 C451.19 237.91, 529.73 150.83, 589.61 85.51 M377.54 323.99 C451.90 235.24, 529.84 149.71, 587.59 83.53 M379.68 328.20 C454.79 249.71, 520.77 168.40, 592.10 85.36 M383.23 327.79 C427.33 278.89, 468.36 231.15, 591.10 85.97 M386.23 326.98 C437.09 269.93, 486.47 211.37, 593.95 92.89 M386.02 327.17 C438.93 270.54, 492.66 208.90, 592.25 90.26 M389.75 330.66 C452.46 260.81, 513.19 186.24, 596.88 96.54 M390.11 328.93 C450.77 259.10, 511.67 189.45, 594.84 96.14 M392.37 331.60 C457.86 260.00, 513.14 197.22, 595.30 98.20 M393.55 333.28 C472.84 242.68, 552.98 148.94, 596.16 97.37 M396.20 331.39 C463.75 261.42, 522.77 193.30, 598.88 102.80 M398.10 333.08 C445.71 282.45, 495.92 226.17, 599.91 102.90 M399.16 333.21 C476.85 246.76, 550.39 161.35, 597.94 107.56 M400.94 335.01 C450.59 277.09, 504.93 215.93, 601.41 106.97 M405.02 339.31 C440.64 294.35, 484.13 248.37, 603.86 111.29 M406.22 336.43 C452.76 288.87, 493.85 237.46, 603.80 109.38 M408.38 339.44 C473.44 265.33, 541.07 184.82, 606.40 113.36 M410.43 337.40 C482.74 249.71, 555.05 164.47, 604.79 115.18 M413.81 337.04 C485.11 256.77, 552.82 177.99, 606.32 116.51 M416.26 337.45 C488.26 254.36, 559.10 171.17, 604.59 119.16 M416.84 341.60 C471.96 277.66, 524.02 215.56, 611.25 121.90 M420.14 339.97 C468.95 281.66, 516.88 222.71, 608.20 122.83 M423.32 340.47 C466.10 295.12, 505.47 246.56, 613.06 127.42 M424.61 339.63 C481.67 275.79, 538.74 213.35, 611.19 125.01 M428.16 337.91 C495.75 266.88, 557.98 196.41, 609.14 129.66 M429.25 341.62 C470.76 290.89, 514.66 241.45, 610.77 131.22 M435.19 342.20 C496.51 273.80, 554.19 206.00, 612.09 136.06 M432.52 342.67 C475.80 288.82, 520.13 238.50, 613.20 136.62 M440.14 343.33 C504.98 257.45, 577.13 177.93, 614.63 141.15 M438.61 342.76 C487.85 281.38, 537.61 225.51, 614.01 139.77 M442.06 339.76 C492.03 288.17, 538.71 233.45, 612.46 143.73 M442.67 342.43 C510.90 265.59, 580.46 189.80, 614.76 144.47 M446.52 342.07 C505.88 273.98, 565.19 214.55, 613.58 153.43 M448.33 342.35 C516.45 266.61, 582.34 189.97, 614.20 151.59 M450.00 345.77 C508.80 283.60, 562.36 221.40, 614.04 156.98 M452.15 342.52 C489.13 302.24, 522.65 263.59, 614.50 157.17 M455.99 342.21 C498.96 297.13, 541.92 245.96, 618.58 163.11 M458.13 343.07 C495.26 302.67, 533.35 257.81, 615.85 161.45 M463.83 345.59 C521.17 274.77, 586.45 200.76, 613.18 168.10 M463.84 343.77 C520.99 277.53, 578.84 210.47, 614.92 165.97 M470.84 342.12 C506.00 299.03, 542.65 261.21, 617.08 174.67 M471.83 341.36 C524.04 275.07, 580.33 213.76, 616.85 174.43 M474.95 337.82 C522.60 286.34, 571.70 226.86, 619.76 178.08 M478.93 340.89 C518.34 289.47, 561.56 241.70, 616.33 178.03 M484.54 336.54 C511.83 295.76, 546.44 258.20, 614.97 184.99 M484.01 339.13 C524.09 290.78, 565.99 245.78, 618.22 186.02 M494.05 334.70 C513.65 308.45, 542.08 282.25, 615.76 195.51 M491.97 337.97 C531.03 295.14, 566.74 252.54, 616.26 194.30 M496.12 333.33 C535.15 292.45, 564.04 256.10, 613.97 200.53 M496.83 335.02 C525.67 308.58, 551.04 278.83, 613.11 198.65 M501.84 332.24 C539.80 299.60, 570.60 255.10, 610.38 210.38 M502.52 332.38 C528.18 303.94, 555.28 274.91, 614.47 207.88 M514.62 332.64 C544.37 296.09, 570.92 254.03, 608.12 219.04 M514.76 330.65 C534.38 305.53, 551.74 284.09, 611.61 214.92 M525.35 324.79 C546.75 293.62, 570.32 265.47, 610.30 223.75 M521.11 324.28 C544.14 299.44, 566.92 274.56, 610.55 222.54 M533.20 319.82 C547.26 297.81, 573.63 278.50, 609.86 229.38 M529.97 322.27 C554.39 290.14, 581.18 262.70, 610.47 229.83 M541.92 320.47 C557.10 288.23, 579.97 264.38, 604.04 239.84 M539.68 315.54 C557.47 293.50, 578.01 270.37, 602.97 242.98 M550.90 312.19 C567.43 290.16, 580.75 274.88, 597.51 257.46 M547.83 314.18 C561.26 301.90, 571.69 287.30, 597.33 258.88" fill="#faf7ef" stroke="none"/><path d="M372.37 26.57 C385.05 16.77, 400.96 12.51, 416.65 9.98 C432.34 7.46, 449.58 9.62, 466.52 11.42 C483.45 13.21, 502.85 14.20, 518.24 20.75 C533.63 27.29, 546.79 39.64, 558.86 50.70 C570.93 61.76, 581.77 73.80, 590.65 87.10 C599.53 100.40, 607.70 114.78, 612.17 130.52 C616.63 146.27, 617.84 164.92, 617.43 181.57 C617.01 198.23, 615.06 214.57, 609.66 230.44 C604.26 246.31, 595.04 263.20, 585.02 276.81 C574.99 290.42, 562.67 302.86, 549.51 312.11 C536.36 321.36, 521.51 327.05, 506.09 332.31 C490.67 337.56, 473.26 342.81, 456.99 343.64 C440.72 344.47, 424.19 341.44, 408.45 337.29 C392.71 333.14, 376.81 327.40, 362.54 318.76 C348.28 310.11, 333.68 298.02, 322.86 285.43 C312.04 272.84, 304.16 258.41, 297.63 243.21 C291.10 228.01, 285.77 210.78, 283.69 194.24 C281.60 177.70, 281.96 160.26, 285.12 143.95 C288.28 127.64, 295.19 110.68, 302.66 96.40 C310.12 82.11, 315.04 71.32, 329.90 58.24 C344.75 45.16, 377.41 25.13, 391.77 17.91 C406.12 10.70, 415.33 12.10, 416.00 14.95 M550.83 44.61 C564.95 51.84, 576.49 65.36, 586.41 78.45 C596.34 91.55, 605.27 107.28, 610.39 123.18 C615.50 139.08, 616.42 157.71, 617.10 173.87 C617.79 190.02, 618.97 204.91, 614.50 220.11 C610.02 235.32, 600.07 250.76, 590.24 265.10 C580.40 279.45, 567.47 295.00, 555.48 306.16 C543.50 317.33, 533.25 326.05, 518.33 332.10 C503.41 338.14, 482.69 341.58, 465.95 342.44 C449.21 343.29, 433.95 340.21, 417.88 337.23 C401.82 334.26, 384.15 331.85, 369.56 324.59 C354.98 317.33, 341.69 306.07, 330.39 293.67 C319.08 281.28, 309.02 265.34, 301.73 250.24 C294.45 235.14, 289.43 219.24, 286.65 203.06 C283.88 186.87, 283.11 169.59, 285.09 153.12 C287.06 136.64, 291.72 118.82, 298.51 104.23 C305.31 89.64, 315.69 77.29, 325.87 65.57 C336.05 53.85, 345.49 42.63, 359.59 33.92 C373.69 25.21, 394.33 17.57, 410.48 13.29 C426.64 9.01, 439.96 7.39, 456.51 8.24 C473.07 9.08, 493.94 13.06, 509.79 18.38 C525.65 23.69, 545.46 35.94, 551.64 40.13 C557.82 44.31, 548.48 40.89, 546.89 43.50" fill="none" stroke="#202020" stroke-width="2" stroke-linecap="round" stroke-linejoin="round"/><path d="M262.00 50.20 C262.00 50.20, 262.00 50.20, 262.00 50.20 M262.00 50.20 C262.00 50.20, 262.00 50.20, 262.00 50.20 M254.00 59.52 C272.24 46.78, 281.71 33.04, 312.08 -2.15 M258.79 61.83 C276.80 41.51, 295.49 20.90, 311.69 -3.71 M251.30 70.98 C271.14 51.39, 287.62 35.23, 331.10 -13.18 M251.99 74.42 C270.35 57.68, 284.34 39.36, 329.25 -15.67 M249.56 89.27 C280.14 43.98, 317.87 7.80, 345.58 -34.06 M247.76 87.41 C266.28 64.85, 287.82 39.06, 347.40 -28.90 M242.91 100.26 C275.45 55.42, 317.96 6.59, 357.19 -35.77 M242.64 97.25 C277.52 60.82, 309.74 22.88, 353.68 -34.38 M237.29 102.57 C278.39 58.09, 313.39 12.67, 367.03 -33.43 M239.88 107.58 C265.76 72.51, 293.46 42.27, 362.39 -35.07 M238.44 117.78 C271.68 78.37, 299.05 45.06, 367.96 -41.93 M237.29 114.61 C277.66 73.47, 315.81 30.30, 370.99 -37.39 M234.08 123.30 C273.49 78.59, 306.29 41.55, 377.28 -40.59 M237.74 121.61 C270.61 82.95, 303.38 45.68, 379.16 -42.35 M235.29 129.00 C286.39 70.08, 331.99 18.23, 387.99 -45.26 M235.86 130.45 C292.56 63.47, 349.80 -1.80, 388.40 -43.67 M235.68 139.03 C284.51 75.73, 334.88 20.48, 396.17 -44.57 M233.11 137.36 C272.82 93.95, 311.63 48.82, 395.91 -48.59 M230.50 146.41 C268.70 107.77, 302.00 68.83, 399.64 -51.70 M231.01 147.41 C296.59 64.87, 362.73 -11.66, 402.98 -49.29 M229.91 152.03 C288.38 86.78, 338.46 28.71, 410.52 -50.71 M231.10 152.31 C296.52 77.91, 362.66 1.51, 407.86 -50.72 M230.16 158.42 C297.50 86.18, 364.80 3.26, 415.59 -50.79 M230.07 160.85 C281.70 106.29, 329.65 49.30, 413.89 -49.87 M232.24 169.05 C288.89 96.65, 345.52 29.64, 418.51 -54.00 M231.00 167.14 C280.83 106.92, 328.43 50.79, 418.35 -52.33 M230.64 173.09 C284.71 110.45, 341.69 48.86, 422.89 -50.86 M229.80 172.70 C289.58 99.56, 351.76 30.14, 425.23 -53.28 M233.21 178.67 C300.28 92.61, 377.49 3.75, 433.40 -50.61 M230.01 176.70 C287.54 108.25, 345.75 43.81, 431.37 -51.65 M233.63 181.14 C304.89 97.33, 380.59 12.17, 437.88 -54.45 M230.54 184.04 C271.71 134.75, 315.24 86.36, 437.47 -52.24 M231.94 188.83 C310.46 99.15, 386.50 9.35, 442.11 -54.09 M230.19 190.26 C313.06 95.17, 396.01 -1.37, 443.22 -52.82 M229.63 194.54 C297.56 119.99, 364.93 40.59, 450.69 -55.99 M231.73 194.78 C279.78 135.93, 333.77 77.69, 448.27 -52.96 M229.72 201.86 C281.94 141.07, 336.75 78.87, 455.24 -55.46 M231.87 201.24 C287.90 140.97, 339.91 79.54, 454.59 -55.78 M230.65 207.94 C325.10 105.80, 414.51 4.99, 458.70 -55.23 M231.47 206.96 C288.49 142.09, 341.10 80.21, 459.78 -53.69 M230.77 209.21 C321.92 110.91, 403.35 16.08, 465.51 -53.35 M233.29 210.59 C305.05 125.72, 379.56 40.35, 464.06 -52.76 M235.19 218.15 C307.48 133.27, 379.98 47.02, 468.96 -55.10 M232.17 218.05 C312.54 127.17, 391.76 36.59, 467.08 -52.35 M232.67 223.76 C306.30 136.22, 382.11 55.89, 475.50 -54.37 M234.35 221.65 C328.88 115.59, 420.43 10.01, 473.76 -53.38 M236.34 228.12 C320.80 131.61, 404.45 37.47, 478.31 -54.45 M235.05 226.66 C289.27 161.62, 345.31 98.68, 478.78 -51.47 M238.97 231.38 C289.42 171.58, 339.34 111.35, 482.13 -52.51 M236.57 230.13 C314.55 147.68, 390.32 61.81, 483.51 -51.15 M239.82 237.70 C327.82 133.81, 413.04 31.50, 489.01 -52.32 M237.22 236.28 C312.20 151.30, 385.67 67.80, 488.56 -51.32 M241.08 241.86 C295.33 173.63, 353.80 109.33, 491.35 -51.25 M238.40 240.28 C299.65 168.88, 360.09 99.74, 492.91 -50.10 M242.90 245.45 C335.96 140.39, 427.01 32.00, 496.67 -51.95 M241.58 246.19 C310.25 171.55, 375.33 94.41, 497.07 -50.81 M243.03 250.15 C320.20 160.29, 395.59 68.66, 504.29 -51.54 M242.01 250.93 C313.41 167.24, 384.04 85.66, 503.15 -49.79 M242.26 256.40 C326.51 162.79, 410.02 64.73, 508.45 -50.44 M243.82 255.55 C312.51 177.94, 383.27 98.08, 508.31 -48.44 M245.89 261.86 C328.39 165.03, 409.48 73.23, 509.74 -47.93 M244.33 258.82 C314.64 178.01, 388.58 96.82, 510.76 -47.50 M246.99 265.66 C344.73 153.55, 440.36 42.66, 517.47 -47.79 M244.95 264.94 C321.23 171.84, 400.46 81.04, 515.94 -45.86 M247.71 269.48 C347.14 150.26, 451.31 34.05, 520.14 -43.57 M246.81 267.89 C349.01 150.14, 450.67 33.74, 519.49 -44.37 M248.22 275.01 C306.51 208.05, 366.97 138.68, 522.66 -41.60 M246.83 273.19 C309.21 210.22, 365.38 143.97, 523.56 -42.50 M249.72 275.58 C347.25 165.78, 446.87 56.80, 525.27 -39.56 M251.27 277.00 C350.26 158.65, 454.22 41.16, 526.40 -41.58 M251.22 279.34 C335.97 187.27, 417.28 91.00, 529.73 -40.11 M252.76 280.11 C315.82 206.93, 376.09 135.96, 530.01 -38.89 M256.17 284.20 C335.86 189.66, 419.26 96.64, 533.64 -36.16 M254.28 285.32 C340.22 179.92, 429.29 78.95, 533.56 -36.93 M254.78 288.26 C346.99 185.50, 439.82 78.32, 536.85 -34.96 M256.07 288.58 C324.72 208.17, 393.13 128.19, 537.69 -35.44 M258.11 291.01 C353.55 181.61, 447.44 72.45, 542.09 -31.95 M259.14 290.78 C371.78 161.96, 483.72 33.91, 541.87 -33.53 M261.61 294.76 C332.63 212.17, 400.64 132.94, 546.30 -31.12 M260.18 295.67 C363.70 175.82, 468.68 54.84, 544.84 -31.62 M261.45 298.32 C376.54 167.40, 488.78 32.65, 549.70 -31.01 M263.57 298.98 C346.13 202.06, 431.13 104.60, 549.66 -30.60 M266.71 303.45 C368.84 186.23, 471.73 66.28, 553.22 -29.09 M266.16 302.53 C348.51 206.72, 433.51 110.99, 552.91 -29.01 M266.51 308.40 C333.42 229.44, 403.10 150.56, 557.94 -26.01 M267.22 305.86 C322.22 240.89, 380.68 174.23, 557.56 -27.32 M271.44 308.35 C366.89 200.37, 467.03 87.38, 562.56 -25.38 M269.28 309.40 C333.08 238.01, 397.33 164.30, 560.43 -25.32 M271.75 314.78 C358.71 214.92, 446.74 115.80, 563.45 -22.06 M272.55 312.55 C366.30 202.47, 463.90 89.95, 563.33 -23.53 M273.44 317.48 C365.35 212.96, 455.30 108.86, 566.35 -19.26 M274.05 316.83 C351.81 226.92, 432.56 133.69, 567.68 -20.34 M276.00 319.55 C387.58 197.74, 494.08 71.28, 570.36 -15.55 M276.42 320.61 C395.54 183.47, 512.00 49.17, 569.80 -16.67 M277.18 322.96 C342.01 252.53, 404.92 181.87, 574.01 -13.15 M278.06 324.08 C357.25 235.04, 433.21 147.50, 573.47 -14.37 M280.59 326.39 C385.01 205.56, 492.64 79.63, 575.37 -10.47 M281.36 326.94 C361.90 234.21, 442.59 141.20, 575.92 -12.13 M284.07 329.85 C377.96 218.18, 473.25 109.74, 580.79 -9.40 M284.83 328.67 C397.03 193.47, 514.17 62.21, 578.85 -9.42 M286.29 332.23 C389.08 209.91, 493.27 90.20, 582.28 -7.45 M287.06 332.50 C380.80 230.95, 470.47 128.07, 582.84 -6.33 M290.52 335.50 C365.34 247.38, 439.19 161.62, 586.12 -4.17 M290.43 334.58 C390.25 221.35, 491.02 104.64, 585.67 -5.80 M291.63 337.80 C409.12 204.05, 525.15 72.57, 588.74 -4.26 M292.71 338.48 C381.21 237.88, 468.50 136.97, 588.90 -1.98 M294.57 341.77 C397.12 221.07, 502.86 102.36, 591.19 -1.14 M296.18 339.89 C374.10 245.26, 454.98 152.20, 590.94 0.99 M298.23 343.60 C391.44 238.36, 484.53 128.26, 593.54 2.01 M297.35 344.72 C361.10 269.23, 424.26 194.86, 594.83 2.30 M299.31 346.08 C379.98 252.54, 461.18 156.20, 596.42 5.63 M301.11 345.83 C374.46 259.43, 449.93 172.10, 597.29 6.21 M304.20 347.48 C409.94 226.09, 515.66 100.00, 602.15 6.75 M304.26 349.61 C370.00 269.46, 438.14 192.96, 601.25 7.88 M308.68 352.98 C414.63 229.57, 523.12 102.49, 604.78 11.25 M307.63 351.69 C378.13 268.03, 451.02 184.59, 603.26 10.66 M307.92 355.13 C372.06 288.35, 431.92 217.09, 604.94 14.91 M309.53 354.28 C420.68 234.07, 529.19 109.49, 605.63 14.33 M311.41 356.76 C395.10 262.34, 476.86 169.36, 609.62 18.21 M312.29 358.42 C372.14 289.64, 434.43 216.41, 608.77 17.83 M314.06 361.85 C377.41 290.14, 441.52 215.00, 611.22 20.68 M315.75 361.38 C398.08 260.56, 481.20 163.72, 611.40 21.11 M317.75 361.35 C422.35 245.07, 520.79 131.50, 614.03 22.51 M317.84 363.67 C383.32 287.91, 447.37 212.63, 613.90 22.98 M323.06 366.53 C412.76 260.53, 505.29 156.67, 614.90 25.61 M321.63 365.19 C427.84 247.12, 531.43 127.74, 616.88 27.69 M323.88 365.64 C434.13 242.36, 537.01 121.99, 618.72 30.45 M324.59 366.71 C399.77 275.14, 477.41 186.82, 619.24 29.49 M330.00 369.12 C440.38 237.90, 556.30 107.78, 622.62 32.25 M329.68 369.29 C446.55 234.46, 561.27 101.67, 621.30 34.08 M334.46 372.40 C426.26 268.55, 514.94 165.14, 625.19 34.29 M333.23 371.11 C411.71 279.25, 487.63 191.06, 623.10 35.31 M336.21 373.49 C405.47 291.15, 479.03 207.87, 625.36 40.63 M336.92 372.79 C445.27 244.95, 554.62 116.82, 626.25 39.64 M339.54 376.67 C409.66 295.44, 478.30 214.93, 628.12 42.26 M340.66 375.64 C427.95 274.37, 516.48 173.04, 628.45 43.78 M344.09 377.49 C453.66 252.48, 563.53 122.37, 632.43 44.65 M343.05 377.12 C410.82 292.77, 483.01 212.25, 631.41 46.92 M348.31 380.93 C436.62 268.54, 531.07 162.49, 632.25 49.52 M346.87 378.95 C447.35 259.91, 550.92 141.53, 634.38 50.74 M349.79 381.46 C406.29 316.75, 464.33 249.55, 637.64 53.25 M351.14 382.28 C448.73 269.64, 548.16 155.41, 636.16 52.38 M355.57 381.80 C460.89 259.11, 567.48 136.03, 637.99 54.52 M353.82 384.25 C416.16 311.73, 476.41 241.93, 637.98 56.59 M355.69 383.39 C420.32 309.73, 484.71 237.77, 640.03 59.01 M356.77 384.91 C420.77 307.79, 484.05 235.06, 641.46 59.92 M362.01 389.72 C461.34 269.49, 567.36 149.21, 642.77 65.82 M361.54 388.66 C455.43 279.89, 552.86 168.16, 642.69 63.55 M364.75 388.25 C472.10 268.93, 577.52 146.19, 642.87 66.19 M364.82 388.90 C433.16 309.42, 503.15 228.57, 644.80 67.81 M370.64 390.62 C462.30 278.33, 560.34 163.25, 645.18 70.17 M369.42 391.72 C475.96 265.96, 586.04 142.01, 645.98 72.25 M372.61 394.31 C477.15 274.05, 577.66 158.48, 645.87 75.16 M372.33 392.60 C473.90 274.36, 575.70 157.18, 647.64 75.72 M378.38 395.86 C462.84 292.86, 549.90 193.38, 649.09 79.18 M376.28 394.16 C442.63 317.96, 509.24 240.07, 649.71 80.41 M382.97 394.91 C474.68 287.28, 566.50 183.68, 653.25 85.09 M380.25 394.00 C480.26 283.28, 575.88 172.27, 651.68 83.12 M383.57 396.04 C459.08 314.71, 530.31 233.77, 655.11 86.11 M384.97 395.56 C472.59 295.06, 561.97 192.84, 653.80 87.71 M390.48 396.28 C478.72 296.36, 560.55 200.44, 653.98 91.02 M390.57 397.70 C498.37 276.93, 601.95 156.31, 653.83 91.64 M392.46 397.99 C457.81 325.45, 524.35 250.19, 656.01 97.54 M394.97 397.79 C473.44 306.71, 553.01 214.30, 656.49 97.42 M399.26 399.81 C474.51 308.76, 551.64 216.68, 659.42 98.86 M398.13 399.22 C480.07 308.48, 559.78 215.10, 657.26 100.33 M402.89 399.68 C497.47 292.13, 596.55 175.94, 659.02 101.85 M402.96 402.13 C458.84 339.46, 516.30 274.69, 660.13 104.74 M406.34 400.69 C464.32 339.09, 522.93 267.30, 661.67 108.37 M407.27 401.59 C460.99 333.43, 519.73 266.87, 661.60 108.47 M409.66 402.87 C499.54 298.25, 595.72 193.40, 664.43 115.29 M411.65 403.28 C474.61 326.78, 539.72 255.11, 661.98 114.14 M412.70 405.57 C510.07 298.03, 607.91 187.34, 663.82 118.20 M415.99 404.84 C505.70 298.62, 596.36 191.90, 664.10 118.36 M420.79 404.68 C471.79 350.03, 523.65 292.70, 666.83 122.31 M418.64 405.60 C491.80 321.55, 566.57 235.91, 664.79 122.58 M422.21 405.30 C474.82 346.04, 527.40 291.17, 665.75 128.77 M425.61 406.62 C478.32 342.05, 532.35 280.94, 666.35 127.94 M429.82 403.78 C484.42 344.38, 536.84 276.05, 667.70 132.23 M430.73 404.99 C487.85 337.57, 546.48 271.39, 665.97 132.47 M434.80 406.51 C491.10 344.80, 544.71 283.45, 668.04 138.36 M435.89 404.95 C519.87 303.33, 608.06 202.60, 669.06 138.89 M440.90 403.05 C517.77 311.31, 593.98 225.54, 668.76 141.14 M439.44 406.21 C533.24 299.84, 624.99 196.69, 668.95 142.92 M447.70 403.38 C505.92 333.18, 573.28 257.17, 671.06 146.46 M446.34 406.08 C520.17 321.32, 594.05 237.23, 670.78 147.25 M453.73 403.19 C498.87 347.84, 552.09 291.62, 671.13 152.14 M452.60 404.46 C514.89 331.60, 579.62 257.41, 670.01 151.71 M457.18 407.65 C508.75 346.20, 560.85 290.02, 673.69 159.60 M457.58 404.25 C506.98 351.97, 556.58 296.65, 672.67 159.24 M462.91 406.96 C517.23 336.72, 578.18 270.73, 673.76 163.83 M462.26 406.59 C533.44 318.24, 606.63 236.23, 672.34 163.72 M467.05 407.38 C526.61 335.15, 589.23 269.82, 672.87 169.30 M468.66 404.41 C539.34 326.57, 611.10 242.88, 673.06 169.32 M473.17 406.69 C552.50 309.06, 629.45 218.64, 674.07 174.45 M473.32 406.77 C547.22 315.24, 624.28 228.97, 672.33 176.95 M479.86 404.49 C549.58 323.44, 626.57 242.91, 668.29 181.70 M479.34 404.29 C540.45 331.92, 604.07 259.00, 671.68 183.31 M484.47 405.67 C531.99 349.89, 580.40 293.91, 671.74 191.93 M484.74 402.84 C538.42 343.93, 591.02 281.20, 672.16 188.50 M491.99 401.84 C546.96 340.19, 599.08 284.45, 672.78 196.77 M492.17 401.49 C558.50 327.43, 623.88 252.53, 669.85 195.38 M500.15 402.34 C565.30 325.83, 632.05 255.73, 668.56 201.52 M497.68 402.48 C536.08 358.73, 572.38 316.30, 669.67 201.92 M505.06 401.54 C539.15 355.19, 577.93 315.83, 671.54 209.35 M505.65 397.81 C571.23 328.05, 634.48 252.62, 667.72 209.49 M514.34 399.62 C566.32 335.20, 622.92 266.68, 667.81 220.29 M511.22 397.89 C562.61 341.59, 611.54 283.90, 669.32 217.42 M520.35 394.90 C576.76 329.15, 635.40 256.48, 669.40 221.47 M517.34 395.99 C551.07 357.42, 583.90 318.30, 668.60 225.27 M520.84 392.81 C563.81 346.24, 606.50 294.18, 665.50 231.94 M524.15 396.06 C561.59 353.89, 598.89 310.08, 664.98 234.56 M530.83 395.96 C577.99 345.74, 624.22 293.94, 658.91 242.62 M529.24 393.94 C570.74 347.27, 610.20 302.36, 661.67 242.59 M544.04 388.27 C580.63 342.86, 616.34 303.85, 655.59 252.21 M540.05 387.33 C574.34 348.96, 612.38 305.55, 655.84 255.24 M553.17 384.04 C589.09 339.15, 624.62 305.37, 656.66 266.82 M554.30 379.23 C592.73 333.86, 629.32 289.55, 654.59 261.12 M566.20 375.78 C595.59 343.79, 625.84 302.83, 653.29 272.37 M564.06 375.12 C583.49 348.57, 604.90 322.24, 651.94 275.07 M573.64 364.88 C589.35 352.02, 604.45 334.22, 644.30 290.64 M573.03 368.13 C602.12 337.03, 626.79 303.73, 644.31 286.45 M592.90 352.80 C604.18 342.63, 618.69 323.36, 636.06 302.33 M592.34 356.56 C602.02 345.63, 609.07 333.89, 631.82 307.17 M615.14 331.17 C617.21 328.19, 619.73 328.42, 625.66 321.28 M615.82 332.62 C619.17 330.43, 622.19 325.19, 622.95 324.13" fill="#faf7ef" stroke="none"/><path d="M347.10 -30.35 C361.32 -42.33, 380.64 -45.40, 398.32 -49.53 C416.00 -53.66, 434.98 -55.13, 453.18 -55.14 C471.38 -55.15, 489.89 -54.43, 507.55 -49.59 C525.21 -44.74, 543.39 -35.84, 559.14 -26.08 C574.89 -16.32, 588.95 -4.48, 602.05 8.97 C615.15 22.42, 627.93 38.51, 637.72 54.63 C647.51 70.74, 654.92 87.16, 660.77 105.65 C666.63 124.14, 671.72 146.38, 672.86 165.59 C673.99 184.79, 671.63 202.11, 667.59 220.89 C663.54 239.67, 656.37 260.65, 648.60 278.26 C640.83 295.86, 632.65 312.11, 620.95 326.53 C609.26 340.94, 593.51 353.68, 578.42 364.75 C563.33 375.82, 547.72 386.21, 530.42 392.94 C513.11 399.67, 493.16 403.04, 474.59 405.14 C456.02 407.23, 437.13 408.04, 418.99 405.51 C400.84 402.97, 382.73 397.14, 365.72 389.91 C348.72 382.69, 331.80 373.49, 316.95 362.15 C302.10 350.80, 288.10 336.54, 276.63 321.87 C265.15 307.19, 255.34 291.33, 248.08 274.10 C240.82 256.87, 236.21 237.88, 233.07 218.50 C229.93 199.11, 228.09 177.19, 229.24 157.77 C230.39 138.36, 234.50 120.00, 240.00 102.03 C245.49 84.07, 252.22 65.87, 262.21 49.96 C272.19 34.05, 283.95 20.70, 299.93 6.59 C315.90 -7.53, 345.82 -27.30, 358.05 -34.74 C370.29 -42.18, 371.87 -41.27, 373.34 -38.06 M580.01 -14.66 C596.18 -7.26, 605.12 9.63, 616.48 24.16 C627.83 38.69, 639.63 55.48, 648.14 72.52 C656.64 89.55, 663.71 107.67, 667.52 126.36 C671.33 145.06, 672.26 165.30, 671.00 184.69 C669.73 204.08, 665.52 223.73, 659.93 242.70 C654.34 261.66, 646.89 282.31, 637.43 298.47 C627.97 314.62, 616.36 326.92, 603.17 339.63 C589.97 352.35, 574.39 364.45, 558.28 374.75 C542.16 385.06, 524.11 396.35, 506.47 401.47 C488.83 406.58, 470.41 405.70, 452.43 405.43 C434.44 405.17, 415.67 404.12, 398.56 399.88 C381.44 395.63, 366.33 388.89, 349.72 379.97 C333.11 371.05, 313.36 358.80, 298.89 346.36 C284.42 333.91, 272.84 320.83, 262.90 305.28 C252.96 289.73, 244.44 271.88, 239.26 253.05 C234.07 234.22, 232.81 211.30, 231.79 192.30 C230.78 173.29, 230.90 157.06, 233.16 139.00 C235.42 120.95, 238.14 101.48, 245.34 83.96 C252.55 66.45, 264.52 49.51, 276.38 33.91 C288.24 18.30, 301.68 2.46, 316.50 -9.66 C331.32 -21.78, 348.46 -31.27, 365.31 -38.82 C382.16 -46.37, 399.57 -52.23, 417.58 -54.98 C435.60 -57.72, 455.50 -57.61, 473.39 -55.28 C491.27 -52.95, 507.41 -48.30, 524.88 -40.99 C542.34 -33.67, 569.45 -16.52, 578.18 -11.38 C586.91 -6.24, 579.13 -13.30, 577.27 -10.14" fill="none" stroke="#202020" stroke-width="2" stroke-linecap="round" stroke-linejoin="round"/><path d="M383.10 95.78 C389.97 85.52, 401.49 77.79, 412.07 72.13 C422.66 66.47, 434.73 62.53, 446.60 61.82 C458.47 61.10, 472.54 63.24, 483.31 67.85 C494.09 72.47, 502.58 80.32, 511.25 89.50 C519.93 98.67, 529.50 111.13, 535.38 122.91 C541.25 134.69, 545.57 146.84, 546.51 160.15 C547.44 173.46, 543.76 189.25, 540.98 202.79 C538.21 216.33, 536.21 229.94, 529.85 241.39 C523.49 252.84, 512.99 263.66, 502.81 271.49 C492.64 279.32, 479.83 285.46, 468.81 288.36 C457.78 291.26, 448.04 291.08, 436.69 288.87 C425.33 286.66, 410.53 281.78, 400.66 275.10 C390.79 268.42, 384.70 259.44, 377.45 248.79 C370.20 238.14, 361.17 224.49, 357.16 211.22 C353.14 197.95, 352.38 182.63, 353.36 169.17 C354.35 155.70, 354.02 146.19, 363.08 130.41 C372.14 114.64, 395.32 85.00, 407.72 74.51 C420.12 64.02, 436.42 65.98, 437.46 67.47 M496.43 74.71 C506.86 79.81, 516.36 93.86, 523.17 104.24 C529.98 114.62, 533.76 125.07, 537.29 136.98 C540.82 148.89, 544.52 162.32, 544.34 175.70 C544.16 189.09, 539.97 204.60, 536.21 217.32 C532.45 230.03, 529.65 241.83, 521.76 252.01 C513.87 262.18, 500.01 272.05, 488.87 278.36 C477.72 284.68, 466.22 288.94, 454.89 289.93 C443.55 290.92, 431.97 288.09, 420.85 284.30 C409.74 280.51, 396.66 275.24, 388.18 267.21 C379.71 259.17, 375.61 248.53, 369.99 236.07 C364.37 223.61, 356.37 206.61, 354.48 192.45 C352.59 178.28, 356.40 163.82, 358.63 151.09 C360.85 138.35, 361.83 127.36, 367.82 116.02 C373.80 104.68, 384.49 91.08, 394.53 83.07 C404.57 75.05, 417.27 70.79, 428.05 67.93 C438.83 65.08, 447.73 64.44, 459.21 65.93 C470.69 67.42, 491.27 74.75, 496.92 76.86 C502.57 78.97, 494.12 76.88, 493.11 78.57" fill="#faf7ef" stroke="none"/><path d="M456.03 64.63 C467.37 64.36, 481.29 69.81, 492.16 75.27 C503.03 80.74, 513.32 87.75, 521.24 97.42 C529.16 107.09, 535.80 120.48, 539.67 133.28 C543.53 146.08, 544.45 160.21, 544.43 174.21 C544.41 188.22, 543.10 204.40, 539.56 217.33 C536.02 230.25, 530.60 241.65, 523.21 251.79 C515.81 261.94, 505.49 271.75, 495.21 278.18 C484.94 284.61, 473.25 288.80, 461.56 290.37 C449.87 291.94, 436.57 291.47, 425.06 287.60 C413.56 283.73, 401.58 275.42, 392.53 267.15 C383.48 258.88, 376.56 249.59, 370.77 237.99 C364.98 226.40, 360.26 211.12, 357.78 197.59 C355.29 184.06, 354.50 169.82, 355.87 156.82 C357.24 143.83, 360.30 131.30, 366.01 119.60 C371.72 107.90, 381.04 95.59, 390.14 86.62 C399.23 77.65, 404.17 68.36, 420.57 65.78 C436.96 63.20, 472.62 66.29, 488.50 71.12 C504.37 75.94, 516.16 93.07, 515.83 94.73 M398.10 83.55 C406.56 75.24, 418.66 70.61, 429.89 67.28 C441.12 63.94, 453.88 61.33, 465.47 63.54 C477.06 65.75, 489.04 73.80, 499.41 80.54 C509.79 87.29, 520.64 93.48, 527.72 104.01 C534.79 114.54, 539.10 130.53, 541.86 143.71 C544.62 156.89, 545.21 170.16, 544.30 183.11 C543.39 196.06, 540.92 209.25, 536.40 221.39 C531.88 233.52, 525.40 246.26, 517.20 255.91 C509.00 265.57, 498.08 274.14, 487.20 279.34 C476.32 284.54, 463.93 286.05, 451.93 287.11 C439.92 288.17, 425.89 289.77, 415.19 285.68 C404.49 281.59, 395.58 271.88, 387.73 262.58 C379.88 253.28, 374.00 242.41, 368.08 229.90 C362.15 217.39, 353.45 201.66, 352.16 187.51 C350.87 173.36, 357.41 158.21, 360.32 145.02 C363.23 131.84, 363.71 118.82, 369.59 108.40 C375.48 97.99, 391.07 86.67, 395.65 82.53 C400.22 78.38, 395.62 82.17, 397.04 83.54" fill="none" stroke="#202020" stroke-width="2" stroke-linecap="round" stroke-linejoin="round"/><path d="M658.13 -30.05 C675.33 -50.67, 690.31 -67.66, 735.02 -107.98 M654.88 -28.81 C686.57 -61.27, 718.81 -93.47, 737.39 -110.76" fill="none" stroke="#202020" stroke-width="2" stroke-linecap="round" stroke-linejoin="round"/><path d="M653.99 386.03 C684.51 410.33, 714.96 443.75, 738.06 465.01 M658.08 384.18 C687.66 413.27, 720.57 445.54, 735.98 464.33" fill="none" stroke="#202020" stroke-width="2" stroke-linecap="round" stroke-linejoin="round"/><path d="M245.62 382.52 C225.97 401.72, 206.58 421.74, 160.28 461.70 M245.42 381.75 C215.63 414.84, 182.90 442.54, 162.95 463.12" fill="none" stroke="#202020" stroke-width="2" stroke-linecap="round" stroke-linejoin="round"/><path d="M247.28 -30.85 C217.35 -57.11, 197.88 -72.83, 165.09 -113.12 M242.63 -30.01 C227.98 -47.17, 209.26 -63.19, 162.38 -111.74" fill="none" stroke="#202020" stroke-width="2" stroke-linecap="round" stroke-linejoin="round"/></svg>