<svg xmlns="http://www.w3.org/2000/svg" viewBox="0 0 900 320" width="900" height="320"><path d="M13.67 12.55 C228.47 12.18, 443.36 13.00, 887.09 14.02 M13.62 13.21 C250.11 15.12, 486.47 15.07, 886.06 14.13 M886.23 16.81 C884.10 86.59, 885.74 158.51, 885.71 303.83 M887.19 15.13 C890.05 73.84, 890.42 134.48, 884.70 305.19 M887.41 305.21 C539.63 302.30, 196.01 301.32, 15.19 307.04 M885.26 306.20 C607.39 306.47, 329.88 307.00, 13.66 305.94 M12.95 308.65 C14.92 191.39, 14.96 74.72, 13.36 12.39 M14.29 305.15 C11.53 209.77, 12.44 112.21, 15.19 12.96" fill="none" stroke="#202020" stroke-width="2" stroke-linecap="round" stroke-linejoin="round"/><path d="M26.46 31.67 C341.16 28.17, 651.91 28.23, 873.03 32.77 M27.59 31.65 C335.82 34.81, 644.47 35.50, 871.72 32.57" fill="none" stroke="#202020" stroke-width="2" stroke-linecap="round" stroke-linejoin="round"/><path d="M26.81 118.63 C315.90 116.86, 602.88 119.97, 872.87 116.13 M28.67 117.61 C201.55 117.12, 373.90 117.37, 872.69 117.93" fill="none" stroke="#202020" stroke-width="2" stroke-linecap="round" stroke-linejoin="round"/><path d="M29.40 202.58 C240.17 207.32, 455.11 206.98, 873.54 202.73 M27.78 202.02 C248.32 198.89, 468.01 198.45, 872.23 203.41" fill="none" stroke="#202020" stroke-width="2" stroke-linecap="round" stroke-linejoin="round"/><path d="M27.57 288.14 C348.92 281.14, 671.67 281.36, 871.22 287.38 M28.42 287.39 C224.98 291.20, 421.88 290.67, 872.53 288.75" fill="none" stroke="#202020" stroke-width="2" stroke-linecap="round" stroke-linejoin="round"/></svg>