<svg xmlns="http://www.w3.org/2000/svg" viewBox="0 0 900 300" width="900" height="300"><path d="M453.89 11.33 L714.34 103.62 L183.24 108.65" fill="#faf7ef" stroke="none"/><path d="M446.99 9.20 C527.25 37.18, 599.43 67.08, 715.85 106.74 M450.16 9.63 C537.61 41.74, 626.13 71.45, 714.34 104.71 M713.51 104.28 C572.98 105.58, 430.22 104.06, 184.60 104.13 M713.69 105.33 C598.35 101.67, 483.86 101.06, 185.79 105.37 M185.04 104.88 C271.68 76.79, 359.48 43.66, 447.94 12.10 M186.68 104.09 C270.43 76.02, 357.13 44.95, 448.83 9.67" fill="none" stroke="#202020" stroke-width="2" stroke-linecap="round" stroke-linejoin="round"/><path d="M716.32 101.24 L889.43 272.33 L446.80 289.71 L10.42 266.85 L182.07 103.57" fill="#faf7ef" stroke="none"/><path d="M710.72 105.34 C771.39 159.49, 835.21 216.41, 888.86 267.24 M713.06 105.06 C762.90 153.68, 811.51 199.92, 889.12 269.37 M889.34 269.94 C719.83 275.09, 549.53 282.55, 448.59 288.70 M889.04 270.53 C793.18 272.20, 697.68 275.81, 450.57 289.64 M451.11 291.13 C313.00 283.49, 179.26 277.54, 10.02 268.05 M449.50 289.85 C347.22 289.05, 243.19 284.06, 9.23 269.56 M10.86 272.92 C52.31 227.97, 93.14 187.10, 184.32 103.76 M10.88 271.22 C61.13 220.86, 109.53 172.57, 186.27 104.69 M186.63 106.06 C377.37 104.28, 566.59 103.65, 713.76 104.67 M185.40 104.41 C314.35 105.90, 442.59 105.70, 714.33 105.42" fill="none" stroke="#202020" stroke-width="2" stroke-linecap="round" stroke-linejoin="round"/><path d="M451.37 8.61 C452.44 86.61, 453.61 159.96, 450.31 288.52 M450.57 10.17 C453.22 95.33, 451.69 181.58, 448.63 289.13" fill="none" stroke="#202020" stroke-width="2" stroke-linecap="round" stroke-linejoin="round"/><path d="M714.87 103.43 C528.72 149.88, 345.86 190.90, 9.95 270.54 M714.49 105.59 C550.91 148.56, 387.69 186.60, 10.18 270.67" fill="none" stroke="#202020" stroke-width="2" stroke-linecap="round" stroke-linejoin="round"/><path d="M185.37 104.80 C374.30 150.64, 561.65 197.39, 890.54 271.21 M185.49 104.24 C370.50 149.56, 553.91 193.15, 890.60 270.54" fill="none" stroke="#202020" stroke-width="2" stroke-linecap="round" stroke-linejoin="round"/></svg>