<svg xmlns="http://www.w3.org/2000/svg" viewBox="0 0 960 420" width="960" height="420"><path d="M482.35 11.78 L760.26 146.16 L200.61 149.12" fill="#faf7ef" stroke="none"/><path d="M480.73 9.10 C553.56 52.38, 630.35 85.96, 762.98 147.78 M479.42 10.49 C576.55 56.05, 677.11 104.73, 762.19 146.79 M761.95 146.41 C547.65 151.89, 332.24 149.75, 196.81 146.14 M762.78 146.97 C629.93 145.51, 497.77 145.18, 198.14 146.39 M195.90 145.13 C306.78 98.44, 414.40 43.13, 481.86 9.48 M198.29 147.99 C272.14 109.34, 347.35 71.96, 478.66 9.11" fill="none" stroke="#202020" stroke-width="2" stroke-linecap="round" stroke-linejoin="round"/><path d="M761.63 145.04 L951.58 391.77 L476.58 408.89 L11.72 390.73 L194.09 145.43" fill="#faf7ef" stroke="none"/><path d="M762.21 147.50 C807.04 211.54, 860.00 273.66, 947.66 390.81 M761.02 148.13 C822.23 227.60, 885.30 307.71, 948.74 391.30 M950.70 388.36 C807.52 396.31, 667.61 402.61, 479.49 410.28 M949.33 390.63 C845.52 390.47, 741.14 395.68, 480.18 409.38 M479.63 411.68 C370.37 404.06, 262.30 399.44, 8.95 391.18 M479.72 409.90 C323.12 405.26, 165.53 400.04, 9.87 389.72 M10.97 388.14 C76.55 306.49, 137.88 226.14, 199.06 144.65 M10.29 389.27 C67.52 312.83, 128.28 233.86, 196.63 147.98 M199.30 145.86 C400.30 143.12, 606.05 141.50, 762.79 145.97 M197.95 146.80 C393.46 147.69, 590.17 147.52, 762.52 147.48" fill="none" stroke="#202020" stroke-width="2" stroke-linecap="round" stroke-linejoin="round"/><path d="M478.96 8.53 C481.58 132.74, 485.94 254.15, 479.38 408.36 M479.79 9.34 C482.84 122.70, 483.70 233.76, 479.60 408.95" fill="none" stroke="#202020" stroke-width="2" stroke-linecap="round" stroke-linejoin="round"/><path d="M761.11 147.54 C487.40 235.10, 215.28 324.33, 10.22 390.31 M762.31 147.70 C482.44 232.58, 202.84 322.54, 9.60 389.44" fill="none" stroke="#202020" stroke-width="2" stroke-linecap="round" stroke-linejoin="round"/><path d="M199.27 145.78 C446.78 226.97, 694.46 307.40, 950.82 389.38 M198.31 147.04 C366.09 199.83, 532.64 253.01, 949.55 389.76" fill="none" stroke="#202020" stroke-width="2" stroke-linecap="round" stroke-linejoin="round"/></svg>