<svg xmlns="http://www.w3.org/2000/svg" viewBox="0 0 900 320" width="900" height="320"><path d="M449.60 13.65 L715.64 109.55 L186.70 112.01" fill="#faf7ef" stroke="none"/><path d="M452.97 8.51 C523.41 40.37, 594.50 64.02, 715.32 110.77 M450.64 9.00 C535.58 41.76, 618.02 74.52, 714.73 111.10 M714.27 112.13 C571.88 107.91, 432.64 110.12, 184.93 112.00 M713.42 112.39 C540.91 112.38, 368.17 112.46, 186.55 112.10 M184.26 111.98 C284.94 72.93, 379.31 40.20, 447.03 8.06 M187.29 112.50 C277.34 77.42, 371.34 40.92, 450.07 8.56" fill="none" stroke="#202020" stroke-width="2" stroke-linecap="round" stroke-linejoin="round"/><path d="M717.54 113.19 L888.50 292.93 L451.92 307.14 L7.96 293.37 L185.63 110.99" fill="#faf7ef" stroke="none"/><path d="M711.99 114.33 C749.98 151.63, 787.32 188.26, 887.51 289.07 M714.08 111.87 C780.06 184.34, 851.92 254.22, 889.33 289.63 M890.58 291.38 C732.78 299.25, 575.70 308.24, 451.72 308.94 M889.39 290.85 C770.85 293.74, 650.33 298.96, 450.80 310.88 M449.47 311.00 C343.85 306.30, 241.61 301.67, 9.14 289.58 M450.12 310.92 C329.02 309.09, 207.30 302.54, 9.29 290.16 M8.83 292.96 C58.17 236.70, 110.07 188.38, 187.13 111.32 M9.21 291.14 C50.21 249.02, 90.67 205.00, 184.83 110.65 M185.61 112.23 C321.32 109.90, 459.32 109.67, 713.69 113.43 M185.24 111.36 C318.22 111.73, 449.38 112.72, 713.97 111.70" fill="none" stroke="#202020" stroke-width="2" stroke-linecap="round" stroke-linejoin="round"/><path d="M449.28 7.20 C451.54 75.05, 448.97 144.60, 450.41 310.87 M450.14 10.64 C453.18 70.39, 451.44 129.43, 450.93 309.58" fill="none" stroke="#202020" stroke-width="2" stroke-linecap="round" stroke-linejoin="round"/><path d="M715.53 111.58 C491.16 173.62, 265.94 230.50, 9.00 289.28 M714.11 112.49 C527.81 152.86, 343.13 200.57, 9.76 289.87" fill="none" stroke="#202020" stroke-width="2" stroke-linecap="round" stroke-linejoin="round"/><path d="M186.07 113.43 C332.46 144.19, 477.59 182.20, 889.60 290.70 M186.19 111.76 C377.89 165.84, 571.40 215.17, 890.71 289.86" fill="none" stroke="#202020" stroke-width="2" stroke-linecap="round" stroke-linejoin="round"/></svg>