<svg xmlns="http://www.w3.org/2000/svg" viewBox="0 0 900 320" width="900" height="320"><path d="M13.75 12.97 C298.33 10.33, 581.42 12.61, 885.20 13.71 M14.22 13.30 C327.70 8.78, 641.95 8.98, 885.43 13.41 M887.54 12.69 C888.91 91.83, 890.09 170.02, 885.55 308.30 M887.04 14.61 C889.44 125.77, 887.32 240.25, 884.67 306.85 M884.94 305.14 C686.97 309.71, 485.16 309.04, 15.09 305.83 M885.42 306.74 C552.35 307.30, 219.97 307.13, 14.08 305.76 M15.22 305.80 C12.24 225.82, 13.39 144.09, 15.19 15.65 M14.73 304.89 C12.85 244.41, 12.83 186.30, 15.36 14.48" fill="none" stroke="#202020" stroke-width="2" stroke-linecap="round" stroke-linejoin="round"/><path d="M29.43 33.18 C318.93 36.49, 610.68 36.00, 870.91 33.44 M27.22 32.69 C301.55 30.70, 574.84 31.47, 872.23 31.99" fill="none" stroke="#202020" stroke-width="2" stroke-linecap="round" stroke-linejoin="round"/><path d="M27.66 117.99 C266.58 113.14, 502.00 113.08, 871.40 116.73 M27.33 117.58 C215.51 114.16, 403.85 114.21, 872.16 118.06" fill="none" stroke="#202020" stroke-width="2" stroke-linecap="round" stroke-linejoin="round"/><path d="M28.52 201.52 C211.48 206.93, 395.15 206.36, 873.55 203.66 M28.42 202.60 C348.59 198.98, 668.65 199.18, 872.16 203.16" fill="none" stroke="#202020" stroke-width="2" stroke-linecap="round" stroke-linejoin="round"/><path d="M27.23 288.67 C281.74 287.66, 534.88 286.23, 870.64 287.85 M27.72 288.06 C236.57 294.14, 444.32 293.26, 872.70 287.65" fill="none" stroke="#202020" stroke-width="2" stroke-linecap="round" stroke-linejoin="round"/></svg>