<svg xmlns="http://www.w3.org/2000/svg" viewBox="0 0 900 300" width="900" height="300"><path d="M42.90 2.84 L316.65 0.48 L311.17 -48.52 L495.30 -46.15 L492.71 0.05 L855.45 -1.95 L853.46 93.24 L903.11 88.09 L903.49 151.47 L853.71 150.96 L851.35 302.05 L496.49 302.56 L494.67 348.09 L318.24 345.15 L315.02 296.31 L46.09 299.81 L45.93 150.25 L3.03 152.18 L-3.23 93.38 L45.71 88.77" fill="#faf7ef" stroke="none"/><path d="M43.97 -2.92 C120.55 -0.91, 191.82 -0.08, 314.24 2.21 M43.92 -1.26 C151.77 0.83, 259.99 -1.54, 314.71 -1.07 M315.99 3.91 C316.89 -9.15, 315.49 -22.94, 311.18 -47.06 M313.28 -1.06 C315.45 -11.53, 315.85 -23.05, 315.60 -43.29 M315.86 -45.90 C380.51 -41.03, 439.50 -40.46, 496.36 -42.13 M315.67 -44.09 C387.21 -47.90, 457.01 -49.33, 493.28 -44.82 M491.43 -46.85 C493.51 -31.95, 497.64 -14.79, 498.59 2.50 M493.19 -43.98 C497.44 -30.00, 497.34 -11.15, 495.62 -1.50 M495.19 -0.09 C583.40 -4.78, 667.11 -6.67, 853.83 2.06 M495.01 -0.82 C573.01 -2.92, 649.78 -4.01, 855.17 -1.23 M854.28 -3.82 C850.41 32.32, 854.70 65.63, 852.76 91.27 M855.79 -1.54 C854.93 29.09, 852.87 55.55, 853.48 91.68 M854.48 89.22 C865.70 91.11, 886.07 93.02, 901.84 89.77 M853.22 88.92 C867.56 90.90, 876.63 91.11, 898.27 90.39 M896.21 91.04 C899.52 107.66, 900.22 134.55, 900.02 150.33 M900.64 88.26 C902.39 111.36, 900.51 127.98, 898.77 151.32 M897.30 153.86 C890.53 154.60, 877.19 154.30, 852.54 146.58 M900.96 151.68 C883.92 149.17, 870.04 151.27, 855.32 150.74 M858.63 152.59 C852.33 201.28, 849.22 254.46, 854.99 300.63 M853.22 151.35 C850.49 195.22, 852.68 243.25, 855.58 301.08 M852.72 302.38 C717.50 300.76, 583.15 303.15, 495.84 298.70 M854.97 300.02 C763.39 296.93, 672.57 297.13, 494.48 299.60 M492.09 301.09 C496.43 312.30, 496.30 324.96, 493.20 348.67 M493.51 299.40 C493.49 318.17, 493.72 333.21, 496.75 345.23 M495.63 343.42 C443.47 342.58, 386.68 342.06, 314.09 345.06 M493.89 343.66 C454.21 346.64, 413.65 344.53, 315.30 346.45 M318.17 341.45 C313.57 325.93, 318.42 312.53, 314.01 299.33 M315.87 343.94 C313.70 327.66, 315.79 312.89, 315.30 300.88 M314.27 300.22 C252.01 299.80, 182.83 297.50, 43.88 296.92 M313.83 298.77 C240.81 298.89, 170.02 298.78, 45.63 298.52 M42.21 297.86 C40.25 270.30, 44.24 238.48, 45.51 151.54 M45.61 298.54 C46.04 263.09, 47.04 226.99, 46.01 149.88 M46.92 148.78 C25.31 152.26, 7.49 147.40, 0.93 150.76 M44.02 151.04 C34.06 149.95, 28.11 148.42, 1.96 149.85 M1.06 148.32 C1.90 139.41, -4.85 123.38, -3.86 89.47 M-0.88 151.12 C0.71 132.42, 0.11 113.51, -0.76 91.73 M-0.05 90.68 C10.47 91.47, 22.15 93.19, 43.13 87.88 M-0.80 88.76 C13.87 88.72, 30.69 90.15, 44.12 91.53 M43.70 87.94 C46.71 53.10, 42.71 20.70, 41.80 -0.70 M43.30 91.36 C46.49 71.30, 45.77 47.50, 43.12 -1.34" fill="none" stroke="#202020" stroke-width="2" stroke-linecap="round" stroke-linejoin="round"/></svg>