<svg xmlns="http://www.w3.org/2000/svg" viewBox="0 0 960 420" width="960" height="420"><path d="M61.07 3.28 L339.34 2.85 L332.57 -61.25 L527.54 -66.09 L525.34 -3.29 L894.62 2.16 L900.86 127.85 L963.60 129.50 L956.80 209.64 L896.19 212.33 L893.66 417.87 L526.98 421.53 L531.13 479.39 L332.70 481.08 L333.10 423.77 L62.62 419.17 L66.25 207.30 L3.39 212.40 L-0.60 127.16 L64.01 129.54" fill="#faf7ef" stroke="none"/><path d="M62.27 -3.07 C132.40 0.01, 205.76 -0.39, 332.97 -1.89 M62.63 0.64 C166.76 5.09, 269.16 3.93, 335.66 -0.70 M338.31 0.97 C332.06 -22.29, 333.51 -34.92, 335.72 -66.94 M334.36 -1.16 C335.51 -21.45, 337.51 -44.06, 336.16 -64.86 M339.77 -64.53 C396.32 -59.85, 460.54 -60.98, 531.95 -64.49 M337.61 -63.79 C405.23 -62.44, 474.39 -63.27, 528.06 -62.01 M530.41 -66.99 C531.29 -45.53, 532.23 -33.12, 529.11 0.99 M527.76 -63.74 C527.82 -49.65, 529.30 -34.86, 528.73 -0.08 M525.57 0.22 C659.54 0.19, 793.82 -3.37, 898.37 -0.30 M527.86 -0.82 C631.84 -2.99, 735.77 -4.48, 896.54 0.40 M900.08 3.64 C896.60 40.19, 899.42 83.36, 897.33 127.41 M897.06 -0.06 C895.84 43.80, 895.28 83.94, 895.30 125.79 M894.97 123.82 C911.89 126.62, 923.20 125.89, 959.65 125.01 M896.38 124.60 C914.26 126.23, 933.53 125.97, 961.78 126.48 M961.62 125.99 C959.93 147.98, 959.79 168.25, 962.22 209.11 M961.91 124.14 C959.01 153.67, 960.56 182.20, 960.30 210.90 M959.52 208.32 C934.26 210.70, 911.61 211.09, 893.77 207.74 M959.70 210.45 C939.37 211.52, 913.61 210.80, 898.54 210.42 M898.72 207.81 C898.80 277.42, 896.73 346.09, 897.82 420.17 M895.94 211.11 C900.65 267.08, 898.79 325.68, 897.21 421.34 M896.05 419.58 C765.91 426.23, 636.87 425.47, 530.21 422.39 M896.49 421.00 C751.41 424.67, 606.27 423.23, 528.45 419.54 M530.32 417.04 C524.77 444.88, 526.94 471.00, 527.96 482.75 M528.09 418.56 C527.34 442.97, 527.09 466.23, 527.12 483.61 M531.72 483.30 C491.64 485.64, 451.39 488.92, 336.67 486.22 M529.84 483.50 C484.80 484.03, 438.06 485.65, 334.51 483.73 M338.23 479.78 C335.06 467.73, 336.75 452.65, 336.96 419.02 M337.12 481.42 C336.41 460.77, 334.76 434.45, 336.11 421.66 M336.53 417.97 C248.99 420.32, 159.00 421.14, 64.02 419.87 M337.10 419.58 C241.70 420.48, 149.31 422.10, 62.40 421.51 M63.75 417.03 C62.39 335.66, 65.41 250.36, 62.40 211.82 M63.04 419.92 C65.88 356.54, 66.11 294.04, 61.88 208.64 M62.19 213.34 C40.38 213.01, 18.41 207.13, 1.73 206.63 M64.17 210.35 C50.96 211.55, 34.80 209.10, 1.53 209.43 M0.54 208.30 C0.51 187.90, -1.11 168.74, -2.39 128.83 M-1.20 210.41 C0.08 186.20, 2.76 162.66, 1.72 126.05 M-0.92 128.43 C11.42 130.04, 30.01 125.08, 65.26 125.93 M-1.12 126.80 C22.86 126.23, 43.81 124.61, 63.83 126.24 M60.78 124.95 C61.76 79.78, 64.91 25.34, 63.13 -1.94 M63.72 124.18 C61.31 99.73, 62.57 73.92, 64.53 1.73" fill="none" stroke="#202020" stroke-width="2" stroke-linecap="round" stroke-linejoin="round"/></svg>