<svg xmlns="http://www.w3.org/2000/svg" viewBox="0 0 900 320" width="900" height="320"><path d="M48.90 1.58 L317.39 3.87 L317.38 -48.40 L493.48 -50.54 L493.56 -2.93 L855.72 -1.89 L849.60 96.27 L900.19 97.28 L897.09 159.79 L852.59 159.79 L849.01 316.54 L492.21 318.62 L493.01 365.72 L315.86 370.12 L316.60 318.37 L46.22 323.80 L46.71 163.78 L-1.35 161.62 L1.21 96.15 L46.79 97.71" fill="#faf7ef" stroke="none"/><path d="M48.95 -0.68 C138.73 -0.94, 226.20 -1.30, 316.03 1.68 M48.28 -1.21 C141.76 -4.58, 235.77 -5.25, 316.25 0.50 M313.66 -2.28 C318.57 -12.01, 312.38 -23.77, 312.94 -47.24 M315.27 -0.77 C317.76 -15.51, 316.54 -33.13, 315.34 -47.50 M314.63 -48.57 C360.82 -47.69, 409.36 -51.28, 496.34 -47.83 M316.42 -48.32 C351.80 -49.23, 389.14 -47.94, 495.08 -47.20 M496.82 -46.89 C496.98 -35.95, 492.04 -16.00, 497.10 0.00 M494.13 -48.61 C497.76 -35.43, 497.57 -26.28, 493.47 1.48 M492.60 -2.00 C573.67 -1.83, 657.71 -2.11, 851.24 1.46 M494.65 -0.90 C629.60 -2.34, 765.62 -2.39, 851.10 -0.36 M853.25 3.09 C850.18 34.78, 850.56 73.98, 848.63 97.58 M851.50 -1.48 C850.11 30.33, 851.13 58.31, 852.89 94.74 M855.67 98.17 C864.07 97.56, 877.54 94.99, 902.05 97.35 M851.17 95.80 C866.85 96.51, 880.76 94.63, 899.07 95.99 M898.58 99.23 C898.34 113.87, 898.24 126.87, 901.64 157.79 M901.53 95.48 C900.37 119.85, 899.29 144.85, 900.20 158.42 M898.54 162.72 C884.52 157.44, 861.36 160.44, 852.24 159.58 M898.48 159.30 C886.39 160.66, 872.38 160.52, 852.33 161.13 M853.49 157.38 C850.05 205.94, 847.59 251.88, 853.93 317.61 M850.40 161.54 C849.42 210.29, 849.22 258.00, 850.76 321.19 M852.73 319.14 C770.90 320.88, 691.23 319.51, 494.58 321.30 M851.79 319.66 C725.39 322.15, 598.98 322.85, 496.00 318.77 M493.77 322.88 C492.28 335.06, 498.49 354.27, 497.56 365.07 M494.16 321.80 C496.38 333.66, 494.11 351.99, 493.25 366.41 M495.06 365.75 C449.19 368.39, 412.65 365.67, 312.77 371.93 M494.70 366.57 C427.66 370.35, 358.46 372.29, 316.19 366.45 M311.75 367.99 C313.58 356.97, 312.75 339.94, 314.90 321.47 M316.22 368.11 C314.99 356.72, 314.97 345.66, 313.37 321.34 M313.82 318.26 C256.42 324.99, 202.47 323.26, 46.93 320.19 M315.20 319.03 C210.33 317.79, 107.21 320.13, 46.45 318.62 M50.80 323.45 C48.55 270.32, 53.29 215.64, 47.19 158.76 M48.04 321.72 C45.88 260.08, 45.64 200.92, 47.94 160.60 M46.24 162.09 C28.83 156.32, 11.04 156.19, 1.03 156.10 M46.34 160.03 C39.56 158.05, 27.79 160.37, 0.33 161.05 M-1.23 160.83 C3.73 147.71, 0.85 132.83, 2.87 92.78 M-0.20 160.19 C-0.25 143.60, 0.19 131.31, -1.52 97.26 M2.56 97.69 C11.93 98.10, 18.70 99.20, 44.04 98.67 M-0.87 95.97 C16.37 96.12, 29.60 96.93, 49.29 94.04 M49.86 92.51 C45.84 60.49, 53.51 21.65, 45.31 -3.32 M47.81 96.05 C47.55 61.87, 50.70 26.02, 47.33 -1.70" fill="none" stroke="#202020" stroke-width="2" stroke-linecap="round" stroke-linejoin="round"/></svg>