<svg xmlns="http://www.w3.org/2000/svg" viewBox="0 0 900 320" width="900" height="320"><path d="M448.65 14.55 C541.19 43.27, 629.08 72.04, 884.10 160.27 M449.37 15.75 C592.92 66.58, 737.00 113.03, 884.47 159.86 M885.72 161.23 C753.49 198.62, 622.38 244.78, 448.55 304.65 M883.51 160.29 C730.32 213.38, 575.79 263.83, 450.26 303.94 M449.53 302.67 C327.58 261.64, 205.80 219.66, 17.64 161.68 M449.97 303.09 C363.63 275.87, 276.68 247.54, 15.12 159.54 M16.54 160.47 C147.20 112.28, 277.92 68.47, 451.61 17.48 M15.73 160.89 C147.68 120.06, 278.48 77.18, 449.69 16.11" fill="none" stroke="#202020" stroke-width="2" stroke-linecap="round" stroke-linejoin="round"/><path d="M28.45 157.20 C30.98 163.76, 45.42 161.19, 47.56 160.45 M24.08 161.42 C32.32 160.07, 36.22 158.37, 50.24 160.13" fill="none" stroke="#202020" stroke-width="2" stroke-linecap="round" stroke-linejoin="round"/><path d="M852.55 159.79 C860.11 163.51, 862.78 163.73, 877.22 163.68 M848.94 158.05 C859.57 160.16, 869.27 159.76, 872.23 159.87" fill="none" stroke="#202020" stroke-width="2" stroke-linecap="round" stroke-linejoin="round"/><path d="M42.42 154.08 C47.90 157.89, 49.19 156.68, 49.35 161.52 M44.76 155.77 C46.45 157.13, 48.48 157.90, 51.44 160.59 M49.47 159.89 C48.46 161.47, 48.39 162.53, 45.56 163.75 M50.23 159.15 C48.26 161.34, 47.52 163.27, 44.66 164.67" fill="none" stroke="#202020" stroke-width="2" stroke-linecap="round" stroke-linejoin="round"/><path d="M856.29 155.81 C855.47 155.86, 850.67 159.65, 849.91 159.84 M855.76 155.74 C854.63 156.44, 852.57 157.99, 849.57 160.47 M848.61 159.56 C850.50 160.89, 854.27 163.21, 854.89 165.95 M849.14 159.36 C850.61 160.91, 853.22 163.94, 856.66 164.21" fill="none" stroke="#202020" stroke-width="2" stroke-linecap="round" stroke-linejoin="round"/></svg>