<svg xmlns="http://www.w3.org/2000/svg" viewBox="0 0 436 310" width="436" height="310"><path d="M268.89 47.92 C285.77 50.32, 300.78 57.22, 314.54 63.67 C328.30 70.11, 341.85 77.69, 351.44 86.61 C361.03 95.52, 367.67 106.88, 372.09 117.17 C376.51 127.46, 379.41 138.09, 377.94 148.35 C376.47 158.60, 371.25 169.66, 363.27 178.70 C355.29 187.73, 343.06 195.18, 330.05 202.58 C317.04 209.97, 301.32 217.98, 285.22 223.07 C269.11 228.15, 251.33 231.81, 233.43 233.09 C215.53 234.38, 195.49 232.88, 177.83 230.80 C160.17 228.72, 143.24 225.65, 127.47 220.62 C111.71 215.59, 94.97 208.78, 83.23 200.60 C71.50 192.43, 63.52 180.91, 57.08 171.58 C50.63 162.24, 45.90 154.55, 44.56 144.60 C43.22 134.66, 44.36 121.92, 49.02 111.90 C53.68 101.88, 62.47 93.26, 72.53 84.51 C82.59 75.76, 94.78 66.22, 109.39 59.41 C124.00 52.61, 142.95 46.56, 160.21 43.68 C177.47 40.79, 191.55 40.76, 212.95 42.09 C234.34 43.43, 272.45 48.50, 288.57 51.70 C304.70 54.90, 310.64 59.97, 309.68 61.27 M322.90 65.01 C337.24 70.64, 351.36 81.57, 359.65 90.64 C367.95 99.72, 369.90 108.62, 372.69 119.45 C375.47 130.28, 379.52 145.23, 376.37 155.64 C373.23 166.06, 362.82 173.67, 353.82 181.93 C344.82 190.19, 335.03 198.12, 322.36 205.19 C309.69 212.25, 293.92 219.86, 277.81 224.34 C261.69 228.81, 243.74 231.20, 225.68 232.02 C207.61 232.84, 187.76 231.80, 169.43 229.26 C151.11 226.71, 130.77 222.85, 115.73 216.77 C100.69 210.70, 89.87 201.17, 79.20 192.81 C68.54 184.46, 57.71 175.65, 51.73 166.67 C45.75 157.69, 43.71 148.70, 43.33 138.93 C42.96 129.17, 43.73 118.76, 49.49 108.07 C55.26 97.38, 66.32 83.77, 77.92 74.81 C89.53 65.85, 103.72 59.31, 119.11 54.30 C134.49 49.28, 152.78 46.59, 170.25 44.71 C187.71 42.83, 205.85 42.07, 223.92 43.01 C241.98 43.96, 262.13 45.98, 278.66 50.37 C295.19 54.76, 316.11 66.80, 323.07 69.34 C330.02 71.88, 322.05 65.23, 320.39 65.58" fill="#faf7ef" stroke="none"/><path d="M107.68 60.50 C120.16 53.40, 140.89 49.29, 158.50 46.27 C176.12 43.26, 195.23 42.60, 213.36 42.40 C231.50 42.21, 250.70 41.67, 267.32 45.10 C283.94 48.54, 299.25 56.21, 313.10 63.01 C326.95 69.82, 340.41 77.41, 350.42 85.95 C360.44 94.49, 369.14 104.57, 373.19 114.26 C377.24 123.96, 376.62 133.57, 374.73 144.12 C372.84 154.67, 369.20 168.02, 361.85 177.55 C354.49 187.09, 343.24 193.72, 330.60 201.33 C317.96 208.94, 302.11 217.90, 285.99 223.23 C269.88 228.55, 251.64 231.82, 233.91 233.27 C216.18 234.73, 197.05 234.30, 179.60 231.94 C162.16 229.57, 144.63 224.28, 129.25 219.08 C113.87 213.89, 99.19 207.87, 87.33 200.77 C75.47 193.67, 65.42 186.01, 58.08 176.48 C50.74 166.95, 44.60 154.54, 43.27 143.58 C41.93 132.62, 45.20 120.79, 50.06 110.70 C54.92 100.62, 49.60 94.80, 72.43 83.08 C95.27 71.36, 154.32 46.19, 187.08 40.40 C219.83 34.61, 268.51 46.60, 268.96 48.32 M197.33 43.02 C214.98 40.51, 234.67 40.82, 252.29 43.17 C269.92 45.52, 288.05 51.35, 303.08 57.14 C318.10 62.93, 331.67 69.65, 342.45 77.92 C353.23 86.19, 361.63 96.94, 367.78 106.74 C373.93 116.54, 378.99 126.71, 379.37 136.72 C379.76 146.73, 376.00 156.92, 370.11 166.82 C364.21 176.72, 355.04 187.40, 344.00 196.12 C332.95 204.84, 318.73 213.12, 303.84 219.13 C288.94 225.15, 272.64 229.89, 254.63 232.21 C236.61 234.52, 214.29 233.92, 195.76 233.01 C177.22 232.09, 159.69 231.06, 143.43 226.71 C127.16 222.36, 111.60 214.25, 98.16 206.88 C84.72 199.51, 71.48 191.01, 62.77 182.49 C54.06 173.98, 49.15 166.18, 45.90 155.80 C42.65 145.41, 40.76 131.19, 43.26 120.21 C45.77 109.22, 51.90 98.72, 60.93 89.90 C69.97 81.08, 84.25 73.61, 97.47 67.28 C110.69 60.95, 124.01 55.91, 140.25 51.91 C156.49 47.92, 185.58 44.42, 194.92 43.32 C204.25 42.22, 195.85 44.15, 196.26 45.33" fill="none" stroke="#202020" stroke-width="3" stroke-linecap="round" stroke-linejoin="round"/><path d="M139.41 127.97 C140.32 126.88, 142.79 126.37, 143.67 126.64 C144.56 126.92, 144.12 128.88, 144.72 129.60 C145.32 130.31, 147.05 130.07, 147.26 130.93 C147.48 131.80, 146.36 133.90, 146.00 134.79 C145.63 135.68, 145.99 136.16, 145.08 136.29 C144.17 136.42, 141.31 135.79, 140.54 135.57 C139.77 135.34, 140.93 135.92, 140.45 134.95 C139.97 133.98, 137.37 130.66, 137.65 129.75 C137.93 128.83, 141.65 129.70, 142.14 129.45 C142.64 129.20, 140.65 128.78, 140.63 128.25 M140.12 128.08 C140.65 127.67, 144.55 127.65, 145.83 127.76 C147.12 127.88, 148.14 127.43, 147.85 128.77 C147.56 130.11, 145.12 134.82, 144.10 135.82 C143.08 136.82, 142.66 134.58, 141.74 134.76 C140.83 134.95, 138.79 137.33, 138.62 136.93 C138.45 136.52, 140.77 132.84, 140.72 132.32 C140.66 131.80, 138.02 134.46, 138.28 133.79 C138.53 133.12, 141.19 129.35, 142.24 128.29 C143.29 127.23, 144.20 127.22, 144.56 127.43 C144.92 127.64, 144.32 129.77, 144.38 129.55" fill="#faf7ef" stroke="none"/><path d="M141.17 128.60 C142.13 128.74, 142.99 127.85, 144.03 128.12 C145.07 128.40, 146.92 128.88, 147.40 130.24 C147.89 131.60, 147.31 135.09, 146.94 136.30 C146.57 137.52, 145.98 137.69, 145.19 137.55 C144.41 137.41, 143.02 135.68, 142.21 135.45 C141.40 135.23, 141.09 136.78, 140.32 136.18 C139.55 135.59, 138.01 133.39, 137.61 131.87 C137.21 130.35, 136.83 128.10, 137.92 127.05 C139.02 125.99, 143.09 125.58, 144.18 125.55 C145.27 125.52, 144.54 126.46, 144.44 126.87 M139.50 125.75 C140.49 125.33, 143.34 126.96, 144.63 127.45 C145.93 127.94, 147.04 128.26, 147.29 128.71 C147.53 129.16, 146.24 129.33, 146.11 130.14 C145.97 130.95, 146.84 132.47, 146.47 133.57 C146.11 134.66, 145.13 135.69, 143.93 136.73 C142.73 137.77, 140.28 140.03, 139.27 139.80 C138.26 139.56, 138.42 136.52, 137.89 135.34 C137.35 134.16, 135.86 134.38, 136.04 132.70 C136.22 131.02, 137.85 126.54, 138.96 125.27 C140.08 124.00, 142.04 124.89, 142.71 125.09" fill="none" stroke="#202020" stroke-width="3" stroke-linecap="round" stroke-linejoin="round"/><path d="M273.46 128.72 C273.73 128.23, 274.97 128.29, 276.17 127.93 C277.37 127.56, 279.81 126.34, 280.65 126.53 C281.50 126.72, 281.20 127.76, 281.25 129.08 C281.29 130.41, 281.41 133.20, 280.92 134.49 C280.44 135.77, 278.85 136.45, 278.33 136.79 C277.81 137.12, 278.44 136.55, 277.81 136.49 C277.17 136.44, 275.47 137.08, 274.53 136.45 C273.60 135.81, 271.96 134.13, 272.20 132.67 C272.45 131.21, 274.79 128.22, 276.00 127.69 C277.21 127.17, 279.07 129.42, 279.46 129.51 M277.85 127.44 C279.01 128.04, 283.00 128.72, 283.74 129.88 C284.48 131.04, 282.82 133.27, 282.29 134.40 C281.75 135.54, 281.51 136.14, 280.54 136.69 C279.56 137.24, 277.49 137.64, 276.44 137.72 C275.38 137.79, 274.56 138.34, 274.21 137.16 C273.86 135.97, 274.71 132.14, 274.35 130.62 C273.99 129.10, 271.24 128.87, 272.05 128.02 C272.87 127.18, 277.95 125.44, 279.23 125.56 C280.51 125.67, 279.38 128.40, 279.73 128.70 C280.08 129.01, 280.89 127.33, 281.35 127.40" fill="#faf7ef" stroke="none"/><path d="M274.74 128.07 C275.42 127.52, 276.57 127.52, 277.37 128.01 C278.16 128.51, 278.49 130.34, 279.50 131.04 C280.51 131.75, 283.59 131.54, 283.44 132.24 C283.30 132.94, 279.90 134.22, 278.63 135.25 C277.36 136.28, 276.67 138.63, 275.83 138.44 C274.98 138.25, 274.12 135.01, 273.56 134.12 C273.01 133.24, 272.47 133.79, 272.47 133.12 C272.47 132.45, 272.86 131.26, 273.55 130.09 C274.23 128.92, 275.48 126.48, 276.58 126.11 C277.69 125.73, 279.90 127.47, 280.20 127.83 M276.40 131.19 C277.15 129.96, 276.69 124.27, 276.80 123.74 C276.90 123.21, 275.86 127.25, 277.04 128.00 C278.22 128.74, 283.32 127.17, 283.86 128.23 C284.40 129.28, 280.63 133.22, 280.28 134.32 C279.93 135.41, 282.55 134.17, 281.78 134.79 C281.02 135.42, 276.80 137.72, 275.69 138.07 C274.57 138.41, 275.98 137.64, 275.09 136.85 C274.19 136.06, 270.14 134.81, 270.33 133.32 C270.52 131.83, 275.53 128.51, 276.24 127.89 C276.95 127.26, 274.59 129.91, 274.59 129.56" fill="none" stroke="#202020" stroke-width="3" stroke-linecap="round" stroke-linejoin="round"/><path d="M204.68 149.73 L214.18 145.14 L209.83 157.76 L203.12 157.57" fill="#faf7ef" stroke="none"/><path d="M207.04 148.76 C209.07 147.96, 211.96 148.28, 213.94 148.89 M206.64 148.82 C209.09 148.75, 211.17 149.22, 213.54 148.62 M212.20 149.51 C212.80 151.24, 212.17 150.28, 213.71 155.92 M213.15 149.20 C212.91 151.74, 213.22 153.98, 213.39 154.65 M211.86 156.02 C211.54 155.09, 209.13 155.73, 207.75 154.29 M212.44 154.86 C211.36 155.05, 209.95 155.32, 206.84 154.57 M208.18 154.76 C206.85 153.78, 206.91 152.24, 207.65 147.89 M206.55 154.73 C206.76 153.37, 207.63 150.75, 207.27 148.61" fill="none" stroke="#202020" stroke-width="3" stroke-linecap="round" stroke-linejoin="round"/><path d="M199.48 163.92 C197.08 166.81, 196.26 169.55, 198.92 172.56 M197.15 162.58 C197.68 164.26, 197.01 167.85, 197.76 172.85" fill="none" stroke="#202020" stroke-width="3" stroke-linecap="round" stroke-linejoin="round"/><path d="M204.41 163.40 C204.04 164.70, 205.04 166.18, 206.22 172.75 M206.94 162.97 C205.35 164.32, 206.42 167.13, 205.89 171.10" fill="none" stroke="#202020" stroke-width="3" stroke-linecap="round" stroke-linejoin="round"/><path d="M213.56 160.47 C215.17 166.22, 213.32 168.69, 213.99 170.74 M214.69 161.09 C214.91 166.14, 214.38 169.07, 214.95 171.55" fill="none" stroke="#202020" stroke-width="3" stroke-linecap="round" stroke-linejoin="round"/><path d="M222.86 161.38 C223.06 164.55, 223.12 166.59, 222.63 170.85 M221.32 161.73 C221.13 165.25, 222.20 168.83, 222.25 172.07" fill="none" stroke="#202020" stroke-width="3" stroke-linecap="round" stroke-linejoin="round"/><path d="M186.41 246.34 C202.84 259.96, 219.64 268.33, 232.72 276.76 M183.20 250.67 C195.66 256.10, 203.93 260.10, 235.96 273.47" fill="none" stroke="#202020" stroke-width="3" stroke-linecap="round" stroke-linejoin="round"/><path d="M231.19 246.36 C217.26 261.07, 197.85 267.06, 182.02 277.21 M235.79 249.70 C223.29 255.88, 213.42 261.46, 186.19 275.97" fill="none" stroke="#202020" stroke-width="3" stroke-linecap="round" stroke-linejoin="round"/></svg>