<svg xmlns="http://www.w3.org/2000/svg" viewBox="0 0 436 310" width="436" height="310"><path d="M144.55 42.07 C159.32 36.11, 178.29 35.02, 196.00 34.46 C213.71 33.90, 233.48 35.96, 250.81 38.70 C268.14 41.43, 285.35 45.18, 299.98 50.87 C314.62 56.57, 327.78 63.82, 338.61 72.89 C349.45 81.96, 358.94 94.91, 364.99 105.27 C371.04 115.63, 374.79 124.05, 374.90 135.04 C375.01 146.03, 371.42 160.40, 365.65 171.22 C359.88 182.04, 350.83 191.54, 340.28 199.97 C329.73 208.40, 316.91 215.85, 302.36 221.80 C287.81 227.74, 270.80 232.54, 252.97 235.64 C235.13 238.75, 213.72 241.53, 195.34 240.45 C176.96 239.37, 158.61 233.98, 142.70 229.17 C126.79 224.36, 112.55 218.85, 99.86 211.59 C87.18 204.33, 75.56 195.02, 66.58 185.62 C57.60 176.22, 49.63 165.72, 45.99 155.19 C42.36 144.65, 41.95 133.30, 44.77 122.42 C47.59 111.53, 53.89 99.72, 62.90 89.87 C71.91 80.03, 76.77 72.70, 98.83 63.35 C120.88 54.01, 170.24 37.99, 195.22 33.79 C220.20 29.59, 248.54 36.10, 248.73 38.15 M176.63 35.65 C192.20 31.89, 211.87 34.47, 230.15 36.53 C248.43 38.58, 269.95 43.69, 286.31 47.98 C302.67 52.26, 315.92 54.89, 328.32 62.24 C340.72 69.59, 353.21 81.51, 360.72 92.09 C368.23 102.68, 371.53 115.13, 373.37 125.77 C375.22 136.42, 375.23 145.00, 371.77 155.95 C368.31 166.89, 362.21 181.31, 352.62 191.43 C343.04 201.55, 328.05 209.83, 314.25 216.66 C300.44 223.49, 285.94 228.53, 269.77 232.41 C253.60 236.30, 235.67 239.74, 217.22 239.96 C198.76 240.18, 176.20 237.39, 159.05 233.75 C141.90 230.11, 127.99 224.84, 114.33 218.10 C100.66 211.37, 87.64 202.48, 77.07 193.35 C66.49 184.21, 56.66 173.40, 50.90 163.30 C45.13 153.20, 41.82 143.42, 42.47 132.76 C43.12 122.10, 48.20 109.87, 54.80 99.33 C61.39 88.79, 70.38 78.12, 82.03 69.52 C93.69 60.92, 109.04 53.46, 124.73 47.75 C140.42 42.03, 167.23 36.29, 176.18 35.22 C185.13 34.15, 177.76 39.45, 178.43 41.33" fill="#faf7ef" stroke="none"/><path d="M298.08 52.99 C314.12 57.16, 329.03 65.59, 340.05 74.29 C351.06 82.99, 358.01 94.50, 364.19 105.17 C370.37 115.84, 376.87 127.36, 377.13 138.32 C377.40 149.27, 372.07 160.97, 365.80 170.90 C359.53 180.84, 350.33 189.36, 339.49 197.93 C328.65 206.50, 315.42 215.81, 300.77 222.34 C286.11 228.86, 269.02 234.33, 251.57 237.09 C234.11 239.84, 213.90 240.11, 196.03 238.85 C178.15 237.59, 160.46 233.96, 144.30 229.52 C128.13 225.08, 112.14 219.47, 99.04 212.23 C85.94 204.99, 74.61 195.43, 65.70 186.07 C56.80 176.72, 48.96 166.86, 45.61 156.09 C42.25 145.33, 42.32 132.98, 45.55 121.47 C48.78 109.96, 56.37 96.73, 64.98 87.04 C73.59 77.35, 84.00 70.37, 97.22 63.33 C110.44 56.30, 127.70 49.83, 144.32 44.83 C160.93 39.83, 179.23 34.46, 196.92 33.32 C214.62 32.19, 228.41 32.17, 250.48 38.02 C272.54 43.87, 312.54 60.21, 329.32 68.42 C346.11 76.62, 352.80 86.44, 351.18 87.26 M165.76 40.74 C181.33 35.88, 197.47 34.19, 215.32 34.21 C233.17 34.22, 255.74 36.87, 272.87 40.83 C289.99 44.79, 304.49 51.02, 318.08 57.99 C331.67 64.97, 345.20 73.29, 354.39 82.68 C363.58 92.07, 369.64 102.82, 373.22 114.33 C376.79 125.83, 378.56 140.83, 375.85 151.72 C373.15 162.62, 365.22 170.35, 357.01 179.68 C348.80 189.02, 338.90 199.92, 326.61 207.73 C314.33 215.54, 299.44 221.54, 283.30 226.53 C267.16 231.53, 248.18 235.75, 229.79 237.71 C211.40 239.67, 190.59 240.06, 172.97 238.27 C155.36 236.49, 139.15 233.00, 124.11 227.00 C109.08 221.01, 93.83 211.55, 82.78 202.28 C71.72 193.01, 63.86 181.93, 57.78 171.38 C51.70 160.83, 47.68 150.08, 46.31 138.97 C44.94 127.87, 44.99 114.89, 49.57 104.74 C54.15 94.58, 62.64 86.13, 73.79 78.04 C84.93 69.94, 101.72 62.28, 116.44 56.15 C131.16 50.02, 153.74 43.86, 162.09 41.26 C170.45 38.67, 165.49 39.84, 166.59 40.60" fill="none" stroke="#202020" stroke-width="3" stroke-linecap="round" stroke-linejoin="round"/><path d="M145.47 129.50 C146.33 129.42, 144.98 129.10, 145.57 129.60 C146.16 130.11, 148.51 131.66, 148.99 132.54 C149.47 133.43, 149.46 134.47, 148.42 134.92 C147.39 135.37, 144.12 134.94, 142.77 135.24 C141.42 135.55, 141.29 136.80, 140.32 136.75 C139.35 136.71, 137.59 135.89, 136.96 134.98 C136.33 134.06, 135.88 132.51, 136.54 131.26 C137.19 130.00, 138.90 127.75, 140.88 127.44 C142.86 127.13, 147.55 128.44, 148.42 129.39 C149.28 130.34, 146.23 132.76, 146.09 133.14 M146.72 126.85 C148.09 127.84, 148.78 130.65, 149.21 131.97 C149.63 133.29, 150.68 134.23, 149.27 134.78 C147.86 135.34, 141.85 134.76, 140.74 135.31 C139.63 135.86, 143.24 138.31, 142.61 138.08 C141.99 137.85, 137.43 135.20, 136.99 133.91 C136.54 132.63, 138.97 131.75, 139.94 130.35 C140.90 128.95, 142.07 125.53, 142.78 125.54 C143.49 125.54, 143.90 130.09, 144.17 130.38 C144.43 130.67, 143.86 127.72, 144.37 127.29 C144.88 126.86, 147.18 126.99, 147.24 127.78" fill="#faf7ef" stroke="none"/><path d="M139.34 127.87 C140.31 127.41, 143.96 128.49, 145.20 128.45 C146.45 128.41, 146.26 127.06, 146.82 127.63 C147.37 128.21, 148.39 130.73, 148.55 131.90 C148.71 133.07, 148.53 133.92, 147.77 134.67 C147.02 135.41, 145.17 136.04, 144.01 136.37 C142.86 136.71, 142.12 137.48, 140.84 136.66 C139.55 135.84, 136.57 132.52, 136.31 131.46 C136.05 130.40, 138.31 130.96, 139.28 130.32 C140.26 129.67, 141.51 127.86, 142.15 127.59 C142.78 127.32, 142.89 128.72, 143.11 128.71 M140.91 129.68 C141.82 128.32, 143.88 125.20, 144.52 125.25 C145.16 125.30, 144.41 128.74, 144.75 129.96 C145.09 131.18, 145.74 132.17, 146.53 132.56 C147.32 132.95, 150.08 132.15, 149.50 132.30 C148.92 132.46, 144.26 133.04, 143.04 133.49 C141.83 133.93, 143.30 134.43, 142.19 134.95 C141.09 135.47, 137.28 137.35, 136.43 136.61 C135.57 135.87, 136.61 131.32, 137.08 130.50 C137.55 129.68, 138.81 131.54, 139.24 131.69 C139.68 131.84, 139.82 131.55, 139.68 131.40" fill="none" stroke="#202020" stroke-width="3" stroke-linecap="round" stroke-linejoin="round"/><path d="M280.91 128.45 C281.66 128.16, 281.75 127.02, 282.00 127.86 C282.26 128.70, 282.81 132.07, 282.41 133.51 C282.01 134.96, 280.72 136.29, 279.60 136.54 C278.48 136.78, 276.80 135.06, 275.67 134.99 C274.55 134.92, 273.69 136.80, 272.86 136.10 C272.04 135.41, 270.83 132.30, 270.73 130.82 C270.63 129.35, 271.27 127.67, 272.25 127.26 C273.22 126.85, 275.60 128.13, 276.59 128.38 C277.57 128.64, 277.25 128.60, 278.15 128.77 C279.05 128.93, 281.57 129.46, 281.98 129.37 M276.09 126.43 C277.65 125.29, 279.36 124.00, 280.13 124.81 C280.90 125.61, 280.16 130.39, 280.73 131.25 C281.30 132.11, 283.86 129.54, 283.57 129.98 C283.29 130.42, 280.31 132.83, 279.02 133.88 C277.74 134.94, 276.18 136.33, 275.84 136.30 C275.50 136.27, 277.36 134.02, 276.99 133.72 C276.61 133.42, 274.58 134.73, 273.61 134.51 C272.65 134.29, 270.89 133.32, 271.20 132.41 C271.50 131.50, 275.18 129.51, 275.44 129.06 C275.70 128.61, 272.43 130.15, 272.75 129.71" fill="#faf7ef" stroke="none"/><path d="M275.97 127.43 C277.22 127.10, 277.92 126.80, 278.95 127.10 C279.98 127.40, 281.76 128.29, 282.15 129.22 C282.54 130.15, 281.46 131.41, 281.28 132.67 C281.10 133.93, 281.84 136.16, 281.09 136.78 C280.34 137.40, 277.81 136.75, 276.79 136.37 C275.78 135.98, 275.38 134.62, 275.00 134.48 C274.63 134.35, 274.95 136.34, 274.56 135.58 C274.17 134.82, 272.64 131.42, 272.67 129.94 C272.71 128.46, 274.30 127.13, 274.76 126.72 C275.23 126.31, 275.63 127.31, 275.45 127.49 M278.98 128.08 C280.33 127.82, 283.00 128.15, 283.26 129.23 C283.53 130.31, 281.24 133.66, 280.57 134.57 C279.90 135.48, 279.39 134.51, 279.25 134.71 C279.12 134.91, 280.41 135.80, 279.73 135.77 C279.06 135.75, 276.64 135.08, 275.21 134.58 C273.79 134.09, 271.55 133.43, 271.18 132.81 C270.81 132.18, 272.21 131.84, 273.01 130.84 C273.81 129.84, 275.15 127.65, 275.99 126.80 C276.82 125.95, 278.12 125.91, 278.04 125.73 C277.95 125.55, 275.84 125.57, 275.47 125.73" fill="none" stroke="#202020" stroke-width="3" stroke-linecap="round" stroke-linejoin="round"/><path d="M210.66 147.82 L209.37 150.91 L212.22 152.77 L207.01 156.81" fill="#faf7ef" stroke="none"/><path d="M206.93 148.33 C210.02 150.23, 212.13 149.39, 213.17 147.87 M207.20 148.91 C208.55 148.41, 210.81 148.90, 212.59 149.02 M213.75 149.98 C213.61 151.03, 212.22 153.85, 212.60 154.84 M213.04 149.47 C213.33 151.13, 213.14 153.59, 213.13 154.50 M213.93 155.39 C209.99 154.53, 209.16 155.98, 206.00 156.12 M213.54 154.65 C211.14 154.40, 209.42 154.54, 206.79 155.00 M207.13 154.48 C206.35 153.48, 206.48 151.73, 206.63 149.33 M207.12 155.21 C206.79 153.43, 206.54 152.44, 206.85 148.96" fill="none" stroke="#202020" stroke-width="3" stroke-linecap="round" stroke-linejoin="round"/><path d="M196.57 162.59 C198.35 163.92, 198.74 168.29, 199.32 170.26 M197.20 162.42 C198.61 163.75, 198.73 165.98, 198.17 171.36" fill="none" stroke="#202020" stroke-width="3" stroke-linecap="round" stroke-linejoin="round"/><path d="M206.81 162.23 C204.05 164.53, 204.12 165.47, 207.23 171.47 M206.24 161.23 C205.64 163.49, 205.43 166.20, 205.56 172.57" fill="none" stroke="#202020" stroke-width="3" stroke-linecap="round" stroke-linejoin="round"/><path d="M212.06 163.90 C215.27 164.69, 213.26 167.28, 213.84 172.36 M213.91 162.16 C213.52 164.91, 214.66 169.20, 214.76 171.48" fill="none" stroke="#202020" stroke-width="3" stroke-linecap="round" stroke-linejoin="round"/><path d="M221.65 160.58 C220.54 164.27, 221.91 169.59, 222.90 170.16 M222.98 162.75 C222.20 165.04, 222.60 167.25, 221.80 172.60" fill="none" stroke="#202020" stroke-width="3" stroke-linecap="round" stroke-linejoin="round"/><path d="M188.79 251.66 C196.56 258.85, 204.82 260.17, 236.95 276.92 M186.82 250.83 C196.46 254.26, 208.95 259.40, 236.04 275.84" fill="none" stroke="#202020" stroke-width="3" stroke-linecap="round" stroke-linejoin="round"/><path d="M231.92 248.77 C218.84 258.76, 197.42 270.41, 186.19 275.67 M235.10 251.56 C220.15 258.89, 208.09 264.37, 184.02 273.82" fill="none" stroke="#202020" stroke-width="3" stroke-linecap="round" stroke-linejoin="round"/></svg>