<svg xmlns="http://www.w3.org/2000/svg" viewBox="0 0 436 310" width="436" height="310"><path d="M213.45 7.90 L328.60 106.48 L88.69 104.25" fill="#faf7ef" stroke="none"/><path d="M208.12 13.31 C232.81 27.75, 261.63 48.28, 327.77 105.67 M211.80 10.58 C248.61 41.27, 289.97 70.83, 330.42 101.47 M330.85 100.37 C269.79 102.67, 209.49 103.09, 88.71 102.45 M328.57 101.74 C277.75 102.00, 226.43 100.37, 88.51 102.19 M91.34 101.25 C121.84 80.51, 155.16 51.06, 210.77 13.70 M88.99 102.85 C128.06 70.94, 167.92 39.47, 209.16 10.35" fill="none" stroke="#202020" stroke-width="3" stroke-linecap="round" stroke-linejoin="round"/><path d="M326.26 103.93 L410.80 266.25 L213.94 283.41 L11.63 264.07 L88.20 105.09" fill="#faf7ef" stroke="none"/><path d="M333.34 99.63 C353.33 147.29, 372.13 196.42, 411.73 267.21 M329.02 102.68 C344.72 142.46, 364.51 182.35, 408.33 264.91 M413.02 265.57 C347.52 272.20, 286.01 276.48, 208.57 282.51 M409.33 264.99 C338.69 269.98, 267.36 276.64, 210.83 283.70 M211.63 287.14 C141.99 277.85, 69.69 271.68, 10.10 263.98 M209.44 285.61 C153.30 274.18, 93.10 270.28, 9.84 265.06 M6.40 264.27 C39.04 204.51, 73.29 146.04, 89.85 105.82 M11.36 262.40 C35.13 209.34, 63.93 155.54, 90.95 103.14 M88.87 99.70 C148.46 102.66, 206.79 102.19, 331.33 102.74 M90.24 102.60 C171.29 103.54, 255.35 104.14, 329.97 101.29" fill="none" stroke="#202020" stroke-width="3" stroke-linecap="round" stroke-linejoin="round"/><path d="M210.71 12.88 C208.21 83.07, 212.91 156.11, 207.95 286.62 M208.70 11.53 C214.79 75.01, 212.57 137.95, 209.72 283.56" fill="none" stroke="#202020" stroke-width="3" stroke-linecap="round" stroke-linejoin="round"/><path d="M332.20 102.28 C259.43 138.86, 193.36 171.54, 7.91 263.19 M329.61 102.61 C210.44 166.45, 89.69 228.46, 9.07 264.80" fill="none" stroke="#202020" stroke-width="3" stroke-linecap="round" stroke-linejoin="round"/><path d="M91.09 100.75 C183.43 155.48, 278.46 199.73, 409.93 262.34 M88.90 102.26 C170.11 148.05, 253.67 188.29, 410.94 265.24" fill="none" stroke="#202020" stroke-width="3" stroke-linecap="round" stroke-linejoin="round"/></svg>