<svg xmlns="http://www.w3.org/2000/svg" viewBox="0 0 436 310" width="436" height="310"><path d="M209.99 13.44 L326.63 103.31 L88.47 106.67" fill="#faf7ef" stroke="none"/><path d="M212.85 11.62 C258.49 43.14, 303.28 78.88, 331.13 105.86 M211.94 10.63 C254.87 43.29, 302.12 80.25, 328.25 102.67 M330.01 105.98 C258.15 98.81, 185.50 103.41, 91.55 103.09 M329.53 101.34 C242.34 99.03, 150.84 100.20, 88.99 102.96 M92.26 104.57 C136.74 72.05, 172.94 33.89, 212.10 6.66 M89.04 104.48 C117.84 80.62, 146.54 59.30, 209.55 10.74" fill="none" stroke="#202020" stroke-width="3" stroke-linecap="round" stroke-linejoin="round"/><path d="M333.89 101.04 L408.39 261.07 L208.15 284.63 L6.47 265.24 L90.88 104.66" fill="#faf7ef" stroke="none"/><path d="M329.90 102.44 C344.60 139.65, 365.08 180.78, 413.77 266.23 M329.50 102.40 C351.66 139.76, 366.92 173.41, 410.94 265.97 M411.71 263.37 C360.47 271.86, 306.53 277.08, 212.87 285.23 M408.61 263.89 C350.45 270.53, 287.82 276.64, 210.51 285.75 M207.50 284.54 C137.35 274.11, 64.56 270.96, 7.35 265.90 M208.99 282.78 C134.42 277.28, 55.15 267.27, 8.35 263.82 M12.52 267.11 C28.71 234.10, 47.56 198.37, 87.24 106.78 M8.58 263.38 C32.46 216.08, 57.84 167.26, 90.27 101.74 M90.41 101.29 C178.21 103.13, 262.04 103.37, 333.05 101.12 M89.08 102.08 C161.19 104.74, 233.97 105.72, 330.67 102.02" fill="none" stroke="#202020" stroke-width="3" stroke-linecap="round" stroke-linejoin="round"/><path d="M208.45 11.41 C211.98 76.61, 207.67 136.55, 208.91 286.12 M209.05 10.18 C214.38 82.40, 214.71 153.12, 209.14 284.02" fill="none" stroke="#202020" stroke-width="3" stroke-linecap="round" stroke-linejoin="round"/><path d="M328.50 105.03 C230.14 156.68, 126.25 207.64, 12.47 262.46 M330.40 102.93 C226.67 152.00, 123.89 204.78, 10.18 264.79" fill="none" stroke="#202020" stroke-width="3" stroke-linecap="round" stroke-linejoin="round"/><path d="M87.70 103.23 C183.19 153.82, 276.06 201.23, 409.87 265.73 M90.19 103.44 C164.22 142.80, 238.35 178.84, 409.74 264.02" fill="none" stroke="#202020" stroke-width="3" stroke-linecap="round" stroke-linejoin="round"/></svg>