<svg xmlns="http://www.w3.org/2000/svg" viewBox="0 0 64 64" width="64" height="64"><path d="M2.58 7.74 L40.39 3.81 L41.97 42.47 L4.67 39.91" fill="#faf7ef" stroke="none"/><path d="M1.54 8.99 C16.11 7.34, 33.67 4.65, 44.45 7.33 M5.76 3.14 C19.29 4.81, 35.47 7.04, 41.27 5.35 M44.70 1.11 C41.99 15.41, 44.22 27.03, 42.67 41.78 M43.65 5.03 C43.03 18.59, 42.83 28.74, 42.49 43.32 M39.84 42.70 C30.26 46.51, 13.74 38.86, 8.82 46.22 M41.72 41.53 C28.40 43.51, 17.47 43.93, 5.07 41.99 M1.95 44.41 C6.11 28.00, 3.26 13.13, 3.06 3.80 M3.81 42.34 C3.84 26.43, 4.56 11.97, 3.36 6.60" fill="none" stroke="#202020" stroke-width="2" stroke-linecap="round" stroke-linejoin="round"/><path d="M22.78 5.95 L33.54 20.56 L26.77 39.69 L10.31 20.80" fill="#faf7ef" stroke="none"/><path d="M26.02 6.31 C28.46 16.27, 28.02 16.91, 36.69 27.35 M25.40 10.49 C28.10 13.23, 34.23 21.10, 36.46 24.25 M36.99 23.15 C34.46 29.51, 25.52 35.08, 20.62 36.48 M34.44 23.42 C31.61 29.10, 26.46 33.23, 25.31 37.90 M21.68 40.73 C18.16 37.60, 18.88 28.12, 12.06 24.37 M24.45 37.73 C18.68 33.55, 16.37 27.35, 12.77 22.80 M11.62 25.10 C13.46 18.04, 15.05 12.72, 22.12 8.09 M11.52 22.40 C13.78 19.83, 15.94 17.54, 22.98 8.93" fill="none" stroke="#202020" stroke-width="2" stroke-linecap="round" stroke-linejoin="round"/></svg>