<svg xmlns="http://www.w3.org/2000/svg" viewBox="0 0 64 64" width="64" height="64"><path d="M21.76 6.79 L31.76 15.60 L16.03 18.75" fill="#faf7ef" stroke="none"/><path d="M22.53 9.01 C25.16 11.96, 27.97 11.64, 34.10 16.91 M23.95 9.20 C26.26 12.36, 28.48 14.61, 32.59 17.52 M34.83 15.21 C30.19 13.41, 20.00 15.18, 14.72 15.25 M30.98 18.01 C27.96 17.95, 22.39 16.92, 16.11 18.16 M14.64 17.78 C16.94 12.82, 18.88 14.04, 24.35 11.03 M15.11 17.10 C18.70 15.47, 20.87 12.72, 24.00 10.27" fill="none" stroke="#202020" stroke-width="2" stroke-linecap="round" stroke-linejoin="round"/><path d="M33.40 15.74 L38.16 14.75 L22.55 40.59 L12.30 16.44 L14.44 19.83" fill="#faf7ef" stroke="none"/><path d="M33.06 15.73 C32.67 15.93, 34.75 16.37, 38.07 18.23 M32.79 17.00 C34.96 17.34, 36.32 17.93, 37.93 18.37 M36.65 20.14 C33.23 27.43, 29.04 27.37, 20.44 39.67 M38.13 17.44 C33.55 24.88, 31.36 28.61, 24.85 37.08 M22.54 37.42 C21.54 34.22, 16.59 28.22, 7.79 14.88 M22.41 38.99 C17.85 32.59, 15.05 21.25, 8.25 18.94 M9.61 17.51 C12.02 18.71, 15.16 16.38, 16.25 16.03 M10.46 17.82 C11.20 16.97, 13.52 17.45, 15.23 16.29 M13.80 19.20 C20.37 14.69, 22.29 14.19, 34.70 15.54 M14.74 18.30 C19.01 18.46, 21.44 17.87, 31.64 17.78" fill="none" stroke="#202020" stroke-width="2" stroke-linecap="round" stroke-linejoin="round"/><path d="M21.56 10.96 C28.19 15.99, 26.03 22.05, 20.35 38.03 M23.88 11.90 C23.08 18.84, 25.21 27.85, 23.95 39.65" fill="none" stroke="#202020" stroke-width="2" stroke-linecap="round" stroke-linejoin="round"/><path d="M32.93 20.34 C21.75 19.34, 15.48 15.90, 7.86 18.90 M33.41 16.38 C26.47 17.57, 24.45 18.74, 8.00 16.00" fill="none" stroke="#202020" stroke-width="2" stroke-linecap="round" stroke-linejoin="round"/><path d="M13.19 15.08 C22.54 13.39, 27.97 18.50, 35.41 17.30 M17.29 16.52 C20.67 15.97, 26.46 19.63, 36.48 17.12" fill="none" stroke="#202020" stroke-width="2" stroke-linecap="round" stroke-linejoin="round"/></svg>