<svg xmlns="http://www.w3.org/2000/svg" viewBox="0 0 64 64" width="64" height="64"><path d="M21.58 6.11 L57.67 7.89 L57.22 35.67 L16.06 38.77" fill="#faf7ef" stroke="none"/><path d="M21.28 10.51 C29.44 7.63, 45.43 10.04, 58.87 10.86 M19.71 9.24 C32.26 9.01, 49.38 6.45, 54.56 6.02 M58.17 5.36 C56.97 18.30, 56.01 30.45, 52.04 34.95 M54.71 7.45 C55.46 17.36, 54.55 29.49, 53.80 37.54 M53.22 37.19 C45.29 39.60, 34.03 41.45, 16.64 40.98 M56.92 39.06 C48.71 38.41, 40.43 38.52, 20.35 36.86 M17.82 37.28 C18.74 29.59, 21.34 22.86, 16.79 7.62 M18.19 39.25 C19.07 32.07, 20.56 23.67, 19.80 8.63" fill="none" stroke="#202020" stroke-width="2" stroke-linecap="round" stroke-linejoin="round"/><path d="M60.77 10.91 L97.11 10.11 L98.37 40.65 L58.60 34.66" fill="#faf7ef" stroke="none"/><path d="M62.04 5.64 C75.47 8.33, 86.98 3.65, 96.21 4.02 M60.93 9.14 C68.98 6.87, 79.16 7.82, 93.57 6.05 M92.08 6.75 C98.28 18.62, 94.48 27.37, 94.59 40.79 M94.01 8.85 C93.76 21.46, 94.43 30.10, 96.14 39.78 M91.65 40.61 C80.61 37.12, 68.75 39.59, 58.84 36.94 M94.21 36.96 C84.52 39.87, 76.80 37.75, 61.62 38.07 M57.65 34.26 C60.29 22.79, 57.96 13.30, 61.71 5.38 M61.27 37.43 C60.63 29.57, 60.10 24.13, 61.91 7.04" fill="none" stroke="#202020" stroke-width="2" stroke-linecap="round" stroke-linejoin="round"/><path d="M103.51 5.91 L132.97 4.50 L131.16 34.77 L103.57 34.09" fill="#faf7ef" stroke="none"/><path d="M99.17 6.57 C117.14 6.47, 122.69 11.54, 133.51 5.73 M100.87 9.13 C113.26 7.03, 121.71 9.15, 135.86 7.99 M136.62 10.01 C133.21 18.59, 135.83 24.42, 131.09 34.24 M135.67 6.93 C134.41 13.31, 133.53 21.29, 135.18 39.49 M133.30 35.78 C124.56 39.58, 120.55 34.98, 103.81 34.58 M134.59 39.99 C124.17 36.75, 112.53 39.74, 101.24 39.81 M98.19 41.14 C98.61 23.20, 103.76 14.46, 97.60 10.75 M100.76 36.61 C101.17 32.09, 99.62 23.07, 100.71 8.70" fill="none" stroke="#202020" stroke-width="2" stroke-linecap="round" stroke-linejoin="round"/><path d="M43.96 -26.81 L74.32 -29.83 L77.38 3.81 L38.03 2.91" fill="#faf7ef" stroke="none"/><path d="M42.66 -23.83 C51.50 -22.74, 68.12 -23.89, 76.42 -27.64 M38.20 -26.97 C52.63 -26.54, 66.37 -28.04, 74.00 -27.25 M76.87 -28.58 C78.11 -17.31, 74.79 -11.56, 77.90 -0.89 M76.64 -26.05 C73.77 -22.23, 73.96 -14.95, 76.84 3.71 M77.72 -0.55 C61.32 -0.42, 55.04 3.59, 42.95 0.06 M74.41 2.09 C66.95 2.49, 58.82 3.56, 40.25 2.79 M39.32 1.73 C39.47 -11.34, 38.24 -21.97, 40.42 -28.13 M41.03 4.76 C41.33 -6.37, 38.62 -16.24, 39.84 -25.43" fill="none" stroke="#202020" stroke-width="2" stroke-linecap="round" stroke-linejoin="round"/><path d="M82.49 -28.67 L111.03 -30.19 L118.29 2.80 L82.15 4.48" fill="#faf7ef" stroke="none"/><path d="M79.84 -27.39 C91.97 -25.36, 104.26 -27.03, 116.15 -29.49 M81.62 -27.94 C86.94 -25.36, 95.63 -27.24, 116.75 -27.49 M113.60 -24.59 C115.43 -13.82, 115.62 -9.44, 116.64 4.99 M116.59 -27.24 C116.27 -19.32, 115.72 -10.28, 116.47 3.94 M116.26 6.66 C107.72 6.08, 96.96 3.12, 80.08 0.50 M116.07 3.60 C102.56 3.08, 90.57 1.99, 79.47 2.11 M78.15 5.38 C77.21 -6.55, 78.93 -10.79, 79.55 -30.64 M80.50 3.43 C78.72 -4.23, 81.87 -11.92, 78.27 -26.43" fill="none" stroke="#202020" stroke-width="2" stroke-linecap="round" stroke-linejoin="round"/><path d="M56.94 -64.27 L91.00 -58.87 L92.00 -34.47 L62.49 -35.93" fill="#faf7ef" stroke="none"/><path d="M57.18 -58.80 C69.72 -64.92, 72.31 -60.66, 94.53 -62.76 M61.35 -61.67 C71.76 -62.66, 84.40 -59.93, 93.86 -63.03 M93.17 -63.43 C97.77 -48.21, 94.70 -40.01, 96.33 -28.79 M94.12 -60.45 C96.65 -55.02, 95.20 -45.22, 96.76 -31.32 M95.52 -35.79 C88.24 -31.82, 78.88 -28.76, 63.45 -34.99 M94.24 -33.29 C85.44 -31.60, 80.18 -30.72, 60.88 -33.68 M57.04 -34.33 C58.33 -41.81, 56.03 -47.74, 59.44 -59.66 M59.05 -33.30 C60.40 -45.66, 60.96 -57.12, 58.64 -63.17" fill="none" stroke="#202020" stroke-width="2" stroke-linecap="round" stroke-linejoin="round"/><path d="M-5.77 19.58 L31.94 21.30 L35.23 49.93 L-4.07 47.76" fill="#faf7ef" stroke="none"/><path d="M1.60 18.53 C7.65 21.95, 25.39 19.93, 30.50 22.00 M-1.59 21.95 C11.02 21.08, 21.55 18.97, 32.63 20.86 M30.74 20.49 C34.66 30.57, 36.54 39.20, 29.28 52.94 M32.05 20.12 C32.86 26.85, 32.08 33.72, 34.54 51.85 M36.37 52.51 C15.88 53.46, 6.81 51.72, -1.48 51.76 M33.26 48.36 C23.85 48.69, 14.75 50.08, -3.92 51.12 M0.40 53.04 C-3.62 41.83, -5.10 35.87, -5.57 16.21 M-2.07 48.84 C-2.29 45.73, -0.67 37.03, -2.18 21.00" fill="none" stroke="#202020" stroke-width="2" stroke-linecap="round" stroke-linejoin="round"/><path d="M18.67 55.56 C18.67 13.87, 17.46 -18.98, 19.03 -70.64 M14.39 55.56 C16.33 17.73, 15.48 -19.34, 15.48 -71.12" fill="none" stroke="#202020" stroke-width="2" stroke-linecap="round" stroke-linejoin="round"/></svg>