<svg xmlns="http://www.w3.org/2000/svg" viewBox="0 0 64 64" width="64" height="64"><path d="M9.61 4.94 C11.77 1.64, 15.06 -2.53, 18.95 -3.78 C22.83 -5.02, 28.75 -4.54, 32.93 -2.53 C37.12 -0.51, 42.20 4.59, 44.07 8.34 C45.94 12.09, 45.34 17.09, 44.14 19.99 C42.95 22.89, 40.71 24.28, 36.92 25.74 C33.13 27.20, 26.15 28.98, 21.40 28.75 C16.66 28.52, 11.42 26.80, 8.45 24.36 C5.47 21.92, 1.89 18.44, 3.55 14.12 C5.20 9.79, 13.70 1.16, 18.38 -1.60 C23.05 -4.36, 31.75 -2.88, 31.61 -2.44 M32.20 0.53 C36.68 1.20, 42.86 1.77, 44.22 4.52 C45.59 7.27, 41.33 13.64, 40.39 17.02 C39.44 20.41, 41.66 23.01, 38.56 24.81 C35.46 26.61, 26.43 27.43, 21.78 27.81 C17.13 28.18, 13.27 29.22, 10.65 27.07 C8.03 24.91, 6.93 18.98, 6.07 14.86 C5.21 10.73, 3.62 5.50, 5.47 2.32 C7.32 -0.85, 12.51 -3.67, 17.18 -4.20 C21.85 -4.73, 30.53 -1.87, 33.48 -0.84 C36.43 0.20, 35.11 1.36, 34.90 2.01" fill="#faf7ef" stroke="none"/><path d="M26.70 -0.39 C31.35 0.21, 38.55 0.90, 41.41 3.07 C44.26 5.24, 43.95 8.94, 43.82 12.62 C43.69 16.29, 43.16 22.26, 40.63 25.15 C38.11 28.03, 33.30 29.51, 28.68 29.94 C24.05 30.37, 17.08 29.53, 12.88 27.73 C8.68 25.93, 4.47 22.49, 3.46 19.15 C2.44 15.81, 4.83 10.78, 6.79 7.70 C8.74 4.61, 9.50 1.03, 15.20 0.63 C20.89 0.23, 36.23 3.25, 40.97 5.29 C45.71 7.33, 43.92 13.15, 43.65 12.90 M19.48 -3.14 C23.98 -4.00, 31.60 -1.71, 35.90 0.52 C40.21 2.75, 44.30 6.61, 45.32 10.23 C46.34 13.85, 43.96 19.49, 42.01 22.23 C40.06 24.98, 37.16 25.75, 33.63 26.69 C30.10 27.64, 24.88 27.98, 20.84 27.91 C16.79 27.85, 11.98 28.90, 9.39 26.30 C6.79 23.70, 5.73 15.93, 5.25 12.32 C4.77 8.70, 3.92 7.04, 6.52 4.60 C9.12 2.15, 18.99 -1.36, 20.85 -2.35 C22.71 -3.35, 17.48 -1.40, 17.68 -1.36" fill="none" stroke="#202020" stroke-width="2" stroke-linecap="round" stroke-linejoin="round"/><path d="M17.19 3.78 C18.37 3.57, 22.02 3.75, 22.48 5.14 C22.94 6.54, 20.71 10.76, 19.96 12.17 C19.20 13.58, 18.62 12.98, 17.93 13.61 C17.23 14.25, 17.01 16.23, 15.79 15.99 C14.58 15.74, 11.57 13.58, 10.64 12.17 C9.72 10.75, 9.82 8.36, 10.24 7.49 C10.65 6.62, 12.20 7.56, 13.13 6.95 C14.06 6.34, 14.73 4.32, 15.83 3.82 C16.93 3.32, 18.96 3.72, 19.74 3.95 C20.52 4.17, 20.44 5.22, 20.51 5.16 M15.64 5.14 C16.38 4.88, 16.17 2.19, 17.20 2.46 C18.23 2.74, 21.19 5.83, 21.82 6.80 C22.45 7.77, 21.70 7.14, 20.98 8.29 C20.27 9.45, 18.28 12.33, 17.54 13.75 C16.81 15.16, 17.15 16.67, 16.58 16.78 C16.02 16.89, 15.01 15.69, 14.17 14.41 C13.34 13.13, 11.87 10.65, 11.60 9.12 C11.33 7.59, 12.37 5.90, 12.57 5.22 C12.77 4.53, 12.43 5.64, 12.82 5.01 C13.20 4.37, 14.55 1.46, 14.89 1.41" fill="#faf7ef" stroke="none"/><path d="M19.42 5.36 C20.21 5.43, 21.13 4.85, 21.67 5.70 C22.21 6.55, 23.14 9.00, 22.67 10.46 C22.20 11.91, 19.74 13.86, 18.86 14.44 C17.98 15.01, 18.59 14.12, 17.39 13.90 C16.20 13.68, 12.68 13.83, 11.70 13.13 C10.73 12.44, 11.36 11.08, 11.54 9.73 C11.71 8.39, 11.96 6.18, 12.77 5.07 C13.58 3.95, 15.28 3.16, 16.38 3.03 C17.49 2.89, 18.61 4.10, 19.41 4.26 C20.20 4.42, 21.36 3.57, 21.14 3.99 M14.51 5.72 C14.51 4.57, 12.56 5.12, 13.26 5.35 C13.96 5.58, 17.15 6.89, 18.73 7.13 C20.30 7.38, 22.51 6.21, 22.70 6.82 C22.89 7.44, 20.74 9.31, 19.85 10.82 C18.97 12.33, 18.46 15.37, 17.39 15.88 C16.32 16.39, 13.98 14.04, 13.45 13.91 C12.93 13.78, 14.86 15.83, 14.26 15.09 C13.66 14.35, 10.69 10.59, 9.86 9.48 C9.02 8.37, 8.88 9.42, 9.25 8.42 C9.62 7.42, 12.01 3.61, 12.08 3.48" fill="none" stroke="#202020" stroke-width="2" stroke-linecap="round" stroke-linejoin="round"/><path d="M31.90 3.90 C33.30 3.24, 33.82 3.29, 34.85 4.09 C35.88 4.89, 37.76 7.57, 38.11 8.69 C38.45 9.81, 37.48 9.87, 36.92 10.81 C36.36 11.76, 35.83 13.94, 34.75 14.36 C33.67 14.78, 31.34 13.70, 30.43 13.33 C29.53 12.96, 30.14 12.82, 29.31 12.13 C28.48 11.43, 25.50 10.03, 25.44 9.16 C25.37 8.29, 27.25 7.79, 28.92 6.91 C30.59 6.03, 33.86 3.75, 35.47 3.87 C37.09 3.99, 38.80 7.29, 38.61 7.62 M36.49 1.84 C37.12 2.30, 35.99 7.17, 36.53 8.49 C37.06 9.82, 39.92 9.13, 39.70 9.79 C39.47 10.46, 36.82 11.88, 35.18 12.51 C33.55 13.13, 30.93 13.82, 29.89 13.53 C28.85 13.23, 29.05 11.19, 28.93 10.75 C28.80 10.31, 29.52 11.36, 29.13 10.89 C28.75 10.43, 26.84 8.79, 26.62 7.95 C26.40 7.10, 26.97 6.58, 27.81 5.82 C28.65 5.07, 30.91 3.52, 31.67 3.42 C32.42 3.32, 31.82 4.64, 32.35 5.21" fill="#faf7ef" stroke="none"/><path d="M33.37 5.31 C34.41 5.29, 32.77 6.13, 33.68 6.71 C34.59 7.29, 38.58 8.34, 38.84 8.79 C39.10 9.24, 36.03 8.79, 35.23 9.41 C34.42 10.04, 35.22 11.62, 34.01 12.54 C32.79 13.46, 29.40 15.08, 27.95 14.93 C26.49 14.78, 25.64 13.00, 25.29 11.62 C24.94 10.24, 25.33 7.88, 25.83 6.64 C26.33 5.40, 26.98 4.56, 28.30 4.17 C29.62 3.78, 32.50 4.28, 33.76 4.30 C35.01 4.31, 35.81 4.41, 35.83 4.26 M29.66 3.93 C30.72 3.65, 32.57 5.56, 32.89 5.91 C33.22 6.26, 31.29 6.00, 31.59 6.02 C31.90 6.03, 34.05 4.83, 34.75 6.00 C35.44 7.18, 35.35 12.20, 35.76 13.06 C36.16 13.92, 37.66 10.96, 37.19 11.17 C36.72 11.39, 34.29 14.18, 32.95 14.36 C31.60 14.55, 29.78 12.86, 29.13 12.29 C28.48 11.72, 29.06 11.67, 29.07 10.95 C29.07 10.23, 29.08 8.54, 29.16 7.97 C29.24 7.40, 29.56 7.93, 29.55 7.52" fill="none" stroke="#202020" stroke-width="2" stroke-linecap="round" stroke-linejoin="round"/><path d="M20.69 22.14 L28.07 26.38 L29.84 30.26 L18.52 35.49" fill="#faf7ef" stroke="none"/><path d="M22.17 25.66 C23.19 25.98, 25.78 27.16, 26.22 26.42 M20.44 26.55 C22.46 26.40, 24.02 26.09, 27.44 25.92 M28.20 25.38 C28.09 28.56, 26.89 30.32, 26.81 32.54 M26.63 26.10 C27.04 27.46, 27.35 29.63, 26.52 32.04 M27.15 30.92 C25.34 31.25, 23.80 31.01, 20.85 32.37 M26.84 31.88 C25.15 32.02, 23.48 31.50, 20.62 31.48 M22.12 30.96 C19.98 29.29, 20.38 29.05, 21.44 25.63 M20.89 32.18 C20.63 30.20, 20.54 29.61, 20.49 26.25" fill="none" stroke="#202020" stroke-width="2" stroke-linecap="round" stroke-linejoin="round"/><path d="M11.96 38.37 C13.41 42.98, 13.40 43.47, 13.64 47.00 M12.52 39.05 C11.41 41.14, 12.25 44.35, 11.76 49.98" fill="none" stroke="#202020" stroke-width="2" stroke-linecap="round" stroke-linejoin="round"/><path d="M20.67 40.72 C21.09 41.69, 20.10 48.75, 20.71 48.77 M19.95 38.57 C18.87 40.80, 20.15 44.12, 19.78 49.34" fill="none" stroke="#202020" stroke-width="2" stroke-linecap="round" stroke-linejoin="round"/><path d="M28.22 39.21 C27.40 42.10, 29.56 42.65, 28.17 48.04 M27.41 39.65 C27.51 40.97, 27.31 44.98, 28.09 49.59" fill="none" stroke="#202020" stroke-width="2" stroke-linecap="round" stroke-linejoin="round"/><path d="M36.83 37.28 C35.42 41.65, 37.69 43.31, 36.23 49.96 M35.98 39.26 C35.73 42.21, 35.39 46.00, 35.24 49.09" fill="none" stroke="#202020" stroke-width="2" stroke-linecap="round" stroke-linejoin="round"/><path d="M2.46 43.44 C14.21 45.97, 26.85 53.41, 45.64 64.48 M0.56 39.61 C14.23 47.82, 25.34 55.27, 48.11 65.92" fill="none" stroke="#202020" stroke-width="2" stroke-linecap="round" stroke-linejoin="round"/><path d="M46.62 38.13 C34.99 49.53, 18.00 58.51, 0.92 64.81 M48.63 42.27 C33.42 45.82, 21.19 51.84, -1.72 63.92" fill="none" stroke="#202020" stroke-width="2" stroke-linecap="round" stroke-linejoin="round"/></svg>