<svg xmlns="http://www.w3.org/2000/svg" viewBox="0 0 64 64" width="64" height="64"><path d="M5.79 18.29 C5.79 18.29, 5.79 18.29, 5.79 18.29 M5.79 18.29 C5.79 18.29, 5.79 18.29, 5.79 18.29 M13.28 22.00 C14.19 21.83, 15.35 19.40, 16.48 18.80 M12.37 22.69 C13.19 21.01, 14.60 19.69, 16.54 17.68 M23.09 10.05 C23.03 10.12, 24.87 8.87, 25.70 7.47 M23.28 11.03 C23.35 9.78, 24.17 9.09, 25.50 7.65 M12.80 28.06 C17.02 27.40, 18.24 24.23, 28.44 16.67 M15.67 32.02 C17.63 27.58, 23.60 23.00, 26.48 15.39 M25.02 36.32 C25.72 30.58, 30.24 27.07, 39.20 18.96 M24.08 32.19 C25.75 29.87, 28.76 27.42, 39.34 17.50 M31.51 37.35 C32.63 36.50, 32.91 36.02, 33.35 34.89 M31.87 37.17 C32.75 35.87, 33.81 35.24, 34.16 34.90" fill="#faf7ef" stroke="none"/><path d="M22.26 6.96 C26.65 8.43, 26.01 14.41, 26.39 16.07 M25.25 3.79 C23.99 9.96, 27.69 13.58, 28.05 18.84 M31.18 18.19 C32.98 15.53, 33.76 20.96, 39.80 16.22 M28.40 18.47 C31.71 16.37, 33.34 18.12, 41.28 17.53 M39.66 18.83 C35.85 18.75, 33.85 21.25, 33.08 26.78 M42.38 16.91 C38.95 21.61, 34.59 25.13, 30.79 25.92 M31.25 25.19 C34.77 29.65, 32.47 36.85, 34.99 40.78 M30.99 27.33 C32.84 31.86, 32.82 35.63, 36.09 39.75 M35.82 41.29 C32.07 39.45, 31.46 38.12, 24.59 32.54 M34.37 40.22 C33.29 36.57, 30.02 34.86, 24.90 30.76 M24.16 33.33 C19.30 32.93, 15.47 34.33, 12.78 38.43 M24.98 32.60 C20.24 32.94, 17.41 37.41, 13.22 39.06 M10.68 40.86 C13.84 35.91, 18.23 29.54, 17.19 24.75 M13.37 40.53 C13.52 34.23, 15.92 29.11, 17.84 25.30 M15.33 27.11 C16.12 24.14, 12.88 25.28, 3.44 20.47 M16.82 25.44 C13.55 24.17, 10.59 22.92, 6.30 18.16 M4.99 15.79 C6.91 15.68, 13.80 16.33, 20.43 17.20 M4.83 18.94 C11.26 17.18, 14.45 17.77, 20.22 17.75 M21.72 19.24 C18.31 12.30, 19.95 9.29, 24.00 5.42 M19.17 18.94 C21.74 13.11, 22.66 10.55, 23.21 6.17" fill="none" stroke="#202020" stroke-width="2" stroke-linecap="round" stroke-linejoin="round"/></svg>