<svg xmlns="http://www.w3.org/2000/svg" viewBox="0 0 900 300" width="900" height="300"><path d="M325.61 59.12 C325.61 59.12, 325.61 59.12, 325.61 59.12 M325.61 59.12 C325.61 59.12, 325.61 59.12, 325.61 59.12 M319.38 79.17 C323.22 63.34, 338.78 51.09, 340.47 47.56 M316.20 77.95 C322.63 69.08, 327.38 62.79, 341.52 43.54 M303.12 91.44 C327.40 74.77, 348.00 51.30, 360.35 29.86 M306.54 93.35 C321.65 76.49, 332.48 63.54, 361.39 30.52 M299.90 103.25 C316.48 82.27, 334.20 63.03, 367.28 28.36 M301.60 106.12 C318.48 83.58, 340.58 57.74, 367.86 27.94 M294.77 118.62 C334.32 81.79, 361.68 38.41, 379.53 27.69 M298.06 113.80 C318.62 84.75, 344.32 59.20, 375.17 23.30 M291.82 127.17 C330.62 82.61, 369.03 44.52, 386.58 22.62 M293.74 124.56 C316.26 99.67, 338.80 77.45, 384.44 18.25 M294.59 136.09 C331.84 84.04, 371.02 40.11, 397.31 13.86 M292.97 133.47 C315.25 109.41, 336.12 83.12, 392.79 17.64 M287.82 140.60 C323.84 105.49, 352.89 64.26, 406.72 9.27 M291.26 144.43 C318.59 114.58, 344.38 83.38, 404.43 11.08 M290.01 146.50 C324.27 112.48, 349.59 76.90, 406.98 13.78 M288.17 150.52 C315.87 117.32, 350.00 82.11, 409.95 9.19 M293.73 151.57 C320.06 118.08, 356.11 84.48, 414.96 10.32 M289.81 153.89 C323.48 111.88, 358.63 74.91, 416.77 7.59 M286.91 160.48 C316.28 134.64, 341.98 99.64, 421.54 11.37 M290.39 162.02 C328.42 113.12, 368.10 65.76, 423.94 9.16 M286.92 166.45 C337.85 112.87, 387.43 56.64, 428.53 7.06 M289.07 167.26 C337.01 113.30, 384.51 58.20, 427.59 6.42 M290.49 169.91 C335.84 126.91, 375.53 77.30, 435.86 10.62 M291.60 172.38 C336.88 121.69, 381.06 70.73, 433.37 8.35 M287.33 177.37 C335.73 133.18, 380.24 83.19, 438.35 9.73 M292.25 176.88 C337.51 121.99, 386.67 65.16, 441.29 7.52 M292.67 183.46 C346.96 124.70, 400.65 58.17, 445.75 5.78 M289.09 184.33 C328.87 137.90, 368.90 88.05, 444.49 4.70 M293.55 190.35 C344.30 131.01, 389.33 77.29, 450.24 3.69 M289.49 189.39 C348.57 122.07, 410.80 50.41, 452.83 5.29 M291.27 197.92 C358.20 126.46, 416.04 55.69, 454.28 4.19 M292.78 197.77 C349.64 125.08, 411.78 54.16, 457.03 6.76 M295.01 201.68 C339.97 143.75, 396.04 87.07, 460.30 4.38 M294.20 201.00 C335.39 159.14, 372.93 112.42, 462.32 5.24 M291.76 206.28 C354.70 140.37, 408.54 75.96, 467.15 4.00 M293.45 205.02 C343.22 149.23, 385.71 97.07, 466.92 7.65 M299.01 207.02 C358.04 133.91, 422.42 56.56, 472.79 3.95 M296.46 209.20 C337.47 164.67, 377.17 118.64, 471.05 7.23 M299.66 214.89 C367.24 134.89, 433.49 63.38, 472.98 8.49 M298.16 213.96 C352.82 149.20, 405.59 87.42, 477.10 8.04 M301.29 216.77 C366.89 140.62, 438.95 58.99, 481.49 7.56 M298.05 217.27 C343.53 169.79, 386.10 119.84, 481.46 8.24 M303.86 224.26 C372.20 137.56, 445.99 57.39, 482.62 7.94 M300.73 220.44 C340.91 178.51, 378.98 130.97, 485.74 10.39 M300.96 222.89 C352.01 175.31, 399.11 120.67, 490.83 12.22 M304.04 224.79 C370.76 147.08, 437.25 72.47, 491.02 11.01 M305.62 230.29 C371.27 149.85, 440.04 68.86, 495.04 14.69 M303.47 229.76 C365.93 158.97, 428.07 86.06, 494.89 13.33 M308.08 234.09 C362.21 164.99, 425.91 92.14, 498.45 12.22 M305.30 235.29 C373.16 157.54, 443.44 77.91, 499.62 11.83 M307.47 240.08 C381.36 151.87, 460.52 61.23, 502.47 10.84 M307.41 238.82 C356.00 184.03, 401.48 131.05, 503.47 13.14 M311.94 240.85 C360.32 182.61, 412.98 124.30, 508.85 17.38 M309.92 243.37 C389.71 155.12, 465.61 67.14, 506.52 15.42 M310.41 248.29 C367.07 188.24, 419.09 125.25, 507.87 14.90 M313.09 246.37 C349.65 198.44, 391.25 148.78, 510.88 17.29 M315.97 247.27 C377.93 171.62, 450.69 88.17, 512.55 21.19 M312.66 248.60 C363.04 188.12, 418.23 126.05, 513.85 19.48 M315.79 252.06 C360.24 201.48, 396.68 155.73, 518.20 22.16 M317.52 253.17 C376.47 186.87, 436.77 117.25, 517.99 20.62 M321.00 257.79 C360.86 210.71, 398.97 158.39, 522.26 22.28 M319.61 256.11 C381.52 186.86, 439.82 117.07, 521.78 21.63 M321.90 257.27 C380.60 182.22, 447.15 112.21, 525.98 22.03 M320.21 260.30 C393.69 175.44, 464.49 92.36, 523.92 25.31 M321.84 262.24 C393.10 175.75, 465.01 91.44, 530.92 25.36 M322.79 263.60 C389.26 187.40, 454.04 113.92, 530.08 27.20 M328.70 265.15 C394.35 181.87, 466.71 99.84, 531.17 30.98 M325.67 264.16 C373.81 215.46, 417.64 162.64, 531.86 27.41 M330.63 267.31 C390.74 193.89, 459.14 122.18, 534.22 31.73 M329.43 267.49 C393.77 197.13, 454.05 128.06, 535.15 29.93 M332.96 271.18 C397.68 194.81, 460.10 119.97, 542.57 29.57 M332.23 271.08 C379.29 220.10, 426.00 164.75, 539.51 32.13 M332.56 278.09 C405.97 185.36, 483.02 101.35, 544.39 36.03 M334.98 274.39 C411.38 186.03, 489.02 99.47, 544.64 34.33 M335.22 280.94 C380.39 228.97, 422.37 175.63, 548.56 34.09 M334.94 278.44 C382.14 224.11, 432.08 168.27, 547.37 35.82 M336.99 281.38 C391.01 214.50, 448.95 152.42, 552.29 36.94 M339.45 282.76 C394.08 216.81, 448.09 154.78, 549.90 40.50 M343.24 285.41 C399.09 225.29, 456.06 161.54, 553.63 44.47 M340.77 285.00 C397.90 219.78, 452.42 153.62, 552.32 41.19 M347.56 287.12 C426.74 190.87, 509.36 96.94, 553.94 45.00 M344.85 286.62 C418.24 195.25, 493.47 108.35, 555.65 45.50 M350.02 286.91 C402.37 224.97, 462.63 161.97, 557.73 48.17 M349.23 289.42 C406.30 222.79, 462.43 157.88, 556.76 47.14 M353.77 288.24 C411.54 222.41, 467.44 162.58, 559.78 49.50 M352.08 291.52 C426.95 203.37, 505.68 113.65, 561.81 49.38 M353.20 291.12 C409.15 238.05, 457.50 178.80, 563.31 55.44 M356.72 293.80 C409.79 228.93, 465.22 164.60, 563.84 51.80 M361.40 293.06 C434.19 206.10, 515.83 118.75, 568.71 58.16 M359.44 294.06 C406.37 237.09, 456.20 179.72, 565.34 57.45 M360.93 299.45 C414.09 238.19, 469.80 174.00, 571.21 58.20 M363.29 298.81 C437.71 204.30, 518.28 112.81, 569.61 59.95 M363.03 298.01 C449.20 206.44, 527.74 115.56, 571.59 63.22 M364.92 299.71 C419.35 235.51, 476.35 170.89, 571.77 62.80 M367.31 304.52 C430.15 226.21, 495.30 151.07, 574.37 65.25 M369.95 303.07 C412.43 244.93, 459.10 190.97, 574.64 65.23 M369.26 304.52 C440.39 227.42, 506.66 149.57, 575.50 65.84 M371.36 305.98 C439.20 229.09, 503.38 155.44, 579.09 66.69 M372.69 306.11 C437.11 230.99, 503.18 158.36, 580.95 72.19 M376.81 307.33 C424.29 254.90, 467.06 204.52, 581.64 69.24 M379.31 308.55 C441.67 231.53, 501.50 161.04, 582.40 76.24 M378.01 307.18 C436.01 245.65, 494.01 179.57, 584.33 75.13 M381.16 309.93 C433.82 250.91, 482.43 191.65, 582.31 75.87 M382.65 309.67 C450.59 233.18, 516.02 157.18, 584.87 77.38 M387.14 308.75 C461.17 222.70, 539.63 130.93, 587.63 82.39 M387.36 310.60 C436.65 256.48, 482.84 201.98, 586.54 81.91 M391.84 313.21 C440.28 250.70, 496.57 188.24, 591.71 84.68 M390.35 311.73 C440.98 252.56, 494.32 194.40, 587.68 83.96 M392.89 316.14 C472.77 225.54, 550.54 139.81, 591.09 88.27 M395.61 313.93 C457.08 236.88, 523.64 163.81, 589.42 88.30 M400.97 313.09 C465.92 242.96, 528.68 165.69, 592.24 93.02 M399.53 316.71 C455.75 255.37, 511.34 191.38, 591.86 91.61 M402.67 317.95 C461.88 249.36, 514.90 187.74, 597.07 99.13 M402.43 315.90 C460.93 255.88, 519.08 189.36, 596.06 97.31 M408.98 318.34 C453.84 270.11, 494.65 214.88, 599.22 102.39 M406.90 317.79 C463.36 255.56, 518.42 195.04, 595.70 100.57 M413.37 320.19 C449.38 273.36, 489.57 230.63, 599.76 106.32 M411.47 321.46 C479.96 239.75, 548.49 159.46, 598.40 103.02 M413.30 319.29 C480.17 257.09, 537.06 182.93, 603.00 110.68 M416.64 321.94 C472.71 262.31, 525.55 199.12, 599.18 109.88 M418.28 320.38 C474.22 256.30, 527.98 192.53, 599.72 112.15 M420.49 323.72 C462.23 271.28, 507.42 220.04, 603.10 111.38 M423.18 320.68 C489.10 245.13, 558.66 163.14, 606.47 117.84 M423.16 324.14 C482.08 258.08, 538.31 193.45, 603.24 115.99 M426.25 323.74 C462.83 285.29, 498.70 240.95, 607.30 120.95 M428.03 323.43 C472.03 276.15, 515.58 224.70, 604.39 122.23 M431.84 325.51 C476.52 278.98, 517.33 231.09, 605.52 125.34 M433.58 323.29 C482.13 277.02, 527.14 223.87, 604.71 127.81 M436.27 326.35 C500.98 251.80, 563.12 180.22, 608.74 134.01 M438.90 324.71 C490.29 267.03, 541.76 208.68, 608.55 131.02 M441.58 322.49 C489.07 276.95, 529.55 232.54, 609.48 135.35 M443.53 326.09 C501.14 259.59, 556.82 199.25, 607.97 135.97 M452.21 322.95 C483.91 280.33, 519.31 239.71, 612.86 141.63 M448.38 324.38 C491.53 276.36, 529.78 228.37, 609.50 139.91 M452.59 323.65 C493.46 276.98, 533.14 233.02, 609.63 143.15 M454.82 327.24 C515.56 261.21, 574.31 192.17, 612.09 144.42 M461.69 328.74 C498.61 285.33, 536.14 240.77, 611.62 153.61 M459.95 326.52 C496.76 283.52, 529.71 245.03, 610.93 151.02 M465.97 326.93 C504.78 277.90, 544.37 228.17, 610.34 157.13 M464.29 327.48 C499.90 279.52, 538.18 236.34, 611.38 155.77 M470.76 323.52 C506.03 282.57, 546.79 238.03, 611.53 158.24 M469.79 325.62 C512.43 277.40, 556.88 225.82, 614.96 160.05 M474.46 322.06 C521.07 266.88, 574.44 212.59, 615.75 163.40 M475.85 326.62 C519.82 271.49, 563.08 224.17, 614.83 165.20 M486.46 324.29 C520.63 285.65, 551.66 243.85, 612.83 175.31 M481.58 322.60 C522.34 275.01, 563.90 228.61, 614.68 172.88 M492.84 319.56 C524.52 286.31, 562.37 244.08, 610.46 183.28 M489.50 320.58 C537.24 270.96, 579.56 221.83, 611.58 179.98 M499.38 317.89 C542.45 264.64, 590.51 219.10, 613.82 185.91 M496.96 317.67 C521.70 294.21, 547.11 263.88, 613.03 188.32 M501.07 317.88 C524.66 292.52, 554.28 268.39, 609.57 195.94 M505.74 319.38 C533.79 282.65, 563.64 243.32, 610.65 194.00 M512.32 314.76 C530.62 292.65, 553.49 260.95, 612.35 200.85 M509.40 314.85 C534.66 287.60, 560.34 258.34, 611.02 202.77 M519.99 309.17 C554.16 278.48, 582.56 247.23, 606.72 211.94 M522.13 308.96 C542.08 287.49, 557.54 266.10, 607.32 213.42 M534.32 307.64 C548.31 285.02, 569.34 260.86, 598.43 225.31 M529.94 305.76 C548.66 287.66, 561.15 271.75, 598.80 226.24 M543.96 297.95 C554.47 281.22, 568.22 264.11, 591.22 236.67 M543.17 298.12 C556.65 281.89, 571.06 262.12, 595.80 238.55 M554.67 292.44 C566.73 276.58, 577.06 263.83, 585.38 253.60 M551.78 288.96 C566.31 278.72, 575.39 262.57, 587.30 250.03" fill="#faf7ef" stroke="none"/><path d="M503.59 13.11 C518.72 15.75, 532.24 25.48, 545.18 35.06 C558.11 44.65, 571.70 57.78, 581.20 70.62 C590.71 83.47, 596.70 97.17, 602.20 112.12 C607.70 127.06, 613.25 144.31, 614.19 160.29 C615.13 176.28, 612.17 193.14, 607.84 208.04 C603.50 222.95, 596.66 236.36, 588.21 249.74 C579.76 263.11, 569.44 277.58, 557.14 288.30 C544.83 299.01, 529.14 307.68, 514.38 314.02 C499.61 320.35, 484.43 324.82, 468.55 326.31 C452.68 327.80, 434.65 326.27, 419.14 322.97 C403.63 319.67, 389.24 313.67, 375.49 306.52 C361.73 299.36, 348.13 291.42, 336.61 280.04 C325.09 268.66, 314.06 252.53, 306.38 238.22 C298.70 223.91, 293.44 209.49, 290.51 194.17 C287.59 178.84, 287.03 161.63, 288.84 146.28 C290.64 130.93, 295.23 116.61, 301.37 102.08 C307.51 87.54, 315.57 71.03, 325.65 59.06 C335.74 47.09, 347.94 38.51, 361.88 30.26 C375.82 22.02, 393.41 13.85, 409.29 9.60 C425.18 5.35, 439.12 3.19, 457.21 4.75 C475.30 6.31, 505.25 14.83, 517.83 18.95 C530.41 23.08, 533.75 27.15, 532.69 29.49 M445.96 2.40 C461.57 -0.55, 483.16 6.35, 498.72 11.23 C514.29 16.12, 526.22 22.69, 539.34 31.73 C552.46 40.78, 567.06 53.75, 577.44 65.50 C587.82 77.24, 596.26 88.26, 601.62 102.19 C606.97 116.13, 608.07 132.56, 609.58 149.10 C611.09 165.63, 614.15 186.02, 610.69 201.40 C607.22 216.77, 596.54 227.63, 588.79 241.34 C581.04 255.05, 575.57 271.97, 564.17 283.65 C552.77 295.32, 535.33 305.13, 520.40 311.39 C505.47 317.65, 489.87 319.52, 474.57 321.22 C459.28 322.93, 444.43 323.36, 428.64 321.60 C412.86 319.85, 394.34 317.41, 379.86 310.68 C365.39 303.95, 353.26 291.38, 341.79 281.21 C330.32 271.05, 319.30 262.47, 311.05 249.68 C302.80 236.89, 296.44 220.21, 292.28 204.47 C288.12 188.73, 284.63 171.74, 286.09 155.24 C287.55 138.74, 294.94 120.74, 301.06 105.49 C307.19 90.23, 313.43 75.57, 322.84 63.68 C332.26 51.80, 344.79 43.28, 357.54 34.18 C370.29 25.09, 384.71 14.35, 399.36 9.11 C414.02 3.87, 437.37 3.50, 445.46 2.73 C453.55 1.96, 447.68 2.04, 447.91 4.50" fill="none" stroke="#202020" stroke-width="2" stroke-linecap="round" stroke-linejoin="round"/><path d="M247.56 50.90 C247.56 50.90, 247.56 50.90, 247.56 50.90 M247.56 50.90 C247.56 50.90, 247.56 50.90, 247.56 50.90 M238.29 67.28 C250.12 49.09, 264.37 40.52, 292.44 6.67 M243.33 63.02 C257.24 46.38, 274.51 25.62, 287.34 9.95 M239.13 75.38 C255.86 51.93, 282.37 22.54, 298.95 2.76 M237.79 75.61 C256.18 54.15, 271.48 35.19, 300.35 0.39 M230.92 88.60 C254.34 60.34, 270.92 41.70, 315.91 -12.20 M229.71 88.38 C261.44 57.59, 288.59 24.00, 317.57 -10.32 M223.38 101.16 C257.97 55.60, 301.10 11.87, 331.04 -24.06 M226.57 98.78 C264.85 50.06, 307.54 1.76, 331.37 -22.29 M228.97 105.06 C262.82 67.91, 297.73 23.81, 337.29 -26.03 M228.83 100.64 C256.83 74.77, 285.94 41.38, 339.36 -26.29 M226.70 107.98 C276.93 60.22, 322.03 2.54, 349.64 -31.37 M228.54 108.96 C254.74 78.72, 278.45 49.42, 347.05 -25.95 M226.61 116.09 C260.64 78.04, 298.92 30.36, 352.93 -32.76 M226.57 117.85 C263.44 71.58, 304.53 23.85, 357.13 -31.56 M227.31 127.39 C262.22 79.91, 304.06 37.75, 361.12 -34.73 M222.82 124.49 C280.25 61.27, 333.02 0.02, 362.66 -34.39 M223.90 136.20 C276.14 73.62, 326.27 13.02, 367.24 -33.78 M222.79 133.36 C257.16 95.33, 292.96 54.17, 369.04 -36.86 M221.76 141.58 C270.09 90.78, 312.90 38.08, 380.78 -38.60 M222.72 141.44 C268.55 89.62, 316.78 33.83, 378.48 -37.89 M218.12 151.44 C267.91 89.17, 323.79 26.94, 385.43 -42.46 M216.52 153.65 C259.71 98.47, 305.35 47.13, 386.29 -40.34 M219.63 162.07 C275.48 92.43, 328.19 25.47, 387.92 -41.06 M215.75 158.05 C269.39 95.76, 320.15 35.87, 389.19 -41.40 M216.33 167.52 C277.49 92.65, 341.30 23.38, 395.80 -38.70 M216.36 164.74 C281.04 90.55, 348.26 15.95, 394.38 -39.42 M218.04 168.11 C258.09 122.54, 301.57 71.92, 403.89 -43.12 M219.13 169.44 C271.60 105.20, 331.76 36.67, 403.34 -42.15 M215.30 173.47 C279.22 110.36, 335.13 42.90, 407.86 -40.35 M217.22 175.38 C260.07 129.19, 299.63 81.97, 408.67 -40.55 M219.01 181.20 C282.14 103.49, 352.02 24.89, 411.52 -45.41 M219.33 180.70 C269.61 121.40, 315.89 68.27, 415.27 -42.54 M221.04 187.84 C277.00 117.23, 338.04 51.47, 419.94 -44.26 M219.22 187.70 C285.99 111.24, 350.81 38.75, 421.04 -44.46 M220.90 194.48 C272.97 131.28, 320.92 70.24, 424.18 -45.44 M219.44 193.38 C294.05 105.08, 371.25 15.77, 424.80 -45.33 M218.11 200.09 C273.06 136.61, 317.85 83.39, 432.64 -46.77 M220.41 198.51 C277.35 131.79, 333.36 68.45, 430.53 -46.16 M223.21 206.34 C303.01 111.96, 383.76 21.74, 435.89 -48.12 M220.15 202.88 C274.85 139.62, 332.07 76.52, 437.19 -47.27 M220.96 207.92 C276.10 146.23, 330.62 89.61, 440.94 -45.38 M221.27 209.40 C274.01 148.23, 325.10 88.32, 442.96 -45.29 M222.50 212.88 C292.44 141.05, 353.03 67.46, 448.05 -45.85 M224.67 214.05 C272.12 157.74, 316.50 105.28, 449.42 -48.09 M222.78 215.26 C282.69 157.42, 337.41 95.33, 453.42 -45.66 M224.92 216.56 C310.40 122.07, 394.69 28.08, 453.77 -46.76 M227.10 218.84 C284.68 153.07, 347.55 82.52, 460.32 -46.62 M227.53 222.18 C283.57 150.53, 342.48 82.99, 458.21 -45.99 M226.88 225.06 C294.89 149.35, 361.60 74.67, 462.36 -44.41 M227.47 224.39 C315.28 127.08, 397.64 31.23, 463.94 -46.95 M229.02 231.75 C304.90 142.96, 378.28 58.35, 471.53 -46.09 M230.01 228.98 C282.56 170.68, 334.67 112.72, 468.05 -45.29 M229.27 234.88 C298.13 155.26, 365.80 77.41, 473.35 -42.76 M231.55 234.70 C306.83 147.03, 384.47 58.59, 473.48 -45.82 M235.42 238.15 C315.55 141.91, 397.54 46.70, 479.18 -42.80 M232.03 237.15 C308.24 153.81, 383.03 71.12, 479.79 -44.07 M233.30 240.98 C283.08 181.69, 339.46 124.59, 486.27 -45.95 M235.11 241.71 C310.94 155.21, 384.89 68.07, 484.85 -43.59 M233.65 249.26 C304.91 170.56, 374.92 92.94, 487.14 -43.61 M236.56 246.47 C330.00 137.73, 422.65 31.57, 489.26 -42.24 M236.59 249.75 C338.21 140.71, 432.33 29.46, 491.05 -41.32 M238.11 250.82 C326.12 146.49, 414.83 43.06, 494.02 -43.01 M238.00 254.44 C296.03 192.96, 350.74 127.30, 499.13 -43.77 M238.91 255.18 C306.77 181.31, 372.60 106.22, 498.62 -42.67 M239.68 260.18 C300.82 192.00, 358.13 123.59, 504.50 -44.57 M240.57 260.84 C336.20 146.30, 434.34 34.40, 503.95 -42.97 M244.20 263.04 C312.04 187.97, 379.66 111.18, 507.83 -42.42 M243.37 263.13 C313.50 186.98, 379.92 109.73, 508.46 -42.48 M247.04 264.60 C328.08 171.55, 414.03 79.68, 513.37 -40.64 M245.69 267.39 C335.87 161.64, 425.90 57.80, 513.03 -41.04 M249.66 269.07 C307.45 203.54, 365.85 137.48, 515.25 -41.04 M247.65 269.61 C340.10 163.86, 431.12 60.57, 517.50 -39.23 M250.55 271.28 C319.27 195.12, 387.31 114.43, 522.65 -39.20 M251.28 272.97 C346.15 167.02, 439.60 58.54, 520.17 -37.49 M254.80 276.93 C363.71 155.23, 468.75 29.60, 526.73 -35.67 M251.66 276.51 C327.81 194.35, 401.50 110.13, 525.53 -36.21 M255.14 279.15 C359.30 158.95, 465.67 34.32, 526.63 -32.56 M255.65 280.22 C317.56 202.49, 381.14 128.24, 528.07 -34.90 M256.72 285.33 C329.27 205.74, 395.52 126.58, 533.83 -32.62 M256.74 283.21 C343.26 189.79, 426.46 94.70, 532.47 -34.28 M260.11 285.13 C354.86 169.26, 457.70 55.75, 535.00 -29.92 M259.84 286.86 C346.84 186.18, 437.08 83.75, 537.11 -31.02 M262.31 288.34 C349.24 184.12, 442.84 82.89, 539.00 -29.96 M262.43 289.68 C346.44 197.00, 427.73 101.82, 540.02 -30.56 M266.24 294.28 C339.92 206.01, 419.18 115.34, 546.19 -26.80 M264.43 294.29 C375.68 164.31, 486.21 39.00, 545.32 -28.59 M267.40 294.99 C361.94 193.19, 449.97 88.02, 550.96 -26.76 M266.58 297.73 C348.39 200.17, 429.87 107.28, 549.38 -27.53 M268.32 299.83 C366.76 188.51, 460.25 78.72, 553.42 -27.57 M269.86 299.62 C385.93 169.57, 498.88 38.08, 552.27 -25.35 M272.48 303.23 C347.84 219.38, 423.58 133.63, 554.44 -23.52 M271.52 304.28 C349.25 214.53, 429.21 121.38, 557.05 -24.36 M273.81 308.10 C375.70 190.17, 473.08 72.55, 560.11 -22.14 M273.43 308.04 C338.61 228.93, 407.23 150.66, 561.07 -22.86 M276.37 307.11 C377.80 190.03, 482.33 67.45, 563.33 -20.97 M276.99 308.84 C372.03 200.68, 466.46 90.63, 564.95 -20.76 M282.65 310.28 C362.87 219.00, 440.80 129.77, 566.47 -19.44 M280.97 312.20 C395.68 182.28, 509.31 51.05, 567.93 -17.33 M281.77 314.10 C341.76 250.02, 398.76 180.74, 570.84 -16.61 M282.88 314.64 C388.04 190.23, 494.67 69.22, 571.11 -17.03 M288.46 317.88 C400.23 189.01, 513.44 57.08, 576.26 -13.97 M286.70 316.23 C352.45 243.38, 414.22 170.54, 574.95 -15.49 M291.06 318.51 C391.14 200.88, 496.21 82.82, 577.58 -13.70 M289.12 319.37 C401.74 192.08, 513.16 64.83, 577.86 -12.11 M291.50 320.24 C383.43 216.20, 478.47 110.23, 579.97 -10.91 M293.82 321.11 C370.45 233.73, 449.54 142.95, 580.48 -10.83 M297.29 322.00 C390.99 214.56, 485.59 107.54, 586.02 -5.94 M296.78 323.39 C406.58 195.55, 519.92 66.19, 584.94 -7.84 M297.87 325.81 C388.72 218.65, 480.33 113.15, 588.81 -7.35 M300.10 327.30 C370.12 241.60, 446.30 156.63, 588.97 -5.22 M300.85 327.25 C375.95 245.58, 447.77 159.63, 593.54 -4.21 M303.32 329.43 C403.23 216.01, 502.68 102.92, 591.48 -2.87 M306.28 332.21 C397.18 224.81, 491.79 118.35, 595.62 0.05 M305.64 331.99 C390.79 228.05, 479.91 125.75, 595.45 -1.79 M309.50 333.17 C407.81 218.32, 506.79 104.55, 596.86 -0.89 M308.43 334.58 C375.06 260.12, 439.01 187.27, 598.71 0.48 M311.16 335.66 C391.34 251.81, 465.37 166.40, 602.66 1.72 M311.39 335.83 C384.82 251.24, 457.85 167.85, 601.21 3.53 M315.83 338.86 C373.90 271.35, 431.89 202.92, 605.88 5.46 M315.10 339.59 C399.23 242.20, 485.86 143.50, 605.35 6.30 M318.43 340.25 C378.46 267.55, 443.91 194.52, 609.98 6.75 M318.38 340.58 C421.66 224.35, 525.70 104.59, 609.30 8.15 M323.19 341.56 C415.83 234.82, 513.65 125.49, 612.80 11.54 M322.47 343.85 C396.29 256.98, 469.24 172.43, 611.41 9.22 M324.79 344.19 C422.92 233.51, 521.20 117.00, 615.61 12.64 M324.98 346.25 C442.90 217.60, 555.09 86.87, 614.46 12.77 M329.76 347.59 C432.49 228.33, 531.97 113.49, 618.81 14.34 M328.62 346.76 C387.68 282.30, 444.98 215.78, 616.97 14.99 M331.85 347.99 C401.64 271.08, 465.64 195.67, 619.65 18.38 M332.94 348.60 C440.06 223.92, 550.33 100.03, 620.38 19.20 M335.56 349.21 C448.67 227.11, 555.85 102.20, 622.85 20.37 M335.74 351.00 C424.48 253.53, 511.07 152.76, 622.99 22.44 M338.43 354.12 C401.22 282.77, 464.81 209.34, 623.62 24.54 M339.27 353.09 C445.64 235.94, 548.23 118.52, 625.07 25.37 M343.76 353.57 C410.98 280.84, 475.65 203.64, 629.40 26.51 M344.79 354.66 C413.07 270.92, 483.30 188.71, 629.46 27.20 M345.91 357.93 C436.56 257.66, 524.18 155.82, 630.77 30.18 M347.82 355.78 C440.78 251.23, 533.58 141.63, 630.78 30.87 M352.24 360.28 C435.30 259.12, 519.63 160.83, 634.95 33.20 M351.85 357.63 C430.40 268.71, 507.37 179.97, 633.41 33.29 M354.26 361.11 C447.41 251.88, 539.03 142.53, 638.96 34.41 M354.71 360.76 C421.02 285.26, 487.40 210.33, 638.07 35.52 M359.59 361.47 C441.90 264.03, 522.34 171.66, 638.58 38.50 M358.14 362.55 C467.17 235.03, 575.09 111.80, 639.17 38.47 M360.77 365.30 C440.73 270.25, 518.59 178.76, 641.76 43.67 M361.41 364.75 C448.98 262.20, 535.78 162.55, 642.20 42.25 M366.74 364.25 C459.15 263.72, 548.65 162.77, 645.42 43.52 M366.53 366.72 C466.44 251.36, 567.69 135.94, 646.30 44.47 M368.79 365.76 C473.63 251.49, 578.18 131.32, 649.16 48.18 M370.52 366.04 C473.28 250.36, 575.79 134.10, 649.01 47.78 M373.63 369.74 C447.19 278.27, 522.81 189.57, 653.05 48.15 M374.44 367.85 C471.23 254.63, 568.38 143.18, 652.43 49.92 M378.65 368.90 C476.87 258.94, 568.91 149.66, 653.60 54.85 M378.93 368.77 C483.81 246.04, 589.82 123.10, 652.99 54.03 M383.16 368.36 C467.36 270.83, 550.82 179.12, 654.65 57.55 M382.67 370.72 C472.31 265.88, 562.19 162.57, 653.96 58.63 M388.12 371.33 C474.49 267.39, 565.28 161.26, 658.64 61.21 M388.46 371.13 C452.54 298.34, 515.99 225.84, 657.58 60.26 M390.87 373.61 C491.88 257.75, 592.77 141.78, 658.54 66.75 M390.98 373.05 C481.20 270.04, 569.60 167.08, 658.59 64.37 M394.46 371.75 C462.63 295.41, 524.76 220.71, 663.59 68.41 M397.09 374.05 C499.93 254.31, 602.90 135.83, 662.12 68.15 M400.08 373.75 C473.32 292.02, 543.63 210.93, 662.46 72.40 M400.15 373.71 C479.25 288.82, 558.05 199.46, 663.44 72.22 M402.78 375.85 C492.78 269.51, 582.14 169.38, 663.34 76.77 M404.84 376.40 C477.35 291.24, 552.01 205.97, 665.72 77.02 M407.92 376.06 C508.79 265.31, 603.85 157.05, 667.61 78.59 M409.65 377.47 C490.54 279.85, 571.71 185.10, 667.52 79.72 M412.82 376.70 C498.25 276.16, 587.93 175.98, 670.48 86.73 M413.69 378.02 C507.48 272.65, 599.43 166.91, 669.53 85.05 M415.94 379.68 C495.93 287.34, 579.33 192.82, 671.79 87.26 M417.37 379.08 C515.35 267.56, 611.38 158.66, 671.81 87.87 M420.88 379.71 C488.50 308.66, 548.13 238.41, 673.49 91.22 M422.50 380.33 C498.68 289.80, 580.01 197.82, 672.60 91.01 M426.88 380.78 C505.87 289.54, 585.24 200.22, 675.65 97.24 M426.80 382.62 C513.87 275.72, 603.59 172.71, 674.83 96.88 M432.89 382.71 C486.87 318.77, 542.87 253.41, 674.14 100.26 M430.42 383.03 C480.57 324.88, 530.79 268.68, 676.66 100.63 M436.60 383.61 C488.70 316.60, 544.72 258.43, 675.29 105.18 M438.49 380.51 C521.26 281.14, 605.99 182.53, 676.00 106.81 M443.21 380.81 C494.44 323.39, 546.08 261.74, 679.51 111.25 M441.08 382.72 C491.73 329.00, 540.64 270.74, 678.58 109.87 M446.14 380.16 C501.02 322.41, 549.65 265.37, 677.00 114.14 M446.93 380.21 C516.30 297.18, 588.01 214.88, 677.96 116.55 M452.77 382.29 C528.70 293.79, 608.72 204.08, 681.98 122.87 M452.43 381.77 C530.74 291.20, 612.78 199.38, 680.13 121.05 M457.81 379.97 C501.87 323.45, 548.79 271.59, 682.55 123.70 M458.84 381.93 C524.80 305.20, 590.37 227.44, 680.84 125.85 M466.91 379.21 C515.39 319.52, 569.60 261.75, 684.43 129.31 M463.73 380.57 C539.37 297.54, 612.25 213.67, 681.22 129.25 M469.11 381.35 C558.77 284.44, 641.09 186.56, 683.58 135.82 M469.28 379.90 C528.68 311.35, 586.61 242.66, 683.62 135.68 M477.80 379.82 C546.89 294.19, 619.30 210.83, 683.48 139.73 M475.25 378.84 C536.06 314.64, 595.79 249.53, 684.90 139.70 M480.22 376.09 C545.21 304.82, 604.19 235.68, 686.55 142.92 M483.80 376.38 C547.09 297.37, 616.12 216.96, 684.11 145.32 M487.61 373.19 C559.96 297.89, 629.55 219.62, 685.99 149.16 M490.57 376.18 C535.75 324.17, 583.56 268.38, 687.61 151.19 M496.85 373.50 C567.74 289.23, 637.00 209.73, 688.36 153.47 M496.44 372.99 C539.61 329.46, 578.07 284.42, 686.07 155.71 M503.22 376.03 C555.42 321.45, 605.01 259.54, 683.82 162.35 M501.20 372.44 C561.12 303.55, 623.94 233.32, 686.90 163.50 M509.00 373.08 C553.06 316.75, 604.96 259.58, 684.94 167.63 M509.54 371.46 C576.25 293.10, 640.33 217.67, 685.62 167.13 M513.95 368.07 C576.13 295.57, 636.97 226.19, 686.72 173.19 M515.72 370.19 C572.15 302.63, 628.60 239.33, 687.29 175.02 M520.43 370.91 C571.08 317.70, 615.64 258.43, 686.33 183.91 M522.52 369.34 C577.02 308.10, 632.42 243.49, 684.60 179.68 M530.12 366.68 C562.28 321.82, 602.15 281.83, 686.70 188.81 M528.18 368.03 C567.34 326.67, 603.06 288.16, 685.14 185.84 M537.12 368.06 C585.76 308.50, 637.31 255.86, 684.57 196.05 M535.27 366.74 C568.01 328.81, 604.26 287.60, 684.03 194.62 M543.23 363.14 C588.13 315.40, 636.08 264.89, 687.52 201.01 M540.97 365.74 C593.96 307.67, 646.42 247.55, 685.45 200.75 M546.62 358.37 C576.25 333.87, 609.39 298.65, 689.08 205.23 M551.48 361.94 C583.68 326.34, 611.87 292.89, 686.60 204.30 M556.95 354.33 C585.63 323.04, 616.34 288.79, 683.03 216.64 M560.00 357.97 C583.59 327.96, 607.13 300.47, 682.13 215.40 M565.22 354.19 C610.26 305.27, 649.97 252.49, 681.98 227.29 M568.79 350.35 C599.43 317.51, 626.75 289.14, 679.28 226.12 M578.32 344.35 C614.80 308.69, 639.58 275.57, 676.61 235.85 M580.56 347.19 C608.59 316.51, 635.60 285.71, 672.06 235.51 M590.64 339.39 C617.94 306.05, 648.56 274.01, 672.62 251.48 M591.09 338.60 C608.61 317.87, 625.43 299.96, 668.63 248.08 M615.71 317.29 C631.77 297.73, 649.40 276.96, 669.33 254.87 M617.71 314.67 C635.09 296.22, 650.70 279.03, 666.77 258.64" fill="#faf7ef" stroke="none"/><path d="M387.83 -41.58 C404.72 -49.53, 427.36 -48.80, 446.82 -49.21 C466.28 -49.62, 485.62 -48.43, 504.56 -44.04 C523.51 -39.65, 543.20 -31.38, 560.50 -22.88 C577.79 -14.37, 593.70 -4.71, 608.33 6.98 C622.96 18.67, 637.49 32.62, 648.27 47.26 C659.04 61.89, 667.03 78.05, 672.97 94.78 C678.92 111.52, 682.26 129.58, 683.93 147.69 C685.61 165.79, 686.36 185.44, 683.01 203.39 C679.67 221.34, 672.32 239.29, 663.87 255.38 C655.42 271.47, 644.53 286.15, 632.29 299.94 C620.05 313.74, 606.01 327.35, 590.42 338.16 C574.83 348.97, 556.69 358.37, 538.78 364.80 C520.86 371.24, 502.17 374.19, 482.93 376.78 C463.69 379.37, 442.96 382.30, 423.36 380.34 C403.76 378.38, 383.26 371.90, 365.31 365.02 C347.36 358.15, 331.42 349.29, 315.65 339.11 C299.87 328.93, 283.43 317.37, 270.66 303.92 C257.89 290.48, 247.43 274.63, 239.05 258.45 C230.66 242.26, 224.29 224.36, 220.37 206.82 C216.46 189.28, 214.54 171.03, 215.55 153.22 C216.55 135.41, 221.13 116.96, 226.41 99.97 C231.70 82.98, 237.02 66.39, 247.24 51.27 C257.46 36.15, 273.45 21.60, 287.72 9.23 C302.00 -3.14, 300.53 -13.57, 332.90 -22.95 C365.27 -32.34, 443.19 -48.02, 481.93 -47.07 C520.68 -46.13, 565.93 -20.99, 565.36 -17.30 M573.95 -17.51 C592.62 -11.35, 608.64 2.31, 622.17 14.86 C635.71 27.40, 645.95 42.14, 655.16 57.76 C664.36 73.38, 672.00 90.70, 677.41 108.57 C682.83 126.43, 687.09 146.88, 687.62 164.93 C688.16 182.98, 685.47 200.31, 680.62 216.87 C675.77 233.42, 668.23 248.41, 658.50 264.27 C648.77 280.13, 635.08 298.69, 622.26 312.02 C609.44 325.36, 597.73 335.18, 581.57 344.28 C565.41 353.38, 544.35 360.60, 525.32 366.62 C506.29 372.64, 486.97 378.95, 467.39 380.42 C447.82 381.88, 427.01 379.01, 407.89 375.41 C388.76 371.81, 369.94 365.66, 352.63 358.82 C335.32 351.99, 319.42 345.27, 304.01 334.37 C288.61 323.48, 272.04 307.77, 260.21 293.45 C248.39 279.12, 240.65 264.57, 233.08 248.42 C225.50 232.27, 217.20 214.45, 214.75 196.55 C212.30 178.65, 216.45 159.03, 218.40 141.01 C220.34 122.98, 219.57 105.13, 226.42 88.38 C233.26 71.64, 248.10 55.50, 259.44 40.52 C270.78 25.54, 279.78 9.67, 294.46 -1.50 C309.14 -12.66, 329.03 -19.58, 347.52 -26.45 C366.00 -33.32, 386.72 -39.16, 405.39 -42.72 C424.06 -46.28, 440.23 -47.90, 459.53 -47.80 C478.84 -47.71, 501.75 -46.89, 521.21 -42.15 C540.67 -37.42, 567.74 -23.93, 576.29 -19.41 C584.83 -14.88, 575.43 -18.68, 572.48 -14.98" fill="none" stroke="#202020" stroke-width="2" stroke-linecap="round" stroke-linejoin="round"/><path d="M489.87 63.43 C500.80 66.97, 514.16 76.78, 522.38 86.68 C530.59 96.58, 535.14 110.07, 539.17 122.82 C543.19 135.57, 546.34 149.65, 546.54 163.20 C546.74 176.75, 544.06 191.59, 540.37 204.12 C536.68 216.66, 531.76 228.78, 524.41 238.42 C517.06 248.05, 506.61 255.71, 496.25 261.94 C485.88 268.18, 473.76 274.32, 462.24 275.81 C450.72 277.30, 438.82 274.60, 427.13 270.89 C415.45 267.18, 402.30 260.81, 392.11 253.53 C381.92 246.25, 372.16 238.03, 365.98 227.23 C359.79 216.42, 357.16 201.82, 354.99 188.72 C352.82 175.63, 351.56 161.70, 352.97 148.65 C354.38 135.61, 357.24 122.01, 363.46 110.45 C369.68 98.90, 380.40 87.77, 390.28 79.31 C400.17 70.86, 411.41 63.56, 422.78 59.70 C434.14 55.84, 444.25 53.31, 458.46 56.16 C472.66 59.01, 497.47 70.31, 507.99 76.78 C518.51 83.25, 522.34 93.36, 521.57 94.98 M374.72 88.74 C381.35 77.69, 394.73 69.15, 405.75 63.62 C416.77 58.10, 428.51 56.02, 440.86 55.59 C453.21 55.16, 468.81 57.93, 479.85 61.06 C490.90 64.20, 498.09 66.58, 507.13 74.40 C516.17 82.23, 527.57 95.99, 534.10 108.02 C540.62 120.04, 543.76 133.53, 546.28 146.57 C548.81 159.60, 551.33 173.15, 549.23 186.21 C547.13 199.27, 540.46 213.41, 533.70 224.94 C526.94 236.46, 517.95 247.43, 508.67 255.37 C499.39 263.31, 489.54 268.86, 478.00 272.56 C466.46 276.25, 451.37 278.66, 439.42 277.53 C427.46 276.39, 416.82 271.98, 406.28 265.73 C395.74 259.47, 383.90 249.60, 376.17 239.98 C368.44 230.36, 363.73 220.33, 359.92 208.02 C356.12 195.70, 353.98 180.09, 353.34 166.09 C352.70 152.08, 351.96 136.67, 356.07 123.99 C360.17 111.31, 374.13 95.53, 377.99 90.00 C381.85 84.46, 378.54 89.15, 379.22 90.79" fill="#faf7ef" stroke="none"/><path d="M529.91 102.45 C537.36 111.75, 541.53 124.82, 544.19 137.31 C546.85 149.80, 547.34 163.95, 545.88 177.40 C544.43 190.85, 540.88 206.03, 535.47 217.99 C530.06 229.95, 521.92 240.84, 513.42 249.16 C504.91 257.49, 495.58 263.26, 484.42 267.95 C473.27 272.64, 458.49 277.39, 446.46 277.32 C434.43 277.24, 423.14 272.77, 412.23 267.49 C401.33 262.22, 389.68 254.88, 381.04 245.67 C372.39 236.47, 364.94 224.46, 360.35 212.27 C355.77 200.08, 354.31 185.81, 353.52 172.52 C352.73 159.22, 352.49 145.61, 355.63 132.52 C358.77 119.44, 365.05 104.30, 372.34 94.01 C379.63 83.72, 388.84 77.28, 399.37 70.79 C409.90 64.30, 423.89 57.40, 435.52 55.08 C447.15 52.76, 457.59 54.12, 469.16 56.87 C480.73 59.61, 493.63 62.54, 504.94 71.57 C516.26 80.60, 531.39 102.80, 537.03 111.04 C542.67 119.28, 540.75 120.47, 538.76 121.01 M475.10 56.85 C485.42 58.15, 495.99 65.78, 506.10 73.48 C516.21 81.18, 528.98 91.82, 535.76 103.05 C542.53 114.28, 545.29 126.93, 546.73 140.86 C548.17 154.78, 546.19 172.83, 544.41 186.60 C542.62 200.36, 541.52 212.52, 536.01 223.45 C530.51 234.38, 520.87 243.69, 511.40 252.19 C501.93 260.69, 491.15 270.48, 479.19 274.45 C467.22 278.42, 451.51 277.43, 439.60 275.99 C427.69 274.55, 418.21 271.93, 407.74 265.82 C397.27 259.71, 385.16 249.83, 376.79 239.34 C368.42 228.85, 361.68 215.43, 357.54 202.89 C353.40 190.36, 351.57 176.64, 351.94 164.15 C352.32 151.66, 355.69 140.17, 359.77 127.96 C363.85 115.74, 368.60 101.53, 376.44 90.88 C384.29 80.23, 396.52 70.50, 406.86 64.03 C417.21 57.56, 427.01 53.53, 438.54 52.07 C450.08 50.62, 469.88 53.97, 476.08 55.28 C482.28 56.59, 475.97 57.74, 475.73 59.93" fill="none" stroke="#202020" stroke-width="2" stroke-linecap="round" stroke-linejoin="round"/><path d="M658.39 -42.95 C684.52 -69.75, 716.93 -100.12, 737.97 -124.76 M655.39 -41.02 C675.07 -59.30, 695.87 -80.64, 736.82 -119.79" fill="none" stroke="#202020" stroke-width="2" stroke-linecap="round" stroke-linejoin="round"/><path d="M656.01 374.29 C680.62 395.51, 706.87 420.88, 736.07 450.33 M656.45 370.37 C688.42 402.02, 720.80 430.24, 735.90 450.32" fill="none" stroke="#202020" stroke-width="2" stroke-linecap="round" stroke-linejoin="round"/><path d="M244.56 368.96 C219.78 397.91, 194.26 420.64, 164.11 454.90 M242.66 372.67 C218.33 401.00, 192.17 424.29, 165.09 450.14" fill="none" stroke="#202020" stroke-width="2" stroke-linecap="round" stroke-linejoin="round"/><path d="M242.92 -39.99 C210.91 -66.30, 183.52 -94.12, 164.98 -122.40 M243.09 -40.71 C220.03 -67.03, 195.41 -90.59, 163.53 -121.52" fill="none" stroke="#202020" stroke-width="2" stroke-linecap="round" stroke-linejoin="round"/></svg>