<svg xmlns="http://www.w3.org/2000/svg" viewBox="0 0 960 420" width="960" height="420"><path d="M338.44 132.55 C338.44 132.55, 338.44 132.55, 338.44 132.55 M338.44 132.55 C338.44 132.55, 338.44 132.55, 338.44 132.55 M330.84 140.51 C341.80 133.25, 353.79 118.28, 381.61 85.31 M332.95 142.66 C347.78 128.50, 362.50 110.81, 381.19 87.22 M332.40 151.69 C351.09 127.81, 382.45 101.88, 392.33 80.41 M331.04 156.25 C350.87 131.45, 368.65 108.65, 394.46 80.32 M325.98 162.52 C357.23 130.36, 387.82 99.31, 411.33 68.98 M326.17 165.01 C357.05 131.11, 388.44 91.74, 408.72 70.75 M323.33 173.05 C344.77 154.57, 363.15 130.58, 417.44 65.29 M322.19 176.12 C359.22 129.67, 397.33 86.62, 417.91 65.49 M323.84 186.61 C356.33 133.14, 400.71 86.94, 423.12 61.50 M319.80 183.84 C363.38 134.47, 403.02 88.87, 425.44 63.99 M316.62 193.53 C352.46 158.76, 381.50 119.39, 432.53 58.69 M318.67 193.05 C356.30 148.91, 392.06 106.91, 431.41 59.91 M317.43 197.39 C350.20 163.40, 390.88 122.68, 440.17 57.57 M320.14 197.42 C361.72 145.46, 410.14 93.88, 440.61 58.36 M318.27 206.26 C368.99 150.91, 414.63 97.35, 449.33 58.21 M319.76 203.19 C355.03 163.77, 392.79 120.84, 448.54 57.99 M317.18 209.22 C365.70 160.88, 409.41 102.62, 451.31 51.73 M316.39 212.38 C368.38 150.75, 422.41 87.64, 454.45 54.53 M318.66 221.09 C347.59 188.46, 373.93 150.20, 463.46 51.27 M314.63 219.79 C365.62 163.38, 413.28 107.55, 462.28 51.19 M316.93 226.81 C367.57 168.10, 420.46 105.95, 466.63 47.68 M314.53 226.93 C373.83 161.31, 431.55 96.41, 469.39 49.22 M315.91 230.34 C363.53 171.89, 413.97 110.12, 474.69 49.92 M315.94 232.78 C361.37 180.10, 404.28 129.69, 472.09 49.50 M311.51 241.07 C365.42 180.97, 415.59 124.85, 476.10 49.25 M314.50 238.01 C354.96 191.12, 394.00 143.18, 478.23 51.49 M315.11 244.90 C373.65 183.93, 422.30 125.10, 485.40 51.66 M316.56 244.31 C383.40 166.25, 450.00 91.21, 482.77 51.90 M313.76 250.80 C352.43 211.20, 387.17 169.26, 486.07 53.98 M315.89 248.70 C379.20 177.21, 440.95 104.86, 487.53 51.39 M320.19 252.25 C376.74 178.57, 438.88 111.30, 491.52 53.12 M317.66 252.88 C352.06 208.17, 390.19 164.88, 493.63 51.38 M321.50 259.25 C361.35 211.61, 403.66 163.41, 499.11 49.92 M319.23 258.42 C380.15 186.15, 442.30 114.71, 498.17 51.58 M319.64 263.48 C357.58 216.14, 395.69 169.89, 506.02 49.98 M320.35 263.31 C370.68 202.99, 424.34 141.40, 504.05 54.44 M317.96 268.05 C360.06 226.51, 403.44 177.81, 505.11 50.87 M319.94 268.97 C359.23 221.36, 401.59 175.58, 508.17 52.79 M322.83 276.07 C365.33 224.95, 403.61 173.47, 512.74 54.62 M321.77 273.22 C378.81 207.80, 434.01 142.26, 512.73 54.10 M322.33 276.10 C381.95 216.85, 432.74 155.77, 515.30 53.14 M322.82 279.93 C363.66 232.30, 405.01 180.91, 517.52 54.29 M325.99 286.04 C373.74 223.71, 427.76 160.31, 519.51 58.38 M323.14 284.52 C367.22 232.31, 413.84 180.11, 521.23 57.71 M322.22 288.14 C397.85 202.24, 466.99 123.42, 524.11 59.91 M323.38 287.84 C393.10 201.92, 466.17 119.14, 524.90 59.61 M326.00 290.02 C395.73 215.09, 461.72 134.11, 530.03 59.88 M324.94 293.14 C373.17 239.66, 420.60 185.11, 528.27 59.31 M325.40 298.16 C407.29 201.51, 490.83 112.16, 534.65 63.21 M327.47 297.10 C384.22 236.57, 438.07 173.18, 532.64 60.19 M326.89 302.56 C381.32 250.66, 426.14 193.60, 538.81 65.16 M330.50 301.39 C382.11 245.20, 431.85 186.23, 537.96 61.80 M332.81 303.82 C396.60 230.31, 463.94 151.51, 539.31 64.57 M331.37 305.64 C395.37 228.13, 461.25 150.98, 540.64 62.56 M333.10 307.91 C408.98 223.54, 479.60 138.63, 542.52 63.20 M332.61 309.98 C400.28 231.38, 465.50 155.68, 545.52 65.06 M334.15 312.95 C410.46 229.86, 488.32 144.36, 549.56 68.43 M335.99 314.81 C379.86 263.82, 425.54 213.22, 550.44 65.63 M336.18 315.48 C418.07 224.14, 498.86 132.26, 554.17 70.12 M337.20 317.78 C406.59 239.95, 474.16 161.65, 552.53 69.31 M341.10 318.65 C414.42 235.57, 484.97 155.57, 557.69 69.83 M339.82 321.87 C418.23 228.85, 496.94 140.58, 556.52 70.29 M339.70 325.14 C418.64 239.78, 494.56 147.66, 562.92 70.17 M340.68 324.08 C388.32 270.65, 433.94 218.70, 559.82 72.10 M343.98 326.89 C391.54 272.53, 435.04 217.94, 562.10 71.93 M342.56 328.03 C410.61 256.58, 476.23 180.41, 563.90 73.61 M346.13 333.04 C407.95 264.85, 469.37 191.44, 568.01 78.66 M344.15 332.49 C405.40 265.60, 467.55 194.34, 568.12 76.59 M346.26 338.88 C430.84 234.14, 520.92 135.90, 568.77 81.19 M344.67 336.81 C426.85 246.84, 508.10 153.74, 570.58 80.06 M346.43 341.30 C403.19 276.10, 454.84 216.29, 571.13 83.46 M347.18 340.42 C417.97 257.44, 489.67 175.18, 574.25 81.69 M350.05 343.83 C411.25 278.46, 464.64 217.75, 575.68 84.55 M350.97 343.78 C398.72 286.25, 451.63 227.64, 576.59 84.73 M353.57 348.85 C417.31 271.60, 478.97 204.85, 581.18 86.08 M352.21 346.87 C407.00 283.83, 463.22 221.20, 580.16 86.04 M355.70 347.82 C417.69 276.15, 479.59 204.80, 583.02 91.47 M355.40 350.49 C430.59 263.09, 504.39 178.10, 582.25 88.55 M359.51 353.91 C423.10 283.91, 479.31 217.67, 584.22 93.56 M359.07 351.36 C428.72 277.42, 497.06 201.11, 585.62 91.33 M361.66 356.87 C439.98 264.28, 520.81 173.29, 588.08 95.48 M361.20 355.72 C413.49 300.79, 458.90 246.21, 587.71 93.29 M366.69 358.69 C429.93 287.61, 488.46 213.38, 591.43 94.83 M364.74 358.04 C446.78 266.23, 527.26 173.31, 591.31 97.01 M370.33 362.49 C445.28 275.42, 519.30 188.24, 596.77 98.36 M367.91 359.06 C432.75 289.25, 492.66 220.39, 595.92 100.32 M371.56 366.02 C420.24 305.20, 476.92 245.96, 598.44 100.45 M370.64 363.26 C423.03 301.46, 479.92 240.55, 596.78 102.34 M371.28 364.38 C447.49 283.31, 520.16 196.86, 602.48 106.36 M374.50 367.33 C434.01 294.27, 495.68 224.28, 601.29 105.26 M378.86 367.24 C428.87 307.53, 477.83 249.98, 601.16 109.04 M376.60 368.08 C445.19 291.38, 513.14 212.12, 602.85 109.15 M377.65 371.81 C465.20 276.64, 551.32 178.32, 604.05 112.74 M379.73 371.74 C439.31 304.06, 496.40 236.92, 604.91 111.71 M380.92 372.97 C439.31 310.44, 493.80 243.35, 609.54 115.07 M383.83 374.90 C427.93 320.18, 476.15 265.71, 607.43 114.87 M385.55 374.61 C444.16 311.90, 500.32 248.00, 608.26 121.17 M385.56 377.01 C458.97 297.79, 530.02 216.22, 608.59 118.48 M392.20 376.69 C455.64 299.35, 518.88 227.45, 613.32 121.88 M388.68 379.70 C463.81 294.72, 537.87 211.34, 612.20 123.30 M391.35 381.44 C471.54 286.43, 550.24 196.88, 616.44 125.25 M391.60 381.22 C470.43 289.89, 550.23 197.11, 614.82 126.37 M396.76 380.45 C475.74 285.06, 560.79 187.90, 614.44 128.56 M395.49 382.02 C478.59 293.98, 557.49 202.45, 617.44 129.02 M400.48 385.29 C466.48 309.74, 535.87 226.64, 621.70 134.01 M400.22 385.96 C446.31 335.10, 490.00 284.23, 618.07 132.96 M403.27 387.55 C461.94 323.97, 517.44 256.30, 620.84 135.71 M402.08 388.68 C456.74 320.78, 513.58 255.84, 622.15 135.31 M407.34 390.61 C481.58 304.52, 557.93 215.34, 623.07 140.59 M407.02 391.09 C455.52 334.13, 503.40 279.24, 624.67 140.48 M410.41 392.68 C479.58 303.64, 557.79 220.25, 626.23 146.37 M409.55 390.62 C487.64 299.53, 565.91 207.82, 626.01 143.47 M413.03 396.24 C496.55 304.92, 574.32 209.83, 628.82 148.59 M412.19 394.87 C469.44 327.23, 529.17 261.21, 627.36 148.03 M414.64 398.58 C469.93 341.44, 521.77 279.53, 630.10 153.45 M416.98 395.60 C493.71 307.76, 570.49 218.00, 629.55 151.07 M418.39 401.02 C499.40 307.75, 579.34 214.13, 632.89 156.75 M419.99 399.81 C503.11 298.57, 588.52 201.30, 630.56 156.39 M425.00 403.05 C468.39 349.92, 511.43 295.97, 633.05 158.92 M422.14 400.25 C489.66 326.79, 555.81 250.27, 631.33 161.46 M429.29 402.50 C502.91 318.63, 576.41 235.35, 632.40 167.54 M427.66 403.10 C487.03 330.58, 548.90 259.35, 632.60 165.31 M429.86 405.03 C475.83 351.62, 518.65 303.71, 636.67 170.36 M432.89 404.27 C508.17 316.35, 582.03 230.18, 633.55 169.02 M436.12 406.68 C511.71 314.74, 591.29 227.87, 633.04 177.16 M435.91 404.07 C483.97 351.37, 530.38 298.02, 635.79 175.04 M438.14 403.42 C503.29 334.37, 566.42 262.98, 637.52 178.14 M439.75 405.56 C499.31 332.94, 559.77 263.51, 637.39 180.31 M442.19 406.48 C502.18 336.62, 563.99 267.93, 639.38 181.54 M445.70 407.67 C493.04 347.85, 545.88 287.96, 639.17 183.22 M447.70 407.34 C507.05 337.62, 570.52 260.57, 641.03 186.26 M449.08 407.43 C518.43 326.67, 590.81 244.99, 638.28 188.34 M456.86 409.06 C508.35 347.39, 566.72 280.11, 641.62 195.65 M454.47 407.79 C508.11 346.30, 557.82 285.35, 641.53 194.26 M456.15 411.47 C521.13 337.10, 584.02 264.29, 639.37 198.39 M457.42 408.25 C505.90 352.64, 554.18 294.93, 643.50 196.40 M461.68 409.15 C530.28 327.53, 600.93 249.26, 641.97 205.96 M461.96 409.19 C514.59 351.93, 562.45 295.97, 643.73 202.77 M470.09 412.06 C516.24 355.46, 562.35 297.99, 641.62 211.09 M468.63 412.18 C536.15 331.37, 606.58 252.78, 642.36 208.65 M472.89 411.85 C525.16 352.96, 579.35 291.82, 641.20 213.40 M470.51 413.23 C532.62 341.17, 595.45 269.16, 641.97 216.49 M480.71 408.33 C540.27 337.61, 601.32 263.06, 643.49 219.04 M478.91 412.11 C532.39 352.94, 582.49 292.14, 643.46 223.00 M483.77 412.49 C538.57 345.98, 592.03 283.28, 643.71 230.70 M483.16 410.02 C523.38 366.78, 560.08 324.87, 643.67 227.54 M487.10 411.11 C525.75 367.95, 561.33 326.77, 642.61 230.53 M490.24 408.44 C520.12 371.74, 550.33 337.61, 643.22 233.08 M494.76 411.58 C547.52 353.38, 593.47 297.74, 645.79 240.53 M496.13 407.62 C539.15 361.14, 583.84 313.61, 641.97 239.27 M500.39 409.85 C544.56 359.28, 585.06 307.69, 641.90 244.97 M501.12 408.60 C559.34 344.03, 613.75 281.11, 643.15 244.39 M507.08 407.09 C535.55 373.49, 564.89 340.05, 644.05 252.18 M506.49 408.15 C548.98 356.54, 592.45 303.94, 641.71 251.22 M514.69 402.63 C548.76 367.97, 584.55 331.61, 639.13 260.42 M513.67 406.60 C549.00 371.05, 579.77 332.88, 640.40 260.48 M521.15 405.71 C543.59 374.10, 570.18 343.58, 640.13 264.90 M520.65 404.61 C544.50 375.28, 567.36 345.90, 642.32 265.33 M524.54 405.14 C561.78 364.49, 594.47 327.80, 635.19 275.65 M527.78 401.50 C571.42 350.76, 615.28 303.54, 640.05 273.08 M535.19 398.44 C559.52 373.94, 578.95 345.90, 637.54 282.48 M536.61 396.82 C561.68 369.97, 582.89 344.78, 637.40 281.12 M547.75 394.64 C572.17 359.21, 600.64 331.51, 632.69 287.15 M543.72 393.77 C579.05 354.53, 609.55 316.94, 638.22 290.84 M552.98 387.37 C586.13 353.62, 613.75 324.62, 638.56 299.83 M553.60 390.18 C585.92 355.17, 615.65 317.25, 633.05 296.43 M559.18 382.86 C587.89 357.29, 607.97 330.86, 631.39 306.79 M564.63 386.81 C592.23 357.75, 619.04 325.44, 629.70 311.13 M583.88 365.88 C591.89 361.55, 602.40 352.05, 617.14 336.48 M584.56 366.63 C590.04 356.91, 597.01 352.33, 614.65 333.87" fill="#faf7ef" stroke="none"/><path d="M372.78 94.52 C383.13 81.35, 399.58 73.58, 414.84 66.14 C430.10 58.71, 448.31 52.00, 464.36 49.93 C480.40 47.86, 495.25 50.33, 511.10 53.72 C526.95 57.11, 544.95 62.14, 559.47 70.26 C573.98 78.38, 586.81 89.74, 598.20 102.45 C609.58 115.16, 620.52 130.74, 627.80 146.52 C635.08 162.31, 639.42 179.74, 641.86 197.14 C644.30 214.54, 643.88 233.30, 642.43 250.93 C640.99 268.56, 639.72 286.46, 633.17 302.93 C626.61 319.39, 614.44 336.02, 603.10 349.73 C591.75 363.43, 578.47 375.98, 565.11 385.14 C551.76 394.29, 538.51 400.27, 522.97 404.67 C507.42 409.07, 488.33 412.04, 471.87 411.54 C455.41 411.03, 439.07 407.88, 424.21 401.66 C409.35 395.43, 395.79 384.60, 382.72 374.19 C369.65 363.78, 355.52 353.36, 345.80 339.18 C336.07 325.00, 329.67 306.43, 324.38 289.10 C319.08 271.78, 314.90 253.05, 314.04 235.23 C313.19 217.41, 315.14 199.37, 319.26 182.20 C323.38 165.02, 325.61 149.91, 338.76 132.18 C351.91 114.45, 383.48 87.43, 398.17 75.81 C412.86 64.19, 425.41 59.86, 426.88 62.47 M593.95 102.92 C606.28 112.42, 614.32 127.36, 622.57 142.94 C630.81 158.52, 639.86 179.05, 643.41 196.41 C646.96 213.76, 646.03 229.86, 643.85 247.07 C641.68 264.29, 636.76 283.52, 630.35 299.67 C623.93 315.82, 615.33 329.94, 605.36 343.97 C595.38 357.99, 583.98 373.31, 570.49 383.80 C557.00 394.28, 540.24 402.68, 524.42 406.90 C508.61 411.12, 491.28 409.60, 475.61 409.10 C459.95 408.59, 445.85 409.34, 430.43 403.87 C415.01 398.40, 397.20 386.70, 383.09 376.28 C368.98 365.86, 355.14 355.16, 345.78 341.33 C336.43 327.49, 332.08 310.05, 326.96 293.25 C321.84 276.46, 316.77 257.83, 315.08 240.56 C313.38 223.29, 312.56 207.20, 316.79 189.64 C321.02 172.08, 331.54 151.28, 340.45 135.20 C349.36 119.11, 358.91 105.02, 370.26 93.14 C381.61 81.26, 393.88 71.35, 408.54 63.92 C423.21 56.49, 441.61 50.75, 458.24 48.57 C474.88 46.39, 492.01 47.27, 508.36 50.83 C524.71 54.38, 541.66 61.97, 556.34 69.91 C571.02 77.86, 590.73 92.84, 596.46 98.50 C602.19 104.16, 592.39 101.05, 590.71 103.86" fill="none" stroke="#202020" stroke-width="2" stroke-linecap="round" stroke-linejoin="round"/><path d="M289.51 101.94 C289.51 101.94, 289.51 101.94, 289.51 101.94 M289.51 101.94 C289.51 101.94, 289.51 101.94, 289.51 101.94 M269.77 126.23 C289.91 106.24, 309.64 83.94, 328.48 60.91 M273.77 128.24 C298.34 101.51, 317.47 74.46, 332.34 62.40 M261.02 149.19 C284.63 116.15, 311.72 82.39, 340.17 55.74 M260.23 148.86 C292.39 110.66, 323.16 75.93, 342.87 53.76 M261.01 157.95 C280.23 130.26, 306.70 96.59, 354.00 50.61 M257.37 156.19 C294.73 113.98, 328.94 72.11, 350.77 47.56 M256.86 168.05 C285.64 129.71, 310.40 95.67, 358.60 46.24 M255.43 164.97 C280.72 134.14, 309.51 101.01, 361.64 41.30 M247.93 176.61 C293.37 126.15, 334.29 80.44, 379.84 29.27 M253.24 176.65 C289.07 138.62, 320.29 99.93, 377.78 30.52 M248.05 188.51 C295.03 137.73, 339.46 89.79, 387.75 26.63 M249.54 185.98 C291.96 137.68, 334.73 88.33, 385.40 28.14 M244.91 194.34 C292.29 139.60, 342.81 86.60, 389.46 29.76 M244.34 194.58 C283.77 150.91, 322.27 110.83, 392.59 27.07 M241.61 206.22 C286.71 149.97, 333.02 99.31, 395.95 26.95 M242.06 202.59 C289.66 152.99, 334.55 102.15, 397.30 25.03 M243.93 209.51 C276.76 171.17, 308.33 133.38, 408.05 22.25 M244.90 209.47 C289.21 160.37, 333.41 111.50, 404.25 24.68 M247.20 217.44 C289.95 168.85, 330.52 115.53, 412.02 24.00 M245.18 213.56 C307.79 143.50, 369.58 70.77, 412.13 20.81 M241.05 222.87 C306.46 145.27, 376.65 67.09, 420.23 17.02 M243.12 220.62 C282.29 183.22, 319.75 139.05, 420.40 20.29 M245.76 224.79 C287.92 175.02, 335.20 127.20, 423.12 20.10 M244.96 228.03 C293.78 171.34, 343.55 115.02, 426.72 17.41 M246.32 229.86 C286.80 184.40, 332.31 141.63, 435.00 16.30 M244.91 231.38 C282.93 185.81, 320.89 142.65, 432.88 16.48 M242.66 237.84 C293.83 173.52, 352.92 115.38, 438.58 12.90 M243.14 240.00 C314.16 159.87, 382.71 79.49, 439.60 14.86 M243.03 246.04 C292.67 196.45, 334.90 141.89, 445.49 16.65 M243.67 244.42 C311.70 166.73, 380.90 88.80, 445.42 15.36 M245.24 250.04 C291.40 198.71, 331.00 152.55, 451.00 12.15 M245.53 251.47 C317.67 167.76, 387.48 87.04, 449.58 16.28 M243.85 255.15 C300.35 195.72, 350.36 139.83, 453.75 13.86 M246.49 256.66 C303.61 193.84, 359.33 129.28, 456.73 14.11 M247.48 259.33 C323.06 172.41, 395.78 84.09, 459.45 16.76 M247.07 259.90 C329.48 164.92, 414.67 68.96, 459.92 15.02 M246.10 267.72 C316.92 188.04, 384.81 112.81, 468.52 15.33 M248.55 265.39 C297.34 209.70, 344.98 151.91, 466.60 13.13 M251.53 272.21 C335.92 169.13, 426.72 62.58, 473.11 14.04 M250.20 270.87 C317.63 194.79, 383.67 118.12, 472.96 12.73 M251.89 275.62 C319.68 202.31, 381.59 127.05, 477.01 14.12 M250.55 273.79 C324.93 186.55, 402.15 98.10, 478.78 11.64 M250.74 280.79 C312.70 203.99, 374.69 129.73, 483.50 12.91 M253.36 278.46 C311.87 211.52, 370.08 143.97, 484.72 11.57 M254.15 281.44 C323.28 208.52, 392.79 129.49, 488.04 13.78 M253.19 284.66 C313.08 211.38, 378.75 139.92, 490.46 11.09 M252.35 287.67 C342.45 185.39, 426.06 83.95, 494.33 11.39 M255.15 287.47 C333.90 192.13, 416.76 99.24, 495.01 12.09 M256.17 294.46 C315.62 222.78, 377.11 153.01, 499.33 8.97 M255.65 292.79 C315.79 221.80, 376.49 154.97, 500.03 10.40 M255.38 299.30 C346.94 198.75, 429.87 97.97, 507.45 14.12 M256.22 298.60 C333.67 212.03, 411.12 124.72, 505.29 11.78 M259.85 301.79 C348.57 197.64, 440.03 93.60, 509.94 11.71 M259.20 302.10 C339.22 214.13, 419.04 122.34, 510.77 11.66 M257.82 306.25 C348.24 207.50, 440.07 101.86, 515.34 14.42 M258.66 306.52 C312.62 241.65, 370.55 174.15, 514.22 13.14 M260.44 313.95 C313.64 252.63, 368.00 189.91, 517.85 15.82 M259.32 312.76 C320.38 239.79, 382.35 168.22, 519.24 13.20 M263.11 317.95 C333.51 239.91, 407.03 156.94, 523.86 13.54 M261.04 317.00 C358.72 205.90, 455.04 96.37, 523.82 16.19 M263.57 318.89 C352.52 219.08, 441.88 113.20, 529.78 14.01 M264.14 319.88 C358.04 209.86, 451.96 103.18, 529.66 16.75 M265.72 323.74 C355.91 225.35, 442.35 125.14, 532.89 17.61 M266.86 324.25 C343.68 233.54, 420.21 146.61, 533.74 17.25 M266.66 329.47 C364.80 219.69, 461.10 108.86, 540.09 15.68 M267.99 326.57 C370.74 213.94, 468.58 102.02, 537.67 16.70 M270.73 332.63 C320.49 263.75, 377.28 203.50, 542.86 19.14 M270.93 330.90 C330.75 256.72, 394.97 186.17, 541.61 19.08 M271.32 332.84 C330.82 266.54, 389.57 196.69, 549.32 19.32 M271.69 334.25 C378.36 218.53, 482.00 102.05, 548.01 18.84 M273.72 338.59 C349.89 253.21, 420.38 167.11, 553.28 17.99 M273.97 338.23 C341.79 260.06, 412.24 181.46, 551.63 19.73 M274.84 342.40 C335.94 276.88, 393.68 205.09, 555.66 21.15 M276.49 343.34 C346.13 263.46, 416.49 181.80, 555.55 20.21 M278.47 343.99 C368.51 246.98, 455.09 144.92, 560.42 22.86 M279.63 346.05 C349.67 264.44, 420.21 181.98, 558.75 22.71 M280.11 351.57 C371.42 242.78, 462.15 136.70, 562.11 23.95 M281.33 349.49 C357.21 260.24, 435.11 168.85, 562.65 25.47 M281.05 354.99 C341.86 284.11, 402.38 215.32, 568.82 26.69 M283.60 353.18 C382.05 234.99, 483.88 118.78, 566.86 27.21 M285.12 357.84 C371.20 258.07, 459.15 153.91, 570.61 29.43 M285.09 358.46 C377.21 247.29, 470.01 140.12, 569.85 28.48 M285.42 362.34 C369.02 269.03, 446.00 177.98, 574.47 30.92 M286.75 361.03 C379.66 254.42, 474.34 148.15, 574.10 30.31 M288.73 365.16 C396.96 237.30, 504.28 115.67, 578.28 33.73 M289.48 364.09 C349.69 294.54, 410.48 223.27, 578.79 31.25 M293.82 368.68 C390.92 256.68, 489.43 145.63, 581.04 33.86 M291.83 366.78 C367.09 275.51, 443.77 188.08, 582.59 34.22 M293.61 368.26 C371.58 286.46, 442.95 204.65, 584.09 33.94 M295.80 369.40 C406.02 239.42, 516.46 113.12, 586.41 36.15 M297.44 372.80 C372.72 285.40, 450.80 201.84, 590.55 36.70 M297.89 371.18 C413.32 235.93, 529.23 103.74, 590.00 36.94 M301.14 373.77 C382.14 284.71, 462.07 196.20, 591.92 41.40 M301.48 374.82 C411.31 243.26, 524.34 114.31, 593.75 39.13 M303.80 377.33 C392.43 274.87, 481.33 171.85, 597.31 39.72 M303.23 379.06 C379.99 289.55, 459.44 198.76, 595.54 41.91 M307.61 381.37 C380.35 299.46, 453.50 215.80, 598.63 44.12 M307.45 380.46 C371.08 307.57, 433.71 235.12, 600.05 42.73 M310.61 381.60 C414.68 262.62, 519.97 142.72, 602.42 44.65 M308.95 382.69 C375.55 310.47, 440.65 234.76, 604.04 45.21 M313.07 385.97 C375.00 316.94, 438.00 245.14, 608.99 48.60 M313.69 386.71 C394.90 290.66, 478.12 194.24, 607.35 47.03 M316.83 388.83 C413.60 276.31, 513.11 158.71, 611.11 50.86 M315.65 388.71 C415.55 272.23, 519.82 152.15, 611.35 48.46 M319.20 392.19 C419.50 281.53, 516.27 167.40, 612.75 53.22 M318.75 391.01 C405.08 294.38, 491.55 192.93, 615.02 51.91 M320.80 395.44 C399.99 302.99, 479.82 209.34, 617.71 53.84 M321.39 393.84 C408.85 292.70, 499.14 191.51, 616.78 54.29 M323.94 398.78 C386.17 328.63, 446.95 259.17, 621.73 54.81 M323.47 396.91 C407.85 300.99, 495.17 201.95, 621.30 55.87 M327.57 401.21 C397.26 320.36, 467.74 236.77, 624.53 60.38 M327.05 399.51 C408.74 304.03, 492.49 206.56, 623.79 58.95 M329.64 403.10 C437.38 281.59, 544.15 155.26, 626.84 59.94 M330.48 402.52 C428.45 292.96, 527.38 180.81, 626.42 61.17 M333.84 403.83 C449.22 271.29, 565.48 139.72, 631.16 64.74 M333.37 405.22 C402.99 323.98, 473.57 242.87, 629.65 63.27 M338.05 406.36 C423.45 310.93, 508.03 215.18, 634.73 65.53 M336.80 407.04 C407.13 324.67, 475.91 245.89, 633.07 66.61 M339.24 407.70 C419.66 322.24, 500.82 228.65, 636.02 67.12 M339.94 410.31 C418.73 316.99, 497.62 222.95, 636.61 68.65 M343.12 410.87 C444.41 297.74, 545.76 179.88, 641.53 68.58 M344.61 410.55 C414.72 327.64, 483.81 247.11, 640.60 71.24 M348.71 413.64 C463.14 274.31, 581.14 139.46, 645.07 72.20 M348.32 414.08 C418.87 332.79, 487.64 252.32, 644.15 73.35 M349.92 414.50 C417.62 338.64, 484.13 261.37, 645.98 75.30 M351.68 415.24 C413.63 343.83, 477.59 271.06, 646.48 76.54 M353.82 417.87 C456.09 299.90, 561.28 177.72, 649.13 76.13 M354.45 417.20 C435.03 329.38, 513.57 237.82, 650.08 77.97 M357.19 417.88 C430.27 335.72, 499.67 256.19, 654.19 80.58 M357.90 418.89 C439.46 322.68, 522.33 228.11, 653.73 80.59 M362.92 420.99 C445.15 316.88, 533.48 218.84, 654.54 82.98 M361.46 421.44 C463.61 308.71, 564.50 192.89, 655.95 83.60 M362.91 423.70 C432.50 343.56, 501.84 265.54, 659.96 84.18 M364.68 423.72 C438.24 340.11, 509.84 257.50, 658.13 85.80 M369.04 425.43 C447.32 334.68, 528.21 239.89, 663.08 89.88 M368.03 425.95 C443.30 338.95, 517.40 252.53, 661.38 87.84 M370.49 427.44 C470.80 315.46, 565.21 202.48, 663.09 92.24 M372.59 428.72 C443.93 345.73, 515.43 265.13, 664.49 92.37 M373.62 430.35 C462.79 332.85, 549.55 232.15, 664.19 96.20 M375.37 431.51 C467.79 320.00, 562.35 212.41, 665.29 96.08 M380.32 433.88 C473.49 325.86, 568.13 218.69, 668.35 98.73 M378.50 432.97 C490.86 307.77, 600.87 180.70, 668.98 99.24 M383.14 433.51 C487.93 306.56, 597.67 184.06, 672.44 101.38 M383.55 434.19 C461.57 346.70, 538.19 258.68, 672.33 101.73 M388.44 433.87 C450.02 364.91, 509.57 295.94, 673.54 103.33 M388.09 434.04 C447.44 365.95, 510.92 294.87, 674.56 104.20 M392.55 437.47 C458.45 356.60, 527.31 280.14, 674.61 106.63 M391.63 435.04 C501.45 311.08, 611.31 184.22, 676.44 107.98 M396.42 436.14 C475.97 341.83, 557.23 247.47, 679.94 111.60 M395.83 437.50 C467.16 352.04, 540.34 267.91, 678.21 111.67 M400.36 437.21 C467.14 358.35, 537.14 280.39, 682.31 114.23 M399.97 438.98 C503.23 322.16, 607.56 204.44, 681.47 113.94 M402.99 439.50 C473.76 358.74, 544.91 275.48, 684.57 117.42 M403.98 439.42 C509.75 316.54, 616.89 193.92, 684.60 118.63 M406.69 440.16 C502.38 326.71, 600.00 212.07, 688.14 122.88 M408.90 441.27 C477.91 360.12, 548.07 279.69, 686.02 120.59 M412.77 443.64 C518.14 325.78, 624.27 204.50, 687.58 122.66 M412.60 441.82 C506.41 334.45, 603.29 222.20, 687.68 123.31 M417.13 441.97 C496.70 352.33, 576.84 265.27, 688.53 126.59 M415.40 444.83 C489.77 365.18, 557.99 286.21, 690.83 127.87 M421.11 446.36 C517.03 337.30, 611.48 225.95, 692.87 132.60 M420.52 444.22 C529.32 319.05, 637.84 194.32, 693.16 132.70 M426.23 446.67 C514.98 345.60, 604.67 247.16, 692.33 133.98 M424.39 446.85 C487.90 370.96, 550.73 296.93, 694.80 135.73 M426.48 446.26 C533.14 328.00, 636.08 211.43, 694.58 142.31 M429.45 447.84 C501.93 360.34, 578.49 272.99, 697.10 139.50 M432.51 447.03 C537.31 329.02, 637.97 208.50, 699.61 142.08 M432.40 449.23 C530.96 333.12, 633.16 217.30, 698.01 144.90 M435.57 450.95 C516.13 363.59, 591.77 275.69, 700.70 148.68 M437.43 449.74 C510.53 366.21, 585.94 278.95, 700.35 149.30 M438.34 453.75 C536.56 339.16, 635.05 225.04, 699.32 153.63 M440.36 453.00 C534.56 339.09, 631.02 228.10, 700.94 152.63 M444.65 452.92 C517.99 365.21, 591.66 282.27, 701.61 153.98 M446.83 453.22 C520.52 367.69, 595.96 281.08, 704.14 154.91 M448.55 452.85 C527.39 360.84, 610.70 267.99, 704.08 162.20 M450.27 452.80 C504.00 392.16, 556.31 333.31, 705.04 159.25 M455.09 453.28 C525.26 374.18, 594.75 292.32, 705.70 163.21 M457.00 451.37 C513.07 386.53, 570.13 321.03, 706.13 163.51 M459.56 452.39 C512.71 391.38, 561.88 335.79, 708.52 168.07 M461.22 453.93 C553.34 345.35, 650.81 234.76, 709.39 168.86 M466.06 453.85 C540.71 364.09, 619.49 277.43, 710.31 171.17 M467.29 453.40 C525.73 384.40, 585.10 315.96, 709.61 171.27 M470.66 453.01 C538.07 380.85, 595.61 310.99, 713.54 174.49 M473.11 452.17 C537.82 376.16, 605.58 297.13, 712.23 176.97 M476.55 454.72 C551.59 366.63, 628.30 278.00, 713.64 180.35 M476.12 452.20 C536.19 379.61, 597.84 308.52, 712.91 181.83 M484.23 452.30 C539.35 388.73, 599.51 316.45, 712.74 186.13 M481.63 451.87 C576.69 351.30, 666.53 245.85, 715.19 185.85 M488.42 451.66 C571.10 354.92, 655.61 261.83, 716.82 192.89 M487.50 452.99 C544.79 379.08, 608.54 308.88, 714.46 191.46 M495.07 453.58 C536.95 399.23, 582.64 350.93, 718.04 196.75 M492.66 454.56 C574.56 359.80, 659.85 263.15, 716.46 197.04 M501.03 454.79 C568.66 373.92, 634.72 298.05, 717.85 203.52 M500.31 451.96 C575.81 361.67, 652.66 273.51, 716.84 200.62 M502.42 451.83 C590.45 353.55, 674.41 256.61, 719.33 206.69 M503.40 451.20 C552.06 395.99, 604.85 337.97, 717.33 206.67 M509.03 450.87 C575.46 381.66, 638.50 310.01, 717.33 214.86 M511.82 449.83 C563.91 385.93, 619.97 324.63, 718.87 211.45 M517.93 451.08 C582.57 375.23, 641.45 305.57, 720.94 218.69 M516.43 450.67 C560.93 398.93, 604.40 350.60, 718.86 217.97 M523.56 451.72 C598.25 359.52, 674.40 275.02, 717.42 223.28 M524.03 447.94 C568.41 398.06, 610.79 349.67, 720.80 223.81 M530.65 448.44 C574.21 395.18, 617.42 341.27, 720.99 227.44 M527.96 449.24 C605.32 361.33, 683.06 273.88, 721.58 229.11 M535.89 449.95 C586.33 384.05, 638.80 326.32, 718.44 232.25 M535.01 448.83 C604.58 362.23, 677.78 278.33, 722.56 233.02 M541.68 445.34 C584.42 394.10, 628.80 344.14, 718.69 241.45 M541.29 445.15 C592.06 391.14, 642.33 332.28, 720.39 241.59 M547.85 442.33 C591.96 394.53, 629.73 346.80, 718.35 250.09 M546.02 446.83 C588.38 394.41, 634.07 343.72, 720.20 249.95 M551.67 444.08 C596.84 393.51, 642.18 341.51, 718.58 254.11 M553.99 445.71 C598.14 398.72, 639.03 350.60, 716.84 256.63 M554.94 446.42 C601.32 401.99, 640.41 353.49, 718.40 264.75 M558.60 445.49 C617.14 380.64, 673.60 315.92, 715.78 265.56 M568.46 440.30 C603.58 393.98, 642.83 351.63, 711.34 273.41 M566.44 440.03 C612.75 388.37, 660.43 335.40, 714.90 273.62 M571.80 437.36 C618.97 386.63, 668.37 328.53, 711.78 278.83 M576.07 437.45 C614.55 395.65, 655.29 352.37, 712.17 280.29 M582.84 435.17 C618.70 394.94, 662.00 350.21, 714.05 289.03 M582.16 433.89 C608.24 401.05, 637.41 369.05, 713.44 285.68 M592.48 433.56 C628.55 388.03, 661.81 347.43, 708.20 294.85 M591.12 429.72 C632.07 385.30, 672.17 337.53, 707.89 297.17 M599.58 430.14 C642.92 382.82, 673.02 340.84, 704.79 307.44 M600.55 427.33 C634.63 390.07, 667.50 351.08, 704.80 308.49 M610.64 417.90 C631.29 403.78, 649.12 379.08, 701.28 322.50 M610.03 421.11 C646.33 380.30, 679.56 342.82, 699.54 321.30 M630.57 408.70 C651.15 383.90, 669.27 360.84, 697.49 331.59 M627.91 408.93 C643.61 389.88, 660.25 370.39, 693.52 331.21" fill="#faf7ef" stroke="none"/><path d="M654.06 80.45 C669.62 90.70, 677.55 107.44, 686.94 122.95 C696.33 138.47, 705.07 155.59, 710.39 173.55 C715.71 191.51, 719.19 212.13, 718.87 230.73 C718.56 249.34, 713.70 267.06, 708.51 285.18 C703.33 303.30, 696.79 323.20, 687.77 339.47 C678.75 355.75, 667.67 369.46, 654.40 382.82 C641.12 396.17, 624.64 409.61, 608.12 419.59 C591.59 429.57, 573.77 437.49, 555.24 442.69 C536.72 447.89, 516.57 449.50, 496.97 450.78 C477.36 452.06, 457.34 453.48, 437.63 450.35 C417.92 447.21, 396.88 440.08, 378.71 431.97 C360.53 423.86, 343.91 413.53, 328.56 401.69 C313.21 389.85, 298.22 375.93, 286.62 360.94 C275.02 345.95, 265.96 328.82, 258.98 311.76 C252.00 294.71, 247.45 276.72, 244.76 258.58 C242.06 240.45, 240.38 221.43, 242.82 202.96 C245.26 184.49, 251.57 164.66, 259.41 147.76 C267.24 130.86, 278.47 116.43, 289.83 101.57 C301.19 86.72, 313.07 70.61, 327.57 58.63 C342.06 46.65, 358.68 37.14, 376.83 29.68 C394.98 22.21, 416.84 17.15, 436.46 13.86 C456.09 10.57, 474.99 9.09, 494.58 9.93 C514.16 10.78, 535.46 13.09, 553.98 18.95 C572.51 24.82, 587.80 33.76, 605.74 45.14 C623.68 56.53, 651.93 77.96, 661.65 87.28 C671.37 96.60, 667.43 98.40, 664.05 101.07 M329.25 57.34 C340.60 43.07, 361.41 33.93, 379.74 25.98 C398.08 18.03, 419.84 12.27, 439.28 9.67 C458.71 7.07, 476.83 8.65, 496.37 10.38 C515.91 12.11, 537.56 14.18, 556.50 20.04 C575.44 25.89, 593.76 34.80, 610.00 45.51 C626.24 56.22, 640.42 71.19, 653.93 84.29 C667.44 97.39, 681.11 107.93, 691.03 124.13 C700.96 140.33, 709.27 163.12, 713.47 181.49 C717.67 199.87, 716.73 216.62, 716.22 234.38 C715.72 252.14, 715.04 270.04, 710.46 288.03 C705.88 306.02, 698.48 325.81, 688.74 342.32 C678.99 358.83, 665.76 373.63, 652.01 387.09 C638.25 400.54, 623.25 413.51, 606.21 423.05 C589.16 432.58, 568.91 439.80, 549.74 444.29 C530.57 448.79, 510.72 449.59, 491.18 450.04 C471.63 450.49, 451.36 449.98, 432.46 447.00 C413.56 444.02, 395.43 439.70, 377.78 432.16 C360.13 424.63, 342.30 413.66, 326.56 401.78 C310.82 389.89, 294.98 376.70, 283.33 360.84 C271.69 344.98, 262.89 323.92, 256.70 306.61 C250.52 289.31, 248.50 275.19, 246.23 257.02 C243.96 238.85, 240.50 216.47, 243.08 197.61 C245.66 178.75, 254.15 160.94, 261.71 143.86 C269.27 126.77, 276.82 109.12, 288.46 95.09 C300.11 81.06, 323.72 65.04, 331.60 59.69 C339.48 54.34, 333.52 60.81, 335.75 63.00" fill="none" stroke="#202020" stroke-width="2" stroke-linecap="round" stroke-linejoin="round"/><path d="M395.77 173.94 C400.84 162.32, 411.72 150.41, 421.53 142.43 C431.34 134.45, 442.90 128.72, 454.65 126.08 C466.40 123.44, 479.66 124.33, 492.03 126.58 C504.41 128.83, 517.88 133.46, 528.88 139.58 C539.88 145.71, 550.46 154.06, 558.03 163.32 C565.60 172.58, 570.13 183.55, 574.28 195.14 C578.43 206.74, 583.34 219.93, 582.94 232.89 C582.54 245.84, 576.94 261.04, 571.88 272.88 C566.82 284.71, 560.88 294.92, 552.57 303.90 C544.27 312.89, 533.34 321.46, 522.06 326.78 C510.79 332.10, 496.81 335.23, 484.93 335.81 C473.06 336.39, 462.31 334.28, 450.82 330.25 C439.34 326.22, 425.92 319.52, 416.02 311.64 C406.12 303.76, 397.33 293.47, 391.41 282.95 C385.49 272.44, 382.52 260.90, 380.52 248.55 C378.51 236.20, 375.89 222.87, 379.38 208.84 C382.88 194.82, 396.43 173.58, 401.51 164.43 C406.60 155.27, 408.43 153.26, 409.89 153.90 M483.48 127.52 C495.29 125.71, 507.11 126.56, 518.33 131.39 C529.54 136.22, 542.00 147.17, 550.76 156.50 C559.51 165.84, 565.39 176.21, 570.85 187.41 C576.32 198.62, 582.55 211.27, 583.54 223.73 C584.53 236.19, 580.49 249.90, 576.80 262.17 C573.11 274.44, 568.80 287.75, 561.39 297.36 C553.97 306.97, 543.53 313.04, 532.31 319.82 C521.10 326.59, 506.06 335.27, 494.09 338.02 C482.12 340.76, 471.91 339.49, 460.47 336.28 C449.03 333.08, 435.52 326.43, 425.46 318.77 C415.39 311.11, 407.16 300.88, 400.08 290.33 C393.00 279.79, 386.89 267.86, 382.98 255.50 C379.06 243.14, 375.93 228.66, 376.57 216.16 C377.21 203.66, 380.70 191.38, 386.82 180.51 C392.94 169.63, 403.40 158.82, 413.30 150.91 C423.21 143.00, 435.03 137.85, 446.24 133.05 C457.46 128.25, 474.73 123.33, 480.61 122.11 C486.49 120.89, 480.91 123.81, 481.53 125.73" fill="#faf7ef" stroke="none"/><path d="M450.50 127.49 C461.64 122.33, 477.49 121.70, 489.95 123.34 C502.41 124.98, 514.70 131.71, 525.28 137.33 C535.86 142.94, 545.35 147.69, 553.43 157.03 C561.51 166.38, 569.07 181.47, 573.77 193.41 C578.48 205.35, 581.31 216.06, 581.67 228.66 C582.03 241.27, 580.01 256.54, 575.92 269.05 C571.82 281.57, 565.42 294.07, 557.10 303.74 C548.79 313.40, 536.95 321.61, 526.04 327.05 C515.13 332.50, 503.92 335.57, 491.63 336.42 C479.34 337.27, 464.69 335.42, 452.30 332.17 C439.91 328.91, 427.03 324.17, 417.28 316.87 C407.54 309.57, 400.35 299.31, 393.82 288.36 C387.30 277.42, 380.27 263.92, 378.13 251.21 C375.99 238.49, 378.45 224.72, 380.99 212.05 C383.52 199.39, 386.85 186.03, 393.31 175.21 C399.77 164.39, 404.82 155.34, 419.76 147.13 C434.70 138.91, 467.97 128.63, 482.96 125.90 C497.95 123.18, 510.20 129.26, 509.71 130.76 M443.28 128.61 C453.71 122.54, 470.25 122.79, 482.60 123.63 C494.94 124.48, 505.53 128.07, 517.36 133.68 C529.18 139.29, 544.27 148.35, 553.55 157.28 C562.82 166.22, 568.07 175.72, 573.01 187.29 C577.95 198.85, 582.71 214.54, 583.20 226.70 C583.70 238.86, 579.82 248.94, 575.98 260.26 C572.14 271.57, 567.57 284.22, 560.16 294.61 C552.76 305.00, 542.44 315.72, 531.56 322.60 C520.67 329.49, 507.07 333.97, 494.88 335.92 C482.69 337.87, 470.31 336.64, 458.42 334.28 C446.53 331.93, 433.70 329.18, 423.53 321.78 C413.37 314.38, 404.78 300.49, 397.45 289.86 C390.13 279.23, 382.53 269.77, 379.59 258.00 C376.64 246.24, 377.92 231.66, 379.79 219.26 C381.67 206.86, 385.69 194.74, 390.84 183.62 C395.98 172.50, 401.57 161.47, 410.67 152.54 C419.77 143.61, 439.62 133.30, 445.45 130.02 C451.27 126.73, 445.27 131.03, 445.62 132.83" fill="none" stroke="#202020" stroke-width="2" stroke-linecap="round" stroke-linejoin="round"/><path d="M699.48 14.86 C719.65 -6.79, 736.80 -22.06, 788.20 -74.74 M699.45 9.60 C730.84 -19.80, 762.85 -52.78, 786.09 -76.20" fill="none" stroke="#202020" stroke-width="2" stroke-linecap="round" stroke-linejoin="round"/><path d="M701.56 447.18 C730.82 486.22, 765.96 515.99, 784.55 535.18 M698.10 450.40 C721.67 472.09, 745.90 495.30, 786.60 536.26" fill="none" stroke="#202020" stroke-width="2" stroke-linecap="round" stroke-linejoin="round"/><path d="M256.68 454.91 C240.27 467.64, 220.08 494.25, 175.47 533.05 M261.93 452.78 C239.98 469.62, 223.18 489.12, 173.27 537.57" fill="none" stroke="#202020" stroke-width="2" stroke-linecap="round" stroke-linejoin="round"/><path d="M257.82 9.53 C241.45 -11.36, 224.40 -23.04, 177.40 -75.10 M258.09 9.27 C225.02 -22.49, 193.98 -56.03, 173.28 -72.55" fill="none" stroke="#202020" stroke-width="2" stroke-linecap="round" stroke-linejoin="round"/></svg>