<svg xmlns="http://www.w3.org/2000/svg" viewBox="0 0 900 320" width="900" height="320"><path d="M330.53 71.35 C330.53 71.35, 330.53 71.35, 330.53 71.35 M330.53 71.35 C330.53 71.35, 330.53 71.35, 330.53 71.35 M314.43 91.21 C328.91 76.23, 338.27 70.68, 350.79 55.43 M314.72 91.84 C329.31 79.06, 343.03 65.74, 349.82 57.56 M302.60 108.71 C322.73 84.39, 344.68 65.65, 367.48 38.83 M307.70 112.08 C322.90 92.59, 341.68 71.05, 366.31 41.58 M304.84 122.89 C313.71 110.18, 326.04 87.15, 371.08 42.47 M304.42 122.57 C316.08 107.29, 331.17 88.54, 373.75 42.58 M296.37 129.78 C328.28 99.41, 358.60 65.66, 384.49 35.85 M298.54 130.76 C329.97 92.70, 363.27 55.30, 381.30 38.86 M295.52 139.92 C332.09 101.47, 363.04 64.22, 392.37 37.29 M297.27 139.11 C329.69 101.00, 363.67 66.42, 391.38 33.01 M290.34 153.22 C323.24 111.06, 355.45 80.27, 396.87 25.91 M293.64 152.28 C325.94 112.34, 358.80 73.80, 397.03 29.69 M293.92 160.14 C332.24 105.63, 376.61 62.56, 408.74 23.81 M293.90 158.73 C319.01 127.71, 346.71 94.42, 408.36 24.98 M294.56 159.97 C335.95 115.95, 372.74 76.20, 414.14 25.04 M292.84 162.22 C323.31 128.55, 352.59 90.82, 414.22 21.56 M292.39 168.41 C334.12 126.04, 368.63 85.88, 420.98 22.91 M294.49 168.02 C320.57 139.29, 348.74 107.98, 419.36 23.59 M297.69 176.44 C351.09 113.18, 403.40 55.19, 430.22 23.79 M295.34 172.89 C320.78 143.69, 348.42 110.82, 427.62 21.23 M293.74 181.07 C349.10 119.96, 399.71 61.57, 433.60 19.97 M293.52 181.92 C344.49 125.30, 389.85 70.55, 431.80 19.64 M294.22 186.72 C333.50 143.72, 373.41 91.21, 436.45 23.47 M293.36 185.01 C352.23 125.36, 407.57 63.61, 437.32 21.52 M294.84 192.57 C353.34 129.24, 406.76 59.26, 442.41 19.45 M294.90 193.10 C325.12 155.63, 356.36 121.74, 444.74 21.86 M297.77 195.08 C335.99 148.79, 374.28 105.04, 452.87 18.71 M295.84 198.74 C335.18 154.31, 374.26 109.00, 449.56 20.60 M295.33 204.54 C335.47 159.63, 380.33 110.55, 452.70 19.34 M296.53 202.40 C357.81 128.35, 420.84 54.89, 456.09 19.10 M296.23 205.75 C342.90 147.10, 394.19 90.50, 459.11 20.57 M295.38 207.99 C361.77 137.74, 424.80 62.17, 460.63 18.67 M300.28 213.21 C344.92 157.97, 391.98 108.78, 465.50 19.44 M296.58 213.13 C345.11 161.48, 392.71 108.17, 464.61 18.66 M296.10 218.94 C363.87 138.73, 433.74 63.03, 468.20 20.28 M298.60 217.17 C329.30 180.38, 364.41 140.69, 470.98 20.20 M302.50 223.92 C355.09 153.48, 419.24 88.66, 476.75 22.04 M298.70 221.91 C369.61 140.38, 438.24 64.53, 475.03 22.43 M303.16 226.14 C349.63 165.12, 406.16 104.10, 476.40 25.80 M302.53 226.65 C367.75 147.79, 437.23 68.62, 478.81 22.63 M302.11 233.90 C351.52 174.69, 402.46 115.59, 483.33 25.59 M302.02 229.89 C371.58 157.06, 436.96 77.32, 481.53 23.33 M303.60 234.48 C343.81 187.51, 389.64 133.64, 488.80 22.71 M304.11 236.06 C376.99 153.20, 448.10 70.24, 488.27 25.51 M304.14 243.76 C357.65 184.40, 408.20 124.43, 489.00 28.85 M305.56 240.46 C346.92 193.85, 385.79 149.89, 492.54 26.14 M304.91 246.25 C352.21 193.66, 402.33 135.45, 496.51 27.25 M304.51 246.17 C354.05 192.69, 398.14 139.81, 496.24 27.89 M309.85 247.18 C381.61 167.88, 454.95 81.88, 500.55 30.81 M308.44 250.19 C360.83 185.76, 416.56 123.62, 500.62 27.83 M312.26 252.24 C354.73 207.56, 395.51 157.18, 505.04 30.12 M309.21 251.91 C362.01 198.13, 412.27 141.52, 502.85 29.73 M313.44 257.75 C365.32 197.56, 415.56 140.19, 506.31 28.74 M311.85 257.04 C353.75 209.71, 396.91 159.82, 508.94 29.53 M314.93 256.03 C374.34 193.79, 425.78 131.66, 513.99 29.92 M316.43 258.54 C385.71 181.77, 451.48 105.22, 511.50 33.57 M320.81 264.75 C377.83 189.40, 440.49 117.90, 515.29 36.94 M319.33 262.48 C389.52 175.31, 462.65 91.97, 516.26 33.12 M322.54 264.75 C380.51 200.35, 440.72 129.59, 516.91 35.72 M319.58 264.91 C396.85 179.07, 473.72 89.26, 519.01 37.19 M323.49 268.52 C393.45 186.42, 459.55 106.29, 523.14 37.15 M324.23 267.49 C402.35 178.00, 482.29 86.55, 523.14 40.07 M324.31 269.47 C368.83 222.04, 409.92 167.23, 524.78 43.38 M325.49 273.04 C394.55 200.82, 458.10 123.86, 527.35 42.03 M326.17 273.66 C381.46 208.31, 439.54 147.40, 533.19 40.89 M328.03 275.64 C371.28 226.67, 416.64 177.16, 530.52 41.40 M332.42 279.49 C392.08 203.62, 457.66 127.12, 532.58 45.06 M331.66 276.92 C399.33 197.01, 468.11 121.16, 532.94 44.67 M334.30 284.39 C408.01 187.49, 489.98 94.99, 535.05 48.77 M332.71 280.83 C396.16 206.73, 460.90 131.19, 536.88 45.34 M333.00 286.05 C411.35 193.32, 492.07 97.29, 538.38 47.59 M334.24 284.47 C392.92 218.85, 446.98 155.93, 540.98 48.07 M341.16 285.76 C380.69 240.77, 420.45 190.46, 545.15 49.19 M338.36 288.93 C394.43 224.13, 450.40 162.22, 544.95 51.75 M339.42 290.39 C404.79 211.71, 473.90 134.64, 547.43 51.56 M341.45 289.07 C415.94 201.92, 489.32 115.32, 548.59 53.62 M346.37 290.86 C391.11 245.18, 437.47 192.34, 553.22 53.86 M344.02 293.49 C402.11 222.60, 462.11 155.68, 550.85 56.54 M349.51 296.76 C402.41 228.42, 463.61 162.87, 553.45 55.04 M347.03 296.67 C417.94 217.27, 482.58 139.46, 553.61 57.82 M350.02 300.13 C430.13 208.97, 507.01 116.46, 555.44 58.86 M351.64 296.96 C422.29 218.79, 490.04 138.85, 555.47 60.55 M354.72 301.18 C410.73 234.98, 463.89 172.74, 556.86 64.04 M352.61 299.68 C405.88 239.37, 457.90 179.75, 558.96 65.17 M356.28 302.98 C437.30 207.38, 519.72 119.89, 561.04 67.98 M355.62 303.00 C426.63 223.09, 499.57 139.87, 562.38 65.39 M363.02 305.19 C415.14 235.86, 471.11 171.79, 565.06 70.25 M359.80 306.57 C420.30 236.40, 480.34 166.41, 566.61 69.38 M364.99 308.68 C423.93 239.05, 482.61 165.48, 569.30 72.52 M362.79 307.27 C439.54 219.60, 515.88 130.89, 569.34 71.41 M364.25 310.44 C419.89 248.05, 470.18 190.26, 573.14 74.10 M367.55 311.10 C419.14 252.51, 469.83 194.87, 572.17 75.60 M370.47 315.26 C418.17 254.71, 469.90 194.48, 575.35 77.89 M369.53 312.14 C436.86 232.30, 502.32 155.63, 574.95 76.29 M372.90 314.44 C427.55 254.28, 482.76 187.54, 578.46 79.16 M371.24 316.27 C428.63 249.59, 488.72 180.11, 577.73 81.03 M376.23 314.76 C447.52 241.23, 514.52 164.27, 582.20 81.44 M375.57 316.49 C428.29 258.17, 481.36 201.12, 580.57 83.91 M378.68 317.99 C437.45 261.22, 491.55 198.95, 580.89 86.28 M380.67 318.70 C450.13 238.07, 517.13 157.45, 582.72 85.93 M384.68 317.86 C440.71 254.46, 501.01 186.24, 583.86 89.38 M384.01 321.98 C425.40 269.52, 472.67 216.89, 585.46 89.83 M386.31 320.64 C427.85 277.15, 467.82 229.43, 586.95 91.54 M388.60 320.36 C441.93 257.48, 495.47 194.01, 587.74 93.18 M389.28 324.86 C451.28 258.88, 510.16 189.02, 586.47 95.83 M391.61 322.71 C470.49 240.63, 546.23 152.87, 589.04 95.94 M397.64 323.12 C457.31 253.41, 517.28 186.43, 587.95 101.25 M395.61 326.13 C447.91 269.93, 494.85 213.60, 591.23 100.17 M401.64 327.99 C444.75 279.39, 483.88 232.13, 595.19 103.84 M399.47 326.67 C470.55 245.44, 543.01 161.62, 592.02 103.26 M403.16 328.44 C446.52 273.34, 494.04 221.41, 595.77 106.04 M405.94 327.28 C469.16 249.87, 537.45 173.15, 596.18 108.07 M410.55 327.43 C451.59 270.08, 505.19 216.21, 594.16 114.32 M407.32 330.20 C472.03 255.15, 541.31 177.53, 597.19 112.98 M410.35 329.16 C478.22 255.84, 536.17 181.60, 599.92 114.01 M412.24 331.55 C485.32 251.34, 554.64 168.50, 600.64 116.57 M418.47 332.06 C482.30 257.14, 543.49 182.92, 599.77 118.38 M416.09 330.51 C489.86 249.91, 561.80 166.65, 600.50 118.70 M419.69 335.12 C465.18 283.94, 506.27 230.85, 603.18 120.21 M421.73 331.14 C466.28 285.50, 506.56 239.30, 602.06 121.64 M426.26 335.42 C473.24 280.80, 518.95 226.79, 607.90 129.03 M426.20 333.15 C466.78 289.00, 503.23 246.99, 604.69 126.47 M429.95 333.65 C478.13 274.43, 530.63 217.09, 602.90 133.40 M432.49 332.20 C478.76 279.21, 528.10 225.71, 604.16 131.72 M438.03 335.90 C482.44 278.79, 534.76 220.93, 605.38 138.67 M436.13 334.21 C478.81 287.78, 519.18 243.77, 607.52 136.58 M439.96 330.78 C476.29 295.33, 511.42 252.12, 607.22 145.41 M440.97 334.99 C481.29 285.95, 522.04 239.67, 607.60 142.36 M443.43 331.09 C502.50 268.47, 554.04 206.81, 606.44 148.80 M447.35 334.81 C503.92 269.54, 559.76 202.01, 607.84 148.61 M450.22 332.42 C497.05 283.30, 547.87 225.46, 605.02 158.07 M453.29 334.42 C506.49 269.72, 564.18 205.13, 606.96 154.90 M458.06 332.98 C489.75 291.32, 522.50 251.16, 610.64 162.39 M454.97 335.89 C486.86 301.78, 517.00 264.29, 608.91 161.24 M464.24 338.14 C508.47 282.00, 555.04 230.67, 606.60 165.62 M460.15 335.84 C498.71 298.13, 530.83 259.68, 609.41 164.88 M464.58 333.52 C495.65 302.90, 526.91 264.01, 609.66 168.98 M466.68 337.48 C523.91 273.25, 576.75 209.71, 608.90 170.75 M469.67 336.91 C524.54 267.56, 580.30 203.99, 608.00 176.59 M472.40 336.75 C506.92 293.68, 541.80 252.06, 608.77 178.18 M480.33 334.22 C532.59 276.54, 579.04 220.49, 607.98 184.72 M477.71 335.02 C503.12 302.78, 529.57 271.05, 608.13 184.35 M487.41 330.99 C528.01 282.88, 568.12 239.21, 611.32 187.75 M486.92 333.56 C520.29 295.34, 551.26 258.27, 607.42 189.85 M491.60 333.09 C516.52 303.41, 537.57 274.38, 607.41 199.92 M493.24 330.90 C526.95 295.32, 560.70 255.04, 609.36 195.31 M499.55 330.77 C516.27 302.77, 544.89 272.97, 609.23 206.40 M497.05 327.48 C530.33 295.79, 557.35 263.04, 607.06 202.71 M502.97 327.82 C544.16 282.35, 581.65 243.33, 610.57 208.87 M507.02 329.45 C527.56 297.23, 555.93 268.58, 607.41 209.78 M515.82 325.90 C548.53 285.47, 584.58 244.04, 609.21 220.87 M511.64 327.78 C536.51 295.52, 564.30 266.79, 604.44 216.54 M519.42 318.77 C554.96 287.89, 578.68 258.06, 605.49 223.15 M520.91 320.47 C544.47 295.08, 565.55 271.20, 603.91 224.91 M532.05 313.77 C561.06 286.85, 585.51 258.71, 599.52 234.84 M534.46 314.96 C549.55 296.55, 567.63 279.65, 602.01 238.26 M541.50 307.53 C565.37 282.74, 582.05 258.99, 593.24 246.39 M542.03 309.18 C563.80 287.08, 584.92 261.33, 592.24 250.80" fill="#faf7ef" stroke="none"/><path d="M330.20 71.72 C338.55 59.04, 355.92 47.78, 369.64 39.17 C383.36 30.56, 397.70 23.85, 412.53 20.07 C427.37 16.28, 442.83 14.95, 458.65 16.44 C474.47 17.93, 492.73 23.18, 507.46 29.02 C522.19 34.85, 534.73 42.16, 547.03 51.46 C559.33 60.76, 571.79 72.41, 581.25 84.82 C590.71 97.24, 599.18 110.86, 603.80 125.94 C608.42 141.01, 608.92 159.16, 608.98 175.28 C609.05 191.40, 608.14 207.85, 604.20 222.68 C600.25 237.51, 593.89 251.38, 585.32 264.27 C576.76 277.16, 565.37 289.95, 552.82 300.02 C540.26 310.09, 524.81 318.79, 510.01 324.70 C495.21 330.60, 479.62 334.28, 464.00 335.45 C448.39 336.61, 432.00 335.33, 416.34 331.69 C400.68 328.05, 383.82 321.51, 370.05 313.59 C356.28 305.66, 344.53 295.27, 333.73 284.13 C322.94 272.99, 312.03 260.34, 305.29 246.73 C298.54 233.13, 295.59 217.84, 293.27 202.51 C290.96 187.18, 289.35 170.02, 291.40 154.77 C293.45 139.52, 290.81 130.98, 305.58 111.00 C320.35 91.02, 357.98 49.56, 380.02 34.89 C402.05 20.22, 436.57 20.56, 437.79 23.00 M339.14 58.50 C348.29 46.78, 364.00 40.51, 378.52 34.17 C393.04 27.83, 410.15 23.28, 426.25 20.45 C442.34 17.63, 459.14 15.50, 475.08 17.22 C491.02 18.93, 507.49 23.86, 521.88 30.74 C536.27 37.62, 549.98 47.73, 561.42 58.52 C572.86 69.31, 583.27 81.95, 590.51 95.50 C597.76 109.05, 601.85 124.55, 604.90 139.81 C607.95 155.07, 609.92 170.89, 608.81 187.05 C607.71 203.21, 603.60 222.03, 598.29 236.76 C592.99 251.49, 587.12 263.49, 576.99 275.43 C566.86 287.36, 550.89 299.73, 537.54 308.38 C524.19 317.03, 511.63 322.51, 496.88 327.33 C482.13 332.16, 465.29 337.21, 449.04 337.32 C432.80 337.42, 414.39 332.91, 399.41 327.95 C384.43 322.99, 372.01 316.40, 359.15 307.54 C346.28 298.67, 331.87 287.16, 322.22 274.75 C312.57 262.34, 306.36 247.94, 301.27 233.07 C296.18 218.20, 292.71 200.74, 291.66 185.55 C290.61 170.36, 291.62 157.10, 294.99 141.92 C298.35 126.74, 304.18 107.81, 311.87 94.47 C319.56 81.13, 335.51 67.19, 341.12 61.87 C346.73 56.55, 343.54 61.11, 345.52 62.54" fill="none" stroke="#202020" stroke-width="2" stroke-linecap="round" stroke-linejoin="round"/><path d="M303.96 11.15 C303.96 11.15, 303.96 11.15, 303.96 11.15 M303.96 11.15 C303.96 11.15, 303.96 11.15, 303.96 11.15 M273.21 59.49 C283.78 37.18, 301.79 20.37, 314.98 4.82 M270.39 55.50 C286.35 38.47, 301.14 21.56, 316.23 2.47 M259.29 73.93 C282.74 52.83, 294.21 25.80, 334.20 -13.17 M264.33 71.32 C281.22 45.89, 303.41 22.25, 331.23 -9.43 M253.98 86.33 C278.74 61.54, 302.79 32.77, 349.50 -23.73 M256.06 84.63 C284.26 46.84, 319.17 12.30, 347.24 -20.31 M247.23 99.62 C276.33 62.94, 314.57 20.65, 352.07 -20.16 M245.03 102.80 C275.19 69.16, 303.81 37.96, 350.72 -18.12 M241.45 108.46 C278.09 77.23, 306.91 42.00, 361.39 -26.43 M246.10 109.14 C272.93 76.96, 303.43 44.13, 359.93 -23.01 M239.87 121.04 C270.84 80.47, 301.34 52.12, 365.81 -25.83 M243.32 120.12 C290.48 68.09, 333.10 14.36, 368.80 -25.78 M240.66 124.42 C274.83 90.54, 305.34 52.66, 373.91 -27.07 M241.01 125.29 C267.40 94.07, 296.78 60.94, 377.34 -30.09 M243.27 130.50 C294.85 72.36, 343.84 15.32, 384.46 -32.92 M241.01 131.74 C288.82 80.60, 335.13 24.86, 386.73 -34.45 M237.76 138.36 C279.67 93.31, 318.46 47.61, 397.24 -40.83 M239.69 139.24 C300.67 70.37, 362.30 -2.29, 396.83 -43.21 M235.75 147.52 C287.26 92.85, 342.61 30.69, 405.70 -40.69 M239.53 148.70 C284.23 92.78, 327.93 41.53, 403.63 -44.45 M234.31 156.43 C279.21 104.55, 322.82 55.54, 409.71 -41.03 M238.62 153.44 C302.68 74.08, 373.03 -5.75, 408.87 -44.59 M238.68 159.77 C307.41 79.94, 381.18 -2.76, 414.43 -41.53 M238.69 160.17 C280.82 106.31, 328.15 54.33, 414.66 -43.77 M237.05 169.23 C282.38 113.88, 323.15 70.11, 421.73 -44.73 M238.95 167.69 C310.09 86.96, 378.30 7.25, 422.67 -45.87 M235.80 175.25 C293.28 109.92, 355.54 38.89, 429.52 -44.00 M239.38 170.97 C309.07 97.13, 375.82 15.83, 426.09 -44.29 M239.35 176.12 C314.67 89.67, 388.57 5.27, 432.52 -44.02 M238.55 176.89 C306.32 100.16, 372.51 27.06, 433.10 -45.71 M238.11 186.12 C301.09 111.09, 366.13 33.56, 440.32 -47.34 M238.00 183.94 C290.61 124.00, 343.39 62.99, 439.32 -44.41 M237.40 191.19 C283.45 140.46, 328.57 89.56, 443.87 -47.34 M238.70 189.30 C296.55 124.93, 352.04 58.84, 442.67 -44.84 M241.01 193.89 C323.95 94.25, 406.66 2.63, 449.72 -47.31 M239.90 196.06 C302.29 123.70, 364.65 51.09, 450.39 -47.68 M238.34 202.48 C284.64 147.37, 329.54 95.01, 452.52 -44.85 M240.83 200.59 C323.89 104.23, 405.08 10.85, 454.20 -45.18 M239.95 208.23 C321.85 113.84, 403.02 18.65, 456.97 -42.24 M241.25 205.75 C285.35 149.20, 334.19 94.32, 459.51 -45.25 M240.51 212.78 C324.88 115.23, 414.23 13.12, 460.60 -44.06 M239.51 211.55 C314.30 121.51, 390.35 32.95, 461.88 -42.60 M239.46 215.74 C326.54 120.56, 409.32 27.33, 469.88 -45.22 M242.33 217.87 C305.88 144.87, 369.10 72.89, 468.05 -42.26 M240.23 223.43 C297.16 153.36, 354.85 88.39, 471.39 -41.44 M243.23 221.64 C307.60 151.38, 369.31 81.65, 471.66 -41.95 M242.50 226.65 C318.99 140.96, 392.90 60.22, 476.84 -40.75 M243.61 227.31 C305.34 161.03, 365.04 91.87, 478.50 -42.85 M244.16 233.33 C301.00 168.22, 356.55 98.59, 482.05 -43.39 M243.54 231.67 C325.93 136.23, 409.65 40.11, 481.53 -41.06 M247.43 234.73 C309.49 167.27, 368.10 95.87, 486.52 -40.38 M246.94 237.36 C300.05 177.93, 352.96 117.64, 487.52 -41.56 M245.78 239.91 C330.81 148.18, 412.48 53.11, 489.57 -38.30 M247.49 240.30 C343.86 131.70, 436.01 23.95, 491.90 -39.53 M247.00 246.11 C317.35 174.36, 380.09 95.62, 494.40 -41.95 M247.19 247.11 C319.89 164.56, 393.20 83.64, 495.87 -40.51 M251.21 250.77 C322.25 169.79, 391.30 88.87, 500.63 -41.52 M249.93 251.35 C308.49 186.31, 366.30 119.22, 501.30 -39.42 M248.64 257.70 C342.15 151.05, 426.36 50.20, 506.80 -40.38 M249.12 254.87 C336.99 151.52, 427.10 47.81, 506.34 -40.15 M249.96 260.15 C354.88 142.92, 454.28 23.97, 513.32 -38.72 M252.75 259.63 C310.34 192.11, 369.13 124.41, 511.70 -38.15 M251.94 264.25 C327.75 170.72, 409.39 75.57, 514.09 -34.95 M253.51 263.91 C326.40 176.15, 402.55 89.05, 515.40 -35.91 M255.32 269.52 C313.60 203.68, 371.12 134.74, 519.46 -36.57 M253.55 269.17 C355.00 159.68, 452.02 45.57, 520.01 -34.71 M255.62 272.03 C355.27 158.36, 453.73 48.51, 521.73 -33.28 M256.89 271.85 C361.28 152.91, 463.60 35.62, 522.43 -33.44 M259.41 275.09 C325.52 201.71, 388.89 127.37, 528.41 -30.06 M257.83 275.52 C345.18 171.96, 434.31 68.81, 527.14 -31.32 M260.35 281.95 C359.73 171.52, 453.05 62.42, 529.59 -28.05 M260.59 280.31 C358.50 169.21, 456.49 56.59, 529.99 -29.56 M263.67 283.77 C328.35 207.33, 391.77 131.44, 536.82 -29.47 M263.16 284.30 C351.84 177.96, 442.24 75.79, 534.54 -29.23 M263.17 288.62 C356.17 186.03, 444.66 81.74, 537.44 -27.23 M264.18 287.93 C371.47 163.46, 478.12 41.00, 539.78 -27.60 M269.10 290.47 C354.96 186.83, 445.60 86.09, 541.99 -24.42 M267.26 290.32 C333.41 212.95, 400.04 135.66, 543.44 -26.47 M269.19 295.84 C333.83 219.89, 393.34 151.88, 544.84 -26.14 M270.74 293.90 C353.02 203.75, 432.31 112.98, 546.03 -23.79 M273.07 298.77 C347.76 211.68, 421.89 125.74, 549.31 -20.88 M272.53 296.84 C357.57 201.36, 440.02 105.57, 549.73 -23.13 M274.03 302.05 C365.26 193.61, 460.44 80.91, 556.28 -20.17 M273.77 301.42 C382.70 177.88, 493.34 51.48, 553.98 -20.98 M274.60 305.01 C364.85 200.78, 455.96 100.39, 556.74 -20.39 M275.39 304.71 C345.49 226.70, 414.35 149.47, 557.87 -18.41 M278.10 308.02 C357.06 217.18, 435.28 130.24, 561.77 -17.63 M278.49 308.27 C376.97 192.26, 476.18 78.74, 560.97 -16.92 M280.53 312.40 C376.48 199.31, 476.95 86.45, 564.74 -13.16 M279.64 312.05 C356.85 222.71, 433.83 133.58, 565.03 -14.52 M283.60 317.21 C383.09 198.25, 489.62 77.74, 569.34 -10.78 M282.90 315.12 C385.59 198.03, 487.06 78.29, 566.58 -11.55 M284.72 319.29 C397.60 190.36, 505.35 66.79, 571.34 -7.52 M284.72 319.36 C375.48 215.41, 467.66 110.88, 570.60 -8.38 M286.29 320.73 C347.11 254.86, 403.56 186.24, 574.51 -4.26 M288.26 322.97 C387.09 208.17, 484.91 96.23, 574.16 -6.54 M291.72 324.06 C382.09 218.68, 477.62 112.49, 577.87 -1.22 M290.51 323.92 C384.96 215.19, 480.97 105.21, 575.73 -3.22 M295.62 327.67 C387.59 224.53, 477.75 121.54, 580.71 -1.34 M293.95 327.89 C383.59 229.83, 469.77 130.55, 578.69 0.13 M294.52 329.01 C364.37 250.38, 432.03 170.10, 581.97 2.67 M296.32 330.11 C394.63 223.02, 490.67 111.51, 581.14 2.68 M297.70 332.80 C377.32 242.14, 456.09 152.23, 586.45 5.33 M298.86 332.70 C361.53 264.25, 424.07 192.90, 584.17 5.79 M301.83 335.95 C406.69 214.41, 511.04 93.85, 589.55 8.46 M302.45 335.12 C400.26 228.22, 495.47 117.96, 587.55 7.81 M306.45 339.32 C413.05 213.29, 524.87 86.35, 592.03 10.17 M305.95 338.44 C390.99 235.29, 477.68 135.16, 590.77 11.02 M308.98 339.69 C396.65 240.33, 487.44 140.10, 592.07 13.43 M308.24 341.29 C378.32 262.33, 445.78 186.17, 593.21 12.93 M312.31 343.74 C413.89 226.57, 515.75 110.04, 597.61 14.77 M311.47 343.68 C389.18 254.46, 466.99 163.47, 597.63 16.16 M313.44 347.98 C395.23 254.94, 471.98 162.27, 600.15 17.54 M314.75 347.11 C373.97 281.60, 433.99 213.31, 599.43 18.59 M317.61 348.11 C424.73 229.30, 526.56 110.55, 603.70 22.81 M317.34 349.06 C413.21 236.96, 509.08 126.60, 602.16 21.38 M318.01 351.66 C388.13 266.98, 456.04 188.33, 605.20 23.59 M320.36 352.78 C406.17 255.86, 489.83 158.54, 604.41 24.82 M322.65 353.12 C409.20 258.53, 496.18 160.58, 605.25 27.42 M323.73 356.04 C419.04 244.37, 519.99 129.12, 606.96 28.05 M326.84 356.06 C393.59 277.85, 463.05 196.69, 608.58 32.18 M326.40 358.07 C434.22 235.36, 541.58 111.59, 608.77 32.06 M328.32 359.21 C424.91 256.02, 517.29 147.51, 611.95 35.21 M329.69 360.85 C436.32 235.93, 544.59 112.35, 612.80 33.78 M334.11 360.77 C431.35 252.01, 526.39 139.05, 616.30 38.50 M333.51 361.71 C404.71 279.26, 477.07 196.57, 615.75 37.42 M334.87 362.41 C409.51 286.94, 477.26 207.94, 617.55 39.18 M336.12 364.29 C430.76 259.80, 523.65 152.47, 617.06 41.53 M339.09 366.06 C449.33 242.52, 558.67 114.24, 621.60 46.09 M338.96 366.81 C451.09 238.31, 562.02 113.19, 620.00 44.41 M341.40 366.72 C427.11 263.43, 516.11 165.32, 620.39 47.89 M342.50 369.36 C432.79 266.93, 519.55 166.27, 621.28 46.93 M348.45 370.62 C427.71 269.67, 514.52 173.11, 623.27 49.82 M346.41 371.24 C437.41 267.03, 528.13 163.67, 625.97 50.16 M349.79 373.30 C429.25 276.82, 511.09 181.20, 627.35 52.61 M349.59 372.23 C454.87 249.26, 562.47 126.13, 626.49 53.04 M354.42 374.48 C455.87 255.31, 562.07 137.46, 629.80 58.45 M354.51 375.89 C416.29 302.89, 482.16 228.85, 629.38 57.99 M357.73 377.34 C439.87 280.16, 528.77 178.09, 632.81 61.15 M357.50 375.67 C453.43 270.11, 546.39 162.87, 632.56 60.65 M361.94 381.05 C468.26 260.33, 571.43 136.60, 634.05 62.54 M359.23 380.26 C450.38 277.89, 542.22 172.98, 634.50 63.41 M363.58 382.83 C429.01 305.93, 488.25 236.21, 634.90 66.68 M363.45 380.59 C432.77 301.14, 499.98 223.77, 636.91 66.55 M366.28 384.41 C449.10 288.06, 533.21 189.86, 638.33 69.67 M368.60 382.72 C445.10 300.40, 517.24 214.32, 637.96 72.36 M372.71 387.84 C465.21 271.86, 561.05 161.23, 641.20 75.52 M369.75 386.78 C447.54 293.25, 525.50 203.74, 640.16 75.69 M373.07 386.16 C430.93 322.09, 487.53 257.40, 643.60 78.69 M374.32 386.25 C451.37 293.70, 530.56 203.41, 641.43 78.87 M381.32 389.83 C450.38 311.65, 518.35 232.74, 642.07 84.57 M379.61 388.48 C482.76 273.39, 583.17 158.03, 644.07 82.99 M384.23 389.02 C487.19 272.27, 588.30 154.99, 645.95 88.27 M382.86 388.96 C465.56 293.04, 549.30 194.46, 645.53 87.28 M388.34 389.61 C457.71 312.38, 524.52 235.18, 648.43 92.60 M388.96 389.95 C483.61 279.63, 579.76 167.84, 646.98 92.13 M391.54 393.03 C461.19 311.05, 528.87 235.39, 648.22 96.95 M391.15 392.20 C496.63 273.84, 598.93 155.56, 649.08 96.04 M398.71 392.80 C481.72 294.17, 566.92 195.29, 650.92 96.99 M396.84 393.08 C453.52 322.80, 513.99 255.24, 652.71 99.69 M402.91 392.91 C480.41 304.79, 558.99 214.32, 651.19 103.39 M400.60 393.45 C455.93 329.16, 513.48 263.98, 653.27 102.18 M406.22 396.44 C461.10 331.05, 513.84 268.74, 655.34 106.61 M404.25 394.18 C479.33 304.44, 554.78 216.70, 655.58 108.18 M411.22 395.75 C480.97 312.82, 554.61 225.96, 655.82 111.28 M410.64 394.70 C470.51 326.80, 529.19 258.56, 655.97 111.85 M412.48 397.84 C502.92 295.08, 587.10 196.91, 657.39 116.81 M413.34 397.41 C470.77 327.43, 531.94 260.48, 656.89 117.05 M416.53 395.85 C478.60 330.81, 537.61 263.30, 659.66 119.63 M417.38 397.11 C488.32 314.51, 563.77 229.58, 657.94 120.94 M422.05 400.37 C473.88 338.72, 525.92 280.57, 661.81 129.03 M423.04 397.57 C469.03 342.12, 517.47 287.90, 658.43 127.32 M428.47 398.20 C516.16 299.19, 606.15 195.61, 661.02 133.23 M427.83 397.97 C498.88 318.78, 566.55 239.93, 660.02 133.07 M436.37 397.77 C506.84 322.03, 573.21 241.94, 662.41 139.75 M433.52 397.63 C502.17 320.58, 569.35 241.47, 659.93 136.09 M437.34 400.98 C494.57 332.98, 549.68 272.40, 660.65 143.49 M439.83 399.71 C514.46 311.22, 588.47 227.33, 660.35 143.78 M442.72 397.35 C531.14 302.12, 616.61 204.38, 663.99 149.24 M444.85 398.26 C510.56 324.94, 577.27 249.91, 663.21 147.16 M449.35 396.00 C529.61 307.76, 609.92 212.07, 661.69 154.29 M448.41 398.24 C523.32 317.58, 597.62 235.40, 663.53 153.51 M451.84 401.80 C537.90 302.94, 623.12 210.45, 663.50 157.36 M455.50 398.86 C517.60 331.33, 578.32 259.08, 664.71 157.17 M462.22 396.91 C499.88 352.70, 546.00 305.46, 661.50 167.67 M460.07 399.83 C509.16 339.65, 558.38 282.75, 662.38 166.65 M462.63 396.11 C522.32 335.68, 581.95 267.48, 662.54 172.12 M465.54 398.79 C533.72 317.55, 602.68 240.22, 662.31 170.46 M473.00 401.26 C534.42 327.72, 594.01 254.51, 665.23 179.74 M471.27 399.84 C524.27 339.45, 577.73 275.78, 663.21 177.37 M475.68 397.47 C511.07 357.13, 551.76 311.29, 663.46 182.21 M477.14 398.43 C521.87 346.34, 568.26 292.03, 661.62 184.67 M480.90 399.35 C526.33 342.26, 575.69 287.85, 663.08 189.37 M478.75 399.82 C527.24 351.25, 570.29 299.35, 663.90 191.13 M485.88 400.56 C550.87 320.34, 621.00 242.96, 665.10 194.12 M485.76 399.51 C530.06 343.57, 574.59 292.07, 661.37 197.41 M493.50 397.54 C540.69 341.30, 588.34 289.15, 664.32 200.54 M493.97 397.09 C547.93 340.68, 595.79 281.07, 663.44 201.83 M501.79 395.04 C542.04 344.43, 584.17 287.97, 664.08 206.05 M499.38 397.47 C544.01 343.01, 587.81 291.13, 661.81 208.05 M503.67 395.64 C561.83 331.05, 621.56 267.84, 664.09 214.58 M506.89 395.04 C544.73 349.96, 583.34 306.94, 664.04 214.18 M515.44 396.61 C572.52 325.58, 631.61 260.26, 660.05 220.85 M511.46 392.32 C546.36 357.60, 577.34 321.31, 664.32 220.50 M521.07 394.41 C550.48 356.72, 584.28 321.88, 661.05 231.20 M519.85 393.82 C563.30 346.24, 604.44 297.74, 658.88 227.71 M529.62 389.34 C554.52 355.35, 585.62 322.17, 657.48 241.11 M527.54 386.26 C558.70 351.80, 592.71 312.63, 655.52 239.52 M537.79 382.70 C576.00 342.13, 607.98 303.57, 651.79 246.07 M537.81 382.57 C568.58 344.01, 604.58 306.93, 654.92 247.44 M549.51 376.37 C590.70 330.99, 622.40 285.15, 651.06 259.51 M546.29 375.82 C578.29 339.87, 607.80 307.00, 651.90 257.69 M558.33 368.94 C589.04 340.52, 613.50 308.73, 649.07 267.50 M559.37 371.97 C588.93 336.24, 620.16 304.19, 648.72 266.81 M569.51 365.27 C591.09 338.12, 609.63 315.91, 643.47 272.93 M567.77 366.13 C587.42 341.07, 609.38 319.14, 646.03 276.16 M579.03 359.14 C596.87 346.39, 608.46 326.15, 628.49 299.95 M574.37 363.94 C594.97 340.76, 613.23 321.14, 630.69 299.07" fill="#faf7ef" stroke="none"/><path d="M451.35 -46.85 C468.65 -49.99, 489.09 -44.78, 506.64 -40.40 C524.20 -36.03, 541.64 -29.84, 556.68 -20.59 C571.71 -11.34, 584.63 2.08, 596.86 15.09 C609.10 28.10, 620.47 41.83, 630.09 57.48 C639.72 73.13, 649.24 91.05, 654.62 108.99 C659.99 126.93, 661.09 146.84, 662.34 165.12 C663.59 183.39, 665.04 200.44, 662.10 218.64 C659.15 236.84, 652.41 257.53, 644.68 274.31 C636.94 291.09, 627.48 304.87, 615.70 319.32 C603.91 333.77, 588.86 349.65, 573.96 361.00 C559.06 372.36, 542.51 381.23, 526.30 387.43 C510.08 393.62, 494.05 396.48, 476.66 398.17 C459.26 399.86, 440.03 400.07, 421.90 397.56 C403.78 395.05, 384.19 389.98, 367.91 383.12 C351.63 376.26, 338.36 367.32, 324.23 356.40 C310.11 345.48, 294.99 332.33, 283.16 317.59 C271.33 302.85, 260.37 284.66, 253.27 267.98 C246.18 251.30, 243.44 235.40, 240.61 217.52 C237.77 199.63, 235.49 179.75, 236.26 160.66 C237.03 141.58, 239.73 120.53, 245.22 103.01 C250.70 85.49, 259.42 70.78, 269.16 55.54 C278.90 40.29, 290.27 24.45, 303.65 11.51 C317.03 -1.42, 333.70 -13.03, 349.47 -22.06 C365.24 -31.09, 369.96 -40.41, 398.27 -42.66 C426.57 -44.91, 488.81 -42.82, 519.30 -35.56 C549.79 -28.30, 582.33 -2.33, 581.21 0.90 M574.84 -10.90 C590.57 -3.13, 603.54 15.17, 614.87 30.13 C626.19 45.08, 635.26 62.53, 642.80 78.81 C650.34 95.10, 656.44 109.65, 660.10 127.84 C663.76 146.04, 665.38 169.16, 664.75 187.97 C664.12 206.78, 661.65 222.82, 656.31 240.70 C650.98 258.58, 642.02 278.86, 632.76 295.23 C623.51 311.61, 613.63 326.62, 600.80 338.95 C587.98 351.29, 571.35 359.92, 555.81 369.25 C540.26 378.58, 524.85 389.31, 507.53 394.92 C490.20 400.54, 469.57 402.80, 451.87 402.94 C434.16 403.08, 418.50 400.78, 401.30 395.77 C384.10 390.75, 364.06 381.22, 348.66 372.85 C333.27 364.49, 321.35 357.97, 308.94 345.60 C296.52 333.23, 284.03 314.13, 274.20 298.62 C264.37 283.12, 256.38 269.88, 249.95 252.57 C243.52 235.26, 237.82 213.46, 235.63 194.76 C233.43 176.06, 233.78 158.78, 236.78 140.35 C239.79 121.92, 246.34 101.36, 253.67 84.19 C260.99 67.02, 269.93 51.86, 280.72 37.33 C291.51 22.80, 303.94 8.55, 318.40 -2.97 C332.87 -14.48, 350.82 -24.28, 367.52 -31.76 C384.23 -39.23, 401.11 -44.92, 418.62 -47.83 C436.13 -50.74, 455.08 -51.53, 472.59 -49.23 C490.11 -46.93, 507.02 -41.24, 523.72 -34.03 C540.42 -26.81, 565.52 -10.68, 572.79 -5.94 C580.07 -1.20, 569.29 -8.18, 567.38 -5.60" fill="none" stroke="#202020" stroke-width="2" stroke-linecap="round" stroke-linejoin="round"/><path d="M531.08 109.45 C539.78 117.02, 542.79 130.16, 546.93 142.01 C551.07 153.86, 556.19 168.49, 555.91 180.56 C555.64 192.63, 550.31 203.44, 545.29 214.43 C540.26 225.41, 534.26 237.44, 525.74 246.47 C517.23 255.50, 505.82 263.50, 494.19 268.60 C482.55 273.69, 468.41 276.75, 455.95 277.04 C443.49 277.33, 431.02 274.23, 419.41 270.35 C407.81 266.47, 396.62 260.97, 386.34 253.75 C376.05 246.52, 364.23 237.08, 357.70 226.98 C351.18 216.89, 348.65 205.17, 347.19 193.17 C345.73 181.18, 346.25 167.17, 348.95 155.03 C351.66 142.90, 356.73 130.33, 363.42 120.37 C370.11 110.41, 378.82 101.95, 389.10 95.28 C399.38 88.61, 412.63 83.30, 425.12 80.36 C437.60 77.41, 451.92 76.68, 464.02 77.59 C476.12 78.50, 484.95 77.82, 497.70 85.82 C510.45 93.81, 532.16 116.36, 540.52 125.57 C548.88 134.78, 549.10 140.34, 547.84 141.08 M444.27 74.74 C456.16 72.65, 466.35 76.63, 478.40 80.11 C490.45 83.59, 506.63 87.94, 516.59 95.61 C526.55 103.28, 532.37 115.06, 538.16 126.13 C543.94 137.20, 548.50 150.14, 551.30 162.03 C554.10 173.92, 556.79 186.12, 554.95 197.47 C553.12 208.82, 547.67 220.32, 540.28 230.12 C532.90 239.92, 521.36 249.03, 510.62 256.28 C499.89 263.53, 487.61 270.83, 475.87 273.63 C464.14 276.43, 452.42 274.75, 440.22 273.09 C428.02 271.42, 414.32 268.83, 402.67 263.64 C391.02 258.45, 378.45 250.80, 370.34 241.95 C362.24 233.11, 358.43 221.41, 354.05 210.56 C349.66 199.72, 344.50 188.95, 344.04 176.86 C343.59 164.78, 346.27 150.01, 351.33 138.04 C356.39 126.07, 365.40 114.04, 374.39 105.05 C383.38 96.06, 393.87 88.97, 405.29 84.12 C416.71 79.27, 436.43 77.49, 442.89 75.94 C449.36 74.39, 444.23 72.72, 444.09 74.81" fill="#faf7ef" stroke="none"/><path d="M468.92 76.67 C481.34 76.62, 493.63 82.73, 503.86 88.97 C514.09 95.21, 522.74 104.70, 530.30 114.11 C537.85 123.52, 545.49 133.83, 549.19 145.44 C552.88 157.05, 553.29 171.50, 552.45 183.77 C551.61 196.04, 549.45 208.27, 544.14 219.08 C538.82 229.89, 529.56 240.42, 520.54 248.64 C511.52 256.86, 501.19 263.76, 490.01 268.40 C478.83 273.03, 465.81 276.41, 453.45 276.45 C441.09 276.49, 428.05 273.03, 415.84 268.64 C403.63 264.24, 389.98 257.83, 380.18 250.08 C370.37 242.32, 362.55 232.76, 356.99 222.08 C351.44 211.41, 348.18 197.71, 346.84 186.04 C345.51 174.37, 346.10 163.76, 348.99 152.06 C351.89 140.35, 357.14 126.20, 364.21 115.80 C371.28 105.39, 380.54 96.28, 391.42 89.64 C402.30 83.00, 410.84 75.88, 429.48 75.95 C448.13 76.02, 486.20 83.50, 503.29 90.05 C520.37 96.59, 532.60 113.94, 532.00 115.22 M417.51 82.68 C428.84 78.15, 448.01 75.30, 460.50 76.08 C472.99 76.85, 481.98 82.09, 492.48 87.34 C502.97 92.59, 514.12 98.64, 523.49 107.57 C532.85 116.49, 543.15 129.40, 548.68 140.87 C554.21 152.34, 556.83 164.96, 556.68 176.39 C556.53 187.82, 552.26 198.24, 547.79 209.45 C543.32 220.66, 538.07 234.49, 529.86 243.65 C521.65 252.82, 509.65 259.24, 498.55 264.44 C487.45 269.64, 476.12 273.29, 463.28 274.85 C450.45 276.42, 433.96 276.93, 421.55 273.85 C409.14 270.77, 398.94 263.10, 388.81 256.37 C378.69 249.63, 367.43 243.38, 360.79 233.44 C354.16 223.50, 351.63 209.11, 349.00 196.73 C346.36 184.36, 343.53 171.65, 344.99 159.19 C346.45 146.73, 351.40 132.26, 357.78 121.98 C364.15 111.70, 372.76 104.44, 383.24 97.52 C393.71 90.61, 414.10 83.25, 420.64 80.47 C427.18 77.70, 422.31 79.54, 422.47 80.87" fill="none" stroke="#202020" stroke-width="2" stroke-linecap="round" stroke-linejoin="round"/><path d="M653.82 -29.11 C676.74 -46.40, 692.76 -66.16, 733.26 -112.37 M655.07 -31.79 C679.20 -56.09, 706.38 -80.98, 736.31 -109.85" fill="none" stroke="#202020" stroke-width="2" stroke-linecap="round" stroke-linejoin="round"/><path d="M654.72 383.30 C681.41 406.71, 704.82 434.09, 734.84 466.09 M654.71 383.69 C687.24 415.10, 716.37 445.37, 735.82 463.18" fill="none" stroke="#202020" stroke-width="2" stroke-linecap="round" stroke-linejoin="round"/><path d="M246.23 385.42 C215.35 409.93, 182.40 440.02, 162.70 464.04 M242.58 382.03 C224.63 402.69, 203.05 421.28, 163.95 463.33" fill="none" stroke="#202020" stroke-width="2" stroke-linecap="round" stroke-linejoin="round"/><path d="M240.98 -32.86 C218.44 -49.65, 196.83 -75.65, 161.79 -112.67 M245.06 -31.77 C213.00 -57.85, 183.05 -90.15, 162.19 -111.61" fill="none" stroke="#202020" stroke-width="2" stroke-linecap="round" stroke-linejoin="round"/></svg>