<svg xmlns="http://www.w3.org/2000/svg" viewBox="0 0 900 320" width="900" height="320"><path d="M13.49 13.40 C288.79 19.11, 561.91 16.72, 886.64 12.52 M14.72 14.39 C257.44 9.28, 500.92 8.85, 886.48 14.57 M885.27 11.55 C891.01 122.04, 891.40 234.15, 884.12 304.69 M886.10 14.91 C889.72 118.17, 888.13 221.50, 886.73 304.88 M885.88 306.26 C611.52 299.06, 336.10 300.82, 14.30 305.48 M886.15 305.54 C647.60 308.37, 408.16 307.08, 14.27 306.43 M12.37 305.62 C14.11 195.78, 13.99 82.82, 11.98 14.05 M13.82 307.38 C17.69 238.30, 17.45 172.56, 14.20 14.37" fill="none" stroke="#202020" stroke-width="2" stroke-linecap="round" stroke-linejoin="round"/><path d="M26.67 33.54 C266.88 38.71, 506.62 37.21, 871.10 30.51 M27.42 31.68 C202.00 36.04, 376.57 35.37, 872.03 32.15" fill="none" stroke="#202020" stroke-width="2" stroke-linecap="round" stroke-linejoin="round"/><path d="M28.41 116.58 C304.60 116.27, 576.62 115.01, 872.09 116.31 M27.46 117.96 C263.35 110.61, 498.66 110.44, 871.69 116.86" fill="none" stroke="#202020" stroke-width="2" stroke-linecap="round" stroke-linejoin="round"/><path d="M29.21 201.92 C219.46 201.43, 412.93 204.13, 872.17 202.15 M27.23 202.86 C211.32 201.67, 392.86 201.29, 872.65 202.94" fill="none" stroke="#202020" stroke-width="2" stroke-linecap="round" stroke-linejoin="round"/><path d="M26.80 286.44 C251.95 286.49, 476.72 287.20, 870.41 288.59 M27.32 287.91 C345.97 292.76, 664.37 292.93, 871.43 287.95" fill="none" stroke="#202020" stroke-width="2" stroke-linecap="round" stroke-linejoin="round"/></svg>