<svg xmlns="http://www.w3.org/2000/svg" viewBox="0 0 900 300" width="900" height="300"><path d="M529.62 90.02 C536.88 100.03, 543.36 114.72, 546.30 127.90 C549.25 141.08, 549.16 155.69, 547.28 169.08 C545.41 182.47, 541.41 197.14, 535.04 208.23 C528.68 219.32, 518.71 227.25, 509.09 235.60 C499.48 243.95, 488.27 254.07, 477.34 258.32 C466.41 262.58, 454.76 262.13, 443.50 261.14 C432.24 260.15, 420.27 257.80, 409.77 252.38 C399.27 246.97, 388.88 238.55, 380.50 228.63 C372.12 218.71, 364.39 205.31, 359.47 192.87 C354.56 180.42, 351.36 167.53, 351.00 153.95 C350.65 140.36, 353.11 124.29, 357.36 111.35 C361.61 98.41, 368.82 86.06, 376.48 76.31 C384.15 66.57, 392.70 58.81, 403.36 52.88 C414.02 46.95, 428.59 42.54, 440.45 40.73 C452.32 38.92, 463.57 39.11, 474.54 42.01 C485.51 44.90, 495.68 48.32, 506.26 58.09 C516.83 67.87, 532.27 90.98, 538.00 100.64 C543.73 110.29, 542.37 115.12, 540.62 116.01 M440.97 35.96 C452.81 33.43, 469.33 38.16, 480.43 42.72 C491.54 47.28, 498.78 55.51, 507.57 63.31 C516.36 71.11, 527.00 78.40, 533.19 89.51 C539.37 100.62, 542.27 116.01, 544.69 129.98 C547.11 143.95, 549.78 159.58, 547.68 173.34 C545.58 187.10, 538.31 201.31, 532.08 212.54 C525.85 223.78, 519.56 233.20, 510.30 240.75 C501.05 248.30, 487.99 254.86, 476.56 257.85 C465.13 260.84, 453.05 259.67, 441.72 258.68 C430.39 257.70, 419.02 257.84, 408.55 251.95 C398.09 246.06, 386.77 233.85, 378.93 223.37 C371.09 212.88, 366.11 201.35, 361.53 189.06 C356.94 176.77, 351.26 162.58, 351.42 149.63 C351.57 136.68, 357.42 124.33, 362.47 111.36 C367.53 98.38, 374.10 81.99, 381.73 71.80 C389.37 61.61, 398.04 55.80, 408.29 50.21 C418.53 44.63, 437.45 39.96, 443.20 38.29 C448.96 36.62, 442.98 38.04, 442.83 40.19" fill="#faf7ef" stroke="none"/><path d="M458.20 38.22 C469.22 37.29, 481.74 42.86, 492.47 48.84 C503.21 54.81, 514.84 64.36, 522.60 74.07 C530.37 83.77, 535.08 94.64, 539.04 107.07 C543.00 119.49, 546.31 134.66, 546.36 148.61 C546.41 162.57, 543.23 178.12, 539.33 190.81 C535.43 203.50, 530.52 215.24, 522.95 224.77 C515.38 234.29, 504.18 241.76, 493.91 247.95 C483.64 254.14, 472.61 260.39, 461.33 261.91 C450.04 263.43, 437.79 260.66, 426.20 257.07 C414.62 253.48, 401.37 248.05, 391.82 240.37 C382.27 232.69, 374.94 222.58, 368.88 210.99 C362.83 199.40, 357.73 184.14, 355.48 170.82 C353.23 157.50, 353.56 144.10, 355.40 131.07 C357.24 118.05, 360.76 104.54, 366.52 92.67 C372.29 80.81, 380.46 67.87, 390.01 59.90 C399.56 51.94, 407.30 46.87, 423.84 44.87 C440.38 42.87, 473.83 43.24, 489.27 47.89 C504.70 52.54, 516.81 70.95, 516.46 72.77 M493.91 51.07 C504.66 55.02, 511.87 65.65, 519.06 75.47 C526.25 85.28, 532.03 97.77, 537.07 109.94 C542.10 122.12, 548.88 135.46, 549.27 148.50 C549.66 161.54, 543.56 175.28, 539.40 188.17 C535.24 201.05, 531.48 215.67, 524.30 225.81 C517.11 235.95, 507.06 242.81, 496.30 249.01 C485.55 255.21, 471.22 261.24, 459.77 262.99 C448.32 264.74, 438.94 263.13, 427.63 259.52 C416.31 255.92, 401.64 249.01, 391.88 241.36 C382.12 233.71, 375.56 224.77, 369.05 213.62 C362.54 202.48, 355.65 188.05, 352.83 174.49 C350.01 160.93, 350.13 145.41, 352.14 132.25 C354.16 119.09, 359.19 106.89, 364.93 95.54 C370.67 84.19, 377.44 72.54, 386.59 64.14 C395.75 55.75, 407.86 49.69, 419.86 45.19 C431.86 40.69, 446.95 36.48, 458.57 37.12 C470.20 37.76, 483.79 46.46, 489.60 49.03 C495.42 51.60, 494.31 50.85, 493.45 52.52" fill="none" stroke="#202020" stroke-width="2" stroke-linecap="round" stroke-linejoin="round"/><path d="M450.78 50.62 C449.83 50.00, 450.79 48.43, 450.28 47.07 M450.16 51.19 C449.95 49.66, 449.98 48.40, 449.68 46.87" fill="none" stroke="#202020" stroke-width="2" stroke-linecap="round" stroke-linejoin="round"/><path d="M499.85 63.56 C499.54 63.02, 499.98 62.72, 501.35 60.55 M499.38 64.30 C500.27 62.89, 500.40 61.77, 501.58 60.51" fill="none" stroke="#202020" stroke-width="2" stroke-linecap="round" stroke-linejoin="round"/><path d="M535.44 101.19 C537.25 99.17, 537.77 99.90, 538.95 98.13 M535.88 100.14 C537.16 99.73, 537.72 98.97, 539.47 98.86" fill="none" stroke="#202020" stroke-width="2" stroke-linecap="round" stroke-linejoin="round"/><path d="M548.73 150.01 C549.99 149.47, 550.98 149.95, 553.60 150.17 M548.92 149.78 C550.16 150.01, 551.21 149.64, 553.14 149.97" fill="none" stroke="#202020" stroke-width="2" stroke-linecap="round" stroke-linejoin="round"/><path d="M535.47 199.64 C536.33 200.33, 538.38 200.50, 538.44 201.51 M535.96 199.63 C537.24 200.51, 538.14 200.90, 538.89 201.88" fill="none" stroke="#202020" stroke-width="2" stroke-linecap="round" stroke-linejoin="round"/><path d="M499.07 235.74 C500.25 236.53, 500.82 237.08, 501.74 239.25 M499.11 235.93 C499.57 236.15, 500.44 237.28, 501.21 239.27" fill="none" stroke="#202020" stroke-width="2" stroke-linecap="round" stroke-linejoin="round"/><path d="M449.28 249.13 C450.74 250.01, 450.42 251.79, 449.41 252.30 M449.83 249.23 C449.99 250.26, 449.61 250.95, 449.61 253.05" fill="none" stroke="#202020" stroke-width="2" stroke-linecap="round" stroke-linejoin="round"/><path d="M400.38 236.43 C400.31 236.98, 399.60 237.60, 399.02 238.43 M400.55 235.57 C399.94 237.40, 398.82 238.29, 398.82 239.58" fill="none" stroke="#202020" stroke-width="2" stroke-linecap="round" stroke-linejoin="round"/><path d="M364.92 199.42 C362.72 200.64, 361.99 200.94, 361.36 201.64 M364.39 199.23 C363.34 199.67, 361.86 200.69, 360.86 201.50" fill="none" stroke="#202020" stroke-width="2" stroke-linecap="round" stroke-linejoin="round"/><path d="M350.86 150.73 C349.70 150.58, 349.12 150.28, 346.34 149.94 M351.30 150.23 C349.77 149.72, 348.34 150.06, 346.65 150.27" fill="none" stroke="#202020" stroke-width="2" stroke-linecap="round" stroke-linejoin="round"/><path d="M364.95 100.92 C363.27 99.61, 362.74 98.68, 361.42 98.98 M364.40 100.61 C363.50 100.13, 362.44 99.45, 360.98 98.20" fill="none" stroke="#202020" stroke-width="2" stroke-linecap="round" stroke-linejoin="round"/><path d="M399.90 63.76 C399.98 63.78, 400.27 63.30, 398.09 61.53 M400.85 64.31 C399.97 62.90, 399.57 62.23, 398.37 60.51" fill="none" stroke="#202020" stroke-width="2" stroke-linecap="round" stroke-linejoin="round"/><path d="M449.53 149.48 C460.93 161.96, 466.22 179.76, 483.82 204.84 M451.49 148.87 C457.83 164.09, 467.93 175.16, 485.66 199.47" fill="none" stroke="#202020" stroke-width="2" stroke-linecap="round" stroke-linejoin="round"/></svg>