<svg xmlns="http://www.w3.org/2000/svg" viewBox="0 0 960 420" width="960" height="420"><path d="M487.62 52.55 C501.50 50.77, 514.90 58.58, 528.08 64.13 C541.26 69.69, 555.40 76.16, 566.69 85.89 C577.97 95.61, 588.19 108.63, 595.79 122.48 C603.39 136.34, 608.53 153.30, 612.31 169.03 C616.09 184.75, 618.46 200.58, 618.48 216.84 C618.49 233.10, 617.51 251.49, 612.39 266.59 C607.28 281.70, 596.90 294.73, 587.78 307.45 C578.67 320.16, 569.66 334.02, 557.70 342.87 C545.74 351.72, 530.25 356.42, 516.05 360.53 C501.84 364.64, 486.43 368.16, 472.46 367.53 C458.48 366.90, 445.39 362.20, 432.19 356.75 C418.98 351.30, 404.77 344.78, 393.22 334.83 C381.68 324.87, 371.12 310.96, 362.92 297.02 C354.73 283.07, 347.90 266.73, 344.05 251.16 C340.20 235.59, 339.07 219.83, 339.81 203.60 C340.55 187.36, 343.28 169.17, 348.49 153.75 C353.70 138.34, 361.69 123.76, 371.05 111.10 C380.42 98.45, 392.68 86.45, 404.70 77.84 C416.71 69.22, 421.52 61.39, 443.13 59.41 C464.75 57.43, 512.26 59.35, 534.39 65.96 C556.51 72.58, 577.02 96.73, 575.88 99.11 M543.63 72.36 C557.04 77.41, 571.63 90.44, 581.76 101.64 C591.89 112.84, 598.84 125.98, 604.44 139.57 C610.03 153.15, 612.77 167.19, 615.32 183.15 C617.87 199.11, 621.52 219.19, 619.76 235.33 C618.00 251.47, 611.31 265.28, 604.74 279.98 C598.17 294.68, 590.64 312.26, 580.36 323.55 C570.08 334.83, 556.70 340.39, 543.04 347.69 C529.38 354.98, 512.87 364.58, 498.40 367.32 C483.92 370.07, 469.70 366.62, 456.17 364.16 C442.63 361.70, 429.91 359.53, 417.18 352.57 C404.45 345.60, 390.41 334.02, 379.79 322.38 C369.17 310.74, 359.51 297.87, 353.48 282.76 C347.44 267.64, 345.01 248.31, 343.56 231.68 C342.11 215.06, 343.06 198.20, 344.76 183.01 C346.47 167.82, 347.79 154.27, 353.80 140.55 C359.80 126.84, 370.00 112.43, 380.79 100.72 C391.59 89.01, 405.83 78.25, 418.58 70.29 C431.33 62.34, 443.73 55.93, 457.30 53.01 C470.87 50.08, 485.60 49.49, 500.00 52.73 C514.40 55.96, 536.59 68.81, 543.68 72.43 C550.77 76.06, 544.07 72.41, 542.54 74.47" fill="#faf7ef" stroke="none"/><path d="M570.03 90.33 C581.29 98.46, 590.39 114.13, 598.02 128.21 C605.66 142.30, 612.35 158.89, 615.85 174.82 C619.34 190.74, 620.33 207.62, 618.99 223.77 C617.65 239.92, 613.14 257.14, 607.81 271.70 C602.48 286.27, 596.03 298.85, 587.02 311.14 C578.01 323.43, 566.24 336.67, 553.74 345.44 C541.23 354.22, 526.09 360.36, 511.99 363.78 C497.89 367.21, 483.66 367.41, 469.13 366.00 C454.59 364.59, 438.18 361.75, 424.79 355.34 C411.41 348.93, 399.22 338.43, 388.82 327.56 C378.42 316.70, 369.49 303.67, 362.39 290.17 C355.28 276.67, 349.80 261.85, 346.22 246.58 C342.63 231.32, 340.29 215.07, 340.87 198.57 C341.46 182.07, 343.82 162.59, 349.73 147.59 C355.64 132.59, 366.78 120.56, 376.34 108.58 C385.89 96.60, 394.75 84.34, 407.07 75.73 C419.38 67.13, 436.13 60.40, 450.23 56.95 C464.33 53.50, 477.39 53.63, 491.67 55.05 C505.94 56.47, 517.64 52.94, 535.88 65.48 C554.11 78.01, 588.04 110.83, 601.06 130.26 C614.09 149.69, 616.42 180.53, 614.03 182.05 M494.99 52.06 C508.42 51.36, 522.18 59.84, 535.02 66.56 C547.86 73.27, 560.96 81.23, 572.03 92.33 C583.09 103.43, 593.78 118.32, 601.39 133.14 C609.01 147.95, 614.70 165.58, 617.70 181.21 C620.70 196.83, 621.66 211.60, 619.39 226.89 C617.13 242.17, 610.23 258.41, 604.13 272.91 C598.03 287.42, 591.80 301.45, 582.77 313.91 C573.75 326.37, 562.18 339.06, 549.98 347.69 C537.78 356.32, 523.61 363.04, 509.59 365.68 C495.56 368.32, 480.61 365.83, 465.82 363.52 C451.03 361.21, 434.10 357.83, 420.85 351.81 C407.59 345.79, 396.76 338.49, 386.30 327.41 C375.84 316.32, 365.39 299.95, 358.07 285.30 C350.75 270.65, 345.38 254.81, 342.37 239.51 C339.36 224.21, 337.75 209.65, 340.01 193.49 C342.26 177.32, 349.65 157.90, 355.92 142.51 C362.19 127.12, 368.58 112.28, 377.64 101.14 C386.69 90.00, 397.46 83.31, 410.24 75.66 C423.01 68.00, 439.58 58.96, 454.28 55.19 C468.99 51.42, 492.09 52.62, 498.47 53.05 C504.85 53.49, 493.10 54.80, 492.54 57.82" fill="none" stroke="#202020" stroke-width="2" stroke-linecap="round" stroke-linejoin="round"/><path d="M480.44 68.55 C479.70 68.54, 479.37 67.04, 479.98 65.18 M480.31 68.82 C480.12 68.20, 479.95 66.84, 480.17 64.85" fill="none" stroke="#202020" stroke-width="2" stroke-linecap="round" stroke-linejoin="round"/><path d="M549.98 88.61 C550.42 86.13, 551.59 86.42, 552.91 84.29 M550.13 87.87 C550.85 86.41, 551.67 85.53, 552.23 84.42" fill="none" stroke="#202020" stroke-width="2" stroke-linecap="round" stroke-linejoin="round"/><path d="M601.49 139.48 C603.36 138.35, 603.90 138.44, 606.04 136.86 M602.10 139.89 C603.09 138.42, 604.54 137.68, 605.18 137.54" fill="none" stroke="#202020" stroke-width="2" stroke-linecap="round" stroke-linejoin="round"/><path d="M620.90 209.26 C622.09 209.98, 623.56 210.36, 625.49 210.60 M621.22 209.68 C622.02 210.07, 622.99 209.88, 624.71 209.78" fill="none" stroke="#202020" stroke-width="2" stroke-linecap="round" stroke-linejoin="round"/><path d="M601.73 279.85 C602.62 280.50, 602.94 281.39, 605.69 283.25 M602.21 280.75 C603.54 281.52, 604.65 281.63, 605.23 282.15" fill="none" stroke="#202020" stroke-width="2" stroke-linecap="round" stroke-linejoin="round"/><path d="M550.42 332.72 C550.61 332.47, 552.20 333.84, 552.54 335.44 M550.37 332.35 C551.39 332.57, 551.15 333.62, 552.68 335.72" fill="none" stroke="#202020" stroke-width="2" stroke-linecap="round" stroke-linejoin="round"/><path d="M479.34 350.25 C479.45 352.63, 480.46 354.19, 479.59 355.26 M480.17 350.91 C479.73 352.14, 480.22 353.03, 479.70 355.33" fill="none" stroke="#202020" stroke-width="2" stroke-linecap="round" stroke-linejoin="round"/><path d="M409.64 332.49 C409.46 333.26, 407.55 335.00, 407.57 335.61 M409.58 332.12 C408.59 333.38, 407.90 334.55, 407.79 335.70" fill="none" stroke="#202020" stroke-width="2" stroke-linecap="round" stroke-linejoin="round"/><path d="M357.22 280.38 C356.88 281.58, 355.38 281.58, 353.85 282.97 M358.03 280.70 C356.46 281.37, 355.64 281.43, 354.67 282.55" fill="none" stroke="#202020" stroke-width="2" stroke-linecap="round" stroke-linejoin="round"/><path d="M338.82 210.79 C337.62 209.76, 336.42 210.01, 335.14 210.56 M339.10 210.32 C337.94 209.65, 336.53 209.61, 334.85 210.37" fill="none" stroke="#202020" stroke-width="2" stroke-linecap="round" stroke-linejoin="round"/><path d="M357.74 138.87 C357.56 138.46, 356.91 138.78, 354.81 138.25 M357.67 139.30 C356.88 138.61, 355.51 137.74, 354.69 137.19" fill="none" stroke="#202020" stroke-width="2" stroke-linecap="round" stroke-linejoin="round"/><path d="M410.09 87.91 C409.16 86.73, 408.43 85.07, 408.10 84.09 M409.81 87.84 C408.62 86.95, 408.92 86.27, 407.70 84.12" fill="none" stroke="#202020" stroke-width="2" stroke-linecap="round" stroke-linejoin="round"/><path d="M482.06 207.65 C494.56 233.93, 503.44 251.63, 532.69 285.12 M478.46 210.52 C493.55 229.63, 507.41 250.56, 530.86 283.20" fill="none" stroke="#202020" stroke-width="2" stroke-linecap="round" stroke-linejoin="round"/></svg>