<svg xmlns="http://www.w3.org/2000/svg" viewBox="0 0 900 320" width="900" height="320"><path d="M535.95 95.35 C545.87 102.50, 550.78 112.25, 555.35 123.24 C559.91 134.23, 563.22 148.99, 563.34 161.27 C563.46 173.56, 561.33 185.44, 556.06 196.94 C550.79 208.43, 540.91 220.96, 531.69 230.24 C522.48 239.52, 512.85 247.73, 500.76 252.62 C488.68 257.52, 473.29 258.82, 459.16 259.60 C445.04 260.38, 429.33 260.50, 415.99 257.29 C402.65 254.08, 390.04 248.21, 379.13 240.35 C368.21 232.50, 357.17 220.99, 350.50 210.14 C343.82 199.30, 341.21 187.07, 339.08 175.29 C336.95 163.51, 334.95 150.97, 337.73 139.44 C340.51 127.92, 348.21 116.31, 355.75 106.15 C363.30 95.99, 372.31 85.68, 383.00 78.49 C393.69 71.30, 406.43 66.11, 419.88 62.99 C433.34 59.86, 449.99 58.80, 463.72 59.74 C477.46 60.68, 489.43 61.85, 502.30 68.60 C515.17 75.35, 534.17 94.27, 540.93 100.23 C547.69 106.19, 544.69 103.44, 542.88 104.36 M403.16 67.29 C415.04 61.44, 433.60 59.10, 447.78 58.62 C461.95 58.13, 475.67 60.47, 488.20 64.40 C500.73 68.33, 513.12 74.01, 522.97 82.18 C532.81 90.35, 540.99 102.15, 547.29 113.43 C553.58 124.72, 558.98 137.68, 560.74 149.89 C562.49 162.09, 561.10 175.50, 557.82 186.67 C554.54 197.84, 547.93 207.64, 541.05 216.90 C534.18 226.16, 527.90 235.04, 516.56 242.24 C505.21 249.44, 486.78 257.06, 472.98 260.10 C459.19 263.14, 447.02 262.45, 433.81 260.48 C420.59 258.51, 405.78 254.17, 393.67 248.28 C381.57 242.40, 369.82 234.62, 361.18 225.17 C352.53 215.73, 345.77 203.28, 341.81 191.61 C337.85 179.94, 336.41 167.82, 337.43 155.15 C338.45 142.49, 342.83 126.62, 347.94 115.62 C353.05 104.63, 359.04 97.62, 368.07 89.19 C377.10 80.77, 396.19 68.41, 402.14 65.06 C408.08 61.71, 402.29 66.87, 403.76 69.07" fill="#faf7ef" stroke="none"/><path d="M489.08 65.65 C501.62 68.02, 513.73 75.22, 523.85 83.36 C533.96 91.51, 542.90 103.46, 549.77 114.53 C556.65 125.59, 563.28 138.17, 565.12 149.77 C566.96 161.37, 564.41 172.56, 560.82 184.12 C557.23 195.68, 551.95 208.83, 543.59 219.12 C535.23 229.41, 522.18 239.39, 510.68 245.87 C499.17 252.36, 487.95 256.05, 474.57 258.05 C461.19 260.04, 444.28 259.85, 430.39 257.84 C416.49 255.84, 403.12 251.72, 391.20 246.01 C379.28 240.31, 367.27 233.22, 358.87 223.59 C350.47 213.97, 344.74 200.21, 340.80 188.26 C336.87 176.31, 333.94 163.58, 335.25 151.88 C336.55 140.17, 342.37 129.04, 348.66 118.03 C354.95 107.02, 363.60 94.42, 372.98 85.79 C382.37 77.16, 392.66 70.77, 404.98 66.27 C417.29 61.77, 430.28 57.86, 446.87 58.80 C463.45 59.74, 492.53 68.13, 504.50 71.91 C516.46 75.68, 519.43 79.98, 518.66 81.45 M518.71 81.18 C530.08 86.29, 540.69 96.18, 548.28 106.28 C555.87 116.37, 562.04 129.32, 564.23 141.73 C566.42 154.14, 564.18 168.72, 561.43 180.72 C558.67 192.72, 555.15 203.94, 547.70 213.72 C540.25 223.51, 527.82 232.55, 516.73 239.43 C505.63 246.31, 494.15 251.27, 481.16 254.97 C468.16 258.67, 452.19 262.73, 438.76 261.63 C425.33 260.53, 412.46 253.80, 400.57 248.38 C388.68 242.96, 376.43 237.95, 367.44 229.11 C358.45 220.28, 352.06 206.84, 346.64 195.38 C341.22 183.93, 335.87 172.28, 334.91 160.38 C333.95 148.47, 335.95 135.40, 340.89 123.94 C345.82 112.48, 354.98 100.91, 364.51 91.63 C374.05 82.34, 386.00 73.37, 398.09 68.23 C410.17 63.09, 423.09 61.59, 437.02 60.80 C450.96 60.01, 467.62 60.57, 481.70 63.47 C495.77 66.37, 515.32 75.61, 521.49 78.21 C527.65 80.80, 520.07 77.64, 518.69 79.03" fill="none" stroke="#202020" stroke-width="2" stroke-linecap="round" stroke-linejoin="round"/><path d="M450.33 53.89 C449.34 53.20, 450.22 51.43, 450.52 50.36 M449.92 53.67 C449.84 52.53, 449.66 51.40, 449.88 49.67" fill="none" stroke="#202020" stroke-width="2" stroke-linecap="round" stroke-linejoin="round"/><path d="M503.79 68.59 C502.83 67.37, 503.95 66.38, 505.18 64.22 M503.27 68.12 C503.86 66.86, 504.32 65.63, 505.01 64.67" fill="none" stroke="#202020" stroke-width="2" stroke-linecap="round" stroke-linejoin="round"/><path d="M542.30 106.32 C542.30 107.06, 544.50 105.73, 545.51 105.13 M542.13 106.85 C542.86 106.53, 543.59 105.65, 545.56 104.97" fill="none" stroke="#202020" stroke-width="2" stroke-linecap="round" stroke-linejoin="round"/><path d="M556.11 159.86 C557.49 159.98, 558.93 160.10, 559.26 159.78 M556.17 160.21 C557.49 160.09, 559.24 160.10, 560.34 159.91" fill="none" stroke="#202020" stroke-width="2" stroke-linecap="round" stroke-linejoin="round"/><path d="M541.45 213.23 C543.76 213.09, 544.27 214.59, 544.71 214.24 M542.06 212.98 C542.75 213.91, 543.94 213.79, 544.93 214.87" fill="none" stroke="#202020" stroke-width="2" stroke-linecap="round" stroke-linejoin="round"/><path d="M503.64 251.64 C504.31 252.19, 504.78 253.13, 504.58 256.03 M502.92 251.68 C503.52 252.99, 503.97 253.55, 504.69 254.97" fill="none" stroke="#202020" stroke-width="2" stroke-linecap="round" stroke-linejoin="round"/><path d="M450.23 265.88 C450.72 267.44, 450.18 268.69, 449.86 269.43 M450.39 266.01 C450.23 267.40, 450.00 269.08, 449.77 270.19" fill="none" stroke="#202020" stroke-width="2" stroke-linecap="round" stroke-linejoin="round"/><path d="M397.38 251.39 C395.84 253.26, 395.67 253.82, 394.34 254.71 M396.77 252.13 C396.47 252.81, 395.76 254.11, 394.82 255.26" fill="none" stroke="#202020" stroke-width="2" stroke-linecap="round" stroke-linejoin="round"/><path d="M358.75 212.70 C357.22 214.11, 355.42 214.07, 355.09 215.54 M358.48 212.86 C356.97 213.47, 356.24 214.32, 354.41 215.15" fill="none" stroke="#202020" stroke-width="2" stroke-linecap="round" stroke-linejoin="round"/><path d="M344.56 160.09 C343.03 159.49, 341.82 160.67, 339.30 160.21 M343.83 159.92 C342.47 160.11, 341.11 159.94, 339.96 160.13" fill="none" stroke="#202020" stroke-width="2" stroke-linecap="round" stroke-linejoin="round"/><path d="M358.91 106.21 C357.10 105.95, 356.80 106.30, 354.17 104.94 M358.40 106.71 C357.49 106.28, 355.84 105.67, 354.96 104.91" fill="none" stroke="#202020" stroke-width="2" stroke-linecap="round" stroke-linejoin="round"/><path d="M396.43 67.78 C396.30 67.32, 394.84 66.19, 395.08 64.96 M396.78 68.40 C396.57 67.73, 396.14 66.77, 395.23 64.85" fill="none" stroke="#202020" stroke-width="2" stroke-linecap="round" stroke-linejoin="round"/><path d="M446.78 157.21 C460.98 176.49, 475.61 195.40, 490.06 212.05 M448.92 161.62 C457.35 174.08, 464.03 183.23, 489.01 214.93" fill="none" stroke="#202020" stroke-width="2" stroke-linecap="round" stroke-linejoin="round"/></svg>