<svg xmlns="http://www.w3.org/2000/svg" viewBox="0 0 900 320" width="900" height="320"><path d="M14.90 12.60 C328.92 15.64, 639.93 15.34, 885.05 14.93 M13.46 13.60 C265.23 10.87, 516.74 11.31, 886.54 13.30 M884.56 14.90 C890.93 108.96, 892.28 197.62, 883.14 308.21 M887.28 12.66 C886.14 84.01, 884.91 157.80, 885.38 305.60 M886.87 307.53 C694.76 311.91, 504.27 310.35, 13.69 306.90 M885.85 305.82 C561.78 303.56, 236.44 302.85, 13.75 306.54 M14.73 303.09 C9.19 232.31, 14.10 160.46, 15.02 12.95 M12.85 307.11 C10.21 213.94, 10.11 123.03, 14.89 15.16" fill="none" stroke="#202020" stroke-width="2" stroke-linecap="round" stroke-linejoin="round"/><path d="M27.28 32.75 C251.68 30.02, 477.10 29.06, 873.24 30.45 M27.81 31.95 C364.41 31.96, 700.99 31.55, 872.27 31.48" fill="none" stroke="#202020" stroke-width="2" stroke-linecap="round" stroke-linejoin="round"/><path d="M28.79 117.67 C206.12 113.53, 380.62 113.27, 872.73 116.15 M27.32 117.02 C255.19 113.74, 481.79 113.96, 871.37 117.45" fill="none" stroke="#202020" stroke-width="2" stroke-linecap="round" stroke-linejoin="round"/><path d="M27.44 204.26 C341.40 208.68, 653.90 208.17, 873.44 201.54 M28.45 203.30 C326.62 201.80, 625.54 202.74, 872.19 202.83" fill="none" stroke="#202020" stroke-width="2" stroke-linecap="round" stroke-linejoin="round"/><path d="M27.45 286.87 C279.77 284.30, 530.83 285.91, 873.34 288.69 M27.92 287.62 C329.66 286.83, 632.86 285.43, 872.26 288.27" fill="none" stroke="#202020" stroke-width="2" stroke-linecap="round" stroke-linejoin="round"/></svg>