<svg xmlns="http://www.w3.org/2000/svg" viewBox="0 0 900 300" width="900" height="300"><path d="M344.67 45.95 L557.12 47.97 L555.36 253.00 L343.91 253.31" fill="#faf7ef" stroke="none"/><path d="M344.62 46.59 C423.19 49.83, 497.48 48.46, 558.15 46.89 M345.16 44.92 C428.63 46.61, 511.87 45.16, 556.66 46.61 M553.81 45.86 C550.99 124.64, 555.59 213.10, 556.62 257.23 M554.10 45.99 C557.15 107.17, 556.31 171.00, 556.22 253.84 M556.28 255.07 C476.57 253.55, 395.38 252.35, 342.80 256.27 M554.48 255.79 C506.92 254.31, 460.83 256.32, 346.67 253.94 M348.33 254.56 C339.84 171.20, 343.05 91.35, 344.31 44.48 M345.12 253.69 C342.90 191.66, 344.09 124.53, 343.63 45.93" fill="none" stroke="#202020" stroke-width="2" stroke-linecap="round" stroke-linejoin="round"/><path d="M410.59 83.78 C413.77 86.36, 417.94 91.14, 418.44 95.38 C418.94 99.62, 415.93 105.57, 413.60 109.22 C411.28 112.86, 408.58 116.09, 404.52 117.26 C400.46 118.43, 393.47 117.60, 389.24 116.23 C385.01 114.85, 381.03 112.79, 379.12 109.00 C377.22 105.21, 376.49 97.87, 377.82 93.50 C379.15 89.12, 383.51 85.17, 387.12 82.76 C390.73 80.35, 394.27 77.43, 399.48 79.01 C404.69 80.60, 415.67 87.82, 418.37 92.24 C421.08 96.67, 416.21 105.38, 415.69 105.59 M409.33 80.35 C413.43 81.66, 415.76 84.12, 416.41 88.46 C417.07 92.81, 414.26 102.30, 413.24 106.43 C412.22 110.56, 413.50 111.91, 410.30 113.23 C407.10 114.55, 398.26 114.47, 394.06 114.35 C389.87 114.22, 388.26 115.42, 385.14 112.49 C382.02 109.57, 375.44 101.11, 375.34 96.78 C375.24 92.46, 381.81 89.33, 384.53 86.55 C387.25 83.78, 388.00 81.01, 391.67 80.14 C395.34 79.26, 403.75 81.59, 406.55 81.32 C409.35 81.05, 408.23 78.06, 408.48 78.51" fill="#faf7ef" stroke="none"/><path d="M405.77 77.68 C409.42 79.02, 412.11 84.13, 414.02 88.16 C415.94 92.18, 417.80 98.08, 417.26 101.86 C416.73 105.63, 414.17 108.04, 410.83 110.78 C407.49 113.52, 401.24 118.23, 397.23 118.30 C393.22 118.37, 390.08 114.38, 386.75 111.20 C383.43 108.02, 378.52 102.88, 377.30 99.22 C376.08 95.56, 376.90 92.50, 379.43 89.24 C381.97 85.99, 387.50 81.05, 392.52 79.70 C397.53 78.35, 405.67 79.50, 409.53 81.13 C413.39 82.77, 415.70 89.36, 415.67 89.52 M405.36 77.82 C409.13 79.01, 413.92 82.60, 415.58 86.00 C417.25 89.40, 416.03 93.82, 415.33 98.21 C414.63 102.61, 413.93 109.01, 411.41 112.37 C408.89 115.73, 404.95 118.51, 400.22 118.37 C395.49 118.23, 386.31 114.82, 383.04 111.52 C379.77 108.22, 381.14 102.23, 380.60 98.56 C380.07 94.89, 378.02 92.29, 379.81 89.49 C381.59 86.68, 387.37 83.95, 391.32 81.73 C395.28 79.51, 401.27 76.30, 403.54 76.16 C405.81 76.03, 405.34 79.78, 404.94 80.90" fill="none" stroke="#202020" stroke-width="2" stroke-linecap="round" stroke-linejoin="round"/><path d="M491.67 185.56 C495.17 183.13, 500.48 184.28, 504.22 184.46 C507.97 184.64, 511.28 184.14, 514.14 186.63 C517.00 189.12, 520.36 195.31, 521.38 199.39 C522.39 203.48, 522.31 207.31, 520.22 211.12 C518.13 214.94, 513.05 220.89, 508.86 222.25 C504.67 223.62, 499.17 220.88, 495.08 219.32 C491.00 217.75, 486.12 216.30, 484.35 212.85 C482.57 209.39, 481.89 203.57, 484.43 198.58 C486.96 193.59, 494.67 185.35, 499.56 182.92 C504.45 180.48, 513.18 183.62, 513.79 183.97 M497.08 184.79 C501.19 183.91, 509.18 182.81, 513.49 184.21 C517.80 185.61, 521.29 188.90, 522.94 193.19 C524.59 197.48, 524.92 205.99, 523.40 209.95 C521.89 213.92, 518.07 214.87, 513.86 216.96 C509.66 219.04, 502.24 223.02, 498.16 222.48 C494.09 221.94, 491.99 217.36, 489.43 213.72 C486.87 210.07, 483.02 204.80, 482.82 200.61 C482.61 196.43, 485.54 192.04, 488.20 188.62 C490.87 185.20, 497.33 180.73, 498.80 180.09 C500.26 179.44, 497.44 184.18, 496.97 184.75" fill="#faf7ef" stroke="none"/><path d="M488.56 188.84 C491.12 186.13, 497.10 185.38, 501.14 184.67 C505.17 183.95, 509.20 182.84, 512.76 184.54 C516.33 186.24, 520.98 190.65, 522.54 194.86 C524.09 199.07, 524.10 205.82, 522.09 209.80 C520.08 213.77, 514.10 216.60, 510.47 218.69 C506.84 220.79, 503.96 222.71, 500.30 222.36 C496.64 222.01, 491.61 219.93, 488.51 216.61 C485.40 213.30, 480.51 207.59, 481.65 202.46 C482.80 197.33, 491.50 188.96, 495.35 185.85 C499.20 182.74, 504.44 184.07, 504.76 183.80 M503.11 183.48 C507.01 183.20, 512.66 184.11, 515.51 187.35 C518.36 190.58, 520.10 197.98, 520.20 202.88 C520.30 207.78, 517.74 213.70, 516.12 216.74 C514.50 219.78, 513.80 220.18, 510.49 221.13 C507.18 222.08, 500.40 224.60, 496.26 222.45 C492.12 220.29, 488.08 212.21, 485.66 208.20 C483.23 204.18, 480.75 202.38, 481.72 198.36 C482.69 194.35, 487.20 187.14, 491.45 184.11 C495.70 181.08, 505.23 180.02, 507.21 180.20 C509.19 180.38, 503.87 184.42, 503.33 185.22" fill="none" stroke="#202020" stroke-width="2" stroke-linecap="round" stroke-linejoin="round"/><path d="M436.24 135.82 C439.33 132.73, 444.59 131.79, 448.69 131.79 C452.78 131.79, 457.17 133.75, 460.80 135.81 C464.43 137.87, 468.95 140.61, 470.49 144.14 C472.03 147.66, 472.10 153.25, 470.04 156.95 C467.98 160.66, 462.23 164.23, 458.15 166.35 C454.07 168.48, 449.75 170.32, 445.55 169.71 C441.34 169.10, 435.90 166.11, 432.92 162.67 C429.94 159.24, 426.01 154.45, 427.66 149.11 C429.31 143.77, 438.56 133.20, 442.80 130.64 C447.04 128.08, 452.60 133.30, 453.09 133.74 M456.61 132.38 C461.10 133.14, 463.67 135.84, 466.37 138.57 C469.06 141.30, 473.36 144.38, 472.80 148.76 C472.24 153.14, 466.88 161.57, 463.01 164.85 C459.13 168.14, 453.46 168.15, 449.55 168.46 C445.64 168.77, 442.42 168.47, 439.54 166.72 C436.66 164.96, 433.20 162.13, 432.26 157.92 C431.31 153.70, 432.69 145.55, 433.86 141.43 C435.03 137.32, 435.30 135.16, 439.28 133.22 C443.26 131.29, 454.99 129.57, 457.73 129.82 C460.46 130.07, 455.83 133.86, 455.69 134.71" fill="#faf7ef" stroke="none"/><path d="M450.18 131.31 C454.54 130.47, 460.24 131.40, 463.74 133.67 C467.25 135.94, 470.28 140.74, 471.20 144.93 C472.12 149.12, 471.15 154.93, 469.27 158.83 C467.39 162.72, 464.19 166.64, 459.91 168.29 C455.64 169.94, 448.24 169.87, 443.61 168.70 C438.98 167.54, 434.84 164.80, 432.13 161.28 C429.43 157.76, 427.07 152.01, 427.38 147.56 C427.70 143.11, 428.18 136.32, 434.02 134.57 C439.85 132.82, 456.59 134.64, 462.39 137.07 C468.20 139.50, 468.55 149.35, 468.85 149.15 M449.71 133.36 C453.88 133.44, 459.48 134.21, 462.59 136.55 C465.70 138.89, 467.41 144.37, 468.39 147.39 C469.36 150.41, 469.46 151.04, 468.44 154.68 C467.42 158.32, 466.48 166.92, 462.28 169.24 C458.08 171.57, 447.74 169.52, 443.25 168.62 C438.76 167.72, 438.13 166.90, 435.35 163.85 C432.56 160.80, 426.54 154.49, 426.52 150.31 C426.50 146.12, 431.97 142.40, 435.22 138.72 C438.48 135.05, 443.98 129.80, 446.07 128.27 C448.16 126.74, 447.27 128.85, 447.78 129.52" fill="none" stroke="#202020" stroke-width="2" stroke-linecap="round" stroke-linejoin="round"/></svg>