<svg xmlns="http://www.w3.org/2000/svg" viewBox="0 0 960 420" width="960" height="420"><path d="M333.75 64.41 L629.78 63.39 L626.79 357.88 L329.10 360.16" fill="#faf7ef" stroke="none"/><path d="M335.51 62.61 C432.94 59.91, 527.42 59.66, 628.95 63.82 M333.46 64.05 C413.45 63.40, 493.75 63.29, 626.74 61.79 M624.03 60.24 C625.91 152.69, 626.97 237.63, 629.11 358.73 M625.76 63.31 C622.63 162.38, 624.24 262.18, 627.07 355.85 M629.06 355.55 C517.62 356.03, 413.88 355.29, 332.88 359.64 M628.23 355.90 C525.28 359.35, 422.04 358.50, 333.84 357.44 M333.32 358.95 C328.34 271.49, 329.79 184.51, 330.79 60.24 M333.85 356.91 C334.11 272.88, 333.02 188.77, 334.18 64.06" fill="none" stroke="#202020" stroke-width="2" stroke-linecap="round" stroke-linejoin="round"/><path d="M384.95 114.02 C389.27 109.34, 399.56 106.99, 405.90 106.68 C412.24 106.38, 418.41 108.43, 422.99 112.21 C427.58 115.99, 432.08 123.07, 433.42 129.38 C434.76 135.69, 433.33 143.95, 431.03 150.07 C428.73 156.20, 424.82 163.18, 419.62 166.10 C414.41 169.03, 406.10 169.53, 399.78 167.62 C393.46 165.71, 385.21 160.56, 381.72 154.65 C378.22 148.75, 376.23 140.27, 378.83 132.19 C381.43 124.12, 391.62 110.41, 397.32 106.20 C403.02 101.99, 412.53 106.50, 413.03 106.93 M389.76 109.29 C394.61 105.78, 405.22 101.90, 411.37 103.45 C417.51 104.99, 422.30 112.92, 426.65 118.56 C430.99 124.21, 437.02 130.98, 437.42 137.30 C437.82 143.63, 433.67 151.82, 429.07 156.53 C424.47 161.24, 415.50 164.45, 409.80 165.56 C404.10 166.68, 399.45 165.86, 394.87 163.23 C390.29 160.60, 384.49 156.17, 382.31 149.79 C380.14 143.41, 379.96 131.79, 381.82 124.94 C383.69 118.10, 391.26 111.63, 393.50 108.72 C395.75 105.82, 395.44 106.53, 395.30 107.51" fill="#faf7ef" stroke="none"/><path d="M416.35 105.67 C421.77 107.01, 425.78 114.49, 428.80 120.03 C431.82 125.57, 434.94 132.57, 434.49 138.90 C434.04 145.23, 430.34 153.33, 426.10 158.02 C421.86 162.71, 415.27 166.59, 409.07 167.03 C402.86 167.47, 393.62 164.83, 388.87 160.67 C384.11 156.52, 381.80 148.70, 380.52 142.08 C379.24 135.47, 378.47 126.45, 381.18 120.98 C383.89 115.51, 389.24 110.37, 396.80 109.26 C404.36 108.15, 420.56 111.19, 426.54 114.32 C432.52 117.46, 433.20 127.51, 432.68 128.10 M381.95 114.85 C384.59 109.02, 392.68 106.51, 398.90 105.53 C405.12 104.55, 413.92 105.67, 419.28 108.97 C424.64 112.26, 428.38 118.97, 431.06 125.32 C433.75 131.68, 436.58 140.54, 435.40 147.10 C434.21 153.66, 429.22 161.25, 423.94 164.68 C418.66 168.11, 410.29 169.17, 403.70 167.69 C397.12 166.21, 388.89 160.78, 384.43 155.77 C379.97 150.77, 377.01 143.93, 376.94 137.66 C376.88 131.39, 382.77 120.99, 384.04 118.16 C385.32 115.34, 384.74 120.55, 384.60 120.71" fill="none" stroke="#202020" stroke-width="2" stroke-linecap="round" stroke-linejoin="round"/><path d="M574.32 263.37 C578.55 267.37, 582.19 275.98, 582.70 282.03 C583.20 288.08, 580.91 294.59, 577.37 299.66 C573.82 304.73, 567.69 310.80, 561.45 312.46 C555.21 314.12, 546.00 312.25, 539.92 309.62 C533.84 306.99, 527.49 302.49, 524.97 296.69 C522.44 290.89, 522.74 281.11, 524.78 274.83 C526.81 268.54, 531.99 261.99, 537.17 258.98 C542.35 255.97, 547.95 253.20, 555.86 256.77 C563.78 260.34, 581.21 273.04, 584.67 280.39 C588.13 287.73, 577.10 300.44, 576.62 300.85 M563.65 258.22 C569.36 259.45, 574.47 264.56, 577.79 269.34 C581.11 274.12, 583.96 280.85, 583.57 286.90 C583.18 292.95, 580.41 301.66, 575.43 305.64 C570.45 309.62, 561.11 310.84, 553.69 310.77 C546.27 310.71, 535.62 309.27, 530.91 305.27 C526.20 301.27, 526.11 292.49, 525.45 286.78 C524.80 281.07, 523.78 276.37, 527.00 271.02 C530.21 265.66, 538.57 256.47, 544.75 254.64 C550.92 252.80, 560.33 259.04, 564.07 260.00 C567.80 260.97, 567.17 260.40, 567.17 260.44" fill="#faf7ef" stroke="none"/><path d="M544.68 257.28 C550.87 255.43, 559.40 254.86, 565.66 257.09 C571.92 259.31, 579.46 264.88, 582.24 270.63 C585.03 276.39, 583.95 285.95, 582.37 291.63 C580.79 297.30, 577.92 301.11, 572.76 304.68 C567.60 308.25, 558.28 313.07, 551.43 313.04 C544.59 313.02, 536.78 308.74, 531.71 304.52 C526.64 300.30, 521.50 293.53, 520.99 287.72 C520.49 281.90, 520.80 274.33, 528.69 269.63 C536.58 264.93, 559.36 258.68, 568.33 259.53 C577.31 260.39, 582.58 274.74, 582.52 274.77 M546.40 258.77 C552.53 256.80, 561.70 254.87, 567.97 256.83 C574.23 258.79, 580.89 265.28, 584.01 270.52 C587.13 275.76, 588.35 282.84, 586.68 288.26 C585.00 293.68, 579.70 298.99, 573.95 303.03 C568.21 307.08, 559.04 312.44, 552.20 312.53 C545.37 312.62, 537.66 307.66, 532.94 303.58 C528.22 299.51, 525.05 294.30, 523.87 288.05 C522.69 281.81, 522.47 271.06, 525.84 266.11 C529.22 261.15, 541.33 259.84, 544.13 258.32 C546.93 256.79, 542.94 256.71, 542.67 256.96" fill="none" stroke="#202020" stroke-width="2" stroke-linecap="round" stroke-linejoin="round"/><path d="M488.98 178.59 C494.62 179.63, 499.57 184.57, 503.16 190.03 C506.75 195.48, 510.86 204.58, 510.51 211.33 C510.16 218.08, 505.84 225.57, 501.04 230.53 C496.24 235.49, 488.02 240.42, 481.72 241.10 C475.42 241.79, 468.50 238.49, 463.23 234.63 C457.95 230.78, 452.29 224.20, 450.05 217.98 C447.81 211.76, 446.88 203.43, 449.81 197.34 C452.73 191.24, 459.14 182.99, 467.61 181.42 C476.09 179.86, 493.42 184.25, 500.66 187.97 C507.90 191.69, 511.22 203.50, 511.06 203.73 M482.75 181.93 C488.94 182.11, 501.47 183.87, 505.73 188.20 C510.00 192.53, 508.52 201.41, 508.35 207.92 C508.18 214.43, 508.46 221.59, 504.72 227.26 C500.98 232.94, 492.23 240.85, 485.92 241.98 C479.60 243.12, 472.32 238.01, 466.83 234.05 C461.35 230.09, 455.27 223.70, 453.01 218.22 C450.75 212.75, 451.41 207.36, 453.27 201.19 C455.14 195.01, 458.67 185.11, 464.20 181.17 C469.73 177.22, 482.87 177.48, 486.44 177.50 C490.01 177.52, 486.13 180.21, 485.62 181.28" fill="#faf7ef" stroke="none"/><path d="M467.35 181.37 C473.13 178.12, 480.98 179.17, 487.45 180.45 C493.92 181.73, 502.14 184.13, 506.18 189.05 C510.21 193.97, 511.92 202.81, 511.64 209.96 C511.37 217.11, 509.02 226.72, 504.51 231.93 C500.00 237.15, 491.30 240.73, 484.57 241.23 C477.85 241.73, 469.93 238.78, 464.16 234.95 C458.39 231.12, 451.81 224.18, 449.96 218.28 C448.11 212.37, 449.82 205.59, 453.04 199.51 C456.27 193.43, 465.56 184.83, 469.31 181.78 C473.07 178.74, 475.16 181.31, 475.55 181.23 M455.10 193.42 C458.57 188.45, 466.79 183.46, 472.66 181.18 C478.53 178.90, 484.79 177.34, 490.34 179.73 C495.89 182.13, 502.82 189.56, 505.98 195.53 C509.14 201.51, 510.39 208.48, 509.29 215.57 C508.19 222.65, 504.36 233.73, 499.40 238.06 C494.43 242.39, 486.55 242.19, 479.51 241.56 C472.47 240.92, 462.22 239.08, 457.16 234.23 C452.10 229.38, 449.89 219.39, 449.16 212.47 C448.43 205.56, 451.65 195.93, 452.78 192.74 C453.90 189.55, 455.56 193.62, 455.92 193.33" fill="none" stroke="#202020" stroke-width="2" stroke-linecap="round" stroke-linejoin="round"/></svg>