<svg xmlns="http://www.w3.org/2000/svg" viewBox="0 0 900 320" width="900" height="320"><path d="M334.77 49.64 L562.78 51.00 L560.09 272.98 L335.09 273.76" fill="#faf7ef" stroke="none"/><path d="M335.31 45.37 C403.28 47.26, 460.79 48.73, 562.02 47.10 M339.50 47.98 C420.99 51.23, 500.85 50.39, 562.03 48.51 M564.10 49.44 C558.65 121.46, 560.89 197.65, 561.35 271.84 M561.07 46.38 C563.31 106.54, 561.92 167.75, 561.97 272.00 M562.30 273.47 C490.56 271.14, 419.00 272.09, 334.85 275.15 M562.14 272.91 C500.68 270.04, 437.13 270.62, 338.91 271.26 M337.89 274.42 C340.99 216.28, 335.23 155.63, 335.55 47.88 M339.58 272.57 C339.99 212.19, 340.83 151.19, 337.69 49.45" fill="none" stroke="#202020" stroke-width="2" stroke-linecap="round" stroke-linejoin="round"/><path d="M398.58 80.60 C403.26 81.26, 408.56 87.10, 411.63 90.94 C414.70 94.79, 416.96 98.72, 416.99 103.67 C417.01 108.63, 415.18 117.10, 411.79 120.67 C408.40 124.24, 401.99 124.58, 396.62 125.12 C391.26 125.66, 384.18 126.40, 379.58 123.91 C374.97 121.42, 370.57 115.31, 369.01 110.20 C367.44 105.08, 367.56 97.73, 370.17 93.24 C372.78 88.74, 378.59 85.09, 384.66 83.22 C390.73 81.35, 402.01 81.50, 406.58 82.02 C411.15 82.54, 412.15 85.55, 412.10 86.34 M387.65 84.31 C392.05 81.93, 398.14 79.78, 402.64 81.32 C407.14 82.87, 411.69 89.29, 414.64 93.59 C417.59 97.89, 421.48 102.34, 420.36 107.13 C419.25 111.92, 412.51 118.70, 407.95 122.34 C403.39 125.98, 398.37 128.97, 392.99 128.97 C387.61 128.98, 379.87 126.13, 375.69 122.37 C371.51 118.61, 368.39 111.81, 367.92 106.41 C367.44 101.02, 369.76 94.06, 372.85 89.99 C375.94 85.92, 384.49 83.05, 386.45 82.01 C388.41 80.98, 384.96 83.55, 384.61 83.77" fill="#faf7ef" stroke="none"/><path d="M384.76 82.54 C389.18 80.33, 396.83 81.87, 401.37 83.03 C405.91 84.18, 409.10 85.79, 411.98 89.49 C414.86 93.19, 418.53 99.78, 418.66 105.25 C418.78 110.72, 416.36 118.66, 412.75 122.29 C409.13 125.91, 402.27 127.04, 396.98 126.98 C391.69 126.92, 385.15 125.06, 381.01 121.94 C376.87 118.82, 373.71 112.98, 372.14 108.26 C370.57 103.54, 367.09 98.42, 371.60 93.60 C376.12 88.78, 392.93 80.25, 399.22 79.33 C405.51 78.40, 409.56 87.63, 409.33 88.06 M407.93 86.00 C412.52 87.65, 416.98 89.65, 418.83 94.07 C420.68 98.48, 421.20 107.87, 419.04 112.50 C416.89 117.12, 410.47 118.94, 405.91 121.84 C401.35 124.73, 396.59 130.60, 391.70 129.89 C386.80 129.18, 380.46 121.41, 376.52 117.57 C372.58 113.72, 368.30 111.29, 368.07 106.83 C367.83 102.37, 372.17 94.57, 375.12 90.78 C378.06 87.00, 380.85 85.18, 385.74 84.12 C390.63 83.06, 401.35 84.64, 404.45 84.40 C407.55 84.15, 404.60 82.69, 404.35 82.65" fill="none" stroke="#202020" stroke-width="2" stroke-linecap="round" stroke-linejoin="round"/><path d="M518.73 197.13 C523.28 199.54, 528.75 205.11, 530.00 209.80 C531.26 214.50, 528.72 220.74, 526.27 225.30 C523.81 229.86, 519.32 234.87, 515.25 237.15 C511.17 239.42, 506.24 239.72, 501.81 238.94 C497.39 238.16, 491.70 236.54, 488.69 232.46 C485.67 228.39, 483.61 220.28, 483.74 214.51 C483.88 208.74, 486.15 201.91, 489.51 197.85 C492.87 193.80, 497.24 187.12, 503.90 190.16 C510.55 193.20, 527.16 208.08, 529.43 216.10 C531.69 224.13, 517.73 238.22, 517.49 238.31 M494.72 196.55 C498.84 194.01, 503.67 192.35, 508.69 192.50 C513.72 192.64, 520.94 194.28, 524.88 197.42 C528.82 200.56, 532.13 206.08, 532.32 211.32 C532.51 216.56, 529.66 224.30, 526.03 228.87 C522.40 233.44, 515.39 237.60, 510.54 238.76 C505.69 239.92, 501.12 237.96, 496.95 235.83 C492.77 233.70, 487.99 229.91, 485.47 225.99 C482.96 222.06, 481.18 217.20, 481.85 212.28 C482.51 207.36, 487.22 199.39, 489.46 196.46 C491.71 193.54, 494.32 194.72, 495.30 194.73" fill="#faf7ef" stroke="none"/><path d="M525.55 201.71 C528.47 205.91, 530.67 213.94, 530.02 219.20 C529.36 224.47, 525.59 230.12, 521.61 233.29 C517.63 236.47, 511.08 237.83, 506.13 238.25 C501.18 238.67, 495.81 238.83, 491.91 235.81 C488.01 232.79, 483.81 225.00, 482.71 220.13 C481.61 215.27, 482.83 211.13, 485.32 206.60 C487.82 202.07, 493.05 195.39, 497.69 192.98 C502.32 190.56, 508.18 186.14, 513.12 192.12 C518.07 198.10, 528.82 221.14, 527.37 228.86 C525.92 236.59, 504.66 238.86, 504.43 238.47 M489.80 200.23 C493.18 196.24, 498.62 189.54, 503.50 189.18 C508.39 188.81, 515.22 194.19, 519.11 198.05 C523.01 201.90, 525.77 207.39, 526.87 212.30 C527.96 217.20, 527.25 223.51, 525.68 227.47 C524.12 231.44, 521.63 234.51, 517.48 236.07 C513.33 237.63, 505.55 237.80, 500.79 236.84 C496.02 235.88, 492.42 233.86, 488.88 230.32 C485.33 226.78, 479.90 220.98, 479.50 215.58 C479.10 210.17, 484.62 200.44, 486.47 197.88 C488.32 195.32, 490.40 199.45, 490.60 200.21" fill="none" stroke="#202020" stroke-width="2" stroke-linecap="round" stroke-linejoin="round"/><path d="M454.76 134.02 C458.73 134.80, 462.09 140.25, 465.02 144.66 C467.95 149.08, 471.92 155.59, 472.33 160.53 C472.74 165.48, 470.60 170.14, 467.47 174.33 C464.34 178.52, 458.49 184.36, 453.53 185.67 C448.58 186.97, 441.85 185.23, 437.74 182.18 C433.63 179.13, 430.33 172.33, 428.87 167.34 C427.42 162.35, 427.12 157.13, 429.00 152.23 C430.88 147.34, 434.26 139.76, 440.15 137.95 C446.04 136.14, 459.43 138.55, 464.35 141.39 C469.28 144.23, 470.10 154.40, 469.70 154.98 M439.43 139.64 C442.46 136.46, 446.25 134.70, 450.52 135.61 C454.80 136.51, 461.88 140.91, 465.07 145.06 C468.26 149.22, 469.40 155.60, 469.67 160.51 C469.94 165.42, 469.48 170.31, 466.71 174.52 C463.94 178.73, 457.85 184.52, 453.05 185.78 C448.24 187.04, 441.70 184.86, 437.88 182.09 C434.06 179.33, 431.44 173.74, 430.12 169.20 C428.81 164.65, 429.06 159.54, 430.01 154.83 C430.96 150.11, 434.41 143.57, 435.83 140.93 C437.25 138.28, 438.33 139.06, 438.54 138.96" fill="#faf7ef" stroke="none"/><path d="M441.57 139.57 C445.80 136.53, 450.74 133.38, 455.38 134.47 C460.01 135.57, 466.96 141.87, 469.38 146.16 C471.81 150.45, 470.38 155.23, 469.94 160.20 C469.50 165.18, 469.98 172.17, 466.75 176.01 C463.52 179.84, 455.37 182.63, 450.55 183.20 C445.74 183.77, 441.40 182.38, 437.88 179.43 C434.35 176.49, 430.66 170.29, 429.41 165.51 C428.17 160.72, 425.18 155.21, 430.41 150.72 C435.63 146.23, 454.14 137.63, 460.77 138.56 C467.40 139.48, 470.33 156.24, 470.17 156.27 M465.94 145.66 C469.81 148.02, 472.59 150.13, 473.38 155.22 C474.16 160.32, 474.06 171.77, 470.64 176.20 C467.22 180.63, 457.50 180.45, 452.85 181.81 C448.21 183.17, 446.99 186.41, 442.77 184.36 C438.55 182.31, 429.87 174.52, 427.56 169.50 C425.25 164.47, 427.62 159.11, 428.91 154.21 C430.20 149.31, 431.19 142.88, 435.31 140.11 C439.42 137.35, 448.70 136.78, 453.58 137.62 C458.46 138.45, 463.11 144.58, 464.60 145.13 C466.08 145.68, 463.06 140.55, 462.51 140.91" fill="none" stroke="#202020" stroke-width="2" stroke-linecap="round" stroke-linejoin="round"/></svg>