<svg xmlns="http://www.w3.org/2000/svg" viewBox="0 0 900 320" width="900" height="320"><path d="M448.68 16.22 C609.41 71.10, 768.54 126.09, 882.56 159.80 M449.29 16.86 C541.55 42.12, 633.86 72.72, 884.87 160.00 M883.59 159.59 C783.41 190.62, 683.60 221.78, 450.98 302.58 M884.52 159.66 C743.32 204.81, 602.21 252.20, 450.86 304.47 M449.20 305.46 C310.80 256.55, 170.75 212.36, 17.18 159.93 M450.75 304.69 C314.59 255.56, 180.22 211.34, 16.52 160.79 M14.41 159.67 C166.45 108.81, 319.99 59.28, 450.52 17.82 M15.71 160.91 C186.45 108.00, 356.18 50.89, 450.68 15.62" fill="none" stroke="#202020" stroke-width="2" stroke-linecap="round" stroke-linejoin="round"/><path d="M28.00 162.02 C36.31 159.85, 40.76 159.37, 52.02 163.44 M24.10 161.44 C36.41 159.00, 44.65 161.83, 52.87 161.50" fill="none" stroke="#202020" stroke-width="2" stroke-linecap="round" stroke-linejoin="round"/><path d="M845.14 161.37 C854.08 158.79, 865.39 163.92, 870.54 157.33 M848.07 159.56 C858.13 159.40, 863.66 160.63, 875.43 161.41" fill="none" stroke="#202020" stroke-width="2" stroke-linecap="round" stroke-linejoin="round"/><path d="M42.39 154.98 C45.13 156.31, 45.34 157.83, 49.60 161.46 M43.18 154.15 C46.37 156.21, 48.40 158.58, 51.52 160.43 M50.38 161.62 C49.62 163.40, 44.14 163.40, 45.55 166.54 M51.21 160.83 C48.00 162.50, 44.75 163.78, 43.20 165.51" fill="none" stroke="#202020" stroke-width="2" stroke-linecap="round" stroke-linejoin="round"/><path d="M855.53 154.33 C854.18 157.92, 851.77 156.31, 849.45 160.00 M856.14 154.54 C854.01 156.20, 850.52 158.58, 849.57 160.65 M849.75 158.80 C853.11 162.23, 852.61 163.51, 857.64 165.98 M849.49 159.41 C851.46 162.39, 853.61 162.90, 856.13 165.61" fill="none" stroke="#202020" stroke-width="2" stroke-linecap="round" stroke-linejoin="round"/></svg>