<svg xmlns="http://www.w3.org/2000/svg" viewBox="0 0 900 300" width="900" height="300"><path d="M461.60 30.17 C489.08 28.53, 520.14 33.13, 547.52 35.91 C574.89 38.70, 600.71 42.92, 625.87 46.89 C651.03 50.87, 677.33 54.19, 698.46 59.77 C719.59 65.34, 737.56 72.65, 752.63 80.35 C767.69 88.05, 779.17 97.51, 788.85 105.96 C798.53 114.40, 807.94 122.85, 810.69 131.03 C813.44 139.20, 809.73 146.38, 805.35 155.02 C800.97 163.65, 794.93 175.05, 784.41 182.85 C773.90 190.64, 759.28 195.01, 742.26 201.77 C725.24 208.53, 704.26 217.86, 682.28 223.41 C660.30 228.97, 636.51 231.19, 610.35 235.11 C584.19 239.04, 553.70 245.18, 525.30 246.98 C496.89 248.78, 468.54 246.58, 439.92 245.92 C411.31 245.27, 381.43 244.98, 353.59 243.04 C325.75 241.10, 297.95 238.10, 272.86 234.28 C247.77 230.46, 223.98 226.22, 203.04 220.14 C182.10 214.06, 163.03 205.28, 147.22 197.79 C131.40 190.29, 117.80 183.11, 108.15 175.18 C98.50 167.24, 91.88 158.69, 89.29 150.17 C86.71 141.66, 88.03 132.84, 92.62 124.10 C97.20 115.36, 105.96 105.60, 116.81 97.73 C127.67 89.86, 140.94 83.74, 157.74 76.90 C174.54 70.07, 195.26 62.65, 217.63 56.72 C240.01 50.78, 265.93 45.14, 291.97 41.30 C318.02 37.46, 333.31 34.88, 373.91 33.65 C414.50 32.43, 497.30 32.12, 535.54 33.93 C573.78 35.74, 604.53 42.71, 603.33 44.51 M534.15 35.54 C562.46 35.80, 593.68 39.74, 619.06 44.14 C644.43 48.55, 664.92 56.32, 686.39 61.97 C707.86 67.63, 731.21 71.71, 747.87 78.07 C764.53 84.44, 776.47 91.83, 786.36 100.17 C796.25 108.51, 803.92 119.20, 807.22 128.11 C810.52 137.02, 809.10 145.55, 806.15 153.61 C803.20 161.68, 799.49 168.58, 789.52 176.47 C779.55 184.36, 762.67 193.56, 746.33 200.95 C729.98 208.34, 713.26 215.33, 691.44 220.81 C669.63 226.29, 641.18 229.36, 615.44 233.82 C589.69 238.28, 563.99 244.84, 536.97 247.57 C509.94 250.30, 482.55 250.41, 453.30 250.20 C424.05 249.98, 389.90 248.48, 361.46 246.27 C333.02 244.06, 307.87 241.63, 282.66 236.96 C257.46 232.29, 231.55 223.96, 210.23 218.24 C188.92 212.53, 170.83 209.61, 154.76 202.67 C138.69 195.73, 123.80 185.08, 113.82 176.59 C103.83 168.10, 98.66 159.58, 94.83 151.75 C91.01 143.92, 87.51 137.90, 90.87 129.61 C94.22 121.33, 104.90 110.16, 114.96 102.04 C125.02 93.93, 135.06 87.97, 151.23 80.93 C167.40 73.89, 189.72 65.55, 211.98 59.80 C234.25 54.05, 259.60 50.59, 284.80 46.45 C309.99 42.31, 336.14 37.65, 363.13 34.96 C390.13 32.28, 417.99 30.11, 446.76 30.34 C475.54 30.57, 521.54 34.91, 535.76 36.35 C549.98 37.78, 533.90 37.05, 532.10 38.92" fill="#faf7ef" stroke="none"/><path d="M206.25 60.40 C222.30 53.54, 252.22 50.40, 277.13 45.98 C302.04 41.57, 328.02 36.35, 355.69 33.91 C383.35 31.47, 413.81 30.84, 443.14 31.32 C472.47 31.80, 503.61 34.85, 531.66 36.77 C559.70 38.70, 585.72 39.68, 611.43 42.89 C637.14 46.10, 664.13 50.06, 685.91 56.04 C707.69 62.02, 725.72 71.54, 742.09 78.75 C758.46 85.95, 773.11 91.64, 784.12 99.26 C795.13 106.89, 804.02 115.92, 808.15 124.48 C812.28 133.04, 811.82 141.86, 808.89 150.63 C805.96 159.41, 800.12 169.08, 790.56 177.14 C781.00 185.20, 767.47 192.03, 751.52 198.98 C735.57 205.92, 716.50 212.65, 694.84 218.83 C673.18 225.00, 646.69 231.85, 621.56 236.03 C596.43 240.20, 571.36 241.85, 544.04 243.87 C516.73 245.89, 486.63 247.92, 457.65 248.16 C428.67 248.41, 398.36 247.37, 370.17 245.34 C341.99 243.31, 314.40 240.19, 288.55 235.99 C262.70 231.78, 237.06 225.79, 215.10 220.11 C193.14 214.44, 173.59 208.31, 156.79 201.94 C139.99 195.57, 124.91 189.67, 114.30 181.91 C103.69 174.14, 97.14 164.30, 93.13 155.36 C89.12 146.42, 87.01 136.62, 90.23 128.28 C93.46 119.94, 102.80 113.50, 112.48 105.34 C122.16 97.18, 126.81 87.98, 148.31 79.33 C169.81 70.67, 219.47 58.74, 241.47 53.41 C263.46 48.08, 276.73 46.36, 280.27 47.36 M355.86 34.60 C381.37 31.24, 414.64 32.70, 443.02 32.59 C471.39 32.48, 498.36 32.17, 526.14 33.95 C553.92 35.73, 583.66 39.57, 609.69 43.27 C635.71 46.97, 659.95 50.47, 682.27 56.13 C704.59 61.79, 726.79 69.99, 743.62 77.22 C760.46 84.44, 772.44 91.63, 783.28 99.50 C794.11 107.38, 803.81 115.67, 808.63 124.45 C813.44 133.23, 814.83 143.91, 812.17 152.20 C809.50 160.49, 802.83 166.32, 792.65 174.19 C782.46 182.06, 766.77 192.48, 751.04 199.43 C735.31 206.38, 718.89 209.66, 698.28 215.90 C677.66 222.15, 653.08 232.16, 627.36 236.90 C601.64 241.64, 571.68 242.45, 543.97 244.34 C516.26 246.23, 489.77 248.42, 461.12 248.24 C432.48 248.05, 400.93 245.47, 372.11 243.22 C343.28 240.97, 313.43 238.02, 288.16 234.72 C262.89 231.41, 242.25 228.61, 220.47 223.41 C198.70 218.20, 175.10 210.26, 157.53 203.50 C139.96 196.73, 125.71 190.81, 115.05 182.80 C104.38 174.80, 97.66 164.42, 93.54 155.47 C89.41 146.52, 87.78 137.24, 90.28 129.11 C92.79 120.98, 98.96 114.27, 108.57 106.68 C118.17 99.08, 131.87 90.66, 147.90 83.53 C163.94 76.40, 183.57 70.24, 204.77 63.88 C225.96 57.53, 250.58 50.44, 275.08 45.39 C299.58 40.35, 338.22 35.17, 351.74 33.61 C365.26 32.06, 354.15 33.94, 356.18 36.09" fill="none" stroke="#202020" stroke-width="2" stroke-linecap="round" stroke-linejoin="round"/><path d="M304.27 131.64 C304.49 130.79, 302.99 128.60, 303.78 128.51 C304.58 128.43, 307.66 130.22, 309.04 131.12 C310.43 132.01, 311.70 132.61, 312.08 133.89 C312.46 135.17, 312.02 137.63, 311.32 138.80 C310.63 139.96, 309.23 140.57, 307.90 140.89 C306.57 141.21, 304.44 141.31, 303.33 140.74 C302.23 140.17, 302.00 138.82, 301.27 137.45 C300.54 136.09, 298.76 133.65, 298.96 132.57 C299.15 131.49, 301.50 131.49, 302.43 130.99 C303.36 130.48, 304.11 129.53, 304.51 129.56 M307.52 133.38 C308.49 133.93, 310.20 131.45, 310.37 132.19 C310.55 132.93, 308.59 136.67, 308.56 137.82 C308.53 138.96, 310.78 138.27, 310.20 139.07 C309.62 139.86, 306.50 143.18, 305.08 142.59 C303.65 142.00, 302.55 136.56, 301.64 135.52 C300.74 134.47, 299.91 137.33, 299.64 136.32 C299.38 135.32, 298.94 130.54, 300.05 129.51 C301.15 128.48, 304.73 130.04, 306.27 130.15 C307.81 130.26, 309.29 129.82, 309.29 130.17 C309.29 130.52, 306.75 131.90, 306.30 132.28" fill="#faf7ef" stroke="none"/><path d="M305.74 131.36 C306.67 131.77, 308.55 131.85, 309.37 132.36 C310.19 132.88, 310.33 133.89, 310.66 134.44 C310.99 135.00, 311.73 134.61, 311.35 135.69 C310.97 136.77, 309.25 140.23, 308.38 140.93 C307.51 141.64, 307.13 140.40, 306.14 139.93 C305.16 139.46, 303.62 139.29, 302.46 138.11 C301.30 136.93, 299.11 133.88, 299.18 132.85 C299.25 131.82, 301.37 132.38, 302.89 131.92 C304.40 131.46, 306.92 130.13, 308.26 130.10 C309.61 130.06, 310.97 131.27, 310.93 131.72 M308.74 128.09 C309.46 128.55, 308.45 131.10, 308.97 132.16 C309.50 133.22, 311.76 133.90, 311.88 134.48 C312.00 135.05, 310.63 134.76, 309.69 135.64 C308.74 136.51, 307.03 138.76, 306.23 139.73 C305.43 140.70, 305.34 142.04, 304.90 141.44 C304.46 140.84, 304.37 136.89, 303.59 136.12 C302.80 135.34, 300.84 137.32, 300.18 136.79 C299.53 136.26, 298.23 134.55, 299.68 132.93 C301.13 131.31, 307.38 127.92, 308.88 127.06 C310.38 126.20, 308.97 127.16, 308.68 127.78" fill="none" stroke="#202020" stroke-width="2" stroke-linecap="round" stroke-linejoin="round"/><path d="M590.62 132.25 C591.32 131.40, 593.74 129.61, 594.90 129.29 C596.06 128.98, 597.20 129.53, 597.59 130.37 C597.99 131.20, 596.90 133.10, 597.26 134.31 C597.63 135.53, 600.33 136.98, 599.77 137.66 C599.20 138.34, 595.49 138.02, 593.89 138.39 C592.30 138.75, 590.90 140.06, 590.20 139.86 C589.50 139.66, 590.15 137.84, 589.70 137.18 C589.25 136.52, 587.05 137.16, 587.52 135.90 C587.98 134.64, 591.48 130.61, 592.50 129.61 C593.51 128.62, 593.91 129.90, 593.62 129.92 M592.77 131.69 C594.47 132.17, 600.39 131.76, 600.98 131.96 C601.57 132.17, 597.14 131.76, 596.31 132.91 C595.48 134.06, 596.69 137.96, 596.01 138.85 C595.34 139.75, 593.32 137.82, 592.26 138.29 C591.20 138.76, 590.31 141.82, 589.66 141.66 C589.01 141.50, 588.05 139.15, 588.37 137.33 C588.69 135.50, 591.52 132.25, 591.58 130.71 C591.64 129.18, 587.97 128.34, 588.71 128.12 C589.45 127.91, 594.63 128.62, 596.02 129.43 C597.40 130.24, 597.61 132.46, 597.03 132.99" fill="#faf7ef" stroke="none"/><path d="M596.39 130.58 C597.77 131.17, 599.75 132.67, 600.13 133.73 C600.51 134.78, 598.91 136.02, 598.67 136.92 C598.43 137.81, 599.27 138.47, 598.69 139.09 C598.12 139.72, 596.70 140.68, 595.21 140.67 C593.71 140.66, 591.01 140.09, 589.74 139.05 C588.47 138.01, 587.40 135.36, 587.59 134.42 C587.77 133.49, 589.84 133.86, 590.85 133.43 C591.85 132.99, 592.61 132.37, 593.60 131.81 C594.59 131.24, 596.25 130.16, 596.81 130.03 C597.36 129.89, 596.79 131.02, 596.94 131.00 M594.85 127.77 C595.25 126.54, 594.22 127.29, 594.87 127.80 C595.51 128.31, 598.31 129.51, 598.72 130.85 C599.13 132.19, 597.57 134.87, 597.32 135.84 C597.06 136.81, 597.63 136.34, 597.18 136.64 C596.73 136.94, 595.93 136.98, 594.62 137.64 C593.31 138.30, 590.09 141.33, 589.33 140.63 C588.57 139.94, 590.20 134.35, 590.08 133.47 C589.96 132.60, 588.58 135.39, 588.60 135.39 C588.62 135.38, 589.60 133.95, 590.22 133.45 C590.84 132.95, 591.83 132.83, 592.31 132.39" fill="none" stroke="#202020" stroke-width="2" stroke-linecap="round" stroke-linejoin="round"/><path d="M445.68 151.34 L452.64 150.73 L451.10 160.64 L444.59 156.85" fill="#faf7ef" stroke="none"/><path d="M446.29 152.46 C449.28 151.50, 450.06 150.96, 451.84 151.03 M446.49 152.28 C449.95 152.42, 451.57 151.88, 453.47 152.35 M452.98 151.49 C453.38 152.86, 453.96 154.56, 451.96 158.24 M453.23 151.74 C453.67 153.71, 453.43 155.46, 453.59 158.37 M453.46 159.08 C451.68 158.10, 449.77 157.14, 447.92 159.05 M452.53 157.79 C451.84 157.68, 450.80 158.07, 447.43 158.28 M448.17 158.48 C446.80 155.67, 447.42 153.63, 447.03 152.33 M447.31 157.90 C447.41 156.72, 446.92 154.77, 446.43 151.63" fill="none" stroke="#202020" stroke-width="2" stroke-linecap="round" stroke-linejoin="round"/><path d="M437.05 164.91 C438.57 167.02, 436.29 172.19, 437.70 173.58 M437.57 165.59 C437.65 167.76, 437.51 169.01, 437.10 175.34" fill="none" stroke="#202020" stroke-width="2" stroke-linecap="round" stroke-linejoin="round"/><path d="M446.44 165.37 C444.85 168.63, 444.49 172.53, 446.02 176.80 M445.93 164.44 C446.58 168.72, 446.40 172.30, 446.95 174.59" fill="none" stroke="#202020" stroke-width="2" stroke-linecap="round" stroke-linejoin="round"/><path d="M455.05 166.07 C455.79 169.71, 455.84 171.97, 452.54 175.67 M453.92 164.10 C454.61 168.17, 454.63 173.44, 454.65 175.28" fill="none" stroke="#202020" stroke-width="2" stroke-linecap="round" stroke-linejoin="round"/><path d="M460.70 165.44 C463.13 169.28, 463.69 171.41, 463.42 174.18 M461.09 165.11 C461.90 167.25, 462.83 169.48, 461.97 174.83" fill="none" stroke="#202020" stroke-width="2" stroke-linecap="round" stroke-linejoin="round"/><path d="M428.19 251.49 C438.00 259.82, 444.99 266.72, 475.55 278.98 M423.80 253.62 C436.18 260.84, 444.98 263.88, 476.20 281.14" fill="none" stroke="#202020" stroke-width="2" stroke-linecap="round" stroke-linejoin="round"/><path d="M475.74 258.75 C468.80 264.72, 451.46 262.53, 421.23 282.90 M475.71 255.26 C463.02 263.92, 452.41 267.76, 424.64 280.69" fill="none" stroke="#202020" stroke-width="2" stroke-linecap="round" stroke-linejoin="round"/></svg>