<svg xmlns="http://www.w3.org/2000/svg" viewBox="0 0 960 420" width="960" height="420"><path d="M253.85 96.66 C269.08 88.82, 295.49 84.83, 319.17 80.19 C342.85 75.56, 370.09 71.54, 395.92 68.84 C421.76 66.13, 447.75 64.27, 474.18 63.94 C500.61 63.61, 528.94 64.52, 554.49 66.86 C580.04 69.19, 604.02 73.40, 627.47 77.97 C650.92 82.54, 674.22 88.35, 695.21 94.28 C716.21 100.22, 736.29 106.39, 753.44 113.60 C770.58 120.81, 786.09 128.51, 798.08 137.53 C810.06 146.54, 819.33 158.01, 825.36 167.69 C831.39 177.37, 833.96 185.80, 834.25 195.61 C834.54 205.41, 832.43 216.58, 827.09 226.53 C821.74 236.47, 813.31 245.81, 802.16 255.30 C791.01 264.78, 776.34 275.41, 760.18 283.43 C744.02 291.45, 725.65 297.41, 705.22 303.39 C684.78 309.38, 660.76 314.38, 637.56 319.32 C614.37 324.26, 591.28 330.08, 566.05 333.03 C540.83 335.98, 512.87 337.03, 486.22 337.01 C459.57 337.00, 432.10 335.22, 406.17 332.96 C380.24 330.71, 354.41 327.50, 330.63 323.50 C306.85 319.49, 284.17 315.21, 263.50 308.91 C242.83 302.60, 223.18 293.48, 206.61 285.66 C190.04 277.84, 175.56 271.05, 164.08 261.97 C152.60 252.88, 144.32 240.93, 137.73 231.15 C131.14 221.37, 125.40 212.95, 124.56 203.27 C123.72 193.59, 126.87 182.78, 132.69 173.07 C138.52 163.35, 148.67 154.50, 159.51 144.97 C170.35 135.45, 165.15 127.89, 197.71 115.91 C230.27 103.93, 309.57 81.37, 354.88 73.09 C400.19 64.82, 467.21 64.15, 469.57 66.27 M245.32 101.89 C260.00 93.60, 283.80 87.27, 305.94 82.22 C328.08 77.17, 352.31 74.24, 378.15 71.57 C403.99 68.91, 434.04 66.80, 460.98 66.25 C487.92 65.69, 514.05 66.91, 539.80 68.24 C565.56 69.56, 591.41 70.61, 615.52 74.21 C639.63 77.81, 663.01 84.01, 684.48 89.82 C705.96 95.64, 727.00 101.75, 744.37 109.12 C761.73 116.48, 775.77 124.94, 788.65 134.01 C801.53 143.07, 814.28 153.50, 821.64 163.52 C829.00 173.53, 831.88 183.97, 832.81 194.13 C833.73 204.28, 831.56 215.01, 827.20 224.45 C822.83 233.90, 816.06 241.94, 806.64 250.80 C797.21 259.65, 785.86 269.65, 770.67 277.58 C755.48 285.52, 735.53 291.90, 715.50 298.40 C695.47 304.90, 673.10 311.69, 650.48 316.58 C627.85 321.48, 604.26 325.11, 579.75 327.79 C555.23 330.47, 529.60 331.30, 503.39 332.64 C477.19 333.98, 449.23 337.22, 422.51 335.83 C395.80 334.44, 367.06 327.93, 343.09 324.29 C319.12 320.65, 299.67 319.30, 278.70 313.98 C257.73 308.67, 235.36 300.63, 217.28 292.42 C199.20 284.22, 183.19 273.35, 170.19 264.75 C157.20 256.15, 146.34 249.92, 139.30 240.82 C132.26 231.71, 129.38 220.43, 127.96 210.10 C126.54 199.77, 126.75 188.85, 130.79 178.85 C134.82 168.85, 141.99 159.88, 152.15 150.10 C162.31 140.33, 177.05 128.84, 191.75 120.20 C206.45 111.56, 230.68 101.01, 240.34 98.24 C249.99 95.47, 245.68 101.33, 249.68 103.59" fill="#faf7ef" stroke="none"/><path d="M501.03 63.61 C526.12 61.65, 554.55 66.08, 579.53 69.07 C604.52 72.06, 627.88 76.59, 650.94 81.54 C674.01 86.48, 697.93 92.02, 717.93 98.72 C737.94 105.42, 756.17 113.33, 770.96 121.74 C785.74 130.16, 796.66 139.95, 806.66 149.22 C816.66 158.49, 826.57 167.34, 830.96 177.37 C835.35 187.41, 835.09 199.12, 833.00 209.45 C830.92 219.78, 825.81 230.09, 818.46 239.36 C811.10 248.63, 801.39 256.55, 788.87 265.08 C776.35 273.61, 760.87 282.60, 743.33 290.54 C725.80 298.48, 705.32 307.08, 683.65 312.70 C661.99 318.33, 637.68 320.69, 613.33 324.30 C588.97 327.90, 563.46 332.23, 537.50 334.32 C511.54 336.40, 483.79 337.52, 457.57 336.81 C431.35 336.09, 405.20 332.97, 380.17 330.05 C355.14 327.13, 330.47 324.13, 307.39 319.28 C284.32 314.43, 261.11 307.56, 241.70 300.97 C222.29 294.38, 205.84 288.20, 190.94 279.73 C176.04 271.27, 162.56 259.52, 152.31 250.17 C142.05 240.83, 133.81 233.72, 129.43 223.68 C125.05 213.65, 124.44 200.20, 126.00 189.95 C127.56 179.69, 131.13 171.52, 138.79 162.16 C146.46 152.81, 158.60 142.55, 171.96 133.82 C185.32 125.09, 201.22 117.43, 218.96 109.77 C236.70 102.11, 256.99 93.93, 278.43 87.87 C299.87 81.80, 323.58 76.86, 347.60 73.40 C371.62 69.93, 381.01 67.15, 422.56 67.09 C464.11 67.02, 554.89 69.08, 596.89 73.02 C638.89 76.96, 676.62 88.67, 674.57 90.70 M416.93 65.72 C440.99 61.64, 469.23 63.63, 494.67 63.68 C520.11 63.73, 544.30 63.76, 569.56 66.01 C594.82 68.27, 622.91 72.31, 646.24 77.22 C669.58 82.14, 689.47 88.00, 709.57 95.49 C729.66 102.99, 750.59 113.59, 766.81 122.22 C783.03 130.84, 796.74 138.11, 806.88 147.26 C817.02 156.40, 822.91 166.91, 827.66 177.06 C832.41 187.21, 835.91 198.83, 835.36 208.13 C834.81 217.44, 831.61 224.12, 824.35 232.90 C817.10 241.68, 804.32 251.91, 791.83 260.83 C779.35 269.74, 766.37 277.97, 749.43 286.38 C732.50 294.78, 711.44 305.12, 690.23 311.26 C669.02 317.40, 646.18 319.66, 622.16 323.23 C598.13 326.80, 572.08 330.20, 546.10 332.69 C520.12 335.17, 492.93 338.49, 466.28 338.15 C439.62 337.80, 411.43 333.90, 386.17 330.63 C360.91 327.37, 337.18 323.18, 314.70 318.56 C292.22 313.94, 270.99 309.10, 251.32 302.91 C231.65 296.72, 212.59 289.21, 196.67 281.40 C180.75 273.58, 166.14 265.32, 155.79 256.02 C145.44 246.73, 139.37 235.65, 134.59 225.63 C129.81 215.61, 126.13 206.12, 127.12 195.91 C128.11 185.70, 134.20 174.68, 140.50 164.39 C146.81 154.09, 153.18 142.78, 164.95 134.14 C176.72 125.49, 193.80 120.01, 211.14 112.54 C228.48 105.07, 247.79 95.10, 268.98 89.31 C290.17 83.52, 313.50 81.46, 338.27 77.80 C363.03 74.14, 404.66 68.96, 417.58 67.33 C430.50 65.70, 414.92 65.46, 415.79 68.04" fill="none" stroke="#202020" stroke-width="2" stroke-linecap="round" stroke-linejoin="round"/><path d="M326.65 191.41 C327.52 190.84, 327.79 190.11, 328.57 190.17 C329.36 190.22, 330.98 190.65, 331.38 191.75 C331.77 192.85, 331.07 195.76, 330.94 196.76 C330.81 197.76, 331.78 197.27, 330.59 197.77 C329.40 198.26, 324.92 199.39, 323.82 199.73 C322.71 200.06, 324.14 200.65, 323.98 199.77 C323.82 198.88, 322.84 195.47, 322.86 194.41 C322.88 193.36, 322.81 193.99, 324.10 193.46 C325.39 192.94, 329.66 190.93, 330.60 191.25 C331.54 191.57, 330.21 195.08, 329.76 195.38 M326.90 189.12 C327.77 188.95, 327.77 189.10, 328.83 189.33 C329.89 189.56, 332.70 189.39, 333.28 190.49 C333.86 191.58, 332.67 194.37, 332.31 195.91 C331.95 197.46, 332.59 199.20, 331.12 199.75 C329.66 200.30, 324.52 199.76, 323.51 199.20 C322.50 198.64, 325.02 196.83, 325.08 196.36 C325.15 195.89, 323.97 197.02, 323.91 196.38 C323.84 195.74, 324.62 193.34, 324.71 192.52 C324.80 191.70, 324.39 192.24, 324.44 191.46 C324.50 190.69, 325.30 187.58, 325.03 187.89" fill="#faf7ef" stroke="none"/><path d="M324.29 191.96 C325.37 190.62, 326.81 188.47, 327.30 188.05 C327.79 187.63, 326.64 188.31, 327.22 189.44 C327.81 190.57, 330.41 193.33, 330.81 194.85 C331.21 196.38, 330.21 197.61, 329.63 198.57 C329.05 199.53, 328.14 200.25, 327.33 200.60 C326.52 200.95, 325.60 200.85, 324.75 200.67 C323.90 200.50, 322.85 200.78, 322.23 199.54 C321.61 198.30, 321.07 194.93, 321.05 193.25 C321.03 191.57, 321.39 190.18, 322.11 189.47 C322.82 188.76, 324.88 188.79, 325.34 188.99 M324.67 192.28 C325.00 192.10, 325.87 192.36, 326.70 192.04 C327.53 191.71, 329.34 189.58, 329.67 190.33 C330.00 191.07, 328.23 195.03, 328.66 196.50 C329.09 197.97, 332.86 198.21, 332.27 199.16 C331.68 200.10, 326.29 202.56, 325.10 202.17 C323.91 201.78, 325.43 197.65, 325.12 196.81 C324.81 195.97, 324.15 197.48, 323.26 197.13 C322.37 196.78, 320.08 195.52, 319.78 194.72 C319.48 193.91, 320.70 193.23, 321.45 192.29 C322.21 191.36, 323.96 188.88, 324.29 189.10" fill="none" stroke="#202020" stroke-width="2" stroke-linecap="round" stroke-linejoin="round"/><path d="M628.95 189.68 C629.39 189.26, 630.65 190.95, 631.63 190.98 C632.62 191.01, 634.03 189.68, 634.85 189.87 C635.67 190.06, 636.11 190.85, 636.56 192.12 C637.00 193.40, 637.73 196.33, 637.54 197.53 C637.34 198.74, 636.03 198.87, 635.40 199.34 C634.76 199.81, 634.87 200.82, 633.72 200.38 C632.56 199.93, 629.57 197.80, 628.47 196.68 C627.37 195.56, 626.78 195.00, 627.13 193.66 C627.47 192.32, 629.47 189.14, 630.55 188.64 C631.63 188.15, 633.45 190.55, 633.60 190.69 M636.61 194.08 C636.76 195.58, 635.57 197.33, 636.08 198.48 C636.60 199.64, 639.89 200.40, 639.70 201.03 C639.51 201.66, 636.20 202.92, 634.95 202.28 C633.70 201.63, 632.78 198.40, 632.20 197.17 C631.63 195.93, 632.47 195.39, 631.51 194.86 C630.55 194.34, 626.85 195.00, 626.45 194.03 C626.04 193.06, 627.48 189.31, 629.11 189.05 C630.73 188.78, 634.38 192.38, 636.20 192.43 C638.02 192.49, 639.55 189.22, 640.02 189.39 C640.48 189.55, 639.83 193.02, 638.99 193.41" fill="#faf7ef" stroke="none"/><path d="M635.97 190.35 C636.81 190.46, 636.09 192.17, 636.37 192.95 C636.64 193.74, 637.60 194.04, 637.63 195.07 C637.67 196.10, 636.96 198.59, 636.56 199.12 C636.16 199.66, 636.07 198.14, 635.25 198.29 C634.42 198.44, 632.39 200.49, 631.59 200.00 C630.80 199.51, 630.92 196.11, 630.46 195.33 C630.01 194.56, 628.68 196.03, 628.87 195.36 C629.05 194.69, 630.91 192.36, 631.58 191.32 C632.24 190.29, 632.05 189.09, 632.88 189.17 C633.70 189.24, 636.03 191.83, 636.54 191.76 M631.17 189.06 C631.86 188.52, 633.99 191.62, 635.08 191.90 C636.17 192.19, 637.64 190.87, 637.73 190.79 C637.82 190.70, 635.79 190.11, 635.63 191.38 C635.47 192.64, 636.88 196.79, 636.78 198.38 C636.68 199.97, 635.43 200.54, 635.04 200.93 C634.66 201.32, 634.91 201.49, 634.46 200.71 C634.01 199.93, 633.14 197.12, 632.35 196.25 C631.56 195.39, 630.50 196.40, 629.72 195.52 C628.95 194.65, 627.39 191.68, 627.68 191.01 C627.98 190.34, 631.28 191.79, 631.49 191.49" fill="none" stroke="#202020" stroke-width="2" stroke-linecap="round" stroke-linejoin="round"/><path d="M473.16 213.65 L481.88 212.20 L483.61 215.86 L473.55 215.73" fill="#faf7ef" stroke="none"/><path d="M476.50 212.21 C479.67 212.06, 481.20 211.30, 483.98 211.63 M476.50 211.84 C479.28 212.05, 481.75 211.53, 482.69 211.41 M482.31 212.14 C484.10 214.25, 483.76 215.57, 482.01 218.08 M483.04 211.43 C483.36 214.26, 483.02 215.75, 482.43 218.56 M483.38 218.14 C482.20 218.17, 478.64 217.24, 477.32 217.42 M483.17 218.21 C480.21 218.15, 478.00 218.36, 476.73 218.23 M475.89 217.19 C477.95 216.22, 477.23 214.20, 478.08 212.20 M477.42 218.54 C476.87 216.22, 476.85 214.73, 477.47 212.09" fill="none" stroke="#202020" stroke-width="2" stroke-linecap="round" stroke-linejoin="round"/><path d="M468.71 223.55 C466.25 228.81, 466.77 232.35, 467.51 233.27 M468.48 225.72 C468.97 228.41, 467.85 232.49, 467.18 234.43" fill="none" stroke="#202020" stroke-width="2" stroke-linecap="round" stroke-linejoin="round"/><path d="M474.42 225.65 C474.10 226.82, 475.44 232.11, 474.52 235.38 M476.47 224.58 C476.23 229.66, 475.90 233.31, 476.72 234.70" fill="none" stroke="#202020" stroke-width="2" stroke-linecap="round" stroke-linejoin="round"/><path d="M482.26 224.08 C484.48 228.25, 484.49 228.93, 484.09 236.02 M483.31 224.56 C483.10 229.01, 484.54 233.25, 484.56 235.95" fill="none" stroke="#202020" stroke-width="2" stroke-linecap="round" stroke-linejoin="round"/><path d="M492.84 226.45 C493.21 228.41, 492.13 230.85, 492.20 235.82 M492.06 225.94 C491.28 229.54, 492.25 232.13, 491.81 235.58" fill="none" stroke="#202020" stroke-width="2" stroke-linecap="round" stroke-linejoin="round"/><path d="M453.74 357.60 C467.32 358.75, 478.63 365.16, 505.24 383.91 M455.76 356.60 C469.54 365.32, 482.19 371.97, 507.00 382.25" fill="none" stroke="#202020" stroke-width="2" stroke-linecap="round" stroke-linejoin="round"/><path d="M505.57 358.89 C486.71 361.47, 470.06 371.97, 454.73 380.27 M506.59 356.19 C490.11 363.37, 476.92 369.31, 453.04 381.67" fill="none" stroke="#202020" stroke-width="2" stroke-linecap="round" stroke-linejoin="round"/></svg>