<svg xmlns="http://www.w3.org/2000/svg" viewBox="0 0 900 320" width="900" height="320"><path d="M337.74 67.02 C337.74 67.02, 337.74 67.02, 337.74 67.02 M337.74 67.02 C337.74 67.02, 337.74 67.02, 337.74 67.02 M307.29 105.93 C324.43 87.84, 345.33 61.46, 361.17 50.92 M308.90 109.12 C317.97 94.85, 329.18 82.33, 362.20 46.88 M308.98 117.09 C320.91 98.07, 339.99 81.21, 377.07 36.33 M303.79 115.15 C319.02 99.25, 330.73 85.23, 374.85 33.32 M305.46 125.27 C328.16 99.65, 349.17 72.60, 385.23 33.39 M303.99 125.59 C330.50 95.25, 358.24 61.72, 383.86 32.56 M297.47 131.10 C341.42 91.53, 373.55 51.70, 393.37 27.40 M302.27 135.24 C325.15 108.48, 348.79 81.13, 391.90 28.11 M301.47 138.06 C321.83 119.40, 343.75 92.01, 399.25 28.82 M297.49 143.65 C329.53 105.18, 358.07 69.47, 401.16 25.39 M298.07 152.17 C321.05 123.56, 346.87 92.13, 405.67 18.61 M298.32 148.44 C323.12 115.26, 351.97 86.27, 410.55 20.68 M295.89 155.70 C322.50 128.18, 354.18 98.30, 418.37 14.05 M297.73 155.77 C320.94 128.66, 346.72 99.05, 416.88 16.38 M298.67 166.98 C332.17 122.19, 365.03 80.36, 426.88 19.75 M296.58 164.02 C337.29 113.06, 378.94 68.69, 421.93 18.23 M297.37 167.53 C332.10 124.91, 370.13 86.37, 427.25 16.69 M295.83 169.40 C321.00 142.31, 347.47 110.98, 427.95 16.43 M298.50 178.95 C348.23 117.96, 398.64 53.98, 433.02 19.98 M295.17 177.99 C340.96 121.82, 389.71 67.16, 432.46 18.06 M298.23 183.68 C345.60 126.42, 392.91 67.05, 441.44 13.77 M295.46 184.41 C343.25 126.36, 394.79 68.14, 438.76 15.92 M296.32 192.44 C345.91 121.18, 403.83 60.01, 443.06 12.98 M294.87 191.49 C327.83 148.44, 365.32 107.20, 444.31 16.85 M292.78 194.85 C347.78 129.59, 408.02 66.64, 454.39 17.34 M295.04 197.51 C348.26 137.16, 399.23 78.01, 450.02 15.04 M298.37 199.32 C348.46 137.99, 404.56 71.77, 453.94 16.43 M294.50 199.49 C343.93 143.35, 391.02 85.43, 455.77 15.12 M295.28 202.34 C331.56 161.94, 370.25 115.77, 458.97 15.73 M295.53 205.22 C350.25 146.90, 403.92 85.45, 462.56 15.55 M296.35 212.42 C357.02 142.21, 416.83 71.44, 467.64 16.55 M297.23 210.71 C346.08 155.77, 392.80 105.32, 467.78 15.06 M300.90 215.99 C342.81 167.50, 380.34 125.01, 473.12 20.11 M301.28 215.11 C359.01 142.18, 420.69 74.35, 470.66 17.65 M301.66 217.60 C348.23 170.55, 390.85 115.05, 474.90 18.48 M302.70 218.23 C363.57 145.47, 427.42 74.65, 474.36 18.31 M300.30 224.42 C373.05 145.13, 447.15 60.63, 481.96 21.67 M303.81 222.73 C357.98 165.11, 408.55 105.69, 480.98 18.64 M303.86 224.81 C345.50 180.33, 380.61 139.01, 485.69 18.27 M304.08 226.40 C348.04 176.42, 391.69 128.68, 484.98 22.15 M308.85 232.07 C376.97 147.90, 450.44 68.69, 487.14 20.80 M306.09 231.98 C354.48 178.28, 401.52 126.17, 489.20 20.69 M306.37 235.41 C373.96 151.90, 449.57 68.76, 491.16 22.55 M307.93 235.13 C380.29 152.88, 453.44 67.64, 493.92 24.26 M307.49 243.40 C365.59 180.01, 423.98 107.84, 498.31 22.48 M308.85 240.90 C378.00 157.38, 448.49 76.92, 496.85 22.80 M311.54 244.56 C383.88 159.44, 456.97 79.87, 503.66 25.23 M310.22 244.89 C365.41 182.11, 423.98 115.37, 501.82 24.08 M312.65 247.30 C354.39 201.35, 399.23 154.25, 507.09 26.53 M314.28 247.64 C389.10 163.26, 466.56 74.17, 505.85 24.16 M311.81 254.97 C384.61 172.47, 453.83 92.36, 512.46 26.50 M313.92 252.69 C390.52 164.27, 464.79 79.33, 508.90 28.20 M318.66 253.76 C382.42 181.46, 448.45 105.59, 513.66 28.55 M315.66 254.38 C389.88 170.44, 461.49 85.58, 514.29 30.83 M319.46 259.03 C387.49 177.84, 453.09 102.90, 516.81 34.10 M317.42 260.65 C378.57 192.12, 436.28 125.45, 515.68 31.50 M319.04 260.72 C369.57 207.18, 416.90 150.10, 519.74 34.82 M320.60 263.11 C396.58 173.14, 473.85 85.65, 520.28 35.43 M326.00 264.50 C376.11 204.20, 432.67 138.18, 521.05 33.43 M324.61 265.83 C367.68 220.31, 409.33 172.02, 524.39 37.74 M324.58 269.70 C397.64 187.46, 468.65 105.70, 528.88 37.96 M324.99 270.56 C379.75 211.29, 435.11 147.25, 526.99 39.44 M325.55 276.29 C369.52 229.27, 412.59 182.25, 531.41 42.55 M326.71 273.37 C404.80 187.08, 481.26 99.07, 531.13 39.83 M330.35 279.16 C387.59 205.32, 450.32 138.15, 535.06 42.12 M329.19 278.13 C391.76 204.87, 454.50 131.78, 534.30 41.95 M333.18 281.41 C372.61 231.40, 416.60 177.90, 535.19 46.25 M330.75 280.48 C377.01 227.63, 424.73 171.17, 538.08 44.17 M336.41 287.33 C384.73 227.67, 433.89 170.97, 538.93 45.42 M333.29 283.55 C401.38 204.64, 473.51 121.66, 541.26 48.11 M338.05 288.96 C411.79 202.39, 482.78 114.17, 546.04 47.54 M335.86 286.64 C403.40 213.23, 467.49 136.47, 544.78 49.91 M337.77 290.75 C397.02 221.72, 455.26 158.02, 544.48 51.58 M341.01 289.14 C404.19 220.50, 465.47 148.64, 547.52 51.05 M343.63 292.79 C416.55 209.14, 487.31 124.69, 548.90 55.52 M342.28 294.12 C414.00 209.52, 488.16 123.74, 551.20 55.31 M347.05 296.50 C405.45 230.04, 465.27 164.25, 551.10 59.23 M345.28 296.29 C424.34 205.24, 501.48 117.01, 552.92 57.89 M351.03 297.65 C411.22 226.89, 474.52 158.54, 555.40 61.15 M349.73 296.08 C422.40 215.99, 493.10 134.76, 555.94 60.03 M355.27 302.30 C410.15 234.91, 473.24 164.28, 559.98 62.32 M352.09 298.71 C426.73 209.54, 506.13 121.22, 558.53 62.48 M353.08 303.66 C423.98 217.56, 494.95 137.32, 563.78 67.93 M354.98 302.14 C437.54 208.47, 521.09 114.90, 561.65 66.65 M357.89 305.91 C422.87 230.83, 486.51 156.19, 565.03 66.61 M360.01 305.93 C406.42 251.53, 456.69 192.57, 563.76 68.87 M363.16 309.54 C423.99 235.78, 480.10 168.17, 565.99 69.98 M362.01 309.19 C444.34 216.60, 521.26 125.97, 566.81 70.33 M364.26 313.04 C414.18 253.23, 461.24 195.28, 567.26 72.65 M363.94 309.31 C426.03 238.34, 486.21 169.12, 570.45 73.14 M366.34 311.85 C410.75 255.00, 461.50 204.85, 572.92 77.32 M369.20 312.86 C443.22 225.20, 517.35 139.57, 571.20 77.54 M373.40 314.58 C442.88 237.29, 510.16 158.45, 576.20 81.98 M371.84 314.03 C435.52 247.42, 496.99 177.95, 574.79 79.05 M375.43 319.36 C432.32 254.48, 489.04 194.08, 576.65 84.10 M376.14 317.61 C441.12 241.82, 506.76 167.53, 578.62 82.23 M377.11 316.58 C425.61 269.47, 468.16 215.54, 582.35 83.44 M379.09 317.24 C427.81 256.62, 480.22 197.38, 580.32 86.28 M380.72 323.20 C430.61 262.91, 480.25 203.00, 584.79 90.01 M381.01 319.36 C430.34 269.28, 477.40 216.36, 582.22 89.53 M388.84 322.54 C430.92 275.53, 474.10 228.60, 581.78 96.60 M387.46 320.19 C436.46 261.69, 488.44 202.06, 582.84 93.34 M393.33 321.34 C441.98 259.45, 499.71 201.62, 583.67 101.16 M389.89 324.58 C457.12 244.67, 529.84 163.41, 586.26 98.76 M395.06 326.63 C462.99 246.60, 534.48 165.00, 586.08 100.67 M394.16 326.82 C457.06 252.48, 518.74 178.91, 587.03 102.22 M397.60 325.04 C466.69 244.01, 538.98 163.78, 592.14 103.26 M398.89 325.61 C457.18 259.37, 514.02 196.05, 590.93 105.88 M404.48 330.73 C470.16 255.93, 533.89 177.73, 591.25 111.46 M401.25 327.35 C457.90 262.16, 515.20 196.18, 591.93 111.08 M402.75 328.30 C455.97 272.98, 509.87 212.03, 591.73 115.69 M406.63 330.23 C451.92 274.49, 498.27 221.58, 592.69 114.56 M408.44 331.61 C452.40 285.09, 493.42 241.15, 592.19 118.77 M408.64 332.07 C463.03 270.84, 516.58 206.42, 595.37 117.52 M411.12 332.72 C466.72 267.21, 528.02 201.74, 594.46 120.72 M414.29 333.45 C483.49 251.39, 552.26 170.31, 596.65 123.09 M416.05 334.79 C462.78 287.13, 501.08 243.15, 600.93 123.58 M420.29 333.53 C460.52 287.90, 503.17 239.86, 599.32 126.10 M425.95 331.32 C458.38 288.13, 496.82 242.54, 603.20 130.18 M424.39 334.03 C471.50 276.77, 521.39 222.81, 600.57 129.50 M430.37 333.50 C482.56 270.36, 541.86 209.07, 601.98 138.60 M430.09 334.95 C500.76 256.08, 569.34 178.43, 600.46 136.39 M435.40 337.32 C478.38 288.58, 519.06 243.24, 601.15 137.77 M433.17 334.45 C483.69 276.17, 534.13 218.54, 602.89 141.16 M441.56 334.64 C479.89 289.77, 516.48 249.02, 604.88 147.51 M438.30 333.67 C477.67 290.42, 512.33 251.33, 602.80 144.94 M446.22 337.96 C480.20 295.80, 516.24 255.10, 605.88 152.79 M444.49 334.31 C505.93 268.38, 568.78 196.44, 601.90 151.42 M448.82 332.49 C494.67 285.28, 544.51 231.91, 604.97 156.79 M450.23 335.31 C502.29 276.64, 552.75 218.44, 604.21 156.73 M454.57 334.77 C493.15 293.04, 532.02 244.00, 607.08 159.23 M453.49 336.13 C489.63 292.60, 526.14 249.24, 604.49 161.21 M457.44 334.75 C495.58 295.83, 529.02 254.99, 602.18 169.52 M457.26 334.81 C501.37 286.90, 544.68 238.90, 603.67 167.76 M467.78 333.61 C519.91 275.91, 568.20 217.69, 608.02 173.71 M466.14 336.85 C498.68 296.58, 529.30 259.63, 607.43 173.50 M468.26 336.09 C505.60 302.36, 537.42 265.47, 608.08 176.02 M471.19 333.66 C519.90 277.13, 571.88 219.26, 608.08 180.10 M473.44 335.51 C507.85 302.50, 532.33 270.00, 601.55 186.84 M478.01 334.19 C505.15 299.24, 533.02 269.68, 604.93 186.95 M481.09 333.77 C534.38 283.30, 576.84 223.96, 603.82 195.37 M482.62 334.07 C526.30 283.38, 567.29 233.20, 602.21 194.76 M490.60 329.64 C528.88 284.33, 566.16 240.52, 602.68 203.42 M487.69 330.27 C532.60 285.28, 572.49 239.67, 604.09 203.53 M497.93 332.08 C516.66 302.60, 540.80 279.06, 601.28 210.84 M494.18 328.41 C517.16 304.15, 540.45 279.78, 600.42 208.13 M498.45 333.03 C525.67 308.71, 545.15 280.58, 602.15 215.33 M502.74 327.28 C538.71 284.81, 575.82 240.88, 598.50 217.48 M509.83 330.90 C525.15 308.61, 545.29 281.99, 595.43 225.25 M506.57 328.70 C531.38 302.33, 551.29 277.57, 595.76 225.70 M519.30 319.77 C538.80 295.72, 563.33 269.64, 588.97 241.77 M522.47 319.61 C531.30 304.86, 547.17 289.97, 589.62 239.80 M532.99 307.63 C544.87 293.32, 559.39 278.05, 582.20 256.30 M536.08 310.94 C552.35 287.57, 568.76 269.87, 583.59 255.10 M565.16 280.76 C567.03 276.28, 575.65 271.41, 579.76 262.96 M564.34 280.11 C569.91 276.19, 571.82 274.34, 576.75 266.12" fill="#faf7ef" stroke="none"/><path d="M417.41 16.93 C431.09 10.84, 448.41 13.72, 463.41 15.23 C478.40 16.74, 493.36 19.94, 507.38 26.00 C521.40 32.06, 535.45 41.73, 547.54 51.60 C559.63 61.47, 570.99 71.93, 579.90 85.21 C588.81 98.50, 596.61 115.83, 601.00 131.34 C605.38 146.85, 606.73 162.96, 606.23 178.27 C605.73 193.58, 602.75 208.50, 598.01 223.20 C593.28 237.91, 586.76 253.28, 577.82 266.51 C568.87 279.74, 556.16 292.30, 544.34 302.60 C532.52 312.89, 520.98 322.65, 506.92 328.27 C492.85 333.90, 475.67 335.60, 459.92 336.33 C444.17 337.06, 426.97 336.01, 412.42 332.65 C397.87 329.30, 385.82 324.15, 372.62 316.19 C359.42 308.22, 343.52 296.62, 333.22 284.84 C322.92 273.06, 317.35 260.22, 310.80 245.52 C304.25 230.82, 296.28 212.17, 293.93 196.63 C291.58 181.09, 294.30 167.76, 296.70 152.28 C299.11 136.80, 301.52 117.96, 308.35 103.75 C315.19 89.55, 326.96 78.36, 337.72 67.05 C348.48 55.73, 352.80 44.45, 372.94 35.88 C393.08 27.32, 438.08 17.32, 458.56 15.66 C479.04 14.00, 495.85 23.11, 495.82 25.93 M375.39 36.16 C387.04 27.18, 402.89 23.37, 418.72 19.56 C434.55 15.74, 454.34 11.29, 470.38 13.28 C486.42 15.28, 501.79 24.74, 514.95 31.53 C528.11 38.33, 538.46 43.83, 549.34 54.07 C560.22 64.32, 571.25 79.65, 580.25 93.00 C589.24 106.34, 599.38 118.77, 603.30 134.16 C607.21 149.55, 604.56 169.62, 603.73 185.34 C602.90 201.06, 603.09 213.94, 598.31 228.49 C593.52 243.03, 584.67 259.30, 575.01 272.61 C565.36 285.92, 552.64 299.39, 540.37 308.35 C528.10 317.30, 515.73 321.75, 501.41 326.34 C487.09 330.92, 469.76 335.48, 454.46 335.85 C439.17 336.22, 423.77 332.49, 409.65 328.53 C395.53 324.58, 382.95 320.38, 369.76 312.14 C356.57 303.90, 340.82 291.54, 330.53 279.11 C320.23 266.68, 314.31 252.27, 308.01 237.58 C301.71 222.89, 294.59 205.78, 292.74 190.97 C290.88 176.17, 294.04 163.49, 296.87 148.73 C299.70 133.97, 302.37 117.19, 309.71 102.41 C317.05 87.63, 329.22 71.93, 340.91 60.05 C352.60 48.17, 373.96 34.82, 379.86 31.13 C385.76 27.44, 375.67 35.12, 376.32 37.89" fill="none" stroke="#202020" stroke-width="2" stroke-linecap="round" stroke-linejoin="round"/><path d="M307.69 18.37 C307.69 18.37, 307.69 18.37, 307.69 18.37 M307.69 18.37 C307.69 18.37, 307.69 18.37, 307.69 18.37 M280.83 56.23 C297.84 38.42, 313.99 16.43, 332.46 1.69 M280.40 54.90 C293.37 37.87, 312.39 21.15, 327.86 -1.79 M269.16 72.41 C287.54 48.51, 303.66 30.14, 350.07 -13.66 M273.04 70.88 C302.25 38.77, 328.25 6.33, 347.41 -17.14 M266.10 87.17 C287.42 63.14, 302.34 40.20, 359.22 -17.31 M266.47 82.77 C300.49 45.39, 336.10 2.94, 353.95 -18.47 M263.83 100.51 C287.15 70.69, 310.59 37.92, 363.32 -20.42 M259.51 95.98 C282.52 73.39, 307.15 44.98, 364.38 -20.83 M252.05 113.97 C298.54 63.05, 348.42 8.13, 368.45 -23.24 M255.29 109.03 C277.52 82.83, 304.04 54.51, 372.52 -24.47 M253.75 118.64 C278.71 86.45, 306.63 50.29, 383.00 -28.10 M253.93 120.48 C296.96 69.26, 337.55 21.54, 381.08 -26.85 M252.88 128.27 C279.73 89.95, 309.43 59.84, 387.64 -26.92 M249.43 126.12 C305.04 61.09, 358.70 1.42, 386.97 -29.12 M250.32 137.13 C283.27 97.87, 310.30 62.25, 397.83 -36.11 M250.13 134.68 C283.46 94.11, 321.20 53.24, 396.88 -35.54 M244.71 142.62 C299.27 88.18, 347.40 28.35, 401.11 -36.63 M248.82 142.06 C281.15 101.83, 315.89 64.29, 403.37 -34.07 M247.45 149.94 C299.26 93.73, 348.91 30.13, 410.51 -35.62 M248.20 151.11 C299.94 93.66, 347.92 32.97, 407.22 -35.16 M245.31 159.10 C309.03 83.69, 373.27 5.14, 415.37 -39.10 M244.38 156.66 C302.84 86.29, 361.17 17.37, 415.42 -36.88 M247.08 163.82 C277.51 121.56, 321.02 73.21, 422.10 -38.92 M245.66 163.19 C287.35 112.80, 333.45 59.24, 421.43 -39.33 M248.11 169.78 C304.85 106.07, 357.19 41.91, 427.53 -36.68 M244.36 169.80 C306.92 96.56, 368.31 27.59, 426.44 -38.19 M244.00 173.98 C302.45 114.38, 356.81 53.01, 429.72 -37.68 M244.94 175.46 C314.25 91.37, 382.71 12.17, 432.93 -40.00 M244.70 182.38 C293.39 129.03, 334.77 79.22, 440.99 -43.11 M246.88 179.34 C313.58 95.82, 387.06 15.37, 439.96 -41.22 M246.48 187.59 C293.71 138.19, 340.76 82.68, 444.16 -40.25 M247.14 186.12 C318.45 99.70, 389.40 15.02, 443.95 -42.17 M245.84 189.12 C332.35 97.05, 407.53 7.34, 449.83 -42.32 M246.22 192.27 C289.04 143.03, 332.30 93.42, 450.09 -42.94 M245.91 195.52 C321.45 112.05, 390.71 31.72, 455.89 -42.19 M249.20 197.59 C308.22 127.19, 367.07 61.82, 455.95 -42.60 M247.01 200.70 C327.22 111.57, 404.80 21.47, 461.96 -42.91 M248.80 202.24 C320.13 119.46, 390.79 38.12, 459.71 -43.14 M249.04 205.78 C306.65 139.93, 361.85 73.35, 467.24 -38.13 M247.97 209.04 C330.49 117.51, 410.51 24.01, 465.29 -41.28 M249.15 211.08 C301.38 152.49, 354.39 95.71, 470.26 -39.37 M250.43 213.89 C330.00 124.01, 407.81 35.40, 469.75 -40.71 M249.29 216.66 C326.66 130.45, 405.77 37.73, 476.52 -38.50 M248.86 218.30 C311.59 149.88, 371.69 79.44, 473.92 -41.36 M252.72 222.19 C303.65 165.11, 355.55 102.38, 479.18 -39.74 M249.50 223.45 C310.71 154.83, 369.50 86.36, 479.91 -37.87 M252.10 229.22 C340.33 126.86, 427.47 27.05, 483.44 -38.03 M252.50 228.79 C322.50 152.51, 388.46 72.85, 485.07 -38.86 M256.10 230.23 C300.53 176.18, 348.40 119.50, 490.30 -35.76 M255.05 232.88 C300.34 173.85, 351.50 113.50, 490.66 -37.27 M252.72 236.83 C328.65 159.54, 395.31 80.38, 494.68 -38.72 M254.74 236.71 C318.33 169.31, 377.83 98.32, 493.34 -37.63 M254.82 241.55 C339.86 142.54, 424.39 47.76, 499.27 -35.72 M256.20 242.09 C330.24 154.57, 409.30 65.81, 497.73 -36.46 M258.47 243.68 C348.72 146.65, 435.04 42.88, 501.23 -35.99 M258.65 246.78 C316.10 176.99, 374.59 109.38, 502.80 -34.49 M258.48 251.76 C346.09 145.83, 433.15 49.28, 507.65 -31.75 M259.75 249.59 C320.92 178.99, 386.86 104.93, 507.21 -33.60 M263.52 252.75 C356.87 147.02, 453.35 37.90, 512.66 -31.35 M260.51 255.18 C325.24 176.24, 390.62 100.07, 511.16 -33.26 M265.11 258.43 C315.46 198.65, 363.39 142.01, 515.99 -30.90 M262.86 260.11 C351.94 152.65, 446.02 43.84, 515.38 -30.72 M264.51 262.74 C321.55 197.37, 380.37 127.81, 519.81 -29.61 M263.35 263.20 C366.02 150.11, 465.78 36.32, 518.21 -29.07 M263.98 268.18 C343.76 176.74, 425.75 80.22, 523.99 -30.01 M265.86 266.88 C351.28 165.58, 437.39 66.14, 523.72 -26.92 M267.90 274.37 C318.10 209.93, 374.23 150.40, 526.10 -29.02 M266.95 272.81 C360.33 167.91, 452.17 61.40, 526.35 -27.34 M270.35 277.76 C337.60 198.14, 400.21 123.77, 532.99 -25.86 M270.14 276.02 C329.83 201.36, 393.83 128.49, 531.86 -24.71 M269.24 277.85 C323.28 220.50, 378.24 158.68, 534.52 -23.28 M270.87 280.46 C368.40 169.25, 467.14 56.89, 534.48 -22.67 M272.48 283.97 C330.24 217.70, 387.81 152.97, 536.88 -23.76 M272.63 282.29 C327.51 216.29, 386.23 148.42, 537.73 -21.97 M278.24 286.52 C368.05 176.49, 456.45 71.12, 544.27 -20.15 M275.23 286.30 C345.96 208.22, 415.73 128.18, 543.11 -20.75 M276.61 290.25 C374.82 179.90, 472.06 68.57, 546.41 -19.14 M278.32 290.68 C383.26 170.54, 486.51 51.18, 547.76 -19.43 M282.05 291.89 C340.31 223.14, 408.59 147.80, 548.44 -15.51 M280.85 294.11 C343.68 224.14, 407.67 151.44, 549.72 -17.39 M282.84 295.11 C374.66 191.24, 464.87 85.25, 553.25 -16.11 M282.92 296.73 C362.70 204.98, 443.35 110.41, 555.03 -15.03 M282.88 299.14 C360.79 209.42, 433.51 120.98, 557.47 -13.81 M284.80 300.64 C384.04 185.03, 481.82 71.50, 556.60 -12.74 M285.58 305.97 C351.91 229.25, 410.85 160.92, 558.56 -9.59 M286.20 304.27 C393.27 184.63, 498.88 63.80, 559.49 -8.96 M289.11 308.64 C378.09 202.40, 470.69 99.54, 562.56 -5.38 M289.92 307.41 C394.72 183.49, 502.60 59.72, 563.61 -6.44 M290.12 313.59 C372.92 211.23, 461.28 113.33, 567.59 -6.60 M291.74 311.57 C366.21 220.40, 445.16 129.34, 567.68 -5.60 M294.15 313.97 C398.86 199.65, 496.64 81.42, 568.37 -2.29 M294.73 315.38 C376.54 215.42, 463.47 115.82, 570.19 -2.99 M297.67 318.22 C371.45 236.83, 441.75 155.70, 573.93 0.15 M296.47 317.91 C368.26 239.18, 438.22 156.13, 572.05 -0.77 M299.87 322.49 C363.63 252.55, 423.17 179.81, 575.73 3.78 M298.04 319.89 C399.03 209.89, 495.73 98.96, 575.91 0.65 M302.33 322.96 C366.64 251.54, 432.52 176.66, 577.53 4.41 M302.34 323.78 C381.36 236.36, 459.15 147.58, 580.32 3.46 M306.36 328.33 C409.96 205.55, 512.89 88.73, 584.29 8.18 M305.17 327.35 C390.29 231.23, 474.25 134.71, 583.04 7.75 M308.50 329.36 C363.51 262.29, 423.01 194.65, 586.10 10.27 M305.79 331.03 C387.39 243.91, 462.37 154.29, 585.14 8.76 M308.54 332.77 C397.07 234.20, 481.32 136.00, 587.36 11.28 M310.05 333.50 C411.11 221.37, 511.88 105.32, 588.28 10.45 M314.63 334.80 C379.39 259.85, 445.36 180.92, 591.22 15.39 M313.32 335.15 C411.34 220.11, 515.04 100.70, 591.79 14.45 M313.52 340.85 C397.58 242.83, 485.18 143.28, 595.14 19.06 M314.28 339.88 C402.10 236.95, 493.15 133.03, 593.54 18.16 M316.25 343.10 C377.27 276.09, 432.51 208.17, 598.51 21.73 M318.20 341.98 C403.83 244.58, 486.78 148.21, 595.90 21.82 M322.20 343.53 C391.55 264.60, 460.07 181.47, 597.68 24.40 M321.13 344.30 C399.80 254.22, 479.90 163.11, 598.45 23.96 M325.51 347.45 C394.15 269.60, 460.69 191.15, 600.36 27.61 M324.37 347.99 C431.56 220.36, 540.52 94.58, 600.91 27.97 M326.56 351.49 C382.18 281.47, 438.97 215.20, 602.11 29.16 M326.66 349.61 C437.52 222.60, 547.85 94.40, 603.19 30.54 M329.51 355.07 C396.86 281.02, 463.73 204.58, 605.31 33.79 M328.16 354.00 C436.71 227.22, 544.87 100.88, 606.03 34.85 M332.36 358.00 C423.73 254.31, 509.86 150.18, 609.55 36.74 M332.57 356.23 C440.67 230.08, 546.37 107.41, 609.35 37.00 M336.46 359.09 C422.04 254.41, 511.53 154.66, 611.76 41.16 M335.71 358.35 C434.62 248.47, 529.86 138.44, 610.72 41.66 M337.41 359.18 C430.33 248.70, 524.03 143.62, 614.68 44.96 M339.52 359.99 C424.52 262.83, 508.87 164.26, 614.37 44.56 M342.87 363.55 C438.11 251.67, 535.22 140.63, 615.35 45.32 M343.81 361.53 C426.31 264.98, 511.22 167.93, 615.57 48.12 M344.02 363.66 C449.73 241.82, 554.21 120.85, 617.33 48.52 M346.55 364.05 C421.58 275.30, 498.68 186.56, 618.41 50.12 M347.93 365.96 C414.47 296.60, 474.02 225.55, 623.43 52.05 M350.60 365.23 C449.67 258.20, 544.26 147.20, 622.18 53.51 M351.68 368.50 C435.41 276.36, 514.15 182.60, 622.33 55.10 M354.10 367.25 C429.68 281.72, 506.27 190.96, 624.10 58.13 M355.77 368.92 C453.06 262.21, 547.42 154.04, 626.01 60.59 M357.35 370.96 C429.73 285.04, 503.04 200.13, 625.33 60.87 M358.98 371.75 C419.45 309.35, 475.45 243.88, 629.01 64.59 M359.80 372.91 C441.06 274.35, 523.73 180.30, 628.53 65.37 M365.05 372.82 C451.62 274.81, 541.05 173.83, 631.41 66.81 M364.80 375.56 C435.43 294.36, 505.90 213.21, 629.18 68.32 M369.39 377.06 C465.70 264.00, 565.19 148.81, 633.41 72.30 M366.43 375.46 C461.71 275.42, 550.82 170.65, 631.89 72.77 M372.91 380.16 C459.34 273.08, 545.44 174.25, 634.32 75.52 M371.73 379.20 C461.82 276.06, 549.56 173.51, 633.03 76.18 M372.89 381.40 C470.82 268.86, 565.43 162.45, 633.70 79.01 M374.04 380.59 C447.46 297.75, 522.67 211.58, 633.46 81.46 M377.53 383.92 C445.17 304.52, 514.00 228.59, 637.43 83.67 M379.15 381.33 C446.67 301.30, 517.67 217.59, 635.42 85.16 M384.95 382.87 C468.16 285.07, 551.00 189.98, 638.43 88.73 M382.70 383.48 C445.81 309.95, 508.87 236.32, 638.56 89.90 M388.17 383.43 C459.93 303.26, 533.27 220.82, 639.75 94.29 M387.11 383.13 C485.18 270.90, 580.14 162.53, 640.70 92.56 M390.19 383.06 C465.66 292.46, 545.62 202.46, 640.95 98.87 M392.28 384.45 C488.13 274.68, 581.65 165.58, 641.19 96.83 M396.32 384.64 C496.04 270.78, 596.21 158.29, 643.56 102.64 M396.46 384.84 C448.52 324.33, 501.77 265.70, 643.00 102.28 M400.71 386.64 C465.76 315.99, 524.79 248.79, 646.09 106.32 M400.37 385.71 C483.69 294.17, 564.28 204.01, 644.79 104.31 M406.44 385.71 C494.63 280.36, 588.69 175.24, 646.26 110.09 M404.97 388.65 C462.24 322.14, 520.08 256.26, 647.49 111.17 M408.02 387.00 C495.28 287.15, 585.29 188.95, 649.40 115.23 M408.87 390.15 C479.39 308.71, 550.04 227.94, 646.74 115.66 M413.06 388.46 C491.58 303.82, 569.90 211.73, 648.22 122.68 M414.81 390.60 C475.18 321.46, 536.81 251.73, 648.02 121.78 M420.82 388.23 C484.85 309.83, 556.56 230.09, 649.33 126.97 M417.52 390.48 C505.25 286.02, 593.38 184.90, 647.56 126.11 M424.05 389.63 C465.50 336.18, 509.85 285.13, 651.72 133.00 M422.74 390.55 C481.88 322.12, 540.59 255.30, 649.62 131.66 M429.05 395.26 C474.21 340.16, 520.88 283.48, 651.25 136.27 M428.01 393.19 C511.57 291.18, 597.59 192.31, 650.69 137.88 M430.84 395.26 C504.06 313.66, 571.89 237.81, 650.81 140.07 M432.73 392.09 C491.54 326.30, 552.22 257.25, 651.30 140.76 M437.90 393.75 C487.68 334.46, 533.31 278.40, 650.84 148.00 M439.03 392.21 C485.77 335.69, 535.94 277.95, 650.91 146.69 M441.74 391.35 C515.12 308.96, 587.74 230.03, 654.17 149.70 M444.27 393.90 C490.59 334.49, 538.45 278.93, 651.69 151.49 M446.48 391.99 C510.07 313.87, 576.85 243.72, 651.39 156.61 M447.37 393.69 C503.69 333.53, 556.22 272.31, 652.90 158.23 M454.30 393.88 C519.21 319.40, 579.41 247.18, 654.59 165.14 M452.60 393.33 C505.47 339.48, 553.95 282.53, 654.25 163.10 M458.08 396.57 C529.72 309.08, 604.73 223.68, 651.39 167.07 M457.70 393.86 C501.08 345.99, 545.85 297.23, 652.33 168.79 M466.15 396.11 C529.81 314.82, 595.48 235.24, 654.11 175.30 M464.04 394.78 C512.00 338.45, 558.84 283.13, 651.26 176.19 M466.18 393.74 C527.56 325.12, 587.84 253.08, 651.34 185.66 M469.60 394.31 C508.38 352.95, 545.25 311.03, 653.43 183.54 M473.97 392.03 C512.47 345.16, 555.65 298.28, 650.93 189.87 M472.34 394.57 C525.02 335.47, 575.57 279.64, 652.33 187.38 M477.35 392.09 C533.77 330.23, 592.78 258.63, 651.14 193.07 M479.73 394.75 C541.90 317.27, 606.06 241.26, 653.06 195.72 M485.36 390.82 C551.88 322.08, 615.12 247.28, 651.52 200.30 M484.67 391.52 C532.24 337.60, 583.79 280.02, 652.46 199.86 M492.27 391.31 C541.59 340.00, 581.26 292.61, 653.65 207.67 M492.73 392.48 C527.25 355.18, 559.68 318.14, 652.23 208.40 M502.43 388.87 C545.45 337.32, 588.26 283.13, 653.79 211.57 M499.41 389.24 C551.93 325.52, 609.15 262.93, 651.59 212.89 M504.92 383.81 C564.59 322.34, 620.72 258.20, 651.03 219.59 M505.97 386.57 C535.51 352.64, 564.82 319.45, 651.49 223.07 M514.07 383.73 C564.16 331.64, 610.43 275.04, 650.47 233.57 M513.40 386.34 C544.24 349.77, 577.33 311.84, 648.21 232.31 M522.99 381.38 C550.99 346.72, 589.98 308.25, 643.92 241.90 M519.54 383.51 C563.73 340.94, 602.70 293.00, 646.98 238.43 M529.58 380.79 C561.76 337.87, 600.02 294.03, 644.02 246.15 M526.06 381.55 C566.41 334.51, 604.76 293.31, 642.63 247.92 M543.39 370.48 C570.25 340.31, 596.72 298.97, 642.22 256.15 M541.03 375.29 C566.06 342.58, 593.67 312.35, 640.49 257.11 M549.37 366.98 C569.08 340.50, 593.30 322.52, 636.17 268.82 M551.64 362.90 C578.37 331.84, 608.83 300.40, 640.25 266.04 M563.99 356.27 C583.79 340.21, 599.45 314.36, 627.33 287.50 M564.23 356.95 C584.14 332.68, 602.96 312.67, 628.97 283.75 M584.25 339.11 C598.09 328.84, 606.08 316.87, 616.52 302.45 M586.79 338.78 C595.14 329.54, 599.99 319.91, 615.53 303.38" fill="#faf7ef" stroke="none"/><path d="M623.53 56.89 C635.42 69.42, 640.56 87.71, 645.45 104.75 C650.35 121.80, 651.80 141.06, 652.91 159.18 C654.03 177.29, 654.49 195.85, 652.14 213.44 C649.80 231.03, 645.80 248.10, 638.85 264.70 C631.90 281.31, 621.21 298.84, 610.43 313.09 C599.65 327.34, 587.63 339.07, 574.18 350.21 C560.73 361.35, 545.78 372.54, 529.73 379.95 C513.68 387.35, 494.93 392.57, 477.88 394.64 C460.83 396.71, 444.07 394.43, 427.43 392.37 C410.79 390.30, 394.14 388.43, 378.03 382.22 C361.92 376.02, 344.78 366.14, 330.78 355.15 C316.78 344.16, 304.76 330.14, 294.03 316.28 C283.30 302.43, 273.82 287.84, 266.41 272.02 C259.00 256.20, 253.33 239.44, 249.56 221.37 C245.78 203.30, 243.07 182.02, 243.76 163.59 C244.45 145.16, 248.29 127.78, 253.70 110.79 C259.12 93.80, 267.27 77.00, 276.23 61.64 C285.19 46.28, 295.65 31.61, 307.47 18.62 C319.29 5.63, 332.65 -7.50, 347.17 -16.29 C361.69 -25.08, 377.90 -29.57, 394.59 -34.12 C411.29 -38.67, 429.91 -43.11, 447.33 -43.57 C464.74 -44.04, 482.28 -40.95, 499.09 -36.90 C515.91 -32.85, 533.14 -27.46, 548.22 -19.28 C563.30 -11.11, 572.58 -12.58, 589.58 12.15 C606.58 36.89, 640.41 97.10, 650.21 129.14 C660.01 161.18, 651.54 203.71, 648.38 204.37 M363.59 -22.31 C376.50 -32.95, 395.56 -39.07, 412.04 -42.09 C428.53 -45.11, 445.24 -41.77, 462.49 -40.43 C479.73 -39.08, 499.59 -38.91, 515.51 -34.00 C531.44 -29.09, 543.51 -21.09, 558.03 -10.96 C572.55 -0.83, 590.42 13.15, 602.62 26.76 C614.81 40.38, 623.36 55.31, 631.19 70.72 C639.01 86.13, 645.58 101.46, 649.58 119.23 C653.57 137.01, 654.87 158.65, 655.16 177.36 C655.44 196.06, 656.02 214.20, 651.30 231.46 C646.58 248.72, 635.65 265.12, 626.86 280.89 C618.06 296.67, 610.09 312.65, 598.51 326.10 C586.93 339.55, 571.16 351.76, 557.38 361.60 C543.61 371.44, 532.13 379.95, 515.86 385.16 C499.59 390.37, 477.06 392.16, 459.77 392.84 C442.49 393.53, 428.50 392.45, 412.15 389.30 C395.80 386.14, 377.51 381.76, 361.66 373.94 C345.82 366.12, 330.12 354.18, 317.09 342.37 C304.06 330.57, 292.92 317.31, 283.47 303.12 C274.03 288.94, 266.49 273.92, 260.42 257.27 C254.36 240.63, 249.05 221.86, 247.08 203.27 C245.11 184.67, 246.10 163.82, 248.59 145.69 C251.09 127.55, 256.44 110.88, 262.03 94.48 C267.62 78.09, 272.21 61.76, 282.14 47.32 C292.07 32.89, 308.10 19.22, 321.61 7.87 C335.12 -3.48, 356.05 -16.47, 363.20 -20.78 C370.34 -25.09, 362.76 -21.08, 364.47 -17.99" fill="none" stroke="#202020" stroke-width="2" stroke-linecap="round" stroke-linejoin="round"/><path d="M462.26 78.07 C474.35 78.17, 486.65 84.49, 497.91 90.07 C509.16 95.66, 520.41 102.80, 529.81 111.59 C539.22 120.39, 549.17 132.05, 554.35 142.85 C559.53 153.65, 561.40 164.57, 560.89 176.41 C560.38 188.26, 556.45 202.87, 551.27 213.92 C546.09 224.97, 538.94 234.08, 529.82 242.72 C520.70 251.35, 508.39 260.61, 496.55 265.74 C484.70 270.86, 471.83 273.00, 458.76 273.49 C445.68 273.98, 430.64 271.88, 418.09 268.68 C405.53 265.48, 393.72 261.29, 383.42 254.28 C373.13 247.26, 363.27 236.49, 356.32 226.57 C349.38 216.66, 344.16 206.18, 341.76 194.81 C339.36 183.44, 339.64 169.87, 341.91 158.36 C344.18 146.85, 348.06 136.19, 355.38 125.78 C362.70 115.36, 374.65 102.94, 385.82 95.86 C397.00 88.78, 402.78 83.81, 422.43 83.31 C442.07 82.81, 484.72 86.93, 503.71 92.84 C522.70 98.74, 537.21 117.90, 536.34 118.73 M531.66 113.87 C541.30 121.31, 546.03 129.89, 550.72 140.57 C555.40 151.25, 559.73 165.81, 559.77 177.94 C559.81 190.08, 556.01 202.17, 550.97 213.39 C545.93 224.60, 538.72 236.81, 529.52 245.22 C520.33 253.64, 508.06 259.37, 495.80 263.88 C483.54 268.39, 468.45 270.95, 455.96 272.26 C443.47 273.57, 433.19 274.46, 420.85 271.74 C408.51 269.02, 393.12 263.89, 381.92 255.96 C370.71 248.03, 360.06 234.36, 353.64 224.17 C347.23 213.97, 345.53 205.50, 343.41 194.79 C341.30 184.08, 338.14 172.15, 340.93 159.90 C343.72 147.66, 352.67 131.28, 360.16 121.32 C367.65 111.35, 375.89 106.93, 385.88 100.10 C395.87 93.28, 407.22 84.18, 420.11 80.37 C433.00 76.56, 450.15 76.13, 463.22 77.25 C476.29 78.38, 487.53 81.00, 498.53 87.12 C509.52 93.24, 524.13 109.84, 529.21 113.98 C534.29 118.12, 530.08 110.95, 529.01 111.95" fill="#faf7ef" stroke="none"/><path d="M360.90 119.57 C366.90 109.12, 380.63 97.96, 391.94 91.74 C403.25 85.52, 415.95 84.14, 428.75 82.23 C441.54 80.33, 455.54 78.95, 468.72 80.32 C481.90 81.69, 496.49 84.70, 507.83 90.46 C519.17 96.22, 528.87 105.38, 536.78 114.87 C544.69 124.35, 551.75 135.61, 555.29 147.37 C558.83 159.13, 559.01 173.82, 557.99 185.41 C556.97 197.00, 554.55 206.91, 549.15 216.92 C543.74 226.93, 535.41 236.90, 525.56 245.47 C515.70 254.05, 502.62 263.41, 490.04 268.36 C477.47 273.31, 463.39 275.18, 450.10 275.18 C436.81 275.17, 422.67 272.99, 410.28 268.33 C397.88 263.67, 385.28 255.29, 375.73 247.22 C366.19 239.15, 359.12 230.10, 353.01 219.91 C346.89 209.72, 340.50 197.61, 339.05 186.09 C337.60 174.56, 332.67 167.61, 344.30 150.76 C355.92 133.91, 388.71 96.44, 408.78 84.97 C428.85 73.49, 464.11 80.34, 464.70 81.90 M510.54 93.09 C522.02 97.51, 532.38 106.84, 539.64 116.44 C546.91 126.04, 551.24 139.14, 554.14 150.68 C557.03 162.23, 558.25 174.27, 557.03 185.70 C555.81 197.14, 552.44 208.72, 546.80 219.29 C541.17 229.85, 532.85 241.31, 523.22 249.10 C513.59 256.88, 501.57 261.86, 489.02 265.99 C476.47 270.11, 461.12 273.47, 447.90 273.86 C434.69 274.25, 421.89 273.40, 409.73 268.31 C397.56 263.22, 384.92 251.59, 374.91 243.33 C364.89 235.06, 355.44 229.06, 349.64 218.74 C343.83 208.41, 341.06 192.95, 340.06 181.38 C339.06 169.81, 339.59 160.90, 343.64 149.33 C347.69 137.76, 355.86 121.12, 364.37 111.95 C372.89 102.79, 383.16 99.46, 394.73 94.35 C406.30 89.25, 420.91 83.66, 433.80 81.34 C446.69 79.02, 458.99 78.22, 472.07 80.42 C485.15 82.62, 506.21 92.31, 512.28 94.55 C518.34 96.79, 509.65 92.28, 508.44 93.85" fill="none" stroke="#202020" stroke-width="2" stroke-linecap="round" stroke-linejoin="round"/><path d="M657.46 -33.76 C678.98 -58.45, 706.08 -86.40, 733.03 -106.93 M655.69 -32.16 C680.47 -56.04, 708.56 -83.21, 734.45 -112.11" fill="none" stroke="#202020" stroke-width="2" stroke-linecap="round" stroke-linejoin="round"/><path d="M656.47 380.08 C679.87 406.82, 705.22 433.03, 734.44 465.41 M655.90 382.11 C689.96 413.69, 718.28 444.56, 734.57 461.36" fill="none" stroke="#202020" stroke-width="2" stroke-linecap="round" stroke-linejoin="round"/><path d="M242.44 383.87 C225.96 405.47, 201.10 422.23, 166.54 460.51 M245.15 383.12 C221.34 405.01, 197.70 431.94, 163.07 464.18" fill="none" stroke="#202020" stroke-width="2" stroke-linecap="round" stroke-linejoin="round"/><path d="M247.25 -26.50 C217.73 -56.72, 185.22 -85.71, 166.11 -114.27 M243.89 -30.00 C223.23 -48.71, 206.19 -66.63, 162.15 -109.30" fill="none" stroke="#202020" stroke-width="2" stroke-linecap="round" stroke-linejoin="round"/></svg>