<svg xmlns="http://www.w3.org/2000/svg" viewBox="0 0 900 320" width="900" height="320"><path d="M450.05 15.93 C585.90 61.67, 718.51 106.42, 883.01 161.27 M449.55 16.63 C605.10 64.10, 756.71 114.21, 884.82 159.55 M885.64 158.45 C782.71 197.67, 677.52 231.70, 451.26 303.43 M884.27 160.74 C785.83 195.38, 686.10 227.50, 449.34 304.56 M448.45 305.63 C347.04 270.27, 242.90 236.61, 16.01 159.54 M449.93 303.57 C360.60 277.56, 272.60 248.69, 15.99 160.12 M16.78 161.83 C188.08 103.18, 358.55 47.92, 450.50 17.36 M15.61 159.20 C145.60 117.04, 276.85 74.38, 450.79 15.17" fill="none" stroke="#202020" stroke-width="2" stroke-linecap="round" stroke-linejoin="round"/><path d="M26.45 157.52 C34.72 159.31, 44.26 159.15, 52.06 162.19 M26.64 159.40 C34.73 158.98, 43.90 161.86, 52.70 160.36" fill="none" stroke="#202020" stroke-width="2" stroke-linecap="round" stroke-linejoin="round"/><path d="M851.22 156.39 C858.37 160.80, 867.67 160.49, 876.96 157.87 M849.73 158.30 C854.98 158.33, 863.01 159.86, 872.10 161.50" fill="none" stroke="#202020" stroke-width="2" stroke-linecap="round" stroke-linejoin="round"/><path d="M42.57 153.80 C46.24 156.10, 47.92 157.46, 49.87 158.70 M43.61 155.82 C44.90 155.77, 47.67 157.27, 51.16 159.47 M52.49 159.07 C50.28 161.77, 47.89 163.74, 45.46 164.51 M50.39 159.83 C48.19 162.14, 46.21 164.10, 44.08 165.04" fill="none" stroke="#202020" stroke-width="2" stroke-linecap="round" stroke-linejoin="round"/><path d="M857.41 155.32 C853.60 155.60, 850.73 159.57, 848.48 161.32 M855.51 154.85 C852.83 157.58, 850.42 158.72, 848.87 160.67 M848.82 158.57 C852.92 162.89, 854.44 162.32, 856.49 166.65 M849.56 159.70 C850.32 161.34, 853.01 162.46, 855.60 164.57" fill="none" stroke="#202020" stroke-width="2" stroke-linecap="round" stroke-linejoin="round"/></svg>